<svg width="148" height="32" viewBox="0 0 148 32" xmlns="http://www.w3.org/2000/svg"><title>bitbasement-white</title><path d="M42.78 19.305h2.68c.628 0 1.11-.098 1.442-.295.334-.197.5-.57.5-1.118 0-.895-.72-1.342-2.16-1.342H42.78v2.755zm0-4.327h2.173c1.237 0 1.856-.418 1.856-1.255 0-.48-.152-.827-.45-1.038-.3-.212-.764-.318-1.392-.318h-2.19v2.61zm2.724 5.9h-4.436V10.794h3.943c.687 0 1.28.082 1.777.245.497.164.867.385 1.108.664.464.52.696 1.106.696 1.76 0 .788-.25 1.375-.752 1.76-.184.134-.31.218-.377.252s-.188.09-.362.165c.63.136 1.13.417 1.5.845.373.428.56.96.56 1.594 0 .7-.244 1.322-.726 1.86-.57.625-1.546.937-2.928.937zm5.545-10.083h1.71v10.082h-1.71V10.795zm7.885 1.558v8.524h-1.71v-8.524H54.15v-1.558h7.856v1.558h-3.073m10.32 6.952h2.68c.63 0 1.11-.098 1.443-.295.333-.197.5-.57.5-1.118 0-.895-.72-1.342-2.16-1.342h-2.464v2.755zm0-4.327h2.173c1.237 0 1.856-.418 1.856-1.255 0-.48-.15-.827-.45-1.038-.3-.212-.763-.318-1.39-.318h-2.19v2.61zm2.724 5.9h-4.436V10.794h3.942c.686 0 1.278.082 1.776.245.497.164.867.385 1.11.664.463.52.694 1.106.694 1.76 0 .788-.25 1.375-.753 1.76-.184.134-.31.218-.377.252s-.19.09-.363.165c.628.136 1.13.417 1.5.845.373.428.558.96.558 1.594 0 .7-.24 1.322-.723 1.86-.57.625-1.546.937-2.928.937zm11.29-3.866l-1.84-4.154-1.84 4.154h3.68zm-4.377 1.572l-1.015 2.293h-1.826l4.464-10.082h1.827l4.464 10.082H84.98l-1.014-2.293h-5.073zm12.293-6.462c-.498 0-.906.1-1.225.303-.318.202-.478.508-.478.916 0 .41.16.722.48.94.318.215.997.448 2.036.698 1.038.25 1.82.6 2.348 1.053.526.453.79 1.12.79 2 0 .88-.334 1.593-1 2.14-.667.55-1.542.823-2.624.823-1.585 0-2.99-.543-4.218-1.63l1.072-1.284c1.025.884 2.088 1.326 3.19 1.326.55 0 .987-.117 1.31-.353.325-.235.487-.548.487-.938 0-.39-.152-.692-.457-.91-.304-.215-.83-.412-1.573-.59-.744-.178-1.31-.34-1.695-.49-.387-.15-.73-.344-1.03-.584-.6-.45-.898-1.143-.898-2.076s.34-1.652 1.022-2.157c.68-.504 1.524-.757 2.53-.757.647 0 1.29.106 1.927.317.637.212 1.188.51 1.652.894l-.914 1.285c-.3-.27-.706-.49-1.217-.663-.51-.173-1.016-.26-1.514-.26m12.918-1.327v1.6h-5.407v2.67h4.856v1.514h-4.856v2.696h5.58v1.6h-7.29v-10.08h7.117m3.826 10.08h-1.71v-10.08h2.667l3.058 6.33 3.058-6.33h2.653v10.08h-1.71v-7.874l-3.538 6.996h-.956l-3.522-6.996v7.875m19.336-10.082v1.6h-5.406v2.67h4.855v1.514h-4.855v2.696h5.58v1.6h-7.29v-10.08h7.116m9.71 0h1.71v10.08h-1.854l-5.74-7.355v7.357h-1.71V10.795h1.71l5.885 7.53v-7.53m7.887 1.558v8.524h-1.71v-8.524h-3.074v-1.558h7.856v1.558h-3.072M1.797 20.503c-2.492-2.48-2.492-6.5 0-8.98l9.683-9.636c2.492-2.48 6.534-2.48 9.025 0l9.683 9.636c2.493 2.48 2.492 6.5 0 8.98l-9.683 9.637c-2.49 2.48-6.533 2.48-9.025 0l-9.683-9.636zm5.94-.264c.022.66.286 1.312.793 1.815l5.56 5.534c1.06 1.053 2.777 1.053 3.836 0l5.56-5.535c1.06-1.054 1.06-2.762 0-3.816l-2.172-2.163 2.172-2.162c1.06-1.054 1.06-2.763 0-3.817l-5.56-5.533c-1.06-1.054-2.777-1.054-3.836 0l-5.56 5.533c-.507.504-.77 1.158-.793 1.817h-.002v.092c0-.03 0-.06.002-.092v8.324zm1.328-2.533l1.637-1.63-1.637-1.63v3.26zm10.368-1.63l-2.447 2.436c-.54.537-1.417.537-1.956 0l-2.448-2.436 2.448-2.436c.54-.537 1.416-.537 1.956 0l2.447 2.437zm.94-.935l2.173-2.162c.54-.538.54-1.41 0-1.947L16.986 5.5c-.54-.538-1.417-.538-1.956 0l-5.56 5.533c-.54.538-.54 1.41 0 1.947l2.172 2.162 2.448-2.436c1.06-1.054 2.777-1.054 3.836 0l2.448 2.436zm0 1.87l2.173 2.162c.54.538.54 1.41 0 1.946l-5.56 5.534c-.54.537-1.417.537-1.956 0L9.47 21.12c-.54-.537-.54-1.408 0-1.946l2.172-2.162 2.448 2.436c1.06 1.054 2.777 1.054 3.836 0l2.448-2.436z" fill="#FFF" fill-rule="evenodd"/></svg>