<svg width="370" height="119" viewBox="0 0 370 119" xmlns="http://www.w3.org/2000/svg"><title>Group</title><g fill="#FFF" fill-rule="evenodd"><path d="M214.505 1.723v83.092l34.58-49.028M249.42 33.07V.22h-33.352M249.42 87.15V39.08l-33.907 48.07M147.5 61.807l-17.528-59.43L94.728 87.15h34.862M167.768 87.15h34.856L185.15 44.965 150.3 62.41M183.704 43.265L132.16 2.128l17.2 58.327M166.49.218h-33.245l49.832 39.773M261.803 87.15h34.7l17.584-24.87L284.4 32.56M333.235.218H297.79l-11.968 28.905 54.29-12.28M341.437 20.05L316.79 62.105l17.72 25.043h34.69M286.175 31.267l29.1 29.134 24.13-41.172M25.206 1.095L.696 25.642v35.94L25.012 86.07l12.06-53.14M87.632 68.612V38.598H53.11M66.164.218h-38.97l11.4 30.583M88.684 104.445h5.075v13.58h1.08v-13.58h5.075v-.978h-11.23M115.202 105.475c-.637-.686-1.407-1.234-2.308-1.644-.902-.407-1.9-.613-2.995-.613-1.11 0-2.116.206-3.017.614-.902.41-1.67.962-2.31 1.655-.637.694-1.133 1.494-1.486 2.402-.354.91-.53 1.86-.53 2.86v.04c0 1 .173 1.95.52 2.85.346.903.838 1.696 1.476 2.383.638.686 1.404 1.234 2.3 1.643.893.408 1.894.613 3.004.613 1.095 0 2.097-.205 3.005-.613.91-.41 1.682-.96 2.32-1.653.637-.694 1.133-1.494 1.486-2.403.354-.908.53-1.862.53-2.86.015-.014.015-.028 0-.042 0-.998-.173-1.948-.52-2.848-.346-.902-.84-1.697-1.476-2.382zm.874 5.313c0 .902-.153 1.748-.457 2.538-.307.79-.733 1.48-1.28 2.07-.548.59-1.2 1.053-1.956 1.394-.756.34-1.585.508-2.485.508-.903 0-1.735-.173-2.497-.52-.763-.346-1.418-.813-1.966-1.403-.548-.59-.977-1.283-1.29-2.08-.31-.798-.467-1.646-.467-2.548v-.042c0-.9.152-1.747.458-2.537.304-.79.73-1.48 1.278-2.07.547-.59 1.2-1.053 1.956-1.393.755-.34 1.584-.51 2.485-.51.9 0 1.733.174 2.496.52.762.347 1.418.815 1.965 1.404.548.59.978 1.28 1.29 2.08.312.797.468 1.646.468 2.547v.04zM131.31 105.547c-.685-.65-1.505-1.16-2.453-1.53-.95-.366-1.995-.55-3.132-.55h-4.846v14.56h4.846c1.136 0 2.18-.188 3.13-.562.95-.374 1.77-.887 2.454-1.54.686-.65 1.218-1.42 1.59-2.308.375-.887.564-1.844.564-2.87v-.042c0-1.026-.19-1.98-.563-2.86-.373-.88-.904-1.646-1.59-2.298zm1.03 5.24c0 .88-.155 1.695-.47 2.454-.31.758-.75 1.42-1.32 1.983-.568.564-1.26 1.01-2.08 1.336-.817.326-1.733.49-2.745.49h-3.763v-12.605h3.763c1.013 0 1.928.167 2.745.5.82.335 1.512.787 2.082 1.358.567.57 1.008 1.238 1.32 2.002.313.766.468 1.58.468 2.442v.04zM149.146 105.475c-.638-.686-1.407-1.234-2.31-1.644-.9-.407-1.898-.613-2.994-.613-1.11 0-2.114.206-3.016.614-.9.41-1.67.962-2.308 1.655-.638.694-1.134 1.494-1.487 2.402-.353.91-.53 1.86-.53 2.86v.04c0 1 .173 1.95.52 2.85.346.903.84 1.696 1.477 2.383.637.686 1.403 1.234 2.298 1.643.894.408 1.896.613 3.005.613 1.096 0 2.098-.205 3.006-.613.908-.41 1.68-.96 2.32-1.653.636-.694 1.133-1.494 1.486-2.403.354-.908.53-1.862.53-2.86.014-.014.014-.028 0-.042 0-.998-.173-1.948-.52-2.848-.347-.902-.84-1.697-1.476-2.382zm.874 5.313c0 .902-.153 1.748-.458 2.538-.305.79-.732 1.48-1.28 2.07-.548.59-1.2 1.053-1.955 1.394-.756.34-1.584.508-2.485.508-.902 0-1.734-.173-2.496-.52-.763-.346-1.418-.813-1.965-1.403-.548-.59-.977-1.283-1.29-2.08-.31-.798-.467-1.646-.467-2.548v-.042c0-.9.152-1.747.458-2.537.306-.79.732-1.48 1.28-2.07.547-.59 1.2-1.053 1.955-1.393.756-.34 1.584-.51 2.485-.51.902 0 1.734.174 2.496.52.762.347 1.418.815 1.966 1.404.547.59.977 1.28 1.29 2.08.31.797.468 1.646.468 2.547v.04zM171.69 111.974c0 .874-.114 1.643-.342 2.308-.23.666-.556 1.22-.978 1.664-.423.444-.933.777-1.53 1-.595.22-1.26.33-1.996.33-1.553 0-2.762-.467-3.63-1.402-.866-.937-1.3-2.27-1.3-4.005v-8.403h-1.08v8.507c0 1.026.145 1.926.437 2.703.292.777.704 1.433 1.238 1.966.534.534 1.165.936 1.892 1.206.73.27 1.53.405 2.403.405.887 0 1.694-.14 2.422-.416.73-.278 1.356-.687 1.883-1.228.527-.54.937-1.21 1.227-2.007.292-.798.438-1.716.438-2.756v-8.383h-1.082v8.507zM183.734 112.078l-5.845-8.61h-1.02v14.558h1.04V105.38l5.762 8.383h.082l5.762-8.383v12.646h1.082v-14.56h-1.02M208.026 112.078l-5.844-8.61h-1.02v14.558h1.04V105.38l5.762 8.383h.083l5.76-8.383v12.646h1.083v-14.56h-1.02M229.844 111.974c0 .874-.115 1.643-.343 2.308-.228.666-.553 1.22-.977 1.664-.423.444-.932.777-1.53 1-.594.22-1.26.33-1.995.33-1.553 0-2.763-.467-3.63-1.402-.866-.937-1.3-2.27-1.3-4.005v-8.403h-1.08v8.507c0 1.026.144 1.926.436 2.703.29.777.704 1.433 1.237 1.966.535.534 1.166.936 1.894 1.206.728.27 1.53.405 2.402.405.888 0 1.696-.14 2.423-.416.727-.278 1.354-.687 1.882-1.228.526-.54.936-1.21 1.227-2.007.29-.798.436-1.716.436-2.756v-8.383h-1.082v8.507zM246.09 116.134l-10.047-12.667h-1.02v14.56h1.04V105.09l10.255 12.936h.81v-14.56h-1.04M261.885 105.547c-.686-.65-1.504-1.16-2.454-1.53-.95-.366-1.993-.55-3.13-.55h-4.845v14.56h4.846c1.137 0 2.18-.188 3.13-.562.95-.374 1.77-.887 2.455-1.54.686-.65 1.217-1.42 1.592-2.308.373-.887.56-1.844.56-2.87v-.042c0-1.026-.187-1.98-.56-2.86-.375-.88-.906-1.646-1.592-2.298zm1.03 5.24c0 .88-.156 1.695-.468 2.454-.312.758-.753 1.42-1.32 1.983-.57.564-1.263 1.01-2.08 1.336-.82.326-1.734.49-2.746.49h-3.763v-12.605h3.764c1.013 0 1.928.167 2.746.5.818.335 1.51.787 2.08 1.358.568.57 1.01 1.238 1.32 2.002.313.766.47 1.58.47 2.442v.04zM279.72 105.475c-.637-.686-1.407-1.234-2.308-1.644-.902-.407-1.9-.613-2.995-.613-1.11 0-2.115.206-3.016.614-.9.41-1.67.962-2.308 1.655-.638.694-1.134 1.494-1.487 2.402-.354.91-.53 1.86-.53 2.86v.04c0 1 .173 1.95.52 2.85.346.903.838 1.696 1.476 2.383.64.686 1.405 1.234 2.3 1.643.893.408 1.895.613 3.005.613 1.095 0 2.097-.205 3.005-.613.91-.41 1.682-.96 2.32-1.653.637-.694 1.133-1.494 1.486-2.403.355-.908.53-1.862.53-2.86.015-.014.015-.028 0-.042 0-.998-.173-1.948-.52-2.848-.346-.902-.838-1.697-1.476-2.382zm.874 5.313c0 .902-.153 1.748-.457 2.538-.306.79-.732 1.48-1.28 2.07-.547.59-1.2 1.053-1.955 1.394-.756.34-1.585.508-2.485.508-.902 0-1.734-.173-2.496-.52-.762-.346-1.417-.813-1.965-1.403-.548-.59-.977-1.283-1.29-2.08-.31-.798-.467-1.646-.467-2.548v-.042c0-.9.152-1.747.458-2.537.304-.79.73-1.48 1.278-2.07.547-.59 1.2-1.053 1.956-1.393.755-.34 1.584-.51 2.485-.51.9 0 1.733.174 2.496.52.763.347 1.42.815 1.966 1.404.548.59.978 1.28 1.29 2.08.312.797.468 1.646.468 2.547v.04zM33.864 56.835L26.991 87.15h35.127l24.807-16.28-26.332-22.893"/></g></svg>