<svg width="287" height="50" viewBox="0 0 287 50" xmlns="http://www.w3.org/2000/svg"><title>Group</title><g fill="#fff" fill-rule="evenodd"><path d="M133.743 33.427h-4.127V48.16h4.423V38.97s1-2.005 2.946-2.005c1.442 0 2.358.944 2.358 3.006v8.19h4.42V38.97s1-2.005 2.947-2.005c1.443 0 2.36.944 2.36 3.006v8.19h4.42v-8.19c0-4.245-1.65-6.66-5.306-6.66-2.77 0-4.39 1.798-5.1 2.768-.793-1.798-2.326-2.767-4.625-2.767-2.27 0-3.744 1.178-4.63 2.18l-.087-2.063zM171.17 48.16V33.428h-3.83l-.206 1.445c-1.06-1.033-2.506-1.74-4.363-1.74-3.86 0-6.922 3.006-6.922 7.662 0 4.657 3.063 7.663 6.923 7.663 1.858 0 3.303-.708 4.364-1.738l.205 1.44h3.83zm-4.124-7.366c0 2.418-1.18 3.98-3.39 3.98s-3.388-1.562-3.388-3.98c0-2.415 1.177-3.976 3.387-3.976s3.39 1.56 3.39 3.976zm15.972-3.976v-3.39h-2.77v-4.54l-4.42 1.06v3.48h-2.15v3.39h2.15v7.543c0 2.564 1.444 4.097 3.92 4.097 1.737 0 3.358-.56 3.358-.56v-3.42s-.94.237-1.59.237c-.768 0-1.27-.44-1.27-1.766v-6.13h2.772zm2.153 3.976c0 4.657 3.153 7.663 7.81 7.663 4.656 0 7.81-3.006 7.81-7.663 0-4.656-3.154-7.663-7.81-7.663-4.657 0-7.81 3.008-7.81 7.664zm4.422 0c0-2.415 1.177-3.976 3.387-3.976s3.39 1.56 3.39 3.976c0 2.418-1.18 3.98-3.39 3.98s-3.388-1.562-3.388-3.98zm18.213 4.128c-1.68 0-3.655-1.562-3.655-1.562l-2.063 2.86s2.24 2.237 5.718 2.237c3.33 0 5.51-1.678 5.51-4.716 0-4.596-6.247-4.567-6.247-6.277 0-.53.44-.94 1.178-.94 1.445 0 2.622 1.148 2.622 1.148l2.242-2.622s-1.798-1.917-5.04-1.917c-3.124 0-5.277 1.77-5.277 4.305 0 4.716 6.397 4.596 6.397 6.426 0 .618-.5 1.062-1.385 1.062zm8.457 3.24h4.42V33.426h-4.42V48.16zm-.294-19.04c0 1.506 1.002 2.507 2.503 2.507 1.506 0 2.508-1.002 2.508-2.507 0-1.502-1.002-2.503-2.507-2.503-1.5 0-2.502 1-2.502 2.503zm12.673 9.846s1.002-2.005 2.947-2.005c1.446 0 2.36.944 2.36 3.006v8.19h4.42v-8.19c0-4.245-1.65-6.66-5.306-6.66-2.27 0-3.742 1.178-4.627 2.18l-.088-2.063h-4.125V48.16h4.42V38.97zm17.682 0s1.004-2.005 2.947-2.005c1.444 0 2.357.944 2.357 3.006v8.19h4.42v-8.19c0-4.245-1.65-6.66-5.305-6.66-2.122 0-3.536 1.002-4.42 1.975v-7.783h-4.42v20.66h4.42v-9.194zm12.083 1.826c0 4.657 3.155 7.663 7.81 7.663 4.658 0 7.81-3.006 7.81-7.663 0-4.656-3.152-7.663-7.81-7.663-4.655 0-7.81 3.008-7.81 7.664zm4.42 0c0-2.415 1.18-3.976 3.39-3.976s3.39 1.56 3.39 3.976c0 2.418-1.18 3.98-3.39 3.98s-3.39-1.562-3.39-3.98zm18.214 4.128c-1.68 0-3.657-1.562-3.657-1.562l-2.062 2.86s2.243 2.237 5.72 2.237c3.33 0 5.51-1.678 5.51-4.716 0-4.596-6.248-4.567-6.248-6.277 0-.53.444-.94 1.18-.94 1.442 0 2.623 1.148 2.623 1.148l2.24-2.622s-1.8-1.917-5.042-1.917c-3.123 0-5.273 1.77-5.273 4.305 0 4.716 6.394 4.596 6.394 6.426 0 .618-.5 1.062-1.385 1.062zM8.05 50.014c-1.008 0-2.032-.208-3.01-.65-3.7-1.66-5.353-6.01-3.688-9.71L17.18 4.467c1.186-2.634 3.81-4.33 6.702-4.33 2.89-.002 5.513 1.696 6.7 4.33l9.127 20.291 9.126-20.29c1.187-2.635 3.81-4.332 6.7-4.332 2.893 0 5.515 1.696 6.702 4.332l9.127 20.29 9.128-20.29c1.186-2.635 3.81-4.332 6.7-4.332 2.893 0 5.515 1.696 6.702 4.332l15.827 35.185c1.662 3.7.012 8.05-3.687 9.712-3.702 1.666-8.05.014-9.716-3.686L87.19 25.388l-9.127 20.29c-1.187 2.638-3.81 4.33-6.7 4.33-2.893.002-5.515-1.692-6.702-4.33l-9.127-20.291-9.127 20.29c-1.185 2.638-3.808 4.33-6.7 4.33-2.89.002-5.514-1.692-6.7-4.33L23.88 25.388l-9.127 20.29c-1.225 2.723-3.904 4.334-6.706 4.334"/></g></svg>