<svg width="440" height="260" viewBox="0 0 440 260" xmlns="http://www.w3.org/2000/svg"><title>Building Pictures</title><path d="M212.557 133.32h.007l.054-34.42h-7.792l-.053 33.686h-.01v17.065c0 2.96.597 5.336 1.793 7.127.945 1.404 2.197 2.516 3.76 3.335 1.563.82 3.228 1.23 4.992 1.23.195 0 .493-.008.896-.022v-8.188c-1.39 0-2.344-.313-2.866-.938-.52-.625-.78-1.764-.78-3.418h3.5v-8.23h-3.5v-7.227zm137.105-3.43c0 71.67-58.1 129.77-129.77 129.77-71.668 0-129.768-58.1-129.768-129.77 0-71.668 58.1-129.767 129.77-129.767 71.668 0 129.768 58.1 129.768 129.768zM152.024 98.9v17.026c0 2.764.992 4.146 2.98 4.146.846 0 1.566-.288 2.156-.865.59-.576.886-1.274.886-2.094 0-.846-.28-1.56-.834-2.135-.556-.577-1.237-.866-2.042-.866-.57 0-1.222.25-1.96.75v-8.584c.918-.084 1.613-.126 2.085-.126 2.93 0 5.442 1.057 7.532 3.168 2.09 2.112 3.136 4.654 3.136 7.626 0 3.043-1.062 5.606-3.187 7.69-2.127 2.084-4.737 3.125-7.835 3.125-1.556 0-3.074-.34-4.552-1.02-1.48-.68-2.698-1.597-3.658-2.75-1.667-2-2.5-4.592-2.5-7.773V98.9h7.794zm17.358 7.96h7.792v11.732c0 1.18.494 1.772 1.48 1.772.972 0 1.46-.59 1.46-1.772v-11.73h7.792v11.585c0 2.696-.897 4.97-2.687 6.824-1.795 1.856-3.988 2.783-6.586 2.783-2.96 0-5.343-1.077-7.148-3.23-1.403-1.68-2.104-4.014-2.104-7.002v-10.96zm23.066-.29h7.793v20.774h-7.792V106.57zm3.918-9.274c1.055 0 1.968.373 2.74 1.115.77.745 1.156 1.624 1.156 2.638 0 1.083-.364 1.972-1.094 2.667-.73.695-1.663 1.042-2.802 1.042-1.14 0-2.074-.347-2.803-1.042-.73-.695-1.094-1.584-1.094-2.667 0-1.014.385-1.893 1.155-2.637.77-.74 1.684-1.114 2.74-1.114zm33.61 1.605h7.794v17.317c0 3.18-.834 5.772-2.5 7.773-.96 1.153-2.18 2.07-3.66 2.75-1.478.68-2.996 1.02-4.552 1.02-3.098 0-5.71-1.04-7.835-3.124-2.124-2.084-3.188-4.64-3.188-7.668 0-2.93 1.056-5.467 3.168-7.606 2.11-2.14 4.612-3.21 7.5-3.21.46 0 1.154.042 2.085.126v8.585c-.64-.5-1.28-.75-1.917-.75-.805 0-1.497.295-2.072.885-.577.59-.865 1.302-.865 2.136 0 .806.3 1.497.896 2.073.596.577 1.31.865 2.144.865 2 0 3-1.382 3-4.146V98.9zm11.9 7.67h7.79v20.774h-7.79V106.57zm3.916-9.274c1.056 0 1.968.373 2.74 1.115.77.745 1.156 1.624 1.156 2.638 0 1.083-.364 1.972-1.094 2.667-.73.695-1.663 1.042-2.802 1.042-1.14 0-2.074-.347-2.803-1.042-.73-.695-1.095-1.584-1.095-2.667 0-1.014.386-1.893 1.156-2.637.773-.74 1.686-1.114 2.742-1.114zm26.985 30.048h-7.794v-11.73c0-1.195-.493-1.794-1.478-1.794-.974 0-1.46.6-1.46 1.793v11.73h-7.792V115.76c0-2.71.895-4.992 2.686-6.847 1.792-1.854 3.987-2.78 6.584-2.78 2.973 0 5.355 1.076 7.15 3.23 1.4 1.68 2.103 4.02 2.103 7.02v10.96zm5.543 34.247v-8.25s3.064.34 3.64-1.796c0 0 .286-2.087.545-4.398 0 0 .032-2.508 2.108-4.37 1.663-1.493 3.227-1.446 4.006-2.752.135-.228.67-.517.756-3.63 0 0 .138-5.166.138-6.21 0-1.045-.036-14.35-.036-14.35s-.26-2.39-2.627-2.32c0 0-1.916-.12-2.728 2.335 0 0-.382 2.71 2.256 3.233 0 0 1.075.308 2.007-.303v7.147s-3.554 1.64-7.366-.428c0 0-3.59-1.8-4.542-6.035 0 0-.848-2.788.174-6.02.71-2.255 2.84-5.68 7.568-7.04 0 0 4.994-1.385 9.292 1.725 0 0 3.788 2.467 3.777 8.25-.012 5.78 0 14.15 0 14.15s.065 10.778-2.125 15.165c-2.19 4.386-4.505 1.788-4.884 6.102 0 0-.045 5.68-4.667 8.503 0 0-2.242 1.67-7.293 1.29zm-126.316 8.204h-7.795V151.38c0-3.18.832-5.77 2.5-7.77.96-1.154 2.177-2.07 3.658-2.752 1.478-.68 2.996-1.02 4.553-1.02 3.098 0 5.71 1.04 7.835 3.124 2.124 2.084 3.188 4.64 3.188 7.67 0 2.944-1.055 5.486-3.168 7.625-2.11 2.14-4.612 3.21-7.5 3.21-.473 0-1.168-.05-2.085-.147v-8.585c.64.514 1.28.772 1.917.772.806 0 1.497-.3 2.074-.897.578-.597.865-1.306.865-2.125 0-.82-.298-1.518-.895-2.094-.597-.575-1.312-.864-2.145-.864-2 0-3 1.382-3 4.147v18.12zm17.357-29.228h7.794v20.775h-7.793v-20.774zm3.92-9.272c1.055 0 1.968.37 2.74 1.115.77.742 1.155 1.62 1.155 2.635 0 1.083-.364 1.972-1.094 2.667-.728.695-1.662 1.04-2.8 1.04-1.14 0-2.075-.345-2.804-1.04-.73-.695-1.095-1.584-1.095-2.667 0-1.014.388-1.893 1.158-2.636.772-.745 1.685-1.116 2.742-1.116zm21.212 20.17l7.73-.29c-.222 3-1.34 5.465-3.356 7.396-2.014 1.93-4.466 2.896-7.355 2.896-3.054 0-5.636-1.062-7.74-3.187-2.105-2.127-3.157-4.732-3.157-7.816 0-2.93 1.063-5.44 3.188-7.522 2.126-2.084 4.676-3.125 7.648-3.125 2.6 0 4.89.82 6.878 2.458 1.986 1.64 3.222 3.73 3.707 6.272l-7.896.292c-.68-.89-1.542-1.335-2.584-1.335-.888 0-1.62.292-2.188.875-.57.584-.855 1.32-.855 2.21 0 .902.303 1.66.907 2.27.605.612 1.358.918 2.26.918 1.32 0 2.258-.772 2.815-2.314zm25.4-10.918h7.794v11.73c0 1.182.492 1.773 1.48 1.773.97 0 1.458-.592 1.458-1.773v-11.73h7.793v11.584c0 2.697-.897 4.97-2.688 6.826-1.793 1.854-3.988 2.78-6.585 2.78-2.96 0-5.342-1.075-7.148-3.228-1.403-1.68-2.104-4.015-2.104-7.002v-10.96zm34.465-.5v8.334c-.542-.305-1.036-.458-1.48-.458-1.415 0-2.125 1.084-2.125 3.25v9.857h-7.792V149.67c0-3 .818-5.393 2.457-7.178 1.64-1.785 3.828-2.677 6.564-2.677.614 0 1.405.076 2.377.23zM277.07 151.9h-11.814c-.18-.596-.27-1.144-.27-1.645 0-.694.123-1.375.374-2.04h3.96c-.28-1.543-1.148-2.314-2.606-2.314-.97 0-1.764.414-2.375 1.24-.613.827-.918 1.887-.918 3.178 0 1.348.294 2.438.886 3.272.59.833 1.364 1.25 2.323 1.25.78 0 1.53-.388 2.25-1.166l4.44 5.333c-2.07 1.626-4.37 2.438-6.898 2.438-3.083 0-5.674-1.035-7.77-3.104-2.1-2.07-3.148-4.632-3.148-7.688 0-3.042 1.06-5.612 3.178-7.71 2.117-2.097 4.72-3.146 7.804-3.146 3.014 0 5.545 1.023 7.594 3.073 2.048 2.048 3.074 4.573 3.074 7.573 0 .306-.028.792-.083 1.458z" fill="#000" fill-rule="evenodd"/></svg>