<svg width="512" height="320" viewBox="0 0 512 320" xmlns="http://www.w3.org/2000/svg"><title>Fundacao Serra Henriques</title><path d="M254.062 1l-1.453 1.343c-6.745 6.23-16.06 9.794-25.544 9.794-5.7 0-11.347-1.306-16.32-3.75l-1.697-.858-1.044 1.604c-7.788 11.883-20.16 20.5-33.91 23.635l-4.73 1.08 3.967 2.78c12.055 8.414 11.962 21.006 11.887 34.363-.018 1.138-.018 2.295-.018 3.433v53.857c-.02 8.637-.038 16.808 5.477 24.96 4.657 6.884 11.644 11.958 19.655 14.31 5.012 1.472 10.303 1.92 15.39 2.35 10.21.876 19.86 1.697 26.642 10.41l1.695 2.18 1.677-2.18c6.78-8.713 16.432-9.534 26.642-10.41 5.086-.43 10.377-.878 15.39-2.35 8.01-2.352 14.997-7.426 19.655-14.31 5.515-8.152 5.496-16.304 5.478-24.94V74.425c0-1.138 0-2.295-.02-3.433-.074-13.357-.167-25.95 11.888-34.362l3.968-2.78-4.73-1.08c-13.75-3.135-26.122-11.753-33.91-23.636l-1.043-1.605-1.696.857c-4.973 2.444-10.62 3.75-16.32 3.75-9.483 0-18.8-3.563-25.543-9.794L254.062 1zm0 2.91c7.34 6.79 17.14 10.372 26.978 10.372 5.925 0 11.85-1.306 17.27-3.973 8.07 12.292 20.887 21.284 35.233 24.55-14.048 9.81-12.78 24.567-12.78 39.566v52.495c0 8.88.316 17.108-5.106 25.11-4.36 6.455-11.01 11.287-18.482 13.47-14.775 4.327-32.213-.54-43.113 13.506-10.918-14.047-28.356-9.18-43.13-13.506-7.472-2.183-14.123-7.015-18.483-13.47-5.423-8.002-5.106-16.23-5.106-25.11V74.427c0-15 1.267-29.755-12.78-39.567 14.345-3.266 27.163-12.258 35.23-24.55 5.422 2.666 11.347 3.972 17.272 3.972 9.837 0 19.637-3.58 26.996-10.372zm57.7 57.555c0-8.86 4.715-17.33 12.298-21.92-13.098-2.686-24.76-10.988-31.562-22.535-.652-1.082-.95-.336-1.937.13-.763.392-1.564.728-2.384 1.045-1.62.653-3.316 1.138-5.03 1.493-3.69.746-7.49.84-11.198.242-6.78-1.063-13.116-4.44-17.792-9.458-4.51 4.813-10.508 8.115-16.973 9.327-3.67.67-7.453.69-11.123.055-1.752-.298-3.447-.746-5.124-1.343-.8-.298-1.62-.634-2.403-.988-1.044-.485-2.012-1.642-2.683-.504-6.82 11.53-18.482 19.85-31.58 22.535 8.142 4.944 12.297 13.674 12.297 23.02V125.49c0 2.07-.038 4.14 0 6.21 0 8.694 3.875 17.09 10.47 22.722 3.15 2.705 6.857 4.72 10.825 5.914 4.825 1.436 9.707 1.007 14.644 1.567 8.03.914 17.01 3.955 21.407 11.268 2.758-4.588 7.64-7.5 12.576-9.234 6.576-2.275 13.097-1.697 19.823-2.686 11.607-1.697 21.37-10.41 24.425-21.733 1.286-4.794 1.025-9.756 1.025-14.663v-63.39zm-30.35 49.245c4.472-1.81 8.702-4.272 12.242-7.555 2.03-1.885 8.104-7.835 5.086-11.137-3.15-3.284-8.57 3.432-10.06 5.447-3 4.048-5.255 8.637-7.267 13.245zm-25.598 7.723c4.005-7.443 9.334-14.103 15.352-19.998-4.192 3.21-8.272 6.79-13.042 9.16-1.248.596-2.646 1.23-4.062.914-3.52-.766-2.05-4.348-.67-6.27.242-.335 4.192-4.626 1.975-4.626-2.832 0-4.956 3.414-7.024 5.018-1.62 1.287-3.112 2.295-4.528 3.787-.577.634-1.155 1.324-1.863 1.827-1.062.765-1.043-.578-.503-1.25-1.12.56-2.255 1.1-3.392 1.586-1.397.597-1.602 2.146-2.254 3.47-1.08 2.183-2.404 4.235-3.95 6.1-3.205 3.843-7.452 7.052-12.24 8.62-4.38 1.454-10.062 1.715-14.18-.71-3.632-2.145-5.14-7.238-1.918-10.484 1.62-1.68 4.397-2.426 6.52-1.25 1.845 1.025 2.293 3.525.988 5.185-1.285 1.66-3.726.728-5.347 1.866-1.583 1.1-.466 2.91.745 3.75 10.1 6.996 18.408-6.865 21.408-14.57-9.316-.223-16.042-9.27-10.266-17.684 1.285-1.847 2.98-3.414 4.807-4.683.95-.67 1.957-1.268 3-1.772.522-.26 1.062-.503 1.603-.708 1.136-.447.838-.67 1.285-1.716 1.51-3.563 7.918-6.36 9.968-1.623.67 1.567.15 1.343 1.826 1.735.745.186 1.136 1.268.093 1.268-.39 0-1.23-.354-1.547-.13-.13 1.12-.708 2.015-1.676 2.556-1.528.858-3.708.615-5.03 1.846-1.92 1.754.26 4.16 1.825 5.075 1.155.67 1.77 1.23 2.646.093.8-1.045 1.62-2.052 2.496-3.022 1.788-1.96 3.744-3.825 5.943-5.336 2.776-1.92 7.49-4.104 10.452-1.305 1.732-3.228 3.055-6.68 4.21-10.15-4.136.99-7.415 3.266-10.787 5.747-.43.336-1.584 1.51-2.2 1.51-1.172 0 .318-1.902.505-2.088 2.59-2.65 6.26-4.59 9.706-5.82.82-.28 1.64-.542 2.477-.747 1.323-.354 1.286-1.66 1.733-2.91.82-2.295 1.79-4.552 2.888-6.734 1.844-3.675 4.117-7.163 6.744-10.334.298-.355 4.695-5.112 4.695-2.855 0 1.01-1.155 2.613-1.51 3.565-.595 1.53-1.08 3.096-1.508 4.682-1.137 4.216-1.864 8.544-2.404 12.872.875 0 1.732-.188 2.59-.318 1.304-.187 1.192-.653 1.714-1.884.707-1.698 1.415-3.414 2.403-4.98.69-1.102 2.366-3.023 3.875-1.96 1.472 1.063.67 3.75-.056 4.98-.97 1.68-3.82 2.818-4.154 4.478-.485 2.388-1.08 4.757-1.845 7.07-.633 1.978-.633 1.884-2.478 2.276-.913.205-1.844.41-2.776.616 1.06-3.078 2.198-6.138 3.483-9.123-1.118 0-2.236.224-3.335.448-.354 1.418-.764 2.836-1.248 4.216-.876 2.536-1.975 4.98-3.354 7.275-1.267 2.07-2.757 4.01-4.49 5.69-.93.895-1.9 1.716-2.944 2.443-1.378.99-1.825 1.996-2.813 3.377 2.403-.653 5.514.336 5.514 3.264 0 2.48-1.602 4.83-2.888 6.846 7.434-2.575 12.185-10.055 19.265-13.227 1.882-.84-.69 2.37-.782 2.518-1.397 1.735-2.627 3.6-3.726 5.54-2.552 4.515-4.397 9.402-5.832 14.383 1.23-.334 2.46-.69 3.69-1.062 1.155-.336 1.564-.298 2.235-1.343.54-.84 1.08-1.66 1.62-2.48 2.032-3.005 4.174-5.915 6.522-8.676 3.894-4.59 8.775-9.963 14.68-11.847 5.572-1.79 9.764 2.8 6.71 8.022-3.187 5.39-9.578 9.03-15.037 11.64-1.38.672-2.776 1.288-4.192 1.847-1.155.485-1.658.467-2.254 1.623-.466.877-.913 1.773-1.36 2.668-1.64 3.34-3.13 6.735-4.416 10.223-.782 2.07-1.975 4.552-1.975 6.828 0 2.63 3.168.298 4.043-.373 4.285-3.19 7.937-7.33 11.85-10.968 1.602-1.456 6.036-6.828 8.7-5.877-3.744 1.884-6.912 5.69-9.8 8.6-2.87 2.91-5.663 5.932-8.85 8.507-3.334 2.705-7.377 4.887-10.116.018-3.093-5.484.168-12.256 2.44-17.423-.894.298-1.788.56-2.7.802-1.845.503-2.237.465-2.982 2.293-.95 2.35-2.105 4.627-3.503 6.735-2.794 4.197-6.632 7.76-11.31 9.738-4.6 1.96-10.45 2.537-15.202.746-4.378-1.642-7.378-6.417-4.77-10.913 1.957-3.36 8.832-4.833 9.54.297.354 2.463-1.547 3.713-3.726 4.198-1.9.335-4.956 1.66-2.72 3.936 3.688 3.75 10.507 2.314 14.047-.8 3.652-3.23 5.832-8.172 7.658-12.575-2.143.672-4.1 1.698-6.055 2.76-.26.15-3.075 1.904-3.075.73 0-2.39 8.534-4.684 10.192-5.262zm-9.633-16.38c2.032-1.77 3.858-3.767 5.442-5.97-3.28 1.233-6.8 1.755-10.303 1.755-.82.41-1.157 2.108-1.51 3.115-.727 2.07-1.38 4.16-1.975 6.268 3.018-1.286 5.85-3.02 8.346-5.166zm.542-28.858c-7.75 0-8.738-8.86-6.41-14.532 2.832-6.903 9-12.48 15.558-15.783 6.986-3.544 14.16-3.525 21.556-1.455 2.645.728 5.31 1.717 8.05 2.07 1.34.17 2.7-.204 3.855-.894.71-.41 2.35-1.678 1.957.13-.577 2.594-4.043 5.02-6.353 5.877-2.552.952-4.9.318-7.36-.56-6.24-2.2-12.76-6.286-19.636-4.383-6.633 1.828-12.893 8.096-15.95 14.122-1.452 2.91-2.328 6.436-1.32 9.626.91 2.91 3.613 4.197 6.426 3.078 4.49-1.772 7.64-7.313 9.074-11.66.8-2.406 1.173-4.962 1.173-7.5 0-.782-.502-2.312.02-3.002.634-.858 1.342.876 1.472 1.23 3.242 8.675-1.118 23.637-12.11 23.637zm30.108-3.582c1.1-.71 2.142-1.642 2.757-2.836.298-.522.857-2.723-.447-2.723-1.845 0-2.18 4.365-2.31 5.56zm-41.995 27.31c-4.043-1.324-7.06-4.44-7.248-8.804-5.384 3.17-12.073 11.807-7.19 18.113 1.284 1.66 7.172 5.092 8.308 2.294 1.64-4.067 3.652-8.003 6.13-11.603zm6.894-.857c2.793-.317 5.42-1.455 7.6-3.228 1.34-1.082 6.446-5.8 4.34-7.275-2.086-1.474-5.067.43-6.557 1.884-2.403 2.388-4.043 5.56-5.384 8.62zM110.286 238.614V226.47c0-2.5.373-5.43-.223-7.854-.522-2.164-2.478-1.138-3.857-1.884-.727-.43.876-.597 1.062-.597.576 0 1.135 0 1.713.037 5.422.26 10.9.15 16.32 0 .597-.02.988-.15 1.51-.373.764-.505.28 1.49.242 1.678-.335 1.362.205 3.358-.52 4.552-.523.746-.82-1.79-.914-1.978-.335-.71-.82-1.157-1.564-1.474-1.062-.466-2.31-.373-3.447-.41-.877-.02-6.26-.765-6.26.485v13.189c0 1.082 5.178.466 6.09.448 1.343-.02 3.28.373 4.454-.485.074-.056.838-1.194 1.1-.784.297.747-.224 2.258-.336 3.005-.186 1.026-.205 2.182-.205 3.246-.037.225.02.41-.056.672-.093.56-.615.112-.615-.205 0-2.295-1.397-3.432-3.633-3.526-1.622-.055-3.205-.092-4.826-.092-.876 0-1.975-.336-1.975.783 0 3.546-.04 7.09.036 10.653.02 1.605-.056 3.49.503 5.02.278.745.782 1.137 1.583 1.25.428.11 2.254-.057 2.496.278.52.692-2.982.524-3.187.524-1.565-.056-3.148-.168-4.713-.075-1.23.074-2.61.223-3.82.074-.894-.112-.15-.58.298-.635.82-.113 1.752-.13 2.106-1.045 1.304-3.694.633-8.47.633-12.33zm25.804-1.455V224.4c0-2.352.802-6.848-2.18-7.445-.557-.205-1.377.075-1.9-.223-.763-.392.858-.597 1.044-.597 1.174 0 2.367 0 3.54.074 1.472.074 2.907 0 4.36-.038.783 0 1.863-.243 2.608.037 1.044.39-1.062.69-1.043.69-2.982.484-2.237 4.906-2.237 7.22 0 4.252-.018 8.506 0 12.76 0 4.457.522 9.252 4.062 12.404 3.726 3.302 10.042 2.892 13.638-.39 4.825-4.423 3.596-12.892 3.596-18.88v-6.977c0-1.306.017-2.63-.132-3.918-.13-.97-.52-1.698-1.49-2.015-.708-.243-1.845 0-2.46-.373-.745-.41.913-.597 1.08-.597.616 0 1.212 0 1.827.018 1.677.075 3.298.093 4.975.02.465-.02.95-.038 1.434-.038.13 0 1.956.205 1.155.597-.373.242-1.025.11-1.454.223-1.155.224-1.584 1.082-1.733 2.164-1.173 8.245 1.08 16.733-1.173 24.885-2.087 7.593-10.1 10.428-17.29 8.936-7.75-1.622-10.247-8.618-10.23-15.78zm43.56-14.254c.113 4.235.225 8.45.336 12.686.13 4.458-.205 9.253.56 13.655.316 1.922 1.378 2.65 3.26 2.742.428.018 1.9.503.67.634-1.248.13-2.552-.038-3.82-.038-1.75-.093-3.483 0-5.253.038-.503.018-1.136.093-1.62-.056-.467-.168-.13-.56.167-.56.726 0 1.658-.037 2.31-.43 1.77-1.025 1.118-5.092 1.118-6.883 0-2.07 0-4.14.02-6.193 0-4.645 0-9.29.017-13.917 0-2.65-.503-5.988.13-8.618.28-1.306 1.808.71 2.162 1.12.633.708 1.285 1.398 1.938 2.107 2.813 3.06 5.663 6.1 8.495 9.16 5.515 5.913 10.88 11.995 16.452 17.852-.187-8.413-.187-16.845-.54-25.24-.094-1.735-.28-4.01-2.553-4.01-.374-.075-2.07.055-2.07-.486 0-.503 1.12-.335 1.454-.335 2.012 0 4.024.205 6.037.037 1.044 0 2.18-.168 3.224 0 .67.13-.037.634-.28.634-.54 0-1.118.093-1.602.28-1.882.69-1.34 3.806-1.34 5.522-.02 2.22-.02 4.44-.04 6.66-.017 4.738-.036 9.476-.036 14.233-.02 2.818.39 6.195-.13 8.974-.26 1.362-2.18-.876-2.59-1.287-.894-.877-1.77-1.753-2.627-2.65-3.02-3.04-5.963-6.136-8.925-9.233-2.74-2.854-5.403-5.802-8.086-8.75-2.256-2.48-4.883-4.943-6.84-7.648zm45.05 15.708V226.47c0-2.52.355-5.43-.222-7.854-.522-2.164-2.497-1.138-3.857-1.884-.744-.43.877-.597 1.063-.597.578 0 1.136 0 1.714.037 8.086.392 16.88-1.38 24.48 2.108 10.1 4.645 11.776 17.778 6.3 26.565-5.647 9.03-16.34 8.562-25.675 7.78-1.528-.113-3-.076-4.527-.04-.783 0-1.808.244-2.553-.017-.93-.392 1.546-.71 1.64-.746 1.826-.374 1.565-4.254 1.602-5.653.056-2.52.037-5.038.037-7.556zm4.063-9.272v5.99c0 4.382-.336 8.972.335 13.318.503 3.675 8.794 2.985 11.142 2.65 5.142-.766 9.855-3.806 11.55-8.862 3.056-8.992-.372-20.8-10.377-23.58-2.627-.727-5.44-1.026-8.16-1.063-1.174-.037-2.44-.037-3.577.224-.95.223-.876 1.006-.895 1.79-.054 2.462-.017 4.906-.017 7.368v2.164zm35.537 18.273c3.186-8.73 6.37-17.442 9.557-26.154.466-1.267.913-2.536 1.38-3.786.148-.41.52-2.052 1.192-1.94.632 0 1.452 3.004 1.675 3.582 1.92 4.98 3.838 9.962 5.74 14.96 1.825 4.833 3.427 10 5.793 14.59.876 1.678 2.217 3.208 4.21 3.395.485.038 2.236.486.765.653-.597.075-1.23.02-1.826.02-1.826 0-3.67-.02-5.496-.094-.428-.02-2.906-.28-1.732-.635.037-.224.372-.504.372-.914 0-.205-.093-.41-.167-.596-.354-.933-.69-1.866-1.044-2.8-.988-2.592-1.957-5.185-2.926-7.778-.15-.41-.316-1.4-.875-1.4-.58-.24-1.77 0-2.368 0h-7.75c-1.286 0-1.938 3.937-2.254 4.85-.67 1.94-2.61 5.69-2.013 7.725.224.784 1.118.86 1.77 1.008.26.074.97-.243.97.298 0 .523-1.137.336-1.454.317-1.88-.13-3.763-.074-5.663-.018-.876.018-1.77.037-2.646.037-1.023 0-1.303-.392-.278-.634 2.87 0 4.304-2.164 5.068-4.683zm6.763-10.69h9.148c.56 0 .057-.894-.055-1.193l-2.57-7.387c-.17-.466-1.38-5.298-2.05-5.298-.783 0-2.404 6.734-2.61 7.387-.167.54-2.123 6.492-1.862 6.492zm42.684 15.858h1.937c-1.062.54-2.925 2.313-3.614 3.283 1.546.168 3.67.578 4.51 2.108 1.08 1.996-.58 3.843-2.18 4.832-1.082.69-3.895 1.903-5.143 1.23-.857-.428.577-.782.782-.82.893 0 1.918-.503 2.608-1.026 1.304-1.026 1.23-3.022.074-4.16-.484-.466-3.652-1.455-3.167-1.977 1.136-1.325 2.85-2.37 4.192-3.47zm4.64.82c-5.143 0-10.34-.932-14.57-4.047-4.25-3.153-6.615-7.89-7.1-13.115-.95-10.595 6.168-19.53 16.77-20.557 5.216-.485 10.04.71 15.183 1.176 1.21.13.373 3.767.336 4.68-.056 1.326.056 2.687-.13 3.993-.187 1.213-.783 0-.783-.597 0-.783-.13-1.548-.373-2.294-.894-2.52-3.11-3.675-5.515-4.44-4.602-1.455-10.36-1.23-14.644 1.063-5.96 3.19-7.358 11.044-6.37 17.2 1.024 6.436 5.85 12.368 12.203 14.122 3.148.877 6.65.877 9.837.186 1.695-.373 3.298-1.305 4.192-2.835.317-.523 1.08-3.918 1.64-3.918.763 0-.485 6.623-.857 7.406-.522 1.25-2.795 1.4-3.894 1.567-1.956.317-3.93.41-5.924.41zm18.593-5.988c3.186-8.73 6.372-17.442 9.558-26.154.465-1.267.913-2.536 1.378-3.786.15-.41.54-2.07 1.193-1.94.65 0 1.452 3.004 1.676 3.582 1.92 4.98 3.838 9.98 5.738 14.96 1.826 4.833 3.428 10 5.813 14.59.857 1.678 2.198 3.208 4.21 3.395.466.038 2.218.486.746.653-.596.075-1.21.02-1.826.02-1.826 0-3.652-.02-5.496-.094-.41-.02-2.906-.262-1.732-.635.037-.224.373-.504.373-.914 0-.205-.093-.39-.167-.596-.354-.933-.69-1.866-1.043-2.8-.988-2.592-1.957-5.185-2.944-7.778-.13-.392-.298-1.4-.857-1.4-.56-.24-1.77 0-2.367 0h-7.75c-1.286 0-1.94 3.92-2.255 4.85-.67 1.94-2.59 5.69-2.012 7.725.223.784 1.117.86 1.788 1.008.224.074.95-.224.95.298 0 .523-1.136.336-1.453.317-1.88-.13-3.762-.074-5.663-.018-.875.018-1.75.037-2.645.037-1.006 0-1.305-.392-.28-.634 2.85 0 4.323-2.145 5.068-4.683zm6.763-10.69h9.148c.56 0 .057-.894-.036-1.193-.857-2.462-1.733-4.925-2.59-7.387-.168-.466-1.38-5.298-2.05-5.298-.763 0-2.384 6.734-2.608 7.387-.168.54-2.105 6.492-1.863 6.492zm8.98-24.27c-3.204.206-6.26-4.16-9.315-1.398-.168.15-1.25 1.698-1.62 1.157-.225-.3.11-.69.278-.915.95-1.512 2.702-3.732 4.714-3.396 2.906.485 6.614 4.235 9.222.858.466-.783 1.267-.41.727.373-.467 1.27-2.554 3.32-4.007 3.32zm16.563 21.94c0-5.187 2.366-10.093 5.944-13.787 3.353-3.47 7.676-4.943 12.445-5.055 9.69-.224 18.5 5.615 19.507 15.707.97 9.496-4.378 19.308-14.066 21.584-4.435 1.045-9.633.82-13.806-1.12s-7.23-6.08-8.813-10.334c-.838-2.22-1.21-4.608-1.21-6.996zm4.602-1.344c0 8.265 4.267 17.145 13.247 18.414 4.583.653 8.943-.914 11.943-4.46 2.87-3.394 3.595-7.61 3.595-11.975 0-8.47-4.64-17.444-14.122-17.836-4.247-.167-8.476 1.4-11.27 4.683-2.628 3.06-3.41 7.406-3.392 11.174zm-355.5 79.21c-1.343 0-2.684-.13-3.988-.43-.783-.167-1.938-.932-2.683-.932-1.267-.802-.503-4.887-.336-6.212.02-.074.318-2.145.728-1.306.317.784.075 1.885.317 2.724.615 2.295 2.46 3.563 4.676 4.123 4.417 1.12 9.15-1.194 9.26-6.138 0-4.44-3.558-7.015-6.65-9.627-3.168-2.686-6.726-5.54-7.285-9.96-.615-4.72 2.235-8.77 6.875-9.795 2.403-.523 5.16-.467 7.527.168.913.186 2.217-.13 2.16 1.026-.11 1.156-.148 2.33-.167 3.507 0 .11-.15 3.02-.615 2.125-.354-.95-.298-1.958-.745-2.89-.894-1.904-3.54-2.482-5.403-2.538-4.695-.187-8.46 4.14-5.738 8.674 1.974 3.247 5.625 5.225 8.383 7.725 3.465 3.152 5.757 6.92 4.862 11.752-.968 5.41-6.11 8.003-11.178 8.003zm24.827-15.92v-12.145c0-2.518.354-5.43-.242-7.872-.242-1.008-.95-1.456-1.938-1.642-.54-.186-1.434.076-1.9-.223-.727-.43.875-.616 1.043-.616.578 0 1.155.02 1.733.057 2.274.13 4.565.094 6.857.094h4.416c1.826-.018 3.707-.372 5.496-.372 0-.28.576-.15.576.28 0 .84-.354 1.697-.41 2.536-.055.877-.074 1.79-.186 2.668-.056.616-.764 1.25-.764.168 0-4.608-6.465-3.526-9.576-3.526-.97 0-1.043.224-1.043 1.082v11.716c0 .39-.168 1.51.39 1.51h3.354c1.734 0 3.504.057 5.237-.242.428-.075 2.03-1.212 2.142-1.082.39.373-.243 2.556-.317 3.022-.205.952-.187 2.108-.187 3.097-.056.26.056.373-.074.71-.168.503-.615.036-.615-.244 0-2.108-.913-3.134-3.037-3.32-2.16-.168-4.378-.205-6.558-.205-.67 0-.335 2.91-.335 3.357v5.26c0 1.98-.69 6.195 1.08 7.482 1.435 1.044 3.93.765 5.608.727 3.074 0 5.18-.783 5.72-4.01.205-.84.54-.84.727 0 0 1.175-.392 2.313-.392 3.488-.316 1.175-.223 2.257-1.676 2.37-1.62.13-3.26.036-4.882.018-.95-.02-13.712-.093-13.712-.467 0-.41 1.9-.43 2.254-.634 1.062-.635 1.025-2.743 1.08-3.825.206-3.06.13-6.156.13-9.216zm29.456 0v-12.145c0-2.518.355-5.43-.223-7.872-.54-2.202-2.534-1.045-3.856-1.866-.726-.41.876-.616 1.044-.616.578 0 1.155.02 1.733.057 6.837.392 18.668-2.35 20.978 6.698.615 2.443-.018 5.13-1.043 7.368-.484 1.008-1.1 1.96-1.79 2.817-.408.504-.837.99-1.265 1.455-.69.728-1.808 1.138-1.1 2.034 3.26 4.14 6.354 8.617 10.117 12.33 1.51 1.492 3.28 2.65 5.403 2.984.242.038 2.31-.018 2.31.43 0 .522-1.453.354-1.826.354-3.13 0-6.557.392-9.128-1.716-3.447-2.8-6.055-7.127-8.607-10.727-.597-.84-1.51-2.966-2.72-2.985l-3.932-.112c-.577 0-2.235-.39-2.235.504 0 2.24.018 4.477.037 6.716 0 1.977-.187 4.346.503 6.23.335.933 1.08 1.232 2.012 1.325.205.02 2.906.336 1.956.69-1.248.467-3.167.02-4.453.02-1.583-.076-3.13-.038-4.732 0-.52.055-1.34.167-1.88.055-.84 0-.988-.597-.057-.653.82-.13 1.77-.112 2.106-1.045.427-1.156.502-2.406.558-3.637.15-2.892.093-5.802.093-8.694zm3.858-20.11v14.102c0 1.53-.224 2.35 1.602 2.724 2.105.43 4.937.784 6.95-.242 2.906-1.474 3.52-5.485 3.427-8.377-.11-3.003-1.136-6.118-3.763-7.816-1.155-.745-8.16-2.387-8.216-.39zm32.567 20.11v-12.145c0-2.518.335-5.41-.242-7.872-.243-1.008-.95-1.456-1.938-1.642-.522-.167-1.453.076-1.9-.223-.746-.41.875-.616 1.043-.616.578 0 1.155.02 1.714.057 6.856.392 18.668-2.33 20.98 6.698.632 2.462 0 5.13-1.045 7.368-.465 1.008-1.1 1.96-1.788 2.817-.392.504-.82.99-1.268 1.455-.67.728-1.79 1.138-1.08 2.034 3.24 4.14 6.353 8.617 10.097 12.33 1.508 1.492 3.278 2.65 5.402 2.984.26.038 2.33-.018 2.33.43 0 .522-1.473.354-1.845.354-3.13 0-6.54.392-9.13-1.716-3.428-2.8-6.036-7.127-8.607-10.727-.578-.84-1.49-2.966-2.702-2.985l-3.95-.112c-.577 0-2.217-.39-2.217.504 0 2.24 0 4.477.02 6.716.02 1.96-.168 4.346.522 6.23.335.933 1.062 1.232 1.993 1.325.224.02 2.925.317 1.957.69-1.23.467-3.168.02-4.453.02-1.585-.076-3.13-.038-4.734 0-.503.055-1.34.167-1.88.055-.84 0-.97-.597-.04-.653.82-.13 1.753-.112 2.107-1.045.41-1.156.484-2.406.56-3.637.148-2.892.092-5.802.092-8.694zm3.856-20.11v14.102c0 1.53-.24 2.35 1.585 2.724 2.087.43 4.956.784 6.968-.242 2.888-1.493 3.522-5.466 3.41-8.377-.112-3.003-1.137-6.118-3.764-7.816-1.137-.727-8.16-2.387-8.2-.39zm28.787 28.803c3.186-8.712 6.372-17.424 9.557-26.155.448-1.25.913-2.518 1.38-3.787.148-.39.52-2.05 1.192-1.92.633 0 1.453 2.985 1.676 3.563 1.9 5 3.82 9.98 5.72 14.98 1.845 4.832 3.447 9.98 5.813 14.588.857 1.68 2.217 3.19 4.21 3.378.355.037.914-.038 1.23.093.522.206-.335.56-.465.58-.597.055-1.23.018-1.826.018-1.826 0-3.67-.037-5.496-.112-.41 0-2.888-.243-1.752-.616.037-.224.39-.522.39-.914 0-.224-.092-.41-.166-.597-.354-.933-.708-1.866-1.044-2.8-.987-2.592-1.956-5.185-2.943-7.797-.13-.39-.298-1.4-.857-1.4-.578-.24-1.77 0-2.366 0h-7.75c-1.268 0-1.957 3.956-2.255 4.85-.67 1.942-2.61 5.71-2.03 7.725.24.802 1.135.858 1.787 1.026.243.056.97-.243.97.28 0 .522-1.156.335-1.454.317-1.882-.11-3.764-.055-5.664-.018-.876.02-1.77.056-2.664.056-1.006 0-1.286-.392-.26-.634 2.85 0 4.303-2.164 5.067-4.7zm6.763-10.67h4.974c.447 0 4.602.13 4.435-.3.222-.746-1.082-3.115-1.324-3.824-.783-2.22-1.565-4.46-2.348-6.68-.26-.727-.503-1.454-.764-2.182-.186-.504-.503-1.4-.875-.373-.672.914-.896 2.742-1.23 3.787-.728 2.22-1.454 4.42-2.18 6.64-.075.244-1.12 2.93-.69 2.93zm76.59-6.62c0 5.876-.28 11.846.113 17.722.13 1.866.205 3.806 2.422 4.048.372.038 2.142-.055 2.142.41 0 .542-1.416.355-1.732.355-.727 0-10.49.075-10.49-.354 0-.43 1.528-.373 1.845-.466 1.136-.243 1.267-1.735 1.397-2.668.28-2.388.224-4.813.242-7.2v-8.396c0-.56-11.57-.26-12.558-.26h-7.23c-.41 0-.8-.057-1.173.092-.41.206-.094 2.892-.094 3.284 0 3.86-.168 7.78.15 11.64.167 1.978.52 3.6 2.83 3.6.17.02 2.46.318 1.51.654-.596.205-1.453.074-2.05.056-.856 0-9.986.093-9.986-.336 0-.43 1.547-.373 1.845-.466 1.136-.243 1.267-1.735 1.397-2.668.298-2.388.224-4.813.242-7.2.02-4.57 0-9.16 0-13.73 0-2.65.112-5.336-.055-7.985-.132-1.83-.45-3.116-2.498-3.358-.224-.038-1.64.074-1.64-.373 0-.58 1.21-.392 1.565-.392 2.832.02 5.646.168 8.478.037.037 0 2.422.037 1.565.578-.336.223-1.1.167-1.472.223-1.92.393-1.807 2.632-1.863 4.2-.075 2.554-.02 5.148-.02 7.703 0 .43-.204 1.903 0 2.258 0 .523.933.336 1.268.336h19.488c.54 0 .3-4.178.3-4.59 0-2.33.092-4.68-.094-7.013-.15-1.716-.596-2.742-2.46-2.966-.353-.038-1.21.074-1.527-.15-.728-.41.875-.615 1.042-.615 2.33 0 4.658.224 7.006.056.577-.02 3.558-.373 3.558.336 0 .41-2.534.578-2.925 1.287-.986 1.83-.54 4.59-.54 6.623v5.69zm17.197 8.507v-12.145c0-2.518.354-5.428-.242-7.872-.242-1.007-.95-1.455-1.937-1.642-.522-.167-1.454.095-1.9-.222-.746-.392.875-.616 1.043-.616.578 0 1.137.02 1.715.037 2.29.13 4.583.11 6.856.11h4.435c1.807-.018 3.708-.372 5.478-.372 0-.26.577-.15.577.28 0 .84-.335 1.697-.39 2.537-.076.895-.094 1.79-.187 2.668-.075.615-.764 1.25-.764.168 0-4.607-6.466-3.525-9.578-3.525-.987 0-1.043.205-1.043 1.082v11.715c0 .41-.187 1.51.372 1.51h3.353c1.752 0 3.522.057 5.236-.24.71-.132 1.435-1.158 1.994-1.158.522 0-.056 2.22-.074 2.462-.075 1.157-.224 2.314-.26 3.49-.02.24-.225 1.752-.616 1.025-.28-.428-.205-1.566-.335-2.088-.206-1.082-1.548-1.437-2.442-1.51-2.16-.244-4.416-.207-6.595-.244-1.118 0-.634 2.22-.634 3.003v5.56c0 2.034-.616 5.746.837 7.332 1.23 1.325 4.118.933 5.72.933 2.72 0 5.105-.504 5.74-3.433.13-.67.446-1.996.818-.653.224.82-.205 2.238-.335 3.06-.26 1.267-.13 2.76-1.733 2.872-1.602.13-3.26.037-4.862.018-.95-.018-13.732-.093-13.732-.466 0-.41 1.92-.43 2.273-.634 1.062-.635 1.007-2.743 1.08-3.825.206-3.06.13-6.156.13-9.215zm30.127-15.726c.112 4.234.224 8.47.354 12.704.112 4.44-.224 9.253.54 13.655.336 1.922 1.38 2.63 3.26 2.742.448.02 1.92.485.672.635-1.25.13-2.553-.038-3.8-.038-1.77-.112-3.504 0-5.255.038-.522.018-1.137.093-1.64-.056-.484-.15-.112-.56.168-.56.745 0 1.658-.056 2.33-.43 1.77-1.025 1.098-5.092 1.098-6.883 0-2.07.02-4.14.02-6.21 0-4.627.018-9.272.018-13.917 0-2.687-.465-5.95.13-8.62.336-1.268 1.808.69 2.18 1.12.615.728 1.268 1.418 1.92 2.108 2.832 3.08 5.663 6.12 8.514 9.16 5.496 5.933 10.862 11.996 16.45 17.872-.185-8.413-.166-16.845-.558-25.258-.074-1.735-.28-3.993-2.552-3.993-.354-.073-2.068.04-2.068-.484 0-.503 1.118-.335 1.453-.354 2.012 0 4.024.26 6.037.056 1.043 0 2.18-.187 3.24 0 .672.15-.054.634-.297.634-.52 0-1.117.075-1.602.26-1.882.71-1.34 3.807-1.36 5.523 0 2.22 0 4.44-.02 6.66-.017 4.757-.017 9.495-.036 14.234-.02 2.834.372 6.174-.113 8.972-.28 1.38-2.18-.858-2.608-1.27-.877-.876-1.752-1.752-2.628-2.648-3-3.06-5.962-6.156-8.924-9.234-2.74-2.873-5.403-5.802-8.068-8.75-2.273-2.5-4.9-4.943-6.856-7.666zm44.68 15.8v-12.143c0-2.5.372-5.428-.224-7.87-.243-1.01-.95-1.456-1.938-1.643-.522-.168-1.453.075-1.92-.224-.726-.41.877-.615 1.063-.615.578 0 1.136.018 1.714.055 6.893.392 18.612-2.33 20.978 6.698.633 2.444-.02 5.13-1.062 7.37-.466 1.007-1.08 1.958-1.77 2.816-.39.504-.82.99-1.267 1.455-.69.73-1.79 1.14-1.082 2.035 3.242 4.14 6.353 8.618 10.098 12.33 1.51 1.493 3.28 2.65 5.403 2.985.26.038 2.328-.018 2.328.43 0 .522-1.472.354-1.844.354-3.13 0-6.54.392-9.13-1.716-3.446-2.78-6.036-7.145-8.607-10.727-.596-.838-1.49-2.965-2.72-2.984l-3.93-.112c-.58 0-2.22-.39-2.22.504 0 2.24 0 4.477.02 6.716.02 1.96-.168 4.346.522 6.23.334.933 1.06 1.232 1.992 1.325.224.018 2.907.335 1.957.69-1.23.466-3.17.018-4.454.018-1.584-.075-3.13-.037-4.733 0-.52.056-1.36.168-1.88.056-.84 0-.97-.597-.04-.653.82-.13 1.753-.11 2.107-1.044.41-1.156.484-2.406.56-3.637.13-2.893.073-5.803.073-8.695zm3.874-20.11v14.105c0 1.528-.242 2.35 1.584 2.722 2.087.43 4.956.784 6.95-.242 2.906-1.493 3.54-5.466 3.428-8.376-.112-3.004-1.137-6.12-3.764-7.817-1.155-.727-8.18-2.388-8.198-.392zm36.61 11.605c0 5.875-.26 11.845.113 17.72.13 1.848.187 3.807 2.423 4.05.372.036 2.142-.057 2.142.41 0 .54-1.416.354-1.733.354-.745 0-10.47.075-10.47-.354 0-.43 1.51-.374 1.826-.467 1.136-.242 1.267-1.735 1.397-2.668.298-2.37.224-4.813.242-7.2v-8.488c0-4.384.205-8.843-.074-13.227-.075-1.343-.243-3.34-2.05-3.34-.335-.036-1.062.02-1.378-.167-.373-.224.074-.56.316-.597.746-.093 1.585-.018 2.31.037 1.678.056 3.355 0 5.032 0 .67 0 4.266-.26 2.925.635-.503.317-1.38.093-1.956.447-.782.504-.912 1.605-.968 2.444-.112 1.212-.093 2.443-.093 3.674v6.735zm45.05 26.06c-1.974-1.1-3.93-2.183-5.905-3.284-.727-.39-1.453-.802-2.18-1.212-.15-.075-2.59.95-2.925 1.026-1.546.354-3.093.616-4.677.616-4.45 0-9.11-1.008-12.463-4.123-3.577-3.358-6-8.152-6.353-13.077-.932-9.943 6.484-19.588 16.47-20.558 9.465-.896 19.246 3.936 21.11 13.898 1.415 7.648-1.547 16.024-8.2 20.37 3.243 1.66 6.466 3.322 9.69 4.963 6.39 3.283 12.8 5.465 20.01 5.82 1.676.074 3.372-.13 5.01-.43 1.082-.186 2.162-.43 3.206-.783.745-.242 1.733-.858 2.515-.858.894 0-.354.894-.503.97-.82.372-1.695.67-2.534 1.006-2.124.728-4.34 1.306-6.54 1.68-9.278 1.566-17.718-1.624-25.73-6.026zm-29.995-23.207c0 8.264 4.285 17.144 13.265 18.412 4.583.653 8.924-.914 11.943-4.458 2.87-3.414 3.597-7.61 3.597-11.977 0-8.47-4.658-17.46-14.123-17.834-4.248-.168-8.496 1.4-11.29 4.664-2.627 3.078-3.39 7.425-3.39 11.193zm42.553 4.197v-12.76c0-2.35.82-6.865-2.18-7.443-.52-.187-1.434.093-1.9-.224-.726-.43.876-.615 1.062-.615 1.174 0 2.366.018 3.54.093 1.453.075 2.907 0 4.36-.037.745 0 1.88-.28 2.608.02 1.043.372-1.08.708-1.062.708-2.962.467-2.217 4.89-2.217 7.202 0 4.253-.037 8.507 0 12.76 0 4.458.503 9.27 4.043 12.405 3.745 3.32 10.042 2.91 13.638-.39 4.825-4.423 3.614-12.873 3.614-18.862v-6.995c0-1.287.02-2.612-.15-3.9-.11-.988-.502-1.697-1.47-2.032-.69-.224-1.882.018-2.46-.355-.745-.43.895-.615 1.08-.615.597 0 1.212.018 1.808.037 1.677.074 3.316.093 4.975.018.484-.018.968-.055 1.434-.055.148 0 1.955.167 1.173.615-.354.224-1.043.112-1.472.224-1.154.224-1.564 1.063-1.713 2.164-1.21 8.228 1.062 16.734-1.174 24.887-2.086 7.592-10.098 10.41-17.29 8.917-7.77-1.605-10.247-8.62-10.247-15.764zm42.89 1.455V284.38c0-2.517.353-5.428-.224-7.87-.54-2.203-2.534-1.046-3.857-1.867-.727-.43.876-.615 1.043-.615.578 0 1.156.018 1.733.055 2.274.13 4.566.094 6.857.094h4.435c1.807-.02 3.69-.373 5.477-.373 0-.28.558-.15.558.28 0 .84-.317 1.697-.39 2.537-.076.896-.076 1.79-.187 2.668-.074.616-.763 1.25-.763.168 0-4.608-6.447-3.526-9.558-3.526-.99 0-1.082.206-1.082 1.082v11.716c0 .41-.167 1.51.41 1.51h3.354c1.733 0 3.502.057 5.235-.242.466-.074 1.975-1.25 2.143-1.082.39.373-.242 2.556-.317 3.022-.168.99-.186 2.09-.186 3.097-.056.26.056.373-.075.71-.186.484-.596.055-.596-.244 0-2.09-.932-3.135-3.056-3.32-2.16-.17-4.396-.206-6.558-.206-.67 0-.354 2.91-.354 3.357v5.262c0 1.996-.67 6.175 1.1 7.48 1.434 1.046 3.93.766 5.608.728 3.055 0 5.216-.783 5.72-4.01.223-.82.54-.86.726 0 0 1.175-.39 2.313-.39 3.488-.337 1.175-.225 2.257-1.678 2.37-1.62.13-3.26.037-4.882.018-.95-.02-13.73-.093-13.73-.466 0-.41 1.918-.43 2.272-.635 1.062-.634 1.025-2.742 1.1-3.824.186-3.058.11-6.155.11-9.215zm31.68 14.744c-1.342 0-2.683-.132-3.988-.43-.782-.168-1.937-.933-2.682-.933-1.267-.802-.503-4.888-.336-6.212 0-.056.354-2.164.727-1.306.298.8.074 1.865.317 2.723.614 2.294 2.44 3.563 4.676 4.122 4.416 1.1 9.13-1.212 9.24-6.137 0-4.44-3.54-7.014-6.632-9.626-3.167-2.686-6.744-5.54-7.303-9.962-.596-4.72 2.254-8.768 6.893-9.794 2.404-.522 5.16-.466 7.527.168.373.075 2.18.112 2.18.58 0 1.155-.167 2.293-.186 3.43 0 .356.223 2.818-.355 2.818-.503 0-.633-2.09-.783-2.518-.726-2.052-3.055-2.892-5.05-3.06-4.712-.373-8.83 3.283-6.575 8.17 1.75 3.527 5.813 5.654 8.644 8.21 3.467 3.152 5.74 6.92 4.864 11.752-.987 5.41-6.11 8.003-11.178 8.003" fill="#000" fill-rule="evenodd"/></svg>