<svg width="440" height="260" viewBox="0 0 440 260" xmlns="http://www.w3.org/2000/svg"><title>Bit Basement</title><path d="M20.614 234.706h10.37c2.428 0 4.29-.386 5.577-1.144 1.29-.765 1.927-2.217 1.927-4.342 0-3.475-2.778-5.213-8.346-5.213h-9.526v10.7zm0-16.8h8.41c4.774 0 7.172-1.624 7.172-4.87 0-1.867-.58-3.212-1.74-4.035-1.16-.82-2.955-1.23-5.382-1.23h-8.46v10.136zm10.536 22.908H14v-39.15h15.246c2.655 0 4.94.314 6.864.95 1.926.637 3.35 1.495 4.288 2.583 1.79 2.016 2.69 4.29 2.69 6.83 0 3.06-.973 5.335-2.912 6.83-.716.522-1.203.85-1.46.98-.265.136-.73.35-1.396.65 2.426.516 4.36 1.61 5.798 3.27 1.43 1.666 2.16 3.726 2.16 6.186 0 2.725-.936 5.142-2.805 7.23-2.204 2.425-5.976 3.64-11.323 3.64zm21.444-39.15h6.614v39.15h-6.614v-39.15zm30.492 6.05v33.1h-6.613v-33.1H64.59v-6.05h30.37v6.05H83.087m39.904 26.992h10.365c2.426 0 4.287-.386 5.576-1.144 1.29-.765 1.933-2.217 1.933-4.342 0-3.475-2.784-5.213-8.346-5.213h-9.527v10.7zm0-16.8h8.404c4.78 0 7.172-1.624 7.172-4.87 0-1.867-.587-3.212-1.732-4.035-1.16-.82-2.957-1.23-5.39-1.23h-8.454v10.136zm10.53 22.908h-17.15v-39.15h15.246c2.655 0 4.938.314 6.87.95 1.92.637 3.35 1.495 4.28 2.583 1.798 2.016 2.693 4.29 2.693 6.83 0 3.06-.975 5.335-2.915 6.83-.708.522-1.195.85-1.453.98-.264.136-.73.35-1.403.65 2.426.516 4.358 1.61 5.797 3.27 1.44 1.666 2.155 3.726 2.155 6.186 0 2.725-.93 5.142-2.8 7.23-2.204 2.425-5.976 3.64-11.323 3.64zm43.662-15.012l-7.122-16.128-7.115 16.128h14.237zm-16.928 6.1l-3.923 8.912h-7.064l17.265-39.15h7.058l17.272 39.15h-7.065l-3.922-8.91h-19.62zm47.534-25.082c-1.926 0-3.5.393-4.73 1.173-1.24.787-1.855 1.974-1.855 3.555 0 1.587.615 2.803 1.854 3.64 1.23.844 3.85 1.745 7.866 2.718 4.023.973 7.05 2.33 9.083 4.09 2.033 1.753 3.056 4.342 3.056 7.754 0 3.41-1.288 6.186-3.865 8.318-2.576 2.13-5.962 3.19-10.15 3.19-6.126 0-11.56-2.103-16.312-6.323l4.152-4.985c3.958 3.433 8.074 5.15 12.332 5.15 2.125 0 3.822-.458 5.074-1.374 1.246-.915 1.876-2.13 1.876-3.64 0-1.51-.587-2.682-1.768-3.526-1.18-.837-3.207-1.61-6.084-2.296-2.87-.694-5.06-1.33-6.557-1.902-1.495-.587-2.82-1.338-3.97-2.275-2.32-1.752-3.48-4.44-3.48-8.067 0-3.612 1.317-6.41 3.95-8.36 2.635-1.968 5.892-2.948 9.778-2.948 2.506 0 4.997.415 7.46 1.23 2.468.823 4.594 1.98 6.383 3.476l-3.527 4.978c-1.16-1.037-2.727-1.902-4.71-2.567-1.983-.68-3.93-1.01-5.855-1.01m49.946-5.157v6.216h-20.9v10.362H255.6v5.88h-18.766v10.477h21.573v6.214h-28.194v-39.15h27.52m14.804 39.15h-6.62v-39.15h10.313l11.824 24.58 11.825-24.58h10.256v39.15h-6.607v-30.582l-13.68 27.163h-3.7l-13.613-27.163v30.582m74.762-39.15v6.215h-20.91v10.362h18.776v5.88H326.39v10.477h21.582v6.214h-28.195v-39.15H347.3m37.548 0h6.614v39.15h-7.18l-22.188-28.565v28.564h-6.614v-39.15h6.614l22.754 29.237v-29.237m30.492 6.05v33.1h-6.614v-33.1h-11.88v-6.05h30.376v6.05H415.34M153.625 114.38c-11.43-11.43-11.43-29.954 0-41.383l44.428-44.393c11.438-11.422 29.977-11.422 41.415 0l44.428 44.393c11.438 11.43 11.43 29.953 0 41.382l-44.428 44.392c-11.438 11.422-29.977 11.422-41.415 0l-44.428-44.393zm27.257-1.224c.1 3.04 1.31 6.05 3.636 8.368l25.517 25.49c4.853 4.864 12.734 4.864 17.594 0l25.51-25.49c4.86-4.856 4.86-12.73 0-17.58l-9.964-9.963 9.963-9.962c4.86-4.856 4.86-12.73 0-17.58l-25.51-25.497c-4.86-4.848-12.742-4.848-17.595 0l-25.517 25.5c-2.326 2.316-3.536 5.327-3.636 8.367h-.007v.422c0-.137 0-.28.007-.423v38.35zm57.985-14.87l9.956 9.964c2.484 2.482 2.484 6.487 0 8.97l-25.503 25.49c-2.484 2.473-6.506 2.473-8.976 0l-25.524-25.49c-2.47-2.483-2.47-6.488 0-8.97l9.978-9.963 11.23 11.23c4.86 4.848 12.74 4.848 17.6 0l11.24-11.23zm0-8.61l9.956-9.963c2.484-2.482 2.484-6.494 0-8.976l-25.503-25.49c-2.484-2.475-6.506-2.475-8.976 0l-25.524 25.49c-2.47 2.482-2.47 6.494 0 8.976l9.978 9.963 11.23-11.23c4.86-4.855 12.74-4.855 17.6 0l11.24 11.23zm-4.316 4.305l-11.23 11.223c-2.484 2.482-6.5 2.482-8.976 0l-11.23-11.222 11.23-11.22c2.477-2.482 6.492-2.482 8.976 0l11.23 11.22zm-47.577 7.51l7.51-7.51-7.51-7.508v15.02z" fill="#000" fill-rule="evenodd"/></svg>