<svg width="672" height="260" viewBox="0 0 672 260" xmlns="http://www.w3.org/2000/svg"><title>RTP1</title><path d="M294.25 110.856c-5.886 0-10.658 4.61-10.658 10.3v10.306h58.174c5.885 0 10.656-4.617 10.656-10.307s-4.77-10.3-10.656-10.3H294.25zM283.59 146.92v17.157h-17.178V120.75c.24-14.02 12.064-25.32 26.626-25.32h49.942c14.697 0 26.618 11.524 26.618 25.74 0 9.148-4.923 17.174-12.35 21.736l12.35 21.17h-18.816l-10.012-17.157h-57.18zm94.486-36.064V95.43h103.026v15.426h-42.92v53.22h-17.17v-53.22h-42.936M516.335 95.43h49.8c14.704 0 26.625 11.524 26.625 25.74 0 14.218-11.92 25.75-26.626 25.75h-59.247v17.157h-17.17V120.75c.23-14.02 12.064-25.32 26.618-25.32m1.208 15.426c-5.885 0-10.656 4.617-10.656 10.307v10.307h58.046c5.885 0 10.65-4.617 10.65-10.307s-4.765-10.307-10.65-10.307h-47.39zm-456.84-15.41h119.695c4.907 0 8.875 3.84 8.875 8.583 0 4.736-3.968 8.574-8.875 8.574H60.703c-4.907 0-8.875-3.838-8.875-8.575 0-4.745 3.968-8.584 8.875-8.584zm-51.518 0H24.94c-2.537 2.28-4.24 5.285-4.24 8.583 0 3.297 1.703 6.3 4.232 8.574H9.185c-4.906 0-8.875-3.838-8.875-8.575 0-4.745 3.97-8.584 8.875-8.584zm222.65 17.158H216.09c2.53-2.273 4.24-5.277 4.24-8.575 0-3.3-1.71-6.303-4.24-8.584h15.746c4.9 0 8.875 3.84 8.875 8.583 0 4.736-3.975 8.574-8.874 8.574zm-196.9-17.158H50.69c-2.53 2.28-4.238 5.285-4.238 8.583 0 3.297 1.71 6.3 4.238 8.574H34.936c-4.9 0-8.867-3.838-8.867-8.575 0-4.745 3.967-8.584 8.866-8.584zm171.206 17.158h-15.865c2.537-2.273 4.24-5.277 4.24-8.575 0-3.3-1.703-6.303-4.24-8.584h15.866c4.9 0 8.868 3.84 8.868 8.583 0 4.736-3.968 8.574-8.867 8.574zm-145.437 8.583h119.695c4.907 0 8.875 3.846 8.875 8.583 0 4.736-3.968 8.582-8.875 8.582H60.703c-4.907 0-8.875-3.846-8.875-8.582 0-4.737 3.968-8.583 8.875-8.583zm-51.518 0H24.94c-2.537 2.28-4.24 5.285-4.24 8.583s1.703 6.302 4.232 8.582H9.185c-4.906 0-8.875-3.846-8.875-8.582 0-4.737 3.97-8.583 8.875-8.583zm222.65 17.165H216.09c2.53-2.28 4.24-5.284 4.24-8.582 0-3.298-1.71-6.302-4.24-8.583h15.746c4.9 0 8.875 3.846 8.875 8.583 0 4.736-3.975 8.582-8.874 8.582zm-196.9-17.165H50.69c-2.53 2.28-4.238 5.285-4.238 8.583s1.71 6.302 4.238 8.582H34.936c-4.9 0-8.867-3.846-8.867-8.582 0-4.737 3.967-8.583 8.866-8.583zm171.206 17.165h-15.865c2.537-2.28 4.24-5.284 4.24-8.582 0-3.298-1.703-6.302-4.24-8.583h15.866c4.9 0 8.868 3.846 8.868 8.583 0 4.736-3.968 8.582-8.867 8.582zm-145.437 8.55h119.695c4.907 0 8.875 3.84 8.875 8.584 0 4.737-3.968 8.583-8.875 8.583H60.703c-4.907 0-8.875-3.847-8.875-8.584 0-4.744 3.968-8.583 8.875-8.583zm-51.518 0H24.94c-2.537 2.282-4.24 5.286-4.24 8.584s1.703 6.302 4.232 8.583H9.185c-4.906 0-8.875-3.847-8.875-8.584 0-4.744 3.97-8.583 8.875-8.583zm222.65 17.167H216.09c2.53-2.282 4.24-5.286 4.24-8.584s-1.71-6.302-4.24-8.583h15.746c4.9 0 8.875 3.847 8.875 8.583 0 4.744-3.975 8.583-8.874 8.583zm-196.9-17.167H50.69c-2.53 2.28-4.238 5.285-4.238 8.583s1.71 6.302 4.238 8.583H34.936c-4.9 0-8.867-3.847-8.867-8.584 0-4.744 3.967-8.583 8.866-8.583zm171.206 17.166h-15.865c2.537-2.282 4.24-5.286 4.24-8.584s-1.703-6.302-4.24-8.583h15.866c4.9 0 8.868 3.847 8.868 8.583 0 4.744-3.968 8.583-8.867 8.583zM86.454 69.69h68.14c4.898 0 8.874 3.838 8.874 8.583 0 4.736-3.976 8.583-8.875 8.583h-68.14c-4.897 0-8.866-3.847-8.866-8.583 0-4.745 3.97-8.583 8.867-8.583zm-51.517 0H50.69c-2.53 2.28-4.238 5.285-4.238 8.583s1.71 6.302 4.238 8.583H34.936c-4.9 0-8.867-3.847-8.867-8.583 0-4.745 3.967-8.583 8.866-8.583zM206.03 86.856h-15.755c2.537-2.28 4.24-5.293 4.24-8.583 0-3.298-1.703-6.31-4.24-8.583h15.755c4.898 0 8.875 3.846 8.875 8.583 0 4.736-3.977 8.583-8.875 8.583zM60.695 69.69H76.45c-2.53 2.28-4.232 5.285-4.232 8.583s1.702 6.302 4.23 8.583H60.696c-4.9 0-8.867-3.847-8.867-8.583 0-4.745 3.968-8.583 8.867-8.583zm119.64 17.166h-15.763c2.537-2.28 4.24-5.293 4.24-8.583 0-3.298-1.703-6.31-4.24-8.583h15.763c4.898 0 8.867 3.846 8.867 8.583 0 4.736-3.97 8.583-8.867 8.583zm-93.882 85.748h68.14c4.898 0 8.874 3.838 8.874 8.583 0 4.744-3.976 8.583-8.875 8.583h-68.14c-4.897 0-8.866-3.84-8.866-8.583 0-4.745 3.97-8.583 8.867-8.583zm-51.517 0H50.69c-2.53 2.28-4.238 5.293-4.238 8.583 0 3.298 1.71 6.31 4.238 8.583H34.936c-4.9 0-8.867-3.84-8.867-8.583 0-4.745 3.967-8.583 8.866-8.583zM206.03 189.77h-15.755c2.537-2.273 4.24-5.285 4.24-8.583 0-3.29-1.703-6.302-4.24-8.583h15.755c4.898 0 8.875 3.846 8.875 8.583 0 4.744-3.977 8.583-8.875 8.583zM60.695 172.604H76.45c-2.53 2.28-4.232 5.293-4.232 8.583 0 3.298 1.702 6.31 4.23 8.583H60.696c-4.9 0-8.867-3.84-8.867-8.583 0-4.745 3.968-8.583 8.867-8.583zm119.64 17.166h-15.763c2.537-2.273 4.24-5.285 4.24-8.583 0-3.29-1.703-6.302-4.24-8.583h15.763c4.898 0 8.867 3.846 8.867 8.583 0 4.744-3.97 8.583-8.867 8.583zm463.878-78.302c5.25 0 9.504 4.1 9.504 9.178v47.826h18.402v-46.41c-.247-15.02-12.924-27.132-28.52-27.132h-17.423l9.153 16.538h8.883" fill="#000" fill-rule="evenodd"/></svg>