<svg width="512" height="320" viewBox="0 0 512 320" xmlns="http://www.w3.org/2000/svg"><title>logo-roca</title><path d="M451.902 138.474v29.684c-3.865.49-7.782.737-11.752.737-4.602 0-9.064-.825-13.087-2.334-4.708-1.788-8.098-6.297-8.098-11.63 0-5.93 3.583-11 8.783-13.158 2.916-1.193 6.043-2.035 9.293-2.42 4.884-.58 9.838-.878 14.862-.878m34.694 38.368v-49.684c0-3.316-.3-6.544-.913-9.667-2.23-11.227-10.716-20.21-21.678-23.034-7.15-1.877-14.562-2.877-22.274-2.877-15.264 0-30.126 1.824-44.354 5.245l5.62 15.72c9.785-2.633 20.097-4.036 30.707-4.036 3.935 0 7.782.402 11.49 1.157 3.828.79 6.71 4.175 6.71 8.245v7.807c-7.063 0-14.054.227-21.01.684-7.256.473-14.317 1.736-21.063 3.7-3.373.984-6.64 2.264-9.75 3.808-7.87 3.825-13.21 11.877-13.21 21.176 0 9.737 5.92 18.087 14.353 21.684 6.815 2.947 14.21 4.895 21.958 5.667 5.587.56 11.366.858 17.163.858 16.04 0 31.567-2.263 46.253-6.456m-383.11-83.667c0 6.51-3.32 12.23-8.378 15.562-4.532 2.982-9.61 5.088-15.142 6.088-5.973 1.087-12.14 1.65-18.445 1.65l-.017-39.177h20.5c3.162 0 6.29.35 9.293.948 6.974 1.42 12.19 7.56 12.19 14.93m36.733-.387c0-13.386-8.75-24.772-20.888-28.597-5.533-1.737-11.365-2.93-17.338-3.386-5.656-.44-11.383-.684-17.145-.684H24.77v120.544h36.73V133.51c5.552 0 11.05-.194 16.514-.545l25.47 47.702h41.985l-30.775-54.035c1.475-.544 2.933-1.123 4.374-1.737 12.453-5.37 21.15-17.72 21.15-32.106m91.117 44.65c0 5.964-.475 11.823-1.37 17.56-.914 5.877-5.183 10.614-10.892 12.158-2.547.684-5.235 1.07-8.01 1.07-2.758 0-5.446-.386-7.993-1.07-5.71-1.544-9.978-6.28-10.91-12.158-.877-5.737-1.35-11.596-1.35-17.56 0-5.984.473-11.826 1.35-17.545.932-5.895 5.2-10.632 10.91-12.176 2.547-.685 5.235-1.07 7.993-1.07 2.775 0 5.463.385 8.01 1.07 5.71 1.543 9.978 6.28 10.89 12.175.897 5.72 1.372 11.56 1.372 17.544m34.834 0c0-4.405-.42-8.72-1.21-12.88-2.812-14.613-13.88-26.262-28.266-29.84-8.203-2.053-16.776-3.14-25.612-3.14-8.853 0-17.426 1.087-25.63 3.14-14.37 3.578-25.453 15.227-28.246 29.84-.808 4.16-1.23 8.475-1.23 12.88 0 4.402.422 8.7 1.23 12.876 2.793 14.614 13.877 26.263 28.247 29.842 8.203 2.053 16.776 3.14 25.63 3.14 8.835 0 17.408-1.087 25.61-3.14 14.388-3.58 25.455-15.228 28.266-29.842.79-4.176 1.21-8.474 1.21-12.877zM24.773 250.14c31.655-7.965 64.82-12.193 98.952-12.193 32.62 0 64.276 3.842 94.684 11.123 22.274 5.35 45.216 8.825 68.755 10.246 21.52-12.158 42.335-25.37 62.432-39.562.333-.228.562-.614.562-1.07 0-.72-.58-1.298-1.318-1.298-12.72 3.298-25.736 5.035-39.157 5.035-32.006 0-63.116-3.77-92.927-10.93-30.425-7.315-62.08-11.157-94.683-11.157-33.552 0-66.156 4.088-97.3 11.807v38zm354.58-39.596c1.388-2.21 3.812-3.667 6.605-3.667h100.64v41.948H355.39l23.962-38.28zm-94.79-73.105c0-4.072.388-8.036 1.125-11.86 2.618-13.598 12.227-24.685 25.033-29.352 8.256-2.982 17.145-4.65 26.437-4.65 11.823 0 23.26 1.843 33.974 5.247l-5.76 16.122c-7.396-1.824-15.02-2.807-22.943-2.807-4.163 0-8.115.86-11.717 2.37-4.865 2.034-8.43 6.297-9.714 11.455-1.09 4.333-1.546 8.842-1.546 13.474 0 4.63.457 9.14 1.546 13.472 1.283 5.176 4.85 9.44 9.714 11.474 3.602 1.51 7.554 2.35 11.717 2.35 7.923 0 15.547-.964 22.942-2.79l5.76 16.124c-10.714 3.386-22.15 5.246-33.973 5.246-9.292 0-18.18-1.65-26.437-4.667-12.806-4.65-22.415-15.755-25.033-29.352-.737-3.824-1.124-7.807-1.124-11.86z" fill="#000" fill-rule="evenodd"/></svg>