<svg width="409" height="124" viewBox="0 0 409 124" xmlns="http://www.w3.org/2000/svg"><title>Group</title><g fill="#000" fill-rule="evenodd"><path d="M.89 47.81c0-14.823 3.987-26.427 11.96-34.814C20.824 4.61 31.115.416 43.724.416c8.26 0 15.703 1.97 22.333 5.91 6.63 3.94 11.685 9.43 15.163 16.477 3.478 7.046 5.217 15.036 5.217 23.972 0 9.056-1.83 17.157-5.492 24.306-3.66 7.148-8.848 12.56-15.56 16.232-6.712 3.676-13.952 5.516-21.722 5.516-8.42 0-15.946-2.033-22.576-6.094-6.63-4.058-11.654-9.603-15.07-16.63C2.598 63.08.89 55.65.89 47.81zm12.24.213c0 10.75 2.895 19.22 8.685 25.41 5.79 6.184 13.053 9.278 21.79 9.278 8.897 0 16.22-3.122 21.97-9.37 5.75-6.25 8.624-15.114 8.624-26.595 0-7.26-1.23-13.602-3.688-19.017-2.46-5.417-6.055-9.616-10.788-12.598-4.734-2.983-10.047-4.472-15.94-4.472-8.37 0-15.57 2.87-21.604 8.61-6.034 5.74-9.05 15.325-9.05 28.755zM124.31 91.33V12.405H94.84V1.915h70.81v10.49h-29.474V91.33M179.93 91.33h11.863V1.917H179.93M205.978 91.33h11.865V1.917h-11.865M229.778 91.33V1.915h17.743l21.144 63.294c1.947 5.894 3.37 10.304 4.26 13.23 1.025-3.252 2.62-8.028 4.785-14.33L299.24 1.915h15.83V91.33h-11.36V16.526L277.606 91.33h-10.66l-25.805-76.178V91.33h-11.364zM324.384 91.33L358.69 1.915h13.002L408.11 91.33h-13.476L384.3 64.23h-37.665l-9.696 27.1h-12.556zm25.734-36.717h30.476l-9.34-24.78c-2.802-7.538-4.935-13.762-6.406-18.676-1.23 5.82-2.875 11.557-4.933 17.215l-9.797 26.24zM23.555 123.45v-16.56h2.52v2.34c.52-.808 1.21-1.46 2.07-1.953.86-.492 1.843-.738 2.942-.738 1.225 0 2.228.253 3.01.763.785.507 1.337 1.216 1.66 2.128 1.312-1.926 3.024-2.89 5.13-2.89 1.65 0 2.918.454 3.804 1.362.887.908 1.33 2.307 1.33 4.195v11.352h-2.807v-10.42c0-1.12-.092-1.93-.274-2.42-.183-.495-.514-.893-.994-1.194-.48-.3-1.042-.45-1.688-.45-1.168 0-2.137.385-2.91 1.16-.77.77-1.156 2.01-1.156 3.714v9.61h-2.81v-10.747c0-1.246-.226-2.182-.682-2.805-.457-.62-1.205-.933-2.243-.933-.788 0-1.517.21-2.187.623-.67.414-1.154 1.023-1.455 1.822-.302.8-.45 1.95-.45 3.457v8.582h-2.81zM60.992 123.45v-2.462c-1.286 1.875-3.03 2.81-5.238 2.81-.975 0-1.884-.185-2.73-.56-.844-.373-1.47-.842-1.88-1.406-.41-.567-.698-1.26-.863-2.08-.113-.55-.17-1.422-.17-2.617V106.89h2.808v9.164c0 1.463.057 2.448.17 2.957.177.738.55 1.316 1.12 1.736.57.42 1.274.63 2.115.63.84 0 1.626-.214 2.362-.648.735-.43 1.256-1.015 1.56-1.756.308-.742.46-1.818.46-3.228v-8.854h2.808v16.56h-2.52zM78.76 117.387l2.745.385c-.3 1.885-1.072 3.36-2.312 4.43-1.24 1.066-2.762 1.597-4.566 1.597-2.262 0-4.08-.74-5.453-2.216-1.374-1.478-2.062-3.595-2.062-6.353 0-1.78.295-3.34.887-4.677.59-1.338 1.492-2.342 2.7-3.01 1.21-.668 2.525-1.004 3.948-1.004 1.796 0 3.264.454 4.406 1.363 1.142.908 1.873 2.197 2.194 3.87l-2.712.415c-.26-1.112-.72-1.947-1.38-2.508-.66-.563-1.46-.844-2.397-.844-1.416 0-2.565.508-3.45 1.52-.884 1.01-1.325 2.61-1.325 4.8 0 2.22.425 3.833 1.276 4.84.855 1.004 1.967 1.506 3.338 1.506 1.1 0 2.02-.334 2.76-1.008.736-.67 1.205-1.71 1.4-3.107M83.897 123.45v-22.845h2.81v8.22c1.302-1.522 2.946-2.286 4.933-2.286 1.22 0 2.28.24 3.18.725.9.48 1.544 1.15 1.93 1.998.39.852.582 2.088.582 3.707v10.48h-2.808v-10.472c0-1.398-.302-2.42-.905-3.058-.605-.637-1.46-.955-2.564-.955-.825 0-1.602.214-2.33.644-.727.43-1.245 1.013-1.556 1.75-.31.737-.464 1.755-.464 3.05v9.04h-2.81zM110.512 123.45v-16.56h2.52v2.34c.52-.808 1.21-1.46 2.07-1.953.86-.492 1.842-.738 2.94-.738 1.226 0 2.23.253 3.013.763.784.507 1.336 1.216 1.656 2.128 1.317-1.926 3.028-2.89 5.135-2.89 1.648 0 2.916.454 3.803 1.362.886.908 1.33 2.307 1.33 4.195v11.352h-2.808v-10.42c0-1.12-.092-1.93-.273-2.42-.183-.495-.515-.893-.994-1.194-.48-.3-1.042-.45-1.688-.45-1.168 0-2.138.385-2.91 1.16-.77.77-1.156 2.01-1.156 3.714v9.61h-2.81v-10.747c0-1.246-.227-2.182-.684-2.805-.456-.62-1.205-.933-2.243-.933-.788 0-1.516.21-2.186.623-.67.414-1.155 1.023-1.455 1.822-.3.8-.452 1.95-.452 3.457v8.582h-2.808zM136.078 115.17c0-3.057.852-5.324 2.556-6.795 1.423-1.223 3.16-1.836 5.206-1.836 2.275 0 4.136.745 5.58 2.232 1.444 1.488 2.166 3.54 2.166 6.164 0 2.127-.32 3.798-.957 5.015-.64 1.22-1.572 2.167-2.792 2.84-1.22.673-2.554 1.01-3.998 1.01-2.317 0-4.19-.74-5.62-2.224-1.428-1.48-2.142-3.617-2.142-6.406m2.87.01c0 2.11.465 3.695 1.392 4.746.927 1.05 2.094 1.576 3.5 1.576 1.396 0 2.556-.527 3.484-1.584.927-1.057 1.39-2.668 1.39-4.832 0-2.043-.465-3.59-1.398-4.64-.93-1.05-2.09-1.577-3.476-1.577-1.406 0-2.573.523-3.5 1.57-.927 1.046-1.39 2.625-1.39 4.74M154.866 123.45v-16.56h2.52v2.538c.647-1.176 1.242-1.954 1.79-2.327.544-.372 1.145-.56 1.802-.56.947 0 1.91.298 2.887.888l-1 2.59c-.683-.385-1.363-.575-2.044-.575-.608 0-1.154.184-1.64.55-.485.37-.832.882-1.04 1.536-.31.995-.465 2.083-.465 3.267v8.652h-2.81zM176.857 118.088l2.904.383c-.454 1.69-1.3 3-2.533 3.93-1.233.934-2.808 1.4-4.726 1.4-2.414 0-4.33-.743-5.746-2.23-1.413-1.488-2.12-3.574-2.12-6.26 0-2.777.714-4.933 2.145-6.468 1.43-1.533 3.285-2.303 5.565-2.303 2.207 0 4.012.753 5.41 2.255 1.4 1.504 2.1 3.617 2.1 6.346 0 .167-.004.417-.016.747h-12.336c.105 1.816.62 3.205 1.54 4.17.924.963 2.076 1.445 3.456 1.445 1.027 0 1.903-.27 2.63-.812.726-.543 1.302-1.41 1.727-2.602m-9.192-4.498h9.222c-.124-1.393-.476-2.436-1.057-3.13-.892-1.083-2.048-1.624-3.468-1.624-1.285 0-2.366.434-3.243 1.295-.877.862-1.363 2.017-1.455 3.46M198.27 120.945l.383 2.48c-.786.166-1.492.25-2.112.25-1.016 0-1.803-.164-2.362-.486-.56-.325-.953-.75-1.18-1.274-.23-.528-.343-1.63-.343-3.317v-9.54h-2.075v-2.17h2.075v-4.095l2.806-1.684v5.78h2.81v2.17h-2.81v9.7c0 .802.052 1.318.15 1.548.097.227.258.41.48.545.222.137.54.203.954.203.31 0 .72-.037 1.226-.11M201.023 123.45v-22.845h2.81v8.22c1.3-1.522 2.946-2.286 4.932-2.286 1.22 0 2.28.24 3.18.725.9.48 1.545 1.15 1.932 1.998.386.852.583 2.088.583 3.707v10.48h-2.81v-10.472c0-1.398-.303-2.42-.905-3.058-.605-.637-1.46-.955-2.562-.955-.826 0-1.603.214-2.33.644-.728.43-1.247 1.013-1.557 1.75-.31.737-.464 1.755-.464 3.05v9.04h-2.81zM229.61 121.377c-1.046.885-2.05 1.51-3.01 1.875-.963.365-1.997.547-3.1.547-1.822 0-3.222-.444-4.2-1.33-.976-.884-1.466-2.017-1.466-3.394 0-.808.186-1.547.555-2.215.368-.667.85-1.204 1.45-1.606.6-.404 1.272-.71 2.023-.918.552-.145 1.38-.285 2.497-.42 2.268-.27 3.94-.592 5.012-.963.01-.383.012-.627.012-.73 0-1.14-.264-1.94-.794-2.407-.72-.632-1.79-.947-3.205-.947-1.322 0-2.3.232-2.93.694-.63.465-1.095 1.286-1.4 2.463l-2.742-.382c.25-1.178.662-2.125 1.235-2.85.572-.723 1.4-1.277 2.485-1.67 1.086-.39 2.34-.586 3.77-.586 1.414 0 2.566.167 3.452.5.885.33 1.54.753 1.954 1.257.416.506.71 1.14.876 1.912.093.48.138 1.34.138 2.58v3.722c0 2.597.062 4.244.174 4.937.117.695.348 1.36.69 2h-2.935c-.282-.59-.464-1.284-.542-2.073zm-.226-6.225c-1.02.416-2.552.766-4.593 1.057-1.16.163-1.976.35-2.455.554-.48.21-.85.51-1.11.908-.26.396-.39.838-.39 1.324 0 .742.282 1.363.85 1.86.565.494 1.397.744 2.488.744 1.082 0 2.046-.237 2.888-.705.844-.47 1.463-1.112 1.858-1.928.3-.63.454-1.56.454-2.79l.012-1.025zM236.56 123.45v-16.56h2.52v2.352c1.214-1.8 2.968-2.703 5.26-2.703 1 0 1.916.18 2.75.536.836.36 1.46.83 1.876 1.41.417.58.708 1.272.873 2.07.104.52.156 1.426.156 2.725v10.17h-2.81v-10.062c0-1.142-.108-1.996-.326-2.562-.217-.566-.604-1.02-1.16-1.356-.55-.335-1.203-.505-1.95-.505-1.19 0-2.218.38-3.085 1.138-.866.754-1.295 2.196-1.295 4.31v9.036h-2.81zM273.992 121.377c-1.042.885-2.045 1.51-3.01 1.875-.962.365-1.995.547-3.097.547-1.823 0-3.22-.444-4.198-1.33-.98-.884-1.467-2.017-1.467-3.394 0-.808.18-1.547.55-2.215.372-.667.856-1.204 1.453-1.606.6-.404 1.273-.71 2.022-.918.552-.145 1.385-.285 2.497-.42 2.27-.27 3.94-.592 5.01-.963.012-.383.018-.627.018-.73 0-1.14-.264-1.94-.797-2.407-.718-.632-1.787-.947-3.202-.947-1.324 0-2.3.232-2.93.694-.63.465-1.097 1.286-1.4 2.463l-2.743-.382c.25-1.178.66-2.125 1.233-2.85.574-.723 1.403-1.277 2.49-1.67 1.08-.39 2.337-.586 3.763-.586 1.42 0 2.572.167 3.457.5.886.33 1.538.753 1.955 1.257.417.506.708 1.14.875 1.912.092.48.14 1.34.14 2.58v3.722c0 2.597.057 4.244.174 4.937.115.695.346 1.36.687 2h-2.935c-.28-.59-.46-1.284-.543-2.073zm-.222-6.225c-1.022.416-2.553.766-4.598 1.057-1.156.163-1.974.35-2.453.554-.48.21-.85.51-1.112.908-.26.396-.39.838-.39 1.324 0 .742.284 1.363.85 1.86.568.494 1.397.744 2.49.744 1.082 0 2.042-.237 2.885-.705.842-.47 1.463-1.112 1.86-1.928.3-.63.45-1.56.45-2.79l.017-1.025zM292.772 123.45l-5.005-16.56h2.933l2.642 9.555.94 3.56c.038-.18.325-1.316.857-3.413l2.62-9.702h2.874l2.496 9.614.813 3.156.954-3.195 2.863-9.575h2.728l-5.2 16.56h-2.9l-2.63-9.907-.666-2.832-3.347 12.74h-2.974zM312.854 103.796h2.81v-3.19h-2.81v3.19zm0 19.654h2.81v-16.56h-2.81v16.56zM319.963 123.45v-16.56h2.52v2.352c1.214-1.8 2.97-2.703 5.262-2.703.996 0 1.913.18 2.75.536.832.36 1.458.83 1.875 1.41.414.58.703 1.272.872 2.07.103.52.155 1.426.155 2.725v10.17h-2.808v-10.062c0-1.142-.11-1.996-.328-2.562-.218-.566-.602-1.02-1.157-1.356-.557-.335-1.205-.505-1.95-.505-1.193 0-2.222.38-3.088 1.138-.865.754-1.298 2.196-1.298 4.31v9.036h-2.807zM348.42 123.45v-2.103c-1.05 1.635-2.593 2.452-4.625 2.452-1.32 0-2.53-.363-3.637-1.087-1.107-.727-1.965-1.74-2.57-3.04-.608-1.302-.91-2.798-.91-4.488 0-1.648.273-3.144.825-4.486.55-1.343 1.374-2.374 2.475-3.09 1.098-.712 2.328-1.07 3.687-1.07 1 0 1.885.21 2.664.634.778.42 1.41.97 1.9 1.648v-8.217h2.806v22.844h-2.616zm-8.872-8.255c0 2.11.447 3.693 1.344 4.738.897 1.047 1.952 1.57 3.173 1.57 1.226 0 2.27-.5 3.13-1.5.86-.997 1.29-2.525 1.29-4.575 0-2.26-.438-3.918-1.313-4.973-.875-1.06-1.952-1.586-3.233-1.586-1.252 0-2.294.507-3.135 1.52-.838 1.018-1.257 2.618-1.257 4.805zM354.443 115.17c0-3.057.85-5.324 2.558-6.795 1.422-1.223 3.158-1.836 5.208-1.836 2.275 0 4.133.745 5.58 2.232 1.44 1.488 2.165 3.54 2.165 6.164 0 2.127-.32 3.798-.958 5.015-.64 1.22-1.57 2.167-2.792 2.84-1.22.673-2.554 1.01-3.995 1.01-2.32 0-4.192-.74-5.62-2.224-1.43-1.48-2.145-3.617-2.145-6.406m2.872.01c0 2.11.463 3.695 1.392 4.746.925 1.05 2.093 1.576 3.5 1.576 1.394 0 2.556-.527 3.483-1.584s1.39-2.668 1.39-4.832c0-2.043-.465-3.59-1.4-4.64-.93-1.05-2.09-1.577-3.472-1.577-1.408 0-2.576.523-3.5 1.57-.93 1.046-1.393 2.625-1.393 4.74M376.245 123.45l-5.007-16.56h2.934l2.644 9.555.938 3.56c.04-.18.326-1.316.857-3.413l2.622-9.702h2.875l2.497 9.614.812 3.156.95-3.195 2.865-9.575h2.73l-5.197 16.56h-2.902l-2.63-9.907-.665-2.832-3.347 12.74h-2.973z"/></g></svg>