<svg width="672" height="260" viewBox="0 0 672 260" xmlns="http://www.w3.org/2000/svg"><title>Antena 1</title><path d="M167.564 111.235v43.532h-9.128v-43.532h-22.338v-6.01h53.81v6.01h-22.344zm-43.802 43.532V120c0-6.528-7.925-8.947-16.373-8.947-8.605 0-16.02 2.337-16.02 9.148v34.567h-9.21v-34.42c0-11.84 12.612-15.814 25.41-15.814 12.527 0 25.41 4.038 25.41 15.605v34.63h-9.218zm164.95 0V120c0-6.528-7.925-8.947-16.373-8.947-8.605 0-16.02 2.337-16.02 9.148v34.567h-9.217v-34.42c0-11.84 12.612-15.814 25.41-15.814 12.534 0 25.416 4.038 25.416 15.605v34.63h-9.218zm-76.24 0c-12.438 0-19.343-4.92-19.343-15.187v-19.097c0-10.04 6.62-15.26 19.25-15.26h27.525v6.012h-25.938c-8.424 0-11.62 3.692-11.62 9.92v5.84h29.465v6.01h-29.466v5.802c0 6.148 3.534 9.95 12.06 9.95h25.5v6.01H212.47zM64.163 120c0-6.528-7.93-9.02-16.373-9.02-8.597 0-16.018 2.41-16.018 9.22v11.95h32.392V120zm0 34.767v-16.614H31.772v16.614H23V120.42c0-11.913 12.335-15.887 25.145-15.887 12.535 0 25.236 4.11 25.236 15.532v34.702h-9.216zm283.46 0v-16.614h-32.39v16.614h-8.78V120.42c0-11.913 12.343-15.887 25.146-15.887 12.535 0 25.236 4.11 25.236 15.532v34.702h-9.21zm0-34.766c0-6.528-7.93-9.02-16.372-9.02-8.604 0-16.018 2.41-16.018 9.22v11.95h32.39V120zm217.65 27.7h70.63c2.007 0 3.642 1.574 3.642 3.53 0 1.955-1.635 3.537-3.64 3.537h-70.63c-2.014 0-3.65-1.582-3.65-3.538 0-1.956 1.636-3.53 3.65-3.53zm-10.58-10.666h91.665c2.006 0 3.64 1.573 3.64 3.538 0 1.946-1.634 3.528-3.64 3.528h-91.666c-2.012 0-3.64-1.582-3.64-3.528 0-1.965 1.628-3.538 3.64-3.538zm0-10.685h91.665c2.006 0 3.64 1.58 3.64 3.536 0 1.946-1.634 3.53-3.64 3.53h-91.666c-2.012 0-3.64-1.584-3.64-3.53 0-1.955 1.628-3.537 3.64-3.537zm0-10.532h91.665c2.006 0 3.64 1.583 3.64 3.53 0 1.954-1.634 3.536-3.64 3.536h-91.666c-2.012 0-3.64-1.582-3.64-3.537 0-1.946 1.628-3.53 3.64-3.53zm10.58-10.594h70.63c2.007 0 3.642 1.59 3.642 3.547 0 1.947-1.635 3.53-3.64 3.53h-70.63c-2.014 0-3.65-1.583-3.65-3.53 0-1.955 1.636-3.546 3.65-3.546zM469.393 90.22v80.243c0 1.682-.114 1.682-2.055 1.682h-22.25c-1.826 0-2.054-.364-2.054-1.682v-49.88l-9.77 3.256c-1.604.608-1.904.645-1.94-1.165v-17.46c0-1.264.113-1.82 1.376-2.374 0 0 30.786-12.812 34.637-14.294 2.055-.846 2.055-.964 2.055 1.673zm-87.32 39.775c0-39.758 32.18-71.995 71.872-71.995s71.873 32.237 71.873 71.995c0 39.777-32.18 72.005-71.873 72.005-39.692 0-71.872-32.228-71.872-72.005z" fill="#000" fill-rule="evenodd"/></svg>