<svg width="400" height="136" viewBox="0 0 400 136" xmlns="http://www.w3.org/2000/svg"><title>Canal 180</title><g fill="#000" fill-rule="evenodd"><path d="M0 .13h20.468V136H0V.13zM39.734.13h98.435v62.036H39.733V.13zM39.734 73.968h98.435V136H39.733V73.968zM155.33.13h87.595V136H155.33V.13zM326.604 40.905h-6.775l6.774-9.858v9.858zm-11.05 6.222l2.9-4.227h8.15v7.554h2.205v-22.2h-2.802l-11.752 17.072-2.342-3.194c1.368-.235 2.41-.564 3.174-1.03 1.998-1.197 3.27-3.395 3.27-5.626 0-2.365-.905-4.262-2.702-5.626-1.4-1.064-3.51-1.596-6.318-1.596h-5.7v22.2h2.2v-20.24h3.737c2.173 0 3.742.4 4.713 1.23 1.265 1.034 1.87 2.434 1.77 4.132-.102 1.966-1.104 3.3-3.01 3.994-.902.335-2.637.535-5.203.57l5.137 7.02-2.24 3.294h2.54l1.006-1.497 1.1 1.497h2.598l-2.433-3.327zm-18.364 3.327v-20.24h5.64v-1.96h-7.84v22.2h2.2zm-18.73-22.2v13.478c0 2.4.372 4.23 1.1 5.497 1.302 2.228 3.806 3.69 6.314 3.69 1.972 0 4.172-.996 5.51-2.46 1.295-1.43 1.93-3.63 1.93-6.66V28.255h-7.878v1.96h5.647v11.053c0 2.197-.2 3.73-.604 4.562-.796 1.633-2.7 2.8-4.606 2.8-1.708 0-3.076-.67-4.046-2.036-.764-1.063-1.162-2.864-1.162-5.392V28.254h-2.205zm-4.085 11.307c0 5.14-4.297 9.303-9.425 9.303-5.03 0-9.385-4.162-9.385-9.212 0-5.166 4.176-9.45 9.385-9.45 5.155 0 9.425 4.226 9.425 9.36zm2.186-.028c0-6.32-5.328-11.305-11.61-11.305-6.367 0-11.576 5.044-11.576 11.424 0 6.23 5.446 11.186 11.576 11.186 6.25 0 11.61-4.982 11.61-11.304zM257.344 18.188v-1.496h-.996v-.996h-1.503V3.246h1.503V2.25h.996V.75h7.49V2.25h1v1h1.5v2.486h-2.5V3.247h-7.49v12.45h7.49v-2.49h2.5v2.49h-1.5v.995h-1v1.496h-7.49M282.32 3.247v14.94h-2.495v-7.47h-7.494v7.47h-2.498V3.248h1.498v-1h1V.752h7.495V2.25h1.002v1h1.493zm-9.99 4.98h7.495v-4.98h-7.494v4.98zM294.812 18.188v-2.492h-2.5V12.71h-1.998v-1.994h-.5V6.733h-.998v-1h-1.502V18.19h-2.495V.75h2.494v2.497h2.5v2.985h1.998v1.994h.5v3.984h1.002v.996h1.498V.75h2.5V18.19h-2.5M312.294 3.247v14.94H309.8v-7.47h-7.495v7.47h-2.5V3.248h1.5v-1h1V.752h7.494V2.25h1.005v1h1.49zm-9.99 4.98h7.495v-4.98h-7.495v4.98zM314.793.75h2.498v14.946h7.497v2.492h-9.994V.75M329.786 18.188V3.248h-2.506V.75h5V18.19h-2.494M337.272 18.188v-1.496h-.996v-.996h-1.5v-4.98h2.496V9.223h-.996v-.997h-1.5v-4.98h1.5V2.25h.996V.75h7.5V2.25h.998v1h1.497v4.978h-1.497v.997h-1v1.493h2.497v4.98h-1.497v.996h-1v1.496h-7.498zm0-9.962h7.5v-4.98h-7.5v4.98zm0 7.47h7.5v-4.96h-7.5v4.96zM351.267 15.696h-1.5V3.246h1.5V2.25h.993V.75h7.493V2.25h1.002v1h1.497v12.448h-1.497v.996h-1.002v1.496h-7.493v-1.496h-.993v-.996zm.993 0h7.493V3.246h-7.493v12.45zM367.248 15.696h2.5v2.492h-2.5v-2.492zM372.24.75h9.993V2.25h1.003v1h1.497v4.978h-1.497v.997h-1.003v1.49h-7.49v7.475h-2.502V.75zm2.504 7.476h7.49v-4.98h-7.49v4.98zM387.232.75h12.49v2.497h-4.994v14.94h-2.5V3.248h-4.996V.75M303.14 74.44h2.706l15.474-21.98h-2.582l-13.42 19.05V52.46h-2.177v21.98zm-1.175-.09v-1.97h-9.796v-8.064h9.47v-1.97h-9.47v-7.86h9.795v-1.972h-11.982V74.35h11.982zm-13.225 0v-1.97h-9.058V52.515h-2.186V74.35h11.244zm-12.77 0v-1.97h-9.8v-8.064h9.48v-1.97h-9.48v-7.86h9.8v-1.972h-11.99V74.35h11.99zm-14.083-19.863v-1.973h-7.203v1.973h5.03V74.35h2.19V54.488h-.017zM373.39 62.45c0 5.14-4.286 9.305-9.412 9.305-5.034 0-9.39-4.164-9.39-9.217 0-5.165 4.175-9.447 9.39-9.447 5.16 0 9.41 4.22 9.41 9.36zm2.194-.028c0-6.32-5.33-11.306-11.606-11.306-6.367 0-11.578 5.044-11.578 11.422 0 6.232 5.446 11.19 11.578 11.19 6.246 0 11.606-4.985 11.606-11.306zm-36.93 5.927c0-3.396-2.216-5.373-5.36-6.32-2.22-.68-5.212-1.18-5.212-4.102 0-2.218 1.777-3.814 3.97-3.814 2.162 0 3.88 1.83 3.88 3.96h2.19c0-3.396-2.696-5.932-6.07-5.932-3.38 0-6.152 2.418-6.152 5.87 0 3.78 2.566 4.847 5.678 5.76 2.4.71 4.89 1.712 4.89 4.666 0 2.452-1.987 4.34-4.417 4.34-2.753 0-4.44-1.83-4.56-4.52h-2.19c.058 3.93 2.874 6.495 6.75 6.495 3.614 0 6.605-2.774 6.605-6.404zm-16.668 6.024h2.188v-21.85h-2.188v21.85z"/><path d="M348.457 65.08l-7.087-9.985v9.986h7.087zm1.36 1.963h-8.447v7.424h-2.195v-22.2h2.83l15.63 22.2h-2.57l-5.247-7.424zM354.674 53.292l-1.025-1.378c-.568.335-1.098.73-1.774.73-1.307 0-2.376-1.153-4.016-1.153-1.126 0-2.115.422-2.937 1.18l.993 1.406c.504-.48 1.18-.844 1.88-.844 1.308.002 2.412 1.157 4.106 1.157.96 0 1.998-.534 2.772-1.098"/></g></svg>