<svg width="578" height="160" viewBox="0 0 578 160" xmlns="http://www.w3.org/2000/svg"><title>Group</title><g fill="#000" fill-rule="evenodd"><path d="M25.495 123.63c-3.24 0-7.234-.645-9.927-1.29V99.994c2.268-1.94 6.367-4.1 9.927-4.1 4.11 0 5.613 2.27 5.613 5.94V117.7c0 3.45-1.503 5.93-5.613 5.93m4.532-41.223c-5.72 0-12.52 2.91-16.188 5.286L12.22 83.48H.022v75.988l15.546-2.158v-21.693c3.56.86 9.064 1.503 13.38 1.503 12.305 0 17.7-7.01 17.7-19.42v-15.868c0-12.847-5.933-19.425-16.62-19.425M77.955 124.066c-5.613 0-8.2-2.806-8.2-7.772V103.24c0-4.965 2.587-7.775 8.2-7.775 5.613 0 8.205 2.81 8.205 7.776v13.054c0 4.966-2.592 7.772-8.205 7.772m0-41.66c-18.675 0-23.746 10.467-23.746 21.26v12.19c0 10.8 5.07 21.264 23.745 21.264 18.67 0 23.746-10.465 23.746-21.263v-12.19c0-10.794-5.074-21.26-23.745-21.26M140.127 82.407c-4.208.863-10.902 3.99-14.138 6.148l-1.08-5.074h-12.95v52.563h15.54v-32.056c3.345-2.37 9.278-5.07 13.923-6.902l-1.296-14.678M166.46 68.702l-15.535 2.154V83.48h-7.12V96h7.12v27.63c0 9.715 5.824 13.49 15.86 13.49 3.568 0 7.776-.75 11.23-1.944l-1.838-11.75c-2.27.75-4.747.96-6.476.96-1.94 0-3.24-.757-3.24-2.908V96h11.12l.86-12.52h-11.98V68.703M208.023 124.066c-5.614 0-8.206-2.806-8.206-7.772V103.24c0-4.965 2.592-7.775 8.206-7.775 5.605 0 8.2 2.81 8.2 7.776v13.054c0 4.966-2.595 7.772-8.2 7.772m0-41.66c-18.675 0-23.75 10.467-23.75 21.26v12.19c0 10.8 5.075 21.264 23.75 21.264 18.67 0 23.74-10.465 23.74-21.263v-12.19c0-10.794-5.07-21.26-23.74-21.26M318.964 82.407c-6.043 0-14.463 1.94-20.935 5.075l-1.618-4h-11.554v52.56h15.54v-34.75c3.35-1.838 8.525-3.778 11.336-3.778 2.697 0 3.77 1.402 3.77 3.78v34.75h15.553V99.235c0-10.134-3.135-16.83-12.093-16.83M364.514 124.066c-5.613 0-8.197-2.806-8.197-7.772V103.24c0-4.965 2.584-7.775 8.197-7.775 5.614 0 8.202 2.81 8.202 7.776v13.054c0 4.966-2.588 7.772-8.202 7.772m0-41.66c-18.67 0-23.745 10.467-23.745 21.26v12.19c0 10.8 5.074 21.264 23.744 21.264 18.668 0 23.746-10.465 23.746-21.263v-12.19c0-10.794-5.078-21.26-23.746-21.26M426.687 82.407c-4.208.863-10.903 3.99-14.14 6.148l-1.076-5.074h-12.955v52.563h15.544v-32.056c3.352-2.37 9.278-5.07 13.923-6.902l-1.296-14.678M453.02 68.702l-15.54 2.154V83.48h-7.123V96h7.124v27.63c0 9.715 5.83 13.49 15.87 13.49 3.563 0 7.767-.75 11.226-1.944l-1.84-11.75c-2.267.75-4.75.96-6.47.96-1.945 0-3.245-.757-3.245-2.908V96h11.118l.867-12.52H453.02V68.703M486.373 103.557v-2.264c0-3.67 1.73-6.695 7.128-6.695 5.396 0 6.473 3.025 6.473 6.695v2.264h-13.6zm7.01-21.15c-17.476 0-22.55 9.705-22.55 21.048v12.3c0 12.95 6.476 21.365 23.523 21.365 7.347 0 15.01-1.608 19.76-3.34l-2.268-11.66c-4.645 1.408-11.117 2.267-15.973 2.267-7.125 0-9.502-1.61-9.502-7.663v-1.514h28.274v-11.005c0-11.438-3.77-21.798-21.263-21.798zM525.553 72.343l-6.74-.02.012-2.612 16.385.06-.01 2.61-6.738-.022-.077 19.936-2.907-.008.075-19.943M538.423 69.784l13.27.05-.01 2.6-10.363-.026-.026 7.075 9.612.03-.007 2.602-9.616-.03-.03 7.65 10.398.043-.01 2.603-13.303-.042.083-22.554M559.25 74.13l-.498 18.273-2.82-.007.86-22.54 3.693.008 6.44 17.456 6.564-17.413 3.686.015.69 22.553-2.806-.007-.37-18.285-5.814 15.348-3.926-.01-5.7-15.39M245.01 116.592v-6.438h31.767v-9.92c0-10.555-4.222-18.68-18.68-18.68-14.46 0-19.21 8.125-19.21 18.68v16.147c0 11.188 4.645 18.68 19.104 18.68 6.228 0 12.982-1.16 17.732-2.848l-1.056-4.96c-5.066 1.37-10.976 2.427-16.253 2.427-10.237 0-13.403-3.906-13.403-13.088zm0-16.57c0-8.654 3.482-13.192 13.086-13.192 9.605 0 12.665 4.538 12.665 13.192v4.644h-25.75v-4.644zM9.894.34H.024v2.395h3.592v11.358H6.3V2.735h3.594V.34zm12.09 0H19.32v8.943c0 .786-.216 1.404-.647 1.854-.432.45-1.015.676-1.75.676-.733 0-1.312-.225-1.737-.676-.425-.45-.637-1.068-.637-1.854V.34h-2.686v9.04c0 1.43.483 2.59 1.448 3.486.966.895 2.17 1.342 3.612 1.342 1.443 0 2.647-.447 3.612-1.342.966-.895 1.45-2.057 1.45-3.486V.34zM32.32 8.163c.72-.258 1.306-.676 1.757-1.256.502-.657.753-1.442.753-2.356 0-1.197-.393-2.188-1.178-2.974C32.828.752 31.732.34 30.368.34h-5.39v13.753h2.686V8.607h1.932l2.684 5.486h3.11l-3.07-5.93zm-.716-2.315c-.36.333-.83.5-1.41.5h-2.53V2.734h2.53c.58 0 1.05.167 1.41.5.36.333.54.768.54 1.306 0 .54-.18.975-.54 1.308zm6.007 8.245h2.686V.34H37.61v13.753zM51.346 7.12c-.58-.54-1.456-.895-2.627-1.063l-1.623-.23c-.54-.08-.956-.253-1.246-.523-.29-.27-.435-.605-.435-1.004 0-.503.183-.918.55-1.246.367-.33.892-.493 1.574-.493 1.223 0 2.163.317 2.82.948l1.7-1.68C50.95.757 49.47.223 47.616.223c-1.468 0-2.634.383-3.496 1.15-.862.766-1.294 1.773-1.294 3.022 0 2.228 1.217 3.51 3.65 3.844l1.662.232c.554.077.966.24 1.236.492.27.25.406.635.406 1.15 0 1.133-.81 1.7-2.434 1.7-1.442 0-2.55-.387-3.322-1.16l-1.738 1.74c1.197 1.21 2.87 1.814 5.022 1.814 1.48 0 2.7-.37 3.66-1.11.96-.74 1.44-1.76 1.44-3.062 0-1.274-.355-2.247-1.063-2.916zM67.375.34h-2.684l-3.558 7.436L57.552.34H54.92v13.753h2.685V6.077l2.646 5.215h1.814l2.627-5.215v8.016h2.686V.34zm12.73 3.766c-.167-.952-.567-1.744-1.198-2.375C77.903.727 76.667.225 75.2.225c-1.482 0-2.725.502-3.73 1.507-.617.62-1.016 1.41-1.197 2.376-.103.567-.154 1.604-.154 3.11 0 1.507.05 2.544.153 3.11.18.966.58 1.758 1.198 2.376 1.005 1.004 2.248 1.506 3.73 1.506 1.467 0 2.703-.502 3.707-1.506.63-.63 1.03-1.423 1.198-2.376.116-.58.174-1.616.174-3.11 0-1.493-.06-2.53-.175-3.11zm-3.033 6.78c-.45.618-1.075.927-1.873.927-.722 0-1.302-.244-1.74-.734-.335-.387-.54-1.005-.618-1.855-.026-.232-.038-.9-.038-2.01 0-1.106.012-1.776.038-2.008.078-.85.283-1.468.618-1.854.438-.49 1.018-.734 1.74-.734.707 0 1.28.244 1.718.733.348.386.56 1.005.637 1.854.026.284.04.954.04 2.01 0 1.97-.175 3.193-.523 3.67zm20.3-6.683c-.166-1.017-.59-1.867-1.274-2.55C95.222.778 94.012.34 92.468.34h-4.965v13.753h4.964c1.545 0 2.755-.438 3.63-1.314.684-.683 1.11-1.552 1.276-2.608.077-.477.116-1.48.116-3.014 0-1.506-.04-2.49-.117-2.955zm-2.665 5.35c-.077.567-.238 1-.482 1.295-.464.566-1.134.85-2.01.85H90.19V2.734h2.028c.875 0 1.545.283 2.01.85.243.296.404.708.48 1.236.066.452.098 1.23.098 2.338 0 1.12-.032 1.92-.097 2.395zm15.047-5.447c-.167-.952-.567-1.744-1.197-2.375-1.005-1.004-2.24-1.506-3.71-1.506-1.48 0-2.722.502-3.727 1.507-.618.62-1.017 1.41-1.197 2.376-.104.567-.155 1.604-.155 3.11 0 1.507.05 2.544.155 3.11.18.966.58 1.758 1.197 2.376 1.005 1.004 2.247 1.506 3.728 1.506 1.468 0 2.704-.502 3.71-1.506.63-.63 1.03-1.423 1.196-2.376.116-.58.174-1.616.174-3.11 0-1.493-.058-2.53-.174-3.11zm-3.032 6.78c-.45.618-1.076.927-1.874.927-.72 0-1.3-.244-1.738-.734-.335-.387-.54-1.005-.618-1.855-.026-.232-.04-.9-.04-2.01 0-1.106.014-1.776.04-2.008.077-.85.283-1.468.618-1.854.437-.49 1.017-.734 1.738-.734.708 0 1.28.244 1.72.733.347.386.56 1.005.637 1.854.025.284.038.954.038 2.01 0 1.97-.174 3.193-.52 3.67zm19.103-9.27c-.85-.85-1.964-1.276-3.342-1.276h-5.33v13.753h2.684V8.916h2.646c1.378 0 2.492-.425 3.342-1.275.798-.797 1.197-1.8 1.197-3.012 0-1.21-.4-2.215-1.197-3.013zm-2.028 4.374c-.36.34-.844.512-1.45.512h-2.51V2.735h2.51c.606 0 1.09.174 1.45.522.36.347.54.804.54 1.37 0 .568-.18 1.022-.54 1.363zm15.008-1.884c-.168-.952-.567-1.744-1.198-2.375-1.004-1.004-2.24-1.506-3.71-1.506-1.48 0-2.722.502-3.726 1.507-.618.62-1.017 1.41-1.197 2.376-.103.567-.155 1.604-.155 3.11 0 1.507.052 2.544.155 3.11.18.966.58 1.758 1.198 2.376 1.005 1.004 2.247 1.506 3.728 1.506 1.468 0 2.705-.502 3.71-1.506.63-.63 1.03-1.423 1.197-2.376.115-.58.173-1.616.173-3.11 0-1.493-.058-2.53-.173-3.11zm-3.033 6.78c-.45.618-1.075.927-1.874.927-.72 0-1.3-.244-1.738-.734-.335-.387-.54-1.005-.618-1.855-.026-.232-.04-.9-.04-2.01 0-1.106.014-1.776.04-2.008.077-.85.283-1.468.618-1.854.438-.49 1.017-.734 1.738-.734.708 0 1.282.244 1.72.733.347.386.56 1.005.637 1.854.026.284.04.954.04 2.01 0 1.97-.175 3.193-.523 3.67zm13.29-2.723c.72-.258 1.306-.676 1.757-1.256.5-.657.752-1.442.752-2.356 0-1.197-.393-2.188-1.178-2.974C149.57.752 148.474.34 147.11.34h-5.39v13.753h2.686V8.607h1.932l2.684 5.486h3.11l-3.07-5.93zm-.716-2.315c-.36.333-.83.5-1.41.5h-2.53V2.734h2.53c.58 0 1.05.167 1.41.5.36.333.54.768.54 1.306 0 .54-.18.975-.54 1.308zM163.2.34h-9.87v2.395h3.592v11.358h2.685V2.735h3.593V.34zm11.705 3.766c-.167-.952-.567-1.744-1.197-2.375-1.005-1.004-2.24-1.506-3.71-1.506-1.48 0-2.722.502-3.727 1.507-.617.62-1.016 1.41-1.196 2.376-.104.567-.155 1.604-.155 3.11 0 1.507.05 2.544.154 3.11.18.966.58 1.758 1.197 2.376 1.006 1.004 2.248 1.506 3.73 1.506 1.467 0 2.703-.502 3.708-1.506.63-.63 1.03-1.423 1.197-2.376.116-.58.174-1.616.174-3.11 0-1.493-.06-2.53-.175-3.11zm-3.032 6.78c-.45.618-1.076.927-1.874.927-.722 0-1.302-.244-1.74-.734-.334-.387-.54-1.005-.617-1.855-.026-.232-.04-.9-.04-2.01 0-1.106.014-1.776.04-2.008.077-.85.283-1.468.618-1.854.438-.49 1.018-.734 1.74-.734.707 0 1.28.244 1.718.733.348.386.56 1.005.638 1.854.025.284.038.954.038 2.01 0 1.97-.174 3.193-.52 3.67zm19.49.81h-6.375v-3.34h5.427V5.96h-5.427V2.736h6.374V.34h-9.06v13.753h9.06v-2.396zM208.996.34h-2.685v8.422L200.865.34h-2.395v13.753h2.685v-8.44l5.447 8.44h2.395V.34zm12.73 3.766c-.17-.952-.568-1.744-1.2-2.375-1.003-1.004-2.24-1.506-3.707-1.506-1.48 0-2.724.502-3.728 1.507-.618.62-1.018 1.41-1.198 2.376-.103.567-.154 1.604-.154 3.11 0 1.507.05 2.544.154 3.11.18.966.58 1.758 1.198 2.376 1.004 1.004 2.247 1.506 3.728 1.506 1.468 0 2.704-.502 3.708-1.506.63-.63 1.03-1.423 1.198-2.376.116-.58.174-1.616.174-3.11 0-1.493-.058-2.53-.174-3.11zm-3.034 6.78c-.45.618-1.075.927-1.873.927-.722 0-1.3-.244-1.74-.734-.334-.387-.54-1.005-.617-1.855-.026-.232-.038-.9-.038-2.01 0-1.106.012-1.776.038-2.008.077-.85.283-1.468.618-1.854.44-.49 1.018-.734 1.74-.734.708 0 1.28.244 1.72.733.346.386.56 1.005.636 1.854.026.284.04.954.04 2.01 0 1.97-.175 3.193-.523 3.67zm13.29-2.723c.72-.258 1.306-.676 1.757-1.256.502-.657.753-1.442.753-2.356 0-1.197-.393-2.188-1.178-2.974C232.49.752 231.395.34 230.03.34h-5.388v13.753h2.685V8.607h1.932l2.684 5.486h3.11l-3.072-5.93zm-.715-2.315c-.36.333-.83.5-1.41.5h-2.53V2.734h2.53c.58 0 1.05.167 1.41.5.36.333.54.768.54 1.306 0 .54-.18.975-.54 1.308zM246.12.34h-9.87v2.395h3.594v11.358h2.685V2.735h3.59V.34zm11.243 11.357h-6.374v-3.34h5.426V5.96h-5.427V2.736h6.373V.34h-9.06v13.753h9.06v-2.396zm16.978-7.494c-.166-1.017-.59-1.867-1.274-2.55C272.19.778 270.98.34 269.436.34h-4.965v13.753h4.965c1.545 0 2.755-.438 3.63-1.314.684-.683 1.11-1.552 1.276-2.608.078-.477.117-1.48.117-3.014 0-1.506-.04-2.49-.116-2.955zm-2.664 5.35c-.078.567-.24 1-.483 1.295-.464.566-1.134.85-2.01.85h-2.027V2.734h2.028c.875 0 1.545.283 2.01.85.243.296.404.708.482 1.236.064.452.096 1.23.096 2.338 0 1.12-.032 1.92-.096 2.395zm14.583 2.144h-6.375v-3.34h5.427V5.96h-5.427V2.736h6.374V.34h-9.06v13.753h9.06v-2.396zm15.78-10.082c-.85-.85-1.964-1.275-3.342-1.275h-5.33v13.753h2.684V8.916h2.646c1.378 0 2.492-.425 3.34-1.275.8-.797 1.2-1.8 1.2-3.012 0-1.21-.4-2.215-1.2-3.013zm-2.03 4.375c-.36.34-.842.512-1.447.512h-2.51V2.735h2.51c.605 0 1.088.174 1.448.522.362.347.542.804.542 1.37 0 .568-.18 1.022-.54 1.363zm15.01-1.884c-.168-.952-.567-1.744-1.198-2.375-1.005-1.004-2.24-1.506-3.71-1.506-1.48 0-2.722.502-3.727 1.507-.618.62-1.017 1.41-1.197 2.376-.104.567-.155 1.604-.155 3.11 0 1.507.05 2.544.155 3.11.18.966.58 1.758 1.197 2.376 1.005 1.004 2.247 1.506 3.728 1.506 1.468 0 2.704-.502 3.71-1.506.63-.63 1.03-1.423 1.196-2.376.115-.58.173-1.616.173-3.11 0-1.493-.058-2.53-.174-3.11zm-3.033 6.78c-.45.618-1.076.927-1.874.927-.72 0-1.3-.244-1.738-.734-.335-.387-.54-1.005-.618-1.855-.026-.232-.04-.9-.04-2.01 0-1.106.014-1.776.04-2.008.077-.85.283-1.468.618-1.854.437-.49 1.017-.734 1.738-.734.708 0 1.28.244 1.72.733.347.386.56 1.005.637 1.854.025.284.038.954.038 2.01 0 1.97-.174 3.193-.52 3.67zm13.29-2.723c.72-.258 1.306-.676 1.757-1.256.502-.657.753-1.442.753-2.356 0-1.197-.393-2.188-1.178-2.974-.826-.824-1.92-1.236-3.285-1.236h-5.39v13.753h2.686V8.607h1.932l2.685 5.486h3.11l-3.07-5.93zm-.716-2.315c-.36.333-.83.5-1.41.5h-2.53V2.734h2.53c.58 0 1.05.167 1.41.5.36.333.542.768.542 1.306 0 .54-.18.975-.54 1.308zM339.416.34h-9.87v2.395h3.592v11.358h2.685V2.735h3.593V.34zm12.09 0h-2.664v8.943c0 .786-.215 1.404-.646 1.854-.432.45-1.014.676-1.75.676-.732 0-1.312-.225-1.737-.676-.425-.45-.637-1.068-.637-1.854V.34h-2.685v9.04c0 1.43.483 2.59 1.448 3.486.966.895 2.17 1.342 3.612 1.342 1.443 0 2.647-.447 3.613-1.342.965-.895 1.448-2.057 1.448-3.486V.34zm12.788 6.084h-5.196v2.26h2.53v.522c0 .772-.206 1.384-.618 1.835-.464.516-1.102.773-1.913.773-.72 0-1.294-.238-1.72-.714-.334-.388-.54-1.012-.617-1.875-.026-.232-.04-.9-.04-2.01 0-1.106.014-1.776.04-2.008.077-.85.284-1.468.62-1.854.44-.49 1.013-.734 1.723-.734 1.33 0 2.156.67 2.48 2.008h2.71c-.206-1.262-.716-2.286-1.53-3.07-.94-.89-2.16-1.334-3.656-1.334-1.47 0-2.71.502-3.716 1.507-.618.62-1.018 1.41-1.2 2.376-.102.567-.153 1.604-.153 3.11 0 1.507.05 2.544.154 3.11.18.966.58 1.758 1.2 2.376 1.003 1.004 2.24 1.506 3.707 1.506 1.584 0 2.878-.522 3.883-1.568.875-.916 1.313-2.317 1.313-4.202V6.424zM372.618.34h-2.105l-5.003 13.753h2.8l.83-2.434h4.888l.81 2.433h2.802L372.618.34zm-2.723 9.06l1.738-5.004 1.68 5.003h-3.418zm18.368 2.297h-6.24V.34h-2.683v13.753h8.923v-2.396z"/></g></svg>