<svg width="440" height="260" viewBox="0 0 440 260" xmlns="http://www.w3.org/2000/svg"><title>REFER</title><path d="M238.86 95.805c-14.854 19.676-23.577 43.97-23.607 70.465v70.738h-23.597V30.885h23.597v57.49c6.69-10.05 14.634-19.202 23.606-27.23v-30.26h23.596v13.127C283.703 31.512 308.63 25 333.256 25v23.554c-26.416 0-50.853 8.744-70.558 23.478-.03.023-.136.106-.242.18v31.915l.09-.106c17.325-19.547 42.616-31.912 70.71-31.912v23.554c-38.956 0-70.74 31.694-70.8 70.563v70.783H238.86V95.805m-73.236-34.848v8.495h-58.73V52.537c0-7.024 1.625-12.395 4.868-16.1 3.265-3.696 7.974-5.552 14.127-5.552 4.79 0 8.782 1.554 12.01 4.64 3.204 3.108 4.927 7.106 5.17 11.988l22.554-16.628v10.637l-27.27 19.435h27.27zm-28.24 0v-4.353c0-5.862-.95-10.253-2.863-13.12-1.912-2.874-4.814-4.3-8.707-4.3-3.787 0-6.583 1.23-8.36 3.696-1.776 2.475-2.66 6.376-2.66 11.725v6.352h22.592zm28.24 18.884v30.443h-58.73V79.84h7.816v21.948h17.543V79.84h7.664v21.948h17.597V79.84h8.11m0 69.93h-58.73V120.9h7.816v20.468h17.543v-20.468h7.664v20.468h25.707v8.405m0 10.223v30.442h-58.73v-30.442h7.816v21.94h17.543v-21.94h7.664v21.94h17.597v-21.94h8.11m0 68.527v8.488h-58.73v-16.915c0-7.017 1.625-12.396 4.868-16.1 3.265-3.697 7.974-5.553 14.127-5.553 4.79 0 8.782 1.554 12.01 4.64 3.204 3.108 4.927 7.107 5.17 11.988l22.554-16.628v10.638l-27.27 19.442h27.27zm-28.24 0v-4.353c0-5.87-.95-10.253-2.863-13.128-1.912-2.875-4.814-4.3-8.707-4.3-3.787 0-6.583 1.236-8.36 3.696-1.776 2.467-2.66 6.383-2.66 11.724v6.36h22.592z" fill="#000" fill-rule="evenodd"/></svg>