<svg width="390" height="151" viewBox="0 0 390 151" xmlns="http://www.w3.org/2000/svg"><title>FAUP</title><g fill="#000" fill-rule="evenodd"><path d="M94.577 118.35v-9.374h-1.77v8.833c0 1.77-.13 2.266-.82 3.023-.714.797-1.75 1.23-2.98 1.23-1.234 0-2.27-.433-2.984-1.23-.69-.757-.82-1.254-.82-3.024v-8.834h-1.77v9.373c0 1.855.475 3 1.664 3.972 1.056.864 2.396 1.318 3.93 1.318 1.534 0 2.852-.454 3.91-1.318 1.188-.97 1.64-2.074 1.64-3.973M110.6 123.36v-14.384h-1.77v12.073c-.042-.087-.065-.173-.085-.217-.152-.412-.173-.433-.26-.648-.065-.13-.128-.26-.194-.345l-7.062-10.864h-2.31v14.254h1.772v-12.355c.086.282.13.388.215.54.02.088.087.175.173.325.107.215.216.388.28.496l7.192 11.123h2.05M115.307 123.23h1.772v-14.255h-1.773v14.254zM131.827 108.976h-1.772l-4.06 11.122c-.087.237-.13.432-.13.69-.023-.28-.066-.496-.152-.69l-4.212-11.122h-1.898l5.616 14.62h1.08l5.53-14.62M142.575 123.23v-1.492h-6.435v-5.032h5.162v-1.49h-5.162v-4.752h6.242v-1.49h-8.012v14.255h8.205M155.638 123.23l-4.21-6.372c1.056-.238 1.574-.497 2.16-1.08.797-.756 1.25-1.836 1.25-2.96 0-1.08-.432-2.116-1.122-2.785-.82-.8-1.64-1.058-3.37-1.058h-4.34v14.254h1.772v-6.113h1.9l3.93 6.112h2.03zm-2.7-10.39c0 1.837-.97 2.786-2.85 2.786h-2.31v-5.162h2.31c1.273 0 1.642.066 2.074.41.517.41.776 1.06.776 1.967zM166.63 109.926c-.796-.476-1.14-.65-1.726-.844-.733-.236-1.577-.345-2.396-.345-2.83 0-4.71 1.512-4.71 3.78 0 1.468.907 2.592 3.047 3.737 1.338.733 2.137 1.144 2.373 1.273.565.325.974.735 1.212 1.167.15.26.215.605.215 1.014 0 1.36-1.014 2.16-2.698 2.16-.737 0-1.427-.13-2.055-.368-.497-.193-.842-.388-1.64-.928l-.908 1.405c.93.626 1.298.842 1.836 1.057.755.304 1.665.476 2.638.476 2.87 0 4.684-1.533 4.684-3.975 0-1.036-.41-2.008-1.103-2.59-.518-.455-1.272-.93-2.245-1.448-2.893-1.534-3.52-2.072-3.52-3.132 0-1.21 1.1-2.008 2.72-2.008.562 0 1.428.13 1.966.302.455.15.757.3 1.492.732l.82-1.466M170.15 123.23h1.77v-14.255h-1.77v14.254zM188.548 116.04c0-4.105-3.004-7.064-7.17-7.064h-4.753v14.254h4.73c2.483 0 3.974-.584 5.27-2.074 1.233-1.403 1.923-3.26 1.923-5.117zm-1.858-.025c0 1.556-.71 3.328-1.75 4.428-.907.928-1.965 1.296-3.843 1.296h-2.7v-11.275h2.7c3.22 0 5.593 2.377 5.593 5.55zM202.307 123.23l-5.29-14.665h-1.903l-5.31 14.664h1.898l1.47-4.212h5.766l1.466 4.21h1.903zm-3.932-5.832h-4.642l2.33-6.523 2.312 6.523zM216.754 116.04c0-4.105-3.004-7.064-7.17-7.064h-4.753v14.254h4.73c2.484 0 3.975-.584 5.272-2.074 1.232-1.403 1.922-3.26 1.922-5.117zm-1.858-.025c0 1.556-.71 3.328-1.75 4.428-.905.928-1.965 1.296-3.843 1.296h-2.7v-11.275h2.7c3.22 0 5.593 2.377 5.593 5.55zM228.394 123.23v-1.492h-6.435v-5.032h5.16v-1.49h-5.16v-4.752h6.24v-1.49h-8.01v14.255h8.204M249.146 116.04c0-4.105-3-7.064-7.172-7.064h-4.75v14.254h4.73c2.484 0 3.973-.584 5.27-2.074 1.232-1.403 1.922-3.26 1.922-5.117zm-1.858-.025c0 1.556-.71 3.328-1.75 4.428-.905.928-1.964 1.296-3.843 1.296h-2.698v-11.275h2.698c3.217 0 5.593 2.377 5.593 5.55zM265.626 116.1c0-4.274-3.002-7.385-7.15-7.385-4.147 0-7.17 3.11-7.17 7.386 0 4.3 3.023 7.41 7.17 7.41 4.148 0 7.15-3.11 7.15-7.41zm-1.944 0c0 3.22-2.354 5.855-5.205 5.855-2.87 0-5.226-2.635-5.226-5.854 0-3.194 2.356-5.828 5.227-5.828 2.85 0 5.205 2.634 5.205 5.83zM283.508 113.187c0-1.34-.366-2.333-1.103-3.088-.796-.822-1.75-1.124-3.476-1.124h-4.47v14.253h1.77v-5.4c1.252.13 1.642.174 2.202.174 3.133 0 5.076-1.836 5.076-4.817zm-1.836.107c0 1.34-.648 2.462-1.683 2.895-.476.194-1.06.28-1.86.28-.498 0-.907-.022-1.9-.13v-5.876h2.44c1.146 0 1.77.175 2.202.606.52.52.8 1.296.8 2.224zM299.51 116.1c0-4.274-3.003-7.385-7.148-7.385-4.15 0-7.17 3.11-7.17 7.386 0 4.3 3.02 7.41 7.17 7.41 4.145 0 7.15-3.11 7.15-7.41zm-1.945 0c0 3.22-2.353 5.855-5.203 5.855-2.875 0-5.228-2.635-5.228-5.854 0-3.194 2.353-5.828 5.228-5.828 2.85 0 5.203 2.634 5.203 5.83zM312.574 123.23l-4.21-6.372c1.056-.238 1.576-.497 2.16-1.08.796-.756 1.25-1.836 1.25-2.96 0-1.08-.432-2.116-1.122-2.785-.82-.8-1.642-1.058-3.37-1.058h-4.34v14.254h1.772v-6.113h1.9l3.93 6.112h2.03zm-2.698-10.39c0 1.837-.973 2.786-2.852 2.786h-2.31v-5.162h2.31c1.275 0 1.64.066 2.072.41.52.41.78 1.06.78 1.967zM324.65 110.464v-1.49h-11.275v1.49h4.753v12.765h1.768v-12.766h4.753M340.237 116.1c0-4.274-3.004-7.385-7.15-7.385-4.145 0-7.17 3.11-7.17 7.386 0 4.3 3.025 7.41 7.17 7.41 4.146 0 7.15-3.11 7.15-7.41zm-1.944 0c0 3.22-2.355 5.855-5.205 5.855-2.873 0-5.228-2.635-5.228-5.854 0-3.194 2.355-5.828 5.228-5.828 2.85 0 5.205 2.634 5.205 5.83zM92.224 89.69v-2.313H83.39v14.254h2.723V95.65h5.008V93.36h-5.007v-3.67h6.11M105.527 101.63l-5.158-14.253h-2.444l-5.162 14.254h2.852l1.166-3.518h4.772l1.125 3.52h2.847zm-4.706-5.83h-3.305l1.643-5.162 1.663 5.162zM118.14 88.48c-1.232-.93-2.657-1.36-4.472-1.36-2.353 0-3.95.582-5.377 1.984-1.402 1.384-2.18 3.263-2.18 5.337 0 2.224.887 4.34 2.398 5.7 1.34 1.212 2.936 1.772 5.16 1.772.844 0 1.6-.086 2.29-.238.648-.15 1.016-.28 1.923-.69l-.497-2.29c-1.272.498-2.115.67-3.13.67-3.11 0-5.14-2.008-5.14-5.075 0-2.7 1.966-4.644 4.707-4.644 1.253 0 2.355.323 3.283.992l1.037-2.158M132.18 96.06V87.38h-2.723v8.833c0 2.052-1.1 3.175-3.176 3.175-2.266 0-3.364-1.057-3.364-3.174V87.38h-2.702v8.683c0 2.615.474 3.802 1.944 4.816 1.08.735 2.244 1.037 4.04 1.037 1.77 0 2.98-.324 4.017-1.037 1.49-1.037 1.965-2.2 1.965-4.815M144.25 101.63v-2.31h-5.828V87.378h-2.725v14.254h8.554M159.26 94.46c0-1.855-.693-3.67-1.923-4.986-1.404-1.49-3.09-2.097-5.79-2.097h-5.29v14.254h5.27c2.57 0 4.45-.69 5.767-2.093 1.25-1.34 1.965-3.175 1.965-5.076zm-2.94.023c0 3.046-1.814 4.752-5.054 4.752h-2.158v-9.46h2.158c1.556 0 2.66.28 3.412.842 1.017.756 1.643 2.246 1.643 3.866zM172.605 101.63l-5.162-14.253h-2.44l-5.16 14.254h2.85l1.165-3.518h4.774l1.12 3.52h2.853zm-4.708-5.83h-3.304l1.643-5.162 1.66 5.162zM187.464 94.46c0-1.855-.692-3.67-1.922-4.986-1.404-1.49-3.09-2.097-5.79-2.097h-5.29v14.254h5.27c2.57 0 4.45-.69 5.767-2.093 1.25-1.34 1.964-3.175 1.964-5.076zm-2.938.023c0 3.046-1.815 4.752-5.055 4.752h-2.157v-9.46h2.158c1.557 0 2.66.28 3.413.842 1.017.756 1.643 2.246 1.643 3.866zM198.91 101.63v-2.31h-6.24V95.52h4.88v-2.31h-4.88v-3.52h5.96v-2.31h-8.683v14.253h8.964M219.857 94.46c0-1.855-.69-3.67-1.922-4.986-1.404-1.49-3.09-2.097-5.788-2.097h-5.29v14.254h5.268c2.57 0 4.45-.69 5.767-2.093 1.253-1.34 1.965-3.175 1.965-5.076zm-2.938.023c0 3.046-1.816 4.752-5.054 4.752h-2.162v-9.46h2.162c1.554 0 2.657.28 3.41.842 1.017.756 1.643 2.246 1.643 3.866zM231.302 101.63v-2.31h-6.24V95.52h4.88v-2.31h-4.88v-3.52h5.96v-2.31h-8.682v14.253h8.962M250.24 101.63l-5.163-14.253h-2.44l-5.16 14.254h2.85l1.165-3.518h4.774l1.12 3.52h2.853zm-4.71-5.83h-3.3l1.64-5.162 1.66 5.162zM262.55 101.63l-3.543-6.112c1.19-.322 1.686-.624 2.226-1.316.52-.692.778-1.577.778-2.677 0-1.34-.387-2.378-1.167-3.088-.842-.8-1.793-1.06-3.867-1.06h-4.75v14.254h2.722v-5.7h1.36l3.262 5.7h2.98zM259.2 91.59c0 1.425-.754 2.03-2.482 2.03h-1.77v-3.93h1.77c1.772 0 2.482.54 2.482 1.9zM278.704 94.504c0-4.406-3.064-7.386-7.558-7.386-4.513 0-7.58 2.98-7.58 7.386 0 3.217 1.878 6.047 4.623 6.977.494.173.882.237 1.77.28.43.672.625.93 1.1 1.47.345.388.757.8 1.21 1.253.884.864 1.362 1.252 2.57 2.18l2.31-2.05c-.906-.455-1.25-.65-1.705-.972-.347-.26-.692-.562-1.016-.886-.41-.41-.54-.604-.798-1.123 1.53-.517 2.115-.862 3.064-1.878 1.318-1.404 2.008-3.197 2.008-5.248zm-2.89 0c0 2.895-1.99 5.033-4.668 5.033s-4.686-2.138-4.686-5.033c0-2.872 2.008-5.03 4.686-5.03 2.68 0 4.667 2.158 4.667 5.03zM292.916 96.06V87.38h-2.723v8.833c0 2.052-1.102 3.175-3.176 3.175-2.267 0-3.365-1.057-3.365-3.174V87.38h-2.702v8.683c0 2.615.474 3.802 1.944 4.816 1.08.735 2.245 1.037 4.037 1.037 1.773 0 2.982-.324 4.02-1.037 1.49-1.037 1.966-2.2 1.966-4.815M296.37 101.63h2.722V87.378h-2.722v14.254zM312.413 89.69v-2.313H301.14v2.312h4.277v11.94h2.72V89.69h4.276M323.51 101.63v-2.31h-6.243V95.52h4.883v-2.31h-4.883v-3.52h5.963v-2.31h-8.683v14.253h8.964M336.808 88.48c-1.228-.93-2.655-1.36-4.47-1.36-2.353 0-3.95.582-5.378 1.984-1.404 1.384-2.18 3.263-2.18 5.337 0 2.224.885 4.34 2.396 5.7 1.34 1.212 2.938 1.772 5.162 1.772.842 0 1.6-.086 2.29-.238.646-.15 1.016-.28 1.92-.69l-.494-2.29c-1.275.498-2.117.67-3.133.67-3.11 0-5.14-2.008-5.14-5.075 0-2.7 1.965-4.644 4.71-4.644 1.252 0 2.353.323 3.283.992l1.035-2.158M348.754 89.69v-2.313H337.48v2.312h4.275v11.94h2.724V89.69h4.274M362.486 96.06V87.38h-2.724v8.833c0 2.052-1.1 3.175-3.173 3.175-2.27 0-3.37-1.057-3.37-3.174V87.38h-2.702v8.683c0 2.615.478 3.802 1.944 4.816 1.082.735 2.248 1.037 4.04 1.037 1.773 0 2.98-.324 4.017-1.037 1.488-1.037 1.966-2.2 1.966-4.815M376.328 101.63l-3.542-6.112c1.19-.322 1.686-.624 2.224-1.316.517-.692.78-1.577.78-2.677 0-1.34-.392-2.378-1.168-3.088-.844-.8-1.793-1.06-3.867-1.06h-4.75v14.254h2.722v-5.7h1.36l3.26 5.7h2.98zM372.98 91.59c0 1.425-.755 2.03-2.483 2.03h-1.77v-3.93h1.77c1.772 0 2.484.54 2.484 1.9zM389.48 101.63l-5.16-14.253h-2.44l-5.164 14.254h2.852l1.168-3.518h4.772l1.123 3.52h2.85zm-4.705-5.83h-3.306l1.642-5.162 1.663 5.162zM57.004 43.682c-1.206 0-2.226.418-3.06 1.252-.833.832-1.25 1.853-1.25 3.06 0 1.205.417 2.226 1.25 3.06.834.833 1.854 1.25 3.06 1.25s2.226-.417 3.06-1.25c.834-.834 1.25-1.855 1.25-3.06 0-1.207-.416-2.228-1.25-3.06-.834-.834-1.854-1.252-3.06-1.252zM8.45 8.912v1.094h4.744v27.51c0 4.697 1.49 8.39 4.47 11.084 2.98 2.692 6.963 4.038 11.95 4.038 5.392 0 9.416-1.316 12.07-3.947 2.658-2.63 3.986-6.254 3.986-10.87V15.107c0-1.74.253-3.027.76-3.856.507-.83 1.307-1.244 2.402-1.244h1.58V8.912h-12.04v1.094h1.763c1.542 0 2.006.394 2.593 1.183.588.79.882 2.095.882 3.917v23.075c0 3.967-1.034 7.003-3.103 9.11-2.067 2.104-3.927 2.86-7.183 3.156-4.12.376-6.943-1.174-8.422-3.52-1.48-2.35-2.22-5.75-2.22-10.203v-26.72h4.925V8.913H8.45zM.52.567H71.65v59.68H.52V.568zM83.658 9.942h-6.02V8.97H94.97c4.906 0 8.808.933 11.707 2.804 2.9 1.87 4.35 4.898 4.35 9.084 0 3.985-1.532 6.96-4.592 8.933-3.062 1.972-6.68 2.958-10.856 2.958-2.434 0-4.34-.344-5.718-1.034V50.87h6.203v.975H77.637v-.974h6.02V9.943zm6.204 20.552c.527.326 1.206.62 2.037.885.83.263 1.712.395 2.645.395 2.553 0 4.844-.803 6.87-2.41 2.03-1.605 3.042-4.258 3.042-7.957 0-3.945-.902-6.84-2.705-8.69-1.805-1.85-4.53-2.776-8.18-2.776h-3.71v20.552zM135.715 8.056c5.15 0 9.64 2.187 13.47 6.56 3.832 4.373 5.748 9.636 5.748 15.79 0 6.196-1.895 11.47-5.686 15.822-3.79 4.352-8.3 6.53-13.532 6.53-5.148 0-9.64-2.187-13.47-6.56-3.832-4.373-5.748-9.637-5.748-15.79 0-6.197 1.895-11.47 5.686-15.822 3.79-4.353 8.3-6.53 13.532-6.53zm0 43.728c3.284 0 5.838-1.145 7.663-3.43 1.824-2.29 3.05-5.003 3.68-8.14.628-3.138.942-6.407.942-9.807 0-3.523-.294-6.822-.882-9.9-.588-3.076-1.794-5.758-3.62-8.046-1.823-2.287-4.418-3.43-7.783-3.43-3.284 0-5.838 1.143-7.663 3.43-1.824 2.29-3.05 5.002-3.68 8.14-.628 3.137-.94 6.406-.94 9.807 0 3.522.293 6.822.88 9.898.588 3.077 1.794 5.76 3.62 8.048 1.823 2.286 4.418 3.43 7.783 3.43zM165.34 9.942h-6.08V8.97h18.67c4.338 0 7.856.752 10.55 2.256 2.698 1.504 4.046 4.352 4.046 8.538 0 3.295-1.338 5.674-4.014 7.137-2.676 1.466-5.677 2.4-9 2.807 3.85.406 6.638 1.268 8.36 2.585 1.724 1.32 2.81 3.882 3.255 7.694l.85 7.42c.205 1.54.6 2.563 1.187 3.07.588.508 1.246.76 1.976.76.65 0 1.48-.202 2.494-.608l.365.79c-.65.243-1.37.437-2.16.58-.79.14-1.732.21-2.828.21-3.364 0-5.523-.778-6.476-2.34-.954-1.56-1.694-4.43-2.22-8.605l-.426-3.65c-.244-2.35-.922-4.156-2.037-5.413-1.116-1.256-3.234-1.884-6.356-1.884h-3.953V50.87h6.203v.975H159.26v-.974h6.08V9.943zm6.204 19.4h3.04c3.772 0 6.61-.742 8.516-2.227 1.905-1.485 2.857-3.935 2.857-7.35 0-2.93-.73-5.3-2.19-7.108-1.46-1.81-4.154-2.715-8.087-2.715h-4.136v19.4zM215.59 9.942h-1.277c-5.515 0-9.102.7-10.765 2.098-1.66 1.4-2.493 4.57-2.493 9.518h-.973V8.968H237.3v12.59h-.972c0-4.905-.83-8.07-2.494-9.488-1.662-1.42-5.23-2.128-10.703-2.128h-1.337v40.93h6.264v.973h-18.732v-.974h6.265V9.943M260.972 8.056c5.15 0 9.64 2.187 13.47 6.56 3.832 4.373 5.748 9.636 5.748 15.79 0 6.196-1.895 11.47-5.686 15.822-3.79 4.352-8.3 6.53-13.532 6.53-5.15 0-9.64-2.187-13.47-6.56-3.832-4.373-5.748-9.637-5.748-15.79 0-6.197 1.897-11.47 5.686-15.822 3.79-4.353 8.303-6.53 13.532-6.53zm0 43.728c3.285 0 5.84-1.145 7.663-3.43 1.824-2.29 3.05-5.003 3.68-8.14.628-3.138.943-6.407.943-9.807 0-3.523-.294-6.822-.882-9.9-.588-3.076-1.794-5.758-3.62-8.046-1.824-2.287-4.418-3.43-7.784-3.43-3.284 0-5.838 1.143-7.663 3.43-1.825 2.29-3.05 5.002-3.68 8.14-.628 3.137-.942 6.406-.942 9.807 0 3.522.294 6.822.882 9.898.588 3.077 1.794 5.76 3.618 8.048 1.825 2.286 4.42 3.43 7.784 3.43zM45.81 140.598c1.104-.105 1.826-.374 2.39-.083-.676.333-1.636.123-2.39.083zm.064-.69c-.93.034-2.123.098-2.928-.118 1.013-.168 1.922-.156 2.922-.058l.006.177zm-.358-4.572c.1.972-.04 2.062.04 3.034-.17.227.222.68-.17.847-.982-.187-2.013.093-2.928-.097-.177-3.804.596-8.305-1.017-11.993.086-.734-.658-1.107-.794-1.833.967-.233 1.706.627 2.47.977.95 1.21 2.046 2.743 2.124 4.357.44 1.137.17 2.343.393 3.642-.208.383.047.706-.117 1.066zm-2.993 13.287c.028-2.393-.268-5.154-.1-7.33.602-.53 1.463.037 2.164-.187.246.058.704-.157.914.145.006.8.014 1.662-.027 2.395.215.435-.074 1.043-.035 1.53-.237.827.4 1.913-.24 2.666l-2.675.783zm-.61.106c-.098-2.044.16-4.764.044-6.823.208-.406-.23-.856.136-1.18.832-.272 1.77-.06 2.695-.204-.496-.27-1.11-.05-1.71-.162-.427-.14-.704-.484-.983-.85-.24-3.07.06-5.895-.198-8.832.028-.466-.164-.903-.27-1.364-.126-1.724-1.13-3.24-1.803-4.722.237-.828-.164-.903-.56-.844-.608-.267.157-.56.123-.89-.376-.608-.877.25-1.232-.4.506-1.348-.616-.51-.948-1.12.592-1.46-.62-.62-1.102-1.135l-.364-1.538c-.637-.487-.974-1.273-1.655-1.737-2.638-3.23-5.2-6.22-7.882-9.405-1.094-1.512-2.205-2.89-3.237-4.517-.69-.773-.86-1.764-1.637-2.49-.432-.915-1.356-2.013-.595-3.058-.685-.574-1.966.157-1.89-.843-.02-.575.207-1.026-.052-1.482.237-1.347.116-2.79.045-4.434-8.996 5.596-14.985 15.573-14.985 26.948 0 17.516 14.2 31.716 31.716 31.716 2.172 0 4.294-.218 6.344-.635zm-21.65-58.867c-.09.81-.05 1.555-.02 2.384-.244.63-.083 1.443-.153 1.977.326.454-.485 1.324.28 1.696l3.23-.113c1.032 1.603-.588.884-1.1 1.412-.448-.096-.474.436-.777.624-.065.69.35 1.184.527 1.776 1.426 2.143 2.984 4.26 4.43 6.336 2.546 3.123 5.05 6.358 7.812 9.297 1.03 1.603 2.435 2.507 3.66 3.97-.127.78.9.367.924 1.075-.063.734.81.327 1.005.873-.15.738.823.704 1.04 1.184-.236.872 1.114.825 1.08 1.734.966.43 1.9 1.196 2.66 1.967 1.28 1.816 2.18 4.09 2.19 6.304-.01.33-.105.778.104 1.058.007 1.462-.262 3.266-.063 4.522.08.395-.33.72-.007 1.063.985.298 1.762-.305 2.667.24-.08.844.01 1.594-.027 2.392-1.074.326-1.833.175-2.712.36-.01 1.55-.097 3.517.027 5.232 11.848-4.597 20.248-16.107 20.248-29.58 0-17.515-14.2-31.715-31.716-31.715-5.55 0-10.77 1.426-15.307 3.93zM35.57 84.88c18.097 0 32.768 14.67 32.768 32.768s-14.67 32.77-32.77 32.77c-18.097 0-32.767-14.672-32.767-32.77C2.8 99.55 17.47 84.88 35.57 84.88z"/></g></svg>