<svg width="224" height="54" viewBox="0 0 224 54" xmlns="http://www.w3.org/2000/svg"><title>Infraestruturas de Portugal</title><g fill="#000" fill-rule="evenodd"><path d="M25.64 32.002C18.738 39.465 10.01 44.47.374 45.9c1.176 4.562 5.325 7.937 10.262 7.937h21.748c-.793-5.15-1.22-10.542-1.22-16.103 0-1.115.054-3.476.054-3.547 0-1.776-1.45-3.215-3.223-3.215-.88 0-1.69.356-2.267.944l-.088.086zM34.977 29.688c0 9.018 2.995 17.357 8.087 24.15h.036c5.858 0 10.61-4.746 10.61-10.604V10.772c0-4.458-2.748-8.264-6.642-9.84-7.486 7.444-12.09 17.58-12.09 28.756M.032 10.773v28.94c19.86-3.536 34.89-19.894 34.89-39.55H10.635C4.784.162.032 4.916.032 10.772M209.55 22.937c-.29.073-.66.12-1.105.142-.33.023-.696.038-1.102.04l-.002.004c-.686 0-1.24-.22-1.69-.663-.403-.39-.608-.835-.608-1.34 0-1.463.662-2.195 1.988-2.195h2.52v4.012zm1.574-10.124c-.96-.92-2.238-1.383-3.838-1.383-1.187 0-2.685.27-4.48.797l.664 2.53c1.748-.456 3.025-.684 3.816-.684 1.51 0 2.264.883 2.264 2.637v.054h-2.52c-1.54 0-2.753.387-3.652 1.158-.896.775-1.338 1.85-1.338 3.22 0 1.32.518 2.42 1.55 3.298 1.034.87 2.272 1.314 3.73 1.32.507 0 1.042-.02 1.57-.067.553-.042 1.068-.088 1.537-.144.465-.05.896-.106 1.258-.17.38-.064.67-.105.888-.143v-8.58c0-1.634-.478-2.92-1.45-3.844zM207.34 25.76h-.077.078zM108.134 22.94c-.293.07-.652.117-1.104.14-.337.023-.71.038-1.11.044-.686 0-1.25-.22-1.69-.663-.405-.39-.6-.832-.6-1.34 0-1.462.656-2.195 1.975-2.195h2.53v4.015zm1.568-10.123c-.955-.925-2.232-1.387-3.84-1.387-1.193 0-2.68.27-4.482.797l.662 2.53c1.76-.456 3.037-.684 3.82-.684 1.516 0 2.272.883 2.272 2.64v.05h-2.53c-1.53 0-2.74.388-3.64 1.16-.898.774-1.35 1.85-1.35 3.218 0 1.32.518 2.42 1.56 3.3 1.028.874 2.27 1.314 3.716 1.32.533 0 1.05-.02 1.592-.067.537-.042 1.048-.088 1.517-.144.47-.046.892-.106 1.275-.17.363-.06.662-.102.875-.143v-8.58c0-1.634-.49-2.918-1.448-3.84zM140.552 14.073v6.808c0 .685.178 1.234.543 1.64.363.404.865.61 1.514.61.655 0 1.286-.314 1.878-.948l1.255 2.14c-1.07.962-2.257 1.44-3.545 1.44-1.302 0-2.402-.453-3.316-1.344-.91-.894-1.37-2.102-1.37-3.62V7.53h3.04v4.114h3.803l-.768 2.43h-3.035zM91.19 6.925l-.61 2.532c-.757-.198-1.37-.293-1.85-.293-.395 0-.75.143-1.034.423-.29.28-.428.667-.428 1.162v.893h3.268l-.217 2.43h-3.052v11.45h-3.02V10.75c0-1.34.47-2.396 1.424-3.168.852-.708 1.875-1.053 3.09-1.053.69 0 1.498.13 2.428.395M173.532 14.073v6.808c0 .685.172 1.234.525 1.64.37.404.875.61 1.52.61.656 0 1.28-.314 1.87-.948l1.255 2.14c-1.068.962-2.242 1.44-3.543 1.44-1.294 0-2.39-.453-3.31-1.344-.912-.894-1.37-2.102-1.37-3.62V7.53h3.052v4.114h3.785l-.77 2.43h-3.015zM67.718 25.523H64.71V7.713h3.008v17.81zM81.446 25.523h-3.008v-8.89c0-.756-.236-1.374-.7-1.847-.462-.474-1.052-.713-1.778-.713-.74 0-1.338.24-1.8.713-.47.473-.71 1.09-.71 1.846v8.89h-3v-8.89c0-1.517.53-2.757 1.607-3.737 1.07-.973 2.37-1.465 3.903-1.465 1.53 0 2.838.492 3.902 1.465 1.05.98 1.584 2.22 1.584 3.737v8.89zM99.872 11.7l-.58 2.58c-.81-.16-1.356-.237-1.658-.237-.746 0-1.346.236-1.805.716-.452.47-.67 1.1-.67 1.872v8.89h-3.022v-8.89c0-1.545.533-2.81 1.576-3.77 1.04-.976 2.35-1.454 3.894-1.454.618 0 1.364.092 2.264.29M121.214 17.078v-.42c0-.76-.238-1.38-.697-1.86-.46-.48-1.04-.725-1.756-.725-.734 0-1.335.244-1.816.725-.482.48-.726 1.1-.726 1.86v.42h4.996zm3 2.452h-7.996v.925c0 .813.254 1.456.75 1.942.502.485 1.176.727 1.996.727.738 0 2.057-.22 3.963-.663l.607 2.532c-1.748.516-3.27.77-4.57.77-1.668 0-3.045-.49-4.135-1.478-1.08-.988-1.612-2.26-1.612-3.83v-3.797c0-1.512.53-2.766 1.6-3.746 1.07-.983 2.384-1.48 3.914-1.48 1.527 0 2.822.497 3.894 1.48 1.063.98 1.588 2.235 1.588 3.747v2.873zM135.47 21.646c0 1.107-.418 2.043-1.26 2.82-.965.864-2.275 1.294-3.906 1.294-1.324 0-2.78-.264-4.387-.79l.612-2.534c1.702.46 2.96.69 3.774.69.736-.002 1.295-.168 1.687-.51.34-.26.505-.572.505-.944 0-.74-.54-1.305-1.61-1.694-1.708-.614-2.782-1.087-3.222-1.418-.984-.726-1.476-1.788-1.476-3.196 0-1.145.445-2.09 1.314-2.822.882-.74 2.03-1.112 3.44-1.112 1.247 0 2.614.242 4.08.715l-.577 2.508c-1.442-.388-2.608-.58-3.502-.58-1.187 0-1.78.426-1.78 1.29 0 .408.113.71.326.91.216.207.584.398 1.1.6 1.816.642 2.933 1.122 3.355 1.415 1.028.727 1.53 1.84 1.53 3.358M154.847 11.7l-.584 2.58c-.814-.16-1.373-.237-1.666-.237-.736 0-1.336.236-1.797.716-.463.47-.682 1.1-.682 1.872v8.89h-3.007v-8.89c0-1.545.52-2.81 1.575-3.77 1.035-.976 2.332-1.454 3.883-1.454.62 0 1.375.092 2.28.29M167.657 20.528c0 1.522-.547 2.768-1.62 3.756-1.07.99-2.357 1.477-3.87 1.477-1.555 0-2.856-.487-3.92-1.476-1.06-.988-1.6-2.234-1.6-3.756v-8.856h3.016v8.856c0 .762.224 1.383.695 1.87.463.484 1.063.726 1.81.726.723 0 1.31-.242 1.786-.727.46-.486.687-1.107.687-1.87v-8.883h3.017v8.884zM190.712 20.528c0 1.522-.54 2.768-1.607 3.756-1.08.99-2.373 1.477-3.887 1.477-1.545 0-2.856-.487-3.916-1.476-1.067-.988-1.592-2.234-1.592-3.756v-8.856h3.004v8.856c0 .762.24 1.383.705 1.87.462.484 1.07.726 1.798.726.72 0 1.31-.242 1.777-.727.477-.486.707-1.107.707-1.87v-8.883h3.01v8.884zM201.27 11.7l-.577 2.58c-.813-.16-1.37-.237-1.668-.237-.742 0-1.338.236-1.79.716-.46.47-.693 1.1-.693 1.872v8.89h-3.002v-8.89c0-1.545.526-2.81 1.58-3.77 1.036-.976 2.34-1.454 3.883-1.454.618 0 1.377.092 2.266.29M223.968 21.646c0 1.107-.424 2.043-1.27 2.82-.972.864-2.263 1.294-3.908 1.294-1.312 0-2.777-.264-4.37-.79l.61-2.534c1.706.46 2.958.69 3.76.69.742-.002 1.303-.168 1.69-.51.334-.26.504-.572.504-.944 0-.74-.534-1.305-1.608-1.694-1.703-.614-2.78-1.087-3.222-1.418-.98-.726-1.477-1.788-1.477-3.196 0-1.145.443-2.09 1.322-2.822.88-.74 2.02-1.112 3.42-1.112 1.25 0 2.62.242 4.105.715l-.592 2.508c-1.434-.388-2.613-.58-3.512-.58-1.177 0-1.755.426-1.755 1.29 0 .408.098.71.317.91.2.207.57.398 1.1.6 1.82.642 2.933 1.122 3.36 1.415 1.012.727 1.526 1.84 1.526 3.358M133.11 37.653v9.466c0 .303.068.545.234.72.16.186.39.277.682.277.28 0 .557-.142.818-.425l.56.955c-.476.422-1.005.638-1.577.638-.563 0-1.06-.2-1.467-.6-.404-.397-.607-.933-.607-1.602V32.26h1.357v4.282h1.688l-.354 1.11h-1.334zM173.532 47.12c0 .303.063.545.232.72.16.186.39.278.682.278.28 0 .56-.143.818-.426l.567.955c-.484.422-1.005.638-1.577.638-.567 0-1.067-.2-1.47-.6-.407-.397-.606-.933-.606-1.602V31.6h1.355v15.52zM108.288 37.186c0-2.316-1.006-3.473-3.025-3.473h-4.04v7.02h4.04c2.02 0 3.025-1.176 3.025-3.547m1.365 0c0 1.368-.396 2.49-1.172 3.378-.797.936-1.874 1.402-3.217 1.402h-4.04v7.094h-1.357V32.433h5.397c1.343 0 2.418.447 3.197 1.345.79.894 1.193 2.028 1.193 3.408M119.415 44.165v-2.713c0-1.315-.332-2.307-1.008-2.98-.61-.606-1.447-.912-2.52-.912-1.025 0-1.857.306-2.482.913-.666.69-1.01 1.682-1.01 2.98v2.712c0 1.312.344 2.304 1.01 2.974.608.608 1.438.912 2.483.912 1.056 0 1.896-.304 2.52-.913.675-.693 1.007-1.68 1.007-2.975zm1.338.042c0 1.565-.45 2.8-1.36 3.706-.906.914-2.072 1.372-3.505 1.372-1.422 0-2.584-.458-3.47-1.372-.898-.905-1.353-2.14-1.353-3.706v-2.83c0-1.562.455-2.796 1.354-3.692.884-.902 2.046-1.358 3.468-1.358 1.433 0 2.6.456 3.506 1.358.91.896 1.36 2.13 1.36 3.69v2.832zM129.214 36.423l-.25 1.23c-.31-.06-.64-.094-1.01-.094-.935 0-1.707.305-2.304.912-.596.605-.89 1.402-.89 2.39v8.197h-1.335V40.86c0-1.354.43-2.447 1.28-3.294.86-.845 1.933-1.264 3.222-1.264.498 0 .922.036 1.287.12M146.942 44.777c0 1.313-.438 2.393-1.318 3.24-.883.843-1.963 1.268-3.24 1.268-1.27 0-2.36-.425-3.237-1.268-.887-.847-1.322-1.927-1.322-3.24v-8.25h1.328v8.25c0 .98.305 1.774.906 2.36.6.598 1.378.892 2.323.892.936 0 1.707-.3 2.315-.902.613-.6.922-1.383.922-2.35v-8.25h1.322v8.25zM151.726 43.72c-.494-.542-.732-1.26-.732-2.145V40.51c0-.88.238-1.604.732-2.166.502-.554 1.22-.84 2.168-.84.957 0 1.668.283 2.145.832.477.546.715 1.28.715 2.175v1.065c0 1.97-.95 2.95-2.86 2.95-.95 0-1.667-.266-2.17-.806m5.304 4.354c-.447-.164-1.52-.357-3.208-.588-1.15-.165-1.72-.465-1.72-.91 0-.367.216-.683.66-.96.36.08.737.122 1.132.122 1.234 0 2.236-.383 3.008-1.15.767-.763 1.158-1.77 1.158-3.013V40.51c0-1.016-.277-1.857-.74-2.503l.927-.557-.292-1.216-1.51.89c-.733-.527-1.633-.797-2.55-.797-1.23 0-2.243.386-3.026 1.157-.785.773-1.19 1.78-1.19 3.027v1.065c0 1.72.708 2.944 2.103 3.672-.682.422-1.02.896-1.02 1.424 0 .875.584 1.456 1.756 1.755 1.06.16 2.13.332 3.196.516 1.17.263 1.758.78 1.758 1.553 0 1.36-1.19 2.04-3.55 2.04-1.4 0-2.794-.315-4.19-.955l-.442 1.158c1.31.72 2.852 1.085 4.633 1.085 1.543 0 2.725-.304 3.57-.913.83-.61 1.25-1.404 1.25-2.39 0-1.165-.576-1.983-1.716-2.443M167.556 47.813c-.32.064-.71.117-1.164.156-1.123.087-1.988.055-1.988.055-.813-.037-1.483-.288-2.006-.773-.57-.518-.852-1.15-.852-1.908 0-1.704.91-2.56 2.74-2.56h3.27v5.03zm.162-10.318c-.787-.778-1.848-1.168-3.187-1.168-1.074 0-2.22.18-3.437.54l.303 1.233c1.234-.344 2.277-.52 3.135-.52 2.016 0 3.026 1.087 3.026 3.255v.74h-3.27c-1.27 0-2.267.34-2.994 1.017-.71.684-1.08 1.615-1.08 2.802 0 1.08.418 2.003 1.274 2.754.84.757 1.875 1.137 3.097 1.137v-.002c.41-.006.813-.025 1.223-.062.486-.032.928-.088 1.324-.155.405-.065.752-.12 1.057-.173.307-.06.543-.11.705-.158V40.834c0-1.44-.398-2.56-1.174-3.34zM83.944 41.92v-1.082c0-.968-.3-1.747-.895-2.342-.6-.588-1.376-.884-2.33-.884-.938 0-1.71.296-2.315.884-.607.595-.906 1.374-.906 2.342v1.082h6.444zm1.34 1.205H77.5v1.602c0 1.002.298 1.8.905 2.41.605.608 1.377.912 2.314.912 1.038 0 2.203-.164 3.497-.495l.248 1.205c-1.19.365-2.44.54-3.746.54-1.29 0-2.374-.42-3.25-1.276-.866-.854-1.294-1.956-1.294-3.297v-3.89c0-1.294.432-2.365 1.31-3.212.878-.843 1.958-1.268 3.233-1.268 1.288 0 2.365.42 3.234 1.255.883.838 1.33 1.913 1.33 3.226v2.287zM72.49 47.815c-.32.065-.726.12-1.188.157-1.124.09-2.04.076-2.04.076-.92 0-1.69-.31-2.3-.934-.614-.62-.922-1.42-.922-2.386v-3.742c0-1.067.308-1.903.93-2.51.58-.576 1.35-.86 2.29-.86.987-.002 2.06.346 3.23 1.054v9.145zm0-16.158v5.683c-1.112-.654-2.192-.984-3.23-.984-1.314 0-2.388.416-3.22 1.23-.89.834-1.33 1.974-1.33 3.4v3.742c0 1.314.44 2.4 1.33 3.267.89.878 1.963 1.305 3.22 1.305h.18v-.002c.43-.004.856-.02 1.244-.053.502-.04.948-.1 1.354-.164.408-.058.764-.12 1.072-.178.31-.06.545-.107.705-.157V31.657H72.49z"/></g></svg>