<svg width="400" height="80" viewBox="0 0 400 80" xmlns="http://www.w3.org/2000/svg"><title>Artboard 1</title><g fill="#1A1918" fill-rule="evenodd"><path d="M14.418 31.648v19.55c0 1.646-1.335 2.98-2.924 2.98-1.643 0-2.978-1.334-2.978-2.98V31.65H5.85c-1.644 0-2.976-1.126-2.976-2.718 0-1.64 1.332-2.718 2.977-2.718h2.666v-2.465c0-6.516 4.007-10.365 10.523-10.365 2.408 0 3.54 1.334 3.54 2.926 0 1.64-1.287 2.823-3.54 2.823-3.336 0-4.622 1.848-4.622 4.617v2.465h4.26c1.59 0 2.974 1.078 2.974 2.718 0 1.592-1.383 2.718-2.975 2.718h-4.26M53.83 51.2c0 1.644-1.335 2.977-2.976 2.977-1.592 0-2.93-1.333-2.93-2.978v-.202c-1.637 1.283-4.974 3.436-9.335 3.436-7.03 0-11.858-4.822-11.858-11.392V28.93c0-1.64 1.337-2.975 2.93-2.975 1.637 0 2.974 1.335 2.974 2.975v12.523c0 4.77 2.874 7.234 7.285 7.234 3.955 0 6.622-2.463 8.005-4.157v-15.6c0-1.64 1.337-2.975 2.93-2.975 1.64 0 2.975 1.335 2.975 2.975V51.2M63.064 28.93c0-1.64 1.334-2.975 2.975-2.975 1.59 0 2.926 1.335 2.926 2.975v.31c1.59-1.285 4.977-3.542 9.338-3.542 7.03 0 11.855 4.875 11.855 11.442V51.2c0 1.644-1.335 2.982-2.927 2.982-1.64 0-2.976-1.338-2.976-2.983V38.73c0-4.77-2.873-7.236-7.288-7.236-4.053 0-6.67 2.465-8.004 4.157V51.2c0 1.644-1.335 2.982-2.927 2.982-1.642 0-2.976-1.338-2.976-2.983V28.93M114.07 48.74c3.233-.208 4.21 4.616.617 5.386-.975.208-2 .308-3.286.308-8.26 0-14.572-5.543-14.572-14.06 0-8.878 6.465-14.93 15.243-14.93 3.542 0 5.9.664 7.29 1.23V16.305c0-1.587 1.33-2.924 2.974-2.924 1.59 0 2.925 1.337 2.925 2.924v34.946c0 1.592-1.336 2.978-2.926 2.978-1.643 0-2.975-1.386-2.975-2.978V32.78c-1.287-.872-3.39-1.797-6.672-1.797-6.213 0-10.062 3.643-10.062 8.93 0 5.595 3.543 8.927 9.445 8.927.67 0 1.232-.053 2-.1M149.685 48.74c3.232-.208 4.205 4.616.616 5.386-.975.208-2 .308-3.287.308-8.26 0-14.57-5.543-14.57-14.06 0-8.878 6.464-14.93 15.24-14.93 3.797 0 6.26 1.176 7.595 2.1.512-.924 1.488-1.59 2.667-1.59 1.592 0 2.925 1.336 2.925 2.928V51.2c0 1.593-1.333 2.977-2.925 2.977-1.64 0-2.975-1.384-2.975-2.978V33.242c-1.286-1.08-3.388-2.26-6.67-2.26-6.21 0-10.06 3.643-10.06 8.93 0 5.595 3.543 8.927 9.442 8.927.668 0 1.233-.053 2.003-.1M179.702 60.287c-2.104 0-2.72-1.645-1.95-3.336l1.13-2.616c-6.774-1.39-10.83-6.673-10.83-14.216 0-7.904 5.287-14.677 15.14-14.677 5.18 0 9.8 2.26 11.39 4.88 2.207 3.588-1.947 6.512-4.617 3.437-1.386-1.543-3.592-2.774-6.824-2.774-6.105 0-9.185 3.694-9.185 9.135 0 5.645 3.284 9.03 8.878 9.03 3.9 0 6.67-1.948 7.952-4.053 1.85-3.13 6.363-.82 4.62 2.67-1.797 3.645-6.67 6.773-12.47 6.93l-.668 1.435c4.415.204 6.16 2.563 6.16 5.49 0 3.128-2.515 5.336-6.52 5.336-1.744 0-3.642-.512-4.668-1.332-1.952-1.645-.258-4.47 2.205-3.39.718.257 1.54.466 2.67.466 1.18 0 2-.568 2-1.337 0-.668-.513-1.076-1.794-1.076h-2.618M212.748 13.537c2.62 0 4.002 1.23 5.235 2.514.512.516.924 1.028 1.64 1.028.772 0 1.18-.464 1.18-1.13 0-1.18.927-2.41 2.516-2.41 1.49 0 2.51 1.125 2.51 2.564 0 3.437-2.51 6.055-6.102 6.055-2.774 0-4.056-1.332-5.286-2.565-.565-.464-1.03-1.024-1.645-1.024-.617 0-1.022.512-1.022 1.075 0 1.64-1.024 2.567-2.568 2.567-1.485 0-2.463-1.235-2.463-2.567 0-3.386 2.412-6.106 6.004-6.106m4.876 35.204c3.232-.208 4.208 4.616.616 5.386-.978.208-2.002.308-3.286.308-8.26 0-14.573-5.543-14.573-14.06 0-8.878 6.464-14.93 15.242-14.93 3.797 0 6.263 1.176 7.593 2.1.512-.924 1.49-1.59 2.67-1.59 1.592 0 2.926 1.336 2.926 2.928V51.2c0 1.593-1.333 2.977-2.925 2.977-1.64 0-2.976-1.384-2.976-2.978V33.242c-1.285-1.08-3.39-2.26-6.672-2.26-6.21 0-10.06 3.643-10.06 8.93 0 5.595 3.544 8.927 9.444 8.927.667 0 1.232-.053 2.002-.1M259.292 40.067c0-6.055-3.288-9.39-8.367-9.39-6.004 0-9.133 3.85-9.133 9.39 0 6.104 3.18 9.39 8.516 9.39 5.803 0 8.984-3.798 8.984-9.39m5.796 0c0 8.773-5.796 14.622-15.035 14.622-8.365 0-14.058-5.542-14.058-14.623 0-8.67 5.744-14.624 14.93-14.624 8.57 0 14.163 5.543 14.163 14.624M385.842 31.18l-2.277 17.512c-.483 3.708-3.113 5.23-5.327 5.23-3.19 0-4.322-1.735-3.868-5.23l2.276-17.512c.488-3.7 3.114-5.222 5.323-5.222 3.197 0 4.326 1.732 3.872 5.222m-34.964 0L348.6 48.692c-.483 3.708-3.114 5.23-5.322 5.23-3.194 0-4.325-1.735-3.874-5.23l2.282-17.512c.483-3.7 3.113-5.222 5.322-5.222 3.196 0 4.327 1.732 3.87 5.222m-43.306.39c.44-3.278 3.465-5.6 6.693-5.6 3.232 0 3.526 2.218 3.526 3.09 0 3.426-5.44 7.22-11.412 11.42 0 0 .723-5.376 1.194-8.91m89.82 18.852c-.882-2.014-3.15-2.99-5.2-2.308l2.178-16.64c1.01-7.69-4.556-13.622-11.91-13.622-8.286 0-12.815 6.623-13.875 12.588-.61 3.43-1.012 4.04-2.22 5.26l-8.684 8.794 4.75-36.612c.3-2.312-1.33-4.433-3.645-4.732-2.315-.3-4.434 1.333-4.735 3.645l-1.563 12.008s-2.007-.95-4.797-.95c-6.854 0-13.462 5.268-14.406 12.587-.403 3.118-1.05 4.196-2.218 5.543-1.036 1.194-10.356 11.877-10.356 11.877-1.376 1.458-5.336 6.127-11.323 6.127-3.102 0-3.52-3.252-3.52-3.252l8.88-6.195c3.687-2.558 11.395-7.93 11.395-15.335 0-6.655-5.16-11.353-11.87-11.353-8.137 0-13.546 5.99-14.503 12.6l-2.343 16.165c-.004.06-.017.124-.024.185v-.005L294.7 48.72c-1.847 1.423-2.192 4.073-.77 5.923.838 1.08 2.087 1.647 3.357 1.647.37 0 .75-.06 1.12-.165 1.76 3.905 5.38 6.313 10.657 6.313 9.717 0 15.212-6.298 17.415-8.834l4.484-5.142c-1.18 9.146 4.85 13.976 11.44 13.976 7.693 0 10.372-2.502 17.604-9.137l6.036-5.773-3.4 25.98c-.3 2.317 1.327 4.436 3.645 4.734 2.312.304 4.435-1.326 4.736-3.644l1.704-13.1s2.045.976 4.84.976c1.964 0 3.91-.437 5.71-1.228l11.946-5.252c2.138-.942 3.11-3.436 2.167-5.57"/></g></svg>