<svg width="384" height="488" viewBox="0 0 384 488" xmlns="http://www.w3.org/2000/svg"><title>logo-cml-narrow</title><path d="M134.183 143.31c1.89 5.355 2.923 11.495 2.923 18.016 0 .528-.04 1.056-.057 1.572 0 7.184-4.315 13.546-10.474 16.32-7.924 3.452-18.214 6.363-29.576 8.168-8.48 1.34-16.57 1.88-23.7 1.732l-12.558 29.51c-.513 1.007-1.464 1.72-2.644 1.72-.74 0-1.416-.283-1.928-.737l-21.212-17.475c-.588-.528-.958-1.29-.958-2.137 0-.958.38-1.805 1.172-2.32l84.79-78.573c3.578-3.28 8.35-5.28 13.593-5.28 5.464 0 10.457 2.15 14.16 5.686l18.9 19.195c.476.516.746 1.204.746 1.953 0 1.596-1.292 2.886-2.89 2.886l-30.287-.233zM276.508 303.33c1.24-1.388 2-3.217 2-5.232 0-4.335-3.516-7.835-7.855-7.835-2.057 0-3.874.775-5.208 2.065-5.623 5.293-11.94 8.35-20.446 8.486-7.987.136-15.24-2.984-20.438-8.24-1.503-1.424-3.392-2.31-5.566-2.31-2.4 0-4.28.935-5.72 2.63-4.885 5.07-11.636 8.228-19.194 8.228-7.592 0-14.272-2.886-19.1-8.007-1.44-1.743-3.62-2.85-6.064-2.85-2.253 0-4.35.947-5.717 2.47-5.265 5.28-12.42 8.375-20.426 8.375-7.958 0-15.34-3.316-20.536-8.547-1.503-1.425-3.388-2.297-5.56-2.297-4.335 0-7.85 3.5-7.85 7.836 0 1.916.874 4.078 2.015 5.44 7.164 8.217 17.86 13.41 29.69 13.41 8.44 0 16.54-2.406 22.958-6.9 1.28-1.07 3.042-1.707 4.89-1.707 1.994 0 3.817.735 5.2 1.964 5.616 4.1 12.61 6.656 20.102 6.656 7.793 0 14.91-2.616 20.707-7.025 1.347-1.093 2.94-1.744 4.806-1.744 1.87 0 3.38.59 4.81 1.684 6.403 4.458 14.188 7.073 22.588 7.073 11.767 0 22.61-5.465 29.914-13.62zM255.932 83.86c0-2.506-2.033-4.544-4.54-4.544h-.026l-115.422.012c-2.507 0-4.582 1.928-4.582 4.433v9.85c0 2.506 2.118 4.716 4.627 4.716l50.55-.037-9.3 129.4c-16.873-4.69-30.79-16.21-38.37-31.646H93.008c-2.51 0-4.387 2.15-4.387 4.642l-.135 11.912c0 2.506 2.212 4.606 4.72 4.606l12.13.06c11.082 38.17 46.333 66.096 88.123 66.096 41.827 0 77.26-28.086 88.312-66.316l11.553-.037c2.505 0 4.576-2.04 4.576-4.544l-.078-11.85c0-2.506-1.9-4.57-4.408-4.57l-44.94-.024c-7.637 16-21.383 27.09-38.733 31.93L200.8 98.29l50.397.024c2.512 0 4.672-1.83 4.672-4.335l.062-10.12zM221.7 70.768c1.724 0 3.12-1.387 3.12-3.12 0-.944-.4-1.792-1.07-2.357l-16.766-12.697 16.87-13.14c.544-.553.928-1.413.928-2.248 0-1.73-1.437-3.082-3.16-3.082l-41.925-.05c-2.507 0-4.462 2.138-4.462 4.643l-.16 27.68c0 2.506 2.056 4.483 4.562 4.483l42.063-.112zm28.396 72.248c-1.887 5.366-2.924 11.507-2.924 18.028 0 .528.042 1.044.057 1.572 0 7.172 4.314 13.533 10.476 16.31 7.92 3.45 18.214 6.36 29.574 8.165 8.48 1.34 16.566 1.892 23.7 1.733l12.558 29.51c.51 1.007 1.464 1.72 2.642 1.72.742 0 1.42-.283 1.93-.737l21.21-17.463c.59-.528.96-1.302.96-2.15 0-.957-.382-1.792-1.17-2.32l-84.79-78.56c-3.58-3.29-8.354-5.293-13.593-5.293-5.47 0-10.46 2.16-14.166 5.686l-18.896 19.195c-.475.516-.747 1.204-.747 1.953 0 1.597 1.293 2.886 2.89 2.886l30.29-.234zM47.41 451.63l-.05-.258-.087-.123-.133-.038c-.11 0-.26.074-.45.21-.193.146-.435.294-.734.466-.296.172-.656.33-1.078.466-.42.135-.914.21-1.48.21-.666 0-1.264-.124-1.793-.357-.526-.233-.973-.59-1.335-1.056-.363-.454-.64-1.03-.835-1.718-.196-.688-.292-1.486-.292-2.383s.1-1.708.302-2.408c.204-.7.486-1.302.853-1.78.366-.492.808-.86 1.324-1.118.52-.246 1.092-.37 1.722-.37.58 0 1.077.063 1.49.21.415.135.768.295 1.057.467.29.173.527.332.712.468.182.147.326.22.427.22l.15-.05.102-.158.066-.258c.016-.098.024-.22.024-.368 0-.123-.005-.246-.018-.332l-.043-.246-.07-.184-.192-.22c-.097-.1-.276-.234-.532-.382-.255-.16-.545-.282-.874-.405-.33-.123-.684-.21-1.07-.295-.39-.073-.786-.11-1.194-.11-.927 0-1.773.172-2.534.503-.76.332-1.418.823-1.964 1.462-.548.638-.974 1.412-1.276 2.333-.3.92-.454 1.965-.454 3.132 0 1.142.142 2.16.423 3.033.28.884.68 1.62 1.204 2.21.52.602 1.15 1.057 1.892 1.364.74.307 1.57.454 2.49.454.533 0 1.022-.048 1.468-.146.45-.1.85-.22 1.194-.356.348-.148.637-.295.87-.443.234-.147.386-.257.46-.33l.154-.185.072-.172.037-.234c.007-.086.012-.196.012-.307 0-.172-.006-.307-.017-.417zm15.76-11.384l-.12-.197-.218-.136c-.096-.025-.22-.05-.372-.06-.153-.014-.346-.014-.58-.014-.22 0-.4 0-.542.013-.142.012-.26.036-.35.06l-.21.124-.112.196-4.75 13.14c-.058.16-.09.283-.094.38l.077.222c.054.062.15.1.285.11.134.026.308.026.52.026.202 0 .368 0 .497-.024.127-.012.225-.037.296-.06l.16-.124.085-.172 1.16-3.402h5.887l1.215 3.45.092.16.155.1c.067.036.172.048.305.06.135.013.317.013.543.013.226 0 .406 0 .54-.024.135-.012.233-.037.29-.098l.082-.22c-.002-.1-.033-.222-.092-.382l-4.75-13.14zm1.127 8.584h-4.925l2.442-7.05h.01l2.473 7.05zm-2.624-13.226l-.28.05-.213.097-.182.16-2.45 2.48-.123.185.04.123.208.074c.098.024.238.024.42.024h.494c.133-.012.243-.024.327-.05l.222-.097.173-.148 1.74-1.83 1.685 1.89.125.1.19.085c.082.013.188.025.32.037.13.012.307.012.525.012.16 0 .29 0 .394-.012l.218-.073.043-.135-.12-.184-2.34-2.48-.182-.16-.197-.097-.266-.05c-.102-.012-.23-.012-.383-.012-.154 0-.282 0-.387.014zm31.404 5.157c0-.158-.024-.28-.067-.392l-.174-.257-.254-.16-.32-.048h-1.21c-.184 0-.348.024-.49.06-.14.038-.267.112-.382.198-.115.098-.22.22-.318.368-.096.16-.186.344-.264.553L85.383 451.3h-.056l-4.05-10.242c-.065-.196-.14-.368-.23-.516-.09-.147-.202-.27-.334-.356-.133-.098-.288-.172-.466-.21-.18-.048-.386-.072-.624-.072H78.47c-.202 0-.384.073-.547.196-.163.135-.245.356-.245.663v13.007l.04.147.147.11c.07.025.166.05.288.062.12.025.27.025.45.025.19 0 .34 0 .462-.024.12-.012.218-.037.294-.06l.155-.112.046-.147V441.45h.013l4.77 12.366.082.123.17.097.275.05c.11.024.238.024.392.024.145 0 .272 0 .38-.012l.27-.06.176-.087.094-.134 4.99-12.367h.022v12.317l.045.147.152.11c.07.025.168.05.292.062.122.025.272.025.444.025.19 0 .34 0 .46-.024.114-.012.21-.037.285-.06l.16-.112.044-.147V440.76zm17.015-.514l-.123-.197-.22-.136c-.094-.025-.22-.05-.37-.06-.154-.014-.348-.014-.58-.014-.22 0-.4 0-.544.013-.14.012-.26.036-.35.06l-.21.124-.112.196-4.75 13.14c-.058.16-.09.283-.092.38l.076.222c.055.062.15.1.285.11.135.026.31.026.52.026.203 0 .37 0 .498-.024.13-.012.228-.037.296-.06l.158-.124.09-.172 1.158-3.402h5.888l1.215 3.45.09.16.156.1c.07.036.172.048.307.06.135.013.315.013.54.013.226 0 .408 0 .543-.024.136-.012.23-.037.29-.098l.083-.22c-.005-.1-.036-.222-.094-.382l-4.748-13.14zm1.125 8.584h-4.924l2.442-7.05h.01l2.472 7.05zM134 453.52c-.03-.11-.097-.294-.197-.552l-1.27-3.12c-.15-.355-.293-.674-.44-.957-.145-.28-.3-.54-.465-.76-.164-.21-.34-.405-.53-.553-.19-.16-.4-.295-.634-.393.416-.147.79-.32 1.127-.54.336-.21.625-.455.866-.75.238-.282.424-.613.553-.982.124-.38.19-.81.19-1.277 0-.49-.07-.933-.213-1.34-.142-.404-.357-.76-.64-1.08-.285-.32-.637-.564-1.057-.773-.42-.21-.903-.356-1.45-.454-.19-.013-.402-.037-.64-.05-.238-.024-.534-.036-.892-.036h-3.01c-.166 0-.326.06-.476.172-.148.11-.223.307-.223.6v13.093l.043.147.15.11c.075.025.172.05.292.062.12.025.272.025.455.025.18 0 .334 0 .454-.024.12-.012.215-.037.284-.06l.154-.112.048-.147v-6.03h1.258c.432 0 .8.074 1.106.196.306.123.572.307.798.54.228.222.423.504.586.81.166.32.322.677.478 1.045l1.3 3.34.105.22.17.137c.073.024.17.05.29.06.122.026.277.026.467.026.218 0 .392 0 .524-.024.132-.012.235-.037.308-.06l.14-.112.035-.147-.044-.246zm-2.962-8.743c-.113.295-.29.553-.53.762-.24.22-.54.38-.904.502-.36.123-.79.184-1.285.184h-1.84v-4.765h1.587c.372 0 .674.014.903.026.23.025.435.06.618.11.583.172 1 .443 1.248.823.247.38.372.86.372 1.412 0 .343-.057.65-.17.945zm18.98-4.53l-.12-.198-.22-.136c-.096-.025-.22-.05-.372-.06-.154-.014-.346-.014-.582-.014-.218 0-.397 0-.54.013-.14.012-.26.036-.35.06l-.207.124-.117.196-4.748 13.14c-.06.16-.09.283-.09.38l.073.222c.055.062.148.1.286.11.135.026.308.026.52.026.204 0 .37 0 .5-.024.126-.012.224-.037.292-.06l.16-.124.087-.172 1.16-3.402h5.887l1.215 3.45.092.16.154.1c.07.036.17.048.306.06.134.013.315.013.542.013.225 0 .406 0 .54-.024.136-.012.232-.037.29-.098l.082-.22c-.002-.1-.034-.222-.09-.382l-4.75-13.14zm1.127 8.583h-4.926l2.44-7.05h.01l2.475 7.05zm41.745-8.07c0-.158-.02-.28-.066-.392l-.174-.257-.254-.16c-.1-.024-.205-.048-.317-.048h-1.212c-.187 0-.347.024-.492.06-.14.038-.266.112-.38.198-.117.098-.222.22-.32.368-.095.16-.184.344-.265.553L185.2 451.3h-.055l-4.05-10.242c-.068-.196-.146-.368-.234-.516-.087-.147-.198-.27-.332-.356-.134-.098-.29-.172-.467-.21-.18-.048-.385-.072-.62-.072h-1.157c-.2 0-.383.073-.544.196-.164.135-.245.356-.245.663v13.007l.038.147.146.11c.072.025.168.05.288.062.12.025.27.025.45.025.188 0 .342 0 .462-.024.12-.012.22-.037.293-.06l.16-.112.044-.147V441.45h.01l4.77 12.366.082.123.17.097.273.05c.11.024.242.024.395.024.145 0 .272 0 .377-.012l.274-.06.175-.087.09-.134 4.993-12.367h.02v12.317l.045.147.15.11c.074.025.17.05.298.062.123.025.27.025.445.025.187 0 .338 0 .456-.024.118-.012.214-.037.287-.06l.158-.112.045-.147V440.76zm21.81-.576l-.05-.147-.153-.098c-.072-.038-.163-.05-.286-.075-.12-.012-.27-.025-.44-.025-.185 0-.336.013-.454.025-.123.024-.22.037-.292.074l-.154.097-.045.147v8.646c0 .638-.076 1.19-.233 1.67-.158.467-.384.872-.682 1.19-.292.32-.654.554-1.082.714-.424.17-.91.245-1.46.245-.53 0-1.012-.087-1.44-.246-.424-.16-.79-.406-1.092-.737-.302-.32-.534-.725-.695-1.216-.16-.478-.242-1.055-.242-1.718v-8.548l-.042-.147-.148-.098c-.068-.038-.167-.05-.287-.075-.125-.012-.276-.025-.45-.025-.19 0-.342.013-.46.025-.117.024-.212.037-.283.074l-.154.097-.045.147v8.78c0 .873.125 1.634.375 2.297.246.665.598 1.217 1.058 1.66.46.44 1.01.773 1.655.994.64.233 1.353.344 2.133.344.853 0 1.616-.123 2.286-.356.67-.246 1.24-.602 1.707-1.07.47-.465.83-1.03 1.078-1.706.253-.675.38-1.437.38-2.308v-8.634zm21.825.037l-.043-.134-.153-.123c-.068-.024-.166-.05-.288-.074-.123-.013-.272-.013-.44-.013-.193 0-.347 0-.465.012-.123.024-.216.05-.29.073l-.156.123-.047.135v7.676c0 .578.003 1.167.007 1.793.005.626.015 1.228.027 1.805h-.01c-.168-.344-.34-.688-.512-1.032-.174-.33-.347-.675-.525-1.03-.176-.345-.36-.7-.55-1.058-.19-.368-.387-.736-.59-1.117l-3.322-6.202c-.12-.233-.234-.417-.345-.565-.11-.146-.222-.27-.337-.355-.12-.074-.252-.135-.396-.172-.148-.037-.33-.06-.55-.06h-.924c-.197 0-.38.06-.543.195-.168.11-.247.32-.247.614v13.055l.045.147.152.11c.067.025.163.05.282.062.122.025.274.025.456.025.184 0 .336 0 .457-.024.12-.012.213-.037.288-.06l.155-.112.048-.147v-8.535c0-.54-.002-1.093-.012-1.634-.006-.54-.02-1.08-.032-1.61h.02c.2.43.413.873.645 1.34.225.454.45.884.678 1.302l4.32 8.044c.15.282.29.515.42.7.132.184.264.32.397.43.134.11.27.17.42.22.144.037.318.062.512.062h.624l.294-.05.268-.134.193-.258c.047-.098.07-.233.07-.37v-13.053zm13.046-.036l-.044-.147-.154-.098c-.07-.038-.17-.05-.292-.075-.118-.012-.27-.025-.453-.025-.166 0-.31.013-.43.025-.12.024-.22.037-.297.074l-.164.097-.05.147v13.583l.044.147.155.11c.074.025.17.05.293.062.127.025.274.025.45.025.183 0 .334 0 .452-.024.122-.012.22-.037.292-.06l.154-.112.045-.147v-13.583zm20.596 11.446l-.048-.258-.088-.123-.134-.038c-.11 0-.258.074-.448.21-.193.146-.436.294-.735.466-.295.172-.654.33-1.076.466-.42.135-.913.21-1.482.21-.665 0-1.264-.124-1.792-.357-.526-.233-.973-.59-1.336-1.056-.362-.454-.643-1.03-.836-1.718-.192-.688-.29-1.486-.29-2.383s.1-1.708.302-2.408c.202-.7.485-1.302.853-1.78.367-.492.81-.86 1.326-1.118.52-.246 1.092-.37 1.723-.37.578 0 1.073.063 1.49.21.414.135.766.295 1.056.467.287.173.525.332.71.468.182.147.326.22.425.22l.15-.05.105-.158.067-.258c.015-.098.024-.22.024-.368 0-.123-.005-.246-.018-.332l-.043-.246-.073-.184-.19-.22c-.102-.1-.278-.234-.532-.382-.256-.16-.545-.282-.876-.405-.33-.123-.685-.21-1.072-.295-.388-.073-.786-.11-1.192-.11-.926 0-1.773.172-2.536.503-.758.332-1.415.823-1.96 1.462-.55.638-.976 1.412-1.277 2.333-.304.92-.455 1.965-.455 3.132 0 1.142.14 2.16.422 3.033.28.884.683 1.62 1.202 2.21.522.602 1.155 1.057 1.894 1.364.742.307 1.57.454 2.49.454.535 0 1.024-.048 1.472-.146.448-.1.847-.22 1.193-.356.348-.148.637-.295.87-.443.236-.147.386-.257.46-.33l.152-.185.072-.172.038-.234c.01-.086.013-.196.013-.307 0-.172-.006-.307-.02-.417zm11.792-11.446l-.044-.147-.154-.098c-.075-.038-.17-.05-.29-.075-.12-.012-.27-.025-.456-.025-.166 0-.31.013-.43.025-.122.024-.22.037-.297.074l-.162.097-.05.147v13.583l.044.147.152.11c.072.025.17.05.294.062.125.025.274.025.448.025.185 0 .337 0 .455-.024.12-.012.215-.037.29-.06l.154-.112.044-.147v-13.583zm19.634 2.407c-.15-.44-.364-.834-.642-1.165-.274-.332-.614-.614-1.01-.848-.398-.233-.79-.38-1.17-.466-.387-.085-.714-.135-1-.17-.28-.026-.574-.038-.88-.038h-3.03c-.19 0-.36.06-.513.196-.154.11-.232.32-.232.614v13.055l.044.147.153.11c.073.025.17.05.293.062.116.025.27.025.453.025.18 0 .33 0 .45-.024.122-.012.217-.037.285-.06l.153-.112.05-.147v-5.097h1.608c.877 0 1.63-.11 2.26-.33.63-.21 1.164-.53 1.598-.922.433-.406.77-.885 1.004-1.462.232-.565.346-1.203.346-1.903 0-.54-.073-1.02-.222-1.462zm-1.952 2.79c-.132.355-.328.662-.582.92-.256.258-.57.467-.943.614-.378.147-.853.21-1.42.21h-1.696v-5.663h1.74c.32 0 .65.026.987.075.342.05.668.172.986.356.32.198.584.48.798.873.22.38.325.86.325 1.437 0 .418-.065.81-.195 1.18zm16.653-5.134l-.12-.197-.22-.136c-.097-.025-.22-.05-.37-.06-.156-.014-.35-.014-.584-.014-.22 0-.398 0-.542.013-.14.012-.257.036-.35.06l-.208.124-.115.196-4.75 13.14c-.058.16-.088.283-.092.38l.08.222c.052.062.148.1.28.11.136.026.308.026.523.026.202 0 .368 0 .496-.024.128-.012.226-.037.295-.06l.157-.124.09-.172 1.158-3.402h5.89l1.215 3.45.093.16.15.1c.07.036.174.048.306.06.137.013.318.013.544.013.225 0 .407 0 .54-.024.137-.012.23-.037.29-.098l.083-.22c-.006-.1-.034-.222-.09-.382l-4.75-13.14zm1.126 8.584h-4.926l2.44-7.05h.012l2.473 7.05zm20.7 4.028l-.07-.246-.12-.147-.172-.05h-5.074v-12.23l-.046-.148-.15-.098c-.076-.038-.173-.05-.29-.075-.123-.012-.275-.025-.456-.025-.175 0-.327.013-.447.025-.126.024-.228.037-.297.074l-.156.097-.042.147v13.104c0 .282.075.48.224.59.15.11.31.17.475.17h6.258l.17-.048.122-.16.07-.245c.015-.1.02-.22.02-.37 0-.146-.005-.27-.02-.367zm-258.49-40.71v-11.385H49.933v-53.998H37.15v65.382h42.48zm10.39 0h12.78v-65.383H90.02v65.382zm70.337-19.28c0-5.786-1.562-10.563-5.055-13.866-2.76-2.58-6.53-4.225-12.507-5.048l-7.723-1.105c-2.666-.37-4.782-1.376-6.07-2.58-1.377-1.277-1.928-3.02-1.928-4.68 0-4.494 3.308-8.264 10.114-8.264 4.32 0 9.286.553 13.425 4.507l8.09-7.994c-5.61-5.417-12.136-7.628-21.15-7.628-14.158 0-22.8 8.18-22.8 19.846 0 5.502 1.563 9.726 4.69 12.846 2.942 2.85 7.08 4.592 12.687 5.428l7.908 1.093c3.034.466 4.505 1.105 5.793 2.296 1.38 1.29 2.022 3.22 2.022 5.515 0 5.232-4.044 8.08-11.584 8.08-6.07 0-11.677-1.375-15.817-5.513l-8.27 8.265c6.433 6.52 13.974 8.633 23.903 8.633 13.7 0 24.274-7.16 24.274-19.833zm59.488.465c0-8.73-5.057-12.87-9.008-14.7 3.31-1.56 8.09-6.238 8.09-13.496 0-11.212-7.448-18.372-20.23-18.372h-26.295v65.382H199.8c11.68 0 20.045-6.607 20.045-18.814zm-12.78-.65c0 4.408-2.757 8.08-8.552 8.08h-13.33v-16.075h13.33c5.795 0 8.552 3.586 8.552 7.994zm-.918-26.994c0 4.494-3.037 7.528-8.46 7.528h-12.504v-15.07h12.503c5.424 0 8.46 3.034 8.46 7.54zm72.91 13.766c0-11.298.095-19.465-6.53-26.072-4.596-4.593-10.203-7.172-17.65-7.172-7.447 0-13.148 2.58-17.746 7.172-6.62 6.607-6.437 14.774-6.437 26.072s-.184 19.477 6.438 26.084c4.6 4.593 10.3 7.16 17.747 7.16 7.447 0 13.054-2.567 17.65-7.16 6.625-6.607 6.53-14.786 6.53-26.084zm-12.78 0c0 12.588-.736 15.62-3.216 18.372-1.84 2.112-4.69 3.488-8.183 3.488-3.495 0-6.437-1.376-8.275-3.488-2.484-2.75-3.128-5.784-3.128-18.372 0-12.575.644-15.61 3.128-18.36 1.838-2.112 4.78-3.487 8.275-3.487 3.494 0 6.344 1.374 8.184 3.486 2.48 2.75 3.218 5.785 3.218 18.36zm75.49 32.69l-23.907-65.38h-10.023l-23.812 65.38h13.33l3.954-11.567h23.26l3.863 11.567h13.335zm-20.598-22.313h-16.274l8.275-23.775 8 23.775z" fill="#000" fill-rule="evenodd"/></svg>