<svg width="321" height="97" viewBox="0 0 321 97" xmlns="http://www.w3.org/2000/svg"><title>Combined Shape</title><path d="M35.23 20.183h-9.033l1.367-10.338c.15-.9-.497-1.7-1.892-1.5L16.494 8.3c-1.095.206-2.06.91-2.2 2.02l-1.45 9.86h-9.43c-1.61 0-2.06.907-2.208 2.006L.64 26.704c-.134 1.1.3 1.813 1.72 2.01l9.306 1.402-3.862 31.518c-.207 1.812-.317 3.41-.248 4.922.42 8.023 5.4 11.035 14.232 11.035 2.212 0 4.4-.3 6.895-.706 1.29-.196 1.957-.804 2.11-1.802l.767-6.325c.123-1.403-.875-1.508-1.883-1.508H24.36c-2.508 0-3.433-.298-3.53-2.103-.04-.805.098-2.002.322-3.513l3.865-31.518h9.027c1.61 0 2.173-.707 2.306-2.005l.69-5.922c.215-1.7-.7-2.005-1.81-2.005zm30.878-.7c-15.36 0-24.928 6.92-27.25 25.69l-.784 6.216c-.287 2.114-.277 4.215-.182 6.027.8 15.156 11.902 20.174 20.83 20.174 9.037 0 13.424-.507 20.09-1.71 1.892-.297 2.15-1.004 2.368-2.61l.857-6.612c.136-1.313-.686-1.614-1.988-1.51-4.293.4-11.182 1.103-18.508 1.103-7.424 0-10.43-3.612-10.716-9.038-.07-1.397.157-2.712.287-4.112h32.725c1.407 0 2.057-.903 2.274-2.5l.553-4.825c.19-1.914.294-3.908.203-5.727-.623-11.74-7.41-20.565-20.76-20.565zm7.497 24.186l-21.278-.002c.916-7.328 4.35-12.748 12.378-12.748 5.514 0 8.788 3.113 9.096 8.935.07 1.302-.065 2.512-.195 3.814zM113.482.41h-9.338c-1.5 0-2.064.902-2.207 2.007l-8.943 72.26c-.122 1.402.51 2.11 1.722 2.11h9.337c1.704 0 2.054-1.005 2.194-2.11l8.94-72.26c.22-1.5-.505-2.008-1.705-2.008zm24.748 20.256l.01-.08c-1.082.133-2.15.32-3.227.49-.417.065-.837.12-1.25.19-2.134.36-4.234.773-6.21 1.267-2.358.596-2.835 1.192-3.058 2.697l-4.505 35.085c4.37.793 8.77 1.377 12.972 1.68l5.268-41.33zm11.431-.736c-2.204 0-4.573.156-6.974.378l-1.316 10.74c2.064-.194 2.978-.32 5.304-.32 6.505 0 10.505 2.995 10.79 8.392.09 1.696 0 3.696-.285 5.89l-.906 7.704c-.885 7.69-3.835 14.28-12.43 14.28-1.71 0-8.796-.487-11.203-.716l.004-.03c-4.186-.268-8.597-.864-12.98-1.635l-1.233 10.068c4.335 1.016 8.752 2.02 12.882 2.432l2.725.304c2.62.266 6.677.38 8.47.38 16.094 0 24.982-7.7 26.968-25.082l.892-7.703c.202-1.995.296-4.002.202-5.793-.6-11.39-7.52-19.287-20.91-19.287zm-33.694 74.857c-.226 1.4.6 2 1.7 2h9.205c.458 0 .812-.058 1.1-.154.135-.046.214-.125.32-.19.114-.07.248-.127.332-.216.106-.113.17-.252.238-.39.032-.068.08-.126.105-.198.072-.208.12-.43.158-.667l1.875-13.65c-3.892-.412-8.65-1.194-12.924-2.08l-2.108 15.544zm89.51-75.075c-16.086 0-25.283 9.49-27.06 25.08l-.83 7.095c-.194 2.003-.435 5.104-.274 7.995.62 11.898 8.02 17.695 17.22 17.695 4.9 0 9.826-1.4 15.19-5.71l-.25 2.913c-.136 1.094.512 1.996 1.71 1.996h7.99c1.1 0 2.153-.902 2.303-1.996l6.072-49.77c.205-1.81-.516-2.204-2.338-2.695-5.986-1.603-13.33-2.603-19.734-2.603zm4.254 42.867c-4.358 2.605-8.473 4.197-12.267 4.197-3.895 0-6.874-1.498-7.177-7.19-.06-1.2-.157-3 .265-6.397l1.056-8.397c.97-8.2 3.944-14.284 12.543-14.284 3.598 0 7.61.3 9.433.685L209.73 62.58zm55.52-42.867c-4.197 0-9.47.4-14.945 4.797l.296-2.104c.224-1.498-.403-1.996-1.804-1.996h-8.692c-1.505 0-2.063.902-2.2 1.996l-6.45 52.27c-.22 1.502.507 2.1 1.717 2.1h9.19c1.903 0 2.147-1 2.29-2.1l4.986-40.17c6.616-3.404 11.006-3.606 14.204-3.606 1.592 0 2.056-.895 2.195-1.996l.92-7.19c-.007-.113-.01-.207-.014-.402-.055-.902-.386-1.6-1.69-1.6zm55.386 1.83c-.028-.506-.554-.907-1.46-.907H307.24c-1.122 0-1.707.307-2.466 1.216l-18.89 21.75 5.13-40.877c.224-1.616-.713-2.017-1.82-2.017h-9.317c-1.108 0-2.073.91-2.212 2.017l-9.027 72.86c-.126 1.314.522 2.122 1.738 2.122h9.306c1.616 0 2.174-1.014 2.317-2.122l2.985-23.987L298.7 75.683c1.11 1.913 1.52 2.024 2.635 2.024h12.04c1.014 0 1.457-1.118.9-2.024l-17.15-27.93 22.97-24.995c.38-.408.565-.8.54-1.216z" fill="#000" fill-rule="evenodd"/></svg>