<svg width="701" height="393" viewBox="0 0 701 393" xmlns="http://www.w3.org/2000/svg"><title>Jofebar</title><g fill="#000" fill-rule="evenodd"><path d="M509.267 109.616c-3.617-.335-6.735-.512-11.648-.512-15.046 0-27.377 2.136-37.165 5.986l-14.89 72.32h31.763l11.914-58.336c3.518-.85 15.98 1.607 19.646 4.015-1.01-3.527-1.58-7.245-1.58-11.102 0-4.32.703-8.473 1.96-12.372M72.48 89.265H39.425L20.27 182.133c-1.99 9.56-8.083 14.55-14.893 14.55l-4.684 22.82c27.525 0 47.525-12.404 53.48-41.364l18.308-88.875zM146.244 139.764c0-17.974-11.632-30.667-31.636-30.667-15.32 0-27.378 6.13-35.325 16.975-6.244 8.56-10.497 21.398-10.497 32.1 0 17.975 11.63 30.666 31.635 30.666 15.887 0 27.525-6.416 35.325-17.117 6.097-8.418 10.5-21.257 10.5-31.956m-30.502-4.42c0 6.133-2.552 17.688-4.682 23.54-1.987 5.56-4.395 8.552-7.663 8.552-2.694 0-3.967-2.136-3.967-6.27 0-6.14 2.693-17.834 4.825-23.68 1.98-5.42 4.394-8.566 7.656-8.566 2.698 0 3.833 2.29 3.833 6.425M213.195 75.427c-3.12-.424-6.1-.568-9.082-.568-19.15 0-34.472 8.7-39.003 30.81l-.992 4.85h-7.948l-4.258 20.968h7.805l-11.49 55.922h31.777l11.487-55.922h10.214l4.256-20.967h-10.07l1.42-6.562c1.558-6.988 5.248-8.984 11.774-8.276l4.11-20.255zM276.178 138.628c0-17.697-10.493-29.532-29.647-29.532-16.025 0-27.662 7.275-35.183 16.976-6.665 8.697-10.632 20.254-10.632 31.242 0 18.398 11.772 31.524 33.755 31.524 12.91 0 23.98-2.568 31.357-5.997l-2.84-19.534c-4.11 1.85-13.056 4.422-20.857 4.422-5.95 0-11.06-1.712-12.06-8.277l43.983-5.848c1.418-5.276 2.125-10.413 2.125-14.974m-28.085-2.99c0 1.99-.285 4.272-.852 6.55l-17.448 2.572c.28-2.57.85-4.99 1.704-7.275 2.13-5.85 5.668-10.27 11.065-10.27 3.83 0 5.532 3.426 5.532 8.422M361.01 137.194c0-16.542-10.073-27.81-25.96-27.81-5.246 0-9.505.855-12.484 2.137l7.522-36.094h-31.776L276.178 182.84c6.096 3.998 18.015 5.998 31.21 5.998 18.584 0 32.062-4.85 40.993-15.692 7.237-8.847 12.63-24.252 12.63-35.952m-31.068-1.422c0 6.563-2.832 19.254-5.53 25.247-2.837 6.283-6.526 8.987-10.923 8.987-1.282 0-2.273-.142-2.838-.29l8.508-41.79c1.134-.29 2.277-.433 3.685-.433 5.256 0 7.097 3.147 7.097 8.278M449.248 115.09c-7.095-3.857-19.01-5.993-31.495-5.993-18.86 0-32.06 5.416-40.708 15.55-7.663 8.985-12.065 22.392-12.065 34.38 0 19.112 13.615 29.81 35.466 29.81 15.462 0 26.1-2.28 34.902-5.996l13.9-67.75zm-34.327 12.55l-8.37 41.09c-.858.134-1.702.277-2.84.277-4.818 0-7.377-3.284-7.377-10.555 0-6.71 1.847-15.686 4.54-21.68 2.978-6.564 6.668-9.42 11.064-9.42 1.412 0 2.41.142 2.984.287zM646.523 96.074c0-21.624-17.438-39.16-38.946-39.16-14.11 0-26.47 7.557-33.302 18.86-2-1.315-3.89-2.804-5.622-4.468-.162-.163-.33-.313-.496-.48-.196-.193-.374-.386-.56-.578-.247-.264-.5-.52-.75-.79-.212-.24-.428-.473-.64-.713-.168-.19-.322-.384-.485-.576-.156-.184-.308-.37-.46-.555-3.35-4.155-5.872-9.01-7.32-14.316 5.303 5.203 12.076 8.89 19.62 10.388 4.13-5.34 6.798-11.877 7.423-19.192l-5.106-5.138 4.716-4.738c-1.15-7.09-4.133-13.71-8.442-19.217h-6.143V9.066c-5.36-4.473-11.837-7.53-18.913-8.515l-4.908 4.937-4.94-4.96c-7.052.895-13.52 3.697-18.883 7.868v7.008H515.4c-5.1 6.628-8.15 14.934-8.15 23.955 0 13.724 7.018 25.776 17.635 32.773-3.596 5.923-5.665 12.885-5.665 20.335 0 .328.016.65.02.976 6.995-6.743 16.49-10.904 26.95-10.904v.014c-9.974 7.1-16.49 18.776-16.49 31.99 0 21.632 17.436 39.158 38.94 39.158 21.51 0 38.938-17.526 38.938-39.16 0-4.882-.89-9.565-2.517-13.876 9.987 7.064 16.523 18.735 16.562 31.938 14.567-5.664 24.9-19.882 24.9-36.526zm-69.635 26.108h-12.98v13.053h-12.98v-13.053H537.94v-13.055h12.986V96.074h12.98l.002 13.053h12.98v13.055zM559.895 298.122h-27.392l-25.88 70.007h22.832l4.565-13.7h25.875l4.56 13.7h21.315l-25.875-70.008zm-21.308 42.614l7.605-25.873 9.136 25.873h-16.74zM594.104 279.86h22.83v45.66h22.826v-27.397h21.312v70.006H639.76v-27.394h-22.826v27.393h-22.83v-88.27zM677.81 298.122h22.83v45.658h-22.83v-45.658zM68.778 368.876l27.343-71.12h10.13l29.117 71.12h-10.78l-8.244-21.553H86.61l-7.787 21.553H68.778zm20.52-29.187h24.154l-7.435-19.714c-2.486-6.595-4.163-11.494-5.053-14.715-.882 4.57-2.18 9.08-3.876 13.523l-7.79 20.906zm53.502 29.186v-71.12h9.66l37.29 55.805v-55.803h9.087v71.12h-9.666L151.78 313v55.874h-8.98zM57.49 358.422c-6.25 6.64-14.894 9.953-25.908 9.953H9.142v24.5H.693v-96.2h32.4c22.14 0 33.217 12.14 33.217 36.416 0 10.635-2.934 19.09-8.82 25.332m-23.654-52.925H9.143v54.056h24.883c7.634 0 13.512-2.5 17.64-7.51 4.128-5.007 6.198-11.322 6.198-18.952 0-18.397-8.008-27.593-24.028-27.593M218.66 333.24c0 8.34 2.36 14.854 7.117 19.515 4.732 4.67 11.338 7.01 19.8 7.01 8.44 0 15.012-2.34 19.745-7.03 4.72-4.69 7.09-11.19 7.09-19.494 0-8.33-2.37-14.846-7.118-19.534-4.74-4.696-11.342-7.03-19.81-7.03-8.426 0-15.008 2.334-19.742 7.03-4.723 4.688-7.082 11.204-7.082 19.535m-9.85 0c0-10.89 3.3-19.534 9.905-25.94 6.61-6.398 15.55-9.616 26.862-9.616 11.267 0 20.208 3.218 26.79 9.617 6.582 6.406 9.88 15.05 9.88 25.94 0 10.893-3.298 19.542-9.9 25.94-6.605 6.375-15.553 9.572-26.863 9.572-11.264 0-20.206-3.197-26.78-9.573-6.593-6.398-9.894-15.047-9.894-25.94M292.872 368.817v-71.124h31.51c5.935 0 10.175.43 12.714 1.267 2.508.84 4.608 1.978 6.314 3.43 1.676 1.413 3.143 3.422 4.41 5.93 1.273 2.536 1.904 5.46 1.904 8.78 0 11.075-6.665 17.552-19.984 19.397 2.816 1.224 5.322 3.024 7.51 5.36 2.176 2.307 4.155 4.87 5.932 7.63l12.404 19.33h-11.87l-9.387-14.79c-2.313-3.673-4.316-6.565-5.97-8.727-1.67-2.15-3.293-3.88-4.914-5.118-1.6-1.27-3.068-2.084-4.414-2.437-1.344-.33-3.278-.51-5.81-.51H302.32v31.582h-9.446zm9.446-39.743h20.213c6.346 0 10.833-1.122 13.53-3.325 2.657-2.204 4.003-5.077 4.003-8.65 0-7.69-5.074-11.518-15.248-11.518h-22.497v23.492zm54.31 39.743l27.34-71.124h10.125l29.116 71.125h-10.78l-8.245-21.558h-29.73l-7.786 21.558h-10.043zm20.513-29.19h24.153l-7.428-19.712c-2.487-6.6-4.17-11.498-5.055-14.715-.878 4.565-2.176 9.084-3.878 13.52l-7.79 20.907zm53.276 29.19v-71.124h14.205l16.787 50.41 3.41 10.47 3.8-11.39 17.017-49.49h12.635v71.125h-9.082v-59.534l-20.65 59.534h-8.47l-20.598-60.572v60.572h-9.054zM677.81 368.13h22.83v-16.742h-22.83v16.74zm17.505-6.844h-4.563v4.56H687.7v-4.56h-4.566v-3.048h4.566v-4.57h3.052v4.57h4.563v3.048z"/></g></svg>