<svg width="440" height="260" viewBox="0 0 440 260" xmlns="http://www.w3.org/2000/svg"><title>Dizplay Soundlab</title><path d="M178.316 157.258V37.04l108.606 60.11-108.606 60.108zM323.683 18H118.44c-8.975 0-16.112 7.005-16.112 15.46v127.363c0 7.933 6.566 15.48 16.112 15.48h205.242c8.776 0 16.1-6.825 16.1-15.48V33.46c0-7.48-6.162-15.46-16.1-15.46zM104.957 236.798c-.113-.087-.233-.14-.372-.173h-.212c-.16 0-.3.04-.425.113-.126.093-.193.166-.193.258v.02l.02.02v.027c.02.1.12.172.3.245.165.066.384.126.63.205.16.04.33.08.524.12.185.046.37.092.557.145.464.12.903.292 1.3.517.406.226.645.544.718.968l.02.113.013.16v.19c0 .624-.28 1.134-.836 1.538-.558.405-1.4.61-2.543.61-.844 0-1.608-.126-2.298-.364-.69-.26-1.096-.85-1.262-1.79l2.57-.013c.046.245.146.424.292.53.133.106.285.186.445.225h.086l.1.014c.192 0 .378-.053.53-.153.167-.1.253-.205.253-.338l-.013-.08-.027-.085c-.027-.053-.08-.106-.146-.153-.053-.046-.14-.093-.246-.126-.14-.058-.298-.09-.464-.138-.166-.033-.326-.066-.492-.106-.08-.007-.16-.013-.225-.033-.067-.007-.146-.02-.213-.04-.392-.08-.783-.205-1.142-.358-.358-.145-.664-.404-.903-.768l-.033-.053-.02-.1c-.02-.06-.04-.132-.066-.225-.013-.1-.02-.193-.02-.293 0-.12.007-.245.033-.378.02-.133.066-.266.112-.41.14-.366.445-.704.896-1.015.458-.305 1.182-.464 2.158-.464 1.022 0 1.78.186 2.284.524.498.358.783.75.85 1.167v.107l.013.092v.1h-2.37c-.014-.154-.073-.266-.186-.346v-.006zm31.993.424c-.18.232-.286.497-.34.77l-.026.184v.2c0 .085 0 .184.02.277.007.086.027.186.053.292.06.285.186.543.372.788.178.246.43.365.756.365.332 0 .578-.12.73-.365.16-.245.266-.503.312-.788.007-.106.027-.206.04-.292v-.477l-.033-.185c-.04-.27-.153-.536-.325-.768-.186-.24-.458-.35-.81-.35-.32 0-.57.11-.744.35h-.006zm.75-2.16c.086.006.18.006.26.02.092 0 .185.006.264.026.81.073 1.547.37 2.218.88.683.492 1.05 1.3 1.102 2.394v.178c0 1.1-.365 1.922-1.076 2.44-.71.516-1.487.8-2.337.854l-.17.013h-.406c-.897-.04-1.726-.324-2.477-.854-.756-.524-1.122-1.4-1.122-2.63 0-.956.26-1.672.784-2.162.537-.483 1.114-.814 1.75-.993.207-.046.406-.086.612-.106.213-.04.405-.052.598-.052v-.007m32.763.28v3.718c0 .265.093.45.272.576.166.133.372.2.577.206h.087c.205-.007.39-.073.57-.206.172-.126.265-.31.265-.563v-3.73h2.762v6.25h-2.47v-.843c-.185.352-.444.617-.79.802-.338.172-.703.27-1.075.31l-.133.02h-.247c-.624-.04-1.2-.238-1.706-.616-.518-.377-.77-.888-.77-1.53v-4.394h2.656m33.513-.093v.967c.226-.324.504-.576.843-.762.344-.172.696-.278 1.074-.324.067-.007.133-.014.193-.027h.193c.61 0 1.175.18 1.68.53.51.36.77.856.77 1.532v4.427h-2.663v-3.6c0-.265-.086-.463-.266-.616-.17-.132-.37-.205-.576-.212h-.086c-.206.007-.4.08-.57.212-.18.153-.28.35-.28.63v3.585h-2.656v-6.343h2.344M238 237.48c-.192.28-.292.61-.292.994 0 .37.093.716.26 1 .172.286.45.432.85.432.344 0 .616-.14.802-.418.193-.278.3-.583.312-.914v-.192l-.013-.087c-.028-.31-.134-.596-.313-.855-.18-.258-.445-.39-.79-.39-.346 0-.624.14-.817.43m4.46-4.672v8.78h-2.37v-.84c-.085.298-.33.536-.716.722-.378.18-.803.265-1.268.265-.1 0-.192 0-.285-.007-.092-.02-.178-.026-.285-.04-.61-.1-1.18-.404-1.693-.907-.517-.51-.776-1.278-.776-2.292 0-1.14.26-1.955.763-2.486.504-.536 1.06-.84 1.66-.934.08-.013.158-.02.245-.033.073 0 .146-.007.225-.007.38 0 .737.073 1.07.2.338.132.59.31.77.523v-2.942h2.66m26.65-.007h2.682v8.79h-2.682v-8.79zm33.885 6.072c-.106.053-.206.113-.325.146-.113.04-.24.066-.36.1l-.105.006-.1.033c-.252.046-.478.106-.684.192-.19.08-.284.244-.284.47 0 .165.073.298.226.39.16.08.325.127.53.127l.1-.007.113-.007c.087-.02.18-.046.28-.086.085-.033.158-.08.218-.126.08-.078.16-.164.213-.244.06-.1.1-.18.126-.272.026-.06.053-.145.066-.218.007-.08.013-.146.013-.206v-.053l-.012-.046v-.125l-.013-.066v-.008zm-3.44-3.228c.432-.384 1.415-.576 2.95-.576 1.433 0 2.31.232 2.66.67.34.463.538.96.578 1.497l.014.06.013.046v3.308c0 .16.02.292.08.424.053.126.16.24.312.345v.172H303.3l-.1-.664c-.172.226-.438.405-.816.55-.385.146-.783.226-1.208.26-.06 0-.126.006-.186.006-.067.006-.126.013-.186.013h-.14c-.404-.027-.796-.1-1.168-.232-.365-.133-.644-.365-.83-.676l-.053-.106-.073-.152c-.04-.1-.08-.218-.113-.357-.04-.14-.053-.29-.053-.437 0-.093.007-.2.02-.29.027-.114.053-.22.086-.313.034-.106.1-.212.16-.318.066-.113.14-.2.22-.298.21-.22.477-.398.835-.497.346-.113.71-.193 1.09-.24.132-.025.278-.052.424-.065.138-.02.27-.033.397-.06.193-.013.385-.04.558-.066.18-.027.32-.066.438-.113.1-.02.18-.066.252-.126.067-.073.113-.14.127-.192l.006-.046.007-.054-.007-.04-.006-.033c-.027-.093-.093-.16-.206-.232-.12-.065-.272-.105-.465-.105-.238 0-.45.04-.643.106-.18.074-.285.213-.34.445l-2.66-.02c.145-.683.444-1.213.89-1.59zm35.44 1.836c-.213.28-.313.61-.313.994 0 .37.1.716.312 1 .213.286.498.432.89.432.365 0 .624-.146.797-.43.167-.286.253-.604.26-.935v-.158c-.014-.332-.113-.637-.286-.908-.173-.285-.412-.425-.724-.425h-.046c-.392 0-.677.14-.89.43m-.186-4.672v2.93c.186-.213.452-.378.797-.51.34-.127.69-.2 1.076-.2.067 0 .127.007.2.007.066.013.14.013.2.02.616.086 1.18.377 1.685.888.51.517.77 1.325.77 2.44 0 1.125-.265 1.954-.823 2.47-.544.51-1.148.816-1.806.875h-.14l-.145.007c-.417 0-.81-.08-1.18-.225-.373-.166-.658-.378-.857-.663v.742h-2.437v-8.782h2.662zm-121.12-6.322h-11.684v-26.973c0-.928.18-1.803.558-2.63.378-.816.876-1.532 1.5-2.135.624-.597 1.36-1.074 2.224-1.432.857-.364 1.773-.53 2.742-.53h23.395c.963 0 1.88.166 2.73.53.87.358 1.6.842 2.23 1.44.624.602 1.128 1.31 1.5 2.14.365.814.564 1.69.564 2.617v11.246c0 .934-.2 1.802-.564 2.624-.372.828-.876 1.544-1.5 2.147-.618.597-1.36 1.074-2.21 1.44-.864.357-1.78.53-2.743.53h-16.385v-6.727h9.368c.65 0 1.208-.22 1.666-.657.45-.437.683-.96.683-1.603v-6.747c0-.63-.232-1.16-.684-1.604-.46-.437-1.017-.656-1.667-.656h-9.38c-.652 0-1.21.22-1.667.656-.452.438-.678.968-.678 1.598v24.726zm30.373-42.68h11.7V217.5h-11.7v-33.694zm41.906 17.96c0-.636-.226-1.166-.684-1.604-.458-.437-1.01-.65-1.66-.65h-9.38c-.657 0-1.208.213-1.66.65-.458.444-.677.975-.677 1.604v6.747c0 .643.22 1.166.677 1.603.452.438 1.003.657 1.66.657h9.36v6.726h-16.377c-.97 0-1.88-.173-2.736-.53-.857-.366-1.594-.843-2.225-1.446-.617-.596-1.128-1.312-1.487-2.14-.378-.822-.564-1.69-.564-2.625v-11.24c0-.935.186-1.81.564-2.625.36-.828.87-1.537 1.487-2.14.63-.597 1.368-1.074 2.224-1.44.862-.363 1.772-.53 2.74-.53h23.403c.97 0 1.88.167 2.735.53.863.36 1.6.836 2.224 1.433.618.603 1.13 1.312 1.507 2.134.365.822.55 1.703.55 2.63V217.5h-11.684v-15.734zm28.746 8.35c.452.43 1.003.657 1.667.657h11.716v-17.987h11.685v33.7h-11.684V217.5h-18.72c-.977 0-1.9-.18-2.75-.538-.856-.358-1.6-.835-2.217-1.438-.632-.596-1.13-1.305-1.508-2.134-.372-.815-.55-1.69-.55-2.617v-17.987h11.683v15.74c0 .63.226 1.153.677 1.59zm-187.43-26.31h11.692v26.96c0 .928-.192 1.803-.557 2.63-.372.816-.883 1.532-1.5 2.135-.63.597-1.368 1.074-2.225 1.44-.863.35-1.772.53-2.735.53h-23.402c-.963 0-1.885-.18-2.742-.53-.856-.366-1.6-.843-2.224-1.44-.618-.602-1.13-1.318-1.508-2.14-.365-.828-.55-1.696-.55-2.637v-11.24c0-.92.185-1.796.55-2.618.38-.835.89-1.537 1.507-2.134.617-.602 1.36-1.08 2.217-1.444.856-.364 1.772-.53 2.74-.53h16.38v6.72h-9.368c-.652 0-1.203.22-1.654.663-.45.43-.684.967-.684 1.596v6.753c0 .636.233 1.16.684 1.596.45.438 1.002.657 1.653.657h9.38c.657 0 1.215-.22 1.666-.65.452-.444.677-.967.677-1.597v-24.72zm16.38 8.98h11.69V217.5h-11.69v-24.714zm0-8.98h11.69v6.767h-11.69v-6.767zm53.59 27.046l-22.428.007 18.788-7.18s4.847-1.662 3.91-6.222c-.935-4.546-5.82-4.705-5.82-4.705h-31.676v6.694h22.42l-18.317 6.985s-4.78 1.484-4.29 6.196c.492 4.712 5.843 4.878 5.843 4.878h31.568v-6.654 6.654" fill="#000" fill-rule="evenodd"/></svg>