<svg width="1024" height="240" viewBox="0 0 1024 240" xmlns="http://www.w3.org/2000/svg"><title>logo-sec</title><path d="M609.185 31h4.92v177.608h-4.92V31zm67.283 80.42c-2.12 0-3.923-.213-5.5-.63l.487-4.413c1.552.63 3.283 1.02 5.19 1.02 2.146 0 3.983-.878 3.983-3.108 0-4.558-10.015-2.47-10.015-10.314 0-4.236 3.248-7.167 8.996-7.167 1.303 0 2.962.177 4.3.462l-.426 4.023c-1.303-.428-2.678-.677-4.088-.677-2.68 0-3.912 1.175-3.912 2.86 0 4.272 10.193 2.694 10.193 10.253 0 4.415-3.71 7.69-9.21 7.69m12.47-.38V87.2h12.942v3.845h-8.357v5.862h7.93v3.75h-7.93v6.456h8.356v3.928h-12.944m26.572.274c-8.32 0-10.998-5.507-10.998-11.44 0-7.56 3.946-12.887 11.923-12.887 1.694 0 3.52.25 5.084.7l-.64 4.213c-1.446-.534-3.07-.82-4.693-.82-4.445 0-6.625 3.36-6.625 8.023 0 5.15 2.144 8.045 6.944 8.045 1.446 0 3.283-.38 4.515-.985l.7 4.06c-1.767.675-3.984 1.09-6.212 1.09m15.763-20.517c-.663 0-1.338.036-1.8.107v6.883c.32.047.96.083 1.66.083 2.75 0 4.443-1.413 4.443-3.644 0-2.29-1.41-3.43-4.302-3.43m5.014 20.245l-6.423-9.86h-.39v9.86h-4.587V87.2c1.873-.106 4.09-.142 6.85-.142 5.25 0 8.64 1.828 8.64 6.705 0 3.536-2.536 6.076-5.854 6.645.64.878 1.338 1.768 1.907 2.61l5.534 8.023h-5.676m8.12 0V87.2h12.94v3.845h-8.366v5.862h7.94v3.75h-7.94v6.456h8.367v3.928h-12.942m25.932-19.923v19.924h-4.587V91.118h-6.163V87.2h16.925v3.917h-6.175m12.954-5.364l-.736-2.48 7.29-2.647 1.03 3.252-7.585 1.875zm3.07 9.992c-.428-1.163-.748-2.267-.985-3.288h-.048c-.272 1.02-.557 2.125-.948 3.288l-2.36 6.775h6.697l-2.358-6.775zm5.178 15.296l-1.648-4.877h-8.995l-1.66 4.878h-4.622l8.32-23.84h5.18l8.51 23.84h-5.085zm13.712-20.244c-.663 0-1.34.036-1.79.107v6.883c.32.047.95.083 1.66.083 2.75 0 4.444-1.413 4.444-3.644 0-2.29-1.422-3.43-4.314-3.43m5.014 20.245l-6.424-9.86h-.38v9.86h-4.586V87.2c1.873-.106 4.09-.142 6.84-.142 5.25 0 8.64 1.828 8.64 6.705 0 3.536-2.538 6.076-5.856 6.645.64.878 1.34 1.768 1.908 2.61l5.535 8.023h-5.676m8.118-23.84h4.587v23.83h-4.588V87.2zm19.236 3.74c-3.283 0-6.317 2.61-6.317 7.985 0 5.043 1.98 8.33 6.247 8.33 3.105 0 6.423-2.397 6.423-8.128 0-5.293-2.263-8.188-6.352-8.188m-.39 20.48c-7.267 0-10.834-4.628-10.834-11.997 0-7.88 5.262-12.614 11.65-12.614 6.34 0 10.82 3.808 10.82 11.972 0 7.868-5.178 12.638-11.637 12.638m30.33-20.517c-1.056 0-2.04.036-2.787.107v16.067c.64.107 1.59.178 2.5.178 4.493 0 7.73-2.54 7.73-8.188 0-5.126-2.004-8.164-7.444-8.164m-.735 20.28c-2.464 0-4.62-.107-6.636-.178v-23.77c1.872-.07 4.764-.177 7.692-.177 7.37 0 12.065 3.275 12.065 11.653 0 8.19-5.356 12.473-13.12 12.473m16.63-.142V87.2h12.94v3.845h-8.354v5.862h7.928v3.75h-7.928v6.456h8.355v3.928h-12.94m25.077 0V87.2h12.943v3.845h-8.356v5.862h7.93v3.75h-7.93v6.456h8.356v3.928h-12.943m21.547.38c-2.11 0-3.91-.213-5.5-.63l.5-4.413c1.55.63 3.27 1.02 5.178 1.02 2.157 0 3.982-.878 3.982-3.108 0-4.558-10.003-2.47-10.003-10.314 0-4.236 3.237-7.167 8.985-7.167 1.304 0 2.963.177 4.302.462l-.427 4.023c-1.303-.428-2.678-.677-4.09-.677-2.677 0-3.91 1.175-3.91 2.86 0 4.272 10.193 2.694 10.193 10.253 0 4.415-3.698 7.69-9.21 7.69m20.93-20.303v19.924h-4.585V91.118h-6.163V87.2h16.924v3.917h-6.176m16.024 4.628c-.427-1.163-.735-2.267-.984-3.288h-.035c-.286 1.02-.57 2.125-.95 3.288l-2.37 6.775h6.697l-2.36-6.775zm5.18 15.296l-1.648-4.877h-8.996l-1.66 4.878h-4.62l8.32-23.84h5.19l8.498 23.84h-5.085zm14.708-20.137c-1.055 0-2.04.036-2.786.107v16.067c.63.107 1.59.178 2.5.178 4.48 0 7.73-2.54 7.73-8.188 0-5.126-2.016-8.164-7.444-8.164m-.747 20.28c-2.466 0-4.61-.107-6.626-.178v-23.77c1.872-.07 4.764-.177 7.692-.177 7.37 0 12.065 3.275 12.065 11.653 0 8.19-5.368 12.473-13.13 12.473m26.57-20.244c-3.27 0-6.304 2.61-6.304 7.985 0 5.043 1.98 8.33 6.245 8.33 3.107 0 6.413-2.397 6.413-8.128 0-5.293-2.252-8.188-6.352-8.188m-.38 20.48c-7.264 0-10.83-4.628-10.83-11.997 0-7.88 5.26-12.614 11.637-12.614 6.353 0 10.833 3.808 10.833 11.972 0 7.868-5.19 12.638-11.64 12.638m-333.32 20.838c-1.055 0-2.05.036-2.785.107v16.068c.64.106 1.588.178 2.5.178 4.48 0 7.728-2.54 7.728-8.2 0-5.114-2.003-8.152-7.443-8.152m-.735 20.27c-2.477 0-4.622-.108-6.637-.18V128.58c1.873-.06 4.765-.167 7.692-.167 7.372 0 12.065 3.276 12.065 11.654 0 8.188-5.37 12.46-13.12 12.46m25.02-15.427c-.427-1.175-.747-2.267-.996-3.287h-.025c-.296 1.02-.57 2.112-.96 3.287l-2.358 6.776h6.696l-2.36-6.776zm5.18 15.284l-1.66-4.865h-8.984l-1.66 4.864h-4.62l8.32-23.84h5.18l8.508 23.84h-5.084zm25.148.285c-8.32 0-11.01-5.507-11.01-11.44 0-7.56 3.958-12.888 11.923-12.888 1.695 0 3.532.238 5.084.7l-.64 4.2c-1.446-.52-3.057-.806-4.68-.806-4.457 0-6.638 3.36-6.638 8.01 0 5.162 2.157 8.058 6.945 8.058 1.446 0 3.283-.392 4.516-.985l.71 4.057c-1.765.665-3.993 1.092-6.21 1.092zm18.31.106c-7.5 0-9.196-4.094-9.196-8.65v-15.582h4.575v15.296c0 3.002.996 5.127 4.942 5.127 3.532 0 5.014-1.484 5.014-5.554v-14.87h4.54v14.597c0 6.49-3.592 9.636-9.874 9.636zm14.473-.392v-23.84h4.586v19.817h7.728v4.024h-12.314zm21.31-19.912v19.912h-4.587v-19.912h-6.176v-3.928h16.936v3.928h-6.175zm17.848 20.304c-7.514 0-9.21-4.094-9.21-8.65v-15.582h4.6v15.296c0 3.002.983 5.127 4.93 5.127 3.532 0 5.013-1.484 5.013-5.554v-14.87h4.552v14.597c0 6.49-3.604 9.636-9.886 9.636m20.86-20.625c-.676 0-1.34.037-1.802.108v6.883c.32.037.96.072 1.66.072 2.75 0 4.444-1.412 4.444-3.63 0-2.303-1.41-3.43-4.303-3.43m5.014 20.232l-6.424-9.85h-.39v9.85h-4.588v-23.84c1.873-.107 4.1-.13 6.85-.13 5.25 0 8.64 1.827 8.64 6.704 0 3.536-2.536 6.076-5.854 6.634.63.89 1.34 1.768 1.897 2.622l5.547 8.01h-5.677m18.678-15.284c-.426-1.175-.746-2.267-.995-3.287h-.024c-.296 1.02-.58 2.112-.96 3.287l-2.36 6.776h6.698l-2.36-6.776zm5.18 15.284l-1.66-4.865h-8.995l-1.66 4.864h-4.622l8.332-23.84h5.18l8.51 23.84h-5.086zM26.44 116.547c6.046 9.007 16.05 15.142 27.52 15.877l-.567-3.95c-9.27-.844-17.4-5.626-22.71-12.675-.247-.013-3.933.604-4.242.747zM54.34 31v39.03l-16.224-.012c4.432-3.062 9.647-5.056 15.3-5.566l.534-3.95c-11.13.734-20.87 6.525-26.963 15.093-.51.024-.89.13-1.138.308l-.025.024-3.14 6.123c-.036.048-.095.32-.036.606.13-.76.615-.784 1.077-.784 1.66 0 5.002 1.128 9.4 3.05v4.77c-.167.024-.345.06-.51.095-3.07.594-5.867 1.353-8.072 2.16.368-2.622 1.055-5.15 2.015-7.523-.213-.285-3.153-2.136-3.32-2.184-1.563 3.655-2.535 7.607-2.82 11.76-.296.25-.485.487-.568.712l-.012.012v4.082c0 .166.19.26.26.31-.19-.203.024-.488.096-.57.13-.167.296-.345.485-.487.18-.156.38-.31.606-.452.604-.38 1.375-.772 2.275-1.14.227-.083.44-.166.677-.25 2.442-.936 5.594-1.78 8.522-2.36l.366-.07v7c0 2.705.486 5.316 1.375 7.784-1.066.26-2.133.51-3.14.82-1.316.367-2.655.806-3.828 1.28-1.896-3.832-3.046-8.092-3.26-12.613-.225-.025-3.555.592-3.863.746.32 4.937 1.634 9.612 3.732 13.813-.142.19-.225.367-.26.52l.035.06s1.86 3.216 1.956 3.36c.083.153.26.248.414.295-.284-.2-.154-.427-.083-.51.76-1.068 3.995-2.385 6.258-3.002 1.22-.356 2.5-.665 3.828-.95.996 1.71 2.205 3.31 3.65 4.747 3.983 3.964 9.032 6.325 14.4 6.788v9.102C5.986 146.344-.046 192.505-.046 192.505v-71.817C-.047 73.34 18.263 42.64 54.34 31zm4.03 33.38v5.65l16.214.023c-4.67-3.24-10.217-5.292-16.214-5.672zm64.368 38.188c-9.517 68.506-78.97 31.565-113.873 74 7.372-19.295 32.415-33.036 49.505-36.43v-7.69c10.62-.593 19.994-5.79 26.193-13.635-.107-.118-3.117-1.803-3.473-1.886-5.475 6.645-13.582 11.036-22.72 11.617v-4.628c5.405-.463 10.442-2.8 14.353-6.705 1.8-1.802 3.26-3.855 4.35-6.04 4.373 3.336 7.028 5.828 7.632 7.074.545 1.14-.13 1.175-.225 1.234.344-.024.533-.226.628-.392.107-.154.403-.64.403-.64.108-.13 3.26-4.866 3.26-4.866.154-.297.107-.724-.13-1.222 2.04-4.142 3.307-8.722 3.615-13.576-.308-.154-3.58-.842-3.84-.83-.178 3.916-1.055 7.654-2.513 11.095-1.647-1.566-3.9-3.406-6.542-5.376.107-.948.178-1.873.178-2.835v-7.048l.38.07c5.25 1.045 11.223 2.908 12.55 4.688.083.083.273.368.095.57.083-.048.25-.143.25-.31v-4.093c-.084-.225-.286-.463-.57-.712-.32-4.7-1.53-9.16-3.484-13.207-.416-.107-4.446-.487-4.66-.487 2.04 3.513 3.438 7.44 4.03 11.64-2.204-.806-5.013-1.565-8.083-2.16-.166-.034-.33-.07-.51-.093V77.66c4.398.937 7.716 1.958 9.34 2.907.356.214.213.368.07.415.238-.07.37-.284.262-.462-.096-.178-2.182-3.905-2.24-4.023l-.037-.024c-.284-.214-.652-.427-1.102-.653-6.126-8.793-16.094-14.702-27.46-15.33V44.574s27.45-10.43 66.513-12.638c0 0-.12 32.68-1.162 59.24-.164 4.093-.484 7.878-.982 11.39zM74.76 78.418h-2.69c.05-1.648 1.33-2.028 1.33-2.028h.022s1.257.38 1.34 2.03zM45.89 112.8l-1.908 1.92c-1.126-1.22-.486-2.396-.486-2.396.024 0 1.174-.64 2.394.475zm23.384-.476c.012 0 .628 1.175-.486 2.397l-1.896-1.923c1.232-1.116 2.37-.475 2.37-.475h.012zM57.684 78.42h-2.68c.036-1.65 1.304-2.03 1.316-2.03.012 0 1.28.38 1.363 2.03zm17.077 17.8h-2.69c.05-1.638 1.33-2.018 1.33-2.018h.022s1.257.38 1.34 2.017zm-34.333-17.8h-2.68c.06-1.65 1.33-2.03 1.34-2.03.012 0 1.27.38 1.34 2.03zm0 17.8h-2.68c.06-1.638 1.33-2.018 1.34-2.018.012 0 1.27.38 1.34 2.017zM76.243 79.39h-5.665c-.273 0-.474-.225-.474-.474 0-.26.2-.5.474-.5h.095l.19-1.97c-.262-.022-.44-.224-.44-.485 0-.285.214-.487.487-.487h.047l.06-.89h-.226l-.094-.095v-.628h.297v.32h.403v-.32h.296v.32h.427v-.32h.295v.64l-.107.084h-.213l.047.89h.557l.106-1.898h-.142l-.107-.107v-.604h.284v.284h.416v-.284h.297v.284h.414v-.284h.285v.605l-.095.108h-.154l.118 1.898h.535l.06-.89H74.5l-.094-.095v-.628h.273v.32h.413v-.32h.308v.32h.416v-.32h.273v.64l-.096.084h-.2l.046.89h.06c.272 0 .497.202.497.487 0 .26-.2.474-.45.498l.213 1.96h.083c.273 0 .474.237.474.498 0 .25-.2.474-.474.474zm0 17.777h-5.665c-.273 0-.474-.203-.474-.452 0-.285.2-.5.474-.5h.095l.19-1.97c-.262-.034-.44-.236-.44-.485 0-.273.214-.5.487-.5h.047l.06-.877h-.226l-.094-.095v-.628h.297v.333h.403v-.333h.296v.333h.427v-.333h.295v.63l-.107.094h-.213l.047.878h.557l.106-1.898h-.142l-.107-.107v-.606h.284v.308h.416v-.308h.297v.308h.414v-.308h.285v.63l-.095.082h-.154l.118 1.898h.535l.06-.878H74.5l-.094-.095v-.628h.273v.333h.413v-.333h.308v.333h.416v-.333h.273v.63l-.096.094h-.2l.046.878h.06c.272 0 .497.226.497.5 0 .26-.2.462-.45.485l.213 1.97h.083c.273 0 .474.213.474.498 0 .25-.2.45-.474.45zm-3.698 15.734h-.142l-.12-.12-.034-.035-.582.64.024.024c.213.214.213.534 0 .712-.166.19-.462.19-.664.06l-1.256 1.506.07.072c.19.178.19.486 0 .676-.2.214-.51.214-.686 0l-4.018-3.987c-.178-.202-.178-.51 0-.688.213-.214.52-.214.723-.024l.048.084 1.53-1.246c-.167-.214-.167-.487.023-.677.202-.188.534-.188.712 0l.047.05.65-.594-.046-.024-.107-.12v-.14l.44-.428.212.19-.238.237.308.286.2-.226.227.214-.226.225.298.284.2-.202.215.19-.44.44h-.14l-.108-.108-.035-.047-.557.653.367.367 1.41-1.246-.094-.093-.024-.143.45-.45.19.2-.213.226.307.297.2-.225.214.225-.212.214.296.297.226-.213.19.2-.44.43h-.14l-.108-.12-1.256 1.412.39.392.653-.558-.037-.047-.107-.107v-.13l.44-.452.188.214-.213.213.297.298.226-.237.2.226-.2.214.284.285.213-.214.19.203-.415.45zm-25.375-2.99c-2.477-2.47-3.84-5.685-3.84-9.043l.024-20.47 25.825.013v20.458c0 3.42-1.34 6.623-3.77 9.043-2.453 2.457-5.69 3.798-9.114 3.798-3.437 0-6.684-1.352-9.126-3.797zm.463 2.54l-4.006 3.986c-.19.214-.498.214-.688 0-.202-.19-.202-.498 0-.676l.06-.072-1.246-1.507c-.213.13-.498.13-.675-.06-.203-.177-.203-.497 0-.71l.022-.025-.57-.64-.046.035-.107.12h-.13l-.44-.452.19-.202.237.215.284-.285-.224-.214.225-.225.215.238.296-.297-.236-.212.202-.214.45.45v.132l-.12.107-.034.047.664.558.39-.392-1.267-1.412-.108.12h-.142l-.427-.43.2-.2.215.213.296-.296-.213-.213.202-.225.225.225.297-.297-.225-.225.224-.202.426.45v.144l-.13.094 1.422 1.247.38-.367-.58-.653-.05.047-.093.107h-.156l-.426-.438.213-.19.214.202.285-.285-.226-.226.225-.214.212.226.297-.285-.215-.237.202-.19.438.428v.143l-.106.12-.05.023.64.593.06-.05c.178-.188.51-.188.7 0 .177.19.177.464.035.678l1.517 1.246.07-.083c.19-.19.5-.19.7.025.178.178.178.486 0 .688zM35.78 96.717c0-.285.226-.5.475-.5h.095l.19-1.97c-.25-.034-.45-.236-.45-.485 0-.273.236-.5.497-.5h.047l.036-.877h-.19l-.107-.095v-.628h.285v.333h.415v-.333h.308v.333h.404v-.333h.308v.63l-.107.094h-.213l.047.878h.556l.107-1.898h-.154l-.096-.107v-.606h.285v.308h.413v-.308h.297v.308h.403v-.308h.296v.63l-.096.082h-.154l.107 1.898h.545l.047-.878h-.214l-.083-.095v-.628h.273v.333h.414v-.333h.31v.333h.413v-.333h.285v.63l-.095.094h-.213l.047.878h.06c.272 0 .497.226.497.5 0 .26-.19.462-.45.485l.2 1.97h.084c.273 0 .498.213.498.498 0 .25-.225.45-.498.45h-5.653c-.25 0-.474-.2-.474-.45zm.475-18.3h.095l.19-1.97c-.25-.022-.45-.224-.45-.485 0-.285.236-.487.497-.487h.047l.036-.89h-.19l-.107-.095v-.628h.285v.32h.415v-.32h.308v.32h.404v-.32h.308v.64l-.107.084h-.213l.047.89h.556l.107-1.898h-.154l-.096-.107v-.604h.285v.284h.413v-.284h.297v.284h.403v-.284h.296v.605l-.096.108h-.154l.107 1.898h.545l.047-.89h-.214l-.083-.095v-.628h.273v.32h.414v-.32h.31v.32h.413v-.32h.285v.64l-.095.084h-.213l.047.89h.06c.272 0 .497.202.497.487 0 .26-.19.474-.45.498l.2 1.96h.084c.273 0 .498.237.498.498 0 .25-.225.474-.498.474h-5.653c-.25 0-.474-.225-.474-.474 0-.26.226-.5.475-.5zm17.256 0h.072l.202-1.97c-.25-.022-.45-.224-.45-.485 0-.285.225-.487.497-.487h.05l.058-.89h-.225l-.095-.095v-.628h.284v.32h.427v-.32h.283v.32h.415v-.32h.308v.64l-.118.084h-.214l.072.89h.545l.107-1.898h-.142l-.106-.107v-.604h.27v.284h.428v-.284h.284v.284h.427v-.284h.283v.605l-.094.108h-.156l.095 1.898h.544l.06-.89h-.214l-.094-.095v-.628h.284v.32h.415v-.32h.296v.32h.428v-.32h.272v.64l-.083.084h-.225l.06.89h.06c.283 0 .497.202.497.487 0 .26-.19.474-.452.498l.19 1.96h.095c.272 0 .486.237.486.498 0 .25-.215.474-.487.474H53.51c-.283 0-.485-.225-.485-.474 0-.26.202-.5.486-.5zm-18.82-6.715l-.035 29.144v.024c0 5.887 2.44 11.262 6.376 15.178 3.912 3.928 9.33 6.36 15.266 6.36 5.938 0 11.33-2.42 15.242-6.336 3.91-3.868 6.33-9.268 6.33-15.2V71.7H34.69zM65.683 95.71c-.344 0-.64-.298-.64-.654 0-.356.296-.652.64-.652.38 0 .664.296.664.652 0 .356-.285.653-.664.653zm0 2.93c-.344 0-.64-.285-.64-.653 0-.356.296-.652.64-.652.38 0 .664.296.664.652 0 .368-.285.653-.664.653zm-1.458-1.47c-.355 0-.652-.286-.652-.642 0-.368.297-.653.652-.653.368 0 .652.285.652.653 0 .356-.284.64-.652.64zm-1.458-1.46c-.355 0-.65-.298-.65-.654 0-.356.295-.652.65-.652.356 0 .64.296.64.652 0 .356-.284.653-.64.653zm0 2.93c-.355 0-.65-.285-.65-.653 0-.356.295-.652.65-.652.356 0 .64.296.64.652 0 .368-.284.653-.64.653zm-1.398-5.198v4.083c0 2.03 1.623 3.06 2.855 3.06 1.245 0 2.868-1.03 2.868-3.06v-4.083H61.37zm-14.39 3.893c.356 0 .64.296.64.652 0 .368-.284.653-.64.653-.355 0-.663-.285-.663-.653 0-.356.308-.652.664-.652zm0-2.93c.356 0 .64.295.64.65 0 .357-.284.654-.64.654-.355 0-.663-.298-.663-.654 0-.356.308-.652.664-.652zm1.46 1.47c.342 0 .65.285.65.653 0 .356-.308.64-.65.64-.37 0-.653-.284-.653-.64 0-.368.284-.653.652-.653zm1.456 1.46c.356 0 .652.296.652.652 0 .368-.296.653-.652.653-.355 0-.652-.285-.652-.653 0-.356.297-.652.652-.652zm0-2.93c.356 0 .652.295.652.65 0 .357-.296.654-.652.654-.355 0-.652-.298-.652-.654 0-.356.297-.652.652-.652zm-4.314 3.12c0 2.03 1.612 3.06 2.857 3.06 1.22 0 2.855-1.03 2.855-3.06v-4.083h-5.713v4.083zm8.64.462c0-.356.285-.652.652-.652.356 0 .652.296.652.652 0 .368-.296.653-.652.653-.367 0-.652-.285-.652-.653zm.652-3.583c.356 0 .652.296.652.652 0 .356-.296.653-.652.653-.367 0-.652-.298-.652-.654 0-.356.285-.652.652-.652zm1.458 1.47c.355 0 .64.286.64.654 0 .356-.285.64-.64.64-.356 0-.64-.284-.64-.64 0-.368.284-.653.64-.653zm1.47 1.46c.355 0 .64.297.64.653 0 .368-.285.653-.64.653-.368 0-.664-.285-.664-.653 0-.356.296-.652.663-.652zm0-2.93c.355 0 .64.296.64.652 0 .356-.285.653-.64.653-.368 0-.664-.298-.664-.654 0-.356.296-.652.663-.652zm-1.47 6.182c1.232 0 2.856-1.032 2.856-3.06V93.44h-5.712v4.083c0 2.03 1.623 3.06 2.856 3.06zm-1.458 6.634c.356 0 .652.284.652.64 0 .356-.296.665-.652.665-.367 0-.652-.31-.652-.665 0-.356.285-.64.652-.64zm0-2.943c.356 0 .652.308.652.664 0 .357-.296.642-.652.642-.367 0-.652-.285-.652-.64 0-.357.285-.665.652-.665zm1.458 1.47c.355 0 .64.286.64.654 0 .357-.285.653-.64.653-.356 0-.64-.296-.64-.652 0-.367.284-.652.64-.652zm1.47 1.473c.355 0 .64.284.64.64 0 .356-.285.665-.64.665-.368 0-.664-.31-.664-.665 0-.356.296-.64.663-.64zm0-2.943c.355 0 .64.308.64.664 0 .357-.285.642-.64.642-.368 0-.664-.285-.664-.64 0-.357.296-.665.663-.665zm-4.326 3.144c0 2.007 1.623 3.05 2.856 3.05 1.232 0 2.856-1.043 2.856-3.05v-4.105h-5.712v4.106zm1.398-19.958c.356 0 .652.284.652.64 0 .368-.296.665-.652.665-.367 0-.652-.297-.652-.665 0-.356.285-.64.652-.64zm0-2.93c.356 0 .652.295.652.65 0 .357-.296.642-.652.642-.367 0-.652-.285-.652-.64 0-.357.285-.653.652-.653zm1.458 1.458c.355 0 .64.297.64.665 0 .344-.285.64-.64.64-.356 0-.64-.296-.64-.64 0-.368.284-.665.64-.665zm1.47 1.472c.355 0 .64.284.64.64 0 .368-.285.665-.64.665-.368 0-.664-.297-.664-.665 0-.356.296-.64.663-.64zm0-2.93c.355 0 .64.295.64.65 0 .357-.285.642-.64.642-.368 0-.664-.285-.664-.64 0-.357.296-.653.663-.653zm-4.326 3.12c0 2.017 1.623 3.06 2.856 3.06 1.232 0 2.856-1.043 2.856-3.06v-4.095h-5.712v4.094zm-5.25 76.717v44.227s-45.287.842-43.2-18.287c3.39-22.725 43.2-25.94 43.2-25.94zM511.17 110.35v-2.788c1.67-.416 3.698-.7 5.642-.855V70.22c-1.944-.143-3.97-.475-5.642-.855v-2.79h28.658v9.72h-3.295c-.39-2.124-.853-4.284-.972-5.826h-13.84v15.437h10.167c.273-1.685.593-3.31 1.043-4.747h2.928v13.232h-2.928c-.45-1.412-.84-3.18-1.043-4.735H521.72v16.65h13.9c.202-1.674.58-3.822 1.056-5.946h3.27v9.992H511.17zm-24.71-39.955c-2.42 0-5.322.13-7.124.19v35.41c1.802.26 4.457.45 6.258.45 11.082 0 18.726-5.635 18.726-18.084 0-11.866-6.02-17.966-17.86-17.966zm-1.494 40.122c-4.338 0-8.036-.168-10.56-.168h-5.642v-2.788c1.672-.416 3.698-.7 5.642-.855V70.22c-1.944-.143-3.97-.475-5.642-.855v-2.79h5.583c3.413 0 8.142-.19 12.68-.19 14.176 0 22.45 6.742 22.45 21.658 0 15.023-10.147 22.476-24.51 22.476zm-53.393-40.253c-7.727 0-14.59 6.29-14.59 17.776 0 10.94 4.753 18.536 14.59 18.536 7.62 0 14.626-6.22 14.626-17.837 0-11.724-5.382-18.476-14.627-18.476zm-.533 40.667c-13.06 0-19.366-8.78-19.366-21.99 0-14.737 9.28-22.96 20.527-22.96 11.84 0 19.296 7.914 19.296 21.988 0 14.667-9.256 22.962-20.456 22.962zm-26.868-40.667v40.085h-6.59l-18.323-29.06c-1.956-3.193-3.65-6.09-5.06-8.937.45 7.832.45 20.625.45 34.283 1.824.143 3.756.44 5.368.926v2.788H364.16v-2.788c1.683-.416 3.698-.783 5.64-.926v-36.42c-1.942-.14-3.957-.473-5.64-.853v-2.79h12.255l18.12 28.72c1.874 3.048 3.557 5.968 5.18 9.077-.39-7.714-.45-20.423-.45-34.105-1.813-.12-3.71-.475-5.238-.902v-2.79h14.767v2.79c-1.446.38-3.07.712-4.622.902zm-61.535.07c-1.636 0-2.975.06-4.29.19v15.76c.734.06 2.074.13 4.03.13 6.73 0 10.62-3.453 10.62-8.318 0-5.685-3.687-7.762-10.36-7.762zm10.228 40.015L339.4 90.108h-1.053v16.6c1.754.156 3.626.37 5.203.856v2.788H327.8v-2.788c1.693-.416 3.696-.7 5.64-.855V70.22c-1.944-.143-3.947-.475-5.64-.855v-2.79h4.988c1.754 0 5.7-.19 10.95-.19 8.226 0 14.425 2.838 14.425 11.014 0 7.463-5.807 11.735-13.393 12.257 1.09 1.293 2.205 2.848 3.19 4.272l8.72 12.65c1.554.2 3.427.497 5.382.9v2.872h-9.197zm-58.832 0v-2.788c1.683-.416 3.697-.7 5.64-.855V70.22c-1.943-.143-3.957-.475-5.64-.855v-2.79h28.68v9.72h-3.33c-.367-2.124-.83-4.284-.96-5.826h-13.82v15.437h10.17c.26-1.685.57-3.31 1.03-4.747h2.905v13.232h-2.904c-.462-1.412-.865-3.18-1.03-4.735h-10.17v16.65h13.89c.18-1.674.582-3.822 1.044-5.946h3.295v9.992h-28.8zM266.95 95.697c.902 2.587 2.123 6.016 3.035 9.34h.07c.843-3.193 1.933-6.36 3.118-9.743l9.114-25.075c-1.8-.143-3.686-.475-5.31-.855v-2.79h14.567v2.79c-1.09.32-2.845.64-4.077.783l-14.886 40.204h-5.5l-14.446-40.204c-1.22-.142-2.975-.463-4.065-.783v-2.79h14.99v2.79c-1.587.38-3.554.712-5.344.854l8.735 25.477zm-38.043-25.43c-7.68 0-14.543 6.29-14.543 17.776 0 10.94 4.706 18.536 14.543 18.536 7.644 0 14.66-6.22 14.66-17.837 0-11.724-5.38-18.476-14.66-18.476zm-.534 40.667c-13.072 0-19.33-8.78-19.33-21.99 0-14.737 9.244-22.96 20.527-22.96 11.84 0 19.283 7.914 19.283 21.988 0 14.667-9.256 22.962-20.48 22.962zM201.66 91.947v16.507c-4.41 1.602-9.66 2.48-14.247 2.48-13.025 0-21.57-8.07-21.57-21.67 0-13.35 8.747-23.28 23.182-23.28 4.018 0 7.834.592 11.65 1.637v9.66H197.3c-.44-2.207-.7-4.153-.842-5.97-2.714-.723-5.428-1.09-7.952-1.09-9.197 0-17.387 5.968-17.387 18.405 0 11.522 6.827 18.013 17.067 18.013 3.164 0 5.878-.45 8.486-1.28V91.994c-1.944-.13-3.947-.45-5.57-.914v-2.776h15.016v2.777c-1.363.393-2.916.654-4.457.867zm314.773 81.168v-6.29c2.038-.403 4.444-.77 6.78-.937v-38.044c-2.336-.166-4.742-.534-6.78-.938v-6.3h23.632v6.3c-2.003.404-4.432.772-6.78.938v36.953h10.05c.155-1.875.546-4.118.95-6.456h7.442v14.775h-35.294zm-26.916-34.128c-1.007-2.884-1.79-5.376-2.406-8.27h-.082c-.64 2.645-1.398 5.695-2.49 8.626l-4.502 12.555h14.14l-4.66-12.91zm3.887 34.128v-6.29c1.624-.308 3.722-.71 5.512-.83l-2.252-6.23h-19.117l-2.17 6.23c1.79.12 3.888.522 5.524.83v6.29h-19.733v-6.29c1.233-.403 2.786-.71 4.09-.77l16.023-45.45h12.35l16.33 45.45c1.317.06 2.87.367 4.114.77v6.29h-20.67zM456.9 152.823v17.824c-5.202 2.1-11.733 3.25-18.097 3.25-16.557 0-26.335-9.8-26.335-25.81 0-16.73 11.188-28.253 29.05-28.253 4.894 0 9.79.7 14.612 1.946v14.086h-7.774c-.45-2.255-.688-4.272-.937-6.3-2.1-.583-4.35-.797-6.424-.797-10.193 0-17.577 6.467-17.577 18.37 0 11.13 6.056 17.657 16.722 17.657 2.465 0 4.646-.297 6.66-.926v-10.976c-2.322-.154-4.74-.534-6.66-.996v-6.325h21.132v6.467c-1.422.32-2.904.546-4.373.783zm-52.112-24.98v25.134c0 13.92-7.692 21.004-21.677 21.004-16.568 0-20.277-9.03-20.277-19.056v-27.08c-1.72-.166-3.426-.45-4.907-.866v-6.373H378.5v6.373c-1.765.474-3.792.7-5.58.866v26.45c0 6.622 2.108 11.286 10.807 11.286 7.775 0 11.106-3.263 11.106-12.21v-25.526c-1.873-.166-3.876-.392-5.583-.866v-6.373h20.35v6.373c-1.48.415-3.105.7-4.812.866zm-58.49 7.548c-.366-2.396-.757-4.485-.91-6.466h-8.084v36.964c2.335.167 4.74.534 6.767.938v6.29h-23.643v-6.29c2.026-.404 4.444-.77 6.767-.938v-36.964h-8c-.142 1.98-.545 4.07-.924 6.467h-7.467v-14.785h42.963v14.786H346.3zm-59.495-6.846c-1.387 0-2.868.07-3.876.225v15.2c.712.048 2.027.143 3.568.143 6.14 0 9.79-3.11 9.79-8.01 0-5.08-3.035-7.56-9.482-7.56zm10.347 44.57l-12.824-21.667h-1.4v14.44c1.483.168 3.178.393 4.754.868v6.36h-21.606v-6.29c2.003-.403 4.433-.77 6.756-.937v-38.044c-2.323-.166-4.753-.534-6.756-.938v-6.3h6.056c2.015 0 9.304-.31 15.763-.31 11.58 0 19.058 4.047 19.058 14.775 0 7.322-4.99 12.698-12.372 14.253.96 1.234 1.86 2.575 2.655 3.81l8.07 12.696c1.47.225 3.343.545 5.144.842v6.443H297.15zm-59.426-44.26c-7.23 0-13.914 5.766-13.914 17.573 0 11.13 4.362 18.37 13.76 18.37 6.84 0 14.128-5.293 14.128-17.883 0-11.677-4.954-18.06-13.974-18.06zm-.853 45.127c-16.023 0-23.857-10.192-23.857-26.437 0-17.373 11.58-27.78 25.636-27.78 13.984 0 23.87 8.39 23.87 26.356 0 17.348-11.44 27.86-25.65 27.86zm-48.734-45.436c-1.22 0-2.31 0-3.496.07v17.505c1.03.165 2.015.248 2.94.248 6.15-.083 10.43-3.5 10.43-9.185 0-5.293-2.952-8.64-9.874-8.64zm-.142 26.213c-.936 0-2.11 0-3.354-.142v11.273c2.323.167 4.74.534 6.767.938v6.29h-23.644v-6.29c2.038-.404 4.444-.77 6.78-.938v-38.044c-2.336-.166-4.742-.534-6.78-.938v-6.3h6.092c2.477 0 9.327-.31 14.755-.31 12.824 0 19.876 5.993 19.876 16.258 0 10.205-7.75 18.203-20.492 18.203z" fill="#000" fill-rule="evenodd"/></svg>