<svg width="532" height="149" viewBox="0 0 532 149" xmlns="http://www.w3.org/2000/svg"><title>A.Mag</title><g fill="#000" fill-rule="evenodd"><path d="M155.267 114.246V3.566h22.222l35.455 92.003 35.47-92.003h22.222v110.68h-14.174V21.978l-35.893 92.266h-15.237L169.44 21.98v92.266h-14.173zM115.832 3.567v110.68H101.66V95.212c-5.96 7.26-12.65 12.7-20.066 16.317-7.417 3.617-15.53 5.426-24.336 5.426-15.645 0-29.005-5.666-40.08-17C6.104 88.625.568 74.84.568 58.605c0-15.9 5.587-29.5 16.763-40.798C28.51 6.506 41.954.856 57.667.856c9.075 0 17.288 1.912 24.637 5.732 7.35 3.82 13.802 9.598 19.356 17.334V3.567h14.172zm-57.06 11.047c-7.913 0-15.218 1.94-21.913 5.823-6.696 3.882-12.02 9.334-15.977 16.354-3.956 7.022-5.934 14.447-5.934 22.276 0 7.765 1.994 15.19 5.983 22.278 3.99 7.088 9.35 12.607 16.08 16.556 6.73 3.95 13.948 5.924 21.656 5.924 7.776 0 15.148-1.957 22.114-5.873 6.967-3.915 12.326-9.214 16.08-15.897 3.752-6.683 5.63-14.21 5.63-22.58 0-12.76-4.212-23.426-12.63-32-8.42-8.572-18.785-12.86-31.09-12.86zM135.307 102.99c1.91 0 3.54.675 4.89 2.024 1.348 1.35 2.022 2.997 2.022 4.946 0 1.912-.675 3.55-2.024 4.918-1.35 1.368-2.978 2.05-4.89 2.05-1.91 0-3.538-.682-4.887-2.05-1.35-1.367-2.024-3.006-2.024-4.918 0-1.95.674-3.597 2.023-4.946 1.348-1.35 2.977-2.023 4.887-2.023zM399.63 3.567v110.68h-14.173V95.212c-5.96 7.26-12.648 12.7-20.065 16.317-7.417 3.617-15.53 5.426-24.335 5.426-15.646 0-29.006-5.666-40.08-17-11.075-11.332-16.612-25.116-16.612-41.352 0-15.9 5.588-29.5 16.765-40.798 11.176-11.3 24.62-16.95 40.334-16.95 9.076 0 17.288 1.912 24.638 5.732 7.35 3.82 13.8 9.598 19.355 17.334V3.567h14.174zm-57.06 11.047c-7.913 0-15.217 1.94-21.912 5.823-6.695 3.882-12.02 9.334-15.977 16.354-3.955 7.022-5.933 14.447-5.933 22.276 0 7.765 1.995 15.19 5.985 22.278 3.99 7.088 9.35 12.607 16.08 16.556 6.728 3.95 13.947 5.924 21.655 5.924 7.777 0 15.15-1.957 22.115-5.873 6.967-3.915 12.326-9.214 16.08-15.897 3.752-6.683 5.63-14.21 5.63-22.58 0-12.76-4.21-23.426-12.63-32-8.42-8.572-18.784-12.86-31.09-12.86zM526.56 23.486l-8.986 9.925c-6.208-6.08-14.635-12.465-22.03-15.606-7.394-3.14-13.957-4.57-20.973-4.57-8.73 0-16.303 1.948-24.202 6.225-7.9 4.277-13.835 10.18-18.176 17.5-4.34 7.323-5.956 13.75-5.956 21.903 0 8.352 2.042 15.582 6.527 23.106 4.485 7.523 10.13 12.908 18.043 17.21 7.912 4.304 15.806 6.263 25.23 6.263 11.44 0 20.25-2.924 28.163-9.345 7.91-6.42 10.572-10.256 12.033-20.49h-32.387V61.433h47.902c-.1 17.138-5.204 30.746-15.306 40.823-10.103 10.077-23.62 15.116-40.55 15.116-20.56 0-36.837-6.988-48.83-20.965-9.222-10.76-13.832-23.203-13.832-37.33 0-10.507 2.647-20.286 7.942-29.336 5.294-9.05 12.556-16.127 21.785-21.23C452.187 3.41 462.624.86 474.273.86c9.43 0 18.307 1.69 26.627 5.076 8.32 3.386 17.74 10.077 25.66 17.55zM16.133 126.156c.352 0 .652.127.902.38.25.255.374.56.374.92 0 .35-.126.653-.375.907-.25.254-.55.38-.902.38-.345 0-.642-.126-.892-.38-.248-.254-.373-.556-.373-.907 0-.36.125-.665.374-.92.25-.253.548-.38.893-.38zm-.766 4.994h1.543v12.164h-1.543V131.15z"/><path d="M16.133 126.156c.352 0 .652.127.902.38.25.255.374.56.374.92 0 .35-.126.653-.375.907-.25.254-.55.38-.902.38-.345 0-.642-.126-.892-.38-.248-.254-.373-.556-.373-.907 0-.36.125-.665.374-.92.25-.253.548-.38.893-.38zM15.367 131.15h1.543v12.164h-1.543V131.15zM20.132 131.15h1.543v2.18c.622-.834 1.31-1.456 2.066-1.865.756-.41 1.578-.613 2.467-.613.904 0 1.705.23 2.405.692.7.462 1.216 1.083 1.55 1.865.333.78.5 1.998.5 3.65v6.254h-1.544v-5.794c0-1.4-.06-2.333-.18-2.802-.186-.804-.535-1.41-1.045-1.814-.51-.406-1.177-.61-2-.61-.94 0-1.78.314-2.525.94-.744.624-1.234 1.398-1.47 2.32-.15.604-.223 1.705-.223 3.305v4.454h-1.543V131.15zM35.297 126.614h1.544v4.536h2.45v1.35h-2.45v10.814h-1.543V132.5h-2.11v-1.35h2.11v-4.536zM51.838 139.282l1.308.694c-.43.845-.927 1.527-1.49 2.046-.563.52-1.197.913-1.9 1.184-.705.27-1.502.406-2.39.406-1.972 0-3.514-.65-4.625-1.946-1.11-1.298-1.667-2.765-1.667-4.4 0-1.54.47-2.912 1.413-4.117 1.194-1.532 2.792-2.298 4.794-2.298 2.062 0 3.708.785 4.94 2.354.874 1.11 1.32 2.493 1.334 4.152H42.662c.03 1.407.48 2.56 1.347 3.46.868.9 1.94 1.35 3.218 1.35.616 0 1.215-.106 1.798-.32.583-.214 1.078-.498 1.487-.852.408-.353.85-.925 1.325-1.714zm.014-3.276c-.208-.834-.51-1.5-.91-2-.397-.5-.923-.902-1.577-1.207-.655-.306-1.343-.46-2.064-.46-1.19 0-2.21.385-3.066 1.152-.625.56-1.097 1.397-1.417 2.514h9.035zM55.797 131.15h1.588v1.778c.474-.7.973-1.222 1.498-1.564.525-.34 1.073-.512 1.643-.512.43 0 .887.138 1.375.414l-.808 1.31c-.325-.14-.6-.212-.82-.212-.52 0-1.018.214-1.5.642-.48.43-.846 1.093-1.098 1.995-.192.694-.29 2.094-.29 4.202v4.112h-1.587V131.15zM63.194 131.15h1.544v2.18c.622-.834 1.31-1.456 2.066-1.865.755-.41 1.577-.613 2.466-.613.903 0 1.705.23 2.405.692.7.462 1.216 1.083 1.55 1.865.332.78.5 1.998.5 3.65v6.254H72.18v-5.794c0-1.4-.06-2.333-.18-2.802-.185-.804-.534-1.41-1.045-1.814-.51-.406-1.177-.61-1.998-.61-.94 0-1.783.314-2.526.94-.743.624-1.234 1.398-1.47 2.32-.148.604-.222 1.705-.222 3.305v4.454h-1.544V131.15zM89.025 131.15v12.164h-1.543v-2.092c-.65.798-1.377 1.396-2.184 1.794-.808.397-1.69.596-2.65.596-1.703 0-3.157-.623-4.363-1.868-1.206-1.246-1.81-2.76-1.81-4.545 0-1.75.61-3.244 1.827-4.486 1.216-1.24 2.68-1.862 4.39-1.862.99 0 1.883.21 2.683.63.8.42 1.503 1.055 2.107 1.905v-2.237h1.543zm-6.212 1.214c-.86 0-1.657.213-2.385.64-.73.426-1.31 1.026-1.74 1.797-.43.773-.646 1.59-.646 2.45 0 .853.217 1.67.652 2.448.434.78 1.018 1.385 1.75 1.82.733.434 1.52.65 2.358.65.847 0 1.65-.215 2.408-.645.758-.43 1.342-1.013 1.75-1.747.41-.735.613-1.562.613-2.482 0-1.402-.458-2.575-1.375-3.517-.917-.942-2.045-1.413-3.385-1.413zM93.875 126.614h1.543v4.536h2.45v1.35h-2.45v10.814h-1.543V132.5h-2.11v-1.35h2.11v-4.536zM100.78 126.156c.352 0 .653.127.902.38.25.255.374.56.374.92 0 .35-.124.653-.374.907s-.55.38-.902.38c-.345 0-.642-.126-.89-.38-.25-.254-.375-.556-.375-.907 0-.36.125-.665.374-.92.248-.253.545-.38.89-.38zM148.776 126.453h1.543v16.86h-1.544v-16.86zM100.014 131.15h1.543v12.164h-1.543V131.15zM110.492 130.852c1.86 0 3.402.676 4.624 2.03 1.112 1.234 1.668 2.695 1.668 4.383 0 1.696-.587 3.177-1.762 4.445-1.175 1.268-2.684 1.902-4.53 1.902-1.852 0-3.366-.634-4.54-1.902-1.175-1.268-1.763-2.75-1.763-4.445 0-1.68.555-3.138 1.667-4.372 1.223-1.36 2.768-2.04 4.635-2.04zm-.005 1.535c-1.29 0-2.395.48-3.32 1.437-.926.958-1.39 2.116-1.39 3.475 0 .876.212 1.693.634 2.45.423.758.993 1.343 1.71 1.755.72.412 1.508.618 2.367.618.858 0 1.647-.206 2.365-.618.718-.412 1.288-.997 1.71-1.755.422-.757.633-1.574.633-2.45 0-1.36-.464-2.518-1.393-3.476-.93-.958-2.035-1.437-3.315-1.437zM119.66 131.15h1.544v2.18c.623-.834 1.31-1.456 2.067-1.865.756-.41 1.578-.613 2.467-.613.903 0 1.705.23 2.405.692.7.462 1.216 1.083 1.55 1.865.332.78.5 1.998.5 3.65v6.254h-1.544v-5.794c0-1.4-.06-2.333-.18-2.802-.186-.804-.535-1.41-1.046-1.814-.51-.406-1.177-.61-1.998-.61-.94 0-1.783.314-2.526.94-.744.624-1.235 1.398-1.472 2.32-.147.604-.222 1.705-.222 3.305v4.454h-1.543V131.15zM145.492 131.15v12.164h-1.543v-2.092c-.65.798-1.378 1.396-2.185 1.794-.808.397-1.69.596-2.65.596-1.703 0-3.157-.623-4.363-1.868-1.206-1.246-1.81-2.76-1.81-4.545 0-1.75.61-3.244 1.827-4.486 1.215-1.24 2.68-1.862 4.39-1.862.988 0 1.882.21 2.682.63.8.42 1.503 1.055 2.107 1.905v-2.237h1.542zm-6.212 1.214c-.86 0-1.657.213-2.385.64-.73.426-1.31 1.026-1.74 1.797-.43.773-.646 1.59-.646 2.45 0 .853.216 1.67.65 2.448.435.78 1.02 1.385 1.75 1.82.734.434 1.52.65 2.36.65.846 0 1.648-.215 2.407-.645.758-.43 1.342-1.013 1.75-1.747.41-.735.613-1.562.613-2.482 0-1.402-.458-2.575-1.375-3.517-.917-.942-2.045-1.413-3.385-1.413zM196.815 126.453h1.543v6.893c.63-.835 1.322-1.46 2.077-1.873.756-.414 1.574-.62 2.455-.62.904 0 1.705.23 2.405.69.7.463 1.217 1.082 1.55 1.86.333.778.5 1.998.5 3.658v6.254H205.8v-5.794c0-1.4-.054-2.333-.166-2.802-.193-.804-.543-1.41-1.05-1.814-.51-.406-1.175-.61-1.998-.61-.942 0-1.786.314-2.53.94-.746.624-1.238 1.398-1.475 2.32-.148.596-.222 1.698-.222 3.305v4.454h-1.543v-16.86zM171.826 131.15v12.164h-1.543v-2.092c-.65.798-1.377 1.396-2.185 1.794-.807.397-1.69.596-2.65.596-1.702 0-3.157-.623-4.363-1.868-1.205-1.246-1.808-2.76-1.808-4.545 0-1.75.608-3.244 1.825-4.486 1.217-1.24 2.68-1.862 4.39-1.862.99 0 1.883.21 2.684.63.8.42 1.502 1.055 2.107 1.905v-2.237h1.543zm-6.212 1.214c-.862 0-1.657.213-2.386.64-.73.426-1.31 1.026-1.74 1.797-.43.773-.645 1.59-.645 2.45 0 .853.217 1.67.65 2.448.436.78 1.02 1.385 1.752 1.82.732.434 1.518.65 2.357.65.847 0 1.65-.215 2.408-.645.76-.43 1.342-1.013 1.75-1.747.41-.735.614-1.562.614-2.482 0-1.402-.46-2.575-1.375-3.517-.918-.942-2.046-1.413-3.386-1.413zM174.747 131.15h1.588v1.778c.474-.7.973-1.222 1.498-1.564.525-.34 1.073-.512 1.642-.512.43 0 .888.138 1.376.414l-.808 1.31c-.325-.14-.6-.212-.82-.212-.52 0-1.018.214-1.5.642-.48.43-.847 1.093-1.098 1.995-.193.694-.29 2.094-.29 4.202v4.112h-1.587V131.15zM193.854 133.676l-1.23.772c-1.067-1.42-2.523-2.13-4.37-2.13-1.473 0-2.698.475-3.672 1.426-.975.95-1.462 2.107-1.462 3.466 0 .884.224 1.716.673 2.496.448.78 1.063 1.386 1.845 1.816.782.43 1.658.647 2.628.647 1.78 0 3.23-.71 4.358-2.132l1.23.817c-.578.874-1.354 1.552-2.328 2.034-.974.48-2.083.722-3.328.722-1.91 0-3.496-.61-4.755-1.83-1.26-1.22-1.89-2.702-1.89-4.45 0-1.175.296-2.266.885-3.274.588-1.007 1.398-1.793 2.427-2.36 1.03-.564 2.182-.846 3.456-.846.8 0 1.573.122 2.317.367.745.243 1.376.562 1.895.955.518.393.96.894 1.322 1.5zM211.18 126.156c.353 0 .654.127.903.38.25.255.374.56.374.92 0 .35-.125.653-.374.907-.25.254-.55.38-.902.38-.344 0-.64-.126-.89-.38s-.374-.556-.374-.907c0-.36.124-.665.374-.92.25-.253.546-.38.89-.38zM216.52 126.614h1.542v4.536h2.45v1.35h-2.45v10.814h-1.543V132.5h-2.11v-1.35h2.11v-4.536zM253.618 126.614h1.543v4.536h2.452v1.35h-2.45v10.814h-1.544V132.5h-2.11v-1.35h2.11v-4.536zM210.415 131.15h1.543v12.164h-1.543V131.15zM302.907 126.614h1.544v4.536h2.45v1.35h-2.45v10.814h-1.543V132.5h-2.11v-1.35h2.11v-4.536zM233.06 139.282l1.307.694c-.43.845-.926 1.527-1.49 2.046-.563.52-1.196.913-1.9 1.184-.704.27-1.5.406-2.39.406-1.972 0-3.513-.65-4.625-1.946-1.11-1.298-1.667-2.765-1.667-4.4 0-1.54.47-2.912 1.412-4.117 1.194-1.532 2.793-2.298 4.795-2.298 2.06 0 3.708.785 4.94 2.354.874 1.11 1.32 2.493 1.334 4.152h-10.893c.03 1.407.48 2.56 1.348 3.46.87.9 1.942 1.35 3.22 1.35.615 0 1.215-.106 1.798-.32.582-.214 1.078-.498 1.486-.852.41-.353.85-.925 1.326-1.714zm.014-3.276c-.208-.834-.512-1.5-.91-2-.397-.5-.923-.902-1.578-1.207-.654-.306-1.342-.46-2.063-.46-1.19 0-2.213.385-3.068 1.152-.624.56-1.097 1.397-1.416 2.514h9.034zM249.318 133.676l-1.23.772c-1.067-1.42-2.523-2.13-4.368-2.13-1.475 0-2.7.475-3.674 1.426-.974.95-1.462 2.107-1.462 3.466 0 .884.225 1.716.673 2.496.448.78 1.063 1.386 1.845 1.816.782.43 1.658.647 2.63.647 1.777 0 3.23-.71 4.356-2.132l1.23.817c-.578.874-1.354 1.552-2.328 2.034-.974.48-2.083.722-3.327.722-1.91 0-3.496-.61-4.756-1.83-1.26-1.22-1.888-2.702-1.888-4.45 0-1.175.293-2.266.882-3.274.59-1.007 1.398-1.793 2.427-2.36 1.03-.564 2.18-.846 3.455-.846.8 0 1.572.122 2.316.367.746.243 1.377.562 1.896.955.518.393.96.894 1.322 1.5zM338.668 126.453h1.543v6.893c.63-.835 1.323-1.46 2.078-1.873.756-.414 1.574-.62 2.455-.62.904 0 1.705.23 2.405.69.7.463 1.216 1.082 1.55 1.86.333.778.5 1.998.5 3.658v6.254h-1.544v-5.794c0-1.4-.056-2.333-.167-2.802-.193-.804-.543-1.41-1.05-1.814-.51-.406-1.175-.61-1.998-.61-.943 0-1.787.314-2.532.94-.746.624-1.237 1.398-1.474 2.32-.15.596-.223 1.698-.223 3.305v4.454h-1.542v-16.86zM259.78 131.15h1.543v5.676c0 1.385.074 2.34.222 2.86.222.745.646 1.334 1.272 1.766.626.432 1.372.648 2.238.648.867 0 1.602-.21 2.205-.63.604-.422 1.02-.975 1.25-1.66.156-.47.233-1.464.233-2.984v-5.676h1.59v5.963c0 1.675-.195 2.937-.583 3.786-.388.847-.972 1.512-1.75 1.992-.78.48-1.758.72-2.933.72-1.175 0-2.156-.24-2.943-.72-.787-.48-1.375-1.15-1.762-2.01-.388-.86-.582-2.154-.582-3.88v-5.852zM273.168 131.15h1.588v1.778c.474-.7.973-1.222 1.498-1.564.525-.34 1.072-.512 1.642-.512.43 0 .888.138 1.376.414l-.81 1.31c-.324-.14-.598-.212-.82-.212-.518 0-1.018.214-1.5.642-.48.43-.846 1.093-1.097 1.995-.193.694-.29 2.094-.29 4.202v4.112h-1.587V131.15zM290.74 139.282l1.308.694c-.43.845-.927 1.527-1.49 2.046-.563.52-1.197.913-1.9 1.184-.705.27-1.502.406-2.39.406-1.972 0-3.514-.65-4.625-1.946-1.112-1.298-1.668-2.765-1.668-4.4 0-1.54.47-2.912 1.413-4.117 1.194-1.532 2.792-2.298 4.794-2.298 2.062 0 3.708.785 4.94 2.354.874 1.11 1.32 2.493 1.334 4.152h-10.892c.03 1.407.48 2.56 1.347 3.46.87.9 1.942 1.35 3.22 1.35.616 0 1.215-.106 1.798-.32.583-.214 1.078-.498 1.487-.852.408-.353.85-.925 1.325-1.714zm.014-3.276c-.208-.834-.51-1.5-.91-2-.397-.5-.923-.902-1.577-1.207-.655-.306-1.343-.46-2.064-.46-1.19 0-2.212.385-3.068 1.152-.624.56-1.096 1.397-1.416 2.514h9.034z"/><path d="M100.78 126.156c.352 0 .653.127.902.38.25.255.374.56.374.92 0 .35-.124.653-.374.907s-.55.38-.902.38c-.345 0-.642-.126-.89-.38-.25-.254-.375-.556-.375-.907 0-.36.125-.665.374-.92.248-.253.545-.38.89-.38zm-.766 4.994h1.543v12.164h-1.543V131.15zM319.448 139.282l1.308.694c-.43.845-.927 1.527-1.49 2.046-.563.52-1.197.913-1.9 1.184-.705.27-1.502.406-2.39.406-1.972 0-3.513-.65-4.625-1.946-1.11-1.298-1.667-2.765-1.667-4.4 0-1.54.47-2.912 1.413-4.117 1.194-1.532 2.792-2.298 4.794-2.298 2.062 0 3.708.785 4.94 2.354.874 1.11 1.32 2.493 1.334 4.152h-10.892c.03 1.407.48 2.56 1.347 3.46.868.9 1.94 1.35 3.218 1.35.616 0 1.215-.106 1.798-.32.583-.214 1.08-.498 1.487-.852.408-.353.85-.925 1.325-1.714zm.014-3.276c-.208-.834-.51-1.5-.91-2-.397-.5-.923-.902-1.577-1.207-.655-.306-1.342-.46-2.064-.46-1.19 0-2.21.385-3.066 1.152-.625.56-1.097 1.397-1.417 2.514h9.035zM335.706 133.676l-1.23.772c-1.067-1.42-2.523-2.13-4.368-2.13-1.474 0-2.7.475-3.673 1.426-.975.95-1.462 2.107-1.462 3.466 0 .884.224 1.716.672 2.496.45.78 1.064 1.386 1.845 1.816.782.43 1.658.647 2.63.647 1.778 0 3.23-.71 4.356-2.132l1.23.817c-.577.874-1.353 1.552-2.327 2.034-.975.48-2.084.722-3.33.722-1.91 0-3.495-.61-4.754-1.83-1.26-1.22-1.89-2.702-1.89-4.45 0-1.175.295-2.266.884-3.274.59-1.007 1.398-1.793 2.428-2.36 1.03-.564 2.18-.846 3.455-.846.8 0 1.572.122 2.317.367.744.243 1.376.562 1.894.955.52.393.96.894 1.322 1.5zM366.86 126.156c.352 0 .653.127.902.38.25.255.374.56.374.92 0 .35-.124.653-.374.907s-.55.38-.902.38c-.345 0-.642-.126-.89-.38-.25-.254-.375-.556-.375-.907 0-.36.125-.665.374-.92.248-.253.545-.38.89-.38zM352.494 131.15h1.543v2.18c.623-.834 1.31-1.456 2.067-1.865.755-.41 1.577-.613 2.466-.613.903 0 1.705.23 2.405.692.7.462 1.216 1.083 1.55 1.865.332.78.5 1.998.5 3.65v6.254h-1.544v-5.794c0-1.4-.06-2.333-.18-2.802-.185-.804-.534-1.41-1.045-1.814-.51-.406-1.177-.61-1.998-.61-.94 0-1.783.314-2.526.94-.743.624-1.234 1.398-1.47 2.32-.15.604-.223 1.705-.223 3.305v4.454h-1.543V131.15zM400.82 126.453h1.542v16.86h-1.543v-16.86zM489.61 126.156c.352 0 .652.127.902.38.25.255.374.56.374.92 0 .35-.125.653-.374.907-.25.254-.55.38-.903.38-.345 0-.642-.126-.892-.38s-.374-.556-.374-.907c0-.36.125-.665.374-.92.25-.253.547-.38.89-.38zM366.094 131.15h1.543v12.164h-1.543V131.15zM382.57 133.676l-1.23.772c-1.068-1.42-2.524-2.13-4.37-2.13-1.474 0-2.7.475-3.673 1.426-.975.95-1.462 2.107-1.462 3.466 0 .884.224 1.716.673 2.496.448.78 1.063 1.386 1.845 1.816.782.43 1.658.647 2.628.647 1.78 0 3.232-.71 4.36-2.132l1.23.817c-.58.874-1.355 1.552-2.33 2.034-.973.48-2.082.722-3.327.722-1.91 0-3.496-.61-4.755-1.83-1.26-1.22-1.89-2.702-1.89-4.45 0-1.175.296-2.266.885-3.274.588-1.007 1.398-1.793 2.427-2.36 1.03-.564 2.182-.846 3.456-.846.8 0 1.572.122 2.316.367.745.243 1.376.562 1.895.955.518.393.96.894 1.322 1.5zM397.535 131.15v12.164h-1.544v-2.092c-.647.798-1.376 1.396-2.183 1.794-.808.397-1.69.596-2.65.596-1.703 0-3.157-.623-4.363-1.868-1.206-1.246-1.81-2.76-1.81-4.545 0-1.75.61-3.244 1.827-4.486 1.217-1.24 2.68-1.862 4.392-1.862.988 0 1.882.21 2.682.63.8.42 1.503 1.055 2.107 1.905v-2.237h1.545zm-6.213 1.214c-.86 0-1.656.213-2.385.64-.73.426-1.31 1.026-1.74 1.797-.43.773-.646 1.59-.646 2.45 0 .853.22 1.67.653 2.448.434.78 1.018 1.385 1.75 1.82.733.434 1.52.65 2.358.65.848 0 1.65-.215 2.41-.645.757-.43 1.34-1.013 1.75-1.747.408-.735.612-1.562.612-2.482 0-1.402-.458-2.575-1.375-3.517-.917-.942-2.045-1.413-3.385-1.413zM211.18 126.156c.353 0 .654.127.903.38.25.255.374.56.374.92 0 .35-.125.653-.374.907-.25.254-.55.38-.902.38-.344 0-.64-.126-.89-.38s-.374-.556-.374-.907c0-.36.124-.665.374-.92.25-.253.546-.38.89-.38zm-.765 4.994h1.543v12.164h-1.543V131.15zM411.864 131.15h1.543v2.103c.54-.776 1.094-1.343 1.663-1.7.783-.468 1.607-.7 2.472-.7.584 0 1.138.114 1.663.345.524.232.953.54 1.285.923.333.385.62.935.865 1.65.516-.953 1.16-1.68 1.936-2.174.775-.496 1.608-.744 2.5-.744.833 0 1.568.212 2.206.636.638.424 1.11 1.016 1.42 1.776.31.76.466 1.898.466 3.417v6.634h-1.59v-6.637c0-1.304-.09-2.2-.275-2.687-.184-.488-.5-.88-.944-1.18-.446-.297-.978-.446-1.597-.446-.75 0-1.437.223-2.06.67-.622.447-1.076 1.043-1.364 1.788-.287.745-.43 1.99-.43 3.732v4.76h-1.544v-6.224c0-1.467-.09-2.464-.27-2.99-.182-.524-.498-.945-.95-1.26-.45-.318-.985-.476-1.606-.476-.716 0-1.387.218-2.01.653-.625.436-1.087 1.023-1.386 1.76-.3.738-.45 1.866-.45 3.386v5.15h-1.542V131.15zM445.135 131.15v12.164h-1.543v-2.092c-.648.798-1.377 1.396-2.184 1.794-.808.397-1.69.596-2.65.596-1.703 0-3.157-.623-4.363-1.868-1.206-1.246-1.808-2.76-1.808-4.545 0-1.75.608-3.244 1.825-4.486 1.216-1.24 2.68-1.862 4.39-1.862.99 0 1.883.21 2.683.63.8.42 1.503 1.055 2.107 1.905v-2.237h1.543zm-6.212 1.214c-.86 0-1.656.213-2.385.64-.73.426-1.31 1.026-1.74 1.797-.43.773-.646 1.59-.646 2.45 0 .853.217 1.67.652 2.448.434.78 1.018 1.385 1.75 1.82.733.434 1.52.65 2.358.65.847 0 1.65-.215 2.408-.645.758-.43 1.342-1.013 1.75-1.747.41-.735.613-1.562.613-2.482 0-1.402-.458-2.575-1.375-3.517-.917-.942-2.045-1.413-3.385-1.413zM459.062 131.15h1.543v9.68c0 1.706-.147 2.953-.442 3.742-.406 1.117-1.11 1.977-2.113 2.58s-2.21.904-3.618.904c-1.032 0-1.96-.148-2.782-.444-.822-.296-1.49-.694-2.008-1.193-.516-.5-.992-1.23-1.427-2.19h1.68c.458.81 1.05 1.41 1.773 1.8.724.388 1.622.583 2.694.583 1.057 0 1.95-.197 2.677-.592.727-.394 1.246-.89 1.557-1.488.31-.598.465-1.567.465-2.907V141c-.583.744-1.296 1.317-2.14 1.716-.84.4-1.735.598-2.68.598-1.11 0-2.15-.277-3.127-.832-.975-.554-1.73-1.3-2.26-2.24-.533-.937-.8-1.968-.8-3.092s.278-2.172.833-3.144c.554-.97 1.32-1.74 2.3-2.305.978-.565 2.01-.848 3.097-.848.902 0 1.742.185 2.522.557.78.37 1.53.99 2.255 1.854v-2.114zm-4.58 1.214c-.88 0-1.694.214-2.447.642-.753.428-1.343 1.02-1.77 1.776-.43.756-.643 1.573-.643 2.452 0 1.333.443 2.436 1.328 3.307.886.872 2.033 1.308 3.443 1.308 1.424 0 2.57-.432 3.437-1.296.867-.864 1.3-2 1.3-3.407 0-.916-.2-1.733-.597-2.452-.4-.72-.963-1.287-1.694-1.704-.732-.418-1.517-.626-2.358-.626zM475.902 131.15v12.164h-1.543v-2.092c-.65.798-1.378 1.396-2.185 1.794-.808.397-1.69.596-2.65.596-1.703 0-3.158-.623-4.363-1.868-1.206-1.246-1.81-2.76-1.81-4.545 0-1.75.61-3.244 1.826-4.486 1.217-1.24 2.68-1.862 4.392-1.862.988 0 1.882.21 2.682.63.8.42 1.502 1.055 2.107 1.905v-2.237h1.542zm-6.212 1.214c-.86 0-1.657.213-2.386.64-.73.426-1.308 1.026-1.74 1.797-.43.773-.645 1.59-.645 2.45 0 .853.216 1.67.65 2.448.435.78 1.018 1.385 1.75 1.82.734.434 1.52.65 2.36.65.846 0 1.648-.215 2.407-.645.758-.43 1.34-1.013 1.75-1.747.41-.735.613-1.562.613-2.482 0-1.402-.458-2.575-1.375-3.517-.917-.942-2.045-1.413-3.385-1.413zM478.415 131.15h8.872l-6.83 10.767h6.604v1.397h-9.28l6.86-10.813h-6.225v-1.35z"/><path d="M366.86 126.156c.352 0 .653.127.902.38.25.255.374.56.374.92 0 .35-.124.653-.374.907s-.55.38-.902.38c-.345 0-.642-.126-.89-.38-.25-.254-.375-.556-.375-.907 0-.36.125-.665.374-.92.248-.253.545-.38.89-.38zm-.766 4.994h1.543v12.164h-1.543V131.15zM489.61 126.156c.352 0 .652.127.902.38.25.255.374.56.374.92 0 .35-.125.653-.374.907-.25.254-.55.38-.903.38-.345 0-.642-.126-.892-.38s-.374-.556-.374-.907c0-.36.125-.665.374-.92.25-.253.547-.38.89-.38zm-.767 4.994h1.544v12.164h-1.544V131.15z"/><path d="M488.843 131.15h1.544v12.164h-1.544V131.15zM493.61 131.15h1.542v2.18c.622-.834 1.31-1.456 2.066-1.865.755-.41 1.577-.613 2.466-.613.904 0 1.705.23 2.405.692.7.462 1.215 1.083 1.548 1.865.334.78.5 1.998.5 3.65v6.254h-1.543v-5.794c0-1.4-.06-2.333-.18-2.802-.186-.804-.535-1.41-1.045-1.814-.51-.406-1.177-.61-2-.61-.94 0-1.78.314-2.525.94-.744.624-1.234 1.398-1.47 2.32-.15.604-.223 1.705-.223 3.305v4.454h-1.543V131.15zM517.61 139.282l1.308.694c-.43.845-.926 1.527-1.49 2.046-.563.52-1.197.913-1.9 1.184-.705.27-1.5.406-2.39.406-1.972 0-3.513-.65-4.625-1.946-1.112-1.298-1.668-2.765-1.668-4.4 0-1.54.47-2.912 1.413-4.117 1.194-1.532 2.792-2.298 4.795-2.298 2.06 0 3.707.785 4.938 2.354.876 1.11 1.32 2.493 1.336 4.152h-10.892c.03 1.407.48 2.56 1.347 3.46.87.9 1.943 1.35 3.22 1.35.616 0 1.216-.106 1.798-.32.583-.214 1.08-.498 1.487-.852.408-.353.85-.925 1.325-1.714zm.014-3.276c-.208-.834-.51-1.5-.91-2-.397-.5-.923-.902-1.577-1.207-.655-.306-1.342-.46-2.064-.46-1.19 0-2.212.385-3.067 1.152-.625.56-1.097 1.397-1.417 2.514h9.034z"/></g></svg>