<?xml version="1.0" encoding="UTF-8" standalone="no"?>
<svg width="148px" height="32px" viewBox="0 0 148 32" version="1.1" xmlns="http://www.w3.org/2000/svg" xmlns:xlink="http://www.w3.org/1999/xlink" xmlns:sketch="http://www.bohemiancoding.com/sketch/ns">
    <!-- Generator: Sketch 3.0.3 (7892) - http://www.bohemiancoding.com/sketch -->
    <title>bitbasement-black</title>
    <desc>Created with Sketch.</desc>
    <defs></defs>
    <g id="Page-1" stroke="none" stroke-width="1" fill="none" fill-rule="evenodd" sketch:type="MSPage">
        <g id="bitbasement-black" sketch:type="MSArtboardGroup" fill="#000000">
            <path d="M42.7789738,19.305253 L45.4600209,19.305253 C46.0880524,19.305253 46.5696335,19.2065542 46.9024398,19.0095422 C47.2360209,18.8125301 47.4026178,18.4397108 47.4026178,17.8918554 C47.4026178,16.9973976 46.6831518,16.5501687 45.2430576,16.5501687 L42.7789738,16.5501687 L42.7789738,19.305253 L42.7789738,19.305253 Z M42.7789738,14.9783133 L44.9532565,14.9783133 C46.1895602,14.9783133 46.8086806,14.56 46.8086806,13.7233735 C46.8086806,13.2426024 46.6579686,12.8963855 46.3592565,12.6847229 C46.0593822,12.4734458 45.595623,12.3674217 44.9675916,12.3674217 L42.7789738,12.3674217 L42.7789738,14.9783133 L42.7789738,14.9783133 Z M45.5041885,20.877494 L41.0680628,20.877494 L41.0680628,10.7951807 L45.0105969,10.7951807 C45.6971309,10.7951807 46.2887435,10.8769157 46.7865969,11.0403855 C47.2836754,11.2038554 47.6536754,11.4251566 47.8954346,11.7039036 C48.3591937,12.2232289 48.591267,12.8096386 48.591267,13.4635181 C48.591267,14.2519518 48.3394346,14.838747 47.8377068,15.2231325 C47.6536754,15.3580723 47.5281466,15.4421205 47.460733,15.4756627 C47.3929319,15.5095904 47.2724398,15.5647229 47.0984817,15.6414458 C47.7265131,15.7763855 48.2266911,16.0574458 48.5982408,16.4853976 C48.9705654,16.9133494 49.156534,17.4446265 49.156534,18.0792289 C49.156534,18.7813012 48.9143874,19.4016386 48.431644,19.9398554 C47.8613403,20.5652048 46.8857801,20.877494 45.5041885,20.877494 L45.5041885,20.877494 Z M51.0491518,10.7951807 L52.7600628,10.7951807 L52.7600628,20.877494 L51.0491518,20.877494 L51.0491518,10.7951807 Z M58.9349948,12.3531566 L58.9349948,20.877494 L57.2240838,20.877494 L57.2240838,12.3531566 L54.1517277,12.3531566 L54.1517277,10.7951807 L62.0077382,10.7951807 L62.0077382,12.3531566 L58.9349948,12.3531566 M69.2539267,19.305253 L71.9357487,19.305253 C72.5637801,19.305253 73.0445864,19.2065542 73.3781675,19.0095422 C73.7109738,18.8125301 73.8775707,18.4397108 73.8775707,17.8918554 C73.8775707,16.9973976 73.1581047,16.5501687 71.7180105,16.5501687 L69.2539267,16.5501687 L69.2539267,19.305253 L69.2539267,19.305253 Z M69.2539267,14.9783133 L71.4282094,14.9783133 C72.665288,14.9783133 73.2836335,14.56 73.2836335,13.7233735 C73.2836335,13.2426024 73.1336963,12.8963855 72.8342094,12.6847229 C72.5343351,12.4734458 72.0705759,12.3674217 71.4425445,12.3674217 L69.2539267,12.3674217 L69.2539267,14.9783133 L69.2539267,14.9783133 Z M71.9791414,20.877494 L67.5437906,20.877494 L67.5437906,10.7951807 L71.4863246,10.7951807 C72.1720838,10.7951807 72.7644712,10.8769157 73.2615497,11.0403855 C73.7594031,11.2038554 74.1286283,11.4251566 74.3707749,11.7039036 C74.8349215,12.2232289 75.0662199,12.8096386 75.0662199,13.4635181 C75.0662199,14.2519518 74.8151623,14.838747 74.3126597,15.2231325 C74.1286283,15.3580723 74.0030995,15.4421205 73.9356859,15.4756627 C73.8686597,15.5095904 73.7473927,15.5647229 73.5734346,15.6414458 C74.201466,15.7763855 74.701644,16.0574458 75.0739686,16.4853976 C75.4455183,16.9133494 75.6314869,17.4446265 75.6314869,18.0792289 C75.6314869,18.7813012 75.3901152,19.4016386 74.9065969,19.9398554 C74.3370681,20.5652048 73.360733,20.877494 71.9791414,20.877494 L71.9791414,20.877494 Z M83.270534,17.0120482 L81.429445,12.8578313 L79.5891309,17.0120482 L83.270534,17.0120482 L83.270534,17.0120482 Z M78.892911,18.5839036 L77.8782199,20.877494 L76.0522408,20.877494 L80.5162618,10.7951807 L82.3430157,10.7951807 L86.8074241,20.877494 L84.9806702,20.877494 L83.9659791,18.5839036 L78.892911,18.5839036 L78.892911,18.5839036 Z M91.185822,12.1222169 C90.6879686,12.1222169 90.28,12.2232289 89.9607539,12.425253 C89.6418953,12.6272771 89.4822723,12.9326265 89.4822723,13.3409157 C89.4822723,13.7499759 89.6418953,14.0622651 89.9607539,14.2785542 C90.28,14.4948434 90.9587853,14.7280964 91.9978848,14.9783133 C93.035822,15.2281446 93.8192147,15.578988 94.3457382,16.0312289 C94.8722618,16.4830843 95.1357173,17.1489157 95.1357173,18.0287229 C95.1357173,18.9085301 94.8021361,19.6225542 94.1353613,20.1707952 C93.4685864,20.7190361 92.5941466,20.9927711 91.5120419,20.9927711 C89.9274346,20.9927711 88.5214346,20.4499277 87.2940419,19.3630843 L88.3664607,18.0792289 C89.3908377,18.9640482 90.4539581,19.4062651 91.5550471,19.4062651 C92.1059791,19.4062651 92.5433927,19.2886747 92.867288,19.0531084 C93.1911832,18.8175422 93.3531309,18.5048675 93.3531309,18.1150843 C93.3531309,17.7260723 93.2008691,17.4230361 92.8959581,17.2063614 C92.591822,16.9900723 92.0672356,16.7934458 91.3233613,16.6153253 C90.5794869,16.4372048 90.013445,16.2741205 89.6275602,16.1249157 C89.2409005,15.9757108 88.8984084,15.781012 88.598534,15.5408193 C87.9991728,15.0885783 87.6996859,14.3965301 87.6996859,13.4635181 C87.6996859,12.5312771 88.0402408,11.8118554 88.7217382,11.3071807 C89.4028482,10.802506 90.2459058,10.5499759 91.250911,10.5499759 C91.8987016,10.5499759 92.5410681,10.656 93.1787853,10.8672771 C93.8168901,11.0789398 94.367822,11.3769639 94.8315812,11.7613494 L93.9183979,13.0452048 C93.6185236,12.7760964 93.2121047,12.5547952 92.7006911,12.3816867 C92.1885026,12.2089639 91.6836754,12.1222169 91.185822,12.1222169 M104.103665,10.7951807 L104.103665,12.3963373 L98.6970157,12.3963373 L98.6970157,15.0646747 L103.552733,15.0646747 L103.552733,16.5790843 L98.6970157,16.5790843 L98.6970157,19.2763373 L104.277623,19.2763373 L104.277623,20.877494 L96.9868796,20.877494 L96.9868796,10.7951807 L104.103665,10.7951807 M107.930356,20.877494 L106.219445,20.877494 L106.219445,10.7951807 L108.886545,10.7951807 L111.944565,17.1273253 L115.002974,10.7951807 L117.656126,10.7951807 L117.656126,20.877494 L115.945215,20.877494 L115.945215,13.0020241 L112.408325,19.9976867 L111.451749,19.9976867 L107.930356,13.0020241 L107.930356,20.877494 M127.265665,10.7951807 L127.265665,12.3963373 L121.859791,12.3963373 L121.859791,15.0646747 L126.714733,15.0646747 L126.714733,16.5790843 L121.859791,16.5790843 L121.859791,19.2763373 L127.439623,19.2763373 L127.439623,20.877494 L120.14888,20.877494 L120.14888,10.7951807 L127.265665,10.7951807 M136.977099,10.7951807 L138.687236,10.7951807 L138.687236,20.877494 L136.831812,20.877494 L131.092356,13.5213494 L131.092356,20.877494 L129.38222,20.877494 L129.38222,10.7951807 L131.092356,10.7951807 L136.977099,18.3244337 L136.977099,10.7951807 M144.863717,12.3531566 L144.863717,20.877494 L143.152806,20.877494 L143.152806,12.3531566 L140.08045,12.3531566 L140.08045,10.7951807 L147.936461,10.7951807 L147.936461,12.3531566 L144.863717,12.3531566 M1.79653403,20.5039036 C-0.695057592,18.0240964 -0.695057592,14.002506 1.79653403,11.5226988 L11.4800733,1.88684337 C13.9720524,-0.593349398 18.0137696,-0.593349398 20.5053613,1.88684337 L30.1881257,11.5226988 C32.6808796,14.0032771 32.6801047,18.0240964 30.1881257,20.5039036 L20.5053613,30.139759 C18.0137696,32.6195663 13.9720524,32.6195663 11.4800733,30.139759 L1.79653403,20.5039036 L1.79653403,20.5039036 Z M7.73668063,20.2386506 C7.7587644,20.8986988 8.0233822,21.5521928 8.52975916,22.0553253 L14.0902199,27.5886265 C15.1486911,28.6430843 16.8665759,28.6430843 17.925822,27.5886265 L23.4855079,22.0553253 C24.5455288,21.001253 24.5455288,19.2925301 23.4855079,18.2388434 L21.3135497,16.0771084 L23.4855079,13.9146024 C24.5455288,12.8613012 24.5455288,11.1521928 23.4855079,10.0981205 L17.925822,4.56520482 C16.8665759,3.51113253 15.1486911,3.51113253 14.0902199,4.56520482 L8.52975916,10.0981205 C8.0233822,10.6020241 7.7587644,11.2559036 7.73668063,11.9147952 L7.73513089,11.9147952 L7.73513089,12.0065542 C7.73513089,11.9764819 7.73513089,11.9456386 7.73668063,11.9147952 L7.73668063,20.2386506 Z M9.06480628,17.7067952 L10.7024921,16.0771084 L9.06480628,14.4474217 L9.06480628,17.7067952 Z M19.4333298,16.0771084 L16.9859058,18.5125783 C16.445822,19.0504096 15.569445,19.0504096 15.0297487,18.5125783 L12.5819372,16.0771084 L15.0297487,13.641253 C15.569445,13.1030361 16.445822,13.1030361 16.9859058,13.641253 L19.4333298,16.0771084 Z M20.3736335,15.1417831 L22.5455916,12.9800482 C23.0856754,12.4422169 23.0856754,11.5712771 22.5455916,11.0330602 L16.9859058,5.50014458 C16.445822,4.96231325 15.569445,4.96231325 15.0297487,5.50014458 L9.46890052,11.0330602 C8.92920419,11.5712771 8.92920419,12.4422169 9.46890052,12.9800482 L11.6420209,15.1417831 L14.0902199,12.7055422 C15.1486911,11.6518554 16.8665759,11.6518554 17.925822,12.7055422 L20.3736335,15.1417831 Z M20.3736335,17.0116627 L22.5455916,19.1737831 C23.0856754,19.7116145 23.0856754,20.5833253 22.5455916,21.1203855 L16.9859058,26.6540723 C16.445822,27.190747 15.569445,27.190747 15.0297487,26.6540723 L9.46890052,21.1203855 C8.92920419,20.5833253 8.92920419,19.7116145 9.46890052,19.1737831 L11.6420209,17.0116627 L14.0902199,19.4479036 C15.1486911,20.5019759 16.8665759,20.5019759 17.925822,19.4479036 L20.3736335,17.0116627 Z" sketch:type="MSShapeGroup"></path>
        </g>
    </g>
</svg>