<?xml version="1.0" encoding="UTF-8"?>
<svg width="370px" height="119px" viewBox="0 0 370 119" version="1.1" xmlns="http://www.w3.org/2000/svg" xmlns:xlink="http://www.w3.org/1999/xlink">
    <!-- Generator: Sketch 42 (36781) - http://www.bohemiancoding.com/sketch -->
    <title>Group</title>
    <desc>Created with Sketch.</desc>
    <defs></defs>
    <g id="Page-1" stroke="none" stroke-width="1" fill="none" fill-rule="evenodd">
        <g id="Group" fill="#FFFFFF">
            <polygon id="Fill-225" points="214.5054 1.7234 214.5054 84.8154 249.0864 35.7874"></polygon>
            <polygon id="Fill-226" points="249.4187 33.071 249.4187 0.218 216.0677 0.218"></polygon>
            <polygon id="Fill-227" points="249.4187 87.149 249.4187 39.079 215.5127 87.149"></polygon>
            <polygon id="Fill-228" points="147.4995 61.8069 129.9725 2.3769 94.7285 87.1489 129.5905 87.1489"></polygon>
            <polygon id="Fill-229" points="167.7681 87.149 202.6241 87.149 185.1491 44.966 150.3011 62.409"></polygon>
            <polygon id="Fill-230" points="183.7041 43.2646 132.1611 2.1276 149.3611 60.4546"></polygon>
            <polygon id="Fill-231" points="166.4897 0.2178 133.2447 0.2178 183.0767 39.9908"></polygon>
            <polygon id="Fill-232" points="261.8035 87.149 296.5015 87.149 314.0875 62.281 284.3995 32.558"></polygon>
            <polygon id="Fill-233" points="333.2346 0.2178 297.7906 0.2178 285.8216 29.1228 340.1106 16.8438"></polygon>
            <polygon id="Fill-234" points="341.4368 20.0486 316.7898 62.1056 334.5088 87.1486 369.1988 87.1486"></polygon>
            <polygon id="Fill-235" points="286.175 31.2666 315.275 60.4006 339.405 19.2276"></polygon>
            <polygon id="Fill-236" points="25.2065 1.0949 0.6955 25.6419 0.6955 61.5819 25.0125 86.0689 37.0725 32.9299"></polygon>
            <polygon id="Fill-237" points="87.6323 68.6122 87.6323 38.5982 53.1093 38.5982"></polygon>
            <polygon id="Fill-238" points="66.1641 0.2178 27.1941 0.2178 38.5931 30.8008"></polygon>
            <polygon id="Fill-239" points="88.6836 104.4448 93.7586 104.4448 93.7586 118.0258 94.8396 118.0258 94.8396 104.4448 99.9146 104.4448 99.9146 103.4668 88.6836 103.4668"></polygon>
            <path d="M115.2017,105.4747 C114.5647,104.7887 113.7947,104.2407 112.8937,103.8307 C111.9917,103.4227 110.9937,103.2167 109.8987,103.2167 C108.7887,103.2167 107.7837,103.4227 106.8827,103.8307 C105.9807,104.2407 105.2117,104.7917 104.5737,105.4847 C103.9357,106.1787 103.4397,106.9787 103.0867,107.8867 C102.7327,108.7957 102.5567,109.7477 102.5567,110.7467 L102.5567,110.7877 C102.5567,111.7867 102.7297,112.7377 103.0767,113.6377 C103.4227,114.5397 103.9147,115.3327 104.5527,116.0197 C105.1907,116.7057 105.9567,117.2537 106.8517,117.6627 C107.7457,118.0707 108.7467,118.2757 109.8567,118.2757 C110.9517,118.2757 111.9537,118.0707 112.8617,117.6627 C113.7707,117.2537 114.5437,116.7027 115.1817,116.0097 C115.8187,115.3157 116.3147,114.5157 116.6677,113.6067 C117.0217,112.6987 117.1987,111.7447 117.1987,110.7467 C117.2127,110.7327 117.2127,110.7187 117.1987,110.7047 C117.1987,109.7067 117.0247,108.7567 116.6787,107.8567 C116.3317,106.9547 115.8387,106.1597 115.2017,105.4747 L115.2017,105.4747 Z M116.0757,110.7877 C116.0757,111.6897 115.9227,112.5357 115.6187,113.3257 C115.3127,114.1167 114.8867,114.8057 114.3387,115.3957 C113.7917,115.9847 113.1397,116.4487 112.3837,116.7897 C111.6277,117.1287 110.7987,117.2977 109.8987,117.2977 C108.9967,117.2977 108.1647,117.1247 107.4027,116.7777 C106.6397,116.4317 105.9847,115.9647 105.4367,115.3747 C104.8887,114.7847 104.4597,114.0917 104.1467,113.2947 C103.8357,112.4967 103.6797,111.6487 103.6797,110.7467 L103.6797,110.7047 C103.6797,109.8047 103.8317,108.9577 104.1377,108.1677 C104.4417,107.3767 104.8687,106.6867 105.4157,106.0987 C105.9627,105.5087 106.6157,105.0447 107.3717,104.7047 C108.1267,104.3647 108.9557,104.1957 109.8567,104.1957 C110.7577,104.1957 111.5897,104.3687 112.3527,104.7147 C113.1147,105.0617 113.7707,105.5297 114.3177,106.1187 C114.8657,106.7087 115.2957,107.4007 115.6077,108.1987 C115.9197,108.9967 116.0757,109.8457 116.0757,110.7467 L116.0757,110.7877 Z" id="Fill-240"></path>
            <path d="M131.3105,105.5469 C130.6245,104.8959 129.8055,104.3859 128.8565,104.0179 C127.9065,103.6509 126.8625,103.4669 125.7255,103.4669 L120.8795,103.4669 L120.8795,118.0259 L125.7255,118.0259 C126.8625,118.0259 127.9065,117.8389 128.8565,117.4649 C129.8055,117.0909 130.6245,116.5779 131.3105,115.9259 C131.9965,115.2739 132.5275,114.5039 132.9015,113.6169 C133.2755,112.7299 133.4635,111.7729 133.4635,110.7469 L133.4635,110.7049 C133.4635,109.6789 133.2755,108.7259 132.9015,107.8449 C132.5275,106.9639 131.9965,106.1989 131.3105,105.5469 L131.3105,105.5469 Z M132.3405,110.7879 C132.3405,111.6659 132.1845,112.4819 131.8715,113.2409 C131.5605,113.9979 131.1195,114.6599 130.5515,115.2229 C129.9825,115.7869 129.2895,116.2319 128.4705,116.5589 C127.6525,116.8859 126.7375,117.0489 125.7255,117.0489 L121.9615,117.0489 L121.9615,104.4449 L125.7255,104.4449 C126.7375,104.4449 127.6525,104.6119 128.4705,104.9459 C129.2895,105.2799 129.9825,105.7319 130.5515,106.3029 C131.1195,106.8729 131.5605,107.5409 131.8715,108.3049 C132.1845,109.0709 132.3405,109.8849 132.3405,110.7469 L132.3405,110.7879 Z" id="Fill-242"></path>
            <path d="M149.1458,105.4747 C148.5078,104.7887 147.7388,104.2407 146.8368,103.8307 C145.9358,103.4227 144.9378,103.2167 143.8418,103.2167 C142.7328,103.2167 141.7278,103.4227 140.8258,103.8307 C139.9248,104.2407 139.1548,104.7917 138.5178,105.4847 C137.8798,106.1787 137.3838,106.9787 137.0308,107.8867 C136.6768,108.7957 136.4998,109.7477 136.4998,110.7467 L136.4998,110.7877 C136.4998,111.7867 136.6728,112.7377 137.0198,113.6377 C137.3658,114.5397 137.8588,115.3327 138.4968,116.0197 C139.1338,116.7057 139.8998,117.2537 140.7948,117.6627 C141.6888,118.0707 142.6908,118.2757 143.7998,118.2757 C144.8958,118.2757 145.8978,118.0707 146.8058,117.6627 C147.7138,117.2537 148.4868,116.7027 149.1248,116.0097 C149.7618,115.3157 150.2588,114.5157 150.6118,113.6067 C150.9658,112.6987 151.1428,111.7447 151.1428,110.7467 C151.1558,110.7327 151.1558,110.7187 151.1428,110.7047 C151.1428,109.7067 150.9688,108.7567 150.6218,107.8567 C150.2748,106.9547 149.7828,106.1597 149.1458,105.4747 L149.1458,105.4747 Z M150.0198,110.7877 C150.0198,111.6897 149.8668,112.5357 149.5618,113.3257 C149.2568,114.1167 148.8298,114.8057 148.2818,115.3957 C147.7338,115.9847 147.0828,116.4487 146.3268,116.7897 C145.5708,117.1287 144.7428,117.2977 143.8418,117.2977 C142.9398,117.2977 142.1078,117.1247 141.3458,116.7777 C140.5828,116.4317 139.9278,115.9647 139.3808,115.3747 C138.8318,114.7847 138.4028,114.0917 138.0908,113.2947 C137.7788,112.4967 137.6228,111.6487 137.6228,110.7467 L137.6228,110.7047 C137.6228,109.8047 137.7748,108.9577 138.0808,108.1677 C138.3858,107.3767 138.8118,106.6867 139.3588,106.0987 C139.9068,105.5087 140.5588,105.0447 141.3148,104.7047 C142.0708,104.3647 142.8988,104.1957 143.7998,104.1957 C144.7018,104.1957 145.5338,104.3687 146.2958,104.7147 C147.0578,105.0617 147.7138,105.5297 148.2618,106.1187 C148.8088,106.7087 149.2388,107.4007 149.5508,108.1987 C149.8628,108.9967 150.0198,109.8457 150.0198,110.7467 L150.0198,110.7877 Z" id="Fill-244"></path>
            <path d="M171.6914,111.9742 C171.6914,112.8482 171.5764,113.6172 171.3484,114.2822 C171.1194,114.9482 170.7924,115.5022 170.3704,115.9462 C169.9474,116.3902 169.4374,116.7232 168.8414,116.9452 C168.2454,117.1672 167.5794,117.2772 166.8444,117.2772 C165.2914,117.2772 164.0824,116.8092 163.2154,115.8742 C162.3484,114.9372 161.9154,113.6032 161.9154,111.8692 L161.9154,103.4672 L160.8334,103.4672 L160.8334,111.9742 C160.8334,113.0002 160.9794,113.9002 161.2714,114.6772 C161.5624,115.4542 161.9744,116.1102 162.5084,116.6432 C163.0424,117.1772 163.6734,117.5792 164.4004,117.8492 C165.1294,118.1192 165.9304,118.2552 166.8034,118.2552 C167.6904,118.2552 168.4974,118.1162 169.2254,117.8392 C169.9544,117.5622 170.5814,117.1532 171.1084,116.6122 C171.6354,116.0712 172.0454,115.4032 172.3354,114.6052 C172.6274,113.8072 172.7734,112.8892 172.7734,111.8492 L172.7734,103.4672 L171.6914,103.4672 L171.6914,111.9742 Z" id="Fill-246"></path>
            <polygon id="Fill-249" points="183.7336 112.0778 177.8886 103.4668 176.8696 103.4668 176.8696 118.0258 177.9096 118.0258 177.9096 105.3798 183.6716 113.7628 183.7536 113.7628 189.5156 105.3798 189.5156 118.0258 190.5976 118.0258 190.5976 103.4668 189.5776 103.4668"></polygon>
            <polygon id="Fill-250" points="208.0264 112.0778 202.1824 103.4668 201.1624 103.4668 201.1624 118.0258 202.2024 118.0258 202.2024 105.3798 207.9644 113.7628 208.0474 113.7628 213.8084 105.3798 213.8084 118.0258 214.8904 118.0258 214.8904 103.4668 213.8704 103.4668"></polygon>
            <path d="M229.8442,111.9742 C229.8442,112.8482 229.7292,113.6172 229.5012,114.2822 C229.2722,114.9482 228.9472,115.5022 228.5232,115.9462 C228.1002,116.3902 227.5912,116.7232 226.9942,116.9452 C226.3992,117.1672 225.7332,117.2772 224.9982,117.2772 C223.4452,117.2772 222.2352,116.8092 221.3692,115.8742 C220.5022,114.9372 220.0682,113.6032 220.0682,111.8692 L220.0682,103.4672 L218.9872,103.4672 L218.9872,111.9742 C218.9872,113.0002 219.1322,113.9002 219.4242,114.6772 C219.7152,115.4542 220.1282,116.1102 220.6612,116.6432 C221.1952,117.1772 221.8262,117.5792 222.5542,117.8492 C223.2822,118.1192 224.0832,118.2552 224.9562,118.2552 C225.8442,118.2552 226.6522,118.1162 227.3792,117.8392 C228.1072,117.5622 228.7342,117.1532 229.2622,116.6122 C229.7882,116.0712 230.1982,115.4032 230.4892,114.6052 C230.7812,113.8072 230.9262,112.8892 230.9262,111.8492 L230.9262,103.4672 L229.8442,103.4672 L229.8442,111.9742 Z" id="Fill-251"></path>
            <polygon id="Fill-253" points="246.0886 116.134 236.0426 103.467 235.0236 103.467 235.0236 118.026 236.0626 118.026 236.0626 105.09 246.3176 118.026 247.1286 118.026 247.1286 103.467 246.0886 103.467"></polygon>
            <path d="M261.8848,105.5469 C261.1988,104.8959 260.3808,104.3859 259.4308,104.0179 C258.4808,103.6509 257.4368,103.4669 256.3008,103.4669 L251.4548,103.4669 L251.4548,118.0259 L256.3008,118.0259 C257.4368,118.0259 258.4808,117.8389 259.4308,117.4649 C260.3808,117.0909 261.1988,116.5779 261.8848,115.9259 C262.5708,115.2739 263.1018,114.5039 263.4768,113.6169 C263.8498,112.7299 264.0378,111.7729 264.0378,110.7469 L264.0378,110.7049 C264.0378,109.6789 263.8498,108.7259 263.4768,107.8449 C263.1018,106.9639 262.5708,106.1989 261.8848,105.5469 L261.8848,105.5469 Z M262.9148,110.7879 C262.9148,111.6659 262.7588,112.4819 262.4468,113.2409 C262.1348,113.9979 261.6938,114.6599 261.1258,115.2229 C260.5568,115.7869 259.8638,116.2319 259.0458,116.5589 C258.2278,116.8859 257.3128,117.0489 256.3008,117.0489 L252.5368,117.0489 L252.5368,104.4449 L256.3008,104.4449 C257.3128,104.4449 258.2278,104.6119 259.0458,104.9459 C259.8638,105.2799 260.5568,105.7319 261.1258,106.3029 C261.6938,106.8729 262.1348,107.5409 262.4468,108.3049 C262.7588,109.0709 262.9148,109.8849 262.9148,110.7469 L262.9148,110.7879 Z" id="Fill-254"></path>
            <path d="M279.7197,105.4747 C279.0827,104.7887 278.3127,104.2407 277.4117,103.8307 C276.5097,103.4227 275.5117,103.2167 274.4167,103.2167 C273.3067,103.2167 272.3017,103.4227 271.4007,103.8307 C270.4987,104.2407 269.7297,104.7917 269.0917,105.4847 C268.4537,106.1787 267.9577,106.9787 267.6047,107.8867 C267.2507,108.7957 267.0747,109.7477 267.0747,110.7467 L267.0747,110.7877 C267.0747,111.7867 267.2477,112.7377 267.5947,113.6377 C267.9407,114.5397 268.4327,115.3327 269.0707,116.0197 C269.7087,116.7057 270.4747,117.2537 271.3697,117.6627 C272.2627,118.0707 273.2647,118.2757 274.3747,118.2757 C275.4697,118.2757 276.4717,118.0707 277.3797,117.6627 C278.2887,117.2537 279.0617,116.7027 279.6997,116.0097 C280.3367,115.3157 280.8327,114.5157 281.1857,113.6067 C281.5407,112.6987 281.7167,111.7447 281.7167,110.7467 C281.7307,110.7327 281.7307,110.7187 281.7167,110.7047 C281.7167,109.7067 281.5427,108.7567 281.1967,107.8567 C280.8497,106.9547 280.3577,106.1597 279.7197,105.4747 L279.7197,105.4747 Z M280.5937,110.7877 C280.5937,111.6897 280.4407,112.5357 280.1367,113.3257 C279.8307,114.1167 279.4047,114.8057 278.8567,115.3957 C278.3097,115.9847 277.6577,116.4487 276.9017,116.7897 C276.1457,117.1287 275.3167,117.2977 274.4167,117.2977 C273.5147,117.2977 272.6827,117.1247 271.9207,116.7777 C271.1577,116.4317 270.5027,115.9647 269.9547,115.3747 C269.4067,114.7847 268.9777,114.0917 268.6647,113.2947 C268.3537,112.4967 268.1977,111.6487 268.1977,110.7467 L268.1977,110.7047 C268.1977,109.8047 268.3497,108.9577 268.6557,108.1677 C268.9597,107.3767 269.3867,106.6867 269.9337,106.0987 C270.4807,105.5087 271.1337,105.0447 271.8897,104.7047 C272.6447,104.3647 273.4737,104.1957 274.3747,104.1957 C275.2757,104.1957 276.1077,104.3687 276.8707,104.7147 C277.6327,105.0617 278.2887,105.5297 278.8357,106.1187 C279.3837,106.7087 279.8137,107.4007 280.1257,108.1987 C280.4377,108.9967 280.5937,109.8457 280.5937,110.7467 L280.5937,110.7877 Z" id="Fill-256"></path>
            <polygon id="Fill-259" points="33.8645 56.8349 26.9905 87.1489 62.1165 87.1489 86.9245 70.8699 60.5925 47.9769"></polygon>
        </g>
    </g>
</svg>