<?xml version="1.0" encoding="UTF-8" standalone="no"?>
<svg width="287px" height="50px" viewBox="0 0 287 50" version="1.1" xmlns="http://www.w3.org/2000/svg" xmlns:xlink="http://www.w3.org/1999/xlink">
    <!-- Generator: Sketch 3.7.2 (28276) - http://www.bohemiancoding.com/sketch -->
    <title>Group</title>
    <desc>Created with Sketch.</desc>
    <defs></defs>
    <g id="Page-1" stroke="none" stroke-width="1" fill="none" fill-rule="evenodd">
        <g id="Group" fill="#ffffff">
            <path d="M133.7428,33.4274 L129.6158,33.4274 L129.6158,48.1614 L134.0388,48.1614 L134.0388,38.9684 C134.0388,38.9684 135.0398,36.9634 136.9858,36.9634 C138.4278,36.9634 139.3438,37.9074 139.3438,39.9694 L139.3438,48.1614 L143.7638,48.1614 L143.7638,38.9684 C143.7638,38.9684 144.7648,36.9634 146.7108,36.9634 C148.1528,36.9634 149.0688,37.9074 149.0688,39.9694 L149.0688,48.1614 L153.4888,48.1614 L153.4888,39.9694 C153.4888,35.7254 151.8398,33.3114 148.1838,33.3114 C145.4138,33.3114 143.7928,35.1084 143.0838,36.0784 C142.2908,34.2804 140.7578,33.3114 138.4588,33.3114 C136.1888,33.3114 134.7158,34.4884 133.8308,35.4894 L133.7428,33.4274 Z M171.1708,48.1614 L171.1708,33.4274 L167.3388,33.4274 L167.1338,34.8724 C166.0728,33.8394 164.6278,33.1314 162.7708,33.1314 C158.9108,33.1314 155.8478,36.1384 155.8478,40.7944 C155.8478,45.4514 158.9108,48.4574 162.7708,48.4574 C164.6278,48.4574 166.0728,47.7494 167.1338,46.7194 L167.3388,48.1614 L171.1708,48.1614 Z M167.0458,40.7944 C167.0458,43.2124 165.8658,44.7744 163.6548,44.7744 C161.4448,44.7744 160.2678,43.2124 160.2678,40.7944 C160.2678,38.3794 161.4448,36.8184 163.6548,36.8184 C165.8658,36.8184 167.0458,38.3794 167.0458,40.7944 L167.0458,40.7944 Z M183.0178,36.8184 L183.0178,33.4274 L180.2468,33.4274 L180.2468,28.8874 L175.8268,29.9484 L175.8268,33.4274 L173.6768,33.4274 L173.6768,36.8184 L175.8268,36.8184 L175.8268,44.3614 C175.8268,46.9244 177.2718,48.4574 179.7468,48.4574 C181.4848,48.4574 183.1058,47.8974 183.1058,47.8974 L183.1058,44.4784 C183.1058,44.4784 182.1648,44.7144 181.5158,44.7144 C180.7478,44.7144 180.2468,44.2734 180.2468,42.9484 L180.2468,36.8184 L183.0178,36.8184 Z M185.1708,40.7944 C185.1708,45.4514 188.3228,48.4574 192.9788,48.4574 C197.6358,48.4574 200.7898,45.4514 200.7898,40.7944 C200.7898,36.1384 197.6358,33.1314 192.9788,33.1314 C188.3228,33.1314 185.1708,36.1384 185.1708,40.7944 L185.1708,40.7944 Z M189.5918,40.7944 C189.5918,38.3794 190.7688,36.8184 192.9788,36.8184 C195.1888,36.8184 196.3698,38.3794 196.3698,40.7944 C196.3698,43.2124 195.1888,44.7744 192.9788,44.7744 C190.7688,44.7744 189.5918,43.2124 189.5918,40.7944 L189.5918,40.7944 Z M207.8048,44.9224 C206.1238,44.9224 204.1498,43.3604 204.1498,43.3604 L202.0868,46.2194 C202.0868,46.2194 204.3258,48.4574 207.8048,48.4574 C211.1358,48.4574 213.3138,46.7794 213.3138,43.7414 C213.3138,39.1444 207.0678,39.1734 207.0678,37.4634 C207.0678,36.9344 207.5088,36.5224 208.2458,36.5224 C209.6908,36.5224 210.8678,37.6714 210.8678,37.6714 L213.1098,35.0484 C213.1098,35.0484 211.3118,33.1314 208.0688,33.1314 C204.9458,33.1314 202.7928,34.9004 202.7928,37.4354 C202.7928,42.1514 209.1898,42.0314 209.1898,43.8614 C209.1898,44.4784 208.6898,44.9224 207.8048,44.9224 L207.8048,44.9224 Z M216.2618,48.1614 L220.6818,48.1614 L220.6818,33.4274 L216.2618,33.4274 L216.2618,48.1614 Z M215.9678,29.1234 C215.9678,30.6284 216.9698,31.6294 218.4708,31.6294 C219.9758,31.6294 220.9778,30.6284 220.9778,29.1234 C220.9778,27.6214 219.9758,26.6204 218.4708,26.6204 C216.9698,26.6204 215.9678,27.6214 215.9678,29.1234 L215.9678,29.1234 Z M228.6408,38.9684 C228.6408,38.9684 229.6418,36.9634 231.5868,36.9634 C233.0328,36.9634 233.9458,37.9074 233.9458,39.9694 L233.9458,48.1614 L238.3658,48.1614 L238.3658,39.9694 C238.3658,35.7254 236.7158,33.3114 233.0608,33.3114 C230.7908,33.3114 229.3178,34.4884 228.4328,35.4894 L228.3448,33.4274 L224.2198,33.4274 L224.2198,48.1614 L228.6408,48.1614 L228.6408,38.9684 Z M246.3218,38.9684 C246.3218,38.9684 247.3258,36.9634 249.2688,36.9634 C250.7138,36.9634 251.6268,37.9074 251.6268,39.9694 L251.6268,48.1614 L256.0468,48.1614 L256.0468,39.9694 C256.0468,35.7254 254.3968,33.3114 250.7418,33.3114 C248.6198,33.3114 247.2058,34.3124 246.3218,35.2854 L246.3218,27.5024 L241.9008,27.5024 L241.9008,48.1614 L246.3218,48.1614 L246.3218,38.9684 Z M258.4048,40.7944 C258.4048,45.4514 261.5598,48.4574 266.2158,48.4574 C270.8728,48.4574 274.0238,45.4514 274.0238,40.7944 C274.0238,36.1384 270.8728,33.1314 266.2158,33.1314 C261.5598,33.1314 258.4048,36.1384 258.4048,40.7944 L258.4048,40.7944 Z M262.8248,40.7944 C262.8248,38.3794 264.0058,36.8184 266.2158,36.8184 C268.4258,36.8184 269.6038,38.3794 269.6038,40.7944 C269.6038,43.2124 268.4258,44.7744 266.2158,44.7744 C264.0058,44.7744 262.8248,43.2124 262.8248,40.7944 L262.8248,40.7944 Z M281.0388,44.9224 C279.3608,44.9224 277.3828,43.3604 277.3828,43.3604 L275.3208,46.2194 C275.3208,46.2194 277.5628,48.4574 281.0388,48.4574 C284.3698,48.4574 286.5508,46.7794 286.5508,43.7414 C286.5508,39.1444 280.3018,39.1734 280.3018,37.4634 C280.3018,36.9344 280.7458,36.5224 281.4828,36.5224 C282.9238,36.5224 284.1048,37.6714 284.1048,37.6714 L286.3438,35.0484 C286.3438,35.0484 284.5458,33.1314 281.3028,33.1314 C278.1798,33.1314 276.0298,34.9004 276.0298,37.4354 C276.0298,42.1514 282.4238,42.0314 282.4238,43.8614 C282.4238,44.4784 281.9228,44.9224 281.0388,44.9224 L281.0388,44.9224 Z" id="Fill-1"></path>
            <path d="M8.0493,50.0145 C7.0423,50.0145 6.0183,49.8065 5.0393,49.3655 C1.3403,47.7035 -0.3127,43.3525 1.3523,39.6535 L17.1793,4.4675 C18.3663,1.8325 20.9893,0.1355 23.8823,0.1355 C26.7723,0.1355 29.3953,1.8325 30.5823,4.4675 L39.7093,24.7585 L48.8363,4.4675 C50.0233,1.8325 52.6453,0.1355 55.5363,0.1355 C58.4293,0.1355 61.0513,1.8325 62.2383,4.4675 L71.3653,24.7585 L80.4933,4.4675 C81.6793,1.8325 84.3023,0.1355 87.1923,0.1355 C90.0863,0.1355 92.7083,1.8325 93.8953,4.4675 L109.7223,39.6535 C111.3843,43.3525 109.7343,47.7035 106.0353,49.3655 C102.3333,51.0315 97.9853,49.3785 96.3193,45.6795 L87.1923,25.3885 L78.0653,45.6795 C76.8783,48.3175 74.2563,50.0115 71.3653,50.0115 C68.4723,50.0115 65.8503,48.3175 64.6633,45.6795 L55.5363,25.3885 L46.4093,45.6795 C45.2253,48.3175 42.6023,50.0115 39.7093,50.0115 C36.8193,50.0115 34.1963,48.3175 33.0093,45.6795 L23.8823,25.3885 L14.7553,45.6795 C13.5303,48.4025 10.8513,50.0145 8.0493,50.0145" id="Fill-3"></path>
        </g>
    </g>
</svg>