<?xml version="1.0" encoding="UTF-8" standalone="no"?>
<svg width="409px" height="124px" viewBox="0 0 409 124" version="1.1" xmlns="http://www.w3.org/2000/svg" xmlns:xlink="http://www.w3.org/1999/xlink">
    <!-- Generator: Sketch 3.7.2 (28276) - http://www.bohemiancoding.com/sketch -->
    <title>Group</title>
    <desc>Created with Sketch.</desc>
    <defs></defs>
    <g id="Page-1" stroke="none" stroke-width="1" fill="none" fill-rule="evenodd">
        <g id="Group" fill="#000000">
            <path d="M0.8906,47.8101 C0.8906,32.9871 4.8766,21.3831 12.8496,12.9961 C20.8236,4.6101 31.1146,0.4171 43.7236,0.4171 C51.9826,0.4171 59.4266,2.3871 66.0566,6.3261 C72.6876,10.2661 77.7416,15.7571 81.2196,22.8031 C84.6976,29.8491 86.4366,37.8391 86.4366,46.7751 C86.4366,55.8311 84.6056,63.9321 80.9446,71.0811 C77.2836,78.2281 72.0966,83.6391 65.3846,87.3121 C58.6726,90.9881 51.4326,92.8281 43.6626,92.8281 C35.2426,92.8281 27.7166,90.7951 21.0866,86.7341 C14.4556,82.6761 9.4326,77.1311 6.0156,70.1051 C2.5986,63.0791 0.8906,55.6491 0.8906,47.8101 L0.8906,47.8101 Z M13.1296,48.0231 C13.1296,58.7731 16.0246,67.2441 21.8146,73.4321 C27.6046,79.6171 34.8676,82.7111 43.6036,82.7111 C52.5016,82.7111 59.8256,79.5881 65.5736,73.3401 C71.3236,67.0911 74.1986,58.2261 74.1986,46.7451 C74.1986,39.4841 72.9696,33.1431 70.5116,27.7281 C68.0526,22.3111 64.4566,18.1121 59.7236,15.1301 C54.9896,12.1471 49.6766,10.6581 43.7846,10.6581 C35.4136,10.6581 28.2136,13.5281 22.1796,19.2691 C16.1456,25.0091 13.1296,34.5931 13.1296,48.0231 L13.1296,48.0231 Z" id="Fill-1"></path>
            <polygon id="Fill-3" points="124.3115 91.3301 124.3115 12.4051 94.8395 12.4051 94.8395 1.9151 165.6485 1.9151 165.6485 12.4051 136.1765 12.4051 136.1765 91.3301"></polygon>
            <polygon id="Fill-5" points="179.929 91.331 191.793 91.331 191.793 1.916 179.929 1.916"></polygon>
            <polygon id="Fill-7" points="205.978 91.331 217.843 91.331 217.843 1.916 205.978 1.916"></polygon>
            <path d="M229.7783,91.3301 L229.7783,1.9151 L247.5213,1.9151 L268.6643,65.2091 C270.6113,71.1041 272.0333,75.5141 272.9253,78.4411 C273.9493,75.1881 275.5433,70.4121 277.7093,64.1101 L299.2423,1.9151 L315.0733,1.9151 L315.0733,91.3301 L303.7113,91.3301 L303.7113,16.5261 L277.6073,91.3301 L266.9483,91.3301 L241.1423,15.1521 L241.1423,91.3301 L229.7783,91.3301 Z" id="Fill-8"></path>
            <path d="M324.3838,91.3301 L358.6908,1.9151 L371.6918,1.9151 L408.1098,91.3301 L394.6338,91.3301 L384.2988,64.2301 L346.6348,64.2301 L336.9388,91.3301 L324.3838,91.3301 Z M350.1178,54.6131 L380.5938,54.6131 L371.2528,29.8321 C368.4518,22.2951 366.3188,16.0711 364.8478,11.1571 C363.6168,16.9761 361.9728,22.7141 359.9148,28.3721 L350.1178,54.6131 Z" id="Fill-9"></path>
            <path d="M23.5547,123.4492 L23.5547,106.8902 L26.0757,106.8902 L26.0757,109.2302 C26.5947,108.4222 27.2847,107.7712 28.1447,107.2772 C29.0057,106.7852 29.9877,106.5392 31.0867,106.5392 C32.3117,106.5392 33.3147,106.7932 34.0967,107.3032 C34.8817,107.8102 35.4337,108.5192 35.7557,109.4312 C37.0687,107.5042 38.7807,106.5392 40.8877,106.5392 C42.5357,106.5392 43.8047,106.9942 44.6907,107.9022 C45.5767,108.8102 46.0207,110.2092 46.0207,112.0972 L46.0207,123.4492 L43.2127,123.4492 L43.2127,113.0292 C43.2127,111.9102 43.1207,111.1012 42.9387,110.6092 C42.7567,110.1152 42.4257,109.7172 41.9457,109.4162 C41.4667,109.1172 40.9037,108.9652 40.2577,108.9652 C39.0897,108.9652 38.1207,109.3512 37.3487,110.1252 C36.5777,110.8962 36.1917,112.1362 36.1917,113.8402 L36.1917,123.4492 L33.3827,123.4492 L33.3827,112.7032 C33.3827,111.4572 33.1557,110.5212 32.6997,109.8982 C32.2427,109.2772 31.4947,108.9652 30.4567,108.9652 C29.6687,108.9652 28.9397,109.1742 28.2697,109.5882 C27.6007,110.0022 27.1157,110.6112 26.8147,111.4102 C26.5127,112.2092 26.3637,113.3612 26.3637,114.8672 L26.3637,123.4492 L23.5547,123.4492 Z" id="Fill-10"></path>
            <path d="M60.9922,123.4492 L60.9922,120.9882 C59.7062,122.8632 57.9612,123.7992 55.7542,123.7992 C54.7792,123.7992 53.8702,123.6132 53.0242,123.2382 C52.1802,122.8652 51.5542,122.3962 51.1442,121.8322 C50.7352,121.2652 50.4462,120.5722 50.2812,119.7522 C50.1672,119.2032 50.1092,118.3302 50.1092,117.1352 L50.1092,106.8902 L52.9182,106.8902 L52.9182,116.0542 C52.9182,117.5172 52.9752,118.5022 53.0892,119.0112 C53.2652,119.7482 53.6392,120.3262 54.2082,120.7462 C54.7782,121.1662 55.4822,121.3772 56.3232,121.3772 C57.1622,121.3772 57.9492,121.1622 58.6852,120.7282 C59.4202,120.2992 59.9412,119.7132 60.2462,118.9722 C60.5532,118.2302 60.7052,117.1542 60.7052,115.7442 L60.7052,106.8902 L63.5132,106.8902 L63.5132,123.4492 L60.9922,123.4492 Z" id="Fill-11"></path>
            <path d="M78.7588,117.3867 L81.5048,117.7717 C81.2038,119.6567 80.4328,121.1327 79.1928,122.2007 C77.9538,123.2677 76.4308,123.7987 74.6268,123.7987 C72.3648,123.7987 70.5478,123.0607 69.1738,121.5837 C67.7998,120.1057 67.1118,117.9887 67.1118,115.2307 C67.1118,113.4487 67.4068,111.8907 67.9988,110.5527 C68.5908,109.2147 69.4918,108.2107 70.6998,107.5427 C71.9108,106.8747 73.2248,106.5387 74.6478,106.5387 C76.4438,106.5387 77.9118,106.9937 79.0538,107.9027 C80.1958,108.8107 80.9268,110.0997 81.2478,111.7737 L78.5358,112.1877 C78.2768,111.0757 77.8158,110.2407 77.1548,109.6797 C76.4948,109.1167 75.6958,108.8357 74.7588,108.8357 C73.3438,108.8357 72.1948,109.3437 71.3098,110.3557 C70.4258,111.3667 69.9848,112.9647 69.9848,115.1567 C69.9848,117.3747 70.4098,118.9887 71.2608,119.9957 C72.1148,120.9997 73.2268,121.5017 74.5978,121.5017 C75.6988,121.5017 76.6188,121.1677 77.3578,120.4937 C78.0938,119.8227 78.5628,118.7847 78.7588,117.3867" id="Fill-12"></path>
            <path d="M83.897,123.4492 L83.897,100.6052 L86.706,100.6052 L86.706,108.8242 C88.009,107.3032 89.653,106.5392 91.64,106.5392 C92.859,106.5392 93.92,106.7812 94.82,107.2652 C95.72,107.7462 96.364,108.4142 96.75,109.2632 C97.139,110.1152 97.332,111.3512 97.332,112.9702 L97.332,123.4492 L94.524,123.4492 L94.524,112.9782 C94.524,111.5802 94.222,110.5582 93.619,109.9202 C93.015,109.2832 92.161,108.9652 91.056,108.9652 C90.231,108.9652 89.454,109.1792 88.726,109.6092 C87.999,110.0412 87.481,110.6232 87.17,111.3592 C86.861,112.0972 86.706,113.1152 86.706,114.4102 L86.706,123.4492 L83.897,123.4492 Z" id="Fill-13"></path>
            <path d="M110.5117,123.4492 L110.5117,106.8902 L113.0327,106.8902 L113.0327,109.2302 C113.5507,108.4222 114.2407,107.7712 115.1017,107.2772 C115.9627,106.7852 116.9437,106.5392 118.0427,106.5392 C119.2677,106.5392 120.2717,106.7932 121.0547,107.3032 C121.8387,107.8102 122.3907,108.5192 122.7107,109.4312 C124.0267,107.5042 125.7377,106.5392 127.8447,106.5392 C129.4927,106.5392 130.7607,106.9942 131.6477,107.9022 C132.5337,108.8102 132.9787,110.2092 132.9787,112.0972 L132.9787,123.4492 L130.1697,123.4492 L130.1697,113.0292 C130.1697,111.9102 130.0777,111.1012 129.8967,110.6092 C129.7137,110.1152 129.3817,109.7172 128.9027,109.4162 C128.4227,109.1172 127.8607,108.9652 127.2147,108.9652 C126.0467,108.9652 125.0767,109.3512 124.3047,110.1252 C123.5337,110.8962 123.1487,112.1362 123.1487,113.8402 L123.1487,123.4492 L120.3397,123.4492 L120.3397,112.7032 C120.3397,111.4572 120.1127,110.5212 119.6557,109.8982 C119.1997,109.2772 118.4507,108.9652 117.4127,108.9652 C116.6247,108.9652 115.8967,109.1742 115.2267,109.5882 C114.5567,110.0022 114.0717,110.6112 113.7717,111.4102 C113.4707,112.2092 113.3197,113.3612 113.3197,114.8672 L113.3197,123.4492 L110.5117,123.4492 Z" id="Fill-14"></path>
            <path d="M136.0781,115.1699 C136.0781,112.1129 136.9301,109.8459 138.6341,108.3749 C140.0571,107.1519 141.7931,106.5389 143.8401,106.5389 C146.1151,106.5389 147.9761,107.2849 149.4211,108.7719 C150.8641,110.2599 151.5861,112.3129 151.5861,114.9359 C151.5861,117.0629 151.2671,118.7339 150.6291,119.9509 C149.9891,121.1699 149.0581,122.1169 147.8381,122.7889 C146.6171,123.4629 145.2841,123.7989 143.8401,123.7989 C141.5231,123.7989 139.6491,123.0589 138.2211,121.5759 C136.7921,120.0959 136.0781,117.9589 136.0781,115.1699 M138.9491,115.1799 C138.9491,117.2909 139.4131,118.8749 140.3401,119.9259 C141.2671,120.9769 142.4341,121.5019 143.8401,121.5019 C145.2361,121.5019 146.3961,120.9749 147.3241,119.9179 C148.2511,118.8609 148.7151,117.2499 148.7151,115.0859 C148.7151,113.0429 148.2491,111.4959 147.3161,110.4449 C146.3851,109.3949 145.2251,108.8689 143.8401,108.8689 C142.4341,108.8689 141.2671,109.3929 140.3401,110.4399 C139.4131,111.4859 138.9491,113.0649 138.9491,115.1799" id="Fill-15"></path>
            <path d="M154.8662,123.4492 L154.8662,106.8902 L157.3872,106.8902 L157.3872,109.4282 C158.0332,108.2522 158.6282,107.4742 159.1752,107.1012 C159.7202,106.7282 160.3212,106.5392 160.9782,106.5392 C161.9252,106.5392 162.8872,106.8382 163.8652,107.4282 L162.8642,110.0172 C162.1822,109.6332 161.5022,109.4432 160.8212,109.4432 C160.2122,109.4432 159.6662,109.6272 159.1802,109.9942 C158.6952,110.3632 158.3482,110.8752 158.1412,111.5292 C157.8312,112.5252 157.6752,113.6132 157.6752,114.7972 L157.6752,123.4492 L154.8662,123.4492 Z" id="Fill-16"></path>
            <path d="M176.8574,118.0879 L179.7614,118.4709 C179.3064,120.1599 178.4614,121.4689 177.2274,122.4009 C175.9944,123.3339 174.4194,123.7989 172.5014,123.7989 C170.0864,123.7989 168.1704,123.0569 166.7544,121.5699 C165.3414,120.0819 164.6334,117.9959 164.6334,115.3089 C164.6334,112.5329 165.3484,110.3769 166.7794,108.8419 C168.2104,107.3089 170.0654,106.5389 172.3454,106.5389 C174.5524,106.5389 176.3574,107.2929 177.7564,108.7949 C179.1564,110.2989 179.8554,112.4119 179.8554,115.1409 C179.8554,115.3069 179.8514,115.5569 179.8394,115.8869 L167.5044,115.8869 C167.6094,117.7029 168.1234,119.0919 169.0454,120.0569 C169.9684,121.0199 171.1204,121.5019 172.5004,121.5019 C173.5274,121.5019 174.4034,121.2329 175.1294,120.6899 C175.8564,120.1469 176.4324,119.2789 176.8574,118.0879 M167.6654,113.5899 L176.8874,113.5899 C176.7634,112.1969 176.4114,111.1539 175.8304,110.4589 C174.9384,109.3769 173.7824,108.8359 172.3624,108.8359 C171.0774,108.8359 169.9964,109.2699 169.1194,110.1309 C168.2434,110.9919 167.7574,112.1469 167.6654,113.5899" id="Fill-17"></path>
            <path d="M198.2705,120.9453 L198.6535,123.4243 C197.8665,123.5913 197.1615,123.6743 196.5405,123.6743 C195.5245,123.6743 194.7365,123.5113 194.1775,123.1893 C193.6175,122.8653 193.2245,122.4413 192.9965,121.9163 C192.7675,121.3883 192.6545,120.2873 192.6545,118.5993 L192.6545,109.0603 L190.5805,109.0603 L190.5805,106.8903 L192.6545,106.8903 L192.6545,102.7953 L195.4615,101.1113 L195.4615,106.8903 L198.2705,106.8903 L198.2705,109.0603 L195.4615,109.0603 L195.4615,118.7593 C195.4615,119.5623 195.5115,120.0783 195.6095,120.3083 C195.7075,120.5353 195.8685,120.7183 196.0895,120.8533 C196.3125,120.9903 196.6305,121.0563 197.0445,121.0563 C197.3555,121.0563 197.7635,121.0193 198.2705,120.9453" id="Fill-18"></path>
            <path d="M201.0234,123.4492 L201.0234,100.6052 L203.8324,100.6052 L203.8324,108.8242 C205.1344,107.3032 206.7794,106.5392 208.7654,106.5392 C209.9854,106.5392 211.0454,106.7812 211.9464,107.2652 C212.8464,107.7462 213.4904,108.4142 213.8774,109.2632 C214.2634,110.1152 214.4604,111.3512 214.4604,112.9702 L214.4604,123.4492 L211.6514,123.4492 L211.6514,112.9782 C211.6514,111.5802 211.3474,110.5582 210.7454,109.9202 C210.1404,109.2832 209.2864,108.9652 208.1834,108.9652 C207.3574,108.9652 206.5804,109.1792 205.8524,109.6092 C205.1254,110.0412 204.6064,110.6232 204.2964,111.3592 C203.9874,112.0972 203.8324,113.1152 203.8324,114.4102 L203.8324,123.4492 L201.0234,123.4492 Z" id="Fill-19"></path>
            <path d="M229.6113,121.377 C228.5643,122.262 227.5613,122.887 226.6013,123.252 C225.6373,123.617 224.6033,123.799 223.5013,123.799 C221.6783,123.799 220.2783,123.356 219.3013,122.471 C218.3243,121.586 217.8343,120.453 217.8343,119.076 C217.8343,118.268 218.0203,117.529 218.3893,116.861 C218.7583,116.193 219.2403,115.656 219.8403,115.254 C220.4393,114.85 221.1123,114.543 221.8633,114.336 C222.4153,114.191 223.2443,114.051 224.3603,113.916 C226.6283,113.647 228.2993,113.324 229.3723,112.953 C229.3813,112.57 229.3843,112.326 229.3843,112.223 C229.3843,111.084 229.1203,110.283 228.5903,109.816 C227.8693,109.184 226.8003,108.869 225.3853,108.869 C224.0633,108.869 223.0863,109.102 222.4563,109.564 C221.8243,110.029 221.3603,110.85 221.0553,112.027 L218.3133,111.645 C218.5633,110.467 218.9753,109.52 219.5483,108.795 C220.1203,108.072 220.9493,107.518 222.0333,107.125 C223.1193,106.734 224.3743,106.539 225.8023,106.539 C227.2173,106.539 228.3693,106.707 229.2553,107.039 C230.1403,107.371 230.7943,107.793 231.2093,108.297 C231.6263,108.803 231.9193,109.438 232.0863,110.209 C232.1793,110.689 232.2243,111.549 232.2243,112.789 L232.2243,116.512 C232.2243,119.109 232.2863,120.756 232.3983,121.449 C232.5153,122.145 232.7463,122.811 233.0893,123.449 L230.1533,123.449 C229.8713,122.859 229.6893,122.166 229.6113,121.377 L229.6113,121.377 Z M229.3843,115.152 C228.3643,115.568 226.8323,115.918 224.7913,116.209 C223.6313,116.373 222.8143,116.559 222.3353,116.764 C221.8543,116.973 221.4863,117.275 221.2253,117.672 C220.9653,118.068 220.8343,118.51 220.8343,118.996 C220.8343,119.738 221.1173,120.359 221.6853,120.856 C222.2503,121.35 223.0823,121.6 224.1733,121.6 C225.2553,121.6 226.2193,121.363 227.0613,120.895 C227.9043,120.426 228.5233,119.783 228.9183,118.967 C229.2193,118.336 229.3723,117.406 229.3723,116.176 L229.3843,115.152 Z" id="Fill-20"></path>
            <path d="M236.5586,123.4492 L236.5586,106.8902 L239.0796,106.8902 L239.0796,109.2422 C240.2936,107.4412 242.0476,106.5392 244.3406,106.5392 C245.3396,106.5392 246.2556,106.7202 247.0896,107.0762 C247.9256,107.4352 248.5506,107.9062 248.9656,108.4862 C249.3826,109.0662 249.6736,109.7582 249.8386,110.5562 C249.9436,111.0762 249.9956,111.9822 249.9956,113.2812 L249.9956,123.4492 L247.1856,123.4492 L247.1856,113.3882 C247.1856,112.2462 247.0776,111.3922 246.8596,110.8262 C246.6426,110.2602 246.2556,109.8062 245.7006,109.4702 C245.1486,109.1352 244.4966,108.9652 243.7496,108.9652 C242.5606,108.9652 241.5316,109.3452 240.6646,110.1032 C239.7986,110.8572 239.3696,112.2992 239.3696,114.4142 L239.3696,123.4492 L236.5586,123.4492 Z" id="Fill-21"></path>
            <path d="M273.9922,121.377 C272.9502,122.262 271.9472,122.887 270.9822,123.252 C270.0202,123.617 268.9872,123.799 267.8852,123.799 C266.0622,123.799 264.6642,123.356 263.6872,122.471 C262.7062,121.586 262.2202,120.453 262.2202,119.076 C262.2202,118.268 262.4012,117.529 262.7702,116.861 C263.1422,116.193 263.6262,115.656 264.2232,115.254 C264.8232,114.85 265.4962,114.543 266.2452,114.336 C266.7972,114.191 267.6302,114.051 268.7422,113.916 C271.0132,113.647 272.6822,113.324 273.7532,112.953 C273.7642,112.57 273.7702,112.326 273.7702,112.223 C273.7702,111.084 273.5062,110.283 272.9732,109.816 C272.2552,109.184 271.1862,108.869 269.7712,108.869 C268.4462,108.869 267.4702,109.102 266.8402,109.564 C266.2102,110.029 265.7432,110.85 265.4412,112.027 L262.6972,111.645 C262.9472,110.467 263.3572,109.52 263.9302,108.795 C264.5042,108.072 265.3332,107.518 266.4192,107.125 C267.5002,106.734 268.7572,106.539 270.1832,106.539 C271.6032,106.539 272.7552,106.707 273.6402,107.039 C274.5262,107.371 275.1782,107.793 275.5952,108.297 C276.0122,108.803 276.3032,109.438 276.4702,110.209 C276.5622,110.689 276.6102,111.549 276.6102,112.789 L276.6102,116.512 C276.6102,119.109 276.6672,120.756 276.7842,121.449 C276.8992,122.145 277.1302,122.811 277.4712,123.449 L274.5352,123.449 C274.2552,122.859 274.0742,122.166 273.9922,121.377 L273.9922,121.377 Z M273.7702,115.152 C272.7482,115.568 271.2172,115.918 269.1722,116.209 C268.0162,116.373 267.1982,116.559 266.7192,116.764 C266.2402,116.973 265.8692,117.275 265.6082,117.672 C265.3482,118.068 265.2182,118.51 265.2182,118.996 C265.2182,119.738 265.5022,120.359 266.0672,120.856 C266.6362,121.35 267.4652,121.6 268.5572,121.6 C269.6402,121.6 270.6002,121.363 271.4432,120.895 C272.2852,120.426 272.9062,119.783 273.3022,118.967 C273.6032,118.336 273.7532,117.406 273.7532,116.176 L273.7702,115.152 Z" id="Fill-22"></path>
            <path d="M292.7715,123.4492 L287.7665,106.8902 L290.7005,106.8902 L293.3425,116.4452 L294.2815,120.0042 C294.3205,119.8262 294.6065,118.6892 295.1385,116.5922 L297.7585,106.8902 L300.6335,106.8902 L303.1305,116.5042 L303.9435,119.6602 L304.8965,116.4652 L307.7595,106.8902 L310.4875,106.8902 L305.2895,123.4492 L302.3885,123.4492 L299.7565,113.5432 L299.0925,110.7112 L295.7445,123.4492 L292.7715,123.4492 Z" id="Fill-23"></path>
            <path d="M312.854,103.796 L315.664,103.796 L315.664,100.605 L312.854,100.605 L312.854,103.796 Z M312.854,123.45 L315.664,123.45 L315.664,106.891 L312.854,106.891 L312.854,123.45 Z" id="Fill-24"></path>
            <path d="M319.9629,123.4492 L319.9629,106.8902 L322.4819,106.8902 L322.4819,109.2422 C323.6969,107.4412 325.4519,106.5392 327.7449,106.5392 C328.7409,106.5392 329.6579,106.7202 330.4939,107.0762 C331.3269,107.4352 331.9529,107.9062 332.3699,108.4862 C332.7839,109.0662 333.0729,109.7582 333.2419,110.5562 C333.3449,111.0762 333.3969,111.9822 333.3969,113.2812 L333.3969,123.4492 L330.5889,123.4492 L330.5889,113.3882 C330.5889,112.2462 330.4809,111.3922 330.2619,110.8262 C330.0439,110.2602 329.6599,109.8062 329.1049,109.4702 C328.5479,109.1352 327.8999,108.9652 327.1539,108.9652 C325.9619,108.9652 324.9329,109.3452 324.0669,110.1032 C323.2019,110.8572 322.7689,112.2992 322.7689,114.4142 L322.7689,123.4492 L319.9629,123.4492 Z" id="Fill-25"></path>
            <path d="M348.4199,123.4492 L348.4199,121.3472 C347.3709,122.9822 345.8269,123.7992 343.7949,123.7992 C342.4749,123.7992 341.2639,123.4372 340.1579,122.7132 C339.0509,121.9862 338.1929,120.9722 337.5869,119.6722 C336.9799,118.3712 336.6779,116.8752 336.6779,115.1852 C336.6779,113.5372 336.9509,112.0412 337.5029,110.6992 C338.0519,109.3572 338.8769,108.3262 339.9779,107.6112 C341.0759,106.8982 342.3059,106.5392 343.6649,106.5392 C344.6639,106.5392 345.5499,106.7502 346.3289,107.1742 C347.1079,107.5952 347.7399,108.1442 348.2289,108.8222 L348.2289,100.6052 L351.0359,100.6052 L351.0359,123.4492 L348.4199,123.4492 Z M339.5479,115.1952 C339.5479,117.3062 339.9949,118.8882 340.8919,119.9332 C341.7889,120.9802 342.8439,121.5022 344.0649,121.5022 C345.2909,121.5022 346.3359,121.0022 347.1949,120.0042 C348.0549,119.0062 348.4849,117.4782 348.4849,115.4282 C348.4849,113.1682 348.0469,111.5102 347.1719,110.4552 C346.2969,109.3962 345.2199,108.8692 343.9389,108.8692 C342.6879,108.8692 341.6459,109.3772 340.8049,110.3902 C339.9669,111.4082 339.5479,113.0082 339.5479,115.1952 L339.5479,115.1952 Z" id="Fill-26"></path>
            <path d="M354.4434,115.1699 C354.4434,112.1129 355.2944,109.8459 357.0014,108.3749 C358.4224,107.1519 360.1584,106.5389 362.2084,106.5389 C364.4834,106.5389 366.3414,107.2849 367.7884,108.7719 C369.2294,110.2599 369.9534,112.3129 369.9534,114.9359 C369.9534,117.0629 369.6334,118.7339 368.9954,119.9509 C368.3544,121.1699 367.4254,122.1169 366.2034,122.7889 C364.9824,123.4629 363.6494,123.7989 362.2084,123.7989 C359.8884,123.7989 358.0164,123.0589 356.5884,121.5759 C355.1574,120.0959 354.4434,117.9589 354.4434,115.1699 M357.3154,115.1799 C357.3154,117.2909 357.7784,118.8749 358.7074,119.9259 C359.6324,120.9769 360.8004,121.5019 362.2084,121.5019 C363.6014,121.5019 364.7634,120.9749 365.6904,119.9179 C366.6174,118.8609 367.0804,117.2499 367.0804,115.0859 C367.0804,113.0429 366.6154,111.4959 365.6814,110.4449 C364.7504,109.3949 363.5904,108.8689 362.2084,108.8689 C360.8004,108.8689 359.6324,109.3929 358.7074,110.4399 C357.7784,111.4859 357.3154,113.0649 357.3154,115.1799" id="Fill-27"></path>
            <path d="M376.2451,123.4492 L371.2381,106.8902 L374.1721,106.8902 L376.8161,116.4452 L377.7541,120.0042 C377.7931,119.8262 378.0801,118.6892 378.6111,116.5922 L381.2321,106.8902 L384.1071,106.8902 L386.6041,116.5042 L387.4161,119.6602 L388.3671,116.4652 L391.2311,106.8902 L393.9611,106.8902 L388.7631,123.4492 L385.8611,123.4492 L383.2301,113.5432 L382.5651,110.7112 L379.2181,123.4492 L376.2451,123.4492 Z" id="Fill-28"></path>
        </g>
    </g>
</svg>