<?xml version="1.0" encoding="UTF-8" standalone="no"?>
<svg width="440px" height="260px" viewBox="0 0 440 260" version="1.1" xmlns="http://www.w3.org/2000/svg" xmlns:xlink="http://www.w3.org/1999/xlink" xmlns:sketch="http://www.bohemiancoding.com/sketch/ns">
    <!-- Generator: Sketch 3.0.3 (7892) - http://www.bohemiancoding.com/sketch -->
    <title>logo-egeac</title>
    <desc>Created with Sketch.</desc>
    <defs></defs>
    <g id="Page-1" stroke="none" stroke-width="1" fill="none" fill-rule="evenodd" sketch:type="MSPage">
        <g id="logo-egeac" sketch:type="MSArtboardGroup" fill="#000000">
            <path d="M80.9461235,173.346104 L80.9461235,86.7532468 L127.218397,86.7532468 L127.218397,101.977273 L97.5689882,101.977273 L97.5689882,121.707143 L127.218397,121.707143 L127.218397,136.685714 L97.5689882,136.685714 L97.5689882,158.122078 L127.218397,158.122078 L127.218397,173.346104 L80.9461235,173.346104 M222.040999,130.233766 C222.040999,137.655844 220.71117,143.990909 217.941656,149.595455 C209.864389,165.918182 195.409724,175.058442 177.815506,175.058442 C164.921945,175.058442 153.838108,170.055844 145.04389,160.190909 C137.816557,152.032468 133.838633,141.442857 133.838633,129.497403 C133.838633,117.440909 138.527727,106.483117 147.449146,97.5941558 C155.884888,89.1902597 166.130355,85.0467532 178.902497,85.0467532 C197.22523,85.0467532 210.957162,94.3038961 218.305913,111.836364 L197.942181,111.836364 C192.998686,105.62987 186.251248,102.462338 177.942707,102.462338 C163.239422,102.462338 151.669908,114.764286 151.669908,129.988312 C151.669908,145.580519 163.360841,157.631169 178.422602,157.631169 C188.662286,157.631169 197.942181,151.664286 202.041524,141.805195 L168.419974,141.805195 L168.419974,127.311688 L221.913798,127.311688 C221.913798,128.287662 222.040999,129.257792 222.040999,130.233766 M228.782654,173.346104 L228.782654,86.7532468 L275.049146,86.7532468 L275.049146,101.977273 L245.405519,101.977273 L245.405519,121.707143 L275.049146,121.707143 L275.049146,136.685714 L245.405519,136.685714 L245.405519,158.122078 L275.049146,158.122078 L275.049146,173.346104 L228.782654,173.346104 M298.42523,173.346104 L281.07385,173.346104 L314.331143,86.7532468 L328.79159,86.7532468 L361.563206,173.346104 L343.604731,173.346104 L336.863075,155.2 L305.051248,155.2 L298.42523,173.346104 L298.42523,173.346104 Z M321.205782,111.234416 L310.833114,139.122727 L331.324047,139.122727 L321.205782,111.234416 Z M419.277792,112.455844 C414.577135,105.992208 407.951117,102.468182 399.156899,102.468182 C392.288042,102.468182 385.89908,105.138961 381.082786,110.135714 C375.902234,115.494805 373.13272,122.683117 373.13272,129.748701 C373.13272,145.948701 384.93929,157.753896 399.156899,157.753896 C407.592641,157.753896 414.455716,154.469481 418.676478,148.502597 L439.167411,148.502597 C431.2,166.157792 417.832326,175.058442 399.278318,175.058442 C386.500394,175.058442 375.537976,170.055844 366.865177,160.190909 C359.637845,152.032468 355.78134,141.442857 355.78134,129.503247 C355.78134,117.446753 360.354796,106.483117 369.149014,97.5941558 C377.341919,89.4357143 387.593167,85.0467532 399.399737,85.0467532 C418.190802,85.0467532 431.327201,94.0642857 439.762943,112.455844 L419.277792,112.455844 Z M21.3697766,108.452597 C21.7629435,109.598052 21.9826544,110.912987 21.9826544,112.30974 C21.9826544,112.420779 21.9768725,112.531818 21.9768725,112.648701 C21.9768725,114.185714 21.0633377,115.547403 19.756636,116.137662 C18.074113,116.87987 15.9001314,117.505195 13.4890933,117.885065 C11.7024967,118.177273 9.98528252,118.294156 8.47043364,118.264935 L5.81655716,124.582468 C5.71248357,124.798701 5.51011827,124.950649 5.26149803,124.950649 C5.10538765,124.950649 4.960841,124.892208 4.85676741,124.792857 L0.364257556,121.046753 C0.237056505,120.935714 0.161892247,120.772078 0.161892247,120.590909 C0.161892247,120.386364 0.237056505,120.205195 0.410512484,120.094156 L18.3574244,103.268831 C19.109067,102.561688 20.1208936,102.129221 21.2310118,102.129221 C22.387385,102.129221 23.4454665,102.596753 24.2318003,103.350649 L28.2270696,107.459091 C28.3311432,107.57013 28.3889619,107.716234 28.3889619,107.87987 C28.3889619,108.218831 28.1172142,108.499351 27.7760841,108.499351 L21.3697766,108.452597 Z M51.4875164,142.728571 C51.7477004,142.430519 51.9211564,142.033117 51.9211564,141.606494 C51.9211564,140.677273 51.1637319,139.923377 50.255979,139.923377 C49.8165572,139.923377 49.434954,140.092857 49.1516426,140.367532 C47.9605782,141.501299 46.6249671,142.155844 44.8268068,142.185065 C43.1327201,142.214286 41.5947438,141.548052 40.4961892,140.42013 C40.1781866,140.116234 39.7792378,139.923377 39.3166886,139.923377 C38.8078844,139.923377 38.4147175,140.122078 38.1082786,140.49026 C37.0733246,141.571429 35.6394218,142.249351 34.0436268,142.249351 C32.4362681,142.249351 31.0197109,141.62987 29.9963206,140.537013 C29.6956636,140.162987 29.2331143,139.923377 28.7185283,139.923377 C28.2386334,139.923377 27.7992116,140.127922 27.5043364,140.455195 C26.3942181,141.583117 24.8793693,142.243506 23.1795007,142.243506 C21.5027595,142.243506 19.9358739,141.542208 18.8373193,140.42013 C18.5193167,140.116234 18.1203679,139.923377 17.6636005,139.923377 C16.738502,139.923377 15.9984231,140.677273 15.9984231,141.606494 C15.9984231,142.015584 16.1834428,142.483117 16.4262812,142.769481 C17.9411301,144.534416 20.2076216,145.644805 22.7169514,145.644805 C24.4977661,145.644805 26.2091984,145.130519 27.5679369,144.16039 C27.8396846,143.932468 28.209724,143.798052 28.6028909,143.798052 C29.0249671,143.798052 29.4065703,143.955844 29.7072273,144.218831 C30.8925099,145.101299 32.3726675,145.644805 33.9568988,145.644805 C35.6105125,145.644805 37.1137976,145.083766 38.3395532,144.142857 C38.6286465,143.909091 38.9697766,143.768831 39.3629435,143.768831 C39.7561104,143.768831 40.0798949,143.897403 40.3805519,144.125325 C41.7335085,145.083766 43.3813403,145.644805 45.1621551,145.644805 C47.6483574,145.644805 49.9437582,144.47013 51.4875164,142.728571 Z M47.1337714,95.7123377 C47.1337714,95.1746753 46.7059133,94.7422078 46.1739816,94.7422078 L21.739816,94.7422078 C21.2021025,94.7422078 20.7684625,95.1571429 20.7684625,95.6948052 L20.7684625,97.8045455 C20.7684625,98.3363636 21.2136662,98.8097403 21.7513798,98.8097403 L32.4478318,98.8097403 L30.4819974,126.522727 C26.9145861,125.517532 23.9600526,123.051299 22.3584757,119.743506 L12.6507227,119.743506 C12.1187911,119.743506 11.7256242,120.205195 11.7256242,120.737013 L11.690933,123.290909 C11.690933,123.828571 12.1592641,124.278571 12.6969777,124.278571 L15.2583443,124.29026 C17.6,132.466234 25.064389,138.450649 33.9106439,138.450649 C42.7684625,138.450649 50.2675427,132.431169 52.6034166,124.243506 L55.0491459,124.231818 C55.5752957,124.231818 56.0147175,123.799351 56.0147175,123.267532 L56.0031537,120.719481 C56.0031537,120.181818 55.604205,119.743506 55.0722733,119.743506 L45.5553219,119.737662 C43.9421813,123.168182 41.0339028,125.540909 37.356636,126.581169 L35.4717477,98.8097403 L46.1392904,98.8097403 C46.6654402,98.8097403 47.1222076,98.4181818 47.1222076,97.8863636 L47.1337714,95.7123377 Z M39.8890933,92.912987 C40.2533509,92.912987 40.5540079,92.6149351 40.5540079,92.2409091 C40.5540079,92.0363636 40.461498,91.8551948 40.3227332,91.7383117 L36.7668857,89.0149351 L40.3458607,86.2038961 C40.4557162,86.0811688 40.5424442,85.9 40.5424442,85.7188312 C40.5424442,85.3448052 40.2417871,85.0642857 39.8717477,85.0642857 L30.9965834,85.0467532 C30.4704336,85.0467532 30.0541393,85.5142857 30.0541393,86.0461039 L30.0194481,91.9779221 C30.0194481,92.5097403 30.453088,92.9363636 30.9850197,92.9363636 L39.8890933,92.912987 Z M45.896452,108.388312 C45.5032852,109.527922 45.2835742,110.848701 45.2835742,112.245455 C45.2835742,112.362338 45.2893561,112.473377 45.2893561,112.584416 C45.2893561,114.121429 46.2028909,115.483117 47.5095926,116.073377 C49.1863338,116.815584 51.3660972,117.440909 53.7713535,117.820779 C55.5695138,118.112987 57.2809461,118.22987 58.7842313,118.194805 L61.4438896,124.518182 C61.5537451,124.74026 61.7561104,124.886364 62.0047306,124.886364 C62.1666229,124.886364 62.3111695,124.827922 62.4152431,124.728571 L66.9019711,120.988312 C67.0291721,120.877273 67.1101183,120.707792 67.1101183,120.526623 C67.1101183,120.316234 67.0291721,120.146753 66.8557162,120.02987 L48.9088042,103.204545 C48.1513798,102.497403 47.1395532,102.064935 46.0352168,102.064935 C44.8730618,102.064935 43.826544,102.532468 43.0344284,103.292208 L39.0333771,107.400649 C38.9350854,107.511688 38.8714849,107.651948 38.8714849,107.821429 C38.8714849,108.16039 39.1490145,108.435065 39.4901445,108.435065 L45.896452,108.388312 Z M65.4854139,174.754545 L65.4622865,174.701948 L65.439159,174.672727 L65.4044678,174.661039 L64.3290407,174.661039 L64.3290407,172.037013 L64.317477,172.007792 L64.2885677,171.984416 L64.2249671,171.972727 L64.1324573,171.966883 L64.0399474,171.972727 L63.9763469,171.984416 L63.9416557,172.007792 L63.9358739,172.037013 L63.9358739,174.848052 C63.9358739,174.906494 63.9474376,174.953247 63.9763469,174.976623 L64.0804205,175.011688 L65.4044678,175.011688 L65.439159,175 L65.4622865,174.964935 L65.4854139,174.912338 L65.4854139,174.754545 Z M61.1027595,173.895455 L60.0562418,173.895455 L60.5766097,172.381818 L61.1027595,173.895455 L61.1027595,173.895455 Z M60.865703,172.054545 L60.8425756,172.007792 L60.7963206,171.984416 L60.7095926,171.966883 L60.5881735,171.966883 L60.4725361,171.966883 L60.39159,171.984416 L60.3568988,172.007792 L60.3337714,172.048701 L59.3219448,174.865584 L59.3045992,174.947403 L59.3219448,175 L59.3855453,175.017532 L59.4954008,175.023377 L59.5936925,175.017532 L59.6688568,175 L59.6977661,174.976623 L59.7151117,174.947403 L59.9579501,174.211039 L61.2068331,174.211039 L61.4612352,174.953247 L61.4843627,174.988312 L61.5190539,175.011688 L61.5768725,175.017532 L61.6982917,175.023377 L61.8081472,175.017532 L61.8659658,175 L61.8890933,174.953247 L61.8659658,174.865584 L60.865703,172.054545 L60.865703,172.054545 Z M57.3387648,173.153247 C57.3098555,173.229221 57.2636005,173.293506 57.2173456,173.351948 C57.1595269,173.41039 57.0901445,173.445455 57.0149803,173.480519 C56.9340342,173.515584 56.8299606,173.533117 56.7143233,173.533117 L56.3616294,173.533117 L56.3616294,172.317532 L56.725887,172.317532 C56.7952694,172.317532 56.8646518,172.317532 56.9340342,172.329221 C57.0034166,172.340909 57.0727989,172.364286 57.1421813,172.405195 C57.2057819,172.446104 57.2636005,172.51039 57.3098555,172.592208 C57.3561104,172.674026 57.3792378,172.779221 57.3792378,172.901948 C57.3792378,172.995455 57.3618922,173.077273 57.3387648,173.153247 L57.3387648,173.153247 Z M57.7550591,172.557143 C57.7203679,172.457792 57.6683311,172.375974 57.6162943,172.305844 C57.5584757,172.235714 57.4890933,172.177273 57.3965834,172.124675 C57.3214192,172.072078 57.2346912,172.042857 57.1479632,172.025325 C57.0727989,172.001948 57.0034166,171.996104 56.9455979,171.99026 C56.8819974,171.984416 56.8183968,171.978571 56.7547963,171.978571 L56.1187911,171.978571 L56.0089356,172.019481 C55.9742444,172.048701 55.9568988,172.08961 55.9568988,172.153896 L55.9568988,174.953247 L55.9684625,174.982468 L55.9973719,175 L56.0609724,175.017532 L56.1592641,175.023377 L56.2575558,175.017532 L56.3153745,175 L56.3442838,174.982468 L56.3616294,174.953247 L56.3616294,173.86039 L56.6969777,173.86039 C56.8819974,173.86039 57.0438896,173.837013 57.1768725,173.79026 C57.3098555,173.743506 57.4197109,173.673377 57.5180026,173.591558 C57.6047306,173.503896 57.674113,173.398701 57.7261498,173.281818 C57.7724047,173.153247 57.7955322,173.018831 57.7955322,172.872727 C57.7955322,172.75 57.7839685,172.644805 57.7550591,172.557143 L57.7550591,172.557143 Z M53.5978975,172.037013 L53.5863338,172.007792 L53.5516426,171.984416 L53.4938239,171.972727 L53.4013141,171.966883 L53.3030223,171.972727 L53.2336399,171.984416 L53.2047306,172.007792 L53.1931669,172.037013 L53.1931669,174.953247 L53.2047306,174.982468 L53.2336399,175 L53.2972405,175.017532 L53.4013141,175.023377 L53.4938239,175.017532 L53.5516426,175 L53.5863338,174.982468 L53.5978975,174.953247 L53.5978975,172.037013 L53.5978975,172.037013 Z M51.1001314,174.491558 L51.0943495,174.438961 L51.0712221,174.40974 L51.0423127,174.403896 L50.9498029,174.450649 C50.9093298,174.474026 50.857293,174.509091 50.7936925,174.544156 C50.7243101,174.579221 50.6549277,174.614286 50.5681997,174.649351 C50.4756899,174.678571 50.3716163,174.69026 50.2501971,174.69026 C50.1056505,174.69026 49.9900131,174.666883 49.868594,174.614286 C49.7587385,174.567532 49.6662286,174.491558 49.5910644,174.392208 C49.5101183,174.292857 49.4465177,174.17013 49.4118265,174.024026 C49.3771353,173.877922 49.348226,173.708442 49.348226,173.515584 C49.348226,173.316883 49.3771353,173.147403 49.4118265,172.995455 C49.4580815,172.843506 49.5159001,172.720779 49.5968463,172.615584 C49.6720105,172.504545 49.7645204,172.428571 49.8743758,172.375974 C49.9900131,172.317532 50.1056505,172.3 50.2386334,172.3 C50.3658344,172.3 50.4641261,172.311688 50.556636,172.340909 C50.643364,172.37013 50.7185283,172.405195 50.7821288,172.44026 C50.8399474,172.481169 50.8862024,172.51039 50.9266754,172.545455 L51.0191853,172.592208 L51.0538765,172.574675 L51.0770039,172.545455 L51.0943495,172.487013 L51.0943495,172.335065 L51.0827858,172.282468 L51.0654402,172.247403 L51.0191853,172.200649 L50.9151117,172.112987 C50.857293,172.083766 50.7936925,172.054545 50.7243101,172.031169 C50.6549277,172.001948 50.5797635,171.984416 50.4988173,171.966883 C50.4178712,171.949351 50.3369251,171.943506 50.2501971,171.943506 C50.0478318,171.943506 49.868594,171.978571 49.7124836,172.048701 C49.5448095,172.118831 49.4118265,172.224026 49.2961892,172.364286 C49.1805519,172.498701 49.088042,172.668182 49.0244415,172.866883 C48.960841,173.05974 48.9261498,173.281818 48.9261498,173.533117 C48.9261498,173.778571 48.9550591,174.000649 49.0186597,174.187662 C49.0764783,174.374675 49.1632063,174.532468 49.2730618,174.661039 C49.3829172,174.783766 49.5159001,174.883117 49.6720105,174.953247 C49.8281209,175.017532 50.0015769,175.052597 50.1981603,175.052597 C50.3080158,175.052597 50.4178712,175.040909 50.5103811,175.017532 C50.6086728,174.994156 50.6896189,174.970779 50.770565,174.941558 C50.8399474,174.912338 50.8977661,174.877273 50.9498029,174.848052 L51.0480946,174.777922 L51.0770039,174.731169 L51.0943495,174.696104 L51.1001314,174.649351 L51.1001314,174.491558 L51.1001314,174.491558 Z M46.7406045,172.037013 L46.7348226,172.007792 L46.6943495,171.984416 L46.6423127,171.972727 L46.544021,171.966883 L46.4515112,171.972727 L46.3821288,171.984416 L46.3474376,172.007792 L46.3416557,172.037013 L46.3416557,174.953247 L46.3474376,174.982468 L46.3821288,175 L46.4457293,175.017532 L46.544021,175.023377 L46.6423127,175.017532 L46.6943495,175 L46.7348226,174.982468 L46.7406045,174.953247 L46.7406045,172.037013 L46.7406045,172.037013 Z M43.9768725,172.048701 L43.9710907,172.019481 L43.9363995,171.996104 L43.8727989,171.972727 L43.6877792,171.972727 L43.6241787,171.996104 L43.5894875,172.019481 L43.5837057,172.048701 L43.5837057,173.690909 L43.5837057,174.076623 C43.5837057,174.211039 43.5837057,174.33961 43.5894875,174.462338 L43.5837057,174.462338 C43.5490145,174.392208 43.5143233,174.316234 43.4796321,174.246104 C43.439159,174.17013 43.4044678,174.094156 43.3639947,174.024026 C43.3293035,173.948052 43.2946124,173.877922 43.2541393,173.79026 C43.2136662,173.72013 43.1731932,173.638312 43.1269382,173.556494 L42.4215506,172.224026 L42.3463863,172.107143 L42.2827858,172.031169 L42.1960578,171.996104 L42.0746386,171.978571 L41.8838371,171.978571 L41.7681997,172.019481 C41.7277267,172.048701 41.7161629,172.08961 41.7161629,172.153896 L41.7161629,174.953247 L41.7277267,174.982468 L41.756636,175 L41.8144547,175.017532 L41.9127464,175.023377 L42.0052562,175.017532 L42.0688568,175 L42.103548,174.982468 L42.1093298,174.953247 L42.1093298,173.124026 C42.1093298,173.007143 42.1093298,172.89026 42.103548,172.767532 L42.103548,172.428571 C42.1498029,172.522078 42.1960578,172.615584 42.2423127,172.714935 C42.2885677,172.808442 42.3406045,172.907792 42.3868594,172.995455 L43.3061761,174.713636 C43.3350854,174.777922 43.3639947,174.824675 43.3929041,174.865584 L43.4738502,174.959091 L43.5605782,175 L43.6704336,175.017532 L43.8034166,175.017532 L43.8670171,175.005844 L43.9248357,174.976623 L43.9653088,174.924026 L43.9768725,174.842208 L43.9768725,172.048701 L43.9768725,172.048701 Z M39.3571616,172.037013 L39.3513798,172.007792 L39.3166886,171.984416 L39.253088,171.972727 L39.1605782,171.966883 L39.0680683,171.972727 L39.0102497,171.984416 L38.9697766,172.007792 L38.9639947,172.037013 L38.9639947,173.895455 C38.9639947,174.02987 38.9466491,174.152597 38.911958,174.251948 C38.8772668,174.351299 38.8310118,174.438961 38.7674113,174.509091 C38.7038108,174.573377 38.6344284,174.625974 38.5419185,174.661039 C38.4494087,174.696104 38.351117,174.713636 38.2296978,174.713636 C38.1198423,174.713636 38.0157687,174.696104 37.9290407,174.661039 C37.8365309,174.62013 37.7613666,174.573377 37.6977661,174.497403 C37.6283837,174.433117 37.5821288,174.345455 37.5474376,174.246104 C37.5185283,174.135065 37.4954008,174.018182 37.4954008,173.877922 L37.4954008,172.037013 L37.4896189,172.007792 L37.4549277,171.984416 L37.3913272,171.972727 L37.2988173,171.966883 L37.2005256,171.972727 L37.142707,171.984416 L37.1080158,172.007792 L37.1022339,172.037013 L37.1022339,173.918831 C37.1022339,174.105844 37.1253614,174.269481 37.18318,174.415584 C37.229435,174.555844 37.3045992,174.672727 37.4028909,174.766234 C37.5011827,174.85974 37.6226018,174.935714 37.7555848,174.982468 C37.8885677,175.035065 38.0446781,175.058442 38.2065703,175.058442 C38.39159,175.058442 38.5477004,175.029221 38.692247,174.976623 C38.8310118,174.924026 38.952431,174.848052 39.0507227,174.754545 C39.1490145,174.649351 39.2241787,174.532468 39.2819974,174.386364 C39.3282523,174.246104 39.3571616,174.076623 39.3571616,173.88961 L39.3571616,172.037013 L39.3571616,172.037013 Z M34.7432326,172.165584 L34.7316689,172.083766 L34.6969777,172.025325 L34.639159,171.99026 L34.5697766,171.978571 L34.3153745,171.978571 L34.2113009,171.996104 L34.1303548,172.037013 L34.0609724,172.112987 L34.0089356,172.22987 L33.1185283,174.421429 L33.1069645,174.421429 L32.2454665,172.224026 L32.1992116,172.112987 L32.1240473,172.037013 L32.0257556,171.996104 L31.8985545,171.978571 L31.6499343,171.978571 L31.534297,172.025325 C31.5053876,172.048701 31.4822602,172.095455 31.4822602,172.165584 L31.4822602,174.953247 L31.4938239,174.982468 L31.5227332,175 L31.5863338,175.017532 L31.6788436,175.023377 L31.7771353,175.017532 L31.8407359,175 L31.8754271,174.982468 L31.8812089,174.953247 L31.8812089,172.311688 L31.8869908,172.311688 L32.8930355,174.959091 L32.9103811,174.988312 L32.9508541,175.005844 L33.0086728,175.017532 L33.0896189,175.023377 L33.1647832,175.017532 L33.2226018,175.011688 L33.2630749,174.988312 L33.2862024,174.959091 L34.338502,172.311688 L34.3442838,172.311688 L34.3442838,174.953247 L34.3558476,174.982468 L34.3905388,175 L34.4483574,175.017532 L34.5408673,175.023377 L34.639159,175.017532 L34.7027595,175 L34.7316689,174.982468 L34.7432326,174.953247 L34.7432326,172.165584 L34.7432326,172.165584 Z M25.9143233,173.895455 L24.8620237,173.895455 L25.3766097,172.381818 L25.3823916,172.381818 L25.9143233,173.895455 L25.9143233,173.895455 Z M25.665703,172.054545 L25.6425756,172.007792 L25.5963206,171.984416 L25.5211564,171.966883 L25.2840999,171.966883 L25.2089356,171.984416 L25.1626807,172.007792 L25.1337714,172.048701 L24.1335085,174.865584 L24.1161629,174.947403 L24.1277267,175 L24.1913272,175.017532 L24.3011827,175.023377 L24.4110381,175.017532 L24.4688568,175 L24.503548,174.976623 L24.5208936,174.947403 L24.7637319,174.211039 L26.0068331,174.211039 L26.2670171,174.953247 L26.2843627,174.988312 L26.3190539,175.011688 L26.3884363,175.017532 L26.5040736,175.023377 L26.613929,175.017532 L26.6775296,175 L26.6890933,174.953247 L26.6717477,174.865584 L25.665703,172.054545 L25.665703,172.054545 Z M21.653088,173.024675 C21.6241787,173.088961 21.5894875,173.141558 21.5374507,173.188312 C21.4854139,173.235065 21.4218134,173.27013 21.3466491,173.293506 C21.265703,173.322727 21.178975,173.334416 21.0749014,173.334416 L20.6875164,173.334416 L20.6875164,172.317532 L21.0228647,172.317532 L21.2136662,172.317532 L21.3408673,172.346753 C21.4680683,172.381818 21.5490145,172.44026 21.6068331,172.522078 C21.6588699,172.598052 21.6877792,172.703247 21.6877792,172.825974 C21.6877792,172.896104 21.6762155,172.966234 21.653088,173.024675 L21.653088,173.024675 Z M22.2775296,174.894805 L22.2370565,174.777922 L21.9653088,174.111688 C21.9306176,174.035714 21.9074901,173.965584 21.8785808,173.907143 C21.8438896,173.842857 21.8091984,173.79026 21.7745072,173.743506 L21.6646518,173.620779 L21.5316689,173.538961 C21.6183968,173.50974 21.6935611,173.474675 21.7687254,173.422078 C21.8381078,173.381169 21.9017083,173.328571 21.9537451,173.264286 C22,173.205844 22.0404731,173.12987 22.0636005,173.048052 C22.0925099,172.972078 22.1040736,172.878571 22.1040736,172.779221 C22.1040736,172.674026 22.0925099,172.580519 22.0636005,172.487013 C22.0346912,172.405195 21.9884363,172.329221 21.9248357,172.259091 C21.8670171,172.194805 21.7918528,172.142208 21.7051248,172.095455 C21.6183968,172.054545 21.5143233,172.019481 21.3986859,172.001948 C21.3639947,171.996104 21.311958,171.99026 21.2599212,171.984416 C21.2078844,171.984416 21.1442838,171.978571 21.0749014,171.978571 L20.4331143,171.978571 L20.3406045,172.019481 C20.3059133,172.037013 20.2885677,172.083766 20.2885677,172.142208 L20.2885677,174.953247 L20.3001314,174.982468 L20.3290407,175 L20.3868594,175.017532 L20.490933,175.023377 L20.5834428,175.017532 L20.6470434,175 L20.6759527,174.982468 L20.6875164,174.953247 L20.6875164,173.661688 L20.9534823,173.661688 C21.0459921,173.661688 21.1211564,173.673377 21.1847569,173.696753 C21.2483574,173.725974 21.3061761,173.766883 21.352431,173.813636 C21.4044678,173.866234 21.4449409,173.918831 21.4796321,173.994805 C21.5143233,174.053247 21.5490145,174.135065 21.5837057,174.211039 L21.8612352,174.924026 L21.8785808,174.976623 L21.913272,175 L21.9768725,175.017532 L22.0751643,175.023377 L22.1792378,175.017532 L22.2486202,175.005844 L22.2775296,174.982468 L22.2833114,174.953247 L22.2775296,174.894805 L22.2775296,174.894805 Z M17.4554534,173.895455 L16.4147175,173.895455 L16.9293035,172.381818 L16.9350854,172.381818 L17.4554534,173.895455 L17.4554534,173.895455 Z M17.2183968,172.054545 L17.1894875,172.007792 L17.1432326,171.984416 L17.0680683,171.966883 L16.82523,171.966883 L16.7558476,171.984416 L16.7153745,172.007792 L16.6864652,172.048701 L15.6804205,174.865584 L15.6630749,174.947403 L15.6746386,175 L15.7382392,175.017532 L15.8480946,175.023377 L15.9463863,175.017532 L16.0157687,175 L16.0446781,174.976623 L16.0678055,174.947403 L16.3222076,174.211039 L17.5595269,174.211039 L17.8197109,174.953247 L17.8370565,174.988312 L17.8659658,175.011688 L17.9353482,175.017532 L18.0509855,175.023377 L18.160841,175.017532 L18.2186597,175 L18.247569,174.953247 L18.2186597,174.865584 L17.2183968,172.054545 L17.2183968,172.054545 Z M13.6162943,172.165584 L13.5989488,172.083766 L13.5700394,172.025325 L13.5122208,171.99026 L13.4486202,171.978571 L13.1884363,171.978571 L13.0785808,171.996104 L13.0034166,172.037013 L12.9340342,172.112987 L12.8762155,172.22987 L11.9858081,174.421429 L11.9800263,174.421429 L11.1185283,172.224026 L11.0664915,172.112987 L10.9971091,172.037013 L10.8988173,171.996104 L10.7716163,171.978571 L10.5287779,171.978571 L10.4073587,172.025325 C10.3726675,172.048701 10.3553219,172.095455 10.3553219,172.165584 L10.3553219,174.953247 L10.3611038,174.982468 L10.395795,175 L10.4593955,175.017532 L10.5519054,175.023377 L10.6501971,175.017532 L10.7080158,175 L10.7484888,174.982468 L10.7542707,174.953247 L10.7542707,172.311688 L11.7660972,174.959091 L11.7834428,174.988312 L11.818134,175.005844 L11.8817346,175.017532 L11.9626807,175.023377 L12.0378449,175.017532 L12.0956636,175.011688 L12.1419185,174.988312 L12.1534823,174.959091 L13.2173456,172.311688 L13.2173456,174.953247 L13.2289093,174.982468 L13.2636005,175 L13.3214192,175.017532 L13.4197109,175.023377 L13.5180026,175.017532 L13.5758213,175 L13.6047306,174.982468 L13.6162943,174.953247 L13.6162943,172.165584 L13.6162943,172.165584 Z M6.97293035,171.055195 L6.90932983,171.066883 L6.8630749,171.096104 L6.82260184,171.125325 L6.30801577,171.657143 L6.2848883,171.698052 L6.29067017,171.721429 L6.33114323,171.738961 L6.42365309,171.744805 L6.52772668,171.738961 L6.59710907,171.727273 L6.64336399,171.70974 L6.67805519,171.680519 L7.04809461,171.288961 L7.4065703,171.692208 L7.42969777,171.715584 L7.47017083,171.727273 L7.53955322,171.738961 L7.64940867,171.744805 L7.73613666,171.738961 L7.77660972,171.721429 L7.78817346,171.698052 L7.76504599,171.657143 L7.26780552,171.125325 L7.23311432,171.096104 L7.19264126,171.066883 L7.1348226,171.055195 L6.97293035,171.055195 L6.97293035,171.055195 Z M7.52220762,173.895455 L6.48147175,173.895455 L6.99605782,172.381818 L7.00183968,172.381818 L7.52220762,173.895455 L7.52220762,173.895455 Z M7.28515112,172.054545 L7.26202365,172.007792 L7.21576873,171.984416 L7.1348226,171.966883 L6.8977661,171.966883 L6.82260184,171.984416 L6.78212878,172.007792 L6.75321945,172.048701 L5.74717477,174.865584 L5.73561104,174.947403 L5.74717477,175 L5.8107753,175.017532 L5.92063075,175.023377 L6.01892247,175.017532 L6.08830486,175 L6.11721419,174.976623 L6.13455979,174.947403 L6.38318003,174.211039 L7.62628121,174.211039 L7.88068331,174.953247 L7.90959264,174.988312 L7.93272011,175.011688 L8.0021025,175.017532 L8.11773982,175.023377 L8.23337714,175.017532 L8.2911958,175 L8.31432326,174.953247 L8.2911958,174.865584 L7.28515112,172.054545 L7.28515112,172.054545 Z M3.94901445,174.491558 L3.93745072,174.438961 L3.92010512,174.40974 L3.8911958,174.403896 L3.79868594,174.450649 C3.75243101,174.474026 3.70617608,174.509091 3.64257556,174.544156 C3.57319317,174.579221 3.50959264,174.614286 3.41130092,174.649351 C3.3303548,174.678571 3.21471748,174.69026 3.09908016,174.69026 C2.95453351,174.69026 2.83311432,174.666883 2.72325887,174.614286 C2.61340342,174.567532 2.5151117,174.491558 2.43994744,174.392208 C2.36478318,174.292857 2.30696452,174.17013 2.26649146,174.024026 C2.22023653,173.877922 2.20289093,173.708442 2.20289093,173.515584 C2.20289093,173.316883 2.2260184,173.147403 2.26649146,172.995455 C2.30696452,172.843506 2.36478318,172.720779 2.4457293,172.615584 C2.52089356,172.504545 2.61340342,172.428571 2.72325887,172.375974 C2.83311432,172.317532 2.95453351,172.3 3.09329829,172.3 C3.20893561,172.3 3.3130092,172.311688 3.40551905,172.340909 C3.49224704,172.37013 3.5674113,172.405195 3.63101183,172.44026 C3.68304862,172.481169 3.74086728,172.51039 3.78134034,172.545455 L3.86806833,172.592208 L3.90275953,172.574675 L3.92010512,172.545455 L3.93745072,172.487013 L3.94323259,172.411039 L3.93745072,172.335065 L3.92588699,172.282468 L3.91432326,172.247403 L3.8738502,172.200649 C3.85072273,172.177273 3.81603154,172.153896 3.75821288,172.112987 C3.70617608,172.083766 3.64835742,172.054545 3.57319317,172.031169 C3.50959264,172.001948 3.43442838,171.984416 3.34770039,171.966883 C3.26675427,171.949351 3.18002628,171.943506 3.09329829,171.943506 C2.90249671,171.943506 2.72325887,171.978571 2.56136662,172.048701 C2.39947438,172.118831 2.26649146,172.224026 2.14507227,172.364286 C2.02943495,172.498701 1.9369251,172.668182 1.87332457,172.866883 C1.80972405,173.05974 1.78081472,173.281818 1.78081472,173.533117 C1.78081472,173.778571 1.80394218,174.000649 1.86754271,174.187662 C1.92536137,174.374675 2.01208936,174.532468 2.12772668,174.661039 C2.23180026,174.783766 2.36478318,174.883117 2.52089356,174.953247 C2.68278581,175.017532 2.85045992,175.052597 3.04704336,175.052597 C3.16846255,175.052597 3.26675427,175.040909 3.36504599,175.017532 C3.45177398,174.994156 3.54428384,174.970779 3.61366623,174.941558 C3.68304862,174.912338 3.74664915,174.877273 3.79868594,174.848052 L3.8911958,174.777922 L3.92588699,174.731169 L3.94323259,174.696104 L3.94901445,174.649351 L3.95479632,174.579221 L3.94901445,174.491558 L3.94901445,174.491558 Z M61.513272,161.254545 L58.0672799,161.254545 L59.8191853,156.164286 L61.513272,161.254545 L61.513272,161.254545 Z M65.8727989,166.035065 L60.8136662,152.032468 L58.6917214,152.032468 L53.6441524,166.035065 L56.4714849,166.035065 L57.3098555,163.557143 L62.2302234,163.557143 L63.0454665,166.035065 L65.8727989,166.035065 L65.8727989,166.035065 Z M49.8917214,159.033766 C49.8917214,161.727922 49.735611,162.376623 49.2094612,162.966883 C48.8220762,163.416883 48.2207622,163.714935 47.4806833,163.714935 C46.7406045,163.714935 46.1161629,163.416883 45.7229961,162.966883 C45.2026281,162.376623 45.0696452,161.727922 45.0696452,159.033766 C45.0696452,156.33961 45.2026281,155.685065 45.7229961,155.100649 C46.1161629,154.644805 46.7406045,154.352597 47.4806833,154.352597 C48.2207622,154.352597 48.8220762,154.644805 49.2094612,155.100649 C49.735611,155.685065 49.8917214,156.33961 49.8917214,159.033766 L49.8917214,159.033766 Z M52.6034166,159.033766 C52.6034166,156.614286 52.6149803,154.861039 51.2157687,153.446753 C50.2386334,152.464935 49.0591327,151.915584 47.4806833,151.915584 C45.9022339,151.915584 44.6996058,152.464935 43.7282523,153.446753 C42.3232589,154.861039 42.3579501,156.614286 42.3579501,159.033766 C42.3579501,161.453247 42.3232589,163.206494 43.7282523,164.620779 C44.6996058,165.602597 45.9022339,166.151948 47.4806833,166.151948 C49.0591327,166.151948 50.2386334,165.602597 51.2157687,164.620779 C52.6149803,163.206494 52.6034166,161.453247 52.6034166,159.033766 L52.6034166,159.033766 Z M37.1658344,156.082468 C37.1658344,157.046753 36.5240473,157.695455 35.373456,157.695455 L32.7311432,157.695455 L32.7311432,154.469481 L35.373456,154.469481 C36.5240473,154.469481 37.1658344,155.118182 37.1658344,156.082468 L37.1658344,156.082468 Z M37.356636,161.868182 C37.356636,162.814935 36.7784494,163.598052 35.546912,163.598052 L32.7311432,163.598052 L32.7311432,160.155844 L35.546912,160.155844 C36.7784494,160.155844 37.356636,160.921429 37.356636,161.868182 L37.356636,161.868182 Z M40.0683311,162.002597 C40.0683311,160.132468 38.9986859,159.25 38.1545335,158.852597 C38.8599212,158.525325 39.8717477,157.52013 39.8717477,155.95974 C39.8717477,153.563636 38.2932983,152.032468 35.5931669,152.032468 L30.0194481,152.032468 L30.0194481,166.035065 L35.8244415,166.035065 C38.2932983,166.035065 40.0683311,164.620779 40.0683311,162.002597 L40.0683311,162.002597 Z M27.4696452,161.909091 C27.4696452,160.664286 27.1400788,159.641558 26.4,158.934416 C25.8160315,158.385065 25.0239159,158.028571 23.7519054,157.853247 L22.1272011,157.619481 C21.5490145,157.537662 21.1095926,157.321429 20.8320631,157.064286 C20.5487516,156.78961 20.4273325,156.415584 20.4273325,156.059091 C20.4273325,155.100649 21.1269382,154.294156 22.5724047,154.294156 C23.4859396,154.294156 24.5324573,154.411039 25.4055191,155.258442 L27.1227332,153.546104 C25.9316689,152.383117 24.5498029,151.915584 22.647569,151.915584 C19.6525624,151.915584 17.8197109,153.662987 17.8197109,156.164286 C17.8197109,157.338961 18.1492773,158.244805 18.8141919,158.916883 C19.4328515,159.524675 20.3116951,159.898701 21.4969777,160.07987 L23.1679369,160.313636 C23.8155059,160.412987 24.1277267,160.547403 24.4052562,160.804545 C24.6885677,161.073377 24.8215506,161.488312 24.8215506,161.979221 C24.8215506,163.107143 23.9716163,163.714935 22.3700394,163.714935 C21.092247,163.714935 19.9011827,163.416883 19.0281209,162.534416 L17.2762155,164.305195 C18.634954,165.701948 20.2365309,166.151948 22.3353482,166.151948 C25.2378449,166.151948 27.4696452,164.620779 27.4696452,161.909091 L27.4696452,161.909091 Z M12.5871222,166.040909 L15.2872536,166.040909 L15.2872536,152.032468 L12.5871222,152.032468 L12.5871222,166.040909 Z M10.3900131,166.035065 L10.3900131,163.598052 L4.09934297,163.598052 L4.09934297,152.032468 L1.39921156,152.032468 L1.39921156,166.035065 L10.3900131,166.035065 L10.3900131,166.035065 Z" id="EGEAC" sketch:type="MSShapeGroup"></path>
        </g>
    </g>
</svg>