<?xml version="1.0" encoding="UTF-8" standalone="no"?>
<svg width="400px" height="80px" viewBox="0 0 400 80" version="1.1" xmlns="http://www.w3.org/2000/svg" xmlns:xlink="http://www.w3.org/1999/xlink" xmlns:sketch="http://www.bohemiancoding.com/sketch/ns">
    <!-- Generator: Sketch 3.3.3 (12072) - http://www.bohemiancoding.com/sketch -->
    <title>Artboard 1</title>
    <desc>Created with Sketch.</desc>
    <defs></defs>
    <g id="Page-1" stroke="none" stroke-width="1" fill="none" fill-rule="evenodd" sketch:type="MSPage">
        <g id="Artboard-1" sketch:type="MSArtboardGroup" fill="#1A1918">
            <g id="Imported-Layers" sketch:type="MSLayerGroup" transform="translate(1.000000, 1.000000)">
                <path d="M13.417939,30.6484268 L13.417939,50.1989634 C13.417939,51.8443537 12.0831829,53.1766829 10.4936098,53.1766829 C8.85064634,53.1766829 7.51589024,51.8443537 7.51589024,50.1989634 L7.51589024,30.6484268 L4.85123171,30.6484268 C3.20584146,30.6484268 1.8735122,29.522378 1.8735122,27.930378 C1.8735122,26.2898415 3.20584146,25.2123293 4.85123171,25.2123293 L7.51589024,25.2123293 L7.51589024,22.7466707 C7.51589024,16.2306341 11.5225854,12.3816829 18.038622,12.3816829 C20.4484634,12.3816829 21.5793659,13.716439 21.5793659,15.308439 C21.5793659,16.9489756 20.2931463,18.1308415 18.038622,18.1308415 C14.7041585,18.1308415 13.417939,19.9776585 13.417939,22.7466707 L13.417939,25.2123293 L17.6770244,25.2123293 C19.2690244,25.2123293 20.6523171,26.2898415 20.6523171,27.930378 C20.6523171,29.522378 19.2690244,30.6484268 17.6770244,30.6484268 L13.417939,30.6484268" id="Fill-1" sketch:type="MSShapeGroup"></path>
                <path d="M52.8296463,50.1989634 C52.8296463,51.8443537 51.4948902,53.1766829 49.8543537,53.1766829 C48.2623537,53.1766829 46.9251707,51.8443537 46.9251707,50.1989634 L46.9251707,49.9975366 C45.287061,51.2813293 41.9501707,53.4339268 37.5891585,53.4339268 C30.5586341,53.4339268 25.7316707,48.6118171 25.7316707,42.0423902 L25.7316707,27.930378 C25.7316707,26.2898415 27.0688537,24.9550854 28.6608537,24.9550854 C30.2989634,24.9550854 31.6361463,26.2898415 31.6361463,27.930378 L31.6361463,40.4528171 C31.6361463,45.2239634 34.5095122,47.6871951 38.9214878,47.6871951 C42.8747927,47.6871951 45.541878,45.2239634 46.9251707,43.5300366 L46.9251707,27.930378 C46.9251707,26.2898415 48.2623537,24.9550854 49.8543537,24.9550854 C51.4948902,24.9550854 52.8296463,26.2898415 52.8296463,27.930378 L52.8296463,50.1989634" id="Fill-2" sketch:type="MSShapeGroup"></path>
                <path d="M62.0637317,27.930378 C62.0637317,26.2898415 63.3984878,24.9550854 65.0390244,24.9550854 C66.6310244,24.9550854 67.9657805,26.2898415 67.9657805,27.930378 L67.9657805,28.2385854 C69.5553537,26.9547927 72.9432073,24.6978415 77.3042195,24.6978415 C84.3347439,24.6978415 89.1592805,29.5733415 89.1592805,36.1403415 L89.1592805,50.1989634 C89.1592805,51.8443537 87.8245244,53.1815366 86.2325244,53.1815366 C84.5919878,53.1815366 83.2572317,51.8443537 83.2572317,50.1989634 L83.2572317,37.7323415 C83.2572317,32.9611951 80.3838659,30.4955366 75.9694634,30.4955366 C71.9166585,30.4955366 69.3005366,32.9611951 67.9657805,34.6526951 L67.9657805,50.1989634 C67.9657805,51.8443537 66.6310244,53.1815366 65.0390244,53.1815366 C63.3984878,53.1815366 62.0637317,51.8443537 62.0637317,50.1989634 L62.0637317,27.930378" id="Fill-3" sketch:type="MSShapeGroup"></path>
                <path d="M113.070829,47.7405854 C116.303366,47.531878 117.278951,52.3564146 113.687244,53.1257195 C112.711659,53.3344268 111.687537,53.4339268 110.401317,53.4339268 C102.14039,53.4339268 95.8282073,47.8910488 95.8282073,39.372878 C95.8282073,30.4955366 102.29328,24.4430244 111.071122,24.4430244 C114.611866,24.4430244 116.970744,25.1079756 118.35889,25.6734268 L118.35889,15.3060122 C118.35889,13.7188659 119.69122,12.3816829 121.334183,12.3816829 C122.923756,12.3816829 124.258512,13.7188659 124.258512,15.3060122 L124.258512,50.2523537 C124.258512,51.8443537 122.923756,53.2300732 121.334183,53.2300732 C119.69122,53.2300732 118.35889,51.8443537 118.35889,50.2523537 L118.35889,31.7793293 C117.072671,30.9080976 114.971037,29.9834756 111.687537,29.9834756 C105.474854,29.9834756 101.625902,33.6261463 101.625902,38.9142073 C101.625902,44.5080488 105.169073,47.8400854 111.071122,47.8400854 C111.7385,47.8400854 112.301524,47.7866951 113.070829,47.7405854" id="Fill-4" sketch:type="MSShapeGroup"></path>
                <path d="M148.684549,47.7405854 C151.917085,47.531878 152.890244,52.3564146 149.300963,53.1257195 C148.325378,53.3344268 147.298829,53.4339268 146.01261,53.4339268 C137.75411,53.4339268 131.441927,47.8910488 131.441927,39.372878 C131.441927,30.4955366 137.907,24.4430244 146.682415,24.4430244 C150.480402,24.4430244 152.943634,25.6200366 154.27839,26.5446585 C154.790451,25.6200366 155.766037,24.9550854 156.945476,24.9550854 C158.537476,24.9550854 159.869805,26.2898415 159.869805,27.8818415 L159.869805,50.1989634 C159.869805,51.7933902 158.537476,53.1766829 156.945476,53.1766829 C155.304939,53.1766829 153.970183,51.7933902 153.970183,50.1989634 L153.970183,32.2428537 C152.683963,31.1629146 150.582329,29.9834756 147.298829,29.9834756 C141.088573,29.9834756 137.239622,33.6261463 137.239622,38.9142073 C137.239622,44.5080488 140.782793,47.8400854 146.682415,47.8400854 C147.349793,47.8400854 147.915244,47.7866951 148.684549,47.7405854" id="Fill-5" sketch:type="MSShapeGroup"></path>
                <path d="M178.702,59.287439 C176.597939,59.287439 175.981524,57.6420488 176.750829,55.9505488 L177.881732,53.3344268 C171.108451,51.9438537 167.05322,46.6606463 167.05322,39.118061 C167.05322,31.213878 172.338854,24.4405976 182.19178,24.4405976 C187.373061,24.4405976 191.991317,26.6999756 193.583317,29.3185244 C195.789305,32.9078049 191.634573,35.8321341 188.965061,32.7573415 C187.579341,31.213878 185.373354,29.9834756 182.140817,29.9834756 C176.034915,29.9834756 172.955268,33.6771098 172.955268,39.118061 C172.955268,44.7628659 176.238768,48.1482927 181.83261,48.1482927 C185.732524,48.1482927 188.503963,46.1995488 189.785329,44.0954878 C191.634573,40.964878 196.148476,43.2752195 194.406012,46.765 C192.607732,50.4100976 187.734659,53.5382805 181.934537,53.6935976 L181.267159,55.1302805 C185.681561,55.3341341 187.426451,57.6930122 187.426451,60.6197683 C187.426451,63.7479512 184.912256,65.9563659 180.907988,65.9563659 C179.163098,65.9563659 177.265317,65.4443049 176.238768,64.6240366 C174.287598,62.9786463 175.981524,60.1538171 178.444756,61.2337561 C179.163098,61.491 179.985793,61.6997073 181.114268,61.6997073 C182.293707,61.6997073 183.116402,61.1318293 183.116402,60.3625244 C183.116402,59.6951463 182.601915,59.287439 181.320549,59.287439 L178.702,59.287439" id="Fill-6" sketch:type="MSShapeGroup"></path>
                <path d="M211.748134,12.537 C214.366683,12.537 215.749976,13.7674024 216.982805,15.0511951 C217.494866,15.5656829 217.907427,16.0777439 218.623341,16.0777439 C219.395073,16.0777439 219.80278,15.6142195 219.80278,14.9492683 C219.80278,13.7674024 220.729829,12.537 222.319402,12.537 C223.809476,12.537 224.831171,13.6630488 224.831171,15.1021585 C224.831171,18.5385488 222.319402,21.1570976 218.727695,21.1570976 C215.953829,21.1570976 214.672463,19.8247683 213.442061,18.591939 C212.87661,18.1284146 212.413085,17.5678171 211.796671,17.5678171 C211.180256,17.5678171 210.774976,18.079878 210.774976,18.6429024 C210.774976,20.283439 209.750854,21.2104878 208.20739,21.2104878 C206.722171,21.2104878 205.744159,19.9752317 205.744159,18.6429024 C205.744159,15.2574756 208.156427,12.537 211.748134,12.537 M216.623634,47.7405854 C219.856171,47.531878 220.831756,52.3564146 217.240049,53.1257195 C216.262037,53.3344268 215.237915,53.4339268 213.954122,53.4339268 C205.693195,53.4339268 199.381012,47.8910488 199.381012,39.372878 C199.381012,30.4955366 205.843659,24.4430244 214.6215,24.4430244 C218.419488,24.4430244 220.885146,25.6200366 222.215049,26.5446585 C222.72711,25.6200366 223.705122,24.9550854 224.884561,24.9550854 C226.476561,24.9550854 227.811317,26.2898415 227.811317,27.8818415 L227.811317,50.1989634 C227.811317,51.7933902 226.476561,53.1766829 224.884561,53.1766829 C223.244024,53.1766829 221.909268,51.7933902 221.909268,50.1989634 L221.909268,32.2428537 C220.625476,31.1629146 218.521415,29.9834756 215.237915,29.9834756 C209.027659,29.9834756 205.178707,33.6261463 205.178707,38.9142073 C205.178707,44.5080488 208.721878,47.8400854 214.6215,47.8400854 C215.288878,47.8400854 215.854329,47.7866951 216.623634,47.7405854" id="Fill-7" sketch:type="MSShapeGroup"></path>
                <path d="M258.292293,39.0670976 C258.292293,33.0121585 255.003939,29.6776951 249.924585,29.6776951 C243.92061,29.6776951 240.792427,33.5266463 240.792427,39.0670976 C240.792427,45.1705732 243.971573,48.4565 249.308171,48.4565 C255.11072,48.4565 258.292293,44.6585122 258.292293,39.0670976 M264.087561,39.0670976 C264.087561,47.8400854 258.292293,53.6887439 249.053354,53.6887439 C240.688073,53.6887439 234.994732,48.1482927 234.994732,39.0670976 C234.994732,30.3960366 240.739037,24.4430244 249.924585,24.4430244 C258.496146,24.4430244 264.087561,29.9859024 264.087561,39.0670976" id="Fill-8" sketch:type="MSShapeGroup"></path>
                <path d="M384.841732,30.1800488 L382.565366,47.6920488 C382.082427,51.4002439 379.451744,52.9218659 377.238476,52.9218659 C374.047195,52.9218659 372.916293,51.1866829 373.37011,47.6920488 L375.646476,30.1800488 C376.134268,26.4791341 378.760098,24.9575122 380.968512,24.9575122 C384.167073,24.9575122 385.295549,26.6902683 384.841732,30.1800488 M349.878402,30.1800488 L347.59961,47.6920488 C347.116671,51.4002439 344.485988,52.9218659 342.277573,52.9218659 C339.083866,52.9218659 337.952963,51.1866829 338.404354,47.6920488 L340.685573,30.1800488 C341.168512,26.4791341 343.799195,24.9575122 346.00761,24.9575122 C349.203744,24.9575122 350.334646,26.6902683 349.878402,30.1800488 M306.571634,30.5707683 C307.01089,27.292122 310.037146,24.9696463 313.264829,24.9696463 C316.497366,24.9696463 316.791012,27.1877683 316.791012,28.0614268 C316.791012,31.4856829 311.350061,35.2812439 305.377634,39.4796585 C305.377634,39.4796585 306.100829,34.1042317 306.571634,30.5707683 M396.393439,49.422378 C395.510073,47.4081098 393.240988,46.4325244 391.192744,47.1144634 L393.36961,30.4736951 C394.379171,22.7855 388.814451,16.8519024 381.461159,16.8519024 C373.173537,16.8519024 368.645073,23.4747195 367.584549,29.4398659 C366.975415,32.8689756 366.572561,33.4805366 365.366427,34.7012317 L356.680805,43.4936341 L361.43011,6.8824878 C361.731037,4.56971951 360.100207,2.44867073 357.785012,2.15017073 C355.469817,1.8492439 353.351195,3.4825 353.050268,5.79526829 L351.48739,17.8032195 C351.48739,17.8032195 349.480402,16.8519024 346.689549,16.8519024 C339.836183,16.8519024 333.227927,22.1205488 332.28389,29.4398659 C331.881037,32.5583415 331.233073,33.6358537 330.065768,34.9827439 C329.029512,36.1767439 319.710488,46.8596463 319.710488,46.8596463 C318.334476,48.3181707 314.37389,52.9873902 308.386902,52.9873902 C305.285415,52.9873902 304.865573,49.735439 304.865573,49.735439 L313.747768,43.5397439 C317.434122,40.9818659 325.141732,35.6088659 325.141732,28.2046098 C325.141732,21.5502439 319.982293,16.8519024 313.27211,16.8519024 C305.134951,16.8519024 299.725549,22.8413171 298.769378,29.452 L296.427488,45.6171098 C296.422634,45.6777805 296.4105,45.740878 296.40322,45.8015488 L296.40322,45.7966951 L293.699732,47.7211707 C291.852915,49.1432927 291.508305,51.7933902 292.930427,53.6426341 C293.767683,54.7225732 295.0175,55.2904512 296.286732,55.2904512 C296.65561,55.2904512 297.036622,55.2297805 297.4055,55.1254268 C299.167378,59.0301951 302.78578,61.4376098 308.064134,61.4376098 C317.781159,61.4376098 323.2755,55.1399878 325.479061,52.6039512 L329.963841,47.4615 C328.784402,56.6082195 334.812646,61.4376098 341.403915,61.4376098 C349.096963,61.4376098 351.776183,58.9355488 359.008134,52.3005976 L365.043659,46.5271707 L361.643671,72.506378 C361.342744,74.824 362.971146,76.942622 365.288768,77.241122 C367.601537,77.5444756 369.725012,75.9136463 370.025939,73.5960244 L371.729573,60.496 C371.729573,60.496 373.77539,61.4715854 376.568671,61.4715854 C378.534402,61.4715854 380.48072,61.0347561 382.279,60.2436098 L394.22628,54.9919512 C396.364317,54.0503415 397.335049,51.555561 396.393439,49.422378" id="Fill-9" sketch:type="MSShapeGroup"></path>
            </g>
        </g>
    </g>
</svg>