<?xml version="1.0" encoding="UTF-8" standalone="no"?>
<svg width="440px" height="260px" viewBox="0 0 440 260" version="1.1" xmlns="http://www.w3.org/2000/svg" xmlns:xlink="http://www.w3.org/1999/xlink" xmlns:sketch="http://www.bohemiancoding.com/sketch/ns">
    <title>REFER</title>
    <defs></defs>
    <g id="Page-1" stroke="none" stroke-width="1" fill="none" fill-rule="evenodd" sketch:type="MSPage">
        <g id="logo-refer" sketch:type="MSArtboardGroup" fill="#000000">
            <path d="M238.858528,95.8049822 C224.00602,115.480996 215.283478,139.774235 215.253244,166.270463 L215.253244,237.007544 L191.655518,237.007544 L191.655518,30.8846975 L215.253244,30.8846975 L215.253244,88.3736655 C221.942542,78.3244128 229.886555,69.1729537 238.858528,61.1456228 L238.858528,30.8846975 L262.456254,30.8846975 L262.456254,44.0120996 C283.703278,31.5108897 308.631304,25 333.25699,25 L333.25699,48.553879 C306.839933,48.553879 282.403211,57.2979359 262.698127,72.0323132 C262.667893,72.0549466 262.562074,72.1379359 262.456254,72.2133808 L262.456254,104.126548 L262.546957,104.020925 C279.871104,84.4731673 305.16194,72.107758 333.25699,72.107758 L333.25699,95.661637 C294.300334,95.661637 262.516722,127.356014 262.456254,166.225196 L262.456254,237.007544 L238.858528,237.007544 L238.858528,95.8049822 M165.623946,60.9570107 L165.623946,69.4520996 L106.894181,69.4520996 L106.894181,52.5373665 C106.894181,45.513452 108.519264,40.1417794 111.761873,36.4374377 C115.027157,32.7406406 119.73612,30.8846975 125.888763,30.8846975 C130.68087,30.8846975 134.671773,32.4388612 137.899264,35.5245552 C141.10408,38.6328826 142.827425,42.6314591 143.069298,47.5127402 L165.623946,30.8846975 L165.623946,41.5224199 L138.352776,60.9570107 L165.623946,60.9570107 L165.623946,60.9570107 Z M137.385284,60.9570107 L137.385284,56.6038434 C137.385284,50.7417794 136.43291,46.3508897 134.520602,43.4839858 C132.608294,40.6095374 129.705819,39.1836299 125.813177,39.1836299 C122.026355,39.1836299 119.229699,40.4133808 117.453445,42.880427 C115.677191,45.3550178 114.792843,49.255516 114.792843,54.6045552 L114.792843,60.9570107 L137.385284,60.9570107 L137.385284,60.9570107 Z M165.623946,79.8408541 L165.623946,110.282847 L106.894181,110.282847 L106.894181,79.8408541 L114.709699,79.8408541 L114.709699,101.787758 L132.253043,101.787758 L132.253043,79.8408541 L139.917391,79.8408541 L139.917391,101.787758 L157.513645,101.787758 L157.513645,79.8408541 L165.623946,79.8408541 M165.623946,149.770676 L106.894181,149.770676 L106.894181,120.897936 L114.709699,120.897936 L114.709699,141.366121 L132.253043,141.366121 L132.253043,120.897936 L139.917391,120.897936 L139.917391,141.366121 L165.623946,141.366121 L165.623946,149.770676 M165.623946,159.993452 L165.623946,190.435445 L106.894181,190.435445 L106.894181,159.993452 L114.709699,159.993452 L114.709699,181.932811 L132.253043,181.932811 L132.253043,159.993452 L139.917391,159.993452 L139.917391,181.932811 L157.513645,181.932811 L157.513645,159.993452 L165.623946,159.993452 M165.623946,228.52 L165.623946,237.007544 L106.894181,237.007544 L106.894181,220.092811 C106.894181,213.076441 108.519264,207.697224 111.761873,203.992883 C115.027157,200.296085 119.73612,198.440142 125.888763,198.440142 C130.68087,198.440142 134.671773,199.994306 137.899264,203.08 C141.10408,206.188327 142.827425,210.186904 143.069298,215.068185 L165.623946,198.440142 L165.623946,209.077865 L138.352776,228.52 L165.623946,228.52 L165.623946,228.52 Z M137.385284,228.52 L137.385284,224.166833 C137.385284,218.297224 136.43291,213.913879 134.520602,211.039431 C132.608294,208.164982 129.705819,206.739075 125.813177,206.739075 C122.026355,206.739075 119.229699,207.97637 117.453445,210.435872 C115.677191,212.902918 114.792843,216.818505 114.792843,222.16 L114.792843,228.52 L137.385284,228.52 L137.385284,228.52 Z" id="REFER" sketch:type="MSShapeGroup"></path>
        </g>
    </g>
</svg>