<?xml version="1.0" encoding="UTF-8" standalone="no"?>
<svg width="384px" height="488px" viewBox="0 0 384 488" version="1.1" xmlns="http://www.w3.org/2000/svg" xmlns:xlink="http://www.w3.org/1999/xlink" xmlns:sketch="http://www.bohemiancoding.com/sketch/ns">
    <!-- Generator: Sketch 3.0.3 (7892) - http://www.bohemiancoding.com/sketch -->
    <title>logo-cml-narrow</title>
    <desc>Created with Sketch.</desc>
    <defs></defs>
    <g id="Page-1" stroke="none" stroke-width="1" fill="none" fill-rule="evenodd" sketch:type="MSPage">
        <g id="logo-cml-narrow" sketch:type="MSArtboardGroup" fill="#000000">
            <path d="M134.183066,143.310526 C136.072918,148.664912 137.105759,154.805263 137.105759,161.326316 C137.105759,161.854386 137.066412,162.382456 137.049198,162.898246 C137.049198,170.082456 132.73463,176.44386 126.575704,179.219298 C118.652342,182.670175 108.362054,185.580702 96.9995798,187.385965 C88.5192218,188.724561 80.4310973,189.264912 73.3008093,189.117544 L60.7419611,218.62807 C60.2292296,219.635088 59.2775409,220.347368 58.0983813,220.347368 C57.3594086,220.347368 56.6819144,220.064912 56.1704125,219.610526 L34.9578366,202.135088 C34.3701012,201.607018 34,200.845614 34,199.998246 C34,199.040351 34.3799377,198.192982 35.1717821,197.677193 L119.963066,119.105263 C123.539891,115.826316 128.313089,113.824561 133.554755,113.824561 C139.018973,113.824561 144.012265,115.973684 147.715735,119.510526 L166.614257,138.705263 C167.091331,139.221053 167.360607,139.908772 167.360607,140.657895 C167.360607,142.254386 166.068327,143.54386 164.471113,143.54386 L134.183066,143.310526 Z M276.508482,303.32807 C277.749121,301.940351 278.506537,300.110526 278.506537,298.096491 C278.506537,293.761404 274.99242,290.261404 270.653261,290.261404 C268.596187,290.261404 266.778879,291.035088 265.444794,292.324561 C259.821961,297.617544 253.50565,300.675439 244.999471,300.810526 C237.013401,300.945614 229.761385,297.826316 224.561525,292.570175 C223.058988,291.145614 221.170366,290.261404 218.996482,290.261404 C216.595128,290.261404 214.715113,291.194737 213.276514,292.889474 C208.391424,297.961404 201.639844,301.117544 194.081665,301.117544 C186.490288,301.117544 179.810023,298.231579 174.982724,293.110526 C173.541665,291.366667 171.361634,290.261404 168.918475,290.261404 C166.664669,290.261404 164.568249,291.207018 163.200965,292.729825 C157.934708,298.010526 150.781058,301.105263 142.774086,301.105263 C134.816296,301.105263 127.432716,297.789474 122.237774,292.557895 C120.735237,291.133333 118.850304,290.261404 116.678879,290.261404 C112.343409,290.261404 108.828062,293.761404 108.828062,298.096491 C108.828062,300.012281 109.702288,302.173684 110.843331,303.536842 C118.006817,311.752632 128.702864,316.947368 140.533805,316.947368 C148.972358,316.947368 157.071549,314.540351 163.491144,310.045614 C164.768669,308.977193 166.531875,308.338596 168.379922,308.338596 C170.374288,308.338596 172.196514,309.075439 173.579782,310.303509 C179.196467,314.405263 186.190272,316.959649 193.682054,316.959649 C201.475082,316.959649 208.593074,314.34386 214.389276,309.935088 C215.736887,308.842105 217.330412,308.191228 219.195673,308.191228 C221.067082,308.191228 222.575767,308.780702 224.005759,309.873684 C230.40937,314.331579 238.19379,316.947368 246.594226,316.947368 C258.36123,316.947368 269.204825,311.482456 276.508482,303.32807 Z M255.931595,83.8596491 C255.931595,81.354386 253.899113,79.3157895 251.390786,79.3157895 L251.366195,79.3157895 L135.943813,79.3280702 C133.436716,79.3280702 131.362428,81.2561404 131.362428,83.7614035 L131.362428,93.6105263 C131.362428,96.1157895 133.479751,98.3263158 135.989307,98.3263158 L186.5407,98.2894737 L177.240218,227.691228 C160.366802,223 146.450506,211.480702 138.871424,196.04386 L93.0071595,196.04386 C90.4976031,196.04386 88.6200467,198.192982 88.6200467,200.685965 L88.4847938,212.598246 C88.4847938,215.103509 90.6967938,217.203509 93.2051206,217.203509 L105.336078,217.264912 C116.416981,255.433333 151.66758,283.359649 193.458272,283.359649 C235.284623,283.359649 270.717198,255.273684 281.769821,217.04386 L293.322879,217.007018 C295.827518,217.007018 297.899346,214.968421 297.899346,212.463158 L297.821883,200.612281 C297.821883,198.107018 295.923424,196.04386 293.413868,196.04386 L248.474241,196.019298 C240.83737,212.021053 227.090755,223.110526 209.741494,227.949123 L200.798817,98.2894737 L251.196514,98.3140351 C253.708529,98.3140351 255.868887,96.4842105 255.868887,93.9789474 L255.931595,83.8596491 Z M221.700311,70.7684211 C223.424171,70.7684211 224.819735,69.3807018 224.819735,67.6491228 C224.819735,66.7035088 224.418895,65.8561404 223.751237,65.2912281 L206.983564,52.5929825 L223.854521,39.4526316 C224.397992,38.9 224.781619,38.0403509 224.781619,37.2052632 C224.781619,35.4736842 223.345479,34.122807 221.621619,34.122807 L179.696903,34.0736842 C177.189805,34.0736842 175.234786,36.2105263 175.234786,38.7157895 L175.076171,66.3964912 C175.076171,68.9017544 177.130786,70.8789474 179.636654,70.8789474 L221.700311,70.7684211 Z M250.096047,143.015789 C248.208654,148.382456 247.172125,154.522807 247.172125,161.04386 C247.172125,161.57193 247.21393,162.087719 247.228685,162.615789 C247.228685,169.787719 251.544482,176.149123 257.705868,178.924561 C265.625541,182.375439 275.919518,185.285965 287.279533,187.091228 C295.759891,188.429825 303.845556,188.982456 310.980763,188.822807 L323.538381,218.333333 C324.048654,219.340351 325.001572,220.052632 326.179502,220.052632 C326.922163,220.052632 327.599658,219.770175 328.10993,219.315789 L349.321276,201.852632 C349.910241,201.324561 350.280342,200.550877 350.280342,199.703509 C350.280342,198.745614 349.897946,197.910526 349.10856,197.382456 L264.318506,118.822807 C260.739222,115.531579 255.966023,113.529825 250.726817,113.529825 C245.257681,113.529825 240.265619,115.691228 236.560918,119.215789 L217.663626,138.410526 C217.189012,138.926316 216.917276,139.614035 216.917276,140.363158 C216.917276,141.959649 218.209556,143.249123 219.805541,143.249123 L250.096047,143.015789 Z M47.4097121,451.629825 L47.3592996,451.37193 L47.2732296,451.249123 L47.1404358,451.212281 C47.0285447,451.212281 46.878537,451.285965 46.6891829,451.421053 C46.4973696,451.568421 46.255144,451.715789 45.956358,451.887719 C45.6600311,452.059649 45.2997665,452.219298 44.8780233,452.354386 C44.4587393,452.489474 43.9644514,452.563158 43.3988482,452.563158 C42.7324202,452.563158 42.1336187,452.440351 41.6049027,452.207018 C41.0786459,451.973684 40.6323113,451.617544 40.2695875,451.150877 C39.9068638,450.696491 39.6289805,450.119298 39.4347082,449.431579 C39.2392062,448.74386 39.1432996,447.945614 39.1432996,447.049123 C39.1432996,446.152632 39.2416654,445.342105 39.4445447,444.642105 C39.6486537,443.942105 39.9314553,443.340351 40.2978677,442.861404 C40.6642802,442.370175 41.1056965,442.001754 41.6221167,441.74386 C42.1409961,441.498246 42.7139767,441.375439 43.3435175,441.375439 C43.9238755,441.375439 44.4206226,441.436842 44.8349883,441.584211 C45.2493541,441.719298 45.6022412,441.878947 45.8911907,442.050877 C46.1813696,442.222807 46.4174475,442.382456 46.6018833,442.517544 C46.7838599,442.664912 46.9277198,442.738596 47.0285447,442.738596 L47.1797821,442.689474 L47.2818366,442.529825 L47.3482335,442.27193 C47.3642179,442.173684 47.3715953,442.050877 47.3715953,441.903509 C47.3715953,441.780702 47.366677,441.657895 47.3543813,441.57193 L47.3113463,441.326316 L47.2412607,441.142105 L47.0482179,440.921053 C46.9510817,440.822807 46.7715642,440.687719 46.5158132,440.540351 C46.2612918,440.380702 45.9711128,440.257895 45.6415875,440.135088 C45.3132918,440.012281 44.9579455,439.926316 44.5706304,439.840351 C44.1820856,439.766667 43.7861634,439.729825 43.3779455,439.729825 C42.4508482,439.729825 41.6049027,439.901754 40.8437977,440.233333 C40.0826926,440.564912 39.4261012,441.05614 38.8801712,441.694737 C38.3317821,442.333333 37.9063502,443.107018 37.6038755,444.02807 C37.3026304,444.949123 37.1501634,445.992982 37.1501634,447.159649 C37.1501634,448.301754 37.2915642,449.321053 37.5731362,450.192982 C37.852249,451.077193 38.2543191,451.814035 38.7768872,452.403509 C39.2969961,453.005263 39.9277665,453.459649 40.6691984,453.766667 C41.4106304,454.073684 42.2393619,454.221053 43.1590817,454.221053 C43.692716,454.221053 44.1820856,454.17193 44.6284202,454.073684 C45.0784436,453.975439 45.4768249,453.852632 45.8223346,453.717544 C46.1703035,453.570175 46.4592529,453.422807 46.691642,453.275439 C46.9264903,453.12807 47.0777276,453.017544 47.1527315,452.94386 L47.306428,452.759649 L47.3777432,452.587719 L47.4146304,452.354386 C47.4220078,452.268421 47.4269261,452.157895 47.4269261,452.047368 C47.4269261,451.875439 47.4207782,451.740351 47.4097121,451.629825 L47.4097121,451.629825 Z M63.1703658,440.245614 L63.0510973,440.049123 L62.8322335,439.914035 C62.7363268,439.889474 62.6133696,439.864912 62.4596732,439.852632 C62.3072062,439.840351 62.1141634,439.840351 61.8805447,439.840351 C61.6604514,439.840351 61.4797043,439.840351 61.3383035,439.852632 C61.1956732,439.864912 61.0776342,439.889474 60.9878755,439.914035 L60.7788482,440.036842 L60.6657276,440.233333 L55.9158911,453.373684 C55.8581012,453.533333 55.8273619,453.65614 55.8224436,453.754386 L55.898677,453.975439 C55.9540078,454.036842 56.0486848,454.073684 56.1851673,454.085965 C56.3191907,454.110526 56.4925603,454.110526 56.7040467,454.110526 C56.9069261,454.110526 57.0729183,454.110526 57.2020233,454.085965 C57.3286693,454.073684 57.427035,454.049123 57.4983502,454.024561 L57.656965,453.901754 L57.743035,453.729825 L58.903751,450.32807 L64.7897121,450.32807 L66.0045292,453.778947 L66.0967471,453.938596 L66.2516732,454.036842 C66.3192996,454.073684 66.4238132,454.085965 66.556607,454.098246 C66.6918599,454.110526 66.8738366,454.110526 67.1000778,454.110526 C67.3263191,454.110526 67.5058366,454.110526 67.6398599,454.085965 C67.7751128,454.073684 67.8734786,454.049123 67.9300389,453.987719 L68.0124202,453.766667 C68.0099611,453.668421 67.9792218,453.545614 67.9202023,453.385965 L63.1703658,440.245614 L63.1703658,440.245614 Z M64.2966537,448.829825 L59.3722179,448.829825 L61.8141479,441.780702 L61.825214,441.780702 L64.2966537,448.829825 L64.2966537,448.829825 Z M61.6727471,435.603509 L61.3936342,435.652632 L61.1796887,435.750877 L60.9977121,435.910526 L58.5471751,438.391228 L58.4254475,438.575439 L58.4647938,438.698246 L58.6725914,438.77193 C58.7709572,438.796491 58.9111284,438.796491 59.0943346,438.796491 L59.587393,438.796491 C59.7201868,438.784211 59.8296187,438.77193 59.9144591,438.747368 L60.1357821,438.649123 L60.3091518,438.501754 L62.0502257,436.67193 L63.7347393,438.563158 L63.8601556,438.661404 L64.0507393,438.747368 C64.1318911,438.759649 64.2376342,438.77193 64.3691984,438.784211 C64.5007626,438.796491 64.6765914,438.796491 64.8954553,438.796491 C65.05407,438.796491 65.1856342,438.796491 65.2889183,438.784211 L65.5077821,438.710526 L65.5508171,438.575439 L65.4303191,438.391228 L63.089214,435.910526 L62.9084669,435.750877 L62.7105058,435.652632 L62.4436887,435.603509 C62.3416342,435.591228 62.2137588,435.591228 62.0612918,435.591228 C61.9063658,435.591228 61.7784903,435.591228 61.6727471,435.603509 L61.6727471,435.603509 Z M93.0772451,440.761404 C93.0772451,440.601754 93.0526537,440.478947 93.0096187,440.368421 L92.836249,440.110526 L92.5817276,439.950877 L92.2632685,439.901754 L91.0521401,439.901754 C90.8677043,439.901754 90.7041712,439.926316 90.5627704,439.963158 C90.4225992,440 90.2947237,440.073684 90.1803735,440.159649 C90.0647938,440.257895 89.9590506,440.380702 89.8619144,440.52807 C89.7660078,440.687719 89.676249,440.87193 89.5975564,441.080702 L85.3825837,451.298246 L85.3272529,451.298246 L81.2782724,441.05614 C81.2118755,440.859649 81.135642,440.687719 81.0458833,440.540351 C80.9561245,440.392982 80.845463,440.270175 80.7126693,440.184211 C80.5798755,440.085965 80.4249494,440.012281 80.2466615,439.975439 C80.0683735,439.926316 79.8605759,439.901754 79.6232685,439.901754 L78.4687004,439.901754 C78.2682802,439.901754 78.0863035,439.975439 77.9227704,440.098246 C77.7604669,440.233333 77.6780856,440.454386 77.6780856,440.761404 L77.6780856,453.766667 L77.7186615,453.914035 L77.8649805,454.024561 C77.9350661,454.049123 78.0309728,454.073684 78.1527004,454.085965 C78.2731984,454.110526 78.4232062,454.110526 78.6027237,454.110526 C78.7920778,454.110526 78.9433152,454.110526 79.0650428,454.085965 C79.1855409,454.073684 79.282677,454.049123 79.3589105,454.024561 L79.5150661,453.914035 L79.5605603,453.766667 L79.5605603,441.449123 L79.572856,441.449123 L84.3435953,453.815789 L84.4247471,453.938596 L84.5956576,454.036842 L84.8698521,454.085965 C84.979284,454.110526 85.1083891,454.110526 85.2620856,454.110526 C85.4071751,454.110526 85.533821,454.110526 85.6407938,454.098246 L85.9125292,454.036842 L86.088358,453.950877 L86.1818054,453.815789 L91.1726381,441.449123 L91.1935409,441.449123 L91.1935409,453.766667 L91.239035,453.914035 L91.3915019,454.024561 C91.4628171,454.049123 91.5599533,454.073684 91.6841401,454.085965 C91.8058677,454.110526 91.9558755,454.110526 92.1280156,454.110526 C92.3173696,454.110526 92.468607,454.110526 92.5866459,454.085965 C92.7022257,454.073684 92.7969027,454.049123 92.8731362,454.024561 L93.031751,453.914035 L93.0772451,453.766667 L93.0772451,440.761404 L93.0772451,440.761404 Z M110.092062,440.245614 L109.969105,440.049123 L109.750241,439.914035 C109.655564,439.889474 109.530148,439.864912 109.378911,439.852632 C109.226444,439.840351 109.032171,439.840351 108.799782,439.840351 C108.579689,439.840351 108.401401,439.840351 108.256311,439.852632 C108.114911,439.864912 107.996872,439.889474 107.907113,439.914035 L107.696856,440.036842 L107.583735,440.233333 L102.835128,453.373684 C102.776109,453.533333 102.74537,453.65614 102.741681,453.754386 L102.817914,453.975439 C102.873245,454.036842 102.969152,454.073684 103.103175,454.085965 C103.238428,454.110526 103.413027,454.110526 103.623284,454.110526 C103.826163,454.110526 103.992156,454.110526 104.121261,454.085965 C104.249136,454.073684 104.347502,454.049123 104.416358,454.024561 L104.573743,453.901754 L104.663502,453.729825 L105.821759,450.32807 L111.710179,450.32807 L112.924996,453.778947 L113.015984,453.938596 L113.170911,454.036842 C113.239767,454.073684 113.341821,454.085965 113.477074,454.098246 C113.612327,454.110526 113.791844,454.110526 114.018086,454.110526 C114.243097,454.110526 114.425074,454.110526 114.560327,454.085965 C114.69558,454.073684 114.791486,454.049123 114.850506,453.987719 L114.932887,453.766667 C114.927969,453.668421 114.89723,453.545614 114.83944,453.385965 L110.092062,440.245614 L110.092062,440.245614 Z M111.217121,448.829825 L106.292685,448.829825 L108.734615,441.780702 L108.744451,441.780702 L111.217121,448.829825 L111.217121,448.829825 Z M133.99863,453.521053 C133.969121,453.410526 133.902724,453.226316 133.803128,452.968421 L132.531751,449.849123 C132.384202,449.492982 132.240342,449.173684 132.094023,448.891228 C131.947704,448.608772 131.794008,448.350877 131.628016,448.129825 C131.464482,447.921053 131.288654,447.724561 131.09807,447.577193 C130.907486,447.417544 130.69723,447.282456 130.463611,447.184211 C130.880436,447.036842 131.255455,446.864912 131.591128,446.64386 C131.925572,446.435088 132.214521,446.189474 132.455518,445.894737 C132.694054,445.612281 132.87972,445.280702 133.008825,444.912281 C133.134241,444.531579 133.199409,444.101754 133.199409,443.635088 C133.199409,443.14386 133.129323,442.701754 132.986693,442.296491 C132.845292,441.891228 132.630117,441.535088 132.346086,441.215789 C132.062054,440.896491 131.710397,440.650877 131.289883,440.442105 C130.86937,440.233333 130.387377,440.085965 129.840218,439.987719 C129.649634,439.975439 129.438148,439.950877 129.20084,439.938596 C128.962304,439.914035 128.665977,439.901754 128.308171,439.901754 L125.299409,439.901754 C125.132187,439.901754 124.972342,439.963158 124.822335,440.073684 C124.673556,440.184211 124.598553,440.380702 124.598553,440.675439 L124.598553,453.766667 L124.642817,453.914035 L124.794054,454.024561 C124.867829,454.049123 124.964965,454.073684 125.085463,454.085965 C125.205961,454.110526 125.357198,454.110526 125.540405,454.110526 C125.721152,454.110526 125.873619,454.110526 125.994117,454.085965 C126.114615,454.073684 126.209292,454.049123 126.278148,454.024561 L126.431844,453.914035 L126.479798,453.766667 L126.479798,447.736842 L127.73765,447.736842 C128.170459,447.736842 128.538101,447.810526 128.844265,447.933333 C129.150428,448.05614 129.416016,448.240351 129.642257,448.473684 C129.869728,448.694737 130.06523,448.977193 130.227533,449.284211 C130.393525,449.603509 130.549681,449.959649 130.705837,450.32807 L132.006724,453.668421 L132.111237,453.889474 L132.280918,454.024561 C132.353463,454.049123 132.44937,454.073684 132.571097,454.085965 C132.691595,454.110526 132.846521,454.110526 133.037105,454.110526 C133.254739,454.110526 133.429339,454.110526 133.560903,454.085965 C133.692467,454.073684 133.794521,454.049123 133.868296,454.024561 L134.008467,453.914035 L134.042895,453.766667 L133.99863,453.521053 L133.99863,453.521053 Z M131.037821,444.777193 C130.9247,445.07193 130.747642,445.329825 130.507875,445.538596 C130.268109,445.759649 129.966864,445.919298 129.60414,446.042105 C129.243875,446.164912 128.814755,446.226316 128.319237,446.226316 L126.479798,446.226316 L126.479798,441.461404 L128.067175,441.461404 C128.438506,441.461404 128.740981,441.473684 128.969681,441.485965 C129.20084,441.510526 129.404949,441.547368 129.588156,441.596491 C130.170973,441.768421 130.587798,442.038596 130.836171,442.419298 C131.083315,442.8 131.207502,443.278947 131.207502,443.831579 C131.207502,444.175439 131.150942,444.482456 131.037821,444.777193 L131.037821,444.777193 Z M150.017494,440.245614 L149.896996,440.049123 L149.678132,439.914035 C149.582226,439.889474 149.459268,439.864912 149.305572,439.852632 C149.151875,439.840351 148.960062,439.840351 148.723984,439.840351 C148.50635,439.840351 148.326833,439.840351 148.184202,439.852632 C148.042802,439.864912 147.924763,439.889474 147.832545,439.914035 L147.627206,440.036842 L147.510397,440.233333 L142.76179,453.373684 C142.701541,453.533333 142.673261,453.65614 142.670802,453.754386 L142.744576,453.975439 C142.799907,454.036842 142.893354,454.073684 143.031066,454.085965 C143.165089,454.110526 143.338459,454.110526 143.548716,454.110526 C143.754054,454.110526 143.921276,454.110526 144.049152,454.085965 C144.175798,454.073684 144.274163,454.049123 144.34179,454.024561 L144.502864,453.901754 L144.588934,453.729825 L145.74965,450.32807 L151.63684,450.32807 L152.851658,453.778947 L152.943875,453.938596 L153.097572,454.036842 C153.167658,454.073684 153.268482,454.085965 153.403735,454.098246 C153.537759,454.110526 153.718506,454.110526 153.945977,454.110526 C154.170988,454.110526 154.351735,454.110526 154.486988,454.085965 C154.622241,454.073684 154.718148,454.049123 154.775938,453.987719 L154.858319,453.766667 C154.85586,453.668421 154.823891,453.545614 154.767331,453.385965 L150.017494,440.245614 L150.017494,440.245614 Z M151.145012,448.829825 L146.219346,448.829825 L148.660047,441.780702 L148.671113,441.780702 L151.145012,448.829825 L151.145012,448.829825 Z M192.89021,440.761404 C192.89021,440.601754 192.869307,440.478947 192.823813,440.368421 L192.650444,440.110526 L192.395922,439.950877 C192.295097,439.926316 192.190584,439.901754 192.078693,439.901754 L190.867564,439.901754 C190.680669,439.901754 190.520825,439.926316 190.375735,439.963158 C190.236794,440 190.110148,440.073684 189.994568,440.159649 C189.878988,440.257895 189.774475,440.380702 189.677339,440.52807 C189.581432,440.687719 189.491673,440.87193 189.410521,441.080702 L185.199237,451.298246 L185.145136,451.298246 L181.094926,441.05614 C181.0273,440.859649 180.948607,440.687719 180.861307,440.540351 C180.772778,440.392982 180.662117,440.270175 180.528093,440.184211 C180.39407,440.085965 180.236685,440.012281 180.060856,439.975439 C179.881339,439.926316 179.67477,439.901754 179.439922,439.901754 L178.282895,439.901754 C178.082475,439.901754 177.900498,439.975439 177.739424,440.098246 C177.575891,440.233333 177.494739,440.454386 177.494739,440.761404 L177.494739,453.766667 L177.532856,453.914035 L177.679175,454.024561 C177.75172,454.049123 177.847626,454.073684 177.968125,454.085965 C178.087393,454.110526 178.23863,454.110526 178.416918,454.110526 C178.606272,454.110526 178.759969,454.110526 178.880467,454.085965 C178.999735,454.073684 179.099331,454.049123 179.173105,454.024561 L179.33172,453.914035 L179.377214,453.766667 L179.377214,441.449123 L179.387051,441.449123 L184.15779,453.815789 L184.238942,453.938596 L184.411082,454.036842 L184.682817,454.085965 C184.792249,454.110526 184.925043,454.110526 185.07751,454.110526 C185.222599,454.110526 185.350475,454.110526 185.454988,454.098246 L185.729183,454.036842 L185.905012,453.950877 L185.996,453.815789 L190.988062,441.449123 L191.007735,441.449123 L191.007735,453.766667 L191.05323,453.914035 L191.204467,454.024561 C191.277012,454.049123 191.374148,454.073684 191.500794,454.085965 C191.622521,454.110526 191.77007,454.110526 191.944669,454.110526 C192.131564,454.110526 192.282802,454.110526 192.40084,454.085965 C192.51765,454.073684 192.613556,454.049123 192.687331,454.024561 L192.844716,453.914035 L192.89021,453.766667 L192.89021,440.761404 L192.89021,440.761404 Z M214.699128,440.184211 L214.648716,440.036842 L214.497479,439.938596 C214.424934,439.901754 214.333946,439.889474 214.210988,439.864912 C214.09049,439.852632 213.940482,439.840351 213.769572,439.840351 C213.585136,439.840351 213.433899,439.852632 213.31586,439.864912 C213.192903,439.889474 213.095767,439.901754 213.024451,439.938596 L212.869525,440.036842 L212.825261,440.184211 L212.825261,448.829825 C212.825261,449.468421 212.749027,450.021053 212.591642,450.5 C212.434257,450.966667 212.208016,451.37193 211.910459,451.691228 C211.617821,452.010526 211.256327,452.24386 210.828436,452.403509 C210.404233,452.575439 209.917323,452.649123 209.367704,452.649123 C208.836529,452.649123 208.355767,452.563158 207.929105,452.403509 C207.503673,452.24386 207.13849,451.998246 206.836016,451.666667 C206.533541,451.347368 206.302381,450.942105 206.141307,450.450877 C205.981463,449.97193 205.897852,449.394737 205.897852,448.731579 L205.897852,440.184211 L205.856047,440.036842 L205.708498,439.938596 C205.639642,439.901754 205.541276,439.889474 205.420778,439.864912 C205.295362,439.852632 205.144125,439.840351 204.969525,439.840351 C204.778942,439.840351 204.627704,439.852632 204.509665,439.864912 C204.392856,439.889474 204.298179,439.901754 204.226864,439.938596 L204.073167,440.036842 L204.027673,440.184211 L204.027673,448.964912 C204.027673,449.836842 204.153089,450.598246 204.402693,451.261404 C204.648607,451.924561 205.001494,452.477193 205.461354,452.919298 C205.921214,453.361404 206.470833,453.692982 207.115128,453.914035 C207.755735,454.147368 208.467658,454.257895 209.248436,454.257895 C210.100529,454.257895 210.864093,454.135088 211.53421,453.901754 C212.204327,453.65614 212.774848,453.3 213.240856,452.833333 C213.710553,452.366667 214.069588,451.801754 214.317961,451.126316 C214.571253,450.450877 214.699128,449.689474 214.699128,448.817544 L214.699128,440.184211 L214.699128,440.184211 Z M236.525261,440.221053 L236.482226,440.085965 L236.328529,439.963158 C236.262132,439.938596 236.163767,439.914035 236.042039,439.889474 C235.919082,439.877193 235.770304,439.877193 235.603082,439.877193 C235.408809,439.877193 235.255113,439.877193 235.137074,439.889474 C235.014117,439.914035 234.920669,439.938596 234.848125,439.963158 L234.690739,440.085965 L234.642786,440.221053 L234.642786,447.896491 C234.642786,448.473684 234.646475,449.063158 234.650163,449.689474 C234.655082,450.315789 234.664918,450.917544 234.677214,451.494737 L234.667377,451.494737 C234.498926,451.150877 234.326786,450.807018 234.154646,450.463158 C233.981276,450.131579 233.807907,449.787719 233.629619,449.431579 C233.45379,449.087719 233.270584,448.731579 233.08,448.375439 C232.890646,448.007018 232.692685,447.638596 232.488576,447.257895 L229.167502,441.05614 C229.047004,440.822807 228.933883,440.638596 228.823222,440.491228 C228.71379,440.34386 228.600669,440.221053 228.486319,440.135088 C228.367051,440.061404 228.234257,440 228.090397,439.963158 C227.941619,439.926316 227.760872,439.901754 227.540778,439.901754 L226.61614,439.901754 C226.419409,439.901754 226.237432,439.963158 226.072669,440.098246 C225.905447,440.208772 225.825525,440.417544 225.825525,440.712281 L225.825525,453.766667 L225.871019,453.914035 L226.022257,454.024561 C226.088654,454.049123 226.18456,454.073684 226.303829,454.085965 C226.425556,454.110526 226.578023,454.110526 226.76,454.110526 C226.944436,454.110526 227.095673,454.110526 227.217401,454.085965 C227.336669,454.073684 227.430117,454.049123 227.505121,454.024561 L227.660047,453.914035 L227.708,453.766667 L227.708,445.231579 C227.708,444.691228 227.705541,444.138596 227.695704,443.598246 C227.689556,443.057895 227.677261,442.517544 227.663735,441.989474 L227.683409,441.989474 C227.882599,442.419298 228.096545,442.861404 228.328934,443.32807 C228.555175,443.782456 228.781416,444.212281 229.007658,444.629825 L233.328374,452.673684 C233.477152,452.95614 233.617323,453.189474 233.747658,453.373684 C233.880451,453.557895 234.012016,453.692982 234.144809,453.803509 C234.278833,453.914035 234.415315,453.975439 234.564093,454.024561 C234.709183,454.061404 234.882553,454.085965 235.076825,454.085965 L235.701447,454.085965 L235.994086,454.036842 L236.262132,453.901754 L236.455175,453.64386 C236.501899,453.545614 236.525261,453.410526 236.525261,453.275439 L236.525261,440.221053 L236.525261,440.221053 Z M249.571019,440.184211 L249.525525,440.036842 L249.371829,439.938596 C249.300514,439.901754 249.202148,439.889474 249.08042,439.864912 C248.962381,439.852632 248.811144,439.840351 248.626708,439.840351 C248.460716,439.840351 248.315626,439.852632 248.196358,439.864912 C248.077089,439.889474 247.976265,439.901754 247.900031,439.938596 L247.736498,440.036842 L247.686086,440.184211 L247.686086,453.766667 L247.73035,453.914035 L247.885276,454.024561 C247.959051,454.049123 248.053728,454.073684 248.177914,454.085965 C248.30456,454.110526 248.452109,454.110526 248.626708,454.110526 C248.811144,454.110526 248.962381,454.110526 249.08042,454.085965 C249.202148,454.073684 249.300514,454.049123 249.371829,454.024561 L249.525525,453.914035 L249.571019,453.766667 L249.571019,440.184211 L249.571019,440.184211 Z M270.16635,451.629825 L270.118397,451.37193 L270.029868,451.249123 L269.895844,451.212281 C269.785183,451.212281 269.637634,451.285965 269.44828,451.421053 C269.255237,451.568421 269.011782,451.715789 268.712996,451.887719 C268.417899,452.059649 268.058864,452.219298 267.637121,452.354386 C267.216607,452.489474 266.723549,452.563158 266.155486,452.563158 C265.490288,452.563158 264.891486,452.440351 264.36277,452.207018 C263.836514,451.973684 263.390179,451.617544 263.027455,451.150877 C262.664732,450.696491 262.384389,450.119298 262.191346,449.431579 C261.998304,448.74386 261.899938,447.945614 261.899938,447.049123 C261.899938,446.152632 262.000763,445.342105 262.202412,444.642105 C262.404062,443.942105 262.686864,443.340351 263.054506,442.861404 C263.422148,442.370175 263.864794,442.001754 264.381214,441.74386 C264.898864,441.498246 265.471844,441.375439 266.102615,441.375439 C266.680514,441.375439 267.176031,441.436842 267.592856,441.584211 C268.007222,441.719298 268.358879,441.878947 268.649058,442.050877 C268.936778,442.222807 269.175315,442.382456 269.358521,442.517544 C269.541728,442.664912 269.685588,442.738596 269.785183,442.738596 L269.93642,442.689474 L270.039704,442.529825 L270.107331,442.27193 C270.122086,442.173684 270.130693,442.050877 270.130693,441.903509 C270.130693,441.780702 270.124545,441.657895 270.112249,441.57193 L270.069214,441.326316 L269.996669,441.142105 L269.807315,440.921053 C269.705261,440.822807 269.529432,440.687719 269.274911,440.540351 C269.01916,440.380702 268.73021,440.257895 268.399455,440.135088 C268.07116,440.012281 267.714584,439.926316 267.328498,439.840351 C266.939953,439.766667 266.541572,439.729825 266.135813,439.729825 C265.209946,439.729825 264.36277,439.901754 263.600436,440.233333 C262.84179,440.564912 262.185198,441.05614 261.639268,441.694737 C261.08965,442.333333 260.664218,443.107018 260.362973,444.02807 C260.059268,444.949123 259.908031,445.992982 259.908031,447.159649 C259.908031,448.301754 260.049432,449.321053 260.329774,450.192982 C260.608887,451.077193 261.013416,451.814035 261.532296,452.403509 C262.053634,453.005263 262.686864,453.459649 263.425837,453.766667 C264.168498,454.073684 264.99477,454.221053 265.91572,454.221053 C266.450584,454.221053 266.939953,454.17193 267.387518,454.073684 C267.836311,453.975439 268.234693,453.852632 268.581432,453.717544 C268.928171,453.570175 269.217121,453.422807 269.450739,453.275439 C269.685588,453.12807 269.835595,453.017544 269.910599,452.94386 L270.061837,452.759649 L270.134381,452.587719 L270.172498,452.354386 C270.181105,452.268421 270.184794,452.157895 270.184794,452.047368 C270.184794,451.875439 270.178646,451.740351 270.16635,451.629825 L270.16635,451.629825 Z M281.957946,440.184211 L281.913681,440.036842 L281.759984,439.938596 C281.684981,439.901754 281.590304,439.889474 281.468576,439.864912 C281.350537,439.852632 281.1993,439.840351 281.013634,439.840351 C280.847642,439.840351 280.702553,439.852632 280.584514,439.864912 C280.461556,439.889474 280.36442,439.901754 280.286957,439.938596 L280.124654,440.036842 L280.074241,440.184211 L280.074241,453.766667 L280.118506,453.914035 L280.272202,454.024561 C280.343518,454.049123 280.441883,454.073684 280.56607,454.085965 C280.691486,454.110526 280.840265,454.110526 281.013634,454.110526 C281.1993,454.110526 281.350537,454.110526 281.468576,454.085965 C281.590304,454.073684 281.684981,454.049123 281.759984,454.024561 L281.913681,453.914035 L281.957946,453.766667 L281.957946,440.184211 L281.957946,440.184211 Z M301.591751,442.591228 C301.441743,442.149123 301.227798,441.75614 300.949914,441.424561 C300.67572,441.092982 300.336358,440.810526 299.939206,440.577193 C299.542054,440.34386 299.151051,440.196491 298.768654,440.110526 C298.382568,440.024561 298.055502,439.975439 297.771471,439.938596 C297.489899,439.914035 297.196031,439.901754 296.889868,439.901754 L293.860202,439.901754 C293.669619,439.901754 293.498708,439.963158 293.347471,440.098246 C293.192545,440.208772 293.115082,440.417544 293.115082,440.712281 L293.115082,453.766667 L293.159346,453.914035 L293.313043,454.024561 C293.385588,454.049123 293.483953,454.073684 293.605681,454.085965 C293.72249,454.110526 293.874957,454.110526 294.059393,454.110526 C294.24014,454.110526 294.391377,454.110526 294.510646,454.085965 C294.632374,454.073684 294.727051,454.049123 294.794677,454.024561 L294.948374,453.914035 L294.998786,453.766667 L294.998786,448.670175 L296.605837,448.670175 C297.482521,448.670175 298.235019,448.559649 298.867019,448.338596 C299.49656,448.129825 300.030195,447.810526 300.464233,447.417544 C300.897043,447.012281 301.232716,446.533333 301.467564,445.95614 C301.699953,445.391228 301.814304,444.752632 301.814304,444.052632 C301.814304,443.512281 301.740529,443.033333 301.591751,442.591228 L301.591751,442.591228 Z M299.64042,445.378947 C299.507626,445.735088 299.312125,446.042105 299.057603,446.3 C298.801852,446.557895 298.487082,446.766667 298.114521,446.914035 C297.737043,447.061404 297.262428,447.122807 296.694366,447.122807 L294.998786,447.122807 L294.998786,441.461404 L296.73986,441.461404 C297.060778,441.461404 297.389074,441.485965 297.727206,441.535088 C298.069027,441.584211 298.394864,441.707018 298.713323,441.891228 C299.031782,442.087719 299.29737,442.370175 299.511315,442.763158 C299.728949,443.14386 299.834693,443.622807 299.834693,444.2 C299.834693,444.617544 299.769525,445.010526 299.64042,445.378947 L299.64042,445.378947 Z M316.292514,440.245614 L316.172016,440.049123 L315.951922,439.914035 C315.856016,439.889474 315.733058,439.864912 315.581821,439.852632 C315.426895,439.840351 315.232623,439.840351 314.999004,439.840351 C314.78137,439.840351 314.601852,439.840351 314.457992,439.852632 C314.316591,439.864912 314.201012,439.889474 314.107564,439.914035 L313.899767,440.036842 L313.785416,440.233333 L309.03558,453.373684 C308.97656,453.533333 308.947051,453.65614 308.943362,453.754386 L309.022054,453.975439 C309.074926,454.036842 309.170833,454.073684 309.302397,454.085965 C309.438879,454.110526 309.611019,454.110526 309.826195,454.110526 C310.027844,454.110526 310.193837,454.110526 310.321712,454.085965 C310.449588,454.073684 310.547953,454.049123 310.616809,454.024561 L310.774195,453.901754 L310.863953,453.729825 L312.02221,450.32807 L317.91063,450.32807 L319.126677,453.778947 L319.220125,453.938596 L319.371362,454.036842 C319.441447,454.073684 319.543502,454.085965 319.676296,454.098246 C319.812778,454.110526 319.993525,454.110526 320.219767,454.110526 C320.444778,454.110526 320.626755,454.110526 320.759549,454.085965 C320.897261,454.073684 320.990708,454.049123 321.050957,453.987719 L321.133339,453.766667 C321.127191,453.668421 321.098911,453.545614 321.04235,453.385965 L316.292514,440.245614 L316.292514,440.245614 Z M317.418802,448.829825 L312.494366,448.829825 L314.933837,441.780702 L314.946132,441.780702 L317.418802,448.829825 L317.418802,448.829825 Z M338.121105,452.857895 L338.04979,452.612281 L337.929292,452.464912 L337.758381,452.415789 L332.683938,452.415789 L332.683938,440.184211 L332.638444,440.036842 L332.487206,439.938596 C332.412202,439.901754 332.315066,439.889474 332.197027,439.864912 C332.0753,439.852632 331.922833,439.840351 331.742086,439.840351 C331.567486,439.840351 331.415019,439.852632 331.294521,439.864912 C331.169105,439.889474 331.067051,439.901754 330.998195,439.938596 L330.842039,440.036842 L330.800233,440.184211 L330.800233,453.287719 C330.800233,453.570175 330.875237,453.766667 331.024016,453.877193 C331.175253,453.987719 331.332638,454.049123 331.49863,454.049123 L337.758381,454.049123 L337.929292,454 L338.04979,453.840351 L338.121105,453.594737 C338.13463,453.496491 338.140778,453.373684 338.140778,453.226316 C338.140778,453.078947 338.13463,452.95614 338.121105,452.857895 L338.121105,452.857895 Z M79.6306459,412.147368 L79.6306459,400.763158 L49.9315642,400.763158 L49.9315642,346.764912 L37.1501634,346.764912 L37.1501634,412.147368 L79.6306459,412.147368 L79.6306459,412.147368 Z M90.0192996,412.147368 L102.8007,412.147368 L102.8007,346.764912 L90.0192996,346.764912 L90.0192996,412.147368 Z M160.356965,392.866667 C160.356965,387.082456 158.795409,382.305263 155.302195,379.001754 C152.541805,376.422807 148.773167,374.777193 142.794988,373.954386 L135.072047,372.849123 C132.406335,372.480702 130.290241,371.473684 129.002879,370.270175 C127.624529,368.992982 127.073681,367.249123 127.073681,365.591228 C127.073681,361.096491 130.382459,357.326316 137.18814,357.326316 C141.508856,357.326316 146.473868,357.878947 150.612607,361.833333 L158.701961,353.838596 C153.092654,348.422807 146.567315,346.212281 137.553323,346.212281 C123.394802,346.212281 114.75337,354.391228 114.75337,366.057895 C114.75337,371.559649 116.316156,375.784211 119.441728,378.903509 C122.385323,381.752632 126.522833,383.496491 132.129681,384.331579 L140.038288,385.424561 C143.071642,385.891228 144.54344,386.529825 145.830802,387.721053 C147.209152,389.010526 147.852218,390.938596 147.852218,393.235088 C147.852218,398.466667 143.808156,401.315789 136.26842,401.315789 C130.199253,401.315789 124.591175,399.940351 120.451206,395.801754 L112.178646,404.066667 C118.612996,410.587719 126.153961,412.7 136.082755,412.7 C149.783875,412.7 160.356965,405.540351 160.356965,392.866667 L160.356965,392.866667 Z M219.844887,393.333333 C219.844887,384.601754 214.787658,380.463158 210.837043,378.633333 C214.145821,377.073684 218.927626,372.394737 218.927626,365.136842 C218.927626,353.924561 211.478879,346.764912 198.697479,346.764912 L172.401852,346.764912 L172.401852,412.147368 L199.800405,412.147368 C211.478879,412.147368 219.844887,405.540351 219.844887,393.333333 L219.844887,393.333333 Z M207.064716,392.682456 C207.064716,397.091228 204.308016,400.763158 198.513043,400.763158 L185.183253,400.763158 L185.183253,384.687719 L198.513043,384.687719 C204.308016,384.687719 207.064716,388.273684 207.064716,392.682456 L207.064716,392.682456 Z M206.147455,365.689474 C206.147455,370.184211 203.110412,373.217544 197.685541,373.217544 L185.183253,373.217544 L185.183253,358.149123 L197.685541,358.149123 C203.110412,358.149123 206.147455,361.182456 206.147455,365.689474 L206.147455,365.689474 Z M279.057385,379.45614 C279.057385,368.157895 279.152062,359.991228 272.528358,353.384211 C267.930988,348.791228 262.32414,346.212281 254.876623,346.212281 C247.430335,346.212281 241.728809,348.791228 237.13144,353.384211 C230.508965,359.991228 230.693401,368.157895 230.693401,379.45614 C230.693401,390.754386 230.508965,398.933333 237.13144,405.540351 C241.728809,410.133333 247.430335,412.7 254.876623,412.7 C262.32414,412.7 267.930988,410.133333 272.528358,405.540351 C279.152062,398.933333 279.057385,390.754386 279.057385,379.45614 L279.057385,379.45614 Z M266.278444,379.45614 C266.278444,392.04386 265.5407,395.077193 263.060654,397.82807 C261.221214,399.940351 258.371066,401.315789 254.876623,401.315789 C251.382179,401.315789 248.439813,399.940351 246.601603,397.82807 C244.117868,395.077193 243.473572,392.04386 243.473572,379.45614 C243.473572,366.880702 244.117868,363.847368 246.601603,361.096491 C248.439813,358.984211 251.382179,357.608772 254.876623,357.608772 C258.371066,357.608772 261.221214,358.984211 263.060654,361.096491 C265.5407,363.847368 266.278444,366.880702 266.278444,379.45614 L266.278444,379.45614 Z M341.768016,412.147368 L317.860218,346.764912 L307.836747,346.764912 L284.024856,412.147368 L297.355875,412.147368 L301.308949,400.578947 L324.569992,400.578947 L328.433307,412.147368 L341.768016,412.147368 L341.768016,412.147368 Z M321.168996,389.833333 L304.895611,389.833333 L313.17063,366.057895 L321.168996,389.833333 L321.168996,389.833333 Z" id="CML" sketch:type="MSShapeGroup"></path>
        </g>
    </g>
</svg>