<?xml version="1.0" encoding="UTF-8" standalone="no"?>
<svg width="512px" height="320px" viewBox="0 0 512 320" version="1.1" xmlns="http://www.w3.org/2000/svg" xmlns:xlink="http://www.w3.org/1999/xlink" xmlns:sketch="http://www.bohemiancoding.com/sketch/ns">
    <!-- Generator: Sketch 3.0.3 (7892) - http://www.bohemiancoding.com/sketch -->
    <title>logo-roca</title>
    <desc>Created with Sketch.</desc>
    <defs></defs>
    <g id="Page-1" stroke="none" stroke-width="1" fill="none" fill-rule="evenodd" sketch:type="MSPage">
        <g id="logo-roca" sketch:type="MSArtboardGroup" fill="#000000">
            <path d="M451.902053,138.473684 L451.902053,168.157895 C448.037414,168.649123 444.120076,168.894737 440.150038,168.894737 C435.547605,168.894737 431.085703,168.070175 427.062966,166.561404 C422.355133,164.77193 418.964791,160.263158 418.964791,154.929825 C418.964791,149 422.548365,143.929825 427.748061,141.77193 C430.664106,140.578947 433.790951,139.736842 437.04076,139.350877 C441.924259,138.77193 446.878023,138.473684 451.902053,138.473684 M486.59597,176.842105 L486.59597,127.157895 C486.59597,123.842105 486.297338,120.614035 485.68251,117.491228 C483.451559,106.263158 474.96692,97.2807018 464.005399,94.4561404 C456.855817,92.5789474 449.442738,91.5789474 441.731027,91.5789474 C426.465703,91.5789474 411.604411,93.4035088 397.375513,96.8245614 L402.996806,112.54386 C412.781369,109.912281 423.092928,108.508772 433.703118,108.508772 C437.638023,108.508772 441.485095,108.912281 445.191635,109.666667 C449.021141,110.45614 451.902053,113.842105 451.902053,117.912281 L451.902053,125.719298 C444.840304,125.719298 437.848821,125.947368 430.892471,126.403509 C423.63749,126.877193 416.575741,128.140351 409.83019,130.105263 C406.457414,131.087719 403.190038,132.368421 400.08076,133.912281 C392.210951,137.736842 386.870722,145.789474 386.870722,155.087719 C386.870722,164.824561 392.790646,173.175439 401.222586,176.77193 C408.038403,179.719298 415.433916,181.666667 423.18076,182.438596 C428.76692,183 434.546312,183.298246 440.34327,183.298246 C456.381521,183.298246 471.910342,181.035088 486.59597,176.842105 M103.4873,93.1754386 C103.4873,99.6842105 100.167224,105.403509 95.1080608,108.736842 C90.5758935,111.719298 85.4991635,113.824561 79.9657034,114.824561 C73.9930798,115.912281 67.8272243,116.473684 61.5208365,116.473684 L61.50327,77.2982456 L82.0034221,77.2982456 C85.1653992,77.2982456 88.2922433,77.6491228 91.2961217,78.245614 C98.270038,79.6666667 103.4873,85.8070175 103.4873,93.1754386 M140.218935,92.7894737 C140.218935,79.4035088 131.470798,68.0175439 119.332319,64.1929825 C113.798859,62.4561404 107.966768,61.2631579 101.994144,60.8070175 C96.3377186,60.3684211 90.6110266,60.122807 84.8492015,60.122807 L24.771635,60.122807 L24.771635,180.666667 L61.50327,180.666667 L61.50327,133.508772 C67.0542966,133.508772 72.5526236,133.315789 78.0158175,132.964912 L103.4873,180.666667 L145.471331,180.666667 L114.694753,126.631579 C116.170342,126.087719 117.628365,125.508772 119.068821,124.894737 C131.523498,119.526316 140.218935,107.175439 140.218935,92.7894737 M231.336578,137.438596 C231.336578,143.403509 230.862281,149.263158 229.966388,155 C229.052928,160.877193 224.784259,165.614035 219.075133,167.157895 C216.527985,167.842105 213.840304,168.22807 211.064791,168.22807 C208.306844,168.22807 205.619163,167.842105 203.072015,167.157895 C197.36289,165.614035 193.094221,160.877193 192.163194,155 C191.284867,149.263158 190.81057,143.403509 190.81057,137.438596 C190.81057,131.45614 191.284867,125.614035 192.163194,119.894737 C193.094221,114 197.36289,109.263158 203.072015,107.719298 C205.619163,107.035088 208.306844,106.649123 211.064791,106.649123 C213.840304,106.649123 216.527985,107.035088 219.075133,107.719298 C224.784259,109.263158 229.052928,114 229.966388,119.894737 C230.862281,125.614035 231.336578,131.45614 231.336578,137.438596 M266.171027,137.438596 C266.171027,133.035088 265.74943,128.719298 264.958935,124.561404 C262.148289,109.947368 251.081369,98.2982456 236.694373,94.7192982 C228.490798,92.6666667 219.918327,91.5789474 211.082357,91.5789474 C202.228821,91.5789474 193.65635,92.6666667 185.452776,94.7192982 C171.083346,98.2982456 159.998859,109.947368 157.205779,124.561404 C156.397719,128.719298 155.976122,133.035088 155.976122,137.438596 C155.976122,141.842105 156.397719,146.140351 157.205779,150.315789 C159.998859,164.929825 171.083346,176.578947 185.452776,180.157895 C193.65635,182.210526 202.228821,183.298246 211.082357,183.298246 C219.918327,183.298246 228.490798,182.210526 236.694373,180.157895 C251.081369,176.578947 262.148289,164.929825 264.958935,150.315789 C265.74943,146.140351 266.171027,141.842105 266.171027,137.438596 Z M24.771635,250.140351 C56.4265399,242.175439 89.5921673,237.947368 123.723954,237.947368 C156.345019,237.947368 187.999924,241.789474 218.407605,249.070175 C240.681977,254.421053 263.623878,257.894737 287.163042,259.315789 C308.682053,247.157895 329.498403,233.947368 349.594525,219.754386 C349.928289,219.526316 350.156654,219.140351 350.156654,218.684211 C350.156654,217.964912 349.576958,217.385965 348.839163,217.385965 C336.120989,220.684211 323.104183,222.421053 309.683346,222.421053 C277.67711,222.421053 246.566768,218.649123 216.75635,211.491228 C186.331103,204.175439 154.676198,200.333333 122.0727,200.333333 C88.5206084,200.333333 55.9171103,204.421053 24.771635,212.140351 L24.771635,250.140351 Z M379.352243,210.54386 C380.74,208.333333 383.164183,206.877193 385.957262,206.877193 L486.59597,206.877193 L486.59597,248.824561 L355.391483,248.824561 L379.352243,210.54386 Z M284.563194,137.438596 C284.563194,133.368421 284.949658,129.403509 285.687452,125.578947 C288.304867,111.982456 297.913764,100.894737 310.719772,96.2280702 C318.976046,93.245614 327.864715,91.5789474 337.157414,91.5789474 C348.979696,91.5789474 360.415513,93.4210526 371.131103,96.8245614 L365.369278,112.947368 C357.973764,111.122807 350.349886,110.140351 342.427376,110.140351 C338.264106,110.140351 334.311635,111 330.710494,112.508772 C325.844563,114.54386 322.278555,118.807018 320.996198,123.964912 C319.907072,128.298246 319.450342,132.807018 319.450342,137.438596 C319.450342,142.070175 319.907072,146.578947 320.996198,150.912281 C322.278555,156.087719 325.844563,160.350877 330.710494,162.385965 C334.311635,163.894737 338.264106,164.736842 342.427376,164.736842 C350.349886,164.736842 357.973764,163.77193 365.369278,161.947368 L371.131103,178.070175 C360.415513,181.45614 348.979696,183.315789 337.157414,183.315789 C327.864715,183.315789 318.976046,181.666667 310.719772,178.649123 C297.913764,174 288.304867,162.894737 285.687452,149.298246 C284.949658,145.473684 284.563194,141.491228 284.563194,137.438596 Z" id="Roca" sketch:type="MSShapeGroup"></path>
        </g>
    </g>
</svg>