<?xml version="1.0" encoding="UTF-8" standalone="no"?>
<svg width="390px" height="151px" viewBox="0 0 390 151" version="1.1" xmlns="http://www.w3.org/2000/svg" xmlns:xlink="http://www.w3.org/1999/xlink" xmlns:sketch="http://www.bohemiancoding.com/sketch/ns">
    <title>FAUP</title>
    <defs></defs>
    <g id="Page-1" stroke="none" stroke-width="1" fill="none" fill-rule="evenodd" sketch:type="MSPage">
        <g id="Group" sketch:type="MSLayerGroup" fill="#000000">
            <path d="M94.577,118.349 L94.577,108.976 L92.807,108.976 L92.807,117.809 C92.807,119.579 92.678,120.076 91.988,120.833 C91.273,121.63 90.238,122.063 89.006,122.063 C87.773,122.063 86.738,121.63 86.023,120.833 C85.333,120.076 85.204,119.579 85.204,117.809 L85.204,108.976 L83.434,108.976 L83.434,118.349 C83.434,120.205 83.908,121.351 85.097,122.322 C86.153,123.186 87.493,123.64 89.027,123.64 C90.561,123.64 91.879,123.186 92.936,122.322 C94.125,121.351 94.577,120.248 94.577,118.349" id="Fill-1" sketch:type="MSShapeGroup"></path>
            <path d="M110.601,123.359 L110.601,108.976 L108.831,108.976 L108.831,121.049 C108.788,120.963 108.765,120.877 108.745,120.833 C108.593,120.421 108.572,120.4 108.486,120.185 C108.42,120.055 108.357,119.926 108.291,119.84 L101.228,108.976 L98.918,108.976 L98.918,123.23 L100.69,123.23 L100.69,110.875 C100.776,111.157 100.819,111.263 100.905,111.415 C100.926,111.503 100.992,111.59 101.078,111.74 C101.185,111.955 101.294,112.128 101.357,112.236 L108.55,123.359 L110.601,123.359" id="Fill-2" sketch:type="MSShapeGroup"></path>
            <path d="M115.307,123.229 L117.0789,123.229 L117.0789,108.975 L115.307,108.975 L115.307,123.229 Z" id="Fill-3" sketch:type="MSShapeGroup"></path>
            <path d="M131.827,108.976 L130.055,108.976 L125.994,120.098 C125.908,120.335 125.865,120.53 125.865,120.788 C125.842,120.507 125.799,120.292 125.713,120.098 L121.501,108.976 L119.602,108.976 L125.218,123.597 L126.298,123.597 L131.827,108.976" id="Fill-4" sketch:type="MSShapeGroup"></path>
            <path d="M142.575,123.229 L142.575,121.738 L136.14,121.738 L136.14,116.706 L141.302,116.706 L141.302,115.215 L136.14,115.215 L136.14,110.464 L142.382,110.464 L142.382,108.975 L134.37,108.975 L134.37,123.229 L142.575,123.229" id="Fill-5" sketch:type="MSShapeGroup"></path>
            <path d="M155.638,123.229 L151.429,116.858 C152.484,116.62 153.002,116.361 153.587,115.778 C154.385,115.022 154.837,113.942 154.837,112.819 C154.837,111.739 154.406,110.702 153.716,110.033 C152.895,109.234 152.076,108.975 150.347,108.975 L146.006,108.975 L146.006,123.229 L147.778,123.229 L147.778,117.117 L149.677,117.117 L153.609,123.229 L155.638,123.229 L155.638,123.229 Z M152.938,112.841 C152.938,114.677 151.967,115.626 150.088,115.626 L147.778,115.626 L147.778,110.464 L150.088,110.464 C151.361,110.464 151.73,110.53 152.162,110.875 C152.679,111.285 152.938,111.934 152.938,112.841 L152.938,112.841 Z" id="Fill-6" sketch:type="MSShapeGroup"></path>
            <path d="M166.631,109.926 C165.834,109.45 165.489,109.277 164.904,109.082 C164.171,108.846 163.327,108.737 162.508,108.737 C159.677,108.737 157.798,110.249 157.798,112.517 C157.798,113.985 158.705,115.109 160.845,116.254 C162.183,116.987 162.982,117.398 163.218,117.527 C163.783,117.852 164.192,118.262 164.43,118.694 C164.58,118.954 164.645,119.299 164.645,119.708 C164.645,121.069 163.631,121.868 161.947,121.868 C161.21,121.868 160.52,121.738 159.892,121.5 C159.395,121.307 159.05,121.112 158.253,120.572 L157.344,121.977 C158.274,122.603 158.642,122.819 159.18,123.034 C159.935,123.338 160.845,123.51 161.818,123.51 C164.688,123.51 166.502,121.977 166.502,119.535 C166.502,118.499 166.093,117.527 165.399,116.944 C164.882,116.49 164.128,116.014 163.155,115.497 C160.262,113.963 159.634,113.425 159.634,112.365 C159.634,111.156 160.736,110.357 162.356,110.357 C162.917,110.357 163.783,110.487 164.321,110.659 C164.775,110.811 165.077,110.961 165.812,111.392 L166.631,109.926" id="Fill-7" sketch:type="MSShapeGroup"></path>
            <path d="M170.151,123.229 L171.921,123.229 L171.921,108.975 L170.151,108.975 L170.151,123.229 Z" id="Fill-8" sketch:type="MSShapeGroup"></path>
            <path d="M188.548,116.039 C188.548,111.935 185.544,108.976 181.378,108.976 L176.625,108.976 L176.625,123.23 L181.355,123.23 C183.838,123.23 185.329,122.646 186.626,121.156 C187.858,119.753 188.548,117.895 188.548,116.039 L188.548,116.039 Z M186.69,116.015 C186.69,117.571 185.979,119.343 184.941,120.443 C184.033,121.371 182.975,121.739 181.097,121.739 L178.397,121.739 L178.397,110.465 L181.097,110.465 C184.316,110.465 186.69,112.842 186.69,116.015 L186.69,116.015 Z" id="Fill-9" sketch:type="MSShapeGroup"></path>
            <path d="M202.307,123.229 L197.016,108.565 L195.114,108.565 L189.803,123.229 L191.702,123.229 L193.172,119.018 L198.938,119.018 L200.404,123.229 L202.307,123.229 L202.307,123.229 Z M198.375,117.398 L193.733,117.398 L196.063,110.875 L198.375,117.398 L198.375,117.398 Z" id="Fill-10" sketch:type="MSShapeGroup"></path>
            <path d="M216.754,116.039 C216.754,111.935 213.75,108.976 209.584,108.976 L204.831,108.976 L204.831,123.23 L209.561,123.23 C212.044,123.23 213.535,122.646 214.832,121.156 C216.064,119.753 216.754,117.895 216.754,116.039 L216.754,116.039 Z M214.896,116.015 C214.896,117.571 214.185,119.343 213.146,120.443 C212.241,121.371 211.181,121.739 209.303,121.739 L206.603,121.739 L206.603,110.465 L209.303,110.465 C212.522,110.465 214.896,112.842 214.896,116.015 L214.896,116.015 Z" id="Fill-11" sketch:type="MSShapeGroup"></path>
            <path d="M228.394,123.229 L228.394,121.738 L221.959,121.738 L221.959,116.706 L227.121,116.706 L227.121,115.215 L221.959,115.215 L221.959,110.464 L228.201,110.464 L228.201,108.975 L220.189,108.975 L220.189,123.229 L228.394,123.229" id="Fill-12" sketch:type="MSShapeGroup"></path>
            <path d="M249.146,116.039 C249.146,111.935 246.146,108.976 241.974,108.976 L237.225,108.976 L237.225,123.23 L241.954,123.23 C244.438,123.23 245.927,122.646 247.224,121.156 C248.456,119.753 249.146,117.895 249.146,116.039 L249.146,116.039 Z M247.288,116.015 C247.288,117.571 246.577,119.343 245.539,120.443 C244.633,121.371 243.574,121.739 241.695,121.739 L238.997,121.739 L238.997,110.465 L241.695,110.465 C244.912,110.465 247.288,112.842 247.288,116.015 L247.288,116.015 Z" id="Fill-13" sketch:type="MSShapeGroup"></path>
            <path d="M265.626,116.101 C265.626,111.826 262.624,108.715 258.477,108.715 C254.329,108.715 251.305,111.826 251.305,116.101 C251.305,120.4 254.329,123.511 258.477,123.511 C262.624,123.511 265.626,120.4 265.626,116.101 L265.626,116.101 Z M263.682,116.101 C263.682,119.32 261.328,121.955 258.477,121.955 C255.606,121.955 253.251,119.32 253.251,116.101 C253.251,112.906 255.606,110.272 258.477,110.272 C261.328,110.272 263.682,112.906 263.682,116.101 L263.682,116.101 Z" id="Fill-14" sketch:type="MSShapeGroup"></path>
            <path d="M283.508,113.187 C283.508,111.848 283.142,110.854 282.405,110.099 C281.609,109.278 280.656,108.976 278.929,108.976 L274.459,108.976 L274.459,123.229 L276.231,123.229 L276.231,117.829 C277.482,117.959 277.872,118.004 278.432,118.004 C281.565,118.004 283.508,116.168 283.508,113.187 L283.508,113.187 Z M281.672,113.294 C281.672,114.634 281.024,115.756 279.989,116.189 C279.514,116.384 278.929,116.47 278.13,116.47 C277.632,116.47 277.223,116.448 276.231,116.341 L276.231,110.464 L278.671,110.464 C279.816,110.464 280.44,110.639 280.872,111.07 C281.393,111.589 281.672,112.366 281.672,113.294 L281.672,113.294 Z" id="Fill-15" sketch:type="MSShapeGroup"></path>
            <path d="M299.511,116.101 C299.511,111.826 296.507,108.715 292.362,108.715 C288.212,108.715 285.192,111.826 285.192,116.101 C285.192,120.4 288.212,123.511 292.362,123.511 C296.507,123.511 299.511,120.4 299.511,116.101 L299.511,116.101 Z M297.565,116.101 C297.565,119.32 295.212,121.955 292.362,121.955 C289.487,121.955 287.134,119.32 287.134,116.101 C287.134,112.906 289.487,110.272 292.362,110.272 C295.212,110.272 297.565,112.906 297.565,116.101 L297.565,116.101 Z" id="Fill-16" sketch:type="MSShapeGroup"></path>
            <path d="M312.574,123.229 L308.363,116.858 C309.42,116.62 309.94,116.361 310.523,115.778 C311.32,115.022 311.775,113.942 311.775,112.819 C311.775,111.739 311.342,110.702 310.652,110.033 C309.833,109.234 309.01,108.975 307.283,108.975 L302.942,108.975 L302.942,123.229 L304.714,123.229 L304.714,117.117 L306.613,117.117 L310.543,123.229 L312.574,123.229 L312.574,123.229 Z M309.876,112.841 C309.876,114.677 308.903,115.626 307.024,115.626 L304.714,115.626 L304.714,110.464 L307.024,110.464 C308.299,110.464 308.665,110.53 309.096,110.875 C309.617,111.285 309.876,111.934 309.876,112.841 L309.876,112.841 Z" id="Fill-17" sketch:type="MSShapeGroup"></path>
            <path d="M324.649,110.464 L324.649,108.975 L313.375,108.975 L313.375,110.464 L318.128,110.464 L318.128,123.229 L319.896,123.229 L319.896,110.464 L324.649,110.464" id="Fill-18" sketch:type="MSShapeGroup"></path>
            <path d="M340.237,116.101 C340.237,111.826 337.233,108.715 333.088,108.715 C328.942,108.715 325.918,111.826 325.918,116.101 C325.918,120.4 328.942,123.511 333.088,123.511 C337.233,123.511 340.237,120.4 340.237,116.101 L340.237,116.101 Z M338.293,116.101 C338.293,119.32 335.938,121.955 333.088,121.955 C330.215,121.955 327.86,119.32 327.86,116.101 C327.86,112.906 330.215,110.272 333.088,110.272 C335.938,110.272 338.293,112.906 338.293,116.101 L338.293,116.101 Z" id="Fill-19" sketch:type="MSShapeGroup"></path>
            <path d="M92.224,89.689 L92.224,87.377 L83.391,87.377 L83.391,101.631 L86.113,101.631 L86.113,95.648 L91.121,95.648 L91.121,93.36 L86.113,93.36 L86.113,89.689 L92.224,89.689" id="Fill-20" sketch:type="MSShapeGroup"></path>
            <path d="M105.527,101.631 L100.369,87.377 L97.926,87.377 L92.764,101.631 L95.616,101.631 L96.782,98.112 L101.554,98.112 L102.679,101.631 L105.527,101.631 L105.527,101.631 Z M100.821,95.8 L97.515,95.8 L99.158,90.638 L100.821,95.8 L100.821,95.8 Z" id="Fill-21" sketch:type="MSShapeGroup"></path>
            <path d="M118.14,88.48 C116.908,87.55 115.483,87.119 113.668,87.119 C111.315,87.119 109.717,87.702 108.291,89.104 C106.888,90.488 106.11,92.367 106.11,94.441 C106.11,96.664 106.997,98.781 108.508,100.141 C109.847,101.352 111.444,101.912 113.668,101.912 C114.512,101.912 115.268,101.826 115.959,101.674 C116.606,101.524 116.974,101.395 117.881,100.984 L117.383,98.695 C116.111,99.192 115.268,99.364 114.253,99.364 C111.143,99.364 109.114,97.356 109.114,94.289 C109.114,91.589 111.079,89.646 113.82,89.646 C115.073,89.646 116.175,89.969 117.103,90.638 L118.14,88.48" id="Fill-22" sketch:type="MSShapeGroup"></path>
            <path d="M132.18,96.061 L132.18,87.378 L129.457,87.378 L129.457,96.211 C129.457,98.262 128.357,99.385 126.281,99.385 C124.014,99.385 122.916,98.328 122.916,96.211 L122.916,87.378 L120.214,87.378 L120.214,96.061 C120.214,98.675 120.688,99.862 122.158,100.876 C123.238,101.611 124.402,101.913 126.199,101.913 C127.967,101.913 129.178,101.589 130.215,100.876 C131.704,99.839 132.18,98.675 132.18,96.061" id="Fill-23" sketch:type="MSShapeGroup"></path>
            <path d="M144.251,101.631 L144.251,99.321 L138.422,99.321 L138.422,87.377 L135.697,87.377 L135.697,101.631 L144.251,101.631" id="Fill-24" sketch:type="MSShapeGroup"></path>
            <path d="M159.259,94.461 C159.259,92.605 158.567,90.79 157.337,89.474 C155.933,87.983 154.247,87.377 151.547,87.377 L146.258,87.377 L146.258,101.631 L151.528,101.631 C154.097,101.631 155.976,100.941 157.294,99.537 C158.545,98.198 159.259,96.362 159.259,94.461 L159.259,94.461 Z M156.321,94.483 C156.321,97.529 154.506,99.235 151.266,99.235 L149.108,99.235 L149.108,89.775 L151.266,89.775 C152.822,89.775 153.925,90.055 154.678,90.617 C155.695,91.373 156.321,92.863 156.321,94.483 L156.321,94.483 Z" id="Fill-25" sketch:type="MSShapeGroup"></path>
            <path d="M172.605,101.631 L167.443,87.377 L165.004,87.377 L159.842,101.631 L162.694,101.631 L163.858,98.112 L168.632,98.112 L169.753,101.631 L172.605,101.631 L172.605,101.631 Z M167.897,95.8 L164.593,95.8 L166.236,90.638 L167.897,95.8 L167.897,95.8 Z" id="Fill-26" sketch:type="MSShapeGroup"></path>
            <path d="M187.464,94.461 C187.464,92.605 186.772,90.79 185.542,89.474 C184.138,87.983 182.452,87.377 179.752,87.377 L174.463,87.377 L174.463,101.631 L179.733,101.631 C182.302,101.631 184.181,100.941 185.499,99.537 C186.75,98.198 187.464,96.362 187.464,94.461 L187.464,94.461 Z M184.526,94.483 C184.526,97.529 182.711,99.235 179.471,99.235 L177.313,99.235 L177.313,89.775 L179.471,89.775 C181.027,89.775 182.13,90.055 182.883,90.617 C183.9,91.373 184.526,92.863 184.526,94.483 L184.526,94.483 Z" id="Fill-27" sketch:type="MSShapeGroup"></path>
            <path d="M198.911,101.631 L198.911,99.321 L192.669,99.321 L192.669,95.518 L197.55,95.518 L197.55,93.208 L192.669,93.208 L192.669,89.689 L198.63,89.689 L198.63,87.377 L189.947,87.377 L189.947,101.631 L198.911,101.631" id="Fill-28" sketch:type="MSShapeGroup"></path>
            <path d="M219.857,94.461 C219.857,92.605 219.167,90.79 217.935,89.474 C216.531,87.983 214.845,87.377 212.147,87.377 L206.856,87.377 L206.856,101.631 L212.125,101.631 C214.695,101.631 216.574,100.941 217.892,99.537 C219.145,98.198 219.857,96.362 219.857,94.461 L219.857,94.461 Z M216.919,94.483 C216.919,97.529 215.104,99.235 211.866,99.235 L209.704,99.235 L209.704,89.775 L211.866,89.775 C213.42,89.775 214.523,90.055 215.276,90.617 C216.293,91.373 216.919,92.863 216.919,94.483 L216.919,94.483 Z" id="Fill-29" sketch:type="MSShapeGroup"></path>
            <path d="M231.302,101.631 L231.302,99.321 L225.062,99.321 L225.062,95.518 L229.941,95.518 L229.941,93.208 L225.062,93.208 L225.062,89.689 L231.023,89.689 L231.023,87.377 L222.34,87.377 L222.34,101.631 L231.302,101.631" id="Fill-30" sketch:type="MSShapeGroup"></path>
            <path d="M250.239,101.631 L245.077,87.377 L242.638,87.377 L237.476,101.631 L240.328,101.631 L241.492,98.112 L246.266,98.112 L247.387,101.631 L250.239,101.631 L250.239,101.631 Z M245.531,95.8 L242.229,95.8 L243.87,90.638 L245.531,95.8 L245.531,95.8 Z" id="Fill-31" sketch:type="MSShapeGroup"></path>
            <path d="M262.549,101.631 L259.007,95.518 C260.196,95.196 260.693,94.894 261.233,94.202 C261.752,93.51 262.011,92.625 262.011,91.525 C262.011,90.184 261.623,89.147 260.843,88.437 C260.001,87.636 259.05,87.377 256.976,87.377 L252.227,87.377 L252.227,101.631 L254.948,101.631 L254.948,95.931 L256.309,95.931 L259.57,101.631 L262.549,101.631 L262.549,101.631 Z M259.2,91.588 C259.2,93.013 258.446,93.619 256.718,93.619 L254.948,93.619 L254.948,89.689 L256.718,89.689 C258.49,89.689 259.2,90.227 259.2,91.588 L259.2,91.588 Z" id="Fill-32" sketch:type="MSShapeGroup"></path>
            <path d="M278.704,94.504 C278.704,90.098 275.64,87.118 271.146,87.118 C266.633,87.118 263.565,90.098 263.565,94.504 C263.565,97.721 265.444,100.551 268.189,101.481 C268.684,101.653 269.072,101.717 269.959,101.76 C270.39,102.432 270.585,102.69 271.06,103.23 C271.405,103.618 271.817,104.029 272.271,104.483 C273.154,105.347 273.632,105.735 274.84,106.663 L277.151,104.612 C276.244,104.158 275.899,103.963 275.445,103.641 C275.098,103.38 274.753,103.078 274.429,102.754 C274.02,102.345 273.891,102.15 273.632,101.631 C275.162,101.113 275.747,100.768 276.696,99.752 C278.014,98.348 278.704,96.555 278.704,94.504 L278.704,94.504 Z M275.813,94.504 C275.813,97.399 273.825,99.537 271.146,99.537 C268.468,99.537 266.46,97.399 266.46,94.504 C266.46,91.632 268.468,89.473 271.146,89.473 C273.825,89.473 275.813,91.632 275.813,94.504 L275.813,94.504 Z" id="Fill-33" sketch:type="MSShapeGroup"></path>
            <path d="M292.916,96.061 L292.916,87.378 L290.193,87.378 L290.193,96.211 C290.193,98.262 289.091,99.385 287.017,99.385 C284.75,99.385 283.652,98.328 283.652,96.211 L283.652,87.378 L280.95,87.378 L280.95,96.061 C280.95,98.675 281.424,99.862 282.894,100.876 C283.974,101.611 285.139,101.913 286.931,101.913 C288.703,101.913 289.912,101.589 290.951,100.876 C292.44,99.839 292.916,98.675 292.916,96.061" id="Fill-34" sketch:type="MSShapeGroup"></path>
            <path d="M296.37,101.631 L299.0925,101.631 L299.0925,87.377 L296.37,87.377 L296.37,101.631 Z" id="Fill-35" sketch:type="MSShapeGroup"></path>
            <path d="M312.413,89.689 L312.413,87.377 L301.139,87.377 L301.139,89.689 L305.417,89.689 L305.417,101.631 L308.138,101.631 L308.138,89.689 L312.413,89.689" id="Fill-36" sketch:type="MSShapeGroup"></path>
            <path d="M323.511,101.631 L323.511,99.321 L317.267,99.321 L317.267,95.518 L322.15,95.518 L322.15,93.208 L317.267,93.208 L317.267,89.689 L323.23,89.689 L323.23,87.377 L314.547,87.377 L314.547,101.631 L323.511,101.631" id="Fill-37" sketch:type="MSShapeGroup"></path>
            <path d="M336.808,88.48 C335.58,87.55 334.153,87.119 332.338,87.119 C329.985,87.119 328.387,87.702 326.96,89.104 C325.556,90.488 324.78,92.367 324.78,94.441 C324.78,96.664 325.665,98.781 327.176,100.141 C328.517,101.352 330.114,101.912 332.338,101.912 C333.18,101.912 333.937,101.826 334.627,101.674 C335.274,101.524 335.644,101.395 336.549,100.984 L336.054,98.695 C334.779,99.192 333.937,99.364 332.921,99.364 C329.811,99.364 327.78,97.356 327.78,94.289 C327.78,91.589 329.745,89.646 332.49,89.646 C333.742,89.646 334.843,89.969 335.773,90.638 L336.808,88.48" id="Fill-38" sketch:type="MSShapeGroup"></path>
            <path d="M348.754,89.689 L348.754,87.377 L337.48,87.377 L337.48,89.689 L341.755,89.689 L341.755,101.631 L344.479,101.631 L344.479,89.689 L348.754,89.689" id="Fill-39" sketch:type="MSShapeGroup"></path>
            <path d="M362.486,96.061 L362.486,87.378 L359.762,87.378 L359.762,96.211 C359.762,98.262 358.663,99.385 356.589,99.385 C354.32,99.385 353.22,98.328 353.22,96.211 L353.22,87.378 L350.518,87.378 L350.518,96.061 C350.518,98.675 350.996,99.862 352.462,100.876 C353.544,101.611 354.71,101.913 356.503,101.913 C358.275,101.913 359.482,101.589 360.519,100.876 C362.008,99.839 362.486,98.675 362.486,96.061" id="Fill-40" sketch:type="MSShapeGroup"></path>
            <path d="M376.328,101.631 L372.786,95.518 C373.975,95.196 374.472,94.894 375.01,94.202 C375.527,93.51 375.79,92.625 375.79,91.525 C375.79,90.184 375.398,89.147 374.622,88.437 C373.778,87.636 372.829,87.377 370.755,87.377 L366.004,87.377 L366.004,101.631 L368.727,101.631 L368.727,95.931 L370.088,95.931 L373.347,101.631 L376.328,101.631 L376.328,101.631 Z M372.981,91.588 C372.981,93.013 372.225,93.619 370.497,93.619 L368.727,93.619 L368.727,89.689 L370.497,89.689 C372.269,89.689 372.981,90.227 372.981,91.588 L372.981,91.588 Z" id="Fill-41" sketch:type="MSShapeGroup"></path>
            <path d="M389.481,101.631 L384.321,87.377 L381.88,87.377 L376.716,101.631 L379.568,101.631 L380.736,98.112 L385.508,98.112 L386.631,101.631 L389.481,101.631 L389.481,101.631 Z M384.775,95.8 L381.469,95.8 L383.112,90.638 L384.775,95.8 L384.775,95.8 Z" id="Fill-42" sketch:type="MSShapeGroup"></path>
            <path d="M57.004,43.682 C55.798,43.682 54.778,44.1 53.944,44.934 C53.111,45.766 52.694,46.787 52.694,47.993 C52.694,49.199 53.111,50.22 53.944,51.053 C54.778,51.887 55.798,52.304 57.004,52.304 C58.21,52.304 59.23,51.887 60.064,51.053 C60.898,50.22 61.314,49.199 61.314,47.993 C61.314,46.787 60.898,45.766 60.064,44.934 C59.23,44.1 58.21,43.682 57.004,43.682 L57.004,43.682 Z M8.45,8.912 L8.45,10.006 L13.194,10.006 L13.194,37.517 C13.194,42.213 14.684,45.907 17.664,48.6 C20.644,51.292 24.627,52.638 29.614,52.638 C35.006,52.638 39.03,51.322 41.685,48.691 C44.342,46.059 45.67,42.436 45.67,37.82 L45.67,15.107 C45.67,13.366 45.923,12.08 46.43,11.251 C46.937,10.421 47.737,10.006 48.832,10.006 L50.413,10.006 L50.413,8.912 L38.372,8.912 L38.372,10.006 L40.135,10.006 C41.677,10.006 42.141,10.4 42.728,11.189 C43.316,11.979 43.61,13.285 43.61,15.107 L43.61,38.182 C43.61,42.149 42.576,45.185 40.507,47.291 C38.44,49.396 36.58,50.152 33.324,50.448 C29.205,50.824 26.381,49.274 24.902,46.927 C23.421,44.578 22.682,41.178 22.682,36.725 L22.682,10.006 L27.607,10.006 L27.607,8.912 L8.45,8.912 L8.45,8.912 Z M0.521,0.567 L71.648,0.567 L71.648,60.248 L0.521,60.248 L0.521,0.567 L0.521,0.567 Z" id="Fill-43" sketch:type="MSShapeGroup"></path>
            <path d="M83.658,9.942 L77.637,9.942 L77.637,8.969 L94.97,8.969 C99.876,8.969 103.778,9.903 106.677,11.774 C109.576,13.644 111.026,16.672 111.026,20.858 C111.026,24.843 109.495,27.819 106.435,29.791 C103.373,31.762 99.754,32.748 95.579,32.748 C93.146,32.748 91.24,32.404 89.862,31.714 L89.862,50.871 L96.065,50.871 L96.065,51.845 L77.637,51.845 L77.637,50.871 L83.658,50.871 L83.658,9.942 L83.658,9.942 Z M89.862,30.494 C90.389,30.82 91.068,31.115 91.899,31.379 C92.73,31.643 93.612,31.775 94.545,31.775 C97.098,31.775 99.389,30.972 101.416,29.366 C103.444,27.76 104.457,25.107 104.457,21.408 C104.457,17.463 103.555,14.567 101.752,12.717 C99.947,10.868 97.221,9.942 93.572,9.942 L89.862,9.942 L89.862,30.494 L89.862,30.494 Z" id="Fill-44" sketch:type="MSShapeGroup"></path>
            <path d="M135.715,8.056 C140.865,8.056 145.354,10.243 149.186,14.616 C153.017,18.989 154.933,24.252 154.933,30.407 C154.933,36.602 153.038,41.875 149.247,46.228 C145.456,50.58 140.946,52.757 135.715,52.757 C130.567,52.757 126.076,50.571 122.244,46.197 C118.413,41.825 116.497,36.561 116.497,30.407 C116.497,24.211 118.392,18.938 122.183,14.586 C125.974,10.233 130.484,8.056 135.715,8.056 L135.715,8.056 Z M135.715,51.784 C138.999,51.784 141.553,50.639 143.378,48.353 C145.202,46.065 146.429,43.351 147.057,40.214 C147.686,37.076 148,33.807 148,30.407 C148,26.884 147.706,23.585 147.118,20.508 C146.53,17.431 145.324,14.749 143.499,12.461 C141.675,10.173 139.08,9.029 135.715,9.029 C132.431,9.029 129.877,10.173 128.052,12.461 C126.228,14.749 125.001,17.462 124.373,20.599 C123.744,23.737 123.431,27.006 123.431,30.407 C123.431,33.929 123.725,37.229 124.311,40.305 C124.9,43.382 126.106,46.065 127.931,48.353 C129.755,50.639 132.35,51.784 135.715,51.784 L135.715,51.784 Z" id="Fill-45" sketch:type="MSShapeGroup"></path>
            <path d="M165.341,9.942 L159.259,9.942 L159.259,8.969 L177.93,8.969 C182.268,8.969 185.786,9.722 188.481,11.226 C191.178,12.73 192.526,15.578 192.526,19.764 C192.526,23.059 191.188,25.438 188.512,26.901 C185.836,28.366 182.835,29.3 179.511,29.707 C183.363,30.113 186.15,30.975 187.873,32.292 C189.596,33.611 190.681,36.174 191.127,39.986 L191.978,47.405 C192.182,48.946 192.576,49.969 193.164,50.476 C193.752,50.984 194.41,51.236 195.14,51.236 C195.79,51.236 196.621,51.034 197.634,50.628 L197.999,51.419 C197.351,51.661 196.63,51.855 195.84,51.997 C195.05,52.138 194.108,52.209 193.012,52.209 C189.648,52.209 187.489,51.43 186.536,49.868 C185.582,48.308 184.842,45.438 184.315,41.263 L183.89,37.614 C183.646,35.262 182.968,33.457 181.853,32.2 C180.737,30.944 178.619,30.316 175.497,30.316 L171.544,30.316 L171.544,50.871 L177.747,50.871 L177.747,51.845 L159.259,51.845 L159.259,50.871 L165.341,50.871 L165.341,9.942 L165.341,9.942 Z M171.544,29.343 L174.585,29.343 C178.356,29.343 181.193,28.6 183.1,27.115 C185.005,25.63 185.957,23.18 185.957,19.764 C185.957,16.836 185.228,14.466 183.768,12.657 C182.308,10.847 179.613,9.942 175.68,9.942 L171.544,9.942 L171.544,29.343 L171.544,29.343 Z" id="Fill-46" sketch:type="MSShapeGroup"></path>
            <path d="M215.59,9.942 L214.313,9.942 C208.798,9.942 205.211,10.642 203.548,12.04 C201.887,13.439 201.055,16.611 201.055,21.558 L200.082,21.558 L200.082,8.969 L237.3,8.969 L237.3,21.558 L236.328,21.558 C236.328,16.653 235.497,13.489 233.834,12.07 C232.172,10.651 228.604,9.942 223.131,9.942 L221.793,9.942 L221.793,50.871 L228.057,50.871 L228.057,51.845 L209.325,51.845 L209.325,50.871 L215.59,50.871 L215.59,9.942" id="Fill-47" sketch:type="MSShapeGroup"></path>
            <path d="M260.972,8.056 C266.122,8.056 270.611,10.243 274.443,14.616 C278.274,18.989 280.19,24.252 280.19,30.407 C280.19,36.602 278.295,41.875 274.504,46.228 C270.713,50.58 266.203,52.757 260.972,52.757 C255.823,52.757 251.333,50.571 247.502,46.197 C243.67,41.825 241.754,36.561 241.754,30.407 C241.754,24.211 243.651,18.938 247.44,14.586 C251.231,10.233 255.743,8.056 260.972,8.056 L260.972,8.056 Z M260.972,51.784 C264.257,51.784 266.811,50.639 268.635,48.353 C270.459,46.065 271.686,43.351 272.315,40.214 C272.943,37.076 273.258,33.807 273.258,30.407 C273.258,26.884 272.964,23.585 272.376,20.508 C271.788,17.431 270.582,14.749 268.757,12.461 C266.932,10.173 264.338,9.029 260.972,9.029 C257.688,9.029 255.134,10.173 253.309,12.461 C251.485,14.749 250.259,17.462 249.631,20.599 C249.002,23.737 248.688,27.006 248.688,30.407 C248.688,33.929 248.982,37.229 249.57,40.305 C250.158,43.382 251.364,46.065 253.188,48.353 C255.013,50.639 257.607,51.784 260.972,51.784 L260.972,51.784 Z" id="Fill-48" sketch:type="MSShapeGroup"></path>
            <path d="M45.81,140.598 C46.914,140.493 47.636,140.224 48.199,140.515 C47.524,140.848 46.564,140.638 45.81,140.598 L45.81,140.598 Z M45.874,139.909 C44.945,139.942 43.751,140.006 42.946,139.79 C43.959,139.622 44.868,139.634 45.868,139.732 L45.874,139.909 L45.874,139.909 Z M45.516,135.336 C45.616,136.308 45.477,137.398 45.555,138.37 C45.386,138.597 45.778,139.049 45.385,139.217 C44.404,139.03 43.373,139.31 42.458,139.12 C42.281,135.316 43.054,130.815 41.441,127.127 C41.526,126.393 40.782,126.02 40.646,125.294 C41.613,125.061 42.352,125.921 43.117,126.271 C44.067,127.479 45.162,129.013 45.24,130.627 C45.679,131.764 45.411,132.97 45.633,134.269 C45.425,134.653 45.68,134.976 45.516,135.336 L45.516,135.336 Z M42.523,148.623 C42.551,146.23 42.255,143.469 42.423,141.292 C43.025,140.762 43.886,141.33 44.587,141.106 C44.833,141.164 45.291,140.949 45.501,141.251 C45.506,142.049 45.514,142.912 45.473,143.645 C45.688,144.08 45.399,144.688 45.438,145.174 C45.201,146.002 45.837,147.088 45.199,147.841 L42.523,148.623 L42.523,148.623 Z M41.914,148.729 C41.815,146.686 42.072,143.966 41.957,141.907 C42.165,141.501 41.728,141.051 42.093,140.728 C42.925,140.455 43.863,140.666 44.788,140.523 C44.292,140.252 43.679,140.473 43.077,140.361 C42.651,140.221 42.374,139.876 42.095,139.509 C41.855,136.439 42.155,133.615 41.897,130.678 C41.925,130.212 41.733,129.775 41.628,129.314 C41.501,127.59 40.496,126.075 39.824,124.592 C40.061,123.764 39.66,123.689 39.263,123.748 C38.656,123.481 39.421,123.188 39.387,122.857 C39.011,122.25 38.51,123.109 38.155,122.457 C38.661,121.11 37.539,121.947 37.207,121.338 C37.799,119.878 36.588,120.718 36.105,120.203 L35.741,118.665 C35.103,118.178 34.766,117.392 34.085,116.928 C31.447,113.698 28.884,110.708 26.203,107.523 C25.109,106.011 23.998,104.632 22.966,103.006 C22.275,102.233 22.107,101.242 21.329,100.516 C20.898,99.601 19.974,98.503 20.735,97.458 C20.05,96.884 18.769,97.615 18.844,96.615 C18.825,96.04 19.052,95.589 18.793,95.133 C19.03,93.786 18.909,92.343 18.838,90.699 C9.842,96.296 3.853,106.273 3.853,117.648 C3.853,135.164 18.053,149.364 35.569,149.364 C37.742,149.364 39.864,149.146 41.914,148.729 L41.914,148.729 Z M20.263,89.863 C20.173,90.674 20.214,91.418 20.242,92.247 C19.999,92.876 20.16,93.69 20.09,94.224 C20.416,94.678 19.605,95.548 20.371,95.92 L23.601,95.807 C24.632,97.41 23.012,96.691 22.499,97.219 C22.052,97.124 22.026,97.656 21.723,97.844 C21.658,98.533 22.074,99.028 22.25,99.62 C23.676,101.763 25.234,103.88 26.68,105.956 C29.226,109.079 31.731,112.314 34.492,115.253 C35.522,116.856 36.927,117.76 38.152,119.223 C38.025,120.003 39.051,119.59 39.076,120.298 C39.013,121.032 39.885,120.625 40.081,121.171 C39.93,121.908 40.903,121.874 41.119,122.354 C40.884,123.226 42.234,123.179 42.199,124.088 C43.166,124.519 44.101,125.284 44.859,126.055 C46.141,127.871 47.04,130.144 47.051,132.359 C47.04,132.691 46.945,133.138 47.154,133.418 C47.161,134.88 46.892,136.684 47.091,137.94 C47.171,138.335 46.761,138.66 47.083,139.003 C48.068,139.301 48.845,138.698 49.75,139.242 C49.669,140.087 49.761,140.837 49.723,141.635 C48.649,141.961 47.89,141.81 47.011,141.996 C47.001,143.545 46.913,145.512 47.037,147.227 C58.885,142.63 67.285,131.12 67.285,117.648 C67.285,100.132 53.085,85.932 35.569,85.932 C30.019,85.932 24.801,87.358 20.263,89.863 L20.263,89.863 Z M35.569,84.88 C53.667,84.88 68.338,99.55 68.338,117.648 C68.338,135.746 53.667,150.417 35.569,150.417 C17.471,150.417 2.801,135.746 2.801,117.648 C2.801,99.55 17.471,84.88 35.569,84.88 L35.569,84.88 Z" id="Fill-49" sketch:type="MSShapeGroup"></path>
        </g>
    </g>
</svg>