<?xml version="1.0" encoding="UTF-8" standalone="no"?>
<svg width="440px" height="260px" viewBox="0 0 440 260" version="1.1" xmlns="http://www.w3.org/2000/svg" xmlns:xlink="http://www.w3.org/1999/xlink" xmlns:sketch="http://www.bohemiancoding.com/sketch/ns">
    <title>Bit Basement</title>
    <defs></defs>
    <g id="Page-1" stroke="none" stroke-width="1" fill="none" fill-rule="evenodd" sketch:type="MSPage">
        <g id="logo-bitbasement" sketch:type="MSArtboardGroup" fill="#000000">
            <path d="M20.6137262,234.706149 L30.9852513,234.706149 C33.4117158,234.706149 35.272721,234.319935 36.5611092,233.561812 C37.8494974,232.796537 38.4865338,231.34466 38.4865338,229.220485 C38.4865338,225.744563 35.7093414,224.006602 30.1406412,224.006602 L20.6137262,224.006602 L20.6137262,234.706149 L20.6137262,234.706149 Z M20.6137262,217.905858 L29.0240381,217.905858 C33.7982322,217.905858 36.1960659,216.28233 36.1960659,213.035275 C36.1960659,211.168576 35.6162912,209.823981 34.4567418,209.001489 C33.2971924,208.178997 31.5006066,207.771327 29.0741421,207.771327 L20.6137262,207.771327 L20.6137262,217.905858 L20.6137262,217.905858 Z M31.1498787,240.814045 L14,240.814045 L14,201.66343 L29.2459272,201.66343 C31.9014385,201.66343 34.1847487,201.978123 36.1101733,202.61466 C38.0355979,203.251197 39.4599827,204.10945 40.397643,205.19657 C42.1870711,207.213463 43.0889428,209.487832 43.0889428,212.026828 C43.0889428,215.087929 42.1154939,217.362298 40.1757539,218.857087 C39.4599827,219.379191 38.9732582,219.708188 38.7155806,219.836926 C38.4507452,219.972816 37.9854939,220.187379 37.3198267,220.487767 C39.7462912,221.002718 41.6788735,222.09699 43.1175737,223.756278 C44.5491161,225.422718 45.2792028,227.482524 45.2792028,229.942848 C45.2792028,232.667799 44.3415425,235.08521 42.4733795,237.173625 C40.2688042,239.598188 36.4966898,240.814045 31.1498787,240.814045 L31.1498787,240.814045 Z M52.5943847,201.66343 L59.2081109,201.66343 L59.2081109,240.814045 L52.5943847,240.814045 L52.5943847,201.66343 Z M83.0862392,207.71411 L83.0862392,240.814045 L76.472513,240.814045 L76.472513,207.71411 L64.5907106,207.71411 L64.5907106,201.66343 L94.9608839,201.66343 L94.9608839,207.71411 L83.0862392,207.71411 M122.990485,234.706149 L133.354853,234.706149 C135.781317,234.706149 137.642322,234.319935 138.930711,233.561812 C140.219099,232.796537 140.863293,231.34466 140.863293,229.220485 C140.863293,225.744563 138.078943,224.006602 132.5174,224.006602 L122.990485,224.006602 L122.990485,234.706149 L122.990485,234.706149 Z M122.990485,217.905858 L131.39364,217.905858 C136.174991,217.905858 138.565667,216.28233 138.565667,213.035275 C138.565667,211.168576 137.978735,209.823981 136.833501,209.001489 C135.673951,208.178997 133.877366,207.771327 131.443744,207.771327 L122.990485,207.771327 L122.990485,217.905858 L122.990485,217.905858 Z M133.51948,240.814045 L116.369601,240.814045 L116.369601,201.66343 L131.615529,201.66343 C134.27104,201.66343 136.55435,201.978123 138.486932,202.61466 C140.405199,203.251197 141.836742,204.10945 142.767244,205.19657 C144.56383,207.213463 145.458544,209.487832 145.458544,212.026828 C145.458544,215.087929 144.485095,217.362298 142.545355,218.857087 C141.836742,219.379191 141.350017,219.708188 141.09234,219.836926 C140.827504,219.972816 140.362253,220.187379 139.689428,220.487767 C142.115893,221.002718 144.048475,222.09699 145.487175,223.756278 C146.925875,225.422718 147.641646,227.482524 147.641646,229.942848 C147.641646,232.667799 146.711144,235.08521 144.842981,237.173625 C142.638406,239.598188 138.866291,240.814045 133.51948,240.814045 L133.51948,240.814045 Z M177.181525,225.80178 L170.059601,209.673786 L162.944835,225.80178 L177.181525,225.80178 L177.181525,225.80178 Z M160.253536,231.902524 L156.331109,240.814045 L149.266447,240.814045 L166.530849,201.66343 L173.588354,201.66343 L190.859913,240.814045 L183.795251,240.814045 L179.872825,231.902524 L160.253536,231.902524 L160.253536,231.902524 Z M207.787903,206.820097 C205.862478,206.820097 204.287782,207.213463 203.056655,207.993042 C201.818371,208.779773 201.202808,209.967023 201.202808,211.547638 C201.202808,213.135405 201.818371,214.351262 203.056655,215.188058 C204.287782,216.032006 206.907504,216.933172 210.922981,217.905858 C214.945615,218.878544 217.973328,220.237443 220.006118,221.996861 C222.038908,223.749126 223.062461,226.338188 223.062461,229.749741 C223.062461,233.161294 221.774073,235.936311 219.197296,238.067638 C216.62052,240.198964 213.234922,241.257476 209.04766,241.257476 C202.920659,241.257476 197.487955,239.154757 192.735234,234.935016 L196.886707,229.95 C200.844922,233.38301 204.960607,235.099515 209.219445,235.099515 C211.345286,235.099515 213.041664,234.64178 214.294263,233.726311 C215.539705,232.810841 216.169584,231.594984 216.169584,230.08589 C216.169584,228.576796 215.582652,227.403851 214.401629,226.559903 C213.220607,225.723107 211.194974,224.95068 208.317574,224.264078 C205.447331,223.570324 203.257071,222.933786 201.761109,222.361618 C200.265147,221.775146 198.940971,221.024175 197.788579,220.087249 C195.46948,218.334984 194.309931,215.645793 194.309931,212.019676 C194.309931,208.407864 195.62695,205.611392 198.260988,203.658867 C200.895026,201.692039 204.151785,200.712201 208.038423,200.712201 C210.543622,200.712201 213.034506,201.127023 215.496759,201.942362 C217.96617,202.764854 220.09201,203.923495 221.881438,205.418285 L218.352686,210.396149 C217.193137,209.359094 215.625598,208.493689 213.642912,207.828544 C211.660225,207.149094 209.713328,206.820097 207.787903,206.820097 M257.734419,201.66343 L257.734419,207.878608 L236.833899,207.878608 L236.833899,218.242006 L255.601421,218.242006 L255.601421,224.121036 L236.833899,224.121036 L236.833899,234.598867 L258.407244,234.598867 L258.407244,240.814045 L230.213016,240.814045 L230.213016,201.66343 L257.734419,201.66343 M272.536568,240.814045 L265.915685,240.814045 L265.915685,201.66343 L276.229948,201.66343 L288.054489,226.24521 L299.879029,201.66343 L310.136031,201.66343 L310.136031,240.814045 L303.529463,240.814045 L303.529463,210.23165 L289.851075,237.39534 L286.150537,237.39534 L272.536568,210.23165 L272.536568,240.814045 M347.298873,201.66343 L347.298873,207.878608 L326.391196,207.878608 L326.391196,218.242006 L345.165875,218.242006 L345.165875,224.121036 L326.391196,224.121036 L326.391196,234.598867 L347.971698,234.598867 L347.971698,240.814045 L319.77747,240.814045 L319.77747,201.66343 L347.298873,201.66343 M384.848232,201.66343 L391.461958,201.66343 L391.461958,240.814045 L384.282773,240.814045 L362.093865,212.248544 L362.093865,240.814045 L355.480139,240.814045 L355.480139,201.66343 L362.093865,201.66343 L384.848232,230.90123 L384.848232,201.66343 M415.340087,207.71411 L415.340087,240.814045 L408.72636,240.814045 L408.72636,207.71411 L396.844558,207.71411 L396.844558,201.66343 L427.221889,201.66343 L427.221889,207.71411 L415.340087,207.71411 M153.625494,114.379159 C142.194627,102.950097 142.194627,84.4261489 153.625494,72.9970874 L198.053414,28.6039806 C209.491438,17.1820712 228.029913,17.1820712 239.467938,28.6039806 L283.895858,72.9970874 C295.333882,84.4261489 295.326724,102.950097 283.895858,114.379159 L239.467938,158.772265 C228.029913,170.194175 209.491438,170.194175 198.053414,158.772265 L153.625494,114.379159 L153.625494,114.379159 Z M180.882062,113.156149 C180.98227,116.195793 182.191924,119.206828 184.51818,121.52411 L210.035425,147.014207 C214.888354,151.877638 222.768995,151.877638 227.629081,147.014207 L253.139168,121.52411 C257.999255,116.667832 257.999255,108.793366 253.139168,103.944239 L243.175633,93.9813592 L253.139168,84.018479 C257.999255,79.1622006 257.999255,71.2877346 253.139168,66.4386084 L227.629081,40.9413592 C222.768995,36.092233 214.888354,36.092233 210.035425,40.9413592 L184.51818,66.4386084 C182.191924,68.75589 180.98227,71.7669256 180.882062,74.8065696 L180.874905,74.8065696 L180.874905,75.2285437 C180.874905,75.0926537 180.874905,74.9496117 180.882062,74.8065696 L180.882062,113.156149 Z M238.86669,98.2869256 L248.823068,108.249806 C251.306794,110.731586 251.306794,114.736764 248.823068,117.218544 L223.320139,142.708641 C220.836412,145.183269 216.813778,145.183269 214.344367,142.708641 L188.819965,117.218544 C186.350555,114.736764 186.350555,110.731586 188.819965,108.249806 L198.797816,98.2869256 L210.028267,109.515728 C214.888354,114.364854 222.768995,114.364854 227.629081,109.515728 L238.86669,98.2869256 Z M238.86669,89.6757929 L248.823068,79.7129126 C251.306794,77.2311327 251.306794,73.2188026 248.823068,70.7370227 L223.320139,45.2469256 C220.836412,42.7722977 216.813778,42.7722977 214.344367,45.2469256 L188.819965,70.7370227 C186.350555,73.2188026 186.350555,77.2311327 188.819965,79.7129126 L198.797816,89.6757929 L210.028267,78.4469903 C214.888354,73.590712 222.768995,73.590712 227.629081,78.4469903 L238.86669,89.6757929 Z M234.550589,93.9813592 L223.320139,105.20301 C220.836412,107.68479 216.820936,107.68479 214.344367,105.20301 L203.113917,93.9813592 L214.344367,82.7597087 C216.820936,80.2779288 220.836412,80.2779288 223.320139,82.7597087 L234.550589,93.9813592 Z M186.973276,101.491068 L194.481716,93.9813592 L186.973276,86.4716505 L186.973276,101.491068 Z" id="Bit-Basement" sketch:type="MSShapeGroup"></path>
        </g>
    </g>
</svg>