<?xml version="1.0" encoding="UTF-8" standalone="no"?>
<svg width="532px" height="149px" viewBox="0 0 532 149" version="1.1" xmlns="http://www.w3.org/2000/svg" xmlns:xlink="http://www.w3.org/1999/xlink" xmlns:sketch="http://www.bohemiancoding.com/sketch/ns">
    <title>A.Mag</title>
    <defs></defs>
    <g id="Page-1" stroke="none" stroke-width="1" fill="none" fill-rule="evenodd" sketch:type="MSPage">
        <g id="Group" sketch:type="MSLayerGroup" fill="#000000">
            <path d="M155.266891,114.246006 L155.266891,3.567106 L177.488691,3.567106 L212.944891,95.569006 L248.414991,3.567106 L270.636691,3.567106 L270.636691,114.246006 L256.462991,114.246006 L256.462991,21.978806 L220.570091,114.246006 L205.333491,114.246006 L169.440591,21.978806 L169.440591,114.246006 L155.266891,114.246006 L155.266891,114.246006 Z" id="Fill-1" sketch:type="MSShapeGroup"></path>
            <path d="M115.832491,3.567106 L115.832491,114.246006 L101.658691,114.246006 L101.658691,95.213406 C95.698791,102.473806 89.010391,107.912706 81.593591,111.530006 C74.176691,115.147106 66.064991,116.955706 57.258491,116.955706 C41.612791,116.955706 28.252791,111.289606 17.178391,99.956906 C6.104191,88.624406 0.566991,74.840006 0.566991,58.603706 C0.566991,42.704106 6.155291,29.104706 17.331491,17.805806 C28.507791,6.506906 41.952591,0.857406 57.665691,0.857306 C66.741391,0.857306 74.953891,2.767506 82.303491,6.587706 C89.653091,10.408006 96.104791,16.186106 101.658691,23.922106 L101.658691,3.567106 L115.832491,3.567106 L115.832491,3.567106 Z M58.772991,14.614206 C50.858891,14.614206 43.554391,16.555206 36.859391,20.437206 C30.164491,24.319406 24.838991,29.770706 20.883191,36.791306 C16.927091,43.811806 14.949191,51.236806 14.949191,59.066106 C14.949191,66.830506 16.943991,74.256506 20.933491,81.344306 C24.923191,88.432206 30.282791,93.950806 37.012491,97.900306 C43.742091,101.849706 50.960891,103.824406 58.668791,103.824406 C66.446091,103.824406 73.817891,101.866506 80.784291,97.950706 C87.750591,94.035006 93.110191,88.735706 96.863091,82.052706 C100.616091,75.369706 102.492591,67.843306 102.492591,59.473206 C102.492591,46.713206 98.282491,36.046506 89.862591,27.473606 C81.442691,18.900606 71.079391,14.614206 58.772991,14.614206 L58.772991,14.614206 Z" id="Fill-2" sketch:type="MSShapeGroup"></path>
            <path d="M135.307391,102.990806 C137.217691,102.990806 138.847291,103.665206 140.195991,105.013906 C141.544791,106.362506 142.219191,108.011306 142.219191,109.960006 C142.219191,111.871606 141.544791,113.511006 140.195991,114.878406 C138.847291,116.245506 137.217691,116.929206 135.307391,116.929206 C133.397191,116.929206 131.767591,116.245506 130.418991,114.878406 C129.070191,113.511006 128.395791,111.871606 128.395791,109.960006 C128.395791,108.011306 129.070191,106.362506 130.418991,105.013906 C131.767591,103.665206 133.397191,102.990806 135.307391,102.990806 L135.307391,102.990806 Z" id="Fill-3" sketch:type="MSShapeGroup"></path>
            <path d="M399.630691,3.567106 L399.630691,114.246006 L385.456991,114.246006 L385.456991,95.213406 C379.496991,102.473806 372.808591,107.912706 365.391791,111.530006 C357.974891,115.147106 349.863191,116.955706 341.056791,116.955706 C325.410991,116.955706 312.050991,111.289606 300.976691,99.956906 C289.902491,88.624406 284.365191,74.840006 284.365191,58.603706 C284.365191,42.704106 289.953491,29.104706 301.129691,17.805806 C312.306091,6.506906 325.750891,0.857406 341.463891,0.857306 C350.539591,0.857306 358.752091,2.767506 366.101791,6.587706 C373.451291,10.408006 379.903091,16.186106 385.456991,23.922106 L385.456991,3.567106 L399.630691,3.567106 L399.630691,3.567106 Z M342.571291,14.614206 C334.657091,14.614206 327.352591,16.555206 320.657691,20.437206 C313.962691,24.319406 308.637291,29.770706 304.681391,36.791306 C300.725391,43.811806 298.747391,51.236806 298.747391,59.066106 C298.747391,66.830506 300.742291,74.256506 304.731691,81.344306 C308.721391,88.432206 314.081091,93.950806 320.810691,97.900306 C327.540391,101.849706 334.759191,103.824406 342.466991,103.824406 C350.244291,103.824406 357.616191,101.866506 364.582491,97.950706 C371.548791,94.035006 376.908491,88.735706 380.661391,82.052706 C384.414291,75.369706 386.290791,67.843306 386.290791,59.473206 C386.290791,46.713206 382.080791,36.046506 373.660791,27.473606 C365.240891,18.900606 354.877691,14.614206 342.571291,14.614206 L342.571291,14.614206 Z" id="Fill-4" sketch:type="MSShapeGroup"></path>
            <path d="M526.559291,23.486306 L517.574191,33.410906 C511.365991,27.329706 502.939191,20.944706 495.544691,17.804106 C488.150191,14.663906 481.587391,13.233606 474.571091,13.233606 C465.840591,13.233606 458.267091,15.181606 450.368091,19.459206 C442.468891,23.737006 436.532791,29.639506 432.191791,36.961106 C427.850691,44.282706 426.235591,50.710006 426.235591,58.862906 C426.235591,67.215406 428.277991,74.445406 432.763191,81.969006 C437.248391,89.492706 442.894191,94.878306 450.806191,99.181006 C458.718291,103.483706 466.612391,105.443106 476.034991,105.443106 C487.474591,105.443106 496.287391,102.518906 504.199191,96.098006 C512.111291,89.676906 514.771691,85.841706 516.233291,75.607206 L483.846191,75.607206 L483.846191,61.433606 L531.747891,61.433606 C531.646691,78.571806 526.544491,92.179606 516.441791,102.256906 C506.339191,112.334206 492.822291,117.372906 475.890691,117.372906 C455.331191,117.372906 439.055091,110.384606 427.061991,96.407906 C417.840491,85.648706 413.229691,73.205206 413.229691,59.077106 C413.229691,48.570806 415.877091,38.792406 421.171791,29.742106 C426.466491,20.691806 433.728391,13.615106 442.956891,8.512606 C452.185691,3.409906 462.624291,0.858506 474.273191,0.858506 C483.703991,0.858506 492.579691,2.551106 500.900191,5.936106 C509.221191,9.321506 518.641491,16.012706 526.559291,23.486306 L526.559291,23.486306 Z" id="Fill-5" sketch:type="MSShapeGroup"></path>
            <path d="M16.132591,126.155506 C16.484691,126.155506 16.785491,126.282506 17.034891,126.536506 C17.284291,126.790506 17.408991,127.096806 17.408991,127.455506 C17.408991,127.806506 17.284291,128.109106 17.034891,128.363106 C16.785491,128.617106 16.484691,128.744106 16.132591,128.744106 C15.787891,128.744106 15.490891,128.617106 15.241391,128.363106 C14.992091,128.109106 14.867391,127.806506 14.867391,127.455506 C14.867391,127.096806 14.992091,126.790506 15.241391,126.536506 C15.490891,126.282506 15.787891,126.155506 16.132591,126.155506 L16.132591,126.155506 Z M15.366591,131.149606 L16.909691,131.149606 L16.909691,143.314106 L15.366591,143.314106 L15.366591,131.149606 L15.366591,131.149606 Z" id="Fill-6" sketch:type="MSShapeGroup"></path>
            <path d="M16.132591,126.155506 C16.484691,126.155506 16.785491,126.282506 17.034891,126.536506 C17.284291,126.790506 17.408991,127.096806 17.408991,127.455506 C17.408991,127.806506 17.284291,128.109106 17.034891,128.363106 C16.785491,128.617106 16.484691,128.744106 16.132591,128.744106 C15.787891,128.744106 15.490891,128.617106 15.241391,128.363106 C14.992091,128.109106 14.867391,127.806506 14.867391,127.455506 C14.867391,127.096806 14.992091,126.790506 15.241391,126.536506 C15.490891,126.282506 15.787891,126.155506 16.132591,126.155506 L16.132591,126.155506 Z" id="Fill-7" sketch:type="MSShapeGroup"></path>
            <path d="M15.366591,131.149606 L16.909691,131.149606 L16.909691,143.314106 L15.366591,143.314106 L15.366591,131.149606 L15.366591,131.149606 Z" id="Fill-8" sketch:type="MSShapeGroup"></path>
            <path d="M20.131991,131.149606 L21.675091,131.149606 L21.675091,133.330906 C22.297291,132.495706 22.985991,131.873606 23.741191,131.464906 C24.496391,131.056106 25.318391,130.851806 26.207191,130.851806 C27.110691,130.851806 27.912391,131.082506 28.612191,131.544006 C29.311891,132.005506 29.828391,132.627206 30.161591,133.408906 C30.494791,134.190706 30.661391,135.407906 30.661391,137.060706 L30.661391,143.314106 L29.118191,143.314106 L29.118191,137.519906 C29.118191,136.120606 29.058391,135.186506 28.938891,134.717606 C28.752091,133.913906 28.403391,133.309106 27.892691,132.903506 C27.381991,132.497806 26.715891,132.295006 25.894191,132.295006 C24.954091,132.295006 24.112091,132.607606 23.368191,133.232806 C22.624291,133.858006 22.133891,134.632006 21.897091,135.554806 C21.749091,136.157806 21.675091,137.259406 21.675091,138.859406 L21.675091,143.314106 L20.131991,143.314106 L20.131991,131.149606 L20.131991,131.149606 Z" id="Fill-9" sketch:type="MSShapeGroup"></path>
            <path d="M35.297391,126.613606 L36.840591,126.613606 L36.840591,131.149606 L39.291291,131.149606 L39.291291,132.501206 L36.840591,132.501206 L36.840591,143.314106 L35.297391,143.314106 L35.297391,132.501206 L33.187091,132.501206 L33.187091,131.149606 L35.297391,131.149606 L35.297391,126.613606 L35.297391,126.613606 Z" id="Fill-10" sketch:type="MSShapeGroup"></path>
            <path d="M51.838091,139.282106 L53.145691,139.975506 C52.715991,140.820706 52.219491,141.502906 51.656191,142.021706 C51.092891,142.540606 50.459191,142.935306 49.755091,143.206006 C49.050991,143.476606 48.254391,143.611806 47.365191,143.611806 C45.393991,143.611806 43.852491,142.963106 42.740791,141.665606 C41.629091,140.367906 41.073291,138.901206 41.073291,137.265106 C41.073291,135.725906 41.544091,134.354006 42.485791,133.149406 C43.679791,131.617606 45.277991,130.851806 47.280391,130.851806 C49.341791,130.851806 50.988091,131.636606 52.219191,133.206306 C53.094191,134.315006 53.539291,135.698906 53.554191,137.357806 L42.661691,137.357806 C42.691491,138.765006 43.140691,139.918706 44.009291,140.818706 C44.877891,141.718606 45.950591,142.168606 47.227591,142.168606 C47.843791,142.168606 48.443291,142.061706 49.026091,141.847906 C49.608891,141.634106 50.104491,141.350306 50.512791,140.996406 C50.921191,140.642506 51.362891,140.071006 51.838091,139.282106 Z M51.852191,136.006206 C51.643991,135.171706 51.340891,134.504906 50.943091,134.005806 C50.545291,133.506706 50.019191,133.104406 49.364791,132.799006 C48.710291,132.493506 48.022491,132.340806 47.301291,132.340806 C46.111391,132.340806 45.088791,132.724506 44.233591,133.491906 C43.608991,134.050606 43.136891,134.888706 42.816991,136.006206 L51.852191,136.006206 Z" id="Fill-12" sketch:type="MSShapeGroup"></path>
            <path d="M55.796991,131.149606 L57.385491,131.149606 L57.385491,132.928206 C57.858991,132.227206 58.358291,131.705706 58.883291,131.364106 C59.408491,131.022506 59.955791,130.851806 60.525591,130.851806 C60.954591,130.851806 61.413191,130.989706 61.901291,131.265506 L61.092491,132.576306 C60.767091,132.434606 60.493291,132.363706 60.271291,132.363706 C59.753191,132.363706 59.253691,132.577906 58.772791,133.006206 C58.291791,133.434606 57.925591,134.099406 57.674091,135.000706 C57.481691,135.693506 57.385491,137.093906 57.385491,139.202006 L57.385491,143.314106 L55.796991,143.314106 L55.796991,131.149606 L55.796991,131.149606 Z" id="Fill-14" sketch:type="MSShapeGroup"></path>
            <path d="M63.194491,131.149606 L64.737691,131.149606 L64.737691,133.330906 C65.359691,132.495706 66.048391,131.873606 66.803691,131.464906 C67.558891,131.056106 68.380891,130.851806 69.269791,130.851806 C70.173191,130.851806 70.974791,131.082506 71.674591,131.544006 C72.374391,132.005506 72.890991,132.627206 73.224091,133.408906 C73.557291,134.190706 73.723891,135.407906 73.723891,137.060706 L73.723891,143.314106 L72.180791,143.314106 L72.180791,137.519906 C72.180791,136.120606 72.120991,135.186506 72.001291,134.717606 C71.814691,133.913906 71.465891,133.309106 70.955191,132.903506 C70.444491,132.497806 69.778291,132.295006 68.956691,132.295006 C68.016591,132.295006 67.174491,132.607606 66.430691,133.232806 C65.686791,133.858006 65.196391,134.632006 64.959491,135.554806 C64.811591,136.157806 64.737691,137.259406 64.737691,138.859406 L64.737691,143.314106 L63.194491,143.314106 L63.194491,131.149606 L63.194491,131.149606 Z" id="Fill-15" sketch:type="MSShapeGroup"></path>
            <path d="M89.025491,131.149606 L89.025491,143.314106 L87.482391,143.314106 L87.482391,141.222206 C86.833491,142.020206 86.105291,142.617906 85.297791,143.015606 C84.490391,143.413106 83.607291,143.611806 82.648491,143.611806 C80.945091,143.611806 79.490591,142.989106 78.284891,141.743606 C77.079291,140.498006 76.476391,138.983006 76.476391,137.198506 C76.476391,135.451006 77.084891,133.956406 78.301591,132.714406 C79.518391,131.472706 80.982091,130.851806 82.692791,130.851806 C83.680891,130.851806 84.574991,131.061606 85.375091,131.481506 C86.175291,131.901406 86.877691,132.536506 87.482391,133.386706 L87.482391,131.149606 L89.025491,131.149606 L89.025491,131.149606 Z M82.813391,132.363706 C81.951691,132.363706 81.156491,132.577106 80.427591,133.003806 C79.698691,133.430406 79.118991,134.029606 78.688291,134.801206 C78.257591,135.572706 78.042291,136.388906 78.042291,137.249306 C78.042291,138.102706 78.259391,138.918906 78.693791,139.697906 C79.128191,140.476906 79.711591,141.083406 80.444291,141.517506 C81.176891,141.951606 81.962891,142.168606 82.801991,142.168606 C83.648691,142.168606 84.451291,141.953406 85.209691,141.523106 C85.968191,141.092706 86.551691,140.510206 86.960291,139.775706 C87.368791,139.041206 87.573191,138.214006 87.573191,137.294106 C87.573191,135.891606 87.114791,134.719306 86.198091,133.777106 C85.281491,132.834806 84.153191,132.363706 82.813391,132.363706 L82.813391,132.363706 Z" id="Fill-16" sketch:type="MSShapeGroup"></path>
            <path d="M93.875191,126.613606 L95.418291,126.613606 L95.418291,131.149606 L97.869091,131.149606 L97.869091,132.501206 L95.418291,132.501206 L95.418291,143.314106 L93.875191,143.314106 L93.875191,132.501206 L91.764791,132.501206 L91.764791,131.149606 L93.875191,131.149606 L93.875191,126.613606 L93.875191,126.613606 Z" id="Fill-19" sketch:type="MSShapeGroup"></path>
            <path d="M100.779991,126.155506 C101.132191,126.155506 101.432991,126.282506 101.682391,126.536506 C101.931791,126.790506 102.056491,127.096806 102.056491,127.455506 C102.056491,127.806506 101.931791,128.109106 101.682391,128.363106 C101.432991,128.617106 101.132191,128.744106 100.779991,128.744106 C100.435391,128.744106 100.138291,128.617106 99.888991,128.363106 C99.639591,128.109106 99.514891,127.806506 99.514891,127.455506 C99.514891,127.096806 99.639591,126.790506 99.888991,126.536506 C100.138291,126.282506 100.435391,126.155506 100.779991,126.155506 L100.779991,126.155506 Z" id="Fill-20" sketch:type="MSShapeGroup"></path>
            <path d="M148.776391,126.453306 L150.319491,126.453306 L150.319491,143.314106 L148.776391,143.314106 L148.776391,126.453306 L148.776391,126.453306 Z" id="Fill-21" sketch:type="MSShapeGroup"></path>
            <path d="M100.014091,131.149606 L101.557191,131.149606 L101.557191,143.314106 L100.014091,143.314106 L100.014091,131.149606 L100.014091,131.149606 Z" id="Fill-22" sketch:type="MSShapeGroup"></path>
            <path d="M110.492391,130.851806 C112.352391,130.851806 113.893791,131.528406 115.116391,132.881606 C116.227991,134.116106 116.783891,135.577306 116.783891,137.265106 C116.783891,138.960606 116.196591,140.442206 115.021991,141.710106 C113.847391,142.978006 112.337591,143.611806 110.492391,143.611806 C108.639591,143.611806 107.125891,142.978006 105.951391,141.710106 C104.776791,140.442206 104.189491,138.960606 104.189491,137.265106 C104.189491,135.584606 104.745291,134.127206 105.857091,132.892706 C107.079591,131.532106 108.624691,130.851806 110.492391,130.851806 L110.492391,130.851806 Z M110.486691,132.386606 C109.198391,132.386606 108.091591,132.865606 107.166091,133.823606 C106.240691,134.781606 105.777991,135.940006 105.777991,137.299106 C105.777991,138.175606 105.988991,138.992706 106.410991,139.750206 C106.833091,140.507706 107.403191,141.092606 108.121291,141.504706 C108.839491,141.916806 109.627891,142.122906 110.486691,142.122906 C111.345491,142.122906 112.133891,141.916806 112.851991,141.504706 C113.570091,141.092606 114.140291,140.507706 114.562291,139.750206 C114.984291,138.992706 115.195391,138.175606 115.195391,137.299106 C115.195391,135.940006 114.730691,134.781606 113.801591,133.823606 C112.872291,132.865606 111.767391,132.386606 110.486691,132.386606 L110.486691,132.386606 Z" id="Fill-23" sketch:type="MSShapeGroup"></path>
            <path d="M119.661491,131.149606 L121.204491,131.149606 L121.204491,133.330906 C121.826691,132.495706 122.515391,131.873606 123.270591,131.464906 C124.025891,131.056106 124.847891,130.851806 125.736691,130.851806 C126.640191,130.851806 127.441791,131.082506 128.141591,131.544006 C128.841391,132.005506 129.357891,132.627206 129.691091,133.408906 C130.024291,134.190706 130.190791,135.407906 130.190791,137.060706 L130.190791,143.314106 L128.647791,143.314106 L128.647791,137.519906 C128.647791,136.120606 128.587991,135.186506 128.468391,134.717606 C128.281591,133.913906 127.932891,133.309106 127.422191,132.903506 C126.911491,132.497806 126.245191,132.295006 125.423591,132.295006 C124.483591,132.295006 123.641491,132.607606 122.897591,133.232806 C122.153791,133.858006 121.663391,134.632006 121.426491,135.554806 C121.278591,136.157806 121.204491,137.259406 121.204491,138.859406 L121.204491,143.314106 L119.661491,143.314106 L119.661491,131.149606 L119.661491,131.149606 Z" id="Fill-26" sketch:type="MSShapeGroup"></path>
            <path d="M145.492391,131.149606 L145.492391,143.314106 L143.949291,143.314106 L143.949291,141.222206 C143.300491,142.020206 142.572291,142.617906 141.764891,143.015606 C140.957291,143.413106 140.074191,143.611806 139.115491,143.611806 C137.412091,143.611806 135.957591,142.989106 134.751791,141.743606 C133.546291,140.498006 132.943491,138.983006 132.943491,137.198506 C132.943491,135.451006 133.551891,133.956406 134.768591,132.714406 C135.985391,131.472706 137.449091,130.851806 139.159691,130.851806 C140.147891,130.851806 141.041991,131.061606 141.842091,131.481506 C142.642191,131.901406 143.344691,132.536506 143.949291,133.386706 L143.949291,131.149606 L145.492391,131.149606 L145.492391,131.149606 Z M139.280291,132.363706 C138.418791,132.363706 137.623491,132.577106 136.894591,133.003806 C136.165691,133.430406 135.585891,134.029606 135.155291,134.801206 C134.724491,135.572706 134.509191,136.388906 134.509191,137.249306 C134.509191,138.102706 134.726391,138.918906 135.160791,139.697906 C135.595091,140.476906 136.178591,141.083406 136.911191,141.517506 C137.643891,141.951606 138.429791,142.168606 139.268991,142.168606 C140.115691,142.168606 140.918391,141.953406 141.676691,141.523106 C142.435191,141.092706 143.018691,140.510206 143.427191,139.775706 C143.835791,139.041206 144.040091,138.214006 144.040091,137.294106 C144.040091,135.891606 143.581691,134.719306 142.665091,133.777106 C141.748391,132.834806 140.620191,132.363706 139.280291,132.363706 L139.280291,132.363706 Z" id="Fill-27" sketch:type="MSShapeGroup"></path>
            <path d="M196.815191,126.453306 L198.358191,126.453306 L198.358191,133.346306 C198.987791,132.511006 199.680091,131.886506 200.435491,131.472606 C201.190891,131.058706 202.009191,130.851806 202.890391,130.851806 C203.793891,130.851806 204.595491,131.082506 205.295191,131.544006 C205.994991,132.005506 206.511591,132.625306 206.844791,133.403406 C207.177891,134.181406 207.344491,135.400606 207.344491,137.060706 L207.344491,143.314106 L205.801391,143.314106 L205.801391,137.519906 C205.801391,136.120606 205.745791,135.186506 205.634391,134.717606 C205.441491,133.913906 205.091091,133.309106 204.583091,132.903506 C204.075091,132.497806 203.409491,132.295006 202.586191,132.295006 C201.644191,132.295006 200.800391,132.607606 200.055091,133.232806 C199.309591,133.858006 198.818191,134.632006 198.580891,135.554806 C198.432491,136.150206 198.358191,137.251706 198.358191,138.859406 L198.358191,143.314106 L196.815191,143.314106 L196.815191,126.453306 L196.815191,126.453306 Z" id="Fill-30" sketch:type="MSShapeGroup"></path>
            <path d="M171.825991,131.149606 L171.825991,143.314106 L170.282891,143.314106 L170.282891,141.222206 C169.634091,142.020206 168.905791,142.617906 168.098391,143.015606 C167.290891,143.413106 166.407791,143.611806 165.448991,143.611806 C163.745691,143.611806 162.291191,142.989106 161.085491,141.743606 C159.879791,140.498006 159.276991,138.983006 159.276991,137.198506 C159.276991,135.451006 159.885391,133.956406 161.102091,132.714406 C162.318891,131.472706 163.782691,130.851806 165.493391,130.851806 C166.481391,130.851806 167.375491,131.061606 168.175691,131.481506 C168.975791,131.901406 169.678191,132.536506 170.282891,133.386706 L170.282891,131.149606 L171.825991,131.149606 L171.825991,131.149606 Z M165.613891,132.363706 C164.752291,132.363706 163.956991,132.577106 163.228091,133.003806 C162.499291,133.430406 161.919491,134.029606 161.488791,134.801206 C161.058091,135.572706 160.842791,136.388906 160.842791,137.249306 C160.842791,138.102706 161.059991,138.918906 161.494291,139.697906 C161.928691,140.476906 162.512191,141.083406 163.244791,141.517506 C163.977491,141.951606 164.763391,142.168606 165.602491,142.168606 C166.449291,142.168606 167.251791,141.953406 168.010291,141.523106 C168.768691,141.092706 169.352191,140.510206 169.760691,139.775706 C170.169291,139.041206 170.373691,138.214006 170.373691,137.294106 C170.373691,135.891606 169.915291,134.719306 168.998591,133.777106 C168.081891,132.834806 166.953591,132.363706 165.613891,132.363706 L165.613891,132.363706 Z" id="Fill-31" sketch:type="MSShapeGroup"></path>
            <path d="M174.746891,131.149606 L176.335391,131.149606 L176.335391,132.928206 C176.808891,132.227206 177.308091,131.705706 177.833191,131.364106 C178.358391,131.022506 178.905791,130.851806 179.475391,130.851806 C179.904491,130.851806 180.363091,130.989706 180.851191,131.265506 L180.042491,132.576306 C179.716891,132.434606 179.443191,132.363706 179.221191,132.363706 C178.703091,132.363706 178.203591,132.577906 177.722591,133.006206 C177.241691,133.434606 176.875491,134.099406 176.623991,135.000706 C176.431491,135.693506 176.335391,137.093906 176.335391,139.202006 L176.335391,143.314106 L174.746891,143.314106 L174.746891,131.149606 L174.746891,131.149606 Z" id="Fill-34" sketch:type="MSShapeGroup"></path>
            <path d="M193.853791,133.676306 L192.623791,134.448406 C191.556691,133.028106 190.100691,132.317906 188.255491,132.317906 C186.780891,132.317906 185.556391,132.793406 184.581891,133.744306 C183.607391,134.695206 183.120191,135.850506 183.120191,137.210006 C183.120191,138.093806 183.344291,138.925906 183.792691,139.706006 C184.240891,140.486106 184.855991,141.091506 185.637891,141.522406 C186.419591,141.953206 187.295791,142.168606 188.266491,142.168606 C190.044991,142.168606 191.497391,141.458506 192.623791,140.038106 L193.853791,140.854606 C193.276091,141.728906 192.500191,142.407106 191.526091,142.889006 C190.552191,143.370906 189.442891,143.611806 188.198391,143.611806 C186.287391,143.611806 184.702391,143.002106 183.443191,141.782506 C182.183991,140.563006 181.554391,139.079506 181.554391,137.332006 C181.554391,136.157306 181.848791,135.066106 182.437691,134.058406 C183.026391,133.050806 183.835691,132.264506 184.865191,131.699406 C185.894691,131.134306 187.046591,130.851806 188.320691,130.851806 C189.120591,130.851806 189.892791,130.974006 190.637291,131.218606 C191.381691,131.463206 192.013291,131.782006 192.531791,132.175006 C193.050291,132.568106 193.490991,133.068506 193.853791,133.676306 L193.853791,133.676306 Z" id="Fill-35" sketch:type="MSShapeGroup"></path>
            <path d="M211.180691,126.155506 C211.532891,126.155506 211.833691,126.282506 212.083091,126.536506 C212.332491,126.790506 212.457091,127.096806 212.457091,127.455506 C212.457091,127.806506 212.332491,128.109106 212.083091,128.363106 C211.833691,128.617106 211.532891,128.744106 211.180691,128.744106 C210.835991,128.744106 210.539091,128.617106 210.289691,128.363106 C210.040291,128.109106 209.915591,127.806506 209.915591,127.455506 C209.915591,127.096806 210.040291,126.790506 210.289691,126.536506 C210.539091,126.282506 210.835991,126.155506 211.180691,126.155506 L211.180691,126.155506 Z" id="Fill-36" sketch:type="MSShapeGroup"></path>
            <path d="M216.519091,126.613606 L218.062091,126.613606 L218.062091,131.149606 L220.512991,131.149606 L220.512991,132.501206 L218.062091,132.501206 L218.062091,143.314106 L216.519091,143.314106 L216.519091,132.501206 L214.408691,132.501206 L214.408691,131.149606 L216.519091,131.149606 L216.519091,126.613606 L216.519091,126.613606 Z" id="Fill-37" sketch:type="MSShapeGroup"></path>
            <path d="M253.618191,126.613606 L255.161291,126.613606 L255.161291,131.149606 L257.612091,131.149606 L257.612091,132.501206 L255.161291,132.501206 L255.161291,143.314106 L253.618191,143.314106 L253.618191,132.501206 L251.507791,132.501206 L251.507791,131.149606 L253.618191,131.149606 L253.618191,126.613606 L253.618191,126.613606 Z" id="Fill-38" sketch:type="MSShapeGroup"></path>
            <path d="M210.414791,131.149606 L211.957891,131.149606 L211.957891,143.314106 L210.414791,143.314106 L210.414791,131.149606 L210.414791,131.149606 Z" id="Fill-39" sketch:type="MSShapeGroup"></path>
            <path d="M302.907491,126.613606 L304.450591,126.613606 L304.450591,131.149606 L306.901491,131.149606 L306.901491,132.501206 L304.450591,132.501206 L304.450591,143.314106 L302.907491,143.314106 L302.907491,132.501206 L300.797191,132.501206 L300.797191,131.149606 L302.907491,131.149606 L302.907491,126.613606 L302.907491,126.613606 Z" id="Fill-40" sketch:type="MSShapeGroup"></path>
            <path d="M233.059591,139.282106 L234.367291,139.975506 C233.937591,140.820706 233.441091,141.502906 232.877691,142.021706 C232.314491,142.540606 231.680791,142.935306 230.976691,143.206006 C230.272691,143.476606 229.475991,143.611806 228.586691,143.611806 C226.615491,143.611806 225.074091,142.963106 223.962391,141.665606 C222.850691,140.367906 222.294891,138.901206 222.294891,137.265106 C222.294891,135.725906 222.765691,134.354006 223.707491,133.149406 C224.901391,131.617606 226.499591,130.851806 228.501991,130.851806 C230.563491,130.851806 232.209791,131.636606 233.440791,133.206306 C234.315991,134.315006 234.760891,135.698906 234.775791,137.357806 L223.883391,137.357806 C223.913091,138.765006 224.362291,139.918706 225.230891,140.818706 C226.099391,141.718606 227.172191,142.168606 228.449091,142.168606 C229.065391,142.168606 229.664891,142.061706 230.247691,141.847906 C230.830491,141.634106 231.326091,141.350306 231.734391,140.996406 C232.142791,140.642506 232.584491,140.071006 233.059591,139.282106 L233.059591,139.282106 Z M233.073791,136.006206 C232.865591,135.171706 232.562491,134.504906 232.164691,134.005806 C231.766891,133.506706 231.240791,133.104406 230.586391,132.799006 C229.931991,132.493506 229.244091,132.340806 228.522891,132.340806 C227.332891,132.340806 226.310291,132.724506 225.455191,133.491906 C224.830591,134.050606 224.358491,134.888706 224.038591,136.006206 L233.073791,136.006206 L233.073791,136.006206 Z" id="Fill-41" sketch:type="MSShapeGroup"></path>
            <path d="M249.317991,133.676306 L248.087991,134.448406 C247.020891,133.028106 245.564791,132.317906 243.719591,132.317906 C242.245091,132.317906 241.020591,132.793406 240.046091,133.744306 C239.071591,134.695206 238.584391,135.850506 238.584391,137.210006 C238.584391,138.093806 238.808591,138.925906 239.256891,139.706006 C239.705091,140.486106 240.320191,141.091506 241.101991,141.522406 C241.883791,141.953206 242.760091,142.168606 243.730691,142.168606 C245.509191,142.168606 246.961591,141.458506 248.087991,140.038106 L249.317991,140.854606 C248.740291,141.728906 247.964391,142.407106 246.990391,142.889006 C246.016491,143.370906 244.907091,143.611806 243.662591,143.611806 C241.751691,143.611806 240.166591,143.002106 238.907391,141.782506 C237.648191,140.563006 237.018591,139.079506 237.018591,137.332006 C237.018591,136.157306 237.312991,135.066106 237.901891,134.058406 C238.490691,133.050806 239.299891,132.264506 240.329391,131.699406 C241.358991,131.134306 242.510791,130.851806 243.784891,130.851806 C244.584791,130.851806 245.356991,130.974006 246.101491,131.218606 C246.845991,131.463206 247.477491,131.782006 247.995891,132.175006 C248.514491,132.568106 248.955091,133.068506 249.317991,133.676306 L249.317991,133.676306 Z" id="Fill-44" sketch:type="MSShapeGroup"></path>
            <path d="M338.667891,126.453306 L340.210891,126.453306 L340.210891,133.346306 C340.840491,132.511006 341.532891,131.886506 342.288191,131.472606 C343.043591,131.058706 343.861891,130.851806 344.743091,130.851806 C345.646591,130.851806 346.448091,131.082506 347.147891,131.544006 C347.847791,132.005506 348.364291,132.625306 348.697491,133.403406 C349.030591,134.181406 349.197091,135.400606 349.197091,137.060706 L349.197091,143.314106 L347.654091,143.314106 L347.654091,137.519906 C347.654091,136.120606 347.598491,135.186506 347.487091,134.717606 C347.294191,133.913906 346.943791,133.309106 346.435791,132.903506 C345.927891,132.497806 345.262191,132.295006 344.438791,132.295006 C343.496891,132.295006 342.653191,132.607606 341.907791,133.232806 C341.162291,133.858006 340.670991,134.632006 340.433591,135.554806 C340.285191,136.150206 340.210891,137.251706 340.210891,138.859406 L340.210891,143.314106 L338.667891,143.314106 L338.667891,126.453306 L338.667891,126.453306 Z" id="Fill-45" sketch:type="MSShapeGroup"></path>
            <path d="M259.779791,131.149606 L261.322891,131.149606 L261.322891,136.825906 C261.322891,138.211406 261.396991,139.164806 261.545291,139.686306 C261.767091,140.431306 262.190991,141.019806 262.816891,141.451806 C263.442691,141.883906 264.188891,142.099906 265.055491,142.099906 C265.921791,142.099906 266.656791,141.889506 267.260391,141.468606 C267.863991,141.047806 268.280591,140.494706 268.510091,139.809406 C268.665591,139.340006 268.743391,138.345506 268.743391,136.825906 L268.743391,131.149606 L270.331791,131.149606 L270.331791,137.112606 C270.331791,138.787806 270.137891,140.049806 269.749991,140.898506 C269.362091,141.747106 268.778391,142.411606 267.998691,142.891706 C267.219191,143.371806 266.241891,143.611806 265.066891,143.611806 C263.891991,143.611806 262.911091,143.371806 262.123991,142.891706 C261.336991,142.411606 260.749491,141.741506 260.361691,140.881706 C259.973691,140.021706 259.779791,138.728206 259.779791,137.001006 L259.779791,131.149606 L259.779791,131.149606 Z" id="Fill-46" sketch:type="MSShapeGroup"></path>
            <path d="M273.167591,131.149606 L274.756091,131.149606 L274.756091,132.928206 C275.229591,132.227206 275.728891,131.705706 276.253991,131.364106 C276.779191,131.022506 277.326491,130.851806 277.896191,130.851806 C278.325191,130.851806 278.783891,130.989706 279.271891,131.265506 L278.463191,132.576306 C278.137691,132.434606 277.863891,132.363706 277.641891,132.363706 C277.123791,132.363706 276.624291,132.577906 276.143391,133.006206 C275.662491,133.434606 275.296191,134.099406 275.044691,135.000706 C274.852291,135.693506 274.756091,137.093906 274.756091,139.202006 L274.756091,143.314106 L273.167591,143.314106 L273.167591,131.149606 L273.167591,131.149606 Z" id="Fill-47" sketch:type="MSShapeGroup"></path>
            <path d="M290.739891,139.282106 L292.047591,139.975506 C291.617791,140.820706 291.121291,141.502906 290.557991,142.021706 C289.994791,142.540606 289.360991,142.935306 288.656991,143.206006 C287.952991,143.476606 287.156291,143.611806 286.266991,143.611806 C284.295791,143.611806 282.754391,142.963106 281.642691,141.665606 C280.530891,140.367906 279.975091,138.901206 279.975091,137.265106 C279.975091,135.725906 280.445991,134.354006 281.387791,133.149406 C282.581691,131.617606 284.179891,130.851806 286.182291,130.851806 C288.243691,130.851806 289.889991,131.636606 291.121091,133.206306 C291.996191,134.315006 292.441191,135.698906 292.455991,137.357806 L281.563591,137.357806 C281.593391,138.765006 282.042591,139.918706 282.911191,140.818706 C283.779691,141.718606 284.852491,142.168606 286.129391,142.168606 C286.745691,142.168606 287.345191,142.061706 287.927991,141.847906 C288.510791,141.634106 289.006391,141.350306 289.414691,140.996406 C289.823091,140.642506 290.264791,140.071006 290.739891,139.282106 L290.739891,139.282106 Z M290.754091,136.006206 C290.545891,135.171706 290.242791,134.504906 289.844991,134.005806 C289.447091,133.506706 288.920991,133.104406 288.266691,132.799006 C287.612191,132.493506 286.924391,132.340806 286.203091,132.340806 C285.013291,132.340806 283.990691,132.724506 283.135391,133.491906 C282.510891,134.050606 282.038691,134.888706 281.718891,136.006206 L290.754091,136.006206 L290.754091,136.006206 Z" id="Fill-48" sketch:type="MSShapeGroup"></path>
            <path d="M100.779991,126.155506 C101.132191,126.155506 101.432991,126.282506 101.682391,126.536506 C101.931791,126.790506 102.056491,127.096806 102.056491,127.455506 C102.056491,127.806506 101.931791,128.109106 101.682391,128.363106 C101.432991,128.617106 101.132191,128.744106 100.779991,128.744106 C100.435391,128.744106 100.138291,128.617106 99.888991,128.363106 C99.639591,128.109106 99.514891,127.806506 99.514891,127.455506 C99.514891,127.096806 99.639591,126.790506 99.888991,126.536506 C100.138291,126.282506 100.435391,126.155506 100.779991,126.155506 L100.779991,126.155506 Z M100.014091,131.149606 L101.557191,131.149606 L101.557191,143.314106 L100.014091,143.314106 L100.014091,131.149606 L100.014091,131.149606 Z" id="Fill-51" sketch:type="MSShapeGroup"></path>
            <path d="M319.448091,139.282106 L320.755791,139.975506 C320.326091,140.820706 319.829491,141.502906 319.266191,142.021706 C318.702991,142.540606 318.069291,142.935306 317.365191,143.206006 C316.661191,143.476606 315.864491,143.611806 314.975191,143.611806 C313.003991,143.611806 311.462591,142.963106 310.350891,141.665606 C309.239091,140.367906 308.683391,138.901206 308.683391,137.265106 C308.683391,135.725906 309.154191,134.354006 310.095891,133.149406 C311.289891,131.617606 312.888091,130.851806 314.890491,130.851806 C316.951991,130.851806 318.598191,131.636606 319.829291,133.206306 C320.704391,134.315006 321.149391,135.698906 321.164291,137.357806 L310.271891,137.357806 C310.301591,138.765006 310.750691,139.918706 311.619391,140.818706 C312.487891,141.718606 313.560591,142.168606 314.837591,142.168606 C315.453791,142.168606 316.053391,142.061706 316.636191,141.847906 C317.219091,141.634106 317.714591,141.350306 318.122891,140.996406 C318.531291,140.642506 318.972991,140.071006 319.448091,139.282106 L319.448091,139.282106 Z M319.462291,136.006206 C319.254091,135.171706 318.951091,134.504906 318.553191,134.005806 C318.155391,133.506706 317.629191,133.104406 316.974891,132.799006 C316.320391,132.493506 315.632591,132.340806 314.911391,132.340806 C313.721391,132.340806 312.698891,132.724506 311.843691,133.491906 C311.219091,134.050606 310.746991,134.888706 310.427091,136.006206 L319.462291,136.006206 L319.462291,136.006206 Z" id="Fill-52" sketch:type="MSShapeGroup"></path>
            <path d="M335.706491,133.676306 L334.476491,134.448406 C333.409391,133.028106 331.953291,132.317906 330.108191,132.317906 C328.633591,132.317906 327.408991,132.793406 326.434591,133.744306 C325.460091,134.695206 324.972891,135.850506 324.972891,137.210006 C324.972891,138.093806 325.196991,138.925906 325.645391,139.706006 C326.093591,140.486106 326.708691,141.091506 327.490491,141.522406 C328.272291,141.953206 329.148491,142.168606 330.119091,142.168606 C331.897591,142.168606 333.350091,141.458506 334.476491,140.038106 L335.706491,140.854606 C335.128791,141.728906 334.352891,142.407106 333.378891,142.889006 C332.404891,143.370906 331.295591,143.611806 330.051091,143.611806 C328.140091,143.611806 326.555091,143.002106 325.295891,141.782506 C324.036691,140.563006 323.407091,139.079506 323.407091,137.332006 C323.407091,136.157306 323.701491,135.066106 324.290291,134.058406 C324.879091,133.050806 325.688291,132.264506 326.717891,131.699406 C327.747491,131.134306 328.899291,130.851806 330.173391,130.851806 C330.973291,130.851806 331.745491,130.974006 332.489991,131.218606 C333.234491,131.463206 333.865891,131.782006 334.384491,132.175006 C334.902991,132.568106 335.343591,133.068506 335.706491,133.676306 L335.706491,133.676306 Z" id="Fill-55" sketch:type="MSShapeGroup"></path>
            <path d="M366.859991,126.155506 C367.212191,126.155506 367.512991,126.282506 367.762291,126.536506 C368.011691,126.790506 368.136391,127.096806 368.136391,127.455506 C368.136391,127.806506 368.011691,128.109106 367.762291,128.363106 C367.512991,128.617106 367.212191,128.744106 366.859991,128.744106 C366.515291,128.744106 366.218291,128.617106 365.968991,128.363106 C365.719591,128.109106 365.594891,127.806506 365.594891,127.455506 C365.594891,127.096806 365.719591,126.790506 365.968991,126.536506 C366.218291,126.282506 366.515291,126.155506 366.859991,126.155506 L366.859991,126.155506 Z" id="Fill-56" sketch:type="MSShapeGroup"></path>
            <path d="M352.494391,131.149606 L354.037491,131.149606 L354.037491,133.330906 C354.659591,132.495706 355.348391,131.873606 356.103591,131.464906 C356.858791,131.056106 357.680891,130.851806 358.569591,130.851806 C359.473091,130.851806 360.274691,131.082506 360.974591,131.544006 C361.674291,132.005506 362.190791,132.627206 362.523991,133.408906 C362.857191,134.190706 363.023791,135.407906 363.023791,137.060706 L363.023791,143.314106 L361.480791,143.314106 L361.480791,137.519906 C361.480791,136.120606 361.420891,135.186506 361.301291,134.717606 C361.114591,133.913906 360.765791,133.309106 360.255091,132.903506 C359.744391,132.497806 359.078291,132.295006 358.256591,132.295006 C357.316491,132.295006 356.474491,132.607606 355.730591,133.232806 C354.986691,133.858006 354.496391,134.632006 354.259491,135.554806 C354.111491,136.157806 354.037491,137.259406 354.037491,138.859406 L354.037491,143.314106 L352.494391,143.314106 L352.494391,131.149606 L352.494391,131.149606 Z" id="Fill-57" sketch:type="MSShapeGroup"></path>
            <path d="M400.818591,126.453306 L402.361691,126.453306 L402.361691,143.314106 L400.818591,143.314106 L400.818591,126.453306 L400.818591,126.453306 Z" id="Fill-58" sketch:type="MSShapeGroup"></path>
            <path d="M489.609391,126.155506 C489.961591,126.155506 490.262391,126.282506 490.511791,126.536506 C490.761191,126.790506 490.885791,127.096806 490.885791,127.455506 C490.885791,127.806506 490.761191,128.109106 490.511791,128.363106 C490.262391,128.617106 489.961591,128.744106 489.609391,128.744106 C489.264791,128.744106 488.967691,128.617106 488.718291,128.363106 C488.468991,128.109106 488.344291,127.806506 488.344291,127.455506 C488.344291,127.096806 488.468991,126.790506 488.718291,126.536506 C488.967691,126.282506 489.264791,126.155506 489.609391,126.155506 L489.609391,126.155506 Z" id="Fill-59" sketch:type="MSShapeGroup"></path>
            <path d="M366.094091,131.149606 L367.637191,131.149606 L367.637191,143.314106 L366.094091,143.314106 L366.094091,131.149606 L366.094091,131.149606 Z" id="Fill-60" sketch:type="MSShapeGroup"></path>
            <path d="M382.568891,133.676306 L381.338791,134.448406 C380.271791,133.028106 378.815791,132.317906 376.970491,132.317906 C375.495991,132.317906 374.271391,132.793406 373.296991,133.744306 C372.322491,134.695206 371.835191,135.850506 371.835191,137.210006 C371.835191,138.093806 372.059391,138.925906 372.507691,139.706006 C372.955991,140.486106 373.570991,141.091506 374.352891,141.522406 C375.134591,141.953206 376.010891,142.168606 376.981491,142.168606 C378.759991,142.168606 380.212491,141.458506 381.338791,140.038106 L382.568891,140.854606 C381.991191,141.728906 381.215191,142.407106 380.241191,142.889006 C379.267291,143.370906 378.157991,143.611806 376.913391,143.611806 C375.002491,143.611806 373.417391,143.002106 372.158291,141.782506 C370.899091,140.563006 370.269491,139.079506 370.269491,137.332006 C370.269491,136.157306 370.563891,135.066106 371.152691,134.058406 C371.741491,133.050806 372.550691,132.264506 373.580191,131.699406 C374.609791,131.134306 375.761691,130.851806 377.035791,130.851806 C377.835691,130.851806 378.607791,130.974006 379.352391,131.218606 C380.096791,131.463206 380.728291,131.782006 381.246791,132.175006 C381.765291,132.568106 382.205991,133.068506 382.568891,133.676306 L382.568891,133.676306 Z" id="Fill-61" sketch:type="MSShapeGroup"></path>
            <path d="M397.534591,131.149606 L397.534591,143.314106 L395.991491,143.314106 L395.991491,141.222206 C395.342691,142.020206 394.614391,142.617906 393.806991,143.015606 C392.999491,143.413106 392.116391,143.611806 391.157691,143.611806 C389.454291,143.611806 387.999791,142.989106 386.794091,141.743606 C385.588391,140.498006 384.985491,138.983006 384.985491,137.198506 C384.985491,135.451006 385.593991,133.956406 386.810791,132.714406 C388.027491,131.472706 389.491291,130.851806 391.201991,130.851806 C392.189991,130.851806 393.084091,131.061606 393.884291,131.481506 C394.684391,131.901406 395.386891,132.536506 395.991491,133.386706 L395.991491,131.149606 L397.534591,131.149606 L397.534591,131.149606 Z M391.322491,132.363706 C390.460891,132.363706 389.665591,132.577106 388.936791,133.003806 C388.207791,133.430406 387.628091,134.029606 387.197391,134.801206 C386.766691,135.572706 386.551391,136.388906 386.551391,137.249306 C386.551391,138.102706 386.768591,138.918906 387.202891,139.697906 C387.637291,140.476906 388.220791,141.083406 388.953491,141.517506 C389.686091,141.951606 390.471991,142.168606 391.311091,142.168606 C392.157791,142.168606 392.960391,141.953406 393.718791,141.523106 C394.477291,141.092706 395.060891,140.510206 395.469391,139.775706 C395.877991,139.041206 396.082291,138.214006 396.082291,137.294106 C396.082291,135.891606 395.623891,134.719306 394.707191,133.777106 C393.790491,132.834806 392.662291,132.363706 391.322491,132.363706 L391.322491,132.363706 Z" id="Fill-62" sketch:type="MSShapeGroup"></path>
            <path d="M211.180691,126.155506 C211.532891,126.155506 211.833691,126.282506 212.083091,126.536506 C212.332491,126.790506 212.457091,127.096806 212.457091,127.455506 C212.457091,127.806506 212.332491,128.109106 212.083091,128.363106 C211.833691,128.617106 211.532891,128.744106 211.180691,128.744106 C210.835991,128.744106 210.539091,128.617106 210.289691,128.363106 C210.040291,128.109106 209.915591,127.806506 209.915591,127.455506 C209.915591,127.096806 210.040291,126.790506 210.289691,126.536506 C210.539091,126.282506 210.835991,126.155506 211.180691,126.155506 L211.180691,126.155506 Z M210.414791,131.149606 L211.957891,131.149606 L211.957891,143.314106 L210.414791,143.314106 L210.414791,131.149606 L210.414791,131.149606 Z" id="Fill-65" sketch:type="MSShapeGroup"></path>
            <path d="M411.863791,131.149606 L413.406891,131.149606 L413.406891,133.252506 C413.946291,132.476906 414.500591,131.910206 415.069791,131.552306 C415.853191,131.085306 416.677191,130.851806 417.541891,130.851806 C418.125791,130.851806 418.679991,130.967306 419.204591,131.198406 C419.729291,131.429506 420.157891,131.737106 420.490491,132.121206 C420.823091,132.505306 421.111291,133.055306 421.355291,133.771106 C421.871291,132.816606 422.516391,132.091406 423.290591,131.595506 C424.064691,131.099706 424.897791,130.851806 425.789891,130.851806 C426.622891,130.851806 427.358291,131.063906 427.996091,131.488206 C428.633791,131.912406 429.107491,132.504306 429.417191,133.263806 C429.726891,134.023306 429.881691,135.162306 429.881691,136.681006 L429.881691,143.314106 L428.293191,143.314106 L428.293191,136.676906 C428.293191,135.373406 428.201091,134.477606 428.016991,133.989506 C427.832891,133.501506 427.518091,133.108606 427.072591,132.810606 C426.627191,132.512706 426.095091,132.363706 425.476491,132.363706 C424.725491,132.363706 424.038891,132.587206 423.416591,133.034106 C422.794291,133.481106 422.339591,134.077006 422.052391,134.821906 C421.765191,135.566806 421.621591,136.810906 421.621591,138.554106 L421.621591,143.314106 L420.078491,143.314106 L420.078491,137.090406 C420.078491,135.622806 419.987891,134.626406 419.806891,134.101206 C419.625891,133.576006 419.309991,133.155006 418.859191,132.838506 C418.408691,132.522006 417.873091,132.363706 417.252491,132.363706 C416.535791,132.363706 415.865291,132.581606 415.241091,133.017306 C414.616791,133.453006 414.154991,134.039706 413.855691,134.777206 C413.556491,135.514606 413.406891,136.643206 413.406891,138.162906 L413.406891,143.314106 L411.863791,143.314106 L411.863791,131.149606 L411.863791,131.149606 Z" id="Fill-66" sketch:type="MSShapeGroup"></path>
            <path d="M445.135491,131.149606 L445.135491,143.314106 L443.592491,143.314106 L443.592491,141.222206 C442.943591,142.020206 442.215391,142.617906 441.407891,143.015606 C440.600491,143.413106 439.717391,143.611806 438.758491,143.611806 C437.055191,143.611806 435.600691,142.989106 434.394991,141.743606 C433.189391,140.498006 432.586591,138.983006 432.586591,137.198506 C432.586591,135.451006 433.194891,133.956406 434.411691,132.714406 C435.628391,131.472706 437.092191,130.851806 438.802891,130.851806 C439.790991,130.851806 440.685091,131.061606 441.485191,131.481506 C442.285391,131.901406 442.987791,132.536506 443.592491,133.386706 L443.592491,131.149606 L445.135491,131.149606 L445.135491,131.149606 Z M438.923491,132.363706 C438.061791,132.363706 437.266591,132.577106 436.537691,133.003806 C435.808791,133.430406 435.228991,134.029606 434.798391,134.801206 C434.367691,135.572706 434.152391,136.388906 434.152391,137.249306 C434.152391,138.102706 434.369491,138.918906 434.803791,139.697906 C435.238191,140.476906 435.821791,141.083406 436.554391,141.517506 C437.287091,141.951606 438.072991,142.168606 438.912091,142.168606 C439.758791,142.168606 440.561391,141.953406 441.319891,141.523106 C442.078291,141.092706 442.661791,140.510206 443.070291,139.775706 C443.478891,139.041206 443.683191,138.214006 443.683191,137.294106 C443.683191,135.891606 443.224891,134.719306 442.308191,133.777106 C441.391491,132.834806 440.263191,132.363706 438.923491,132.363706 L438.923491,132.363706 Z" id="Fill-67" sketch:type="MSShapeGroup"></path>
            <path d="M459.062391,131.149606 L460.605491,131.149606 L460.605491,140.831306 C460.605491,142.536106 460.457991,143.783106 460.162891,144.572206 C459.757291,145.688806 459.052991,146.548606 458.050091,147.151706 C457.047091,147.754606 455.841191,148.056206 454.432391,148.056206 C453.399791,148.056206 452.472391,147.908006 451.650191,147.611806 C450.827991,147.315506 450.158691,146.917906 449.642391,146.419106 C449.126191,145.920306 448.650491,145.190606 448.215291,144.230406 L449.894491,144.230406 C450.352691,145.039606 450.943891,145.639006 451.668091,146.028506 C452.392391,146.418106 453.290491,146.612906 454.362091,146.612906 C455.418991,146.612906 456.311491,146.415506 457.039291,146.020706 C457.767291,145.625806 458.286391,145.129606 458.596791,144.531806 C458.907091,143.934006 459.062391,142.965106 459.062391,141.625006 L459.062391,140.998506 C458.478691,141.744206 457.765791,142.316606 456.923391,142.715606 C456.081091,143.114606 455.186891,143.314106 454.240891,143.314106 C453.132791,143.314106 452.090991,143.036806 451.115491,142.482206 C450.140091,141.927606 449.386391,141.181306 448.854391,140.243206 C448.322391,139.305206 448.056491,138.274006 448.056491,137.149806 C448.056491,136.025706 448.333491,134.977806 448.887691,134.006306 C449.441991,133.034906 450.208491,132.266206 451.187491,131.700506 C452.166391,131.134706 453.198991,130.851806 454.285191,130.851806 C455.186691,130.851806 456.027391,131.037406 456.806891,131.408906 C457.586491,131.780306 458.338291,132.398606 459.062391,133.263606 L459.062391,131.149606 L459.062391,131.149606 Z M454.481691,132.363706 C453.603491,132.363706 452.787991,132.577806 452.035291,133.006006 C451.282491,133.434206 450.692091,134.026306 450.264191,134.782206 C449.836191,135.538006 449.622191,136.355406 449.622191,137.234306 C449.622191,138.567306 450.064991,139.669506 450.950491,140.540806 C451.835891,141.412206 452.983491,141.847906 454.392991,141.847906 C455.817191,141.847906 456.962791,141.416006 457.829791,140.552206 C458.696891,139.688306 459.130491,138.552506 459.130491,137.144806 C459.130491,136.228906 458.931191,135.411706 458.532691,134.692906 C458.134191,133.974106 457.569591,133.406206 456.838991,132.989206 C456.108391,132.572206 455.322791,132.363706 454.481691,132.363706 L454.481691,132.363706 Z" id="Fill-70" sketch:type="MSShapeGroup"></path>
            <path d="M475.902191,131.149606 L475.902191,143.314106 L474.359191,143.314106 L474.359191,141.222206 C473.710391,142.020206 472.982091,142.617906 472.174691,143.015606 C471.367191,143.413106 470.483991,143.611806 469.525291,143.611806 C467.821891,143.611806 466.367391,142.989106 465.161691,141.743606 C463.956091,140.498006 463.353291,138.983006 463.353291,137.198506 C463.353291,135.451006 463.961691,133.956406 465.178491,132.714406 C466.395191,131.472706 467.858891,130.851806 469.569691,130.851806 C470.557691,130.851806 471.451791,131.061606 472.251891,131.481506 C473.052091,131.901406 473.754491,132.536506 474.359191,133.386706 L474.359191,131.149606 L475.902191,131.149606 L475.902191,131.149606 Z M469.690191,132.363706 C468.828591,132.363706 468.033291,132.577106 467.304391,133.003806 C466.575491,133.430406 465.995791,134.029606 465.565091,134.801206 C465.134391,135.572706 464.919091,136.388906 464.919091,137.249306 C464.919091,138.102706 465.136191,138.918906 465.570591,139.697906 C466.004891,140.476906 466.588491,141.083406 467.321091,141.517506 C468.053791,141.951606 468.839691,142.168606 469.678791,142.168606 C470.525591,142.168606 471.328091,141.953406 472.086591,141.523106 C472.844991,141.092706 473.428491,140.510206 473.837091,139.775706 C474.245691,139.041206 474.449991,138.214006 474.449991,137.294106 C474.449991,135.891606 473.991591,134.719306 473.074991,133.777106 C472.158291,132.834806 471.029991,132.363706 469.690191,132.363706 L469.690191,132.363706 Z" id="Fill-73" sketch:type="MSShapeGroup"></path>
            <path d="M478.414691,131.149606 L487.287491,131.149606 L480.456691,141.916606 L487.060591,141.916606 L487.060591,143.314106 L477.779291,143.314106 L484.638891,132.501206 L478.414691,132.501206 L478.414691,131.149606 L478.414691,131.149606 Z" id="Fill-76" sketch:type="MSShapeGroup"></path>
            <path d="M366.859991,126.155506 C367.212191,126.155506 367.512991,126.282506 367.762291,126.536506 C368.011691,126.790506 368.136391,127.096806 368.136391,127.455506 C368.136391,127.806506 368.011691,128.109106 367.762291,128.363106 C367.512991,128.617106 367.212191,128.744106 366.859991,128.744106 C366.515291,128.744106 366.218291,128.617106 365.968991,128.363106 C365.719591,128.109106 365.594891,127.806506 365.594891,127.455506 C365.594891,127.096806 365.719591,126.790506 365.968991,126.536506 C366.218291,126.282506 366.515291,126.155506 366.859991,126.155506 L366.859991,126.155506 Z M366.094091,131.149606 L367.637191,131.149606 L367.637191,143.314106 L366.094091,143.314106 L366.094091,131.149606 L366.094091,131.149606 Z" id="Fill-77" sketch:type="MSShapeGroup"></path>
            <path d="M489.609391,126.155506 C489.961591,126.155506 490.262391,126.282506 490.511791,126.536506 C490.761191,126.790506 490.885791,127.096806 490.885791,127.455506 C490.885791,127.806506 490.761191,128.109106 490.511791,128.363106 C490.262391,128.617106 489.961591,128.744106 489.609391,128.744106 C489.264791,128.744106 488.967691,128.617106 488.718291,128.363106 C488.468991,128.109106 488.344291,127.806506 488.344291,127.455506 C488.344291,127.096806 488.468991,126.790506 488.718291,126.536506 C488.967691,126.282506 489.264791,126.155506 489.609391,126.155506 L489.609391,126.155506 Z M488.843491,131.149606 L490.386591,131.149606 L490.386591,143.314106 L488.843491,143.314106 L488.843491,131.149606 L488.843491,131.149606 Z" id="Fill-78" sketch:type="MSShapeGroup"></path>
            <path d="M488.843491,131.149606 L490.386591,131.149606 L490.386591,143.314106 L488.843491,143.314106 L488.843491,131.149606 L488.843491,131.149606 Z" id="Fill-79" sketch:type="MSShapeGroup"></path>
            <path d="M493.608891,131.149606 L495.151991,131.149606 L495.151991,133.330906 C495.774091,132.495706 496.462791,131.873606 497.218091,131.464906 C497.973291,131.056106 498.795391,130.851806 499.684091,130.851806 C500.587591,130.851806 501.389091,131.082506 502.088991,131.544006 C502.788691,132.005506 503.305291,132.627206 503.638491,133.408906 C503.971691,134.190706 504.138191,135.407906 504.138191,137.060706 L504.138191,143.314106 L502.595091,143.314106 L502.595091,137.519906 C502.595091,136.120606 502.535291,135.186506 502.415691,134.717606 C502.228991,133.913906 501.880291,133.309106 501.369591,132.903506 C500.858891,132.497806 500.192691,132.295006 499.370991,132.295006 C498.430891,132.295006 497.588991,132.607606 496.845091,133.232806 C496.101091,133.858006 495.610791,134.632006 495.373891,135.554806 C495.225991,136.157806 495.151991,137.259406 495.151991,138.859406 L495.151991,143.314106 L493.608891,143.314106 L493.608891,131.149606 L493.608891,131.149606 Z" id="Fill-80" sketch:type="MSShapeGroup"></path>
            <path d="M517.610291,139.282106 L518.917891,139.975506 C518.488191,140.820706 517.991591,141.502906 517.428391,142.021706 C516.865091,142.540606 516.231291,142.935306 515.527291,143.206006 C514.823291,143.476606 514.026591,143.611806 513.137291,143.611806 C511.166091,143.611806 509.624691,142.963106 508.512991,141.665606 C507.401291,140.367906 506.845391,138.901206 506.845391,137.265106 C506.845391,135.725906 507.316291,134.354006 508.258091,133.149406 C509.451991,131.617606 511.050291,130.851806 513.052591,130.851806 C515.114091,130.851806 516.760391,131.636606 517.991391,133.206306 C518.866491,134.315006 519.311491,135.698906 519.326391,137.357806 L508.433891,137.357806 C508.463691,138.765006 508.912991,139.918706 509.781491,140.818706 C510.649991,141.718606 511.722791,142.168606 512.999691,142.168606 C513.615991,142.168606 514.215591,142.061706 514.798291,141.847906 C515.381091,141.634106 515.876691,141.350306 516.285091,140.996406 C516.693391,140.642506 517.135091,140.071006 517.610291,139.282106 L517.610291,139.282106 Z M517.624391,136.006206 C517.416191,135.171706 517.113091,134.504906 516.715291,134.005806 C516.317491,133.506706 515.791291,133.104406 515.136891,132.799006 C514.482491,132.493506 513.794691,132.340806 513.073491,132.340806 C511.883491,132.340806 510.860891,132.724506 510.005791,133.491906 C509.381191,134.050606 508.908991,134.888706 508.589191,136.006206 L517.624391,136.006206 L517.624391,136.006206 Z" id="Fill-81" sketch:type="MSShapeGroup"></path>
        </g>
    </g>
</svg>