<?xml version="1.0" encoding="UTF-8" standalone="no"?>
<svg width="1024px" height="240px" viewBox="0 0 1024 240" version="1.1" xmlns="http://www.w3.org/2000/svg" xmlns:xlink="http://www.w3.org/1999/xlink" xmlns:sketch="http://www.bohemiancoding.com/sketch/ns">
    <!-- Generator: Sketch 3.0.3 (7892) - http://www.bohemiancoding.com/sketch -->
    <title>logo-sec</title>
    <desc>Created with Sketch.</desc>
    <defs></defs>
    <g id="Page-1" stroke="none" stroke-width="1" fill="none" fill-rule="evenodd" sketch:type="MSPage">
        <g id="logo-sec" sketch:type="MSArtboardGroup" fill="#000000">
            <path d="M609.185185,31 L614.103704,31 L614.103704,208.6084 L609.185185,208.6084 L609.185185,31 Z M676.468148,111.4204 C674.346667,111.4204 672.545185,111.2068 670.968889,110.791467 L671.454815,106.377067 C673.007407,107.006 674.737778,107.3976 676.645926,107.3976 C678.791111,107.3976 680.628148,106.519467 680.628148,104.288533 C680.628148,99.7317333 670.613333,101.820267 670.613333,93.9764 C670.613333,89.74 673.860741,86.8089333 679.608889,86.8089333 C680.912593,86.8089333 682.571852,86.9869333 683.911111,87.2717333 L683.484444,91.2945333 C682.180741,90.8673333 680.805926,90.6181333 679.395556,90.6181333 C676.717037,90.6181333 675.484444,91.7929333 675.484444,93.478 C675.484444,97.75 685.677037,96.1717333 685.677037,103.7308 C685.677037,108.1452 681.967407,111.4204 676.468148,111.4204 M688.936296,111.040667 L688.936296,87.2005333 L701.878519,87.2005333 L701.878519,91.0453333 L693.522963,91.0453333 L693.522963,96.9074667 L701.451852,96.9074667 L701.451852,100.657333 L693.522963,100.657333 L693.522963,107.1128 L701.878519,107.1128 L701.878519,111.040667 L688.936296,111.040667 M715.508148,111.3136 C707.188148,111.3136 704.50963,105.807467 704.50963,99.8741333 C704.50963,92.3150667 708.456296,86.9869333 716.432593,86.9869333 C718.127407,86.9869333 719.952593,87.2361333 721.517037,87.6870667 L720.877037,91.8997333 C719.431111,91.3657333 717.807407,91.0809333 716.183704,91.0809333 C711.739259,91.0809333 709.558519,94.4392 709.558519,99.1028 C709.558519,104.252933 711.703704,107.1484 716.503704,107.1484 C717.94963,107.1484 719.786667,106.768667 721.019259,106.163467 L721.718519,110.221867 C719.952593,110.898267 717.736296,111.3136 715.508148,111.3136 M731.271111,90.7961333 C730.607407,90.7961333 729.931852,90.8317333 729.46963,90.9029333 L729.46963,97.7856 C729.78963,97.8330667 730.42963,97.8686667 731.128889,97.8686667 C733.878519,97.8686667 735.573333,96.4565333 735.573333,94.2256 C735.573333,91.9353333 734.162963,90.7961333 731.271111,90.7961333 M736.284444,111.040667 L729.860741,101.179467 L729.46963,101.179467 L729.46963,111.040667 L724.882963,111.040667 L724.882963,87.2005333 C726.755556,87.0937333 728.971852,87.0581333 731.733333,87.0581333 C736.983704,87.0581333 740.373333,88.8856 740.373333,93.7628 C740.373333,97.2990667 737.837037,99.8385333 734.518519,100.408133 C735.158519,101.286267 735.857778,102.176267 736.426667,103.0188 L741.961481,111.040667 L736.284444,111.040667 M744.402963,111.040667 L744.402963,87.2005333 L757.345185,87.2005333 L757.345185,91.0453333 L748.977778,91.0453333 L748.977778,96.9074667 L756.918519,96.9074667 L756.918519,100.657333 L748.977778,100.657333 L748.977778,107.1128 L757.345185,107.1128 L757.345185,111.040667 L744.402963,111.040667 M770.334815,91.1165333 L770.334815,111.040667 L765.748148,111.040667 L765.748148,91.1165333 L759.585185,91.1165333 L759.585185,87.2005333 L776.50963,87.2005333 L776.50963,91.1165333 L770.334815,91.1165333 M783.288889,85.7528 L782.554074,83.2726667 L789.842963,80.6264 L790.874074,83.8778667 L783.288889,85.7528 L783.288889,85.7528 Z M786.358519,95.7445333 C785.931852,94.5816 785.611852,93.478 785.374815,92.4574667 L785.327407,92.4574667 C785.054815,93.478 784.77037,94.5816 784.379259,95.7445333 L782.020741,102.5204 L788.717037,102.5204 L786.358519,95.7445333 L786.358519,95.7445333 Z M791.537778,111.040667 L789.89037,106.163467 L780.894815,106.163467 L779.235556,111.040667 L774.613333,111.040667 L782.933333,87.2005333 L788.112593,87.2005333 L796.622222,111.040667 L791.537778,111.040667 L791.537778,111.040667 Z M805.25037,90.7961333 C804.586667,90.7961333 803.911111,90.8317333 803.460741,90.9029333 L803.460741,97.7856 C803.780741,97.8330667 804.408889,97.8686667 805.12,97.8686667 C807.86963,97.8686667 809.564444,96.4565333 809.564444,94.2256 C809.564444,91.9353333 808.142222,90.7961333 805.25037,90.7961333 M810.263704,111.040667 L803.84,101.179467 L803.460741,101.179467 L803.460741,111.040667 L798.874074,111.040667 L798.874074,87.2005333 C800.746667,87.0937333 802.962963,87.0581333 805.712593,87.0581333 C810.962963,87.0581333 814.352593,88.8856 814.352593,93.7628 C814.352593,97.2990667 811.816296,99.8385333 808.497778,100.408133 C809.137778,101.286267 809.837037,102.176267 810.405926,103.0188 L815.940741,111.040667 L810.263704,111.040667 M818.382222,87.2005333 L822.968889,87.2005333 L822.968889,111.0288 L818.382222,111.0288 L818.382222,87.2005333 Z M837.617778,90.9385333 C834.334815,90.9385333 831.300741,93.5492 831.300741,98.9248 C831.300741,103.968133 833.28,107.2552 837.546667,107.2552 C840.651852,107.2552 843.97037,104.858133 843.97037,99.1265333 C843.97037,93.834 841.706667,90.9385333 837.617778,90.9385333 M837.226667,111.4204 C829.961481,111.4204 826.394074,106.7924 826.394074,99.4232 C826.394074,91.5437333 831.656296,86.8089333 838.044444,86.8089333 C844.385185,86.8089333 848.865185,90.6181333 848.865185,98.7824 C848.865185,106.65 843.685926,111.4204 837.226667,111.4204 M867.555556,90.9029333 C866.500741,90.9029333 865.517037,90.9385333 864.77037,91.0097333 L864.77037,107.0772 C865.41037,107.184 866.358519,107.2552 867.271111,107.2552 C871.762963,107.2552 874.998519,104.715733 874.998519,99.0672 C874.998519,93.9408 872.995556,90.9029333 867.555556,90.9029333 M866.820741,111.183067 C864.355556,111.183067 862.198519,111.076267 860.183704,111.005067 L860.183704,87.2361333 C862.056296,87.1649333 864.948148,87.0581333 867.875556,87.0581333 C875.247407,87.0581333 879.940741,90.3333333 879.940741,98.7112 C879.940741,106.8992 874.583704,111.183067 866.820741,111.183067 M883.448889,111.040667 L883.448889,87.2005333 L896.391111,87.2005333 L896.391111,91.0453333 L888.035556,91.0453333 L888.035556,96.9074667 L895.964444,96.9074667 L895.964444,100.657333 L888.035556,100.657333 L888.035556,107.1128 L896.391111,107.1128 L896.391111,111.040667 L883.448889,111.040667 M908.527407,111.040667 L908.527407,87.2005333 L921.46963,87.2005333 L921.46963,91.0453333 L913.114074,91.0453333 L913.114074,96.9074667 L921.042963,96.9074667 L921.042963,100.657333 L913.114074,100.657333 L913.114074,107.1128 L921.46963,107.1128 L921.46963,111.040667 L908.527407,111.040667 M930.074074,111.4204 C927.964444,111.4204 926.162963,111.2068 924.574815,110.791467 L925.072593,106.377067 C926.625185,107.006 928.343704,107.3976 930.251852,107.3976 C932.408889,107.3976 934.234074,106.519467 934.234074,104.288533 C934.234074,99.7317333 924.231111,101.820267 924.231111,93.9764 C924.231111,89.74 927.466667,86.8089333 933.214815,86.8089333 C934.518519,86.8089333 936.177778,86.9869333 937.517037,87.2717333 L937.09037,91.2945333 C935.786667,90.8673333 934.411852,90.6181333 933.001481,90.6181333 C930.322963,90.6181333 929.09037,91.7929333 929.09037,93.478 C929.09037,97.75 939.282963,96.1717333 939.282963,103.7308 C939.282963,108.1452 935.585185,111.4204 930.074074,111.4204 M951.004444,91.1165333 L951.004444,111.040667 L946.417778,111.040667 L946.417778,91.1165333 L940.254815,91.1165333 L940.254815,87.2005333 L957.179259,87.2005333 L957.179259,91.1165333 L951.004444,91.1165333 M967.028148,95.7445333 C966.601481,94.5816 966.293333,93.478 966.044444,92.4574667 L966.008889,92.4574667 C965.724444,93.478 965.44,94.5816 965.060741,95.7445333 L962.69037,102.5204 L969.386667,102.5204 L967.028148,95.7445333 L967.028148,95.7445333 Z M972.207407,111.040667 L970.56,106.163467 L961.564444,106.163467 L959.905185,111.040667 L955.282963,111.040667 L963.602963,87.2005333 L968.794074,87.2005333 L977.291852,111.040667 L972.207407,111.040667 L972.207407,111.040667 Z M986.915556,90.9029333 C985.860741,90.9029333 984.877037,90.9385333 984.13037,91.0097333 L984.13037,107.0772 C984.758519,107.184 985.718519,107.2552 986.631111,107.2552 C991.111111,107.2552 994.358519,104.715733 994.358519,99.0672 C994.358519,93.9408 992.343704,90.9029333 986.915556,90.9029333 M986.168889,111.183067 C983.703704,111.183067 981.558519,111.076267 979.543704,111.005067 L979.543704,87.2361333 C981.416296,87.1649333 984.308148,87.0581333 987.235556,87.0581333 C994.607407,87.0581333 999.300741,90.3333333 999.300741,98.7112 C999.300741,106.8992 993.931852,111.183067 986.168889,111.183067 M1012.74074,90.9385333 C1009.46963,90.9385333 1006.43556,93.5492 1006.43556,98.9248 C1006.43556,103.968133 1008.41481,107.2552 1012.68148,107.2552 C1015.78667,107.2552 1019.09333,104.858133 1019.09333,99.1265333 C1019.09333,93.834 1016.84148,90.9385333 1012.74074,90.9385333 M1012.36148,111.4204 C1005.0963,111.4204 1001.52889,106.7924 1001.52889,99.4232 C1001.52889,91.5437333 1006.79111,86.8089333 1013.16741,86.8089333 C1019.52,86.8089333 1024,90.6181333 1024,98.7824 C1024,106.65 1018.80889,111.4204 1012.36148,111.4204 M679.04,132.258267 C677.985185,132.258267 676.98963,132.293867 676.254815,132.365067 L676.254815,148.432533 C676.894815,148.539333 677.842963,148.610533 678.755556,148.610533 C683.235556,148.610533 686.482963,146.071067 686.482963,140.410667 C686.482963,135.296133 684.48,132.258267 679.04,132.258267 M678.305185,152.526533 C675.828148,152.526533 673.682963,152.419733 671.668148,152.348533 L671.668148,128.5796 C673.540741,128.520267 676.432593,128.413467 679.36,128.413467 C686.731852,128.413467 691.425185,131.688667 691.425185,140.066533 C691.425185,148.254533 686.056296,152.526533 678.305185,152.526533 M703.324444,137.099867 C702.897778,135.925067 702.577778,134.833333 702.328889,133.8128 L702.305185,133.8128 C702.008889,134.833333 701.736296,135.925067 701.345185,137.099867 L698.986667,143.875733 L705.682963,143.875733 L703.324444,137.099867 L703.324444,137.099867 Z M708.503704,152.384133 L706.844444,147.5188 L697.860741,147.5188 L696.201481,152.384133 L691.579259,152.384133 L699.899259,128.544 L705.078519,128.544 L713.588148,152.384133 L708.503704,152.384133 Z M733.653333,152.668933 C725.333333,152.668933 722.642963,147.1628 722.642963,141.229467 C722.642963,133.6704 726.601481,128.342267 734.565926,128.342267 C736.260741,128.342267 738.097778,128.5796 739.65037,129.0424 L739.01037,133.2432 C737.564444,132.721067 735.952593,132.436267 734.328889,132.436267 C729.872593,132.436267 727.691852,135.794533 727.691852,140.446267 C727.691852,145.608267 729.848889,148.503733 734.637037,148.503733 C736.082963,148.503733 737.92,148.112133 739.152593,147.5188 L739.863704,151.5772 C738.097778,152.241733 735.86963,152.668933 733.653333,152.668933 Z M751.964444,152.775733 C744.462222,152.775733 742.767407,148.681733 742.767407,144.124933 L742.767407,128.544 L747.342222,128.544 L747.342222,143.840133 C747.342222,146.8424 748.337778,148.966533 752.284444,148.966533 C755.816296,148.966533 757.297778,147.4832 757.297778,143.412933 L757.297778,128.544 L761.837037,128.544 L761.837037,143.14 C761.837037,149.631067 758.245926,152.775733 751.964444,152.775733 Z M766.435556,152.384133 L766.435556,128.544 L771.022222,128.544 L771.022222,148.361333 L778.74963,148.361333 L778.74963,152.384133 L766.435556,152.384133 Z M787.745185,132.471867 L787.745185,152.384133 L783.158519,152.384133 L783.158519,132.471867 L776.983704,132.471867 L776.983704,128.544 L793.92,128.544 L793.92,132.471867 L787.745185,132.471867 Z M805.594074,152.775733 C798.08,152.775733 796.385185,148.681733 796.385185,144.124933 L796.385185,128.544 L800.983704,128.544 L800.983704,143.840133 C800.983704,146.8424 801.967407,148.966533 805.914074,148.966533 C809.445926,148.966533 810.927407,147.4832 810.927407,143.412933 L810.927407,128.544 L815.478519,128.544 L815.478519,143.14 C815.478519,149.631067 811.875556,152.775733 805.594074,152.775733 M826.453333,132.151467 C825.777778,132.151467 825.114074,132.187067 824.651852,132.258267 L824.651852,139.140933 C824.971852,139.176533 825.611852,139.212133 826.311111,139.212133 C829.060741,139.212133 830.755556,137.8 830.755556,135.580933 C830.755556,133.2788 829.345185,132.151467 826.453333,132.151467 M831.466667,152.384133 L825.042963,142.5348 L824.651852,142.5348 L824.651852,152.384133 L820.065185,152.384133 L820.065185,128.544 C821.937778,128.4372 824.165926,128.413467 826.915556,128.413467 C832.165926,128.413467 835.555556,130.240933 835.555556,135.118133 C835.555556,138.6544 833.019259,141.193867 829.700741,141.7516 C830.328889,142.6416 831.04,143.519733 831.597037,144.374133 L837.143704,152.384133 L831.466667,152.384133 M850.145185,137.099867 C849.718519,135.925067 849.398519,134.833333 849.14963,133.8128 L849.125926,133.8128 C848.82963,134.833333 848.545185,135.925067 848.165926,137.099867 L845.807407,143.875733 L852.503704,143.875733 L850.145185,137.099867 L850.145185,137.099867 Z M855.324444,152.384133 L853.665185,147.5188 L844.66963,147.5188 L843.01037,152.384133 L838.388148,152.384133 L846.72,128.544 L851.899259,128.544 L860.408889,152.384133 L855.324444,152.384133 L855.324444,152.384133 Z M26.4414815,116.5468 C32.4859259,125.5536 42.4888889,131.688667 53.9614815,132.4244 L53.3925926,128.4728 C44.1244444,127.630267 35.9940741,122.848 30.6844444,115.7992 C30.4355556,115.787333 26.7496296,116.4044 26.4414815,116.5468 L26.4414815,116.5468 Z M54.3407407,31 L54.3407407,70.0294667 L38.1155556,70.0176 C42.5481481,66.956 47.762963,64.9624 53.4162963,64.4521333 L53.9496296,60.5005333 C42.8207407,61.2362667 33.0785185,67.0272 26.9866667,75.5949333 C26.477037,75.6186667 26.0977778,75.7254667 25.8488889,75.9034667 L25.8251852,75.9272 L22.6844444,82.0504 C22.6488889,82.0978667 22.5896296,82.3708 22.6488889,82.6556 C22.7792593,81.8961333 23.2651852,81.8724 23.7274074,81.8724 C25.3866667,81.8724 28.7288889,82.9997333 33.1259259,84.9221333 L33.1259259,89.6925333 C32.96,89.7162667 32.7822222,89.7518667 32.6162963,89.7874667 C29.5466667,90.3808 26.7496296,91.1402667 24.5451852,91.9472 C24.9125926,89.3246667 25.6,86.7970667 26.56,84.4237333 C26.3466667,84.1389333 23.4074074,82.2877333 23.2414815,82.2402667 C21.677037,85.8952 20.7051852,89.8468 20.4207407,94.0001333 C20.1244444,94.2493333 19.9348148,94.4866667 19.8518519,94.7121333 L19.84,94.724 L19.84,98.8061333 C19.84,98.9722667 20.0296296,99.0672 20.1007407,99.1146667 C19.9111111,98.9129333 20.1244444,98.6281333 20.1955556,98.5450667 C20.3259259,98.3789333 20.4918519,98.2009333 20.6814815,98.0585333 C20.8592593,97.9042667 21.0607407,97.75 21.2859259,97.6076 C21.8903704,97.2278667 22.6607407,96.8362667 23.5614815,96.4684 C23.7866667,96.3853333 24,96.3022667 24.237037,96.2192 C26.6785185,95.2817333 29.8311111,94.4392 32.7585185,93.8577333 L33.1259259,93.7865333 L33.1259259,100.787867 C33.1259259,103.493467 33.6118519,106.104133 34.5007407,108.5724 C33.4340741,108.833467 32.3674074,109.082667 31.36,109.3912 C30.0444444,109.759067 28.7051852,110.198133 27.5318519,110.6728 C25.6355556,106.839867 24.4859259,102.579733 24.2725926,98.0585333 C24.0474074,98.0348 20.717037,98.6518667 20.4088889,98.8061333 C20.7288889,103.742667 22.0444444,108.418133 24.1422222,112.618933 C24,112.8088 23.917037,112.9868 23.8814815,113.141067 L23.917037,113.2004 C23.917037,113.2004 25.7777778,116.416267 25.8725926,116.558667 C25.9555556,116.712933 26.1333333,116.807867 26.2874074,116.855333 C26.002963,116.6536 26.1333333,116.428133 26.2044444,116.345067 C26.962963,115.277067 30.1985185,113.959867 32.4622222,113.3428 C33.682963,112.9868 34.962963,112.678267 36.2903704,112.393467 C37.2859259,114.102267 38.4948148,115.704267 39.9407407,117.140133 C43.922963,121.1036 48.9718519,123.465067 54.3407407,123.927867 L54.3407407,133.0296 C5.98518519,146.344 -0.0474074074,192.505333 -0.0474074074,192.505333 L-0.0474074074,120.688267 C-0.0474074074,73.3402667 18.2637037,42.6412 54.3407407,31 L54.3407407,31 Z M58.3703704,64.3809333 L58.3703704,70.0294667 L74.5837037,70.0532 C69.9140741,66.8136 64.3674074,64.7606667 58.3703704,64.3809333 L58.3703704,64.3809333 Z M122.737778,102.567867 C113.220741,171.074133 43.7688889,134.1332 8.86518519,176.5684 C16.237037,157.2732 41.28,143.5316 58.3703704,140.137733 L58.3703704,132.448133 C68.9896296,131.8548 78.3644444,126.6572 84.562963,118.813333 C84.4562963,118.694667 81.4459259,117.0096 81.0903704,116.926533 C75.6148148,123.571867 67.5081481,127.962533 58.3703704,128.544 L58.3703704,123.916 C63.7748148,123.4532 68.8118519,121.115467 72.722963,117.211333 C74.5244444,115.4076 75.9822222,113.354667 77.0725926,111.1712 C81.4459259,114.505733 84.1007407,116.997733 84.7051852,118.243733 C85.2503704,119.382933 84.5748148,119.418533 84.48,119.477867 C84.8237037,119.454133 85.0133333,119.2524 85.1081481,119.086267 C85.2148148,118.932 85.5111111,118.445467 85.5111111,118.445467 C85.6177778,118.314933 88.7703704,113.580133 88.7703704,113.580133 C88.9244444,113.283467 88.877037,112.856267 88.64,112.357867 C90.6785185,108.2164 91.9466667,103.635867 92.2548148,98.7824 C91.9466667,98.6281333 88.6755556,97.9398667 88.4148148,97.9517333 C88.237037,101.867733 87.36,105.605733 85.9022222,109.047067 C84.2548148,107.480667 82.002963,105.641333 79.36,103.671467 C79.4666667,102.722133 79.5377778,101.796533 79.5377778,100.835333 L79.5377778,93.7865333 L79.917037,93.8577333 C85.1674074,94.902 91.1407407,96.7650667 92.4681481,98.5450667 C92.5511111,98.6281333 92.7407407,98.9129333 92.562963,99.1146667 C92.6459259,99.0672 92.8118519,98.9722667 92.8118519,98.8061333 L92.8118519,94.7121333 C92.7288889,94.4866667 92.5274074,94.2493333 92.242963,94.0001333 C91.922963,89.3009333 90.7140741,84.8390667 88.7585185,80.7925333 C88.3437037,80.6857333 84.3140741,80.306 84.1007407,80.306 C86.1392593,83.8185333 87.5377778,87.7464 88.1303704,91.9472 C85.9259259,91.1402667 83.117037,90.3808 80.0474074,89.7874667 C79.8814815,89.7518667 79.7155556,89.7162667 79.5377778,89.6925333 L79.5377778,77.6597333 C83.9348148,78.5972 87.2533333,79.6177333 88.877037,80.5670667 C89.2325926,80.7806667 89.0903704,80.9349333 88.9481481,80.9824 C89.1851852,80.9112 89.3155556,80.6976 89.2088889,80.5196 C89.1140741,80.3416 87.0281481,76.6154667 86.9688889,76.4968 L86.9333333,76.4730667 C86.6488889,76.2594667 86.2814815,76.0458667 85.8311111,75.8204 C79.7037037,67.0272 69.7362963,61.1176 58.3703704,60.4886667 L58.3703704,44.5754667 C58.3703704,44.5754667 85.8192593,34.1446667 124.882963,31.9374667 C124.882963,31.9374667 124.764444,64.6182667 123.721481,91.1758667 C123.555556,95.2698667 123.235556,99.0553333 122.737778,102.567867 L122.737778,102.567867 Z M74.7614815,78.4192 L72.0711111,78.4192 C72.1185185,76.7697333 73.3985185,76.39 73.3985185,76.39 L73.4222222,76.39 C73.4222222,76.39 74.6785185,76.7697333 74.7614815,78.4192 L74.7614815,78.4192 Z M45.8903704,112.796933 L43.9822222,114.719333 C42.8562963,113.497067 43.4962963,112.322267 43.4962963,112.322267 C43.52,112.322267 44.6696296,111.681467 45.8903704,112.796933 L45.8903704,112.796933 Z M69.2740741,112.322267 C69.2859259,112.322267 69.9022222,113.497067 68.7881481,114.719333 L66.8918519,112.796933 C68.1244444,111.681467 69.2622222,112.322267 69.2622222,112.322267 L69.2740741,112.322267 L69.2740741,112.322267 Z M57.682963,78.4192 L55.0044444,78.4192 C55.04,76.7697333 56.3081481,76.39 56.32,76.39 C56.3318519,76.39 57.6,76.7697333 57.682963,78.4192 L57.682963,78.4192 Z M74.7614815,96.2192 L72.0711111,96.2192 C72.1185185,94.5816 73.3985185,94.2018667 73.3985185,94.2018667 L73.4222222,94.2018667 C73.4222222,94.2018667 74.6785185,94.5816 74.7614815,96.2192 L74.7614815,96.2192 Z M40.4266667,78.4192 L37.7481481,78.4192 C37.8074074,76.7697333 39.0755556,76.39 39.0874074,76.39 C39.0992593,76.39 40.3555556,76.7697333 40.4266667,78.4192 L40.4266667,78.4192 Z M40.4266667,96.2192 L37.7481481,96.2192 C37.8074074,94.5816 39.0755556,94.2018667 39.0874074,94.2018667 C39.0992593,94.2018667 40.3555556,94.5816 40.4266667,96.2192 L40.4266667,96.2192 Z M76.242963,79.3922667 L70.5777778,79.3922667 C70.3051852,79.3922667 70.1037037,79.1668 70.1037037,78.9176 C70.1037037,78.6565333 70.3051852,78.4192 70.5777778,78.4192 L70.6725926,78.4192 L70.8622222,76.4493333 C70.6014815,76.4256 70.4237037,76.2238667 70.4237037,75.9628 C70.4237037,75.678 70.637037,75.4762667 70.9096296,75.4762667 L70.957037,75.4762667 L71.0162963,74.5862667 L70.7911111,74.5862667 L70.6962963,74.4913333 L70.6962963,73.8624 L70.9925926,73.8624 L70.9925926,74.1828 L71.3955556,74.1828 L71.3955556,73.8624 L71.6918519,73.8624 L71.6918519,74.1828 L72.1185185,74.1828 L72.1185185,73.8624 L72.4148148,73.8624 L72.4148148,74.5032 L72.3081481,74.5862667 L72.0948148,74.5862667 L72.1422222,75.4762667 L72.6992593,75.4762667 L72.8059259,73.5776 L72.6637037,73.5776 L72.557037,73.4708 L72.557037,72.8656 L72.8414815,72.8656 L72.8414815,73.1504 L73.2562963,73.1504 L73.2562963,72.8656 L73.5525926,72.8656 L73.5525926,73.1504 L73.9674074,73.1504 L73.9674074,72.8656 L74.2518519,72.8656 L74.2518519,73.4708 L74.157037,73.5776 L74.002963,73.5776 L74.1214815,75.4762667 L74.6548148,75.4762667 L74.7140741,74.5862667 L74.5007407,74.5862667 L74.4059259,74.4913333 L74.4059259,73.8624 L74.6785185,73.8624 L74.6785185,74.1828 L75.0933333,74.1828 L75.0933333,73.8624 L75.4014815,73.8624 L75.4014815,74.1828 L75.8162963,74.1828 L75.8162963,73.8624 L76.0888889,73.8624 L76.0888889,74.5032 L75.9940741,74.5862667 L75.7925926,74.5862667 L75.84,75.4762667 L75.8992593,75.4762667 C76.1718519,75.4762667 76.397037,75.678 76.397037,75.9628 C76.397037,76.2238667 76.1955556,76.4374667 75.9466667,76.4612 L76.16,78.4192 L76.242963,78.4192 C76.5155556,78.4192 76.717037,78.6565333 76.717037,78.9176 C76.717037,79.1668 76.5155556,79.3922667 76.242963,79.3922667 L76.242963,79.3922667 Z M76.242963,97.1685333 L70.5777778,97.1685333 C70.3051852,97.1685333 70.1037037,96.9668 70.1037037,96.7176 C70.1037037,96.4328 70.3051852,96.2192 70.5777778,96.2192 L70.6725926,96.2192 L70.8622222,94.2493333 C70.6014815,94.2137333 70.4237037,94.012 70.4237037,93.7628 C70.4237037,93.4898667 70.637037,93.2644 70.9096296,93.2644 L70.957037,93.2644 L71.0162963,92.3862667 L70.7911111,92.3862667 L70.6962963,92.2913333 L70.6962963,91.6624 L70.9925926,91.6624 L70.9925926,91.9946667 L71.3955556,91.9946667 L71.3955556,91.6624 L71.6918519,91.6624 L71.6918519,91.9946667 L72.1185185,91.9946667 L72.1185185,91.6624 L72.4148148,91.6624 L72.4148148,92.2913333 L72.3081481,92.3862667 L72.0948148,92.3862667 L72.1422222,93.2644 L72.6992593,93.2644 L72.8059259,91.3657333 L72.6637037,91.3657333 L72.557037,91.2589333 L72.557037,90.6537333 L72.8414815,90.6537333 L72.8414815,90.9622667 L73.2562963,90.9622667 L73.2562963,90.6537333 L73.5525926,90.6537333 L73.5525926,90.9622667 L73.9674074,90.9622667 L73.9674074,90.6537333 L74.2518519,90.6537333 L74.2518519,91.2826667 L74.157037,91.3657333 L74.002963,91.3657333 L74.1214815,93.2644 L74.6548148,93.2644 L74.7140741,92.3862667 L74.5007407,92.3862667 L74.4059259,92.2913333 L74.4059259,91.6624 L74.6785185,91.6624 L74.6785185,91.9946667 L75.0933333,91.9946667 L75.0933333,91.6624 L75.4014815,91.6624 L75.4014815,91.9946667 L75.8162963,91.9946667 L75.8162963,91.6624 L76.0888889,91.6624 L76.0888889,92.2913333 L75.9940741,92.3862667 L75.7925926,92.3862667 L75.84,93.2644 L75.8992593,93.2644 C76.1718519,93.2644 76.397037,93.4898667 76.397037,93.7628 C76.397037,94.0238667 76.1955556,94.2256 75.9466667,94.2493333 L76.16,96.2192 L76.242963,96.2192 C76.5155556,96.2192 76.717037,96.4328 76.717037,96.7176 C76.717037,96.9668 76.5155556,97.1685333 76.242963,97.1685333 L76.242963,97.1685333 Z M72.5451852,112.903733 L72.402963,112.903733 L72.2844444,112.785067 L72.2488889,112.749467 L71.6681481,113.390267 L71.6918519,113.414 C71.9051852,113.6276 71.9051852,113.948 71.6918519,114.126 C71.5259259,114.315867 71.2296296,114.315867 71.0281481,114.185333 L69.7718519,115.6924 L69.842963,115.7636 C70.0325926,115.9416 70.0325926,116.250133 69.842963,116.44 C69.6414815,116.6536 69.3333333,116.6536 69.1555556,116.44 L65.1377778,112.4528 C64.96,112.251067 64.96,111.942533 65.1377778,111.764533 C65.3511111,111.550933 65.6592593,111.550933 65.8607407,111.7408 L65.9081481,111.823867 L67.437037,110.577867 C67.2711111,110.364267 67.2711111,110.091333 67.4607407,109.901467 C67.6622222,109.7116 67.9940741,109.7116 68.1718519,109.901467 L68.2192593,109.948933 L68.8711111,109.3556 L68.8237037,109.331867 L68.717037,109.2132 L68.717037,109.0708 L69.1555556,108.6436 L69.3688889,108.833467 L69.1318519,109.0708 L69.44,109.3556 L69.6414815,109.130133 L69.8666667,109.343733 L69.6414815,109.5692 L69.9377778,109.854 L70.1392593,109.652267 L70.3525926,109.842133 L69.9140741,110.2812 L69.7718519,110.2812 L69.6651852,110.1744 L69.6296296,110.126933 L69.0725926,110.7796 L69.44,111.147467 L70.8503704,109.901467 L70.7555556,109.806533 L70.7318519,109.664133 L71.1822222,109.2132 L71.3718519,109.414933 L71.1585185,109.6404 L71.4666667,109.937067 L71.6681481,109.7116 L71.8814815,109.937067 L71.6681481,110.150667 L71.9644444,110.447333 L72.1896296,110.233733 L72.3792593,110.435467 L71.9407407,110.862667 L71.7985185,110.862667 L71.6918519,110.744 L70.4355556,112.156133 L70.8266667,112.547733 L71.4785185,111.99 L71.442963,111.942533 L71.3362963,111.835733 L71.3362963,111.7052 L71.7748148,111.254267 L71.9644444,111.467867 L71.7511111,111.681467 L72.0474074,111.978133 L72.2725926,111.7408 L72.4740741,111.966267 L72.2725926,112.179867 L72.557037,112.464667 L72.7703704,112.251067 L72.96,112.4528 L72.5451852,112.903733 L72.5451852,112.903733 Z M47.1703704,109.913333 C44.6933333,107.445067 43.3303704,104.2292 43.3303704,100.870933 L43.3540741,80.4009333 L69.1792593,80.4128 L69.1792593,100.870933 C69.1792593,104.288533 67.84,107.492533 65.4103704,109.913333 C62.957037,112.369733 59.7214815,113.710667 56.2962963,113.710667 C52.8592593,113.710667 49.6118519,112.357867 47.1703704,109.913333 L47.1703704,109.913333 Z M47.6325926,112.4528 L43.6266667,116.44 C43.437037,116.6536 43.1288889,116.6536 42.9392593,116.44 C42.7377778,116.250133 42.7377778,115.9416 42.9392593,115.7636 L42.9985185,115.6924 L41.7540741,114.185333 C41.5407407,114.315867 41.2562963,114.315867 41.0785185,114.126 C40.877037,113.948 40.877037,113.6276 41.0785185,113.414 L41.1022222,113.390267 L40.5333333,112.749467 L40.4859259,112.785067 L40.3792593,112.903733 L40.2488889,112.903733 L39.8103704,112.4528 L40,112.251067 L40.237037,112.464667 L40.5214815,112.179867 L40.2962963,111.966267 L40.5214815,111.7408 L40.7348148,111.978133 L41.0311111,111.681467 L40.7940741,111.467867 L40.9955556,111.254267 L41.4459259,111.7052 L41.4459259,111.835733 L41.3274074,111.942533 L41.2918519,111.99 L41.9555556,112.547733 L42.3466667,112.156133 L41.0785185,110.744 L40.9718519,110.862667 L40.8296296,110.862667 L40.402963,110.435467 L40.6044444,110.233733 L40.8177778,110.447333 L41.1140741,110.150667 L40.9007407,109.937067 L41.1022222,109.7116 L41.3274074,109.937067 L41.6237037,109.6404 L41.3985185,109.414933 L41.6237037,109.2132 L42.0503704,109.664133 L42.0503704,109.806533 L41.92,109.901467 L43.3422222,111.147467 L43.7214815,110.7796 L43.1407407,110.126933 L43.0933333,110.1744 L42.9985185,110.2812 L42.8444444,110.2812 L42.4177778,109.842133 L42.6311111,109.652267 L42.8444444,109.854 L43.1288889,109.5692 L42.9037037,109.343733 L43.1288889,109.130133 L43.3422222,109.3556 L43.6385185,109.0708 L43.4251852,108.833467 L43.6266667,108.6436 L44.0651852,109.0708 L44.0651852,109.2132 L43.9585185,109.331867 L43.9111111,109.3556 L44.5511111,109.948933 L44.6103704,109.901467 C44.7881481,109.7116 45.12,109.7116 45.3096296,109.901467 C45.4874074,110.091333 45.4874074,110.364267 45.3451852,110.577867 L46.8622222,111.823867 L46.9333333,111.7408 C47.122963,111.550933 47.4311111,111.550933 47.6325926,111.764533 C47.8103704,111.942533 47.8103704,112.251067 47.6325926,112.4528 L47.6325926,112.4528 Z M35.7807407,96.7176 C35.7807407,96.4328 36.0059259,96.2192 36.2548148,96.2192 L36.3496296,96.2192 L36.5392593,94.2493333 C36.2903704,94.2137333 36.0888889,94.012 36.0888889,93.7628 C36.0888889,93.4898667 36.3259259,93.2644 36.5866667,93.2644 L36.6340741,93.2644 L36.6696296,92.3862667 L36.48,92.3862667 L36.3733333,92.2913333 L36.3733333,91.6624 L36.6577778,91.6624 L36.6577778,91.9946667 L37.0725926,91.9946667 L37.0725926,91.6624 L37.3807407,91.6624 L37.3807407,91.9946667 L37.7837037,91.9946667 L37.7837037,91.6624 L38.0918519,91.6624 L38.0918519,92.2913333 L37.9851852,92.3862667 L37.7718519,92.3862667 L37.8192593,93.2644 L38.3762963,93.2644 L38.482963,91.3657333 L38.3288889,91.3657333 L38.2340741,91.2589333 L38.2340741,90.6537333 L38.5185185,90.6537333 L38.5185185,90.9622667 L38.9333333,90.9622667 L38.9333333,90.6537333 L39.2296296,90.6537333 L39.2296296,90.9622667 L39.6325926,90.9622667 L39.6325926,90.6537333 L39.9288889,90.6537333 L39.9288889,91.2826667 L39.8340741,91.3657333 L39.68,91.3657333 L39.7866667,93.2644 L40.3318519,93.2644 L40.3792593,92.3862667 L40.1659259,92.3862667 L40.082963,92.2913333 L40.082963,91.6624 L40.3555556,91.6624 L40.3555556,91.9946667 L40.7703704,91.9946667 L40.7703704,91.6624 L41.0785185,91.6624 L41.0785185,91.9946667 L41.4933333,91.9946667 L41.4933333,91.6624 L41.7777778,91.6624 L41.7777778,92.2913333 L41.682963,92.3862667 L41.4696296,92.3862667 L41.517037,93.2644 L41.5762963,93.2644 C41.8488889,93.2644 42.0740741,93.4898667 42.0740741,93.7628 C42.0740741,94.0238667 41.8844444,94.2256 41.6237037,94.2493333 L41.8251852,96.2192 L41.9081481,96.2192 C42.1807407,96.2192 42.4059259,96.4328 42.4059259,96.7176 C42.4059259,96.9668 42.1807407,97.1685333 41.9081481,97.1685333 L36.2548148,97.1685333 C36.0059259,97.1685333 35.7807407,96.9668 35.7807407,96.7176 L35.7807407,96.7176 Z M36.2548148,78.4192 L36.3496296,78.4192 L36.5392593,76.4493333 C36.2903704,76.4256 36.0888889,76.2238667 36.0888889,75.9628 C36.0888889,75.678 36.3259259,75.4762667 36.5866667,75.4762667 L36.6340741,75.4762667 L36.6696296,74.5862667 L36.48,74.5862667 L36.3733333,74.4913333 L36.3733333,73.8624 L36.6577778,73.8624 L36.6577778,74.1828 L37.0725926,74.1828 L37.0725926,73.8624 L37.3807407,73.8624 L37.3807407,74.1828 L37.7837037,74.1828 L37.7837037,73.8624 L38.0918519,73.8624 L38.0918519,74.5032 L37.9851852,74.5862667 L37.7718519,74.5862667 L37.8192593,75.4762667 L38.3762963,75.4762667 L38.482963,73.5776 L38.3288889,73.5776 L38.2340741,73.4708 L38.2340741,72.8656 L38.5185185,72.8656 L38.5185185,73.1504 L38.9333333,73.1504 L38.9333333,72.8656 L39.2296296,72.8656 L39.2296296,73.1504 L39.6325926,73.1504 L39.6325926,72.8656 L39.9288889,72.8656 L39.9288889,73.4708 L39.8340741,73.5776 L39.68,73.5776 L39.7866667,75.4762667 L40.3318519,75.4762667 L40.3792593,74.5862667 L40.1659259,74.5862667 L40.082963,74.4913333 L40.082963,73.8624 L40.3555556,73.8624 L40.3555556,74.1828 L40.7703704,74.1828 L40.7703704,73.8624 L41.0785185,73.8624 L41.0785185,74.1828 L41.4933333,74.1828 L41.4933333,73.8624 L41.7777778,73.8624 L41.7777778,74.5032 L41.682963,74.5862667 L41.4696296,74.5862667 L41.517037,75.4762667 L41.5762963,75.4762667 C41.8488889,75.4762667 42.0740741,75.678 42.0740741,75.9628 C42.0740741,76.2238667 41.8844444,76.4374667 41.6237037,76.4612 L41.8251852,78.4192 L41.9081481,78.4192 C42.1807407,78.4192 42.4059259,78.6565333 42.4059259,78.9176 C42.4059259,79.1668 42.1807407,79.3922667 41.9081481,79.3922667 L36.2548148,79.3922667 C36.0059259,79.3922667 35.7807407,79.1668 35.7807407,78.9176 C35.7807407,78.6565333 36.0059259,78.4192 36.2548148,78.4192 L36.2548148,78.4192 Z M53.5111111,78.4192 L53.5822222,78.4192 L53.7837037,76.4493333 C53.5348148,76.4256 53.3333333,76.2238667 53.3333333,75.9628 C53.3333333,75.678 53.5585185,75.4762667 53.8311111,75.4762667 L53.8785185,75.4762667 L53.9377778,74.5862667 L53.7125926,74.5862667 L53.6177778,74.4913333 L53.6177778,73.8624 L53.9022222,73.8624 L53.9022222,74.1828 L54.3288889,74.1828 L54.3288889,73.8624 L54.6133333,73.8624 L54.6133333,74.1828 L55.0281481,74.1828 L55.0281481,73.8624 L55.3362963,73.8624 L55.3362963,74.5032 L55.2177778,74.5862667 L55.0044444,74.5862667 L55.0755556,75.4762667 L55.6207407,75.4762667 L55.7274074,73.5776 L55.5851852,73.5776 L55.4785185,73.4708 L55.4785185,72.8656 L55.7511111,72.8656 L55.7511111,73.1504 L56.1777778,73.1504 L56.1777778,72.8656 L56.4622222,72.8656 L56.4622222,73.1504 L56.8888889,73.1504 L56.8888889,72.8656 L57.1733333,72.8656 L57.1733333,73.4708 L57.0785185,73.5776 L56.9244444,73.5776 L57.0192593,75.4762667 L57.5644444,75.4762667 L57.6237037,74.5862667 L57.4103704,74.5862667 L57.3155556,74.4913333 L57.3155556,73.8624 L57.6,73.8624 L57.6,74.1828 L58.0148148,74.1828 L58.0148148,73.8624 L58.3111111,73.8624 L58.3111111,74.1828 L58.7377778,74.1828 L58.7377778,73.8624 L59.0103704,73.8624 L59.0103704,74.5032 L58.9274074,74.5862667 L58.7022222,74.5862667 L58.7614815,75.4762667 L58.8207407,75.4762667 C59.1051852,75.4762667 59.3185185,75.678 59.3185185,75.9628 C59.3185185,76.2238667 59.1288889,76.4374667 58.8681481,76.4612 L59.0577778,78.4192 L59.1525926,78.4192 C59.4251852,78.4192 59.6385185,78.6565333 59.6385185,78.9176 C59.6385185,79.1668 59.4251852,79.3922667 59.1525926,79.3922667 L53.5111111,79.3922667 C53.2266667,79.3922667 53.0251852,79.1668 53.0251852,78.9176 C53.0251852,78.6565333 53.2266667,78.4192 53.5111111,78.4192 L53.5111111,78.4192 Z M34.6903704,71.7026667 L34.6548148,100.8472 L34.6548148,100.870933 C34.6548148,106.7568 37.0962963,112.1324 41.0311111,116.0484 C44.9422222,119.976267 50.3585185,122.408933 56.2962963,122.408933 C62.2340741,122.408933 67.6266667,119.988133 71.5377778,116.072133 C75.4488889,112.2036 77.8666667,106.804267 77.8666667,100.870933 L77.8666667,71.7026667 L34.6903704,71.7026667 L34.6903704,71.7026667 Z M65.682963,95.7089333 C65.3392593,95.7089333 65.042963,95.4122667 65.042963,95.0562667 C65.042963,94.7002667 65.3392593,94.4036 65.682963,94.4036 C66.0622222,94.4036 66.3466667,94.7002667 66.3466667,95.0562667 C66.3466667,95.4122667 66.0622222,95.7089333 65.682963,95.7089333 L65.682963,95.7089333 Z M65.682963,98.64 C65.3392593,98.64 65.042963,98.3552 65.042963,97.9873333 C65.042963,97.6313333 65.3392593,97.3346667 65.682963,97.3346667 C66.0622222,97.3346667 66.3466667,97.6313333 66.3466667,97.9873333 C66.3466667,98.3552 66.0622222,98.64 65.682963,98.64 L65.682963,98.64 Z M64.2251852,97.1685333 C63.8696296,97.1685333 63.5733333,96.8837333 63.5733333,96.5277333 C63.5733333,96.1598667 63.8696296,95.8750667 64.2251852,95.8750667 C64.5925926,95.8750667 64.877037,96.1598667 64.877037,96.5277333 C64.877037,96.8837333 64.5925926,97.1685333 64.2251852,97.1685333 L64.2251852,97.1685333 Z M62.7674074,95.7089333 C62.4118519,95.7089333 62.1155556,95.4122667 62.1155556,95.0562667 C62.1155556,94.7002667 62.4118519,94.4036 62.7674074,94.4036 C63.122963,94.4036 63.4074074,94.7002667 63.4074074,95.0562667 C63.4074074,95.4122667 63.122963,95.7089333 62.7674074,95.7089333 L62.7674074,95.7089333 Z M62.7674074,98.64 C62.4118519,98.64 62.1155556,98.3552 62.1155556,97.9873333 C62.1155556,97.6313333 62.4118519,97.3346667 62.7674074,97.3346667 C63.122963,97.3346667 63.4074074,97.6313333 63.4074074,97.9873333 C63.4074074,98.3552 63.122963,98.64 62.7674074,98.64 L62.7674074,98.64 Z M61.3688889,93.4424 L61.3688889,97.5245333 C61.3688889,99.5537333 62.9925926,100.586133 64.2251852,100.586133 C65.4696296,100.586133 67.0933333,99.5537333 67.0933333,97.5245333 L67.0933333,93.4424 L61.3688889,93.4424 L61.3688889,93.4424 Z M46.9807407,97.3346667 C47.3362963,97.3346667 47.6207407,97.6313333 47.6207407,97.9873333 C47.6207407,98.3552 47.3362963,98.64 46.9807407,98.64 C46.6251852,98.64 46.317037,98.3552 46.317037,97.9873333 C46.317037,97.6313333 46.6251852,97.3346667 46.9807407,97.3346667 L46.9807407,97.3346667 Z M46.9807407,94.4036 C47.3362963,94.4036 47.6207407,94.7002667 47.6207407,95.0562667 C47.6207407,95.4122667 47.3362963,95.7089333 46.9807407,95.7089333 C46.6251852,95.7089333 46.317037,95.4122667 46.317037,95.0562667 C46.317037,94.7002667 46.6251852,94.4036 46.9807407,94.4036 L46.9807407,94.4036 Z M48.4385185,95.8750667 C48.7822222,95.8750667 49.0903704,96.1598667 49.0903704,96.5277333 C49.0903704,96.8837333 48.7822222,97.1685333 48.4385185,97.1685333 C48.0711111,97.1685333 47.7866667,96.8837333 47.7866667,96.5277333 C47.7866667,96.1598667 48.0711111,95.8750667 48.4385185,95.8750667 L48.4385185,95.8750667 Z M49.8962963,97.3346667 C50.2518519,97.3346667 50.5481481,97.6313333 50.5481481,97.9873333 C50.5481481,98.3552 50.2518519,98.64 49.8962963,98.64 C49.5407407,98.64 49.2444444,98.3552 49.2444444,97.9873333 C49.2444444,97.6313333 49.5407407,97.3346667 49.8962963,97.3346667 L49.8962963,97.3346667 Z M49.8962963,94.4036 C50.2518519,94.4036 50.5481481,94.7002667 50.5481481,95.0562667 C50.5481481,95.4122667 50.2518519,95.7089333 49.8962963,95.7089333 C49.5407407,95.7089333 49.2444444,95.4122667 49.2444444,95.0562667 C49.2444444,94.7002667 49.5407407,94.4036 49.8962963,94.4036 L49.8962963,94.4036 Z M45.5822222,97.5245333 C45.5822222,99.5537333 47.1940741,100.586133 48.4385185,100.586133 C49.6592593,100.586133 51.2948148,99.5537333 51.2948148,97.5245333 L51.2948148,93.4424 L45.5822222,93.4424 L45.5822222,97.5245333 L45.5822222,97.5245333 Z M54.2222222,97.9873333 C54.2222222,97.6313333 54.5066667,97.3346667 54.8740741,97.3346667 C55.2296296,97.3346667 55.5259259,97.6313333 55.5259259,97.9873333 C55.5259259,98.3552 55.2296296,98.64 54.8740741,98.64 C54.5066667,98.64 54.2222222,98.3552 54.2222222,97.9873333 L54.2222222,97.9873333 Z M54.8740741,94.4036 C55.2296296,94.4036 55.5259259,94.7002667 55.5259259,95.0562667 C55.5259259,95.4122667 55.2296296,95.7089333 54.8740741,95.7089333 C54.5066667,95.7089333 54.2222222,95.4122667 54.2222222,95.0562667 C54.2222222,94.7002667 54.5066667,94.4036 54.8740741,94.4036 L54.8740741,94.4036 Z M56.3318519,95.8750667 C56.6874074,95.8750667 56.9718519,96.1598667 56.9718519,96.5277333 C56.9718519,96.8837333 56.6874074,97.1685333 56.3318519,97.1685333 C55.9762963,97.1685333 55.6918519,96.8837333 55.6918519,96.5277333 C55.6918519,96.1598667 55.9762963,95.8750667 56.3318519,95.8750667 L56.3318519,95.8750667 Z M57.8014815,97.3346667 C58.157037,97.3346667 58.4414815,97.6313333 58.4414815,97.9873333 C58.4414815,98.3552 58.157037,98.64 57.8014815,98.64 C57.4340741,98.64 57.1377778,98.3552 57.1377778,97.9873333 C57.1377778,97.6313333 57.4340741,97.3346667 57.8014815,97.3346667 L57.8014815,97.3346667 Z M57.8014815,94.4036 C58.157037,94.4036 58.4414815,94.7002667 58.4414815,95.0562667 C58.4414815,95.4122667 58.157037,95.7089333 57.8014815,95.7089333 C57.4340741,95.7089333 57.1377778,95.4122667 57.1377778,95.0562667 C57.1377778,94.7002667 57.4340741,94.4036 57.8014815,94.4036 L57.8014815,94.4036 Z M56.3318519,100.586133 C57.5644444,100.586133 59.1881481,99.5537333 59.1881481,97.5245333 L59.1881481,93.4424 L53.4755556,93.4424 L53.4755556,97.5245333 C53.4755556,99.5537333 55.0992593,100.586133 56.3318519,100.586133 L56.3318519,100.586133 Z M54.8740741,107.2196 C55.2296296,107.2196 55.5259259,107.5044 55.5259259,107.8604 C55.5259259,108.2164 55.2296296,108.524933 54.8740741,108.524933 C54.5066667,108.524933 54.2222222,108.2164 54.2222222,107.8604 C54.2222222,107.5044 54.5066667,107.2196 54.8740741,107.2196 L54.8740741,107.2196 Z M54.8740741,104.276667 C55.2296296,104.276667 55.5259259,104.5852 55.5259259,104.9412 C55.5259259,105.2972 55.2296296,105.582 54.8740741,105.582 C54.5066667,105.582 54.2222222,105.2972 54.2222222,104.9412 C54.2222222,104.5852 54.5066667,104.276667 54.8740741,104.276667 L54.8740741,104.276667 Z M56.3318519,105.748133 C56.6874074,105.748133 56.9718519,106.032933 56.9718519,106.4008 C56.9718519,106.7568 56.6874074,107.053467 56.3318519,107.053467 C55.9762963,107.053467 55.6918519,106.7568 55.6918519,106.4008 C55.6918519,106.032933 55.9762963,105.748133 56.3318519,105.748133 L56.3318519,105.748133 Z M57.8014815,107.2196 C58.157037,107.2196 58.4414815,107.5044 58.4414815,107.8604 C58.4414815,108.2164 58.157037,108.524933 57.8014815,108.524933 C57.4340741,108.524933 57.1377778,108.2164 57.1377778,107.8604 C57.1377778,107.5044 57.4340741,107.2196 57.8014815,107.2196 L57.8014815,107.2196 Z M57.8014815,104.276667 C58.157037,104.276667 58.4414815,104.5852 58.4414815,104.9412 C58.4414815,105.2972 58.157037,105.582 57.8014815,105.582 C57.4340741,105.582 57.1377778,105.2972 57.1377778,104.9412 C57.1377778,104.5852 57.4340741,104.276667 57.8014815,104.276667 L57.8014815,104.276667 Z M53.4755556,107.421333 C53.4755556,109.4268 55.0992593,110.471067 56.3318519,110.471067 C57.5644444,110.471067 59.1881481,109.4268 59.1881481,107.421333 L59.1881481,103.315467 L53.4755556,103.315467 L53.4755556,107.421333 L53.4755556,107.421333 Z M54.8740741,87.4616 C55.2296296,87.4616 55.5259259,87.7464 55.5259259,88.1024 C55.5259259,88.4702667 55.2296296,88.7669333 54.8740741,88.7669333 C54.5066667,88.7669333 54.2222222,88.4702667 54.2222222,88.1024 C54.2222222,87.7464 54.5066667,87.4616 54.8740741,87.4616 L54.8740741,87.4616 Z M54.8740741,84.5305333 C55.2296296,84.5305333 55.5259259,84.8272 55.5259259,85.1832 C55.5259259,85.5392 55.2296296,85.824 54.8740741,85.824 C54.5066667,85.824 54.2222222,85.5392 54.2222222,85.1832 C54.2222222,84.8272 54.5066667,84.5305333 54.8740741,84.5305333 L54.8740741,84.5305333 Z M56.3318519,85.9901333 C56.6874074,85.9901333 56.9718519,86.2868 56.9718519,86.6546667 C56.9718519,86.9988 56.6874074,87.2954667 56.3318519,87.2954667 C55.9762963,87.2954667 55.6918519,86.9988 55.6918519,86.6546667 C55.6918519,86.2868 55.9762963,85.9901333 56.3318519,85.9901333 L56.3318519,85.9901333 Z M57.8014815,87.4616 C58.157037,87.4616 58.4414815,87.7464 58.4414815,88.1024 C58.4414815,88.4702667 58.157037,88.7669333 57.8014815,88.7669333 C57.4340741,88.7669333 57.1377778,88.4702667 57.1377778,88.1024 C57.1377778,87.7464 57.4340741,87.4616 57.8014815,87.4616 L57.8014815,87.4616 Z M57.8014815,84.5305333 C58.157037,84.5305333 58.4414815,84.8272 58.4414815,85.1832 C58.4414815,85.5392 58.157037,85.824 57.8014815,85.824 C57.4340741,85.824 57.1377778,85.5392 57.1377778,85.1832 C57.1377778,84.8272 57.4340741,84.5305333 57.8014815,84.5305333 L57.8014815,84.5305333 Z M53.4755556,87.6514667 C53.4755556,89.6688 55.0992593,90.7130667 56.3318519,90.7130667 C57.5644444,90.7130667 59.1881481,89.6688 59.1881481,87.6514667 L59.1881481,83.5574667 L53.4755556,83.5574667 L53.4755556,87.6514667 L53.4755556,87.6514667 Z M48.2251852,164.369467 L48.2251852,208.596533 C48.2251852,208.596533 2.93925926,209.439067 5.02518519,190.31 C8.41481481,167.585333 48.2251852,164.369467 48.2251852,164.369467 L48.2251852,164.369467 Z M511.17037,110.3524 L511.17037,107.563733 C512.841481,107.1484 514.868148,106.8636 516.811852,106.709333 L516.811852,70.2193333 C514.868148,70.0769333 512.841481,69.7446667 511.17037,69.3649333 L511.17037,66.5762667 L539.828148,66.5762667 L539.828148,76.2950667 L536.533333,76.2950667 C536.142222,74.1709333 535.68,72.0112 535.561481,70.4685333 L521.718519,70.4685333 L521.718519,85.9070667 L531.887407,85.9070667 C532.16,84.222 532.48,82.5962667 532.93037,81.1604 L535.857778,81.1604 L535.857778,94.3917333 L532.93037,94.3917333 C532.48,92.9796 532.088889,91.2114667 531.887407,89.6569333 L521.718519,89.6569333 L521.718519,106.305867 L535.620741,106.305867 C535.822222,104.632667 536.201481,102.4848 536.675556,100.360667 L539.946667,100.360667 L539.946667,110.3524 L511.17037,110.3524 L511.17037,110.3524 Z M486.459259,70.3973333 C484.041481,70.3973333 481.137778,70.5278667 479.336296,70.5872 L479.336296,105.997333 C481.137778,106.2584 483.792593,106.448267 485.594074,106.448267 C496.675556,106.448267 504.32,100.8116 504.32,88.3634667 C504.32,76.4968 498.299259,70.3973333 486.459259,70.3973333 L486.459259,70.3973333 Z M484.965926,110.518533 C480.628148,110.518533 476.93037,110.3524 474.405926,110.3524 L468.764444,110.3524 L468.764444,107.563733 C470.435556,107.1484 472.462222,106.8636 474.405926,106.709333 L474.405926,70.2193333 C472.462222,70.0769333 470.435556,69.7446667 468.764444,69.3649333 L468.764444,66.5762667 L474.346667,66.5762667 C477.76,66.5762667 482.488889,66.3864 487.028148,66.3864 C501.202963,66.3864 509.475556,73.1266667 509.475556,88.0430667 C509.475556,103.066267 499.33037,110.518533 484.965926,110.518533 L484.965926,110.518533 Z M431.573333,70.2668 C423.845926,70.2668 416.983704,76.5561333 416.983704,88.0430667 C416.983704,98.9841333 421.736296,106.5788 431.573333,106.5788 C439.194074,106.5788 446.198519,100.360667 446.198519,88.7432 C446.198519,77.0189333 440.817778,70.2668 431.573333,70.2668 L431.573333,70.2668 Z M431.04,110.933867 C417.979259,110.933867 411.674074,102.152533 411.674074,88.9449333 C411.674074,74.2065333 420.954074,65.9829333 432.201481,65.9829333 C444.041481,65.9829333 451.496296,73.898 451.496296,87.9718667 C451.496296,102.639067 442.24,110.933867 431.04,110.933867 L431.04,110.933867 Z M404.171852,70.2668 L404.171852,110.3524 L397.582222,110.3524 L379.259259,81.2909333 C377.303704,78.0988 375.608889,75.2033333 374.198519,72.3553333 C374.648889,80.1873333 374.648889,92.9796 374.648889,106.638133 C376.474074,106.780533 378.405926,107.0772 380.017778,107.563733 L380.017778,110.3524 L364.16,110.3524 L364.16,107.563733 C365.842963,107.1484 367.857778,106.780533 369.801481,106.638133 L369.801481,70.2193333 C367.857778,70.0769333 365.842963,69.7446667 364.16,69.3649333 L364.16,66.5762667 L376.414815,66.5762667 L394.536296,95.2936 C396.408889,98.3433333 398.091852,101.262533 399.715556,104.3716 C399.324444,96.6582667 399.265185,83.9490667 399.265185,70.2668 C397.451852,70.1481333 395.555556,69.7921333 394.026667,69.3649333 L394.026667,66.5762667 L408.794074,66.5762667 L408.794074,69.3649333 C407.348148,69.7446667 405.724444,70.0769333 404.171852,70.2668 L404.171852,70.2668 Z M342.637037,70.338 C341.001481,70.338 339.662222,70.3973333 338.346667,70.5278667 L338.346667,86.2868 C339.081481,86.3461333 340.420741,86.4173333 342.376296,86.4173333 C349.108148,86.4173333 352.995556,82.9641333 352.995556,78.0988 C352.995556,72.4146667 349.30963,70.338 342.637037,70.338 L342.637037,70.338 Z M352.865185,110.3524 L339.401481,90.1078667 L338.346667,90.1078667 L338.346667,106.709333 C340.100741,106.8636 341.973333,107.0772 343.54963,107.563733 L343.54963,110.3524 L327.798519,110.3524 L327.798519,107.563733 C329.493333,107.1484 331.496296,106.8636 333.44,106.709333 L333.44,70.2193333 C331.496296,70.0769333 329.493333,69.7446667 327.798519,69.3649333 L327.798519,66.5762667 L332.788148,66.5762667 C334.542222,66.5762667 338.488889,66.3864 343.739259,66.3864 C351.964444,66.3864 358.162963,69.2225333 358.162963,77.3986667 C358.162963,84.8628 352.355556,89.1348 344.77037,89.6569333 C345.860741,90.9504 346.974815,92.5049333 347.958519,93.9289333 L356.681481,106.5788 C358.234074,106.780533 360.106667,107.0772 362.062222,107.480667 L362.062222,110.3524 L352.865185,110.3524 L352.865185,110.3524 Z M294.032593,110.3524 L294.032593,107.563733 C295.715556,107.1484 297.73037,106.8636 299.674074,106.709333 L299.674074,70.2193333 C297.73037,70.0769333 295.715556,69.7446667 294.032593,69.3649333 L294.032593,66.5762667 L322.714074,66.5762667 L322.714074,76.2950667 L319.383704,76.2950667 C319.016296,74.1709333 318.554074,72.0112 318.423704,70.4685333 L304.604444,70.4685333 L304.604444,85.9070667 L314.773333,85.9070667 C315.034074,84.222 315.342222,82.5962667 315.804444,81.1604 L318.708148,81.1604 L318.708148,94.3917333 L315.804444,94.3917333 C315.342222,92.9796 314.939259,91.2114667 314.773333,89.6569333 L304.604444,89.6569333 L304.604444,106.305867 L318.494815,106.305867 C318.672593,104.632667 319.075556,102.4848 319.537778,100.360667 L322.832593,100.360667 L322.832593,110.3524 L294.032593,110.3524 L294.032593,110.3524 Z M266.951111,95.6970667 C267.851852,98.284 269.072593,101.713467 269.985185,105.036133 L270.056296,105.036133 C270.897778,101.844 271.988148,98.6756 273.173333,95.2936 L282.287407,70.2193333 C280.485926,70.0769333 278.601481,69.7446667 276.977778,69.3649333 L276.977778,66.5762667 L291.543704,66.5762667 L291.543704,69.3649333 C290.453333,69.6853333 288.699259,70.0057333 287.466667,70.1481333 L272.580741,110.3524 L267.081481,110.3524 L252.634074,70.1481333 C251.413333,70.0057333 249.659259,69.6853333 248.568889,69.3649333 L248.568889,66.5762667 L263.561481,66.5762667 L263.561481,69.3649333 C261.973333,69.7446667 260.005926,70.0769333 258.216296,70.2193333 L266.951111,95.6970667 L266.951111,95.6970667 Z M228.906667,70.2668 C221.226667,70.2668 214.364444,76.5561333 214.364444,88.0430667 C214.364444,98.9841333 219.06963,106.5788 228.906667,106.5788 C236.551111,106.5788 243.567407,100.360667 243.567407,88.7432 C243.567407,77.0189333 238.186667,70.2668 228.906667,70.2668 L228.906667,70.2668 Z M228.373333,110.933867 C215.300741,110.933867 209.042963,102.152533 209.042963,88.9449333 C209.042963,74.2065333 218.287407,65.9829333 229.57037,65.9829333 C241.41037,65.9829333 248.853333,73.898 248.853333,87.9718667 C248.853333,102.639067 239.597037,110.933867 228.373333,110.933867 L228.373333,110.933867 Z M201.659259,91.9472 L201.659259,108.453733 C197.25037,110.055733 192,110.933867 187.413333,110.933867 C174.388148,110.933867 165.842963,102.864533 165.842963,89.2653333 C165.842963,75.9153333 174.58963,65.9829333 189.025185,65.9829333 C193.042963,65.9829333 196.859259,66.5762667 200.675556,67.6205333 L200.675556,77.28 L197.297778,77.28 C196.859259,75.0728 196.598519,73.1266667 196.456296,71.3110667 C193.742222,70.5872 191.028148,70.2193333 188.503704,70.2193333 C179.306667,70.2193333 171.117037,76.1882667 171.117037,88.6245333 C171.117037,100.147067 177.943704,106.638133 188.183704,106.638133 C191.348148,106.638133 194.062222,106.1872 196.66963,105.356533 L196.66963,91.9946667 C194.725926,91.8641333 192.722963,91.5437333 191.099259,91.0809333 L191.099259,88.3041333 L206.115556,88.3041333 L206.115556,91.0809333 C204.752593,91.4725333 203.2,91.7336 201.659259,91.9472 L201.659259,91.9472 Z M516.432593,173.1152 L516.432593,166.825867 C518.471111,166.4224 520.877037,166.054533 523.211852,165.8884 L523.211852,127.843867 C520.877037,127.677733 518.471111,127.309867 516.432593,126.9064 L516.432593,120.6052 L540.065185,120.6052 L540.065185,126.9064 C538.062222,127.309867 535.632593,127.677733 533.285926,127.843867 L533.285926,164.796667 L543.336296,164.796667 C543.49037,162.921733 543.881481,160.678933 544.284444,158.3412 L551.727407,158.3412 L551.727407,173.1152 L516.432593,173.1152 L516.432593,173.1152 Z M489.517037,138.986667 C488.50963,136.103067 487.727407,133.611067 487.111111,130.7156 L487.028148,130.7156 C486.388148,133.361867 485.62963,136.4116 484.539259,139.342667 L480.035556,151.8976 L494.174815,151.8976 L489.517037,138.986667 L489.517037,138.986667 Z M493.404444,173.1152 L493.404444,166.825867 C495.028148,166.517333 497.125926,166.113867 498.915556,165.9952 L496.663704,159.7652 L477.546667,159.7652 L475.377778,165.9952 C477.167407,166.113867 479.265185,166.517333 480.900741,166.825867 L480.900741,173.1152 L461.167407,173.1152 L461.167407,166.825867 C462.4,166.4224 463.952593,166.113867 465.256296,166.054533 L481.28,120.6052 L493.62963,120.6052 L509.961481,166.054533 C511.277037,166.113867 512.82963,166.4224 514.074074,166.825867 L514.074074,173.1152 L493.404444,173.1152 L493.404444,173.1152 Z M456.900741,152.8232 L456.900741,170.646933 C451.697778,172.747333 445.167407,173.8984 438.802963,173.8984 C422.245926,173.8984 412.468148,164.096533 412.468148,148.0884 C412.468148,131.3564 423.656296,119.833867 441.517037,119.833867 C446.411852,119.833867 451.306667,120.534 456.13037,121.78 L456.13037,135.865733 L448.355556,135.865733 C447.905185,133.611067 447.668148,131.593733 447.419259,129.564533 C445.321481,128.983067 443.06963,128.769467 440.995556,128.769467 C430.802963,128.769467 423.419259,135.2368 423.419259,147.139067 C423.419259,158.27 429.475556,164.796667 440.142222,164.796667 C442.607407,164.796667 444.788148,164.5 446.802963,163.871067 L446.802963,152.8944 C444.48,152.740133 442.062222,152.3604 440.142222,151.8976 L440.142222,145.572667 L461.274074,145.572667 L461.274074,152.04 C459.851852,152.3604 458.37037,152.585867 456.900741,152.8232 L456.900741,152.8232 Z M404.788148,127.843867 L404.788148,152.977467 C404.788148,166.897067 397.096296,173.981467 383.111111,173.981467 C366.542222,173.981467 362.832593,164.950933 362.832593,154.9236 L362.832593,127.843867 C361.114074,127.677733 359.407407,127.392933 357.925926,126.9776 L357.925926,120.6052 L378.500741,120.6052 L378.500741,126.9776 C376.734815,127.452267 374.708148,127.677733 372.918519,127.843867 L372.918519,154.294667 C372.918519,160.916267 375.028148,165.579867 383.727407,165.579867 C391.502222,165.579867 394.832593,162.316533 394.832593,153.369067 L394.832593,127.843867 C392.96,127.677733 390.957037,127.452267 389.25037,126.9776 L389.25037,120.6052 L409.6,120.6052 L409.6,126.9776 C408.118519,127.392933 406.494815,127.677733 404.788148,127.843867 L404.788148,127.843867 Z M346.299259,135.391067 C345.931852,132.994 345.540741,130.905467 345.386667,128.923733 L337.303704,128.923733 L337.303704,165.8884 C339.638519,166.054533 342.044444,166.4224 344.071111,166.825867 L344.071111,173.1152 L320.426667,173.1152 L320.426667,166.825867 C322.453333,166.4224 324.871111,166.054533 327.194074,165.8884 L327.194074,128.923733 L319.194074,128.923733 C319.051852,130.905467 318.648889,132.994 318.26963,135.391067 L310.802963,135.391067 L310.802963,120.6052 L353.765926,120.6052 L353.765926,135.391067 L346.299259,135.391067 L346.299259,135.391067 Z M286.802963,128.544 C285.416296,128.544 283.934815,128.6152 282.927407,128.769467 L282.927407,143.970667 C283.638519,144.018133 284.954074,144.113067 286.494815,144.113067 C292.634074,144.113067 296.284444,141.004 296.284444,136.103067 C296.284444,131.024133 293.25037,128.544 286.802963,128.544 L286.802963,128.544 Z M297.14963,173.1152 L284.325926,151.446667 L282.927407,151.446667 L282.927407,165.8884 C284.408889,166.054533 286.103704,166.28 287.68,166.754667 L287.68,173.1152 L266.074074,173.1152 L266.074074,166.825867 C268.077037,166.4224 270.506667,166.054533 272.82963,165.8884 L272.82963,127.843867 C270.506667,127.677733 268.077037,127.309867 266.074074,126.9064 L266.074074,120.6052 L272.13037,120.6052 C274.145185,120.6052 281.434074,120.296667 287.893333,120.296667 C299.472593,120.296667 306.951111,124.3432 306.951111,135.070667 C306.951111,142.3924 301.961481,147.768 294.577778,149.322533 C295.537778,150.556667 296.438519,151.8976 297.232593,153.131733 L305.303704,165.829067 C306.773333,166.054533 308.645926,166.374933 310.447407,166.6716 L310.447407,173.1152 L297.14963,173.1152 L297.14963,173.1152 Z M237.724444,128.852533 C230.494815,128.852533 223.81037,134.619733 223.81037,146.427067 C223.81037,157.558 228.171852,164.796667 237.57037,164.796667 C244.408889,164.796667 251.697778,159.504133 251.697778,146.9136 C251.697778,135.2368 246.743704,128.852533 237.724444,128.852533 L237.724444,128.852533 Z M236.871111,173.981467 C220.847407,173.981467 213.013333,163.788 213.013333,147.542533 C213.013333,130.169733 224.592593,119.762667 238.648889,119.762667 C252.634074,119.762667 262.518519,128.1524 262.518519,146.118533 C262.518519,163.4676 251.081481,173.981467 236.871111,173.981467 L236.871111,173.981467 Z M188.136296,128.544 C186.915556,128.544 185.825185,128.544 184.64,128.6152 L184.64,146.118533 C185.671111,146.284667 186.654815,146.367733 187.579259,146.367733 C193.73037,146.284667 198.008889,142.867067 198.008889,137.182933 C198.008889,131.8904 195.057778,128.544 188.136296,128.544 L188.136296,128.544 Z M187.994074,154.757467 C187.057778,154.757467 185.884444,154.757467 184.64,154.615067 L184.64,165.8884 C186.962963,166.054533 189.380741,166.4224 191.407407,166.825867 L191.407407,173.1152 L167.762963,173.1152 L167.762963,166.825867 C169.801481,166.4224 172.207407,166.054533 174.542222,165.8884 L174.542222,127.843867 C172.207407,127.677733 169.801481,127.309867 167.762963,126.9064 L167.762963,120.6052 L173.854815,120.6052 C176.331852,120.6052 183.182222,120.296667 188.61037,120.296667 C201.434074,120.296667 208.485926,126.289333 208.485926,136.554 C208.485926,146.759333 200.734815,154.757467 187.994074,154.757467 L187.994074,154.757467 Z" id="Secretario-de-Estado-da-Cultura" sketch:type="MSShapeGroup"></path>
        </g>
    </g>
</svg>