<?xml version="1.0" encoding="UTF-8" standalone="no"?>
<svg width="321px" height="97px" viewBox="0 0 321 97" version="1.1" xmlns="http://www.w3.org/2000/svg" xmlns:xlink="http://www.w3.org/1999/xlink">
    <!-- Generator: Sketch 3.7.2 (28276) - http://www.bohemiancoding.com/sketch -->
    <title>Combined Shape</title>
    <desc>Created with Sketch.</desc>
    <defs></defs>
    <g id="Page-1" stroke="none" stroke-width="1" fill="none" fill-rule="evenodd">
        <path d="M35.2295,20.1827 L26.1965,20.1827 L27.5645,9.8447 C27.7145,8.9457 27.0675,8.1447 25.6715,8.3437 L16.4945,8.3017 C15.3995,8.5077 14.4345,9.2117 14.2945,10.3207 L12.8455,20.1827 L3.4135,20.1827 C1.8045,20.1827 1.3535,21.0887 1.2065,22.1877 L0.6395,26.7037 C0.5065,27.8027 0.9405,28.5167 2.3605,28.7127 L11.6665,30.1157 L7.8045,61.6337 C7.5975,63.4457 7.4865,65.0447 7.5565,66.5557 C7.9755,74.5787 12.9575,77.5907 21.7885,77.5907 C23.9995,77.5907 26.1895,77.2897 28.6835,76.8837 C29.9745,76.6877 30.6395,76.0797 30.7935,75.0817 L31.5595,68.7567 C31.6825,67.3537 30.6845,67.2487 29.6775,67.2487 L24.3595,67.2487 C21.8515,67.2487 20.9275,66.9517 20.8295,65.1467 C20.7905,64.3417 20.9275,63.1447 21.1515,61.6337 L25.0175,30.1157 L34.0435,30.1157 C35.6525,30.1157 36.2165,29.4087 36.3495,28.1107 L37.0415,22.1877 C37.2555,20.4877 36.3385,20.1827 35.2295,20.1827 Z M66.1081,19.4835 C50.7491,19.4835 41.1801,26.4035 38.8571,45.1725 L38.0741,51.3895 C37.7871,53.5035 37.7971,55.6055 37.8921,57.4175 C38.6931,72.5735 49.7941,77.5905 58.7221,77.5905 C67.7591,77.5905 72.1461,77.0835 78.8111,75.8795 C80.7041,75.5825 80.9631,74.8755 81.1801,73.2695 L82.0371,66.6575 C82.1731,65.3455 81.3511,65.0445 80.0491,65.1465 C75.7571,65.5485 68.8681,66.2515 61.5421,66.2515 C54.1181,66.2515 51.1131,62.6375 50.8261,57.2115 C50.7561,55.8155 50.9831,54.5005 51.1131,53.1005 L83.8381,53.1005 C85.2451,53.1005 85.8951,52.1975 86.1121,50.5995 L86.6651,45.7745 C86.8541,43.8605 86.9591,41.8665 86.8681,40.0475 C86.2451,28.3095 79.4581,19.4835 66.1081,19.4835 Z M73.6051,43.6685 L52.3271,43.6685 C53.2431,36.3395 56.6761,30.9195 64.7051,30.9195 C70.2191,30.9195 73.4931,34.0335 73.8011,39.8555 C73.8711,41.1565 73.7351,42.3665 73.6051,43.6685 Z M113.4817,0.4089 L104.1437,0.4089 C102.6437,0.4089 102.0797,1.3119 101.9367,2.4169 L92.9937,74.6759 C92.8717,76.0789 93.5047,76.7859 94.7157,76.7859 L104.0527,76.7859 C105.7567,76.7859 106.1067,75.7819 106.2467,74.6759 L115.1857,2.4169 C115.4057,0.9159 114.6817,0.4089 113.4817,0.4089 Z M138.2304,20.6657 L138.2404,20.5857 C137.1584,20.7187 136.0894,20.9067 135.0134,21.0757 C134.5964,21.1407 134.1764,21.1947 133.7624,21.2657 C131.6294,21.6247 129.5294,22.0387 127.5544,22.5327 C125.1954,23.1287 124.7184,23.7247 124.4954,25.2297 L119.9904,60.3147 C124.3604,61.1077 128.7594,61.6917 132.9624,61.9937 L138.2304,20.6657 Z M149.6615,19.9304 C147.4555,19.9304 145.0865,20.0864 142.6865,20.3084 L141.3705,31.0474 C143.4335,30.8544 144.3485,30.7274 146.6745,30.7274 C153.1785,30.7274 157.1795,33.7234 157.4655,39.1204 C157.5525,40.8164 157.4625,42.8164 157.1795,45.0114 L156.2745,52.7144 C155.3895,60.4034 152.4385,66.9954 143.8435,66.9954 C142.1345,66.9954 135.0485,66.5074 132.6405,66.2784 L132.6435,66.2494 C128.4585,65.9804 124.0475,65.3844 119.6655,64.6134 L118.4315,74.6814 C122.7655,75.6964 127.1825,76.6994 131.3125,77.1124 L134.0375,77.4164 C136.6565,77.6824 140.7145,77.7954 142.5055,77.7954 C158.6015,77.7954 167.4895,70.0964 169.4745,52.7144 L170.3665,45.0114 C170.5685,43.0154 170.6625,41.0084 170.5685,39.2174 C169.9695,27.8284 163.0505,19.9304 149.6615,19.9304 Z M115.9663,94.7869 C115.7403,96.1879 116.5653,96.7869 117.6663,96.7869 L126.8713,96.7869 C127.3283,96.7869 127.6823,96.7289 127.9693,96.6329 C128.1053,96.5869 128.1843,96.5079 128.2893,96.4439 C128.4043,96.3739 128.5383,96.3159 128.6223,96.2269 C128.7283,96.1139 128.7933,95.9749 128.8603,95.8369 C128.8923,95.7689 128.9393,95.7109 128.9653,95.6389 C129.0373,95.4319 129.0863,95.2099 129.1233,94.9729 L130.9983,81.3219 C127.1063,80.9109 122.3473,80.1289 118.0743,79.2439 L115.9663,94.7869 Z M205.4764,19.7123 C189.3904,19.7123 180.1934,29.2033 178.4164,44.7933 L177.5874,51.8873 C177.3924,53.8903 177.1514,56.9913 177.3124,59.8823 C177.9324,71.7803 185.3324,77.5773 194.5334,77.5773 C199.4314,77.5773 204.3584,76.1773 209.7234,71.8673 L209.4724,74.7803 C209.3364,75.8743 209.9844,76.7763 211.1834,76.7763 L219.1724,76.7763 C220.2734,76.7763 221.3254,75.8743 221.4754,74.7803 L227.5474,25.0113 C227.7524,23.2003 227.0314,22.8063 225.2094,22.3153 C219.2244,20.7123 211.8804,19.7123 205.4764,19.7123 Z M209.7304,62.5793 C205.3724,65.1853 201.2574,66.7773 197.4634,66.7773 C193.5684,66.7773 190.5894,65.2793 190.2864,59.5863 C190.2274,58.3883 190.1294,56.5873 190.5514,53.1903 L191.6064,44.7933 C192.5754,36.5923 195.5504,30.5093 204.1494,30.5093 C207.7484,30.5093 211.7614,30.8093 213.5834,31.1953 L209.7304,62.5793 Z M265.2511,19.7126 C261.0531,19.7126 255.7811,20.1136 250.3051,24.5096 L250.6011,22.4056 C250.8241,20.9076 250.1971,20.4096 248.7961,20.4096 L240.1041,20.4096 C238.5991,20.4096 238.0411,21.3116 237.9051,22.4056 L231.4531,74.6756 C231.2331,76.1776 231.9611,76.7766 233.1711,76.7766 L242.3611,76.7766 C244.2631,76.7766 244.5071,75.7766 244.6501,74.6756 L249.6361,34.5056 C256.2521,31.1016 260.6421,30.8996 263.8401,30.8996 C265.4321,30.8996 265.8961,30.0046 266.0351,28.9036 L266.9541,21.7126 C266.9481,21.6006 266.9441,21.5066 266.9411,21.3116 C266.8851,20.4096 266.5541,19.7126 265.2511,19.7126 Z M320.6358,21.5416 C320.6078,21.0366 320.0818,20.6356 319.1758,20.6356 L307.2398,20.6356 C306.1178,20.6356 305.5328,20.9426 304.7738,21.8516 L285.8828,43.6026 L291.0148,2.7246 C291.2378,1.1086 290.3008,0.7076 289.1928,0.7076 L279.8768,0.7076 C278.7688,0.7076 277.8038,1.6166 277.6648,2.7246 L268.6378,75.5846 C268.5118,76.8986 269.1598,77.7066 270.3758,77.7066 L279.6818,77.7066 C281.2978,77.7066 281.8558,76.6926 281.9988,75.5846 L284.9848,51.5976 L298.7008,75.6826 C299.8088,77.5956 300.2198,77.7066 301.3348,77.7066 L313.3748,77.7066 C314.3888,77.7066 314.8318,76.5886 314.2738,75.6826 L297.1258,47.7516 L320.0958,22.7576 C320.4758,22.3496 320.6598,21.9566 320.6358,21.5416 Z" id="Combined-Shape" fill="#000000"></path>
    </g>
</svg>