<?xml version="1.0" encoding="UTF-8" standalone="no"?>
<svg width="672px" height="260px" viewBox="0 0 672 260" version="1.1" xmlns="http://www.w3.org/2000/svg" xmlns:xlink="http://www.w3.org/1999/xlink" xmlns:sketch="http://www.bohemiancoding.com/sketch/ns">
    <title>Antena 1</title>
    <defs></defs>
    <g id="Page-1" stroke="none" stroke-width="1" fill="none" fill-rule="evenodd" sketch:type="MSPage">
        <g id="logo-antena1" sketch:type="MSArtboardGroup" fill="#000000">
            <path d="M167.563757,111.234986 L167.563757,154.766909 L158.436386,154.766909 L158.436386,111.234986 L136.097702,111.234986 L136.097702,105.223997 L189.908796,105.223997 L189.908796,111.234986 L167.563757,111.234986 L167.563757,111.234986 Z M123.762362,154.766909 L123.762362,120.001389 C123.762362,113.472056 115.836845,111.05311 107.389375,111.05311 C98.7848646,111.05311 91.3713153,113.390212 91.3713153,120.201452 L91.3713153,154.766909 L82.1595242,154.766909 L82.1595242,120.346953 C82.1595242,108.506852 94.7717261,104.53287 107.569108,104.53287 C120.09689,104.53287 132.978692,108.570508 132.978692,120.137796 L132.978692,154.766909 L123.762362,154.766909 L123.762362,154.766909 Z M288.712245,154.766909 L288.712245,120.001389 C288.712245,113.472056 280.786728,111.05311 272.339258,111.05311 C263.734748,111.05311 256.32029,113.390212 256.32029,120.201452 L256.32029,154.766909 L247.103053,154.766909 L247.103053,120.346953 C247.103053,108.506852 259.715255,104.53287 272.512637,104.53287 C285.046773,104.53287 297.928575,108.570508 297.928575,120.137796 L297.928575,154.766909 L288.712245,154.766909 L288.712245,154.766909 Z M212.470785,154.766909 C200.033778,154.766909 193.129473,149.847174 193.129473,139.580297 L193.129473,120.48336 C193.129473,110.443827 199.750561,105.223997 212.380918,105.223997 L239.904639,105.223997 L239.904639,111.234986 L213.966748,111.234986 C205.542879,111.234986 202.345803,114.92706 202.345803,121.156299 L202.345803,126.994506 L231.812097,126.994506 L231.812097,133.005494 L202.345803,133.005494 L202.345803,138.807326 C202.345803,144.954721 205.879652,148.75592 214.406096,148.75592 L239.904639,148.75592 L239.904639,154.766909 L212.470785,154.766909 L212.470785,154.766909 Z M64.1643973,120.001389 C64.1643973,113.472056 56.2334337,110.98036 47.7914099,110.98036 C39.193254,110.98036 31.7724428,113.390212 31.7724428,120.201452 L31.7724428,132.150679 L64.1643973,132.150679 L64.1643973,120.001389 L64.1643973,120.001389 Z M64.1643973,154.766909 L64.1643973,138.152573 L31.7724428,138.152573 L31.7724428,154.766909 L23,154.766909 L23,120.419703 C23,108.506852 35.3353399,104.53287 48.1454302,104.53287 C60.6795662,104.53287 73.3807272,108.643259 73.3807272,120.065046 L73.3807272,154.766909 L64.1643973,154.766909 L64.1643973,154.766909 Z M347.624863,154.766909 L347.624863,138.152573 L315.233816,138.152573 L315.233816,154.766909 L306.455019,154.766909 L306.455019,120.419703 C306.455019,108.506852 318.796713,104.53287 331.600449,104.53287 C344.134585,104.53287 356.835746,108.643259 356.835746,120.065046 L356.835746,154.766909 L347.624863,154.766909 L347.624863,154.766909 Z M347.624863,120.001389 C347.624863,113.472056 339.693899,110.98036 331.251875,110.98036 C322.648273,110.98036 315.233816,113.390212 315.233816,120.201452 L315.233816,132.150679 L347.624863,132.150679 L347.624863,120.001389 L347.624863,120.001389 Z M565.27476,147.701042 L635.904544,147.701042 C637.910659,147.701042 639.545507,149.274266 639.545507,151.229428 C639.545507,153.184591 637.910659,154.766909 635.904544,154.766909 L565.27476,154.766909 C563.26229,154.766909 561.627443,153.184591 561.627443,151.229428 C561.627443,149.274266 563.26229,147.701042 565.27476,147.701042 L565.27476,147.701042 Z M554.69409,137.034039 L646.359037,137.034039 C648.36606,137.034039 650,138.607262 650,140.571519 C650,142.517588 648.36606,144.099905 646.359037,144.099905 L554.69409,144.099905 C552.681621,144.099905 551.053127,142.517588 551.053127,140.571519 C551.053127,138.607262 552.681621,137.034039 554.69409,137.034039 L554.69409,137.034039 Z M554.69409,126.348847 L646.359037,126.348847 C648.36606,126.348847 650,127.931165 650,129.886328 C650,131.832397 648.36606,133.414714 646.359037,133.414714 L554.69409,133.414714 C552.681621,133.414714 551.053127,131.832397 551.053127,129.886328 C551.053127,127.931165 552.681621,126.348847 554.69409,126.348847 L554.69409,126.348847 Z M554.69409,115.818251 L646.359037,115.818251 C648.36606,115.818251 650,117.400568 650,119.346637 C650,121.3018 648.36606,122.884117 646.359037,122.884117 L554.69409,122.884117 C552.681621,122.884117 551.053127,121.3018 551.053127,119.346637 C551.053127,117.400568 552.681621,115.818251 554.69409,115.818251 L554.69409,115.818251 Z M565.27476,105.223997 L635.904544,105.223997 C637.910659,105.223997 639.545507,106.815409 639.545507,108.770572 C639.545507,110.71664 637.910659,112.298958 635.904544,112.298958 L565.27476,112.298958 C563.26229,112.298958 561.627443,110.71664 561.627443,108.770572 C561.627443,106.815409 563.26229,105.223997 565.27476,105.223997 L565.27476,105.223997 Z M469.392432,90.2192611 L469.392432,170.462772 C469.392432,172.145122 469.278056,172.145122 467.337299,172.145122 L445.088481,172.145122 C443.261192,172.145122 443.033348,171.78137 443.033348,170.462772 L443.033348,120.583391 L433.263294,123.838964 C431.659309,124.448248 431.358846,124.484623 431.322536,122.674961 L431.322536,105.214904 C431.322536,103.950868 431.436004,103.396148 432.698677,102.841427 C432.698677,102.841427 463.485739,90.0282918 467.337299,88.5460057 C469.392432,87.7002842 469.392432,87.582065 469.392432,90.2192611 L469.392432,90.2192611 Z M382.071951,129.995453 C382.071951,90.2374487 414.252401,58 453.944436,58 C493.636472,58 525.816922,90.2374487 525.816922,129.995453 C525.816922,169.771645 493.636472,202 453.944436,202 C414.252401,202 382.071951,169.771645 382.071951,129.995453 L382.071951,129.995453 Z" id="Antena-1" sketch:type="MSShapeGroup"></path>
        </g>
    </g>
</svg>