<?xml version="1.0" encoding="UTF-8" standalone="no"?>
<svg width="400px" height="136px" viewBox="0 0 400 136" version="1.1" xmlns="http://www.w3.org/2000/svg" xmlns:xlink="http://www.w3.org/1999/xlink" xmlns:sketch="http://www.bohemiancoding.com/sketch/ns">
    <title>Canal 180</title>
    <defs></defs>
    <g id="Page-1" stroke="none" stroke-width="1" fill="none" fill-rule="evenodd" sketch:type="MSPage">
        <g id="Group" sketch:type="MSLayerGroup" fill="#000000">
            <path d="M0,0.130939535 L20.4681998,0.130939535 L20.4681998,136 L0,136 L0,0.130939535 Z" id="Fill-1" sketch:type="MSShapeGroup"></path>
            <path d="M39.7341792,0.130939535 L138.168755,0.130939535 L138.168755,62.1656 L39.7341792,62.1656 L39.7341792,0.130939535 Z" id="Fill-2" sketch:type="MSShapeGroup"></path>
            <path d="M39.7341792,73.9678698 L138.168755,73.9678698 L138.168755,136 L39.7341792,136 L39.7341792,73.9678698 Z" id="Fill-3" sketch:type="MSShapeGroup"></path>
            <path d="M155.328787,0.130939535 L242.925297,0.130939535 L242.925297,136 L155.328787,136 L155.328787,0.130939535 Z" id="Fill-4" sketch:type="MSShapeGroup"></path>
            <path d="M326.604282,40.9053209 L319.828707,40.9053209 L326.604282,31.046586 L326.604282,40.9053209 L326.604282,40.9053209 Z M315.553053,47.1265302 L318.455194,42.9004093 L326.604282,42.9004093 L326.604282,50.4544186 L328.808882,50.4544186 L328.808882,28.2538419 L326.00793,28.2538419 L314.256305,45.3256372 L311.913719,42.1315349 C313.28184,41.8974884 314.323553,41.5676093 315.088025,41.1017302 C317.086439,39.904614 318.35686,37.7067907 318.35686,35.4757581 C318.35686,33.1106233 317.452815,31.2138977 315.655829,29.849786 C314.256305,28.7864558 312.146233,28.2538419 309.337986,28.2538419 L303.637748,28.2538419 L303.637748,50.4544186 L305.837272,50.4544186 L305.837272,30.2154047 L309.575258,30.2154047 C311.748136,30.2154047 313.317367,30.6142326 314.287708,31.4435163 C315.553053,32.4777488 316.156701,33.8776 316.058366,35.5760186 C315.955591,37.5420093 314.954163,38.8751256 313.049326,39.570307 C312.146233,39.904614 310.411102,40.1054512 307.844885,40.1408744 L312.982395,47.1600558 L310.742268,50.4544186 L313.28184,50.4544186 L314.287708,48.9565209 L315.387787,50.4544186 L317.985726,50.4544186 L315.553053,47.1265302 L315.553053,47.1265302 Z M297.190484,50.4544186 L297.190484,30.2154047 L302.828549,30.2154047 L302.828549,28.2538419 L294.990642,28.2538419 L294.990642,50.4544186 L297.190484,50.4544186 L297.190484,50.4544186 Z M278.461221,28.2538419 L278.461221,41.7323907 C278.461221,44.1332651 278.832355,45.9629395 279.560983,47.2290047 C280.862173,49.4581395 283.366217,50.9202977 285.874385,50.9202977 C287.846154,50.9202977 290.045678,49.9240186 291.382712,48.4596465 C292.679144,47.0306977 293.314195,44.8306605 293.314195,41.8013395 L293.314195,28.2538419 L285.436003,28.2538419 L285.436003,30.2154047 L291.08295,30.2154047 L291.08295,41.2665116 C291.08295,43.4643349 290.88184,44.9979721 290.479302,45.8291535 C289.683743,47.4630512 287.778906,48.6288558 285.874385,48.6288558 C284.166217,48.6288558 282.798097,47.9602419 281.828073,46.5939163 C281.0636,45.530586 280.665504,43.729693 280.665504,41.2019907 L280.665504,28.2538419 L278.461221,28.2538419 L278.461221,28.2538419 Z M274.374623,39.5614512 C274.374623,44.7013023 270.078033,48.8629023 264.949722,48.8629023 C259.919746,48.8629023 255.565107,44.7013023 255.565107,39.6506419 C255.565107,34.483907 259.740841,30.1995907 264.949722,30.1995907 C270.104996,30.1995907 274.374623,34.4260279 274.374623,39.5614512 L274.374623,39.5614512 Z M276.560825,39.5323535 C276.560825,33.213414 271.231721,28.2269581 264.949722,28.2269581 C258.583029,28.2269581 253.374148,33.271293 253.374148,39.6506419 C253.374148,45.8803907 258.819984,50.8355349 264.949722,50.8355349 C271.200317,50.8355349 276.560825,45.8538233 276.560825,39.5323535 L276.560825,39.5323535 Z" id="Fill-5" sketch:type="MSShapeGroup"></path>
            <path d="M257.34433,18.1876279 L257.34433,16.6922605 L256.347661,16.6922605 L256.347661,15.6956651 L254.845044,15.6956651 L254.845044,3.24692093 L256.347661,3.24692093 L256.347661,2.24842791 L257.34433,2.24842791 L257.34433,0.750530233 L264.833624,0.750530233 L264.833624,2.24842791 L265.835052,2.24842791 L265.835052,3.24692093 L267.33291,3.24692093 L267.33291,5.73445581 L264.833624,5.73445581 L264.833624,3.24692093 L257.34433,3.24692093 L257.34433,15.6956651 L264.833624,15.6956651 L264.833624,13.2059163 L267.33291,13.2059163 L267.33291,15.6956651 L265.835052,15.6956651 L265.835052,16.6922605 L264.833624,16.6922605 L264.833624,18.1876279 L257.34433,18.1876279" id="Fill-6" sketch:type="MSShapeGroup"></path>
            <path d="M282.319746,3.24692093 L282.319746,18.1876279 L279.824901,18.1876279 L279.824901,10.7161674 L272.331166,10.7161674 L272.331166,18.1876279 L269.832197,18.1876279 L269.832197,3.24692093 L271.329738,3.24692093 L271.329738,2.24842791 L272.331166,2.24842791 L272.331166,0.750530233 L279.824901,0.750530233 L279.824901,2.24842791 L280.826646,2.24842791 L280.826646,3.24692093 L282.319746,3.24692093 L282.319746,3.24692093 Z M272.331166,8.2264186 L279.824901,8.2264186 L279.824901,3.24692093 L272.331166,3.24692093 L272.331166,8.2264186 Z" id="Fill-7" sketch:type="MSShapeGroup"></path>
            <path d="M294.812054,18.1876279 L294.812054,15.6956651 L292.312768,15.6956651 L292.312768,12.7112558 L290.314036,12.7112558 L290.314036,10.7161674 L289.813164,10.7161674 L289.813164,6.73294884 L288.816178,6.73294884 L288.816178,5.73445581 L287.313878,5.73445581 L287.313878,18.1876279 L284.819033,18.1876279 L284.819033,0.750530233 L287.313878,0.750530233 L287.313878,3.24692093 L289.813164,3.24692093 L289.813164,6.23164651 L291.811895,6.23164651 L291.811895,8.2264186 L292.312768,8.2264186 L292.312768,12.2096372 L293.314195,12.2096372 L293.314195,13.2059163 L294.812054,13.2059163 L294.812054,0.750530233 L297.311023,0.750530233 L297.311023,18.1876279 L294.812054,18.1876279" id="Fill-8" sketch:type="MSShapeGroup"></path>
            <path d="M312.293735,3.24692093 L312.293735,18.1876279 L309.79889,18.1876279 L309.79889,10.7161674 L302.305472,10.7161674 L302.305472,18.1876279 L299.806186,18.1876279 L299.806186,3.24692093 L301.303727,3.24692093 L301.303727,2.24842791 L302.305472,2.24842791 L302.305472,0.750530233 L309.79889,0.750530233 L309.79889,2.24842791 L310.805075,2.24842791 L310.805075,3.24692093 L312.293735,3.24692093 L312.293735,3.24692093 Z M302.305472,8.2264186 L309.79889,8.2264186 L309.79889,3.24692093 L302.305472,3.24692093 L302.305472,8.2264186 Z" id="Fill-9" sketch:type="MSShapeGroup"></path>
            <path d="M314.793021,0.750530233 L317.291039,0.750530233 L317.291039,15.6956651 L324.786677,15.6956651 L324.786677,18.1876279 L314.793021,18.1876279 L314.793021,0.750530233" id="Fill-10" sketch:type="MSShapeGroup"></path>
            <path d="M329.785884,18.1876279 L329.785884,3.24692093 L327.279937,3.24692093 L327.279937,0.750530233 L332.279144,0.750530233 L332.279144,18.1876279 L329.785884,18.1876279" id="Fill-11" sketch:type="MSShapeGroup"></path>
            <path d="M337.272006,18.1876279 L337.272006,16.6922605 L336.275971,16.6922605 L336.275971,15.6956651 L334.775575,15.6956651 L334.775575,10.7161674 L337.272006,10.7161674 L337.272006,9.22301395 L336.275971,9.22301395 L336.275971,8.2264186 L334.775575,8.2264186 L334.775575,3.24692093 L336.275971,3.24692093 L336.275971,2.24842791 L337.272006,2.24842791 L337.272006,0.750530233 L344.770817,0.750530233 L344.770817,2.24842791 L345.770024,2.24842791 L345.770024,3.24692093 L347.267248,3.24692093 L347.267248,8.2264186 L345.770024,8.2264186 L345.770024,9.22301395 L344.770817,9.22301395 L344.770817,10.7161674 L347.267248,10.7161674 L347.267248,15.6956651 L345.770024,15.6956651 L345.770024,16.6922605 L344.770817,16.6922605 L344.770817,18.1876279 L337.272006,18.1876279 L337.272006,18.1876279 Z M337.272006,8.2264186 L344.770817,8.2264186 L344.770817,3.24692093 L337.272006,3.24692093 L337.272006,8.2264186 Z M337.272006,15.6956651 L344.770817,15.6956651 L344.770817,10.736093 L337.272006,10.736093 L337.272006,15.6956651 Z" id="Fill-12" sketch:type="MSShapeGroup"></path>
            <path d="M351.267248,15.6956651 L349.766852,15.6956651 L349.766852,3.24692093 L351.267248,3.24692093 L351.267248,2.24842791 L352.260111,2.24842791 L352.260111,0.750530233 L359.752577,0.750530233 L359.752577,2.24842791 L360.754956,2.24842791 L360.754956,3.24692093 L362.252181,3.24692093 L362.252181,15.6956651 L360.754956,15.6956651 L360.754956,16.6922605 L359.752577,16.6922605 L359.752577,18.1876279 L352.260111,18.1876279 L352.260111,16.6922605 L351.267248,16.6922605 L351.267248,15.6956651 L351.267248,15.6956651 Z M352.260111,15.6956651 L359.752577,15.6956651 L359.752577,3.24692093 L352.260111,3.24692093 L352.260111,15.6956651 Z" id="Fill-13" sketch:type="MSShapeGroup"></path>
            <path d="M367.248216,15.6956651 L369.747819,15.6956651 L369.747819,18.1876279 L367.248216,18.1876279 L367.248216,15.6956651 Z" id="Fill-14" sketch:type="MSShapeGroup"></path>
            <path d="M372.241079,0.750530233 L382.233148,0.750530233 L382.233148,2.24842791 L383.235527,2.24842791 L383.235527,3.24692093 L384.732752,3.24692093 L384.732752,8.2264186 L383.235527,8.2264186 L383.235527,9.22301395 L382.233148,9.22301395 L382.233148,10.7139535 L374.743854,10.7139535 L374.743854,18.1876279 L372.241079,18.1876279 L372.241079,0.750530233 L372.241079,0.750530233 Z M374.743854,8.2264186 L382.233148,8.2264186 L382.233148,3.24692093 L374.743854,3.24692093 L374.743854,8.2264186 Z" id="Fill-15" sketch:type="MSShapeGroup"></path>
            <path d="M387.232355,0.750530233 L399.720856,0.750530233 L399.720856,3.24692093 L394.727994,3.24692093 L394.727994,18.1876279 L392.22839,18.1876279 L392.22839,3.24692093 L387.232355,3.24692093 L387.232355,0.750530233" id="Fill-16" sketch:type="MSShapeGroup"></path>
            <path d="M303.141316,74.4403907 L305.846471,74.4403907 L321.319588,52.4605767 L318.73751,52.4605767 L305.318953,71.5094326 L305.318953,52.4605767 L303.141316,52.4605767 L303.141316,74.4403907 L303.141316,74.4403907 Z M301.965424,74.3512 L301.965424,72.3810977 L292.169389,72.3810977 L292.169389,64.3162977 L301.639017,64.3162977 L301.639017,62.3458791 L292.169389,62.3458791 L292.169389,54.4866605 L301.965424,54.4866605 L301.965424,52.5140279 L289.983188,52.5140279 L289.983188,74.3512 L301.965424,74.3512 L301.965424,74.3512 Z M288.740048,74.3512 L288.740048,72.3810977 L279.68184,72.3810977 L279.68184,52.5140279 L277.495638,52.5140279 L277.495638,74.3512 L288.740048,74.3512 L288.740048,74.3512 Z M275.970817,74.3512 L275.970817,72.3810977 L266.170341,72.3810977 L266.170341,64.3162977 L275.64885,64.3162977 L275.64885,62.3458791 L266.170341,62.3458791 L266.170341,54.4866605 L275.970817,54.4866605 L275.970817,52.5140279 L263.979381,52.5140279 L263.979381,74.3512 L275.970817,74.3512 L275.970817,74.3512 Z M261.887074,54.4866605 L261.887074,52.5140279 L254.684219,52.5140279 L254.684219,54.4866605 L259.714195,54.4866605 L259.714195,74.3512 L261.904837,74.3512 L261.904837,54.4866605 L261.887074,54.4866605 L261.887074,54.4866605 Z" id="Fill-17" sketch:type="MSShapeGroup"></path>
            <path d="M373.389374,62.4508837 C373.389374,67.5907349 369.103886,71.7545488 363.977795,71.7545488 C358.943695,71.7545488 354.588422,67.5907349 354.588422,62.5375442 C354.588422,57.3730233 358.762887,53.0912372 363.977795,53.0912372 C369.138779,53.0912372 373.389374,57.3107163 373.389374,62.4508837 L373.389374,62.4508837 Z M375.584457,62.421786 C375.584457,56.1025302 370.255353,51.1163907 363.977795,51.1163907 C357.61142,51.1163907 352.399683,56.1604093 352.399683,62.5375442 C352.399683,68.7698233 357.846154,73.7268651 363.977795,73.7268651 C370.223632,73.7268651 375.584457,68.7432558 375.584457,62.421786 L375.584457,62.421786 Z M338.655036,68.3485395 C338.655036,64.9539163 336.437748,62.9768558 333.294211,62.0292837 C331.073751,61.3496 328.082474,60.8501953 328.082474,57.928093 C328.082474,55.7103442 329.858842,54.1144 332.050753,54.1144 C334.214116,54.1144 335.933386,55.9443907 335.933386,58.0729488 L338.122125,58.0729488 C338.122125,54.6783256 335.425852,52.1417674 332.050753,52.1417674 C328.672482,52.1417674 325.900079,54.5600372 325.900079,58.0128558 C325.900079,61.7930233 328.466297,62.8585674 331.578113,63.772614 C333.979381,64.4813953 336.469469,65.4843163 336.469469,68.4380465 C336.469469,70.8898419 334.480571,72.7773953 332.050753,72.7773953 C329.297383,72.7773953 327.609833,70.9477209 327.489294,68.2593488 L325.300555,68.2593488 C325.357653,72.1869023 328.174465,74.7525581 332.050753,74.7525581 C335.663759,74.7525581 338.655036,71.9794233 338.655036,68.3485395 L338.655036,68.3485395 Z M321.985726,74.3736558 L324.174465,74.3736558 L324.174465,52.5250977 L321.985726,52.5250977 L321.985726,74.3736558 Z" id="Fill-18" sketch:type="MSShapeGroup"></path>
            <path d="M348.45678,65.0807442 L341.370341,55.0951814 L341.370341,65.0807442 L348.45678,65.0807442 L348.45678,65.0807442 Z M349.817605,67.0426233 L341.370341,67.0426233 L341.370341,74.4669581 L339.175258,74.4669581 L339.175258,52.2666977 L342.004758,52.2666977 L357.633624,74.4669581 L355.064235,74.4669581 L349.817605,67.0426233 L349.817605,67.0426233 Z" id="Fill-19" sketch:type="MSShapeGroup"></path>
            <path d="M354.674068,53.2920744 L353.649485,51.9143628 C353.081681,52.2486698 352.551943,52.643386 351.876289,52.643386 C350.569389,52.643386 349.500397,51.4908651 347.860428,51.4908651 C346.734338,51.4908651 345.744647,51.9121488 344.923077,52.6699535 L345.91594,54.0764465 C346.420301,53.5972837 347.095956,53.2316651 347.796987,53.2316651 C349.103886,53.2338791 350.207772,54.388614 351.901665,54.388614 C352.862807,54.388614 353.900079,53.8556837 354.674068,53.2920744" id="Fill-20" sketch:type="MSShapeGroup"></path>
        </g>
    </g>
</svg>