<?xml version="1.0" encoding="UTF-8" standalone="no"?>
<svg width="672px" height="260px" viewBox="0 0 672 260" version="1.1" xmlns="http://www.w3.org/2000/svg" xmlns:xlink="http://www.w3.org/1999/xlink" xmlns:sketch="http://www.bohemiancoding.com/sketch/ns">
    <title>RTP1</title>
    <defs></defs>
    <g id="Page-1" stroke="none" stroke-width="1" fill="none" fill-rule="evenodd" sketch:type="MSPage">
        <g id="logo-rtp1" sketch:type="MSArtboardGroup" fill="#000000">
            <path d="M294.248521,110.855629 C288.36355,110.855629 283.591953,115.464901 283.591953,121.154967 L283.591953,131.462252 L341.76568,131.462252 C347.650651,131.462252 352.422249,126.845033 352.422249,121.154967 C352.422249,115.464901 347.650651,110.855629 341.76568,110.855629 L294.248521,110.855629 L294.248521,110.855629 Z M283.591953,146.919205 L283.591953,164.076821 L266.414201,164.076821 L266.414201,120.749669 C266.652781,106.731126 278.478391,95.4304636 293.039716,95.4304636 L342.982438,95.4304636 C357.678959,95.4304636 369.6,106.953642 369.6,121.170861 C369.6,130.317881 364.677302,138.344371 357.249515,142.90596 L369.6,164.076821 L350.784,164.076821 L340.771598,146.919205 L283.591953,146.919205 L283.591953,146.919205 Z M378.077538,110.855629 L378.077538,95.4304636 L481.104284,95.4304636 L481.104284,110.855629 L438.183763,110.855629 L438.183763,164.076821 L421.013964,164.076821 L421.013964,110.855629 L378.077538,110.855629 M516.33458,95.4304636 L566.134154,95.4304636 C580.838627,95.4304636 592.759669,106.953642 592.759669,121.170861 C592.759669,135.388079 580.838627,146.919205 566.134154,146.919205 L506.886817,146.919205 L506.886817,164.076821 L489.717018,164.076821 L489.717018,120.749669 C489.947645,106.731126 501.781207,95.4304636 516.33458,95.4304636 M517.543385,110.855629 C511.658414,110.855629 506.886817,115.472848 506.886817,121.162914 L506.886817,131.470199 L564.933302,131.470199 C570.818272,131.470199 575.581917,126.85298 575.581917,121.162914 C575.581917,115.472848 570.818272,110.855629 564.933302,110.855629 L517.543385,110.855629 Z M60.7026746,95.4463576 L180.398201,95.4463576 C185.304994,95.4463576 189.273373,99.2847682 189.273373,104.029139 C189.273373,108.765563 185.304994,112.603974 180.398201,112.603974 L60.7026746,112.603974 C55.7958817,112.603974 51.827503,108.765563 51.827503,104.029139 C51.827503,99.2847682 55.7958817,95.4463576 60.7026746,95.4463576 Z M9.18532544,95.4463576 L24.9395503,95.4463576 C22.4026509,97.7271523 20.7007811,100.731126 20.7007811,104.029139 C20.7007811,107.327152 22.4026509,110.331126 24.9315976,112.603974 L9.18532544,112.603974 C4.27853254,112.603974 0.310153846,108.765563 0.310153846,104.029139 C0.310153846,99.2847682 4.27853254,95.4463576 9.18532544,95.4463576 Z M231.836024,112.603974 L216.089751,112.603974 C218.618698,110.331126 220.328521,107.327152 220.328521,104.029139 C220.328521,100.731126 218.618698,97.7271523 216.089751,95.4463576 L231.836024,95.4463576 C236.734864,95.4463576 240.711195,99.2847682 240.711195,104.029139 C240.711195,108.765563 236.734864,112.603974 231.836024,112.603974 Z M34.9360473,95.4463576 L50.6902722,95.4463576 C48.1613254,97.7271523 46.451503,100.731126 46.451503,104.029139 C46.451503,107.327152 48.1613254,110.331126 50.6902722,112.603974 L34.9360473,112.603974 C30.0372071,112.603974 26.0688284,108.765563 26.0688284,104.029139 C26.0688284,99.2847682 30.0372071,95.4463576 34.9360473,95.4463576 Z M206.14097,112.603974 L190.275408,112.603974 C192.812308,110.331126 194.514178,107.327152 194.514178,104.029139 C194.514178,100.731126 192.812308,97.7271523 190.275408,95.4463576 L206.14097,95.4463576 C211.039811,95.4463576 215.008189,99.2847682 215.008189,104.029139 C215.008189,108.765563 211.039811,112.603974 206.14097,112.603974 Z M60.7026746,121.186755 L180.398201,121.186755 C185.304994,121.186755 189.273373,125.033113 189.273373,129.769536 C189.273373,134.50596 185.304994,138.352318 180.398201,138.352318 L60.7026746,138.352318 C55.7958817,138.352318 51.827503,134.50596 51.827503,129.769536 C51.827503,125.033113 55.7958817,121.186755 60.7026746,121.186755 Z M9.18532544,121.186755 L24.9395503,121.186755 C22.4026509,123.46755 20.7007811,126.471523 20.7007811,129.769536 C20.7007811,133.06755 22.4026509,136.071523 24.9315976,138.352318 L9.18532544,138.352318 C4.27853254,138.352318 0.310153846,134.50596 0.310153846,129.769536 C0.310153846,125.033113 4.27853254,121.186755 9.18532544,121.186755 Z M231.836024,138.352318 L216.089751,138.352318 C218.618698,136.071523 220.328521,133.06755 220.328521,129.769536 C220.328521,126.471523 218.618698,123.46755 216.089751,121.186755 L231.836024,121.186755 C236.734864,121.186755 240.711195,125.033113 240.711195,129.769536 C240.711195,134.50596 236.734864,138.352318 231.836024,138.352318 Z M34.9360473,121.186755 L50.6902722,121.186755 C48.1613254,123.46755 46.451503,126.471523 46.451503,129.769536 C46.451503,133.06755 48.1613254,136.071523 50.6902722,138.352318 L34.9360473,138.352318 C30.0372071,138.352318 26.0688284,134.50596 26.0688284,129.769536 C26.0688284,125.033113 30.0372071,121.186755 34.9360473,121.186755 Z M206.14097,138.352318 L190.275408,138.352318 C192.812308,136.071523 194.514178,133.06755 194.514178,129.769536 C194.514178,126.471523 192.812308,123.46755 190.275408,121.186755 L206.14097,121.186755 C211.039811,121.186755 215.008189,125.033113 215.008189,129.769536 C215.008189,134.50596 211.039811,138.352318 206.14097,138.352318 Z M60.7026746,146.903311 L180.398201,146.903311 C185.304994,146.903311 189.273373,150.741722 189.273373,155.486093 C189.273373,160.222517 185.304994,164.068874 180.398201,164.068874 L60.7026746,164.068874 C55.7958817,164.068874 51.827503,160.222517 51.827503,155.486093 C51.827503,150.741722 55.7958817,146.903311 60.7026746,146.903311 Z M9.18532544,146.903311 L24.9395503,146.903311 C22.4026509,149.184106 20.7007811,152.188079 20.7007811,155.486093 C20.7007811,158.784106 22.4026509,161.788079 24.9315976,164.068874 L9.18532544,164.068874 C4.27853254,164.068874 0.310153846,160.222517 0.310153846,155.486093 C0.310153846,150.741722 4.27853254,146.903311 9.18532544,146.903311 Z M231.836024,164.068874 L216.089751,164.068874 C218.618698,161.788079 220.328521,158.784106 220.328521,155.486093 C220.328521,152.188079 218.618698,149.184106 216.089751,146.903311 L231.836024,146.903311 C236.734864,146.903311 240.711195,150.749669 240.711195,155.486093 C240.711195,160.230464 236.734864,164.068874 231.836024,164.068874 Z M34.9360473,146.903311 L50.6902722,146.903311 C48.1613254,149.184106 46.451503,152.188079 46.451503,155.486093 C46.451503,158.784106 48.1613254,161.788079 50.6902722,164.068874 L34.9360473,164.068874 C30.0372071,164.068874 26.0688284,160.222517 26.0688284,155.486093 C26.0688284,150.741722 30.0372071,146.903311 34.9360473,146.903311 Z M206.14097,164.068874 L190.275408,164.068874 C192.812308,161.788079 194.514178,158.784106 194.514178,155.486093 C194.514178,152.188079 192.812308,149.184106 190.275408,146.903311 L206.14097,146.903311 C211.039811,146.903311 215.008189,150.749669 215.008189,155.486093 C215.008189,160.230464 211.039811,164.068874 206.14097,164.068874 Z M86.4533964,69.6900662 L154.591811,69.6900662 C159.490651,69.6900662 163.466982,73.5284768 163.466982,78.2728477 C163.466982,83.0092715 159.490651,86.8556291 154.591811,86.8556291 L86.4533964,86.8556291 C81.5545562,86.8556291 77.5861775,83.0092715 77.5861775,78.2728477 C77.5861775,73.5284768 81.5545562,69.6900662 86.4533964,69.6900662 Z M34.9360473,69.6900662 L50.6902722,69.6900662 C48.1613254,71.9708609 46.451503,74.9748344 46.451503,78.2728477 C46.451503,81.5708609 48.1613254,84.5748344 50.6902722,86.8556291 L34.9360473,86.8556291 C30.0372071,86.8556291 26.0688284,83.0092715 26.0688284,78.2728477 C26.0688284,73.5284768 30.0372071,69.6900662 34.9360473,69.6900662 Z M206.029633,86.8556291 L190.275408,86.8556291 C192.812308,84.5748344 194.514178,81.5629139 194.514178,78.2728477 C194.514178,74.9748344 192.812308,71.9629139 190.275408,69.6900662 L206.029633,69.6900662 C210.928473,69.6900662 214.904805,73.5364238 214.904805,78.2728477 C214.904805,83.0092715 210.928473,86.8556291 206.029633,86.8556291 Z M60.6947219,69.6900662 L76.4489467,69.6900662 C73.92,71.9708609 72.2181302,74.9748344 72.2181302,78.2728477 C72.2181302,81.5708609 73.92,84.5748344 76.4489467,86.8556291 L60.6947219,86.8556291 C55.7958817,86.8556291 51.827503,83.0092715 51.827503,78.2728477 C51.827503,73.5284768 55.7958817,69.6900662 60.6947219,69.6900662 Z M180.33458,86.8556291 L164.572402,86.8556291 C167.109302,84.5748344 168.811172,81.5629139 168.811172,78.2728477 C168.811172,74.9748344 167.109302,71.9629139 164.572402,69.6900662 L180.33458,69.6900662 C185.23342,69.6900662 189.201799,73.5364238 189.201799,78.2728477 C189.201799,83.0092715 185.23342,86.8556291 180.33458,86.8556291 Z M86.4533964,172.603974 L154.591811,172.603974 C159.490651,172.603974 163.466982,176.442384 163.466982,181.186755 C163.466982,185.931126 159.490651,189.769536 154.591811,189.769536 L86.4533964,189.769536 C81.5545562,189.769536 77.5861775,185.931126 77.5861775,181.186755 C77.5861775,176.442384 81.5545562,172.603974 86.4533964,172.603974 Z M34.9360473,172.603974 L50.6902722,172.603974 C48.1613254,174.884768 46.451503,177.896689 46.451503,181.186755 C46.451503,184.484768 48.1613254,187.496689 50.6902722,189.769536 L34.9360473,189.769536 C30.0372071,189.769536 26.0688284,185.931126 26.0688284,181.186755 C26.0688284,176.442384 30.0372071,172.603974 34.9360473,172.603974 Z M206.029633,189.769536 L190.275408,189.769536 C192.812308,187.496689 194.514178,184.484768 194.514178,181.186755 C194.514178,177.896689 192.812308,174.884768 190.275408,172.603974 L206.029633,172.603974 C210.928473,172.603974 214.904805,176.450331 214.904805,181.186755 C214.904805,185.931126 210.928473,189.769536 206.029633,189.769536 Z M60.6947219,172.603974 L76.4489467,172.603974 C73.92,174.884768 72.2181302,177.896689 72.2181302,181.186755 C72.2181302,184.484768 73.92,187.496689 76.4489467,189.769536 L60.6947219,189.769536 C55.7958817,189.769536 51.827503,185.931126 51.827503,181.186755 C51.827503,176.442384 55.7958817,172.603974 60.6947219,172.603974 Z M180.33458,189.769536 L164.572402,189.769536 C167.109302,187.496689 168.811172,184.484768 168.811172,181.186755 C168.811172,177.896689 167.109302,174.884768 164.572402,172.603974 L180.33458,172.603974 C185.23342,172.603974 189.201799,176.450331 189.201799,181.186755 C189.201799,185.931126 185.23342,189.769536 180.33458,189.769536 Z M644.213396,111.46755 C649.462154,111.46755 653.716828,115.568212 653.716828,120.646358 L653.716828,168.471523 L672.11929,168.471523 L672.11929,122.060927 C671.872757,107.04106 659.196213,94.9298013 643.601041,94.9298013 L626.176757,94.9298013 L635.330272,111.46755 L644.213396,111.46755" id="RTP1" sketch:type="MSShapeGroup"></path>
        </g>
    </g>
</svg>