<?xml version="1.0" encoding="UTF-8" standalone="no"?>
<svg width="440px" height="260px" viewBox="0 0 440 260" version="1.1" xmlns="http://www.w3.org/2000/svg" xmlns:xlink="http://www.w3.org/1999/xlink" xmlns:sketch="http://www.bohemiancoding.com/sketch/ns">
    <title>Dizplay Soundlab</title>
    <defs></defs>
    <g id="Page-1" stroke="none" stroke-width="1" fill="none" fill-rule="evenodd" sketch:type="MSPage">
        <g id="logo-dizplay" sketch:type="MSArtboardGroup" fill="#000000">
            <path d="M178.3165,157.257751 L178.3165,37.04 L286.922083,97.1488757 L178.3165,157.257751 L178.3165,157.257751 Z M323.681611,18 L118.440361,18 C109.464583,18 102.327778,25.0049704 102.327778,33.4613018 L102.327778,160.823195 C102.327778,168.755976 108.893639,176.304379 118.440361,176.304379 L323.681611,176.304379 C332.458222,176.304379 339.780917,169.478343 339.780917,160.823195 L339.780917,33.4613018 C339.780917,25.9791716 333.620028,18 323.681611,18 Z M104.956778,236.797633 C104.843917,236.711479 104.724417,236.658462 104.585,236.625325 L104.372556,236.625325 C104.213222,236.625325 104.073806,236.665089 103.947667,236.737988 C103.821528,236.830769 103.755139,236.903669 103.755139,236.99645 L103.755139,237.016331 L103.775056,237.036213 L103.775056,237.062722 C103.794972,237.16213 103.894556,237.23503 104.073806,237.307929 C104.239778,237.374201 104.458861,237.433846 104.7045,237.513373 C104.863833,237.553136 105.036444,237.592899 105.228972,237.632663 C105.414861,237.679053 105.60075,237.725444 105.786639,237.778462 C106.251361,237.897751 106.689528,238.070059 107.087861,238.295385 C107.492833,238.52071 107.731833,238.838817 107.804861,239.262959 L107.824778,239.375621 L107.838056,239.534675 L107.838056,239.726864 C107.838056,240.349822 107.559222,240.860118 107.001556,241.264379 C106.443889,241.668639 105.60075,241.874083 104.458861,241.874083 C103.615722,241.874083 102.85225,241.748166 102.161806,241.509586 C101.471361,241.251124 101.066389,240.661302 100.900417,239.720237 L103.469667,239.706982 C103.516139,239.952189 103.615722,240.131124 103.761778,240.23716 C103.894556,240.343195 104.04725,240.422722 104.206583,240.462485 L104.292889,240.462485 L104.392472,240.47574 C104.585,240.47574 104.770889,240.422722 104.923583,240.323314 C105.089556,240.223905 105.175861,240.11787 105.175861,239.985325 L105.162583,239.905799 L105.136028,239.819645 C105.109472,239.766627 105.056361,239.713609 104.989972,239.667219 C104.936861,239.620828 104.850556,239.574438 104.744333,239.541302 C104.604917,239.481657 104.445583,239.448521 104.279611,239.40213 C104.113639,239.368994 103.954306,239.335858 103.788333,239.296095 C103.708667,239.289467 103.629,239.28284 103.562611,239.262959 C103.496222,239.256331 103.416556,239.243077 103.350167,239.223195 C102.958472,239.143669 102.566778,239.017751 102.208278,238.865325 C101.849778,238.719527 101.544389,238.461065 101.305389,238.096568 L101.272194,238.04355 L101.252278,237.944142 C101.232361,237.884497 101.212444,237.811598 101.185889,237.718817 C101.172611,237.619408 101.165972,237.526627 101.165972,237.427219 C101.165972,237.307929 101.172611,237.182012 101.199167,237.049467 C101.219083,236.916923 101.265556,236.784379 101.312028,236.63858 C101.451444,236.274083 101.756833,235.936095 102.208278,235.624615 C102.666361,235.319763 103.39,235.16071 104.365917,235.16071 C105.388306,235.16071 106.145139,235.346272 106.649694,235.68426 C107.147611,236.04213 107.433083,236.433136 107.499472,236.850651 L107.499472,236.956686 L107.51275,237.049467 L107.51275,237.148876 L105.142667,237.148876 C105.129389,236.99645 105.069639,236.883787 104.956778,236.80426 L104.956778,236.797633 Z M136.949583,237.221775 C136.770333,237.453728 136.664111,237.718817 136.611,237.990533 L136.584444,238.176095 L136.584444,238.374911 C136.584444,238.461065 136.584444,238.560473 136.604361,238.653254 C136.611,238.739408 136.630917,238.838817 136.657472,238.944852 C136.717222,239.229822 136.843361,239.488284 137.02925,239.733491 C137.2085,239.978698 137.460778,240.097988 137.786083,240.097988 C138.118028,240.097988 138.363667,239.978698 138.516361,239.733491 C138.675694,239.488284 138.781917,239.229822 138.828389,238.944852 C138.835028,238.838817 138.854944,238.739408 138.868222,238.653254 L138.868222,238.176095 L138.835028,237.990533 C138.795194,237.718817 138.682333,237.453728 138.509722,237.221775 C138.323833,236.983195 138.051639,236.870533 137.699778,236.870533 C137.381111,236.870533 137.128833,236.983195 136.956222,237.221775 L136.949583,237.221775 Z M137.699778,235.061302 C137.786083,235.067929 137.879028,235.067929 137.958694,235.081183 C138.051639,235.081183 138.144583,235.087811 138.22425,235.107692 C139.034194,235.180592 139.771111,235.478817 140.441639,235.989112 C141.125444,236.479527 141.490583,237.288047 141.543694,238.381538 L141.543694,238.560473 C141.543694,239.660592 141.178556,240.482367 140.468194,240.99929 C139.757833,241.516213 138.981083,241.801183 138.131306,241.854201 L137.958694,241.867456 L137.553722,241.867456 C136.657472,241.827692 135.827611,241.542722 135.077417,241.012544 C134.320583,240.488994 133.955444,239.614201 133.955444,238.381538 C133.955444,237.427219 134.214361,236.711479 134.738833,236.221065 C135.276583,235.737278 135.854167,235.405917 136.4915,235.226982 C136.697306,235.180592 136.896472,235.140828 137.102278,235.120947 C137.314722,235.081183 137.50725,235.067929 137.699778,235.067929 L137.699778,235.061302 M170.462694,235.339645 L170.462694,239.057515 C170.462694,239.322604 170.555639,239.508166 170.734889,239.634083 C170.900861,239.766627 171.106667,239.832899 171.312472,239.839527 L171.398778,239.839527 C171.604583,239.832899 171.790472,239.766627 171.969722,239.634083 C172.142333,239.508166 172.235278,239.322604 172.235278,239.070769 L172.235278,235.339645 L174.997056,235.339645 L174.997056,241.589112 L172.527389,241.589112 L172.527389,240.747456 C172.3415,241.098698 172.082583,241.363787 171.737361,241.549349 C171.398778,241.721657 171.033639,241.821065 170.661861,241.860828 L170.529083,241.88071 L170.283444,241.88071 C169.659389,241.840947 169.081806,241.64213 168.57725,241.264379 C168.059417,240.886627 167.807139,240.376331 167.807139,239.733491 L167.807139,235.339645 L170.462694,235.339645 M203.975806,235.246864 L203.975806,236.214438 C204.201528,235.889704 204.480361,235.63787 204.818944,235.452308 C205.164167,235.28 205.516028,235.173964 205.894444,235.127574 C205.960833,235.120947 206.027222,235.11432 206.086972,235.101065 L206.2795,235.101065 C206.890278,235.101065 207.454583,235.28 207.959139,235.631243 C208.470333,235.989112 208.72925,236.486154 208.72925,237.16213 L208.72925,241.589112 L206.067056,241.589112 L206.067056,237.990533 C206.067056,237.725444 205.98075,237.526627 205.8015,237.374201 C205.628889,237.241657 205.429722,237.168757 205.223917,237.16213 L205.137611,237.16213 C204.931806,237.168757 204.739278,237.241657 204.566667,237.374201 C204.387417,237.526627 204.287833,237.725444 204.287833,238.003787 L204.287833,241.589112 L201.632278,241.589112 L201.632278,235.246864 L203.975806,235.246864 M238.000111,237.480237 C237.807583,237.75858 237.708,238.089941 237.708,238.47432 C237.708,238.845444 237.800944,239.190059 237.966917,239.47503 C238.139528,239.76 238.418361,239.905799 238.816694,239.905799 C239.161917,239.905799 239.434111,239.766627 239.62,239.488284 C239.812528,239.209941 239.91875,238.905089 239.932028,238.573728 L239.932028,238.381538 L239.91875,238.295385 C239.892194,237.983905 239.785972,237.698935 239.606722,237.440473 C239.427472,237.182012 239.161917,237.049467 238.816694,237.049467 C238.471472,237.049467 238.192639,237.188639 238.000111,237.480237 M242.461444,232.808047 L242.461444,241.589112 L240.091361,241.589112 L240.091361,240.747456 C240.005056,241.04568 239.759417,241.28426 239.374361,241.469822 C238.995944,241.648757 238.571056,241.734911 238.106333,241.734911 C238.00675,241.734911 237.913806,241.734911 237.820861,241.728284 C237.727917,241.708402 237.641611,241.701775 237.535389,241.688521 C236.924611,241.589112 236.353667,241.28426 235.842472,240.780592 C235.324639,240.270296 235.065722,239.501538 235.065722,238.487574 C235.065722,237.347692 235.324639,236.532544 235.829194,236.002367 C236.33375,235.465562 236.891417,235.16071 237.488917,235.067929 C237.568583,235.054675 237.64825,235.048047 237.734556,235.034793 C237.807583,235.034793 237.880611,235.028166 237.960278,235.028166 C238.338694,235.028166 238.697194,235.101065 239.029139,235.226982 C239.367722,235.359527 239.62,235.538462 239.79925,235.750533 L239.79925,232.808047 L242.461444,232.808047 M269.109944,232.80142 L271.792056,232.80142 L271.792056,241.589112 L269.109944,241.589112 L269.109944,232.80142 Z M302.994833,238.871953 C302.888611,238.92497 302.789028,238.984615 302.669528,239.017751 C302.556667,239.057515 302.430528,239.084024 302.311028,239.11716 L302.204806,239.123787 L302.105222,239.156923 C301.852944,239.203314 301.627222,239.262959 301.421417,239.349112 C301.228889,239.428639 301.135944,239.59432 301.135944,239.819645 C301.135944,239.985325 301.208972,240.11787 301.361667,240.210651 C301.521,240.290178 301.686972,240.336568 301.892778,240.336568 L301.992361,240.329941 L302.105222,240.323314 C302.191528,240.303432 302.284472,240.276923 302.384056,240.23716 C302.470361,240.204024 302.543389,240.157633 302.603139,240.111243 C302.682806,240.031716 302.762472,239.945562 302.815583,239.866036 C302.875333,239.766627 302.915167,239.687101 302.941722,239.59432 C302.968278,239.534675 302.994833,239.448521 303.008111,239.375621 C303.01475,239.296095 303.021389,239.229822 303.021389,239.170178 L303.021389,239.11716 L303.008111,239.070769 L303.008111,238.944852 L302.994833,238.87858 L302.994833,238.871953 L302.994833,238.871953 Z M299.555889,235.644497 C299.987417,235.260118 300.969972,235.067929 302.503556,235.067929 C303.937556,235.067929 304.813889,235.299882 305.16575,235.737278 C305.504333,236.201183 305.7035,236.698225 305.743333,237.23503 L305.756611,237.294675 L305.769889,237.341065 L305.769889,240.648047 C305.769889,240.807101 305.789806,240.939645 305.849556,241.072189 C305.902667,241.198107 306.008889,241.310769 306.161583,241.416805 L306.161583,241.589112 L303.300222,241.589112 L303.200639,240.926391 C303.028028,241.151716 302.762472,241.330651 302.384056,241.47645 C301.999,241.622249 301.600667,241.701775 301.175778,241.734911 C301.116028,241.734911 301.049639,241.741538 300.989889,241.741538 C300.9235,241.748166 300.86375,241.754793 300.804,241.754793 L300.664583,241.754793 C300.259611,241.728284 299.867917,241.655385 299.496139,241.52284 C299.131,241.390296 298.852167,241.158343 298.666278,240.846864 L298.613167,240.740828 L298.540139,240.588402 C298.500306,240.488994 298.460472,240.369704 298.427278,240.230533 C298.387444,240.091361 298.374167,239.938935 298.374167,239.793136 C298.374167,239.700355 298.380806,239.59432 298.394083,239.501538 C298.420639,239.388876 298.447194,239.28284 298.480389,239.190059 C298.513583,239.084024 298.579972,238.977988 298.639722,238.871953 C298.706111,238.75929 298.779139,238.673136 298.858806,238.573728 C299.07125,238.35503 299.336806,238.176095 299.695306,238.076686 C300.040528,237.964024 300.405667,237.884497 300.784083,237.838107 C300.916861,237.811598 301.062917,237.785089 301.208972,237.771834 C301.348389,237.751953 301.481167,237.738698 301.607306,237.712189 C301.799833,237.698935 301.992361,237.672426 302.164972,237.645917 C302.344222,237.619408 302.483639,237.579645 302.603139,237.533254 C302.702722,237.513373 302.782389,237.466982 302.855417,237.407337 C302.921806,237.334438 302.968278,237.268166 302.981556,237.215148 L302.988194,237.168757 L302.994833,237.11574 L302.988194,237.075976 L302.981556,237.04284 C302.955,236.950059 302.888611,236.883787 302.77575,236.810888 C302.65625,236.744615 302.503556,236.704852 302.311028,236.704852 C302.072028,236.704852 301.859583,236.744615 301.667056,236.810888 C301.487806,236.883787 301.381583,237.022959 301.328472,237.254911 L298.666278,237.23503 C298.812333,236.552426 299.111083,236.022249 299.555889,235.644497 L299.555889,235.644497 Z M334.994278,237.480237 C334.781833,237.75858 334.68225,238.089941 334.68225,238.47432 C334.68225,238.845444 334.781833,239.190059 334.994278,239.47503 C335.206722,239.76 335.492194,239.905799 335.883889,239.905799 C336.249028,239.905799 336.507944,239.76 336.680556,239.47503 C336.846528,239.190059 336.932833,238.871953 336.939472,238.540592 L336.939472,238.381538 C336.926194,238.050178 336.826611,237.745325 336.654,237.473609 C336.481389,237.188639 336.242389,237.049467 335.930361,237.049467 L335.883889,237.049467 C335.492194,237.049467 335.206722,237.188639 334.994278,237.480237 M334.808389,232.808047 L334.808389,235.737278 C334.994278,235.525207 335.259833,235.359527 335.605056,235.226982 C335.943639,235.101065 336.2955,235.028166 336.680556,235.028166 C336.746944,235.028166 336.806694,235.034793 336.879722,235.034793 C336.946111,235.048047 337.019139,235.048047 337.078889,235.054675 C337.696306,235.140828 338.260611,235.432426 338.765167,235.942722 C339.276361,236.459645 339.535278,237.268166 339.535278,238.381538 C339.535278,239.508166 339.269722,240.336568 338.712056,240.853491 C338.167667,241.363787 337.563528,241.668639 336.906278,241.728284 L336.766861,241.728284 L336.620806,241.734911 C336.202556,241.734911 335.810861,241.655385 335.439083,241.509586 C335.067306,241.343905 334.781833,241.131834 334.582667,240.846864 L334.582667,241.589112 L332.146194,241.589112 L332.146194,232.808047 L334.808389,232.808047 Z M213.6885,226.48568 L202.004056,226.48568 L202.004056,199.512899 C202.004056,198.585089 202.183306,197.710296 202.561722,196.881893 C202.940139,196.066746 203.438056,195.351006 204.062111,194.747929 C204.686167,194.151479 205.423083,193.67432 206.286139,193.31645 C207.142556,192.951953 208.058722,192.786272 209.028,192.786272 L232.423444,192.786272 C233.386083,192.786272 234.30225,192.951953 235.152028,193.31645 C236.021722,193.67432 236.752,194.158107 237.382694,194.754556 C238.00675,195.357633 238.511306,196.066746 238.883083,196.895148 C239.248222,197.710296 239.447389,198.585089 239.447389,199.512899 L239.447389,210.75929 C239.447389,211.693728 239.248222,212.561893 238.883083,213.383669 C238.511306,214.212071 238.00675,214.927811 237.382694,215.530888 C236.765278,216.127337 236.021722,216.604497 235.171944,216.968994 C234.308889,217.326864 233.392722,217.499172 232.430083,217.499172 L216.045306,217.499172 L216.045306,210.772544 L225.412778,210.772544 C226.063389,210.772544 226.621056,210.553846 227.079139,210.11645 C227.530583,209.679053 227.762944,209.155503 227.762944,208.512663 L227.762944,201.766154 C227.762944,201.136568 227.530583,200.606391 227.079139,200.162367 C226.621056,199.72497 226.063389,199.506272 225.412778,199.506272 L216.032028,199.506272 C215.381417,199.506272 214.82375,199.72497 214.365667,200.162367 C213.914222,200.599763 213.6885,201.129941 213.6885,201.759527 L213.6885,226.48568 Z M244.061417,183.806391 L255.759139,183.806391 L255.759139,217.499172 L244.061417,217.499172 L244.061417,183.806391 Z M285.966083,201.766154 C285.966083,201.129941 285.740361,200.599763 285.282278,200.162367 C284.824194,199.72497 284.273167,199.512899 283.622556,199.512899 L274.241806,199.512899 C273.584556,199.512899 273.033528,199.72497 272.582083,200.162367 C272.124,200.606391 271.904917,201.136568 271.904917,201.766154 L271.904917,208.512663 C271.904917,209.155503 272.124,209.679053 272.582083,210.11645 C273.033528,210.553846 273.584556,210.772544 274.241806,210.772544 L283.602639,210.772544 L283.602639,217.499172 L267.2245,217.499172 C266.255222,217.499172 265.345694,217.326864 264.489278,216.968994 C263.632861,216.604497 262.895944,216.127337 262.26525,215.52426 C261.647833,214.927811 261.136639,214.212071 260.778139,213.383669 C260.399722,212.561893 260.213833,211.693728 260.213833,210.75929 L260.213833,199.519527 C260.213833,198.585089 260.399722,197.710296 260.778139,196.895148 C261.136639,196.066746 261.647833,195.357633 262.26525,194.754556 C262.895944,194.158107 263.632861,193.680947 264.489278,193.31645 C265.352333,192.951953 266.261861,192.786272 267.231139,192.786272 L290.633222,192.786272 C291.6025,192.786272 292.512028,192.951953 293.368444,193.31645 C294.2315,193.67432 294.968417,194.151479 295.592472,194.747929 C296.209889,195.351006 296.721083,196.060118 297.0995,196.881893 C297.464639,197.703669 297.650528,198.585089 297.650528,199.512899 L297.650528,217.499172 L285.966083,217.499172 L285.966083,201.766154 Z M314.712472,210.11645 C315.163917,210.547219 315.714944,210.772544 316.378833,210.772544 L328.096472,210.772544 L328.096472,192.786272 L339.780917,192.786272 L339.780917,226.48568 L328.096472,226.48568 L328.096472,217.499172 L309.374806,217.499172 C308.398889,217.499172 307.476083,217.320237 306.626306,216.962367 C305.769889,216.604497 305.026333,216.127337 304.408917,215.52426 C303.778222,214.927811 303.280306,214.218698 302.901889,213.390296 C302.530111,212.575148 302.350861,211.700355 302.350861,210.772544 L302.350861,192.786272 L314.035306,192.786272 L314.035306,208.525917 C314.035306,209.155503 314.261028,209.679053 314.712472,210.11645 Z M127.283361,183.806391 L138.974444,183.806391 L138.974444,210.765917 C138.974444,211.693728 138.781917,212.568521 138.416778,213.396923 C138.045,214.212071 137.533806,214.927811 136.916389,215.530888 C136.285694,216.127337 135.548778,216.604497 134.692361,216.968994 C133.829306,217.320237 132.919778,217.499172 131.957139,217.499172 L108.555056,217.499172 C107.592417,217.499172 106.669611,217.320237 105.813194,216.968994 C104.956778,216.604497 104.213222,216.127337 103.589167,215.530888 C102.97175,214.927811 102.460556,214.212071 102.082139,213.390296 C101.717,212.561893 101.531111,211.693728 101.531111,210.752663 L101.531111,199.512899 C101.531111,198.591716 101.717,197.716923 102.082139,196.895148 C102.460556,196.060118 102.97175,195.357633 103.589167,194.761183 C104.206583,194.158107 104.950139,193.680947 105.806556,193.31645 C106.662972,192.951953 107.579139,192.786272 108.548417,192.786272 L124.926556,192.786272 L124.926556,199.506272 L115.559083,199.506272 C114.908472,199.506272 114.357444,199.72497 113.906,200.168994 C113.454556,200.599763 113.222194,201.136568 113.222194,201.766154 L113.222194,208.51929 C113.222194,209.155503 113.454556,209.679053 113.906,210.11645 C114.357444,210.553846 114.908472,210.772544 115.559083,210.772544 L124.939833,210.772544 C125.597083,210.772544 126.15475,210.553846 126.606194,210.123077 C127.057639,209.679053 127.283361,209.155503 127.283361,208.525917 L127.283361,183.806391 Z M143.6615,192.786272 L155.352583,192.786272 L155.352583,217.499172 L143.6615,217.499172 L143.6615,192.786272 Z M143.6615,183.806391 L155.352583,183.806391 L155.352583,190.572781 L143.6615,190.572781 L143.6615,183.806391 Z M197.250611,210.852071 L174.824444,210.858698 L193.6125,203.68142 C193.6125,203.68142 198.458889,202.017988 197.522806,197.458462 C196.586722,192.912189 191.7005,192.753136 191.7005,192.753136 L160.026361,192.753136 L160.026361,199.446627 L182.445889,199.446627 L164.129194,206.431716 C164.129194,206.431716 159.349194,207.916213 159.840472,212.628166 C160.33175,217.340118 165.682694,217.505799 165.682694,217.505799 L197.250611,217.505799 L197.250611,210.852071 L197.250611,217.505799" id="Dizplay" sketch:type="MSShapeGroup"></path>
        </g>
    </g>
</svg>