<?xml version="1.0" encoding="UTF-8" standalone="no"?>
<svg width="224px" height="54px" viewBox="0 0 224 54" version="1.1" xmlns="http://www.w3.org/2000/svg" xmlns:xlink="http://www.w3.org/1999/xlink" xmlns:sketch="http://www.bohemiancoding.com/sketch/ns">
    <title>Infraestruturas de Portugal</title>
    <defs></defs>
    <g id="Page-1" stroke="none" stroke-width="1" fill="none" fill-rule="evenodd" sketch:type="MSPage">
        <g id="Group" sketch:type="MSLayerGroup" fill="#000000">
            <path d="M25.6396,32.0024 L25.6396,32.0024 C18.7376,39.4654 10.0106,44.4694 0.3736,45.9004 C1.5496,50.4624 5.6986,53.8374 10.6356,53.8374 L32.3836,53.8374 C31.5906,48.6884 31.1646,43.2954 31.1646,37.7344 C31.1646,36.6194 31.2176,34.2584 31.2176,34.1874 C31.2176,32.4114 29.7686,30.9724 27.9946,30.9724 C27.1146,30.9724 26.3036,31.3284 25.7276,31.9164 L25.6396,32.0024 Z" id="Fill-1" sketch:type="MSShapeGroup"></path>
            <path d="M34.9775,29.6875 C34.9775,38.7055 37.9715,47.0455 43.0635,53.8375 L43.1005,53.8375 C48.9575,53.8375 53.7095,49.0915 53.7095,43.2345 L53.7095,10.7725 C53.7095,6.3145 50.9615,2.5085 47.0675,0.9325 C39.5815,8.3765 34.9775,18.5105 34.9775,29.6875" id="Fill-3" sketch:type="MSShapeGroup"></path>
            <path d="M0.0322,10.7729 L0.0322,39.7139 C19.8932,36.1769 34.9212,19.8189 34.9212,0.1619 L10.6362,0.1619 C4.7842,0.1619 0.0322,4.9169 0.0322,10.7729" id="Fill-5" sketch:type="MSShapeGroup"></path>
            <path d="M209.5498,22.937 C209.2588,23.01 208.8898,23.057 208.4448,23.079 C208.1138,23.103 207.7488,23.118 207.3428,23.12 L207.3408,23.124 C206.6538,23.124 206.0988,22.903 205.6498,22.461 C205.2468,22.071 205.0418,21.625 205.0418,21.12 C205.0418,19.657 205.7038,18.925 207.0298,18.925 L209.5498,18.925 L209.5498,22.937 Z M211.1238,12.813 C210.1628,11.892 208.8858,11.43 207.2858,11.43 C206.0988,11.43 204.6008,11.699 202.8058,12.227 L203.4698,14.758 C205.2178,14.301 206.4948,14.073 207.2858,14.073 C208.7958,14.073 209.5498,14.956 209.5498,16.71 L209.5498,16.764 L207.0298,16.764 C205.4908,16.764 204.2768,17.151 203.3778,17.922 C202.4818,18.697 202.0398,19.772 202.0398,21.141 C202.0398,22.461 202.5578,23.561 203.5908,24.44 C204.6238,25.311 205.8618,25.754 207.3198,25.759 C207.8268,25.759 208.3618,25.741 208.8898,25.693 C209.4428,25.651 209.9578,25.605 210.4268,25.549 C210.8918,25.5 211.3228,25.444 211.6848,25.379 C212.0658,25.316 212.3548,25.275 212.5728,25.237 L212.5728,16.657 C212.5728,15.023 212.0948,13.737 211.1238,12.813 L211.1238,12.813 Z" id="Fill-7" sketch:type="MSShapeGroup"></path>
            <path d="M207.3408,25.7607 C207.3348,25.7607 207.3268,25.7597 207.3198,25.7597 C207.2938,25.7597 207.2798,25.7607 207.2628,25.7607 L207.3408,25.7607 Z" id="Fill-9" sketch:type="MSShapeGroup"></path>
            <path d="M108.1338,22.9399 C107.8408,23.0099 107.4818,23.0569 107.0298,23.0789 C106.6928,23.1029 106.3208,23.1179 105.9208,23.1239 C105.2338,23.1239 104.6688,22.9049 104.2298,22.4609 C103.8248,22.0709 103.6298,21.6279 103.6298,21.1199 C103.6298,19.6579 104.2858,18.9249 105.6048,18.9249 L108.1338,18.9249 L108.1338,22.9399 Z M109.7018,12.8169 C108.7468,11.8919 107.4698,11.4299 105.8628,11.4299 C104.6688,11.4299 103.1828,11.6989 101.3798,12.2269 L102.0418,14.7579 C103.8018,14.3009 105.0788,14.0729 105.8628,14.0729 C107.3778,14.0729 108.1338,14.9559 108.1338,16.7129 L108.1338,16.7639 L105.6048,16.7639 C104.0748,16.7639 102.8638,17.1509 101.9638,17.9219 C101.0658,18.6969 100.6128,19.7729 100.6128,21.1409 C100.6128,22.4609 101.1318,23.5609 102.1748,24.4409 C103.2018,25.3139 104.4428,25.7539 105.8898,25.7609 C106.4228,25.7589 106.9388,25.7409 107.4818,25.6929 C108.0188,25.6509 108.5298,25.6049 108.9988,25.5489 C109.4698,25.5039 109.8918,25.4439 110.2748,25.3789 C110.6378,25.3199 110.9368,25.2779 111.1498,25.2369 L111.1498,16.6569 C111.1498,15.0229 110.6608,13.7389 109.7018,12.8169 L109.7018,12.8169 Z" id="Fill-11" sketch:type="MSShapeGroup"></path>
            <path d="M140.5518,14.0728 L140.5518,20.8808 C140.5518,21.5648 140.7298,22.1138 141.0948,22.5188 C141.4578,22.9238 141.9598,23.1298 142.6088,23.1298 C143.2648,23.1298 143.8958,22.8158 144.4878,22.1818 L145.7428,24.3218 C144.6728,25.2838 143.4858,25.7608 142.1978,25.7608 C140.8958,25.7608 139.7958,25.3088 138.8818,24.4178 C137.9718,23.5238 137.5108,22.3158 137.5108,20.7978 L137.5108,7.5298 L140.5518,7.5298 L140.5518,11.6438 L144.3548,11.6438 L143.5868,14.0728 L140.5518,14.0728 Z" id="Fill-13" sketch:type="MSShapeGroup"></path>
            <path d="M91.1904,6.9253 L90.5794,9.4573 C89.8234,9.2593 89.2104,9.1643 88.7314,9.1643 C88.3354,9.1643 87.9814,9.3073 87.6964,9.5873 C87.4054,9.8663 87.2684,10.2543 87.2684,10.7493 L87.2684,11.6433 L90.5364,11.6433 L90.3194,14.0723 L87.2684,14.0723 L87.2684,25.5233 L84.2494,25.5233 L84.2494,14.0723 L84.2494,11.6433 L84.2494,10.7493 C84.2494,9.4093 84.7194,8.3543 85.6724,7.5823 C86.5244,6.8743 87.5474,6.5293 88.7624,6.5293 C89.4524,6.5293 90.2604,6.6593 91.1904,6.9253" id="Fill-15" sketch:type="MSShapeGroup"></path>
            <path d="M173.5322,14.0728 L173.5322,20.8808 C173.5322,21.5648 173.7042,22.1138 174.0572,22.5188 C174.4282,22.9238 174.9322,23.1298 175.5772,23.1298 C176.2332,23.1298 176.8562,22.8158 177.4482,22.1818 L178.7022,24.3218 C177.6342,25.2838 176.4602,25.7608 175.1592,25.7608 C173.8662,25.7608 172.7702,25.3088 171.8502,24.4178 C170.9382,23.5238 170.4812,22.3158 170.4812,20.7978 L170.4812,7.5298 L173.5322,7.5298 L173.5322,11.6438 L177.3172,11.6438 L176.5462,14.0728 L173.5322,14.0728 Z" id="Fill-17" sketch:type="MSShapeGroup"></path>
            <path d="M67.718,25.523 L64.71,25.523 L64.71,7.714 L67.718,7.714 L67.718,25.523 Z" id="Fill-19" sketch:type="MSShapeGroup"></path>
            <path d="M81.4463,25.5229 L78.4383,25.5229 L78.4383,16.6319 C78.4383,15.8769 78.2023,15.2589 77.7393,14.7859 C77.2763,14.3119 76.6863,14.0729 75.9603,14.0729 C75.2213,14.0729 74.6223,14.3119 74.1593,14.7859 C73.6903,15.2589 73.4503,15.8769 73.4503,16.6319 L73.4503,25.5229 L70.4503,25.5229 L70.4503,16.6319 C70.4503,15.1149 70.9813,13.8749 72.0573,12.8949 C73.1263,11.9219 74.4263,11.4299 75.9603,11.4299 C77.4893,11.4299 78.7983,11.9219 79.8623,12.8949 C80.9133,13.8749 81.4463,15.1149 81.4463,16.6319 L81.4463,25.5229 Z" id="Fill-21" sketch:type="MSShapeGroup"></path>
            <path d="M99.8721,11.6987 L99.2921,14.2787 C98.4831,14.1207 97.9361,14.0427 97.6341,14.0427 C96.8881,14.0427 96.2881,14.2787 95.8291,14.7587 C95.3781,15.2307 95.1591,15.8607 95.1591,16.6317 L95.1591,25.5227 L92.1381,25.5227 L92.1381,16.6317 C92.1381,15.0867 92.6711,13.8217 93.7141,12.8607 C94.7531,11.8857 96.0631,11.4077 97.6081,11.4077 C98.2261,11.4077 98.9721,11.4997 99.8721,11.6987" id="Fill-22" sketch:type="MSShapeGroup"></path>
            <path d="M121.2139,17.0781 L121.2139,16.6571 C121.2139,15.8971 120.9759,15.2771 120.5169,14.7981 C120.0579,14.3171 119.4759,14.0731 118.7609,14.0731 C118.0259,14.0731 117.4249,14.3171 116.9439,14.7981 C116.4619,15.2771 116.2179,15.8971 116.2179,16.6571 L116.2179,17.0781 L121.2139,17.0781 Z M124.2139,19.5301 L116.2179,19.5301 L116.2179,20.4551 C116.2179,21.2681 116.4719,21.9111 116.9679,22.3971 C117.4699,22.8821 118.1439,23.1241 118.9639,23.1241 C119.7019,23.1241 121.0209,22.9031 122.9269,22.4611 L123.5339,24.9921 C121.7859,25.5081 120.2649,25.7611 118.9639,25.7611 C117.2959,25.7611 115.9189,25.2721 114.8289,24.2841 C113.7489,23.2961 113.2179,22.0231 113.2179,20.4551 L113.2179,16.6571 C113.2179,15.1451 113.7469,13.8911 114.8189,12.9111 C115.8879,11.9271 117.2019,11.4301 118.7319,11.4301 C120.2589,11.4301 121.5539,11.9271 122.6259,12.9111 C123.6889,13.8911 124.2139,15.1451 124.2139,16.6571 L124.2139,19.5301 Z" id="Fill-23" sketch:type="MSShapeGroup"></path>
            <path d="M135.4697,21.6465 C135.4697,22.7525 135.0517,23.6885 134.2097,24.4655 C133.2447,25.3305 131.9347,25.7605 130.3037,25.7605 C128.9797,25.7605 127.5227,25.4965 125.9167,24.9715 L126.5287,22.4355 C128.2317,22.8945 129.4907,23.1245 130.3037,23.1245 C131.0397,23.1245 131.5987,22.9585 131.9907,22.6165 C132.3287,22.3565 132.4947,22.0435 132.4947,21.6715 C132.4947,20.9315 131.9537,20.3675 130.8857,19.9785 C129.1767,19.3645 128.1027,18.8915 127.6627,18.5605 C126.6787,17.8335 126.1867,16.7715 126.1867,15.3635 C126.1867,14.2195 126.6317,13.2755 127.5007,12.5425 C128.3817,11.8025 129.5287,11.4295 130.9407,11.4295 C132.1867,11.4295 133.5537,11.6715 135.0207,12.1445 L134.4427,14.6525 C133.0007,14.2655 131.8347,14.0725 130.9407,14.0725 C129.7527,14.0725 129.1607,14.4995 129.1607,15.3635 C129.1607,15.7705 129.2727,16.0715 129.4857,16.2725 C129.7017,16.4805 130.0697,16.6705 130.5867,16.8725 C132.4017,17.5155 133.5187,17.9955 133.9407,18.2885 C134.9677,19.0145 135.4697,20.1295 135.4697,21.6465" id="Fill-24" sketch:type="MSShapeGroup"></path>
            <path d="M154.8467,11.6987 L154.2627,14.2787 C153.4487,14.1207 152.8897,14.0427 152.5967,14.0427 C151.8607,14.0427 151.2607,14.2787 150.7997,14.7587 C150.3367,15.2307 150.1177,15.8607 150.1177,16.6317 L150.1177,25.5227 L147.1107,25.5227 L147.1107,16.6317 C147.1107,15.0867 147.6297,13.8217 148.6847,12.8607 C149.7197,11.8857 151.0167,11.4077 152.5677,11.4077 C153.1887,11.4077 153.9427,11.4997 154.8467,11.6987" id="Fill-25" sketch:type="MSShapeGroup"></path>
            <path d="M167.6572,20.5278 C167.6572,22.0498 167.1102,23.2958 166.0382,24.2838 C164.9662,25.2728 163.6802,25.7608 162.1672,25.7608 C160.6122,25.7608 159.3112,25.2728 158.2472,24.2838 C157.1862,23.2958 156.6472,22.0498 156.6472,20.5278 L156.6472,11.6718 L159.6632,11.6718 L159.6632,20.5278 C159.6632,21.2898 159.8872,21.9108 160.3582,22.3968 C160.8212,22.8818 161.4212,23.1238 162.1672,23.1238 C162.8912,23.1238 163.4772,22.8818 163.9542,22.3968 C164.4132,21.9108 164.6412,21.2898 164.6412,20.5278 L164.6412,11.6438 L167.6572,11.6438 L167.6572,20.5278 Z" id="Fill-26" sketch:type="MSShapeGroup"></path>
            <path d="M190.7119,20.5278 C190.7119,22.0498 190.1709,23.2958 189.1049,24.2838 C188.0259,25.2728 186.7319,25.7608 185.2179,25.7608 C183.6729,25.7608 182.3619,25.2728 181.3019,24.2838 C180.2349,23.2958 179.7099,22.0498 179.7099,20.5278 L179.7099,11.6718 L182.7139,11.6718 L182.7139,20.5278 C182.7139,21.2898 182.9539,21.9108 183.4189,22.3968 C183.8819,22.8818 184.4909,23.1238 185.2179,23.1238 C185.9389,23.1238 186.5279,22.8818 186.9949,22.3968 C187.4719,21.9108 187.7019,21.2898 187.7019,20.5278 L187.7019,11.6438 L190.7119,11.6438 L190.7119,20.5278 Z" id="Fill-27" sketch:type="MSShapeGroup"></path>
            <path d="M201.2686,11.6987 L200.6926,14.2787 C199.8796,14.1207 199.3236,14.0427 199.0246,14.0427 C198.2826,14.0427 197.6866,14.2787 197.2356,14.7587 C196.7746,15.2307 196.5416,15.8607 196.5416,16.6317 L196.5416,25.5227 L193.5396,25.5227 L193.5396,16.6317 C193.5396,15.0867 194.0656,13.8217 195.1186,12.8607 C196.1556,11.8857 197.4596,11.4077 199.0026,11.4077 C199.6206,11.4077 200.3796,11.4997 201.2686,11.6987" id="Fill-28" sketch:type="MSShapeGroup"></path>
            <path d="M223.9678,21.6465 C223.9678,22.7525 223.5438,23.6885 222.6968,24.4655 C221.7258,25.3305 220.4348,25.7605 218.7898,25.7605 C217.4778,25.7605 216.0128,25.4965 214.4208,24.9715 L215.0288,22.4355 C216.7358,22.8945 217.9878,23.1245 218.7898,23.1245 C219.5318,23.1245 220.0928,22.9585 220.4798,22.6165 C220.8138,22.3565 220.9838,22.0435 220.9838,21.6715 C220.9838,20.9315 220.4498,20.3675 219.3758,19.9785 C217.6728,19.3645 216.5968,18.8915 216.1538,18.5605 C215.1728,17.8335 214.6768,16.7715 214.6768,15.3635 C214.6768,14.2195 215.1198,13.2755 215.9988,12.5425 C216.8798,11.8025 218.0188,11.4295 219.4208,11.4295 C220.6708,11.4295 222.0398,11.6715 223.5248,12.1445 L222.9328,14.6525 C221.4988,14.2655 220.3198,14.0725 219.4208,14.0725 C218.2428,14.0725 217.6648,14.4995 217.6648,15.3635 C217.6648,15.7705 217.7628,16.0715 217.9818,16.2725 C218.1828,16.4805 218.5518,16.6705 219.0828,16.8725 C220.9018,17.5155 222.0148,17.9955 222.4408,18.2885 C223.4538,19.0145 223.9678,20.1295 223.9678,21.6465" id="Fill-29" sketch:type="MSShapeGroup"></path>
            <path d="M133.1104,37.6528 L133.1104,47.1188 C133.1104,47.4228 133.1784,47.6648 133.3444,47.8398 C133.5034,48.0258 133.7354,48.1168 134.0264,48.1168 C134.3054,48.1168 134.5834,47.9748 134.8444,47.6918 L135.4054,48.6468 C134.9284,49.0688 134.3994,49.2848 133.8274,49.2848 C133.2644,49.2848 132.7684,49.0858 132.3604,48.6838 C131.9564,48.2878 131.7534,47.7518 131.7534,47.0828 L131.7534,32.2588 L133.1104,32.2588 L133.1104,36.5418 L134.7984,36.5418 L134.4444,37.6528 L133.1104,37.6528 Z" id="Fill-30" sketch:type="MSShapeGroup"></path>
            <path d="M173.5322,47.1187 C173.5322,47.4227 173.5952,47.6647 173.7642,47.8397 C173.9232,48.0257 174.1552,48.1177 174.4462,48.1177 C174.7252,48.1177 175.0052,47.9747 175.2642,47.6917 L175.8312,48.6467 C175.3462,49.0687 174.8252,49.2847 174.2532,49.2847 C173.6862,49.2847 173.1862,49.0857 172.7842,48.6837 C172.3762,48.2877 172.1772,47.7517 172.1772,47.0827 L172.1772,31.5997 L173.5322,31.5997 L173.5322,47.1187 Z" id="Fill-31" sketch:type="MSShapeGroup"></path>
            <path d="M108.2881,37.186 C108.2881,34.87 107.2821,33.713 105.2631,33.713 L101.2241,33.713 L101.2241,40.733 L105.2631,40.733 C107.2821,40.733 108.2881,39.557 108.2881,37.186 M109.6531,37.186 C109.6531,38.554 109.2571,39.677 108.4811,40.564 C107.6831,41.5 106.6061,41.966 105.2631,41.966 L101.2241,41.966 L101.2241,49.06 L99.8661,49.06 L99.8661,32.433 L105.2631,32.433 C106.6061,32.433 107.6811,32.88 108.4601,33.778 C109.2491,34.672 109.6531,35.806 109.6531,37.186" id="Fill-32" sketch:type="MSShapeGroup"></path>
            <path d="M119.415,44.1646 L119.415,41.4516 C119.415,40.1366 119.083,39.1446 118.407,38.4726 C117.796,37.8656 116.96,37.5596 115.888,37.5596 C114.862,37.5596 114.03,37.8656 113.405,38.4726 C112.739,39.1636 112.394,40.1546 112.394,41.4516 L112.394,44.1646 C112.394,45.4766 112.739,46.4686 113.405,47.1386 C114.013,47.7476 114.843,48.0516 115.888,48.0516 C116.944,48.0516 117.784,47.7476 118.407,47.1386 C119.083,46.4466 119.415,45.4596 119.415,44.1646 L119.415,44.1646 Z M120.753,44.2066 C120.753,45.7716 120.304,47.0076 119.394,47.9126 C118.487,48.8266 117.321,49.2846 115.888,49.2846 C114.466,49.2846 113.304,48.8266 112.419,47.9126 C111.52,47.0076 111.065,45.7716 111.065,44.2066 L111.065,41.3756 C111.065,39.8146 111.52,38.5806 112.419,37.6846 C113.304,36.7826 114.466,36.3266 115.888,36.3266 C117.321,36.3266 118.487,36.7826 119.394,37.6846 C120.304,38.5806 120.753,39.8146 120.753,41.3756 L120.753,44.2066 Z" id="Fill-33" sketch:type="MSShapeGroup"></path>
            <path d="M129.2139,36.4233 L128.9639,37.6523 C128.6549,37.5943 128.3229,37.5593 127.9539,37.5593 C127.0189,37.5593 126.2469,37.8653 125.6499,38.4723 C125.0539,39.0773 124.7589,39.8743 124.7589,40.8623 L124.7589,49.0593 L123.4249,49.0593 L123.4249,40.8623 C123.4249,39.5083 123.8549,38.4153 124.7039,37.5683 C125.5639,36.7233 126.6379,36.3043 127.9269,36.3043 C128.4249,36.3043 128.8489,36.3403 129.2139,36.4233" id="Fill-34" sketch:type="MSShapeGroup"></path>
            <path d="M146.9424,44.7769 C146.9424,46.0899 146.5044,47.1699 145.6244,48.0169 C144.7414,48.8599 143.6614,49.2849 142.3834,49.2849 C141.1144,49.2849 140.0244,48.8599 139.1474,48.0169 C138.2604,47.1699 137.8254,46.0899 137.8254,44.7769 L137.8254,36.5269 L139.1534,36.5269 L139.1534,44.7769 C139.1534,45.7569 139.4584,46.5509 140.0594,47.1379 C140.6614,47.7349 141.4384,48.0289 142.3834,48.0289 C143.3194,48.0289 144.0904,47.7299 144.6984,47.1279 C145.3114,46.5269 145.6204,45.7449 145.6204,44.7769 L145.6204,36.5269 L146.9424,36.5269 L146.9424,44.7769 Z" id="Fill-35" sketch:type="MSShapeGroup"></path>
            <path d="M151.7256,43.7187 C151.2316,43.1777 150.9936,42.4597 150.9936,41.5747 L150.9936,40.5107 C150.9936,39.6297 151.2316,38.9057 151.7256,38.3437 C152.2276,37.7897 152.9446,37.5047 153.8936,37.5047 C154.8506,37.5047 155.5616,37.7867 156.0386,38.3357 C156.5166,38.8817 156.7546,39.6147 156.7546,40.5107 L156.7546,41.5747 C156.7546,43.5437 155.8056,44.5257 153.8936,44.5257 C152.9446,44.5257 152.2276,44.2587 151.7256,43.7187 M157.0286,48.0737 C156.5826,47.9097 155.5086,47.7167 153.8216,47.4857 C152.6726,47.3207 152.1026,47.0207 152.1026,46.5767 C152.1026,46.2087 152.3176,45.8927 152.7606,45.6147 C153.1216,45.6967 153.4986,45.7377 153.8936,45.7377 C155.1276,45.7377 156.1296,45.3547 156.9016,44.5887 C157.6686,43.8247 158.0596,42.8177 158.0596,41.5747 L158.0596,40.5107 C158.0596,39.4937 157.7826,38.6527 157.3196,38.0067 L158.2466,37.4497 L157.9546,36.2337 L156.4446,37.1237 C155.7116,36.5967 154.8116,36.3267 153.8936,36.3267 C152.6646,36.3267 151.6516,36.7127 150.8686,37.4837 C150.0846,38.2567 149.6786,39.2637 149.6786,40.5107 L149.6786,41.5747 C149.6786,43.2957 150.3876,44.5187 151.7826,45.2467 C151.1006,45.6687 150.7626,46.1427 150.7626,46.6707 C150.7626,47.5447 151.3466,48.1257 152.5186,48.4247 C153.5806,48.5857 154.6496,48.7567 155.7156,48.9407 C156.8856,49.2027 157.4736,49.7207 157.4736,50.4927 C157.4736,51.8517 156.2846,52.5317 153.9246,52.5317 C152.5226,52.5317 151.1296,52.2177 149.7336,51.5777 L149.2916,52.7357 C150.6006,53.4557 152.1436,53.8207 153.9246,53.8207 C155.4676,53.8207 156.6496,53.5157 157.4956,52.9067 C158.3256,52.2967 158.7456,51.5027 158.7456,50.5177 C158.7456,49.3517 158.1686,48.5337 157.0286,48.0737" id="Fill-36" sketch:type="MSShapeGroup"></path>
            <path d="M167.5557,47.813 C167.2357,47.877 166.8467,47.93 166.3917,47.969 C165.2687,48.057 164.4037,48.025 164.4037,48.025 C163.5907,47.988 162.9207,47.737 162.3977,47.252 C161.8287,46.734 161.5457,46.101 161.5457,45.344 C161.5457,43.64 162.4557,42.783 164.2847,42.783 L167.5557,42.783 L167.5557,47.813 Z M167.7177,37.495 C166.9307,36.717 165.8697,36.327 164.5307,36.327 C163.4557,36.327 162.3097,36.506 161.0927,36.867 L161.3957,38.1 C162.6297,37.756 163.6727,37.581 164.5307,37.581 C166.5457,37.581 167.5557,38.667 167.5557,40.835 L167.5557,41.575 L164.2847,41.575 C163.0147,41.575 162.0187,41.916 161.2917,42.592 C160.5807,43.276 160.2117,44.207 160.2117,45.394 C160.2117,46.475 160.6297,47.397 161.4857,48.148 C162.3267,48.905 163.3607,49.285 164.5827,49.285 L164.5827,49.283 C164.9927,49.277 165.3957,49.258 165.8057,49.221 C166.2917,49.188 166.7337,49.132 167.1297,49.065 C167.5347,49 167.8817,48.944 168.1867,48.892 C168.4937,48.831 168.7297,48.782 168.8917,48.734 L168.8917,45.394 L168.8917,40.835 C168.8917,39.395 168.4937,38.275 167.7177,37.495 L167.7177,37.495 Z" id="Fill-37" sketch:type="MSShapeGroup"></path>
            <path d="M83.9443,41.9199 L83.9443,40.8379 C83.9443,39.8699 83.6453,39.0909 83.0493,38.4959 C82.4503,37.9079 81.6743,37.6119 80.7193,37.6119 C79.7823,37.6119 79.0103,37.9079 78.4053,38.4959 C77.7983,39.0909 77.4993,39.8699 77.4993,40.8379 L77.4993,41.9199 L83.9443,41.9199 Z M85.2843,43.1249 L77.4993,43.1249 L77.4993,44.7269 C77.4993,45.7289 77.7983,46.5269 78.4053,47.1369 C79.0103,47.7449 79.7823,48.0489 80.7193,48.0489 C81.7583,48.0489 82.9233,47.8859 84.2173,47.5549 L84.4653,48.7599 C83.2743,49.1249 82.0243,49.2999 80.7193,49.2999 C79.4303,49.2999 78.3463,48.8799 77.4713,48.0239 C76.6043,47.1699 76.1763,46.0679 76.1763,44.7269 L76.1763,40.8379 C76.1763,39.5429 76.6083,38.4719 77.4873,37.6249 C78.3643,36.7819 79.4443,36.3569 80.7193,36.3569 C82.0083,36.3569 83.0853,36.7759 83.9543,37.6119 C84.8373,38.4499 85.2843,39.5249 85.2843,40.8379 L85.2843,43.1249 Z" id="Fill-38" sketch:type="MSShapeGroup"></path>
            <path d="M72.4912,47.8145 C72.1692,47.8795 71.7642,47.9335 71.3022,47.9715 C70.1782,48.0625 69.2612,48.0485 69.2612,48.0485 C68.3432,48.0485 67.5712,47.7385 66.9622,47.1145 C66.3482,46.4945 66.0402,45.6945 66.0402,44.7275 L66.0402,40.9855 C66.0402,39.9185 66.3482,39.0825 66.9702,38.4765 C67.5502,37.8995 68.3192,37.6145 69.2612,37.6145 C70.2472,37.6145 71.3212,37.9615 72.4912,38.6705 L72.4912,47.8145 Z M72.4912,31.6565 L72.4912,37.3395 C71.3782,36.6865 70.2982,36.3565 69.2612,36.3565 C67.9462,36.3565 66.8722,36.7725 66.0402,37.5865 C65.1512,38.4205 64.7102,39.5595 64.7102,40.9855 L64.7102,44.7275 C64.7102,46.0425 65.1512,47.1295 66.0402,47.9945 C66.9302,48.8725 68.0032,49.2995 69.2612,49.2995 L69.4402,49.2995 L69.4402,49.2985 C69.8702,49.2945 70.2962,49.2785 70.6842,49.2445 C71.1862,49.2035 71.6322,49.1455 72.0382,49.0805 C72.4462,49.0215 72.8022,48.9605 73.1102,48.9015 C73.4192,48.8425 73.6552,48.7955 73.8152,48.7445 L73.8152,31.6565 L72.4912,31.6565 Z" id="Fill-39" sketch:type="MSShapeGroup"></path>
        </g>
    </g>
</svg>