<?xml version="1.0" encoding="UTF-8" standalone="no"?>
<svg width="701px" height="393px" viewBox="0 0 701 393" version="1.1" xmlns="http://www.w3.org/2000/svg" xmlns:xlink="http://www.w3.org/1999/xlink" xmlns:sketch="http://www.bohemiancoding.com/sketch/ns">
    <title>Jofebar</title>
    <defs></defs>
    <g id="Page-1" stroke="none" stroke-width="1" fill="none" fill-rule="evenodd" sketch:type="MSPage">
        <g id="Group" sketch:type="MSLayerGroup" fill="#000000">
            <path d="M509.2668,109.6161 C505.6498,109.2811 502.5318,109.1041 497.6188,109.1041 C482.5738,109.1041 470.2428,111.2401 460.4548,115.0901 L445.5638,187.4101 L477.3278,187.4101 L489.2418,129.0741 C492.7598,128.2231 505.2228,130.6811 508.8878,133.0891 C507.8778,129.5631 507.3088,125.8451 507.3088,121.9881 C507.3088,117.6671 508.0108,113.5151 509.2668,109.6161" id="Fill-1" sketch:type="MSShapeGroup"></path>
            <path d="M72.4807,89.265 L39.4237,89.265 L20.2707,182.133 C18.2807,191.694 12.1867,196.683 5.3767,196.683 L0.6927,219.503 C28.2177,219.503 48.2177,207.099 54.1737,178.139 L72.4807,89.265 Z" id="Fill-3" sketch:type="MSShapeGroup"></path>
            <path d="M146.2444,139.7638 C146.2444,121.7898 134.6124,109.0968 114.6084,109.0968 C99.2884,109.0968 87.2304,115.2268 79.2834,126.0718 C73.0394,134.6328 68.7864,147.4698 68.7864,158.1708 C68.7864,176.1468 80.4174,188.8378 100.4214,188.8378 C116.3074,188.8378 127.9454,182.4218 135.7454,171.7208 C141.8424,163.3018 146.2444,150.4628 146.2444,139.7638 M115.7434,135.3448 C115.7434,141.4768 113.1914,153.0318 111.0614,158.8828 C109.0734,164.4448 106.6654,167.4358 103.3974,167.4358 C100.7034,167.4358 99.4304,165.2998 99.4304,161.1658 C99.4304,155.0258 102.1234,143.3318 104.2554,137.4848 C106.2364,132.0648 108.6494,128.9198 111.9114,128.9198 C114.6084,128.9198 115.7434,131.2088 115.7434,135.3448" id="Fill-5" sketch:type="MSShapeGroup"></path>
            <path d="M213.1948,75.4268 C210.0738,75.0028 207.0938,74.8588 204.1128,74.8588 C184.9638,74.8588 169.6408,83.5608 165.1098,105.6708 L164.1178,110.5208 L156.1698,110.5208 L151.9118,131.4878 L159.7168,131.4878 L148.2258,187.4098 L180.0038,187.4098 L191.4908,131.4878 L201.7038,131.4878 L205.9598,110.5208 L195.8898,110.5208 L197.3098,103.9578 C198.8678,96.9698 202.5578,94.9738 209.0838,95.6818 L213.1948,75.4268 Z" id="Fill-7" sketch:type="MSShapeGroup"></path>
            <path d="M276.1785,138.6282 C276.1785,120.9312 265.6855,109.0962 246.5315,109.0962 C230.5045,109.0962 218.8675,116.3712 211.3475,126.0722 C204.6825,134.7692 200.7155,146.3262 200.7155,157.3142 C200.7155,175.7122 212.4865,188.8382 234.4705,188.8382 C247.3805,188.8382 258.4485,186.2702 265.8275,182.8412 L262.9865,163.3062 C258.8775,165.1572 249.9315,167.7282 242.1305,167.7282 C236.1785,167.7282 231.0705,166.0162 230.0705,159.4512 L274.0535,153.6022 C275.4715,148.3262 276.1785,143.1892 276.1785,138.6282 M248.0925,135.6372 C248.0925,137.6272 247.8075,139.9102 247.2405,142.1892 L229.7925,144.7602 C230.0705,142.1892 230.6435,139.7712 231.4965,137.4852 C233.6255,131.6342 237.1645,127.2152 242.5615,127.2152 C246.3895,127.2152 248.0925,130.6412 248.0925,135.6372" id="Fill-9" sketch:type="MSShapeGroup"></path>
            <path d="M361.01,137.1944 C361.01,120.6524 350.937,109.3854 335.05,109.3854 C329.804,109.3854 325.545,110.2394 322.566,111.5214 L330.088,75.4264 L298.312,75.4264 L276.178,182.8414 C282.274,186.8384 294.193,188.8384 307.387,188.8384 C325.972,188.8384 339.45,183.9884 348.381,173.1464 C355.617,164.2994 361.01,148.8944 361.01,137.1944 M329.942,135.7724 C329.942,142.3354 327.11,155.0264 324.412,161.0194 C321.575,167.3034 317.886,170.0074 313.489,170.0074 C312.208,170.0074 311.217,169.8654 310.652,169.7164 L319.16,127.9274 C320.294,127.6384 321.437,127.4944 322.845,127.4944 C328.101,127.4944 329.942,130.6414 329.942,135.7724" id="Fill-11" sketch:type="MSShapeGroup"></path>
            <path d="M449.2476,115.0898 C442.1526,111.2328 430.2386,109.0968 417.7526,109.0968 C398.8916,109.0968 385.6916,114.5128 377.0446,124.6478 C369.3816,133.6318 364.9796,147.0388 364.9796,159.0278 C364.9796,178.1388 378.5946,188.8378 400.4456,188.8378 C415.9076,188.8378 426.5456,186.5578 435.3476,182.8408 L449.2476,115.0898 Z M414.9206,127.6388 L406.5496,168.7298 C405.6916,168.8638 404.8476,169.0068 403.7086,169.0068 C398.8916,169.0068 396.3326,165.7228 396.3326,158.4518 C396.3326,151.7428 398.1796,142.7658 400.8726,136.7708 C403.8506,130.2078 407.5406,127.3518 411.9366,127.3518 C413.3486,127.3518 414.3466,127.4938 414.9206,127.6388 L414.9206,127.6388 Z" id="Fill-13" sketch:type="MSShapeGroup"></path>
            <path d="M646.5225,96.0744 C646.5225,74.4504 629.0855,56.9154 607.5775,56.9154 C593.4665,56.9154 581.1055,64.4714 574.2755,75.7734 C572.2735,74.4594 570.3845,72.9704 568.6525,71.3064 C568.4915,71.1434 568.3235,70.9934 568.1565,70.8264 C567.9615,70.6334 567.7835,70.4404 567.5965,70.2484 C567.3495,69.9844 567.0965,69.7274 566.8455,69.4574 C566.6355,69.2174 566.4185,68.9854 566.2085,68.7454 C566.0385,68.5544 565.8855,68.3614 565.7225,68.1694 C565.5655,67.9864 565.4145,67.8004 565.2625,67.6154 C561.9115,63.4604 559.3895,58.6064 557.9425,53.2994 C563.2455,58.5034 570.0175,62.1914 577.5615,63.6884 C581.6935,58.3494 584.3595,51.8114 584.9855,44.4964 L579.8795,39.3584 L584.5955,34.6204 C583.4465,27.5294 580.4635,20.9104 576.1545,15.4034 L570.0115,15.4034 L570.0115,9.0664 C564.6485,4.5934 558.1725,1.5364 551.0965,0.5514 L546.1895,5.4874 L541.2515,0.5274 C534.1985,1.4224 527.7305,4.2244 522.3675,8.3954 L522.3675,15.4034 L515.3985,15.4034 C510.2985,22.0314 507.2495,30.3374 507.2495,39.3584 C507.2495,53.0824 514.2675,65.1344 524.8845,72.1314 C521.2895,78.0534 519.2195,85.0154 519.2195,92.4654 C519.2195,92.7934 519.2365,93.1144 519.2415,93.4414 C526.2355,86.6974 535.7305,82.5364 546.1895,82.5364 L546.1895,82.5504 C536.2165,89.6504 529.6995,101.3264 529.6995,114.5394 C529.6995,136.1724 547.1365,153.6984 568.6395,153.6984 C590.1495,153.6984 607.5775,136.1724 607.5775,114.5394 C607.5775,109.6564 606.6885,104.9734 605.0605,100.6624 C615.0465,107.7264 621.5825,119.3974 621.6215,132.6004 C636.1895,126.9364 646.5225,112.7184 646.5225,96.0744 L646.5225,96.0744 Z M576.8875,122.1824 L563.9075,122.1824 L563.9075,135.2354 L550.9265,135.2354 L550.9265,122.1824 L537.9405,122.1824 L537.9405,109.1274 L550.9265,109.1274 L550.9265,96.0744 L563.9075,96.0744 L563.9075,109.1274 L576.8875,109.1274 L576.8875,122.1824 Z" id="Fill-15" sketch:type="MSShapeGroup"></path>
            <path d="M559.8955,298.1224 L532.5025,298.1224 L506.6245,368.1294 L529.4545,368.1294 L534.0205,354.4294 L559.8955,354.4294 L564.4555,368.1294 L585.7705,368.1294 L559.8955,298.1224 Z M538.5875,340.7364 L546.1915,314.8634 L555.3285,340.7364 L538.5875,340.7364 Z" id="Fill-20" sketch:type="MSShapeGroup"></path>
            <path d="M594.104,279.8608 L616.934,279.8608 L616.934,325.5208 L639.76,325.5208 L639.76,298.1228 L661.072,298.1228 L661.072,368.1288 L639.76,368.1288 L639.76,340.7358 L616.934,340.7358 L616.934,368.1288 L594.104,368.1288 L594.104,279.8608 Z" id="Fill-21" sketch:type="MSShapeGroup"></path>
            <path d="M677.809,298.122 L700.639,298.122 L700.639,343.78 L677.809,343.78 L677.809,298.122 Z" id="Fill-22" sketch:type="MSShapeGroup"></path>
            <path d="M68.7781,368.8763 L96.1211,297.7573 L106.2491,297.7573 L135.3671,368.8763 L124.5871,368.8763 L116.3431,347.3233 L86.6111,347.3233 L78.8231,368.8763 L68.7781,368.8763 Z M89.2991,339.6893 L113.4521,339.6893 L106.0171,319.9763 C103.5311,313.3813 101.8541,308.4823 100.9641,305.2613 C100.0821,309.8313 98.7851,314.3413 97.0881,318.7833 L89.2991,339.6893 Z M142.8001,368.8763 L142.8001,297.7573 L152.4611,297.7573 L189.7501,353.5613 L189.7501,297.7573 L198.8371,297.7573 L198.8371,368.8763 L189.1711,368.8763 L151.7791,313.0023 L151.7791,368.8763 L142.8001,368.8763 Z" id="Fill-23" sketch:type="MSShapeGroup"></path>
            <path d="M57.4914,358.4216 C51.2394,365.0606 42.5964,368.3746 31.5824,368.3746 L9.1434,368.3746 L9.1434,392.8756 L0.6934,392.8756 L0.6934,296.6746 L33.0924,296.6746 C55.2334,296.6746 66.3094,308.8136 66.3094,333.0906 C66.3094,343.7246 63.3764,352.1806 57.4914,358.4216 M33.8364,305.4966 L9.1434,305.4966 L9.1434,359.5526 L34.0264,359.5526 C41.6604,359.5526 47.5384,357.0516 51.6674,352.0416 C55.7944,347.0356 57.8644,340.7206 57.8644,333.0906 C57.8644,314.6926 49.8564,305.4966 33.8364,305.4966" id="Fill-25" sketch:type="MSShapeGroup"></path>
            <path d="M218.6604,333.241 C218.6604,341.58 221.0194,348.094 225.7774,352.755 C230.5094,357.425 237.1154,359.764 245.5774,359.764 C254.0174,359.764 260.5894,357.425 265.3224,352.734 C270.0424,348.046 272.4124,341.546 272.4124,333.241 C272.4124,324.91 270.0424,318.394 265.2944,313.706 C260.5544,309.01 253.9524,306.676 245.4844,306.676 C237.0584,306.676 230.4764,309.01 225.7424,313.706 C221.0194,318.394 218.6604,324.91 218.6604,333.241 M208.8104,333.241 C208.8104,322.35 212.1114,313.706 218.7154,307.301 C225.3254,300.902 234.2664,297.684 245.5774,297.684 C256.8444,297.684 265.7854,300.902 272.3674,307.301 C278.9494,313.706 282.2484,322.35 282.2484,333.241 C282.2484,344.133 278.9494,352.782 272.3464,359.179 C265.7424,365.555 256.7944,368.752 245.4844,368.752 C234.2204,368.752 225.2784,365.555 218.7054,359.179 C212.1114,352.782 208.8104,344.133 208.8104,333.241" id="Fill-27" sketch:type="MSShapeGroup"></path>
            <path d="M292.8724,368.8175 L292.8724,297.6935 L324.3814,297.6935 C330.3174,297.6935 334.5574,298.1225 337.0964,298.9595 C339.6044,299.8005 341.7044,300.9385 343.4104,302.3885 C345.0864,303.8035 346.5534,305.8115 347.8214,308.3195 C349.0934,310.8555 349.7244,313.7805 349.7244,317.1005 C349.7244,328.1755 343.0594,334.6525 329.7404,336.4965 C332.5564,337.7215 335.0624,339.5205 337.2504,341.8565 C339.4264,344.1645 341.4054,346.7285 343.1824,349.4885 L355.5864,368.8175 L343.7154,368.8175 L334.3294,354.0275 C332.0174,350.3535 330.0144,347.4615 328.3614,345.2995 C326.6904,343.1505 325.0674,341.4205 323.4464,340.1825 C321.8464,338.9125 320.3784,338.0985 319.0324,337.7455 C317.6884,337.4145 315.7544,337.2365 313.2234,337.2365 L302.3184,337.2365 L302.3184,368.8175 L292.8724,368.8175 Z M302.3184,329.0735 L322.5314,329.0735 C328.8764,329.0735 333.3634,327.9525 336.0594,325.7495 C338.7174,323.5455 340.0634,320.6725 340.0634,317.1005 C340.0634,309.4115 334.9894,305.5825 324.8154,305.5825 L302.3184,305.5825 L302.3184,329.0735 Z M356.6274,368.8175 L383.9674,297.6935 L394.0934,297.6935 L423.2094,368.8175 L412.4294,368.8175 L404.1854,347.2605 L374.4564,347.2605 L366.6694,368.8175 L356.6274,368.8175 Z M377.1414,339.6275 L401.2934,339.6275 L393.8654,319.9155 C391.3784,313.3165 389.6964,308.4175 388.8104,305.2005 C387.9324,309.7655 386.6344,314.2835 384.9324,318.7185 L377.1414,339.6275 Z M430.4164,368.8175 L430.4164,297.6935 L444.6214,297.6935 L461.4074,348.1015 L464.8184,358.5735 L468.6174,347.1815 L485.6344,297.6935 L498.2694,297.6935 L498.2694,368.8175 L489.1884,368.8175 L489.1884,309.2835 L468.5374,368.8175 L460.0684,368.8175 L439.4704,308.2455 L439.4704,368.8175 L430.4164,368.8175 Z" id="Fill-29" sketch:type="MSShapeGroup"></path>
            <path d="M677.809,368.129 L700.639,368.129 L700.639,351.388 L677.809,351.388 L677.809,368.129 Z M695.315,361.286 L695.312,361.286 L690.752,361.286 L690.752,365.846 L690.748,365.846 L687.704,365.846 L687.7,365.846 L687.7,361.286 L683.137,361.286 L683.134,361.286 L683.134,358.238 L683.137,358.238 L687.7,358.238 L687.7,353.668 L687.704,353.668 L690.748,353.668 L690.752,353.668 L690.752,358.238 L695.312,358.238 L695.315,358.238 L695.315,361.286 Z" id="Fill-32" sketch:type="MSShapeGroup"></path>
        </g>
    </g>
</svg>