<?xml version="1.0" encoding="UTF-8" standalone="no"?>
<svg width="512px" height="320px" viewBox="0 0 512 320" version="1.1" xmlns="http://www.w3.org/2000/svg" xmlns:xlink="http://www.w3.org/1999/xlink" xmlns:sketch="http://www.bohemiancoding.com/sketch/ns">
    <title>Fundacao Serra Henriques</title>
    <defs></defs>
    <g id="Page-1" stroke="none" stroke-width="1" fill="none" fill-rule="evenodd" sketch:type="MSPage">
        <g id="logo-fsh" sketch:type="MSArtboardGroup" fill="#000000">
            <path d="M254.062357,1 L252.609125,2.34315789 C245.864639,8.57391813 236.549049,12.1370175 227.065779,12.1370175 C221.364639,12.1370175 215.719392,10.8311696 210.744867,8.38736842 L209.04943,7.52923977 L208.006084,9.13356725 C200.218251,21.0167836 187.847148,29.6353801 174.097338,32.7694152 L169.365019,33.8514035 L173.33346,36.6309942 C185.387833,45.044386 185.294677,57.6364912 185.220152,70.9934503 C185.201521,72.1314035 185.201521,73.2880117 185.201521,74.4259649 L185.201521,128.282865 C185.18289,136.920117 185.164259,145.090994 190.679087,153.243216 C195.336882,160.126901 202.323574,165.201053 210.334981,167.551579 C215.346768,169.025322 220.638023,169.473041 225.724335,169.902105 C235.934221,170.778889 245.585171,171.599708 252.36692,180.311579 L254.062357,182.494211 L255.739163,180.311579 C262.520913,171.599708 272.171863,170.778889 282.381749,169.902105 C287.468061,169.473041 292.759316,169.025322 297.771103,167.551579 C305.78251,165.201053 312.769202,160.126901 317.426996,153.243216 C322.941825,145.090994 322.923194,136.938772 322.904563,128.30152 L322.904563,74.4259649 C322.904563,73.2880117 322.904563,72.1314035 322.885932,70.9934503 C322.811407,57.6364912 322.718251,45.044386 334.772624,36.6309942 L338.741065,33.8514035 L334.008745,32.7694152 C320.258935,29.6353801 307.887833,21.0167836 300.1,9.13356725 L299.056654,7.52923977 L297.361217,8.38736842 C292.386692,10.8311696 286.741445,12.1370175 281.040304,12.1370175 C271.557034,12.1370175 262.241445,8.57391813 255.496958,2.34315789 L254.062357,1 L254.062357,1 Z M254.062357,3.91017544 C261.403042,10.7005848 271.203042,14.2823392 281.040304,14.2823392 C286.965019,14.2823392 292.889734,12.9764912 298.311407,10.3088304 C306.378707,22.6024561 319.196958,31.594152 333.542966,34.8587719 C319.495057,44.6712865 320.761977,59.4273684 320.761977,74.4259649 L320.761977,126.921053 C320.761977,135.800819 321.078707,144.027661 315.657034,152.030643 C311.297338,158.485263 304.646008,163.316901 297.174905,165.499532 C282.40038,169.827485 264.961597,164.958538 254.062357,179.005731 C243.144487,164.958538 225.705703,169.827485 210.931179,165.499532 C203.460076,163.316901 196.808745,158.485263 192.449049,152.030643 C187.027376,144.027661 187.344106,135.800819 187.344106,126.921053 L187.344106,74.4259649 C187.344106,59.4273684 188.611027,44.6712865 174.563118,34.8587719 C188.909125,31.594152 201.727376,22.6024561 209.794677,10.3088304 C215.21635,12.9764912 221.141065,14.2823392 227.065779,14.2823392 C236.903042,14.2823392 246.703042,10.7005848 254.062357,3.91017544 L254.062357,3.91017544 Z M311.763118,61.4646784 C311.763118,52.6035673 316.476806,44.1342105 324.059696,39.5450877 C310.961977,36.8587719 299.298859,28.5573099 292.498479,17.009883 C291.846388,15.9278947 291.548289,16.6740936 290.560837,17.1404678 C289.796958,17.5322222 288.995817,17.8680117 288.176046,18.1851462 C286.555133,18.8380702 284.859696,19.3230994 283.145627,19.6775439 C279.456654,20.4237427 275.655894,20.5170175 271.948289,19.9200585 C265.16654,18.8567251 258.831939,15.4801754 254.155513,10.4619883 C249.646768,15.2749708 243.647529,18.5769006 237.18251,19.7894737 C233.512167,20.4610526 229.730038,20.4797076 226.059696,19.8454386 C224.308365,19.5469591 222.612928,19.0992398 220.936122,18.5022807 C220.134981,18.2038012 219.315209,17.8680117 218.5327,17.5135673 C217.489354,17.028538 216.520532,15.8719298 215.84981,17.009883 C209.030798,28.538655 197.367681,36.8587719 184.269962,39.5450877 C192.411787,44.488655 196.56654,53.2191813 196.56654,62.5653216 L196.56654,78.6085965 L196.56654,125.488538 C196.56654,127.55924 196.529278,129.629942 196.56654,131.700643 C196.56654,140.39386 200.441825,148.788596 207.037262,154.422398 C210.185932,157.127368 213.893536,159.142105 217.861977,160.336023 C222.687452,161.772456 227.568821,161.343392 232.506084,161.903041 C240.536122,162.817135 249.51635,165.857895 253.913308,173.170643 C256.670722,168.58152 261.552091,165.671345 266.489354,163.936433 C273.06616,161.660526 279.587072,162.23883 286.312928,161.250117 C297.920152,159.552515 307.68289,150.840643 310.738403,139.517076 C312.023954,134.722749 311.763118,129.760526 311.763118,124.854269 L311.763118,102.804094 L311.763118,61.4646784 L311.763118,61.4646784 Z M281.412928,110.709883 C285.884411,108.900351 290.113688,106.437895 293.653612,103.15462 C295.684411,101.270468 301.758175,95.3195322 298.739924,92.0176023 C295.591255,88.7343275 290.169582,95.450117 288.679087,97.4648538 C285.679468,101.512982 283.425095,106.102105 281.412928,110.709883 L281.412928,110.709883 Z M255.813688,118.433041 C259.819392,110.989708 265.147909,104.329883 271.165779,98.4349123 C266.973764,101.643567 262.893536,105.225322 258.123954,107.594503 C256.875665,108.191462 255.478327,108.825731 254.062357,108.508596 C250.541065,107.743743 252.012928,104.161988 253.391635,102.240526 C253.63384,101.904737 257.58365,97.6140936 255.36654,97.6140936 C252.534601,97.6140936 250.410646,101.027953 248.342586,102.632281 C246.721673,103.919474 245.231179,104.926842 243.815209,106.41924 C243.237643,107.053509 242.660076,107.743743 241.952091,108.247427 C240.890114,109.012281 240.908745,107.669123 241.449049,106.997544 C240.331179,107.557193 239.194677,108.098187 238.058175,108.583216 C236.660837,109.180175 236.455894,110.728538 235.803802,112.053041 C234.723194,114.235673 233.40038,116.287719 231.853992,118.153216 C228.64943,121.99614 224.401521,125.204795 219.613308,126.771813 C215.234981,128.226901 209.552471,128.48807 205.434981,126.062924 C201.801901,123.917602 200.292776,118.824795 203.51597,115.57883 C205.136882,113.899883 207.912928,113.153684 210.036882,114.328947 C211.881369,115.354971 212.328517,117.854737 211.024335,119.515029 C209.738783,121.175322 207.298099,120.242573 205.677186,121.380526 C204.093536,122.48117 205.211407,124.290702 206.422433,125.130175 C216.520532,132.125789 224.830038,118.265146 227.829658,110.560643 C218.514068,110.336784 211.788213,101.289123 217.563878,92.875731 C218.84943,91.0288889 220.544867,89.4618713 222.370722,88.1933333 C223.320913,87.5217544 224.326996,86.9247953 225.370342,86.4211111 C225.892015,86.1599415 226.432319,85.9174269 226.972624,85.7122222 C228.109125,85.2645029 227.811027,85.0406433 228.258175,83.9959649 C229.7673,80.4328655 236.176426,77.6346199 238.225856,82.3729825 C238.896578,83.94 238.374905,83.7161404 240.051711,84.1078947 C240.796958,84.2944444 241.188213,85.3764327 240.144867,85.3764327 C239.753612,85.3764327 238.915209,85.0219883 238.598479,85.245848 C238.468061,86.3651462 237.890494,87.2605848 236.921673,87.8015789 C235.393916,88.6597076 233.214068,88.417193 231.891255,89.6484211 C229.972243,91.4019883 232.152091,93.8084795 233.71711,94.7225731 C234.872243,95.394152 235.487072,95.9538012 236.362738,94.815848 C237.163878,93.7711696 237.98365,92.7638012 238.859316,91.7937427 C240.647909,89.8349708 242.604183,87.9694737 244.802662,86.4584211 C247.578707,84.5369591 252.292395,82.3543275 255.254753,85.1525731 C256.987452,81.9252632 258.310266,78.4740936 259.465399,75.004269 C255.329278,75.9929825 252.05019,78.2688889 248.677947,80.75 C248.24943,81.0857895 247.094297,82.2610526 246.479468,82.2610526 C245.305703,82.2610526 246.796198,80.3582456 246.98251,80.1716959 C249.572243,77.5226901 253.242586,75.5825731 256.689354,74.351345 C257.509125,74.0715205 258.328897,73.8103509 259.1673,73.6051462 C260.490114,73.2507018 260.452852,71.9448538 260.9,70.6949708 C261.719772,68.4004094 262.688593,66.1431579 263.787833,63.9605263 C265.632319,60.2854971 267.905323,56.7970175 270.532319,53.6256725 C270.830418,53.2712281 275.227376,48.5142105 275.227376,50.771462 C275.227376,51.7788304 274.072243,53.3831579 273.718251,54.3345614 C273.122053,55.864269 272.637643,57.4312865 272.209125,59.0169591 C271.072624,63.2329825 270.346008,67.5609357 269.805703,71.8888889 C270.681369,71.8888889 271.538403,71.7023392 272.395437,71.5717544 C273.69962,71.3852047 273.587833,70.9188304 274.109506,69.6876023 C274.81749,67.99 275.525475,66.2737427 276.512928,64.7067251 C277.202281,63.6060819 278.879087,61.6846199 280.388213,62.7479532 C281.860076,63.8112865 281.058935,66.4976023 280.332319,67.7288304 C279.363498,69.4077778 276.512928,70.545731 276.177567,72.2060234 C275.693156,74.5938596 275.096958,76.9630409 274.33308,79.2762573 C273.69962,81.2536842 273.69962,81.1604094 271.855133,81.5521637 C270.942205,81.7573684 270.010646,81.9625731 269.079087,82.1677778 C270.141065,79.0897076 271.277567,76.0302924 272.563118,73.0454971 C271.445247,73.0454971 270.327376,73.2693567 269.228137,73.4932164 C268.874144,74.9109942 268.464259,76.3287719 267.979848,77.7092398 C267.104183,80.2463158 266.004943,82.690117 264.626236,84.9846784 C263.359316,87.0553801 261.868821,88.9954971 260.136122,90.6744444 C259.204563,91.569883 258.235741,92.3907018 257.192395,93.1182456 C255.813688,94.1069591 255.36654,95.1143275 254.379087,96.4947953 C256.78251,95.8418713 259.893916,96.8305848 259.893916,99.7594152 C259.893916,102.240526 258.291635,104.591053 257.006084,106.605789 C264.439924,104.031404 269.190875,96.5507602 276.270722,93.3794152 C278.152471,92.5399415 275.581369,95.7485965 275.488213,95.8978363 C274.090875,97.6327485 272.861217,99.4982456 271.761977,101.438363 C269.209506,105.952865 267.365019,110.840468 265.930418,115.821345 C267.160076,115.485556 268.389734,115.131111 269.619392,114.758012 C270.774525,114.422222 271.184411,114.459532 271.855133,113.414854 C272.395437,112.57538 272.935741,111.754561 273.476046,110.933743 C275.506844,107.930292 277.64943,105.020117 279.996958,102.259181 C283.890875,97.6700585 288.772243,92.2974269 294.678327,90.4132749 C300.249049,88.6223977 304.441065,93.2115205 301.385551,98.4349123 C298.19962,103.826199 291.809125,107.463918 286.35019,110.075614 C284.971483,110.747193 283.574144,111.362807 282.158175,111.922456 C281.003042,112.407485 280.5,112.38883 279.903802,113.545439 C279.438023,114.422222 278.990875,115.317661 278.543726,116.213099 C276.904183,119.552339 275.413688,122.947544 274.128137,126.436023 C273.345627,128.506725 272.153232,130.987836 272.153232,133.263743 C272.153232,135.894094 275.320532,133.562222 276.196198,132.890643 C280.481369,129.700643 284.13308,125.55924 288.045627,121.92152 C289.647909,120.466433 294.082129,115.093801 296.746388,116.045205 C293.001521,117.929357 289.834221,121.734971 286.946388,124.645146 C284.077186,127.555322 281.28251,130.577427 278.096578,133.151813 C274.761597,135.856784 270.718631,138.039415 267.979848,133.170468 C264.887072,127.685906 268.147529,120.914152 270.420532,115.746725 C269.526236,116.045205 268.631939,116.306374 267.719011,116.548889 C265.874525,117.052573 265.48327,117.015263 264.738023,118.84345 C263.787833,121.193977 262.6327,123.469883 261.235361,125.577895 C258.440684,129.775263 254.602662,133.338363 249.926236,135.315789 C245.324335,137.274561 239.474144,137.852865 234.723194,136.061988 C230.344867,134.420351 227.345247,129.644678 229.953612,125.14883 C231.909886,121.790936 238.784791,120.317193 239.492776,125.44731 C239.846768,127.909766 237.946388,129.159649 235.76654,129.644678 C233.86616,129.980468 230.810646,131.304971 233.046388,133.580877 C236.735361,137.330526 243.554373,135.894094 247.094297,132.778713 C250.746008,129.551404 252.925856,124.607836 254.751711,120.205263 C252.609125,120.876842 250.652852,121.902865 248.696578,122.966199 C248.435741,123.115439 245.622433,124.869006 245.622433,123.693743 C245.622433,121.305906 254.155513,119.011345 255.813688,118.433041 L255.813688,118.433041 Z M246.181369,102.053977 C248.212167,100.281754 250.038023,98.2856725 251.621673,96.084386 C248.342586,97.315614 244.821293,97.8379532 241.318631,97.8379532 C240.498859,98.2483626 240.163498,99.9459649 239.809506,100.953333 C239.08289,103.024035 238.430798,105.113392 237.834601,107.221404 C240.852852,105.934211 243.684791,104.199298 246.181369,102.053977 L246.181369,102.053977 Z M246.721673,73.1947368 C238.971103,73.1947368 237.98365,64.3336257 240.312548,58.6625146 C243.144487,51.7601754 249.311407,46.1823392 255.869582,42.8804094 C262.856274,39.3359649 270.029278,39.3546199 277.425856,41.4253216 C280.071483,42.1528655 282.735741,43.1415789 285.474525,43.4960234 C286.81597,43.6639181 288.176046,43.2908187 289.331179,42.6005848 C290.039163,42.1901754 291.678707,40.9216374 291.287452,42.7311696 C290.709886,45.3242105 287.244487,47.7493567 284.934221,48.6074854 C282.381749,49.5588889 280.034221,48.9246199 277.574905,48.0478363 C271.33346,45.8465497 264.812548,41.7611111 257.937643,43.6639181 C251.304943,45.4921053 245.044867,51.7601754 241.989354,57.785731 C240.536122,60.6959064 239.660456,64.2216959 240.66654,67.4116959 C241.579468,70.3218713 244.280989,71.6090643 247.094297,70.4897661 C251.584411,68.7175439 254.73308,63.1770175 256.167681,58.8304094 C256.968821,56.4239181 257.341445,53.8681871 257.341445,51.3311111 C257.341445,50.5476023 256.838403,49.0178947 257.360076,48.3276608 C257.993536,47.4695322 258.701521,49.2044444 258.831939,49.5588889 C262.073764,58.2334503 257.714068,73.1947368 246.721673,73.1947368 L246.721673,73.1947368 Z M276.829658,69.6129825 C277.928897,68.9040936 278.972243,67.971345 279.587072,66.7774269 C279.885171,66.2550877 280.444106,64.0538012 279.139924,64.0538012 C277.295437,64.0538012 276.960076,68.4190643 276.829658,69.6129825 L276.829658,69.6129825 Z M234.834981,96.9238596 C230.792015,95.5993567 227.773764,92.4839766 227.587452,88.1187135 C222.203042,91.2900585 215.514449,99.9273099 220.395817,106.23269 C221.681369,107.892982 227.568821,111.325497 228.705323,108.527251 C230.344867,104.460468 232.357034,100.524269 234.834981,96.9238596 L234.834981,96.9238596 Z M241.728517,96.065731 C244.523194,95.7485965 247.15019,94.6106433 249.330038,92.8384211 C250.671483,91.7564327 255.776426,87.0367251 253.671103,85.5629825 C251.584411,84.0892398 248.603422,85.9920468 247.112928,87.4471345 C244.709506,89.8349708 243.069962,93.0063158 241.728517,96.065731 L241.728517,96.065731 Z M110.287125,238.6138 L110.287125,226.469414 C110.287125,223.969648 110.659748,221.040818 110.063551,218.615672 C109.541878,216.451695 107.585604,217.477718 106.206897,216.73152 C105.480281,216.302455 107.082562,216.134561 107.268874,216.134561 C107.84644,216.134561 108.405376,216.134561 108.982942,216.171871 C114.404615,216.43304 119.882182,216.32111 125.303855,216.171871 C125.900053,216.153216 126.291307,216.022631 126.81298,215.798771 C127.576859,215.295087 127.092448,217.291169 127.055186,217.477718 C126.719824,218.839531 127.260129,220.835613 126.533513,222.029531 C126.01184,222.77573 125.713741,220.238654 125.620585,220.052104 C125.285224,219.343216 124.800813,218.895496 124.055566,218.578362 C122.993589,218.111987 121.7453,218.205262 120.608798,218.167952 C119.733132,218.149297 114.348722,217.403099 114.348722,218.652982 L114.348722,225.238186 L114.348722,231.842046 C114.348722,232.924034 119.528189,232.30842 120.441117,232.289765 C121.782562,232.27111 123.720205,232.662865 124.893969,231.804736 C124.968494,231.748771 125.732372,230.610818 125.993208,231.021227 C126.291307,231.767426 125.769634,233.278479 125.657847,234.024678 C125.471535,235.050701 125.452904,236.207309 125.452904,237.270642 C125.415642,237.494502 125.471535,237.681052 125.397011,237.942221 C125.303855,238.501871 124.782182,238.054151 124.782182,237.737017 C124.782182,235.442455 123.384843,234.304502 121.149102,234.211227 C119.528189,234.155262 117.944539,234.117952 116.323627,234.117952 C115.447961,234.117952 114.348722,233.782163 114.348722,234.901461 C114.348722,238.445906 114.311459,241.99035 114.385984,245.553449 C114.404615,247.157777 114.330091,249.041929 114.889026,250.571637 C115.168494,251.317835 115.671535,251.70959 116.472676,251.82152 C116.901193,251.933449 118.727049,251.765555 118.969254,252.101344 C119.490927,252.791578 115.988265,252.623683 115.783323,252.623683 C114.218304,252.567718 112.634653,252.455789 111.069634,252.549064 C109.839977,252.623683 108.461269,252.772923 107.250243,252.623683 C106.355946,252.511754 107.101193,252.045379 107.548342,251.989414 C108.368113,251.877485 109.299672,251.85883 109.653665,250.944736 C110.957847,247.251052 110.287125,242.475379 110.287125,238.6138 L110.287125,238.6138 Z M136.091307,237.158713 L136.091307,224.398713 C136.091307,222.048186 136.892448,217.552338 133.911459,216.955379 C133.352524,216.750175 132.532752,217.029999 132.011079,216.73152 C131.247201,216.339765 132.868113,216.134561 133.054425,216.134561 C134.228189,216.134561 135.420585,216.134561 136.594349,216.20918 C138.066212,216.2838 139.500813,216.20918 140.954045,216.171871 C141.736554,216.171871 142.817163,215.929356 143.56241,216.20918 C144.605756,216.600935 142.500433,216.899414 142.519064,216.899414 C139.538075,217.384444 140.283323,221.805672 140.283323,224.118888 C140.283323,228.372221 140.264691,232.625555 140.283323,236.878888 C140.283323,241.337426 140.804996,246.131754 144.344919,249.284444 C148.071155,252.586373 154.387125,252.175964 157.982942,248.892689 C162.808418,244.471461 161.57876,236.002104 161.57876,230.013859 L161.57876,223.0369 C161.57876,221.731052 161.597391,220.406549 161.448342,219.119356 C161.317923,218.149297 160.926669,217.421754 159.957847,217.104619 C159.249862,216.862104 158.113361,217.104619 157.498532,216.73152 C156.753285,216.32111 158.411459,216.134561 158.57914,216.134561 C159.193969,216.134561 159.790167,216.134561 160.404996,216.153216 C162.081802,216.227835 163.702714,216.24649 165.37952,216.171871 C165.8453,216.153216 166.32971,216.134561 166.814121,216.134561 C166.944539,216.134561 168.770395,216.339765 167.969254,216.73152 C167.596631,216.974034 166.944539,216.843449 166.516022,216.955379 C165.360889,217.179239 164.932372,218.037368 164.783323,219.119356 C163.609558,227.364853 165.863931,235.852865 163.609558,244.005087 C161.522866,251.59766 153.511459,254.433216 146.319824,252.940818 C138.569254,251.317835 136.072676,244.322221 136.091307,237.158713 L136.091307,237.158713 Z M179.651003,222.906315 C179.76279,227.140993 179.874577,231.357017 179.986364,235.591695 C180.116783,240.050233 179.781421,244.844561 180.5453,249.247134 C180.86203,251.168596 181.924007,251.89614 183.805756,251.989414 C184.234273,252.008069 185.706136,252.493099 184.476478,252.623683 C183.228189,252.754268 181.924007,252.586373 180.657087,252.586373 C178.905756,252.493099 177.173056,252.586373 175.403094,252.623683 C174.900053,252.642338 174.266592,252.716958 173.782182,252.567718 C173.316402,252.399824 173.651764,252.008069 173.949862,252.008069 C174.676478,252.008069 175.608037,251.970759 176.260129,251.579005 C178.030091,250.552982 177.377999,246.486198 177.377999,244.695321 C177.377999,242.624619 177.377999,240.553917 177.396631,238.501871 C177.396631,233.856783 177.396631,229.211695 177.415262,224.585262 C177.415262,221.936257 176.91222,218.597017 177.54568,215.966666 C177.825148,214.660818 179.352904,216.675555 179.706897,217.085964 C180.340357,217.794853 180.992448,218.485087 181.644539,219.193976 C184.457847,222.253391 187.308418,225.294151 190.140357,228.353566 C195.655186,234.267192 201.020965,240.348713 206.591688,246.206373 C206.405376,237.792982 206.405376,229.360935 206.051383,220.966198 C205.958227,219.231286 205.771916,216.955379 203.498912,216.955379 C203.126288,216.880759 201.430851,217.011344 201.430851,216.47035 C201.430851,215.966666 202.548722,216.134561 202.884083,216.134561 C204.89625,216.134561 206.908418,216.339765 208.920585,216.171871 C209.963931,216.171871 211.100433,216.003976 212.143779,216.171871 C212.814501,216.302455 212.106516,216.80614 211.864311,216.80614 C211.324007,216.80614 210.74644,216.899414 210.26203,217.085964 C208.380281,217.776198 208.920585,220.891578 208.920585,222.607835 C208.901954,224.827777 208.901954,227.047718 208.883323,229.26766 C208.864691,234.006023 208.84606,238.744385 208.84606,243.501403 C208.827429,246.318303 209.237315,249.694853 208.715642,252.474444 C208.454805,253.836257 206.535794,251.59766 206.125908,251.187251 C205.231611,250.310467 204.355946,249.433683 203.498912,248.538245 C200.480661,245.497485 197.536935,242.400759 194.574577,239.304034 C191.835794,236.449824 189.171535,233.502338 186.488646,230.554853 C184.234273,228.073742 181.607277,225.611286 179.651003,222.906315 L179.651003,222.906315 Z M224.701193,238.6138 L224.701193,226.469414 C224.701193,223.950993 225.055186,221.040818 224.477619,218.615672 C223.955946,216.451695 221.981041,217.477718 220.620965,216.73152 C219.875718,216.302455 221.496631,216.134561 221.682942,216.134561 C222.260509,216.134561 222.819444,216.134561 223.397011,216.171871 C231.482942,216.563625 240.276859,214.791403 247.87838,218.279882 C257.976478,222.92497 259.653285,236.058069 254.175718,244.844561 C248.530471,253.873566 237.836174,253.407192 228.501954,252.623683 C226.974197,252.511754 225.502334,252.549064 223.974577,252.586373 C223.192068,252.586373 222.167353,252.828888 221.422106,252.567718 C220.490547,252.175964 222.968494,251.85883 223.06165,251.82152 C224.887505,251.44842 224.626669,247.568186 224.663931,246.169064 C224.719824,243.650642 224.701193,241.132221 224.701193,238.6138 L224.701193,238.6138 Z M228.76279,229.34228 L228.76279,235.330526 C228.76279,239.714444 228.427429,244.303566 229.098151,248.650175 C229.601193,252.325204 237.892068,251.63497 240.239596,251.29918 C245.381802,250.534327 250.09549,247.493566 251.790927,242.438069 C254.84644,233.446373 251.418304,221.637777 241.413361,218.858186 C238.786364,218.130642 235.973056,217.832163 233.252904,217.794853 C232.07914,217.757543 230.81222,217.757543 229.675718,218.018713 C228.725528,218.242572 228.800053,219.026081 228.781421,219.80959 C228.725528,222.272046 228.76279,224.715847 228.76279,227.178303 L228.76279,229.34228 L228.76279,229.34228 Z M264.299629,247.615481 C267.485561,238.884955 270.671492,230.173084 273.857424,221.461212 C274.323203,220.192674 274.770352,218.924136 275.236131,217.674253 C275.38518,217.263844 275.757804,215.622207 276.428526,215.734136 C277.061987,215.734136 277.881758,218.737587 278.105333,219.315891 C280.024344,224.296768 281.943355,229.277645 283.843736,234.277177 C285.669591,239.108815 287.271872,244.276242 289.638032,248.865365 C290.513698,250.544312 291.855142,252.074019 293.848679,252.260569 C294.333089,252.297879 296.08442,252.745598 294.612557,252.913493 C294.016359,252.988113 293.382899,252.932148 292.786701,252.932148 C290.960846,252.932148 289.116359,252.913493 287.290504,252.838873 C286.861987,252.820218 284.38404,252.559049 285.557804,252.204604 C285.595066,251.980745 285.930428,251.70092 285.930428,251.290511 C285.930428,251.085306 285.837272,250.880101 285.762747,250.693552 C285.408755,249.760803 285.073393,248.828055 284.719401,247.895306 C283.731949,245.302265 282.763127,242.709224 281.794306,240.116183 C281.645257,239.705774 281.477576,238.71706 280.918641,238.71706 C280.341074,238.474546 279.148679,238.71706 278.552481,238.71706 L270.801911,238.71706 C269.516359,238.71706 268.864268,242.653259 268.547538,243.567353 C267.876815,245.50747 265.939173,249.257119 266.535371,251.290511 C266.758945,252.074019 267.653241,252.148639 268.305333,252.297879 C268.566169,252.372499 269.274154,252.055365 269.274154,252.596359 C269.274154,253.118698 268.137652,252.932148 267.820922,252.913493 C265.939173,252.782908 264.057424,252.838873 262.157044,252.894838 C261.281378,252.913493 260.387082,252.932148 259.511416,252.932148 C258.486701,252.932148 258.207234,252.540394 259.231949,252.297879 C262.10115,252.297879 263.535751,250.133903 264.299629,247.615481 L264.299629,247.615481 Z M271.062747,236.926183 L277.453241,236.926183 L280.210656,236.926183 C280.769591,236.926183 280.266549,236.030745 280.154762,235.732265 C279.297728,233.269809 278.440694,230.807353 277.58366,228.344897 C277.415979,227.878522 276.204952,223.046885 275.53423,223.046885 C274.75172,223.046885 273.130808,229.781329 272.925865,230.434253 C272.758184,230.975248 270.801911,236.926183 271.062747,236.926183 L271.062747,236.926183 Z M313.746777,252.782908 L315.68442,252.782908 C314.622443,253.323903 312.759325,255.096125 312.069971,256.066183 C313.616359,256.234078 315.740314,256.644487 316.578717,258.174195 C317.659325,260.170277 316.00115,262.017119 314.398869,263.005832 C313.31826,263.696066 310.504952,264.908639 309.256663,264.23706 C308.399629,263.807996 309.83423,263.453552 310.039173,263.416242 C310.933469,263.416242 311.958184,262.912557 312.647538,262.390218 C313.95172,261.364195 313.877196,259.368113 312.722063,258.23016 C312.237652,257.763786 309.070352,256.775072 309.554762,256.252733 C310.691264,254.92823 312.405333,253.883552 313.746777,252.782908 L313.746777,252.782908 Z M318.385941,253.603727 C313.243736,253.603727 308.045637,252.670979 303.816359,249.555598 C299.56845,246.402908 297.202291,241.664546 296.71788,236.441154 C295.76769,225.845131 302.8848,216.9094 313.485941,215.883376 C318.702671,215.398347 323.528146,216.592265 328.670352,217.058639 C329.881378,217.189224 329.042975,220.826943 329.005713,221.741037 C328.949819,223.06554 329.061606,224.427353 328.875295,225.733201 C328.688983,226.945774 328.092785,225.733201 328.092785,225.136242 C328.092785,224.352733 327.962367,223.587879 327.720161,222.84168 C326.825865,220.323259 324.608755,219.166651 322.205333,218.401797 C317.603431,216.94671 311.846397,217.170569 307.561226,219.465131 C301.599249,222.655131 300.201911,230.508873 301.189363,236.665014 C302.214078,243.100979 307.039553,249.033259 313.392785,250.786827 C316.541454,251.66361 320.044116,251.66361 323.230047,250.973376 C324.925485,250.600277 326.527766,249.667528 327.422063,248.137821 C327.738793,247.615481 328.502671,244.220277 329.061606,244.220277 C329.825485,244.220277 328.577196,250.842791 328.204572,251.6263 C327.682899,252.876183 325.409895,253.025423 324.310656,253.193318 C322.354382,253.510452 320.379477,253.603727 318.385941,253.603727 L318.385941,253.603727 Z M336.979857,247.615481 C340.165789,238.884955 343.35172,230.173084 346.537652,221.461212 C347.003431,220.192674 347.45058,218.924136 347.916359,217.674253 C348.065409,217.263844 348.456663,215.603552 349.108755,215.734136 C349.760846,215.734136 350.561987,218.737587 350.785561,219.315891 C352.704572,224.296768 354.623584,229.2963 356.523964,234.277177 C358.349819,239.108815 359.952101,244.276242 362.336891,248.865365 C363.193926,250.544312 364.535371,252.074019 366.547538,252.260569 C367.013317,252.297879 368.764648,252.745598 367.292785,252.913493 C366.696587,252.988113 366.081758,252.932148 365.46693,252.932148 C363.641074,252.932148 361.815218,252.913493 359.970732,252.838873 C359.560846,252.820218 357.064268,252.577704 358.238032,252.204604 C358.275295,251.980745 358.610656,251.70092 358.610656,251.290511 C358.610656,251.085306 358.5175,250.898756 358.442975,250.693552 C358.088983,249.760803 357.753622,248.828055 357.399629,247.895306 C356.412177,245.302265 355.443355,242.709224 354.455903,240.116183 C354.325485,239.724429 354.157804,238.71706 353.598869,238.71706 C353.039933,238.474546 351.828907,238.71706 351.232709,238.71706 L343.482139,238.71706 C342.196587,238.71706 341.544496,242.634604 341.227766,243.567353 C340.557044,245.50747 338.638032,249.257119 339.215599,251.290511 C339.439173,252.074019 340.333469,252.148639 341.004192,252.297879 C341.227766,252.372499 341.954382,252.074019 341.954382,252.596359 C341.954382,253.118698 340.81788,252.932148 340.50115,252.913493 C338.619401,252.782908 336.737652,252.838873 334.837272,252.894838 C333.961606,252.913493 333.085941,252.932148 332.191644,252.932148 C331.185561,252.932148 330.887462,252.540394 331.912177,252.297879 C334.762747,252.297879 336.23461,250.152557 336.979857,247.615481 L336.979857,247.615481 Z M343.742975,236.926183 L350.133469,236.926183 L352.890884,236.926183 C353.449819,236.926183 352.946777,236.030745 352.853622,235.732265 C351.996587,233.269809 351.120922,230.807353 350.263888,228.344897 C350.096207,227.878522 348.88518,223.046885 348.214458,223.046885 C347.45058,223.046885 345.829667,229.781329 345.606093,230.434253 C345.438412,230.975248 343.50077,236.926183 343.742975,236.926183 L343.742975,236.926183 Z M352.723203,212.656066 C349.518641,212.861271 346.463127,208.496008 343.407614,211.256943 C343.239933,211.406183 342.159325,212.954546 341.786701,212.413552 C341.563127,212.115072 341.898488,211.723318 342.066169,211.499458 C343.016359,209.988405 344.76769,207.768464 346.779857,208.104253 C349.686321,208.589283 353.393926,212.338932 356.002291,208.962382 C356.46807,208.178873 357.269211,208.551973 356.728907,209.335481 C356.263127,210.604019 354.176435,212.656066 352.723203,212.656066 L352.723203,212.656066 Z M369.286321,234.594312 C369.286321,229.40823 371.652481,224.501973 375.229667,220.808288 C378.583279,217.338464 382.905713,215.864721 387.675295,215.752791 C397.363507,215.528932 406.176055,221.367938 407.182139,231.460277 C408.15096,240.955657 402.803812,250.768172 393.115599,253.044078 C388.681378,254.088756 383.483279,253.864897 379.309895,251.92478 C375.136511,249.984663 372.080998,245.843259 370.497348,241.589926 C369.658945,239.369984 369.286321,236.982148 369.286321,234.594312 L369.286321,234.594312 Z M373.888222,233.251154 C373.888222,241.515306 378.154762,250.395072 387.13499,251.66361 C391.71826,252.316534 396.077956,250.749517 399.077576,247.205072 C401.946777,243.809867 402.673393,239.593844 402.673393,235.228581 C402.673393,226.759224 398.03423,217.786183 388.55096,217.394429 C384.303051,217.226534 380.073774,218.793552 377.279097,222.076827 C374.652101,225.136242 373.869591,229.48285 373.888222,233.251154 L373.888222,233.251154 Z M18.3867014,312.46016 C17.0452565,312.46016 15.7038116,312.329575 14.3996291,312.031096 C13.6171196,311.863201 12.4619866,311.098347 11.7167394,311.098347 C10.4498193,310.296183 11.2136976,306.210745 11.3813782,304.886242 C11.4000094,304.811622 11.6981082,302.74092 12.1079942,303.580394 C12.4247242,304.363903 12.1825189,305.464546 12.4247242,306.304019 C13.0395531,308.598581 14.8840398,309.867119 17.1011501,310.426768 C21.5167394,311.546066 26.2490588,309.23285 26.3608459,304.289283 C26.3608459,299.8494 22.8022907,297.275014 19.7095151,294.663318 C16.5422147,291.977002 12.9836596,289.122791 12.4247242,284.701563 C11.8098953,279.981856 14.6604656,275.933727 19.2996291,274.907704 C21.7030512,274.385365 24.4604656,274.441329 26.8266253,275.075598 C27.7395531,275.262148 29.0437356,274.945014 28.9878421,276.101622 C28.876055,277.25823 28.8387926,278.433493 28.8201615,279.608756 C28.8201615,279.720686 28.671112,282.630862 28.2053326,281.735423 C27.8513402,280.784019 27.9072337,279.776651 27.4600854,278.843903 C26.5657888,276.941096 23.9201615,276.362791 22.0570436,276.306827 C17.3619866,276.120277 13.5984885,280.44823 16.3186405,284.981388 C18.2935455,288.227353 21.9452565,290.20478 24.702671,292.704546 C28.1680702,295.857236 30.4597052,299.62554 29.5654086,304.457177 C28.5965873,309.867119 23.454382,312.46016 18.3867014,312.46016 L18.3867014,312.46016 Z M43.2149956,296.539344 L43.2149956,284.394958 C43.2149956,281.876537 43.568988,278.966361 42.9727903,276.52256 C42.730585,275.515192 42.0226002,275.067472 41.0351477,274.880923 C40.4948435,274.694373 39.600547,274.955543 39.1347675,274.657063 C38.4081515,274.227999 40.0104329,274.041449 40.1781135,274.041449 C40.75568,274.041449 41.3332466,274.060104 41.9108131,274.097414 C44.1838169,274.227999 46.4754519,274.190689 48.7670869,274.190689 L53.1826762,274.190689 C55.0085317,274.172034 56.8902808,273.817589 58.6788739,273.817589 C58.6788739,273.537765 59.2564405,273.66835 59.2564405,274.097414 C59.2564405,274.936888 58.9024481,275.795016 58.8465546,276.63449 C58.790661,277.511274 58.7720298,278.425367 58.6602428,279.302151 C58.6043492,279.917765 57.8963644,280.552034 57.8963644,279.470046 C57.8963644,274.862268 51.4313454,275.944256 48.3199386,275.944256 C47.3511173,275.944256 47.2765926,276.168116 47.2765926,277.026244 L47.2765926,280.552034 L47.2765926,288.741566 C47.2765926,289.13332 47.108912,290.252619 47.6678473,290.252619 L51.0214595,290.252619 C52.7541591,290.252619 54.5241211,290.308584 56.2568207,290.010104 C56.6853378,289.935484 58.2876192,288.797531 58.3994063,288.928116 C58.790661,289.301215 58.1572009,291.483847 58.0826762,291.950221 C57.8777333,292.901624 57.8963644,294.058233 57.8963644,295.046946 C57.8404709,295.308116 57.952258,295.420046 57.8218397,295.755835 C57.6541591,296.259519 57.2070108,295.793145 57.2070108,295.51332 C57.2070108,293.405309 56.2940831,292.379285 54.1701287,292.192736 C52.008912,292.024841 49.7918017,291.987531 47.6119538,291.987531 C46.9412314,291.987531 47.2765926,294.897706 47.2765926,295.345426 L47.2765926,300.606127 C47.2765926,302.583554 46.587239,306.799578 48.3572009,308.086771 C49.7918017,309.131449 52.2883797,308.851624 53.9651857,308.814315 C57.0393302,308.814315 59.1446534,308.030806 59.6849576,304.803496 C59.8899006,303.964022 60.2252618,303.964022 60.4115736,304.803496 C60.4115736,305.978759 60.0203188,307.116712 60.0203188,308.291975 C59.7035888,309.467239 59.7967447,310.549227 58.3435127,310.661157 C56.7226002,310.791741 55.0830565,310.698467 53.4621439,310.679812 C52.5119538,310.661157 39.7495964,310.586537 39.7495964,310.213437 C39.7495964,309.803028 41.6499766,309.784373 42.003969,309.579168 C43.0659462,308.944899 43.0286838,306.836888 43.0845774,305.754899 C43.2895203,302.695484 43.2149956,299.598759 43.2149956,296.539344 L43.2149956,296.539344 Z M72.6708892,296.539344 L72.6708892,284.394958 C72.6708892,281.876537 73.0248816,278.966361 72.447315,276.52256 C71.9070108,274.321274 69.9134747,275.477882 68.590661,274.657063 C67.864045,274.246654 69.4663264,274.041449 69.634007,274.041449 C70.2115736,274.041449 70.7891401,274.060104 71.3667066,274.097414 C78.2043492,274.489168 90.0351477,271.746888 92.3454139,280.794548 C92.9602428,283.23835 92.3267827,285.924665 91.3020679,288.163262 C90.8176572,289.17063 90.2028283,290.122034 89.5134747,290.980163 C89.1035888,291.483847 88.6750717,291.968876 88.2465546,292.43525 C87.5572009,293.162794 86.4393302,293.573203 87.147315,294.468642 C90.4077713,298.610046 93.500547,303.087239 97.264045,306.799578 C98.7731705,308.291975 100.543133,309.448584 102.667087,309.784373 C102.909292,309.821683 104.977353,309.765718 104.977353,310.213437 C104.977353,310.735777 103.524121,310.567882 103.151498,310.567882 C100.021459,310.567882 96.5933226,310.959636 94.02222,308.851624 C90.5754519,306.053379 87.9670869,301.725426 85.4146154,298.125016 C84.8184177,297.285543 83.9054899,295.158876 82.6944633,295.140221 C81.3902808,295.102911 80.0674671,295.065601 78.7632846,295.028291 C78.1857181,295.028291 76.5275431,294.636537 76.5275431,295.531975 C76.5275431,297.770572 76.5461743,300.009168 76.5648055,302.247765 C76.5648055,304.225192 76.3784937,306.594373 77.0678473,308.478525 C77.4032085,309.411274 78.1484557,309.709753 79.0800146,309.803028 C79.2849576,309.821683 81.9864785,310.138817 81.0362884,310.493262 C79.7879994,310.959636 77.868988,310.511917 76.5834367,310.511917 C74.9997865,310.437297 73.4533987,310.474607 71.8511173,310.511917 C71.3294443,310.567882 70.5096724,310.679812 69.9693682,310.567882 C69.1309652,310.567882 68.9819158,309.970923 69.9134747,309.914958 C70.7332466,309.784373 71.6834367,309.803028 72.0187979,308.870279 C72.447315,307.713671 72.5218397,306.463788 72.5777333,305.23256 C72.7267827,302.34104 72.6708892,299.430864 72.6708892,296.539344 L72.6708892,296.539344 Z M76.5275431,276.429285 L76.5275431,285.066537 L76.5275431,290.532443 C76.5275431,292.062151 76.303969,292.88297 78.1298245,293.256069 C80.2351477,293.685133 83.0670869,294.039578 85.0792542,293.013554 C87.9857181,291.539812 88.600547,287.528993 88.5073911,284.637472 C88.395604,281.634022 87.3708892,278.518642 84.743893,276.82104 C83.5887599,276.074841 76.5834367,274.433203 76.5275431,276.429285 L76.5275431,276.429285 Z M109.094844,296.539344 L109.094844,284.394958 C109.094844,281.876537 109.430205,278.985016 108.852638,276.52256 C108.610433,275.515192 107.902448,275.067472 106.914996,274.880923 C106.393323,274.713028 105.461764,274.955543 105.014615,274.657063 C104.269368,274.246654 105.890281,274.041449 106.057961,274.041449 C106.635528,274.041449 107.213094,274.060104 107.77203,274.097414 C114.628304,274.489168 126.440471,271.765543 128.750737,280.794548 C129.384197,283.257005 128.750737,285.924665 127.707391,288.163262 C127.241612,289.17063 126.608152,290.122034 125.918798,290.980163 C125.527543,291.483847 125.099026,291.968876 124.651878,292.43525 C123.981155,293.162794 122.863285,293.573203 123.571269,294.468642 C126.813094,298.610046 129.924501,303.087239 133.669368,306.799578 C135.178494,308.291975 136.948456,309.448584 139.07241,309.784373 C139.333247,309.821683 141.401307,309.765718 141.401307,310.213437 C141.401307,310.735777 139.929444,310.567882 139.556821,310.567882 C136.426783,310.567882 133.017277,310.959636 130.427543,308.851624 C126.999406,306.053379 124.391041,301.725426 121.819939,298.125016 C121.242372,297.285543 120.329444,295.158876 119.118418,295.140221 C117.795604,295.102911 116.491421,295.065601 115.168608,295.028291 C114.591041,295.028291 112.951498,294.636537 112.951498,295.531975 C112.951498,297.770572 112.951498,300.009168 112.970129,302.247765 C112.98876,304.206537 112.802448,306.594373 113.491802,308.478525 C113.827163,309.411274 114.553779,309.709753 115.485338,309.803028 C115.708912,309.821683 118.410433,310.120163 117.441612,310.493262 C116.211954,310.959636 114.274311,310.511917 112.98876,310.511917 C111.40511,310.437297 109.858722,310.474607 108.25644,310.511917 C107.753399,310.567882 106.914996,310.679812 106.374691,310.567882 C105.536288,310.567882 105.40587,309.970923 106.337429,309.914958 C107.157201,309.784373 108.08876,309.803028 108.442752,308.870279 C108.852638,307.713671 108.927163,306.463788 109.001688,305.23256 C109.150737,302.34104 109.094844,299.430864 109.094844,296.539344 L109.094844,296.539344 Z M112.951498,276.429285 L112.951498,285.066537 L112.951498,290.532443 C112.951498,292.062151 112.709292,292.88297 114.535148,293.256069 C116.62184,293.685133 119.491041,294.039578 121.503209,293.013554 C124.391041,291.521157 125.024501,287.547648 124.912714,284.637472 C124.800927,281.634022 123.776212,278.518642 121.149216,276.82104 C120.012714,276.093496 112.98876,274.433203 112.951498,276.429285 L112.951498,276.429285 Z M141.736669,305.23256 C144.9226,296.520689 148.108532,287.808817 151.294463,279.078291 C151.741612,277.828408 152.207391,276.55987 152.673171,275.291332 C152.82222,274.899578 153.194844,273.239285 153.865566,273.36987 C154.499026,273.36987 155.318798,276.354665 155.542372,276.93297 C157.442752,281.932502 159.361764,286.913379 161.262144,291.912911 C163.106631,296.744548 164.708912,301.89332 167.075072,306.501098 C167.932106,308.180046 169.292182,309.691098 171.285718,309.877648 C171.63971,309.914958 172.198646,309.840338 172.515376,309.970923 C173.037049,310.176127 172.180015,310.530572 172.049596,310.549227 C171.453399,310.605192 170.819939,310.567882 170.223741,310.567882 C168.397885,310.567882 166.553399,310.530572 164.727543,310.455952 C164.317657,310.455952 161.83971,310.213437 162.976212,309.840338 C163.013475,309.616478 163.367467,309.317999 163.367467,308.926244 C163.367467,308.702385 163.274311,308.515835 163.199786,308.329285 C162.845794,307.396537 162.491802,306.463788 162.15644,305.53104 C161.168988,302.937999 160.200167,300.344958 159.212714,297.733262 C159.082296,297.341508 158.914615,296.334139 158.35568,296.334139 C157.778113,296.091624 156.585718,296.334139 155.98952,296.334139 L148.23895,296.334139 C146.97203,296.334139 146.282676,300.288993 145.984577,301.184432 C145.313855,303.124548 143.376212,306.892853 143.953779,308.907589 C144.195984,309.709753 145.090281,309.765718 145.742372,309.933613 C145.984577,309.989578 146.711193,309.691098 146.711193,310.213437 C146.711193,310.735777 145.55606,310.549227 145.257961,310.530572 C143.376212,310.418642 141.494463,310.474607 139.594083,310.511917 C138.718418,310.530572 137.824121,310.567882 136.929825,310.567882 C135.923741,310.567882 135.644273,310.176127 136.668988,309.933613 C139.519558,309.933613 140.97279,307.769636 141.736669,305.23256 L141.736669,305.23256 Z M148.499786,294.561917 L153.474311,294.561917 C153.921459,294.561917 158.076212,294.692502 157.908532,294.263437 C158.132106,293.517239 156.827923,291.148057 156.585718,290.439168 C155.803209,288.219227 155.020699,285.98063 154.23819,283.760689 C153.977353,283.033145 153.735148,282.305601 153.474311,281.578057 C153.287999,281.074373 152.971269,280.178934 152.598646,281.204958 C151.927923,282.119051 151.704349,283.947239 151.368988,284.991917 C150.642372,287.211858 149.915756,289.413145 149.18914,291.633086 C149.114615,291.875601 148.071269,294.561917 148.499786,294.561917 L148.499786,294.561917 Z M225.090875,287.943141 C225.090875,293.819456 224.811407,299.789047 225.202662,305.665363 C225.33308,307.53086 225.407605,309.470977 227.624715,309.713491 C227.997338,309.750801 229.7673,309.657527 229.7673,310.123901 C229.7673,310.664895 228.351331,310.478345 228.034601,310.478345 C227.307985,310.478345 217.545247,310.552965 217.545247,310.123901 C217.545247,309.694837 219.073004,309.750801 219.389734,309.657527 C220.526236,309.415012 220.656654,307.922614 220.787072,306.989866 C221.06654,304.60203 221.010646,302.176883 221.029278,299.789047 L221.029278,291.39431 C221.029278,290.834661 209.459316,291.133141 208.471863,291.133141 L201.242966,291.133141 C200.83308,291.133141 200.441825,291.077176 200.069202,291.226415 C199.659316,291.43162 199.976046,294.117936 199.976046,294.50969 C199.976046,298.371269 199.808365,302.288813 200.125095,306.150392 C200.292776,308.127819 200.646768,309.750801 202.957034,309.750801 C203.124715,309.769456 205.41635,310.067936 204.46616,310.403725 C203.869962,310.60893 203.012928,310.478345 202.41673,310.45969 C201.559696,310.45969 192.430418,310.552965 192.430418,310.123901 C192.430418,309.694837 193.976806,309.750801 194.274905,309.657527 C195.411407,309.415012 195.541825,307.922614 195.672243,306.989866 C195.970342,304.60203 195.895817,302.176883 195.914449,299.789047 C195.93308,295.218579 195.914449,290.629456 195.914449,286.058989 C195.914449,283.409983 196.026236,280.723667 195.858555,278.074661 C195.728137,276.246474 195.411407,274.959281 193.361977,274.716766 C193.138403,274.679456 191.722433,274.791386 191.722433,274.343667 C191.722433,273.765363 192.93346,273.951913 193.287452,273.951913 C196.119392,273.970568 198.9327,274.119807 201.764639,273.989222 C201.801901,273.989222 204.186692,274.026532 203.329658,274.567527 C202.994297,274.791386 202.230418,274.735421 201.857795,274.791386 C199.938783,275.183141 200.05057,277.421737 199.994677,278.988755 C199.920152,281.544486 199.976046,284.137527 199.976046,286.693258 C199.976046,287.122322 199.771103,288.596065 199.976046,288.950509 C199.976046,289.472848 200.907605,289.286299 201.242966,289.286299 L217.191255,289.286299 L220.731179,289.286299 C221.271483,289.286299 221.029278,285.107585 221.029278,284.697176 C221.029278,282.365304 221.122433,280.014778 220.936122,277.682907 C220.787072,275.966649 220.339924,274.940626 218.476806,274.716766 C218.122814,274.679456 217.265779,274.791386 216.949049,274.567527 C216.222433,274.157117 217.824715,273.951913 217.992395,273.951913 C220.321293,273.951913 222.65019,274.175772 224.997719,274.007877 C225.575285,273.989222 228.556274,273.634778 228.556274,274.343667 C228.556274,274.754076 226.022433,274.921971 225.631179,275.63086 C224.643726,277.459047 225.090875,280.219983 225.090875,282.253375 L225.090875,287.943141 L225.090875,287.943141 Z M242.287452,296.449807 L242.287452,284.305421 C242.287452,281.787 242.641445,278.876825 242.045247,276.433024 C241.803042,275.425655 241.095057,274.977936 240.107605,274.791386 C239.585932,274.623491 238.654373,274.884661 238.207224,274.567527 C237.461977,274.175772 239.08289,273.951913 239.25057,273.951913 C239.828137,273.951913 240.387072,273.970568 240.964639,273.989222 C243.256274,274.119807 245.547909,274.101152 247.820913,274.101152 L252.255133,274.101152 C254.062357,274.082497 255.962738,273.728053 257.7327,273.728053 C257.7327,273.466883 258.310266,273.578813 258.310266,274.007877 C258.310266,274.847351 257.974905,275.70548 257.919011,276.544953 C257.844487,277.440392 257.825856,278.335831 257.7327,279.212614 C257.658175,279.828228 256.968821,280.462497 256.968821,279.380509 C256.968821,274.772731 250.503802,275.85472 247.392395,275.85472 C246.404943,275.85472 246.349049,276.059924 246.349049,276.936708 L246.349049,280.462497 L246.349049,288.65203 C246.349049,289.062439 246.162738,290.163082 246.721673,290.163082 L250.075285,290.163082 C251.826616,290.163082 253.596578,290.219047 255.310646,289.920568 C256.018631,289.789983 256.745247,288.763959 257.304183,288.763959 C257.825856,288.763959 257.248289,290.983901 257.229658,291.226415 C257.155133,292.383024 257.006084,293.539632 256.968821,294.714895 C256.95019,294.95741 256.745247,296.468462 256.353992,295.740918 C256.074525,295.311854 256.149049,294.173901 256.018631,293.651562 C255.813688,292.569573 254.472243,292.215129 253.577947,292.140509 C251.41673,291.897994 249.162357,291.935304 246.98251,291.897994 C245.864639,291.897994 246.349049,294.117936 246.349049,294.901445 L246.349049,300.460626 C246.349049,302.494018 245.734221,306.206357 247.187452,307.79203 C248.41711,309.116532 251.304943,308.724778 252.907224,308.724778 C255.627376,308.724778 258.012167,308.221094 258.645627,305.292263 C258.776046,304.620684 259.092776,303.296182 259.465399,304.639339 C259.688973,305.460158 259.260456,306.877936 259.130038,307.698755 C258.869202,308.967293 258.99962,310.45969 257.397338,310.57162 C255.795057,310.702205 254.136882,310.60893 252.534601,310.590275 C251.584411,310.57162 238.803422,310.497 238.803422,310.123901 C238.803422,309.713491 240.722433,309.694837 241.076426,309.489632 C242.138403,308.855363 242.08251,306.747351 242.157034,305.665363 C242.361977,302.605948 242.287452,299.509222 242.287452,296.449807 L242.287452,296.449807 Z M272.414068,280.723667 C272.525856,284.958345 272.637643,289.193024 272.768061,293.427702 C272.879848,297.867585 272.544487,302.680568 273.308365,307.083141 C273.643726,309.004603 274.687072,309.713491 276.568821,309.825421 C277.01597,309.844076 278.487833,310.310451 277.239544,310.45969 C275.991255,310.590275 274.687072,310.42238 273.438783,310.42238 C271.668821,310.310451 269.936122,310.42238 268.184791,310.45969 C267.663118,310.478345 267.048289,310.552965 266.545247,310.403725 C266.060837,310.254486 266.43346,309.844076 266.712928,309.844076 C267.458175,309.844076 268.371103,309.788111 269.041825,309.415012 C270.811787,308.388989 270.141065,304.322205 270.141065,302.531328 C270.141065,300.460626 270.159696,298.389924 270.159696,296.319222 C270.159696,291.69279 270.178327,287.047702 270.178327,282.402614 C270.178327,279.716299 269.712548,276.451679 270.308745,273.784018 C270.644106,272.51548 272.11597,274.474252 272.488593,274.903316 C273.103422,275.63086 273.755513,276.321094 274.407605,277.011328 C277.239544,280.089398 280.071483,283.130158 282.922053,286.170918 C288.418251,292.103199 293.78403,298.166065 299.373384,304.04238 C299.187072,295.628989 299.205703,287.196942 298.814449,278.78355 C298.739924,277.048638 298.534981,274.791386 296.261977,274.791386 C295.907985,274.716766 294.193916,274.828696 294.193916,274.306357 C294.193916,273.802673 295.311787,273.970568 295.647148,273.951913 C297.659316,273.951913 299.671483,274.213082 301.68365,274.007877 C302.726996,274.007877 303.863498,273.821328 304.925475,274.007877 C305.596198,274.157117 304.869582,274.642146 304.627376,274.642146 C304.105703,274.642146 303.509506,274.716766 303.025095,274.903316 C301.143346,275.612205 301.68365,278.70893 301.665019,280.425187 C301.665019,282.645129 301.665019,284.86507 301.646388,287.085012 C301.627757,291.84203 301.627757,296.580392 301.609125,301.318755 C301.590494,304.15431 301.981749,307.49355 301.497338,310.291796 C301.217871,311.672263 299.31749,309.433667 298.888973,309.023258 C298.013308,308.146474 297.137643,307.26969 296.261977,306.374252 C293.262357,303.314837 290.3,300.218111 287.337643,297.140041 C284.598859,294.267176 281.934601,291.338345 279.270342,288.39086 C276.997338,285.891094 274.370342,283.447293 272.414068,280.723667 L272.414068,280.723667 Z M317.093208,296.525406 L317.093208,284.381021 C317.093208,281.881254 317.465832,278.952424 316.869634,276.508623 C316.627429,275.501254 315.919444,275.053535 314.931992,274.866985 C314.410319,274.699091 313.47876,274.941605 313.01298,274.643126 C312.286364,274.232716 313.888646,274.027512 314.074958,274.027512 C314.652524,274.027512 315.211459,274.046167 315.789026,274.083477 C322.682562,274.475231 334.401573,271.751605 336.767733,280.780611 C337.401193,283.224412 336.749102,285.910728 335.705756,288.149325 C335.239977,289.156693 334.625148,290.108097 333.935794,290.966225 C333.544539,291.469909 333.116022,291.954939 332.668874,292.421313 C331.97952,293.148857 330.880281,293.559266 331.588265,294.454705 C334.830091,298.596108 337.941497,303.073301 341.686364,306.78564 C343.19549,308.278038 344.965452,309.434646 347.089406,309.770436 C347.350243,309.807746 349.418304,309.751781 349.418304,310.1995 C349.418304,310.721839 347.94644,310.553945 347.573817,310.553945 C344.443779,310.553945 341.034273,310.945699 338.444539,308.837687 C334.997771,306.058097 332.408037,301.692833 329.836935,298.111079 C329.240737,297.271605 328.34644,295.144939 327.116783,295.126284 C325.8126,295.088974 324.489786,295.051664 323.185604,295.014354 C322.608037,295.014354 320.968494,294.622599 320.968494,295.518038 C320.968494,297.756635 320.968494,299.995231 320.987125,302.233828 C321.005756,304.192599 320.819444,306.580436 321.508798,308.464588 C321.844159,309.397336 322.570775,309.695816 323.502334,309.789091 C323.725908,309.807746 326.408798,310.12488 325.458608,310.479325 C324.22895,310.945699 322.291307,310.49798 321.005756,310.49798 C319.422106,310.42336 317.875718,310.46067 316.273437,310.49798 C315.751764,310.553945 314.913361,310.665874 314.391688,310.553945 C313.553285,310.553945 313.422866,309.956985 314.354425,309.901021 C315.174197,309.770436 316.105756,309.789091 316.459748,308.856342 C316.869634,307.699734 316.944159,306.449851 317.018684,305.218623 C317.149102,302.327102 317.093208,299.416927 317.093208,296.525406 L317.093208,296.525406 Z M320.968494,276.415348 L320.968494,285.052599 L320.968494,290.518506 C320.968494,292.048214 320.726288,292.869032 322.552144,293.242132 C324.638836,293.671196 327.508037,294.02564 329.501573,292.999617 C332.408037,291.507219 333.041497,287.533711 332.92971,284.623535 C332.817923,281.620085 331.793208,278.504705 329.166212,276.807102 C328.011079,276.079559 320.987125,274.419266 320.968494,276.415348 L320.968494,276.415348 Z M357.57876,288.01874 C357.57876,293.895056 357.317923,299.864646 357.690547,305.740962 C357.820965,307.587804 357.876859,309.546576 360.1126,309.789091 C360.485224,309.826401 362.255186,309.733126 362.255186,310.1995 C362.255186,310.740494 360.839216,310.553945 360.522486,310.553945 C359.777239,310.553945 350.051764,310.628564 350.051764,310.1995 C350.051764,309.770436 351.560889,309.826401 351.877619,309.733126 C353.014121,309.490611 353.144539,307.998214 353.274958,307.065465 C353.573056,304.696284 353.498532,302.252483 353.517163,299.864646 L353.517163,291.376635 C353.517163,286.992716 353.722106,282.534178 353.442638,278.15026 C353.368113,276.807102 353.200433,274.811021 351.393208,274.811021 C351.057847,274.773711 350.331231,274.829676 350.014501,274.643126 C349.641878,274.419266 350.089026,274.083477 350.331231,274.046167 C351.076478,273.952892 351.914881,274.027512 352.641497,274.083477 C354.318304,274.139442 355.99511,274.083477 357.671916,274.083477 C358.342638,274.083477 361.938456,273.822307 360.597011,274.717746 C360.093969,275.03488 359.218304,274.811021 358.640737,275.165465 C357.858227,275.669149 357.727809,276.769792 357.671916,277.609266 C357.560129,278.821839 357.57876,280.053067 357.57876,281.284295 L357.57876,288.01874 L357.57876,288.01874 Z M402.62895,314.079734 C400.654045,312.979091 398.697771,311.897102 396.722866,310.796459 C395.99625,310.404705 395.269634,309.994295 394.543018,309.583886 C394.393969,309.509266 391.953285,310.53529 391.617923,310.609909 C390.071535,310.964354 388.525148,311.225523 386.941497,311.225523 C382.488646,311.225523 377.830851,310.218155 374.477239,307.102775 C370.900053,303.74488 368.477999,298.950553 368.124007,294.02564 C367.192448,284.082541 374.607657,274.437921 384.593969,273.467863 C394.058608,272.572424 403.839977,277.404061 405.703094,287.365816 C407.119064,295.014354 404.156707,303.390436 397.505376,307.737044 C400.747201,309.397336 403.970395,311.057629 407.193589,312.699266 C413.584083,315.982541 419.993208,318.165173 427.203475,318.519617 C428.880281,318.594237 430.575718,318.389032 432.215262,318.090553 C433.29587,317.904003 434.376478,317.661488 435.419824,317.307044 C436.165072,317.064529 437.152524,316.448915 437.935034,316.448915 C438.82933,316.448915 437.581041,317.344354 437.431992,317.418974 C436.61222,317.792073 435.736554,318.090553 434.898151,318.426342 C432.774197,319.153886 430.557087,319.73219 428.358608,320.10529 C419.080281,321.672307 410.640357,318.482307 402.62895,314.079734 L402.62895,314.079734 Z M372.632752,290.87295 C372.632752,299.137102 376.917923,308.016868 385.898151,309.285406 C390.481421,309.93833 394.822486,308.371313 397.840737,304.826868 C400.709938,301.413009 401.436554,297.21564 401.436554,292.850377 C401.436554,284.381021 396.77876,275.389325 387.314121,275.016225 C383.066212,274.84833 378.818304,276.415348 376.023627,279.679968 C373.396631,282.758038 372.632752,287.104646 372.632752,290.87295 L372.632752,290.87295 Z M415.186364,295.070319 L415.186364,282.310319 C415.186364,279.959792 416.006136,275.44529 413.006516,274.866985 C412.484843,274.680436 411.571916,274.96026 411.106136,274.643126 C410.37952,274.214061 411.981802,274.027512 412.168113,274.027512 C413.341878,274.027512 414.534273,274.046167 415.708037,274.120787 C417.161269,274.195406 418.614501,274.120787 420.067733,274.083477 C420.81298,274.083477 421.949482,273.803652 422.676098,274.102132 C423.719444,274.475231 421.59549,274.811021 421.614121,274.811021 C418.651764,275.277395 419.397011,279.698623 419.397011,282.011839 C419.397011,286.265173 419.359748,290.518506 419.397011,294.771839 C419.397011,299.230377 419.900053,304.04336 423.439977,307.177395 C427.184843,310.49798 433.482182,310.08757 437.077999,306.78564 C441.903475,302.364412 440.692448,293.913711 440.692448,287.925465 L440.692448,280.929851 C440.692448,279.642658 440.711079,278.318155 440.543399,277.030962 C440.431611,276.042249 440.040357,275.33336 439.071535,274.99757 C438.382182,274.773711 437.189786,275.016225 436.61222,274.643126 C435.866973,274.214061 437.506516,274.027512 437.692828,274.027512 C438.289026,274.027512 438.903855,274.046167 439.500053,274.064822 C441.176859,274.139442 442.816402,274.158097 444.474577,274.083477 C444.958988,274.064822 445.443399,274.027512 445.909178,274.027512 C446.058227,274.027512 447.865452,274.195406 447.082942,274.643126 C446.72895,274.866985 446.039596,274.755056 445.611079,274.866985 C444.455946,275.090845 444.04606,275.930319 443.897011,277.030962 C442.685984,285.257804 444.958988,293.764471 442.723246,301.916693 C440.636554,309.509266 432.625148,312.326167 425.433513,310.833769 C417.664311,309.229442 415.186364,302.215173 415.186364,295.070319 L415.186364,295.070319 Z M458.075338,296.525406 L458.075338,284.381021 C458.075338,281.862599 458.42933,278.952424 457.851764,276.508623 C457.311459,274.307336 455.317923,275.463945 453.99511,274.643126 C453.268494,274.214061 454.870775,274.027512 455.038456,274.027512 C455.616022,274.027512 456.193589,274.046167 456.771155,274.083477 C459.044159,274.214061 461.335794,274.176752 463.627429,274.176752 L468.06165,274.176752 C469.868874,274.158097 471.750623,273.803652 473.539216,273.803652 C473.539216,273.523828 474.098151,273.654412 474.098151,274.083477 C474.098151,274.92295 473.781421,275.781079 473.706897,276.620553 C473.632372,277.515991 473.632372,278.41143 473.520585,279.288214 C473.44606,279.903828 472.756707,280.538097 472.756707,279.456108 C472.756707,274.84833 466.310319,275.930319 463.198912,275.930319 C462.211459,275.930319 462.118304,276.135523 462.118304,277.012307 L462.118304,280.538097 L462.118304,288.727629 C462.118304,289.138038 461.950623,290.238681 462.528189,290.238681 L465.881802,290.238681 C467.614501,290.238681 469.384463,290.294646 471.117163,289.996167 C471.582942,289.921547 473.092068,288.746284 473.259748,288.914178 C473.651003,289.287278 473.017543,291.469909 472.943018,291.936284 C472.775338,292.924997 472.756707,294.02564 472.756707,295.033009 C472.700813,295.294178 472.8126,295.406108 472.682182,295.741898 C472.49587,296.226927 472.085984,295.797863 472.085984,295.499383 C472.085984,293.410026 471.154425,292.365348 469.030471,292.178798 C466.869254,292.010904 464.633513,291.973594 462.472296,291.973594 C461.801573,291.973594 462.118304,294.883769 462.118304,295.331488 L462.118304,300.59219 C462.118304,302.588272 461.447581,306.766985 463.217543,308.072833 C464.652144,309.117512 467.148722,308.837687 468.825528,308.800377 C471.881041,308.800377 474.042258,308.016868 474.5453,304.789559 C474.768874,303.96874 475.085604,303.93143 475.271916,304.789559 C475.271916,305.964822 474.880661,307.102775 474.880661,308.278038 C474.5453,309.453301 474.657087,310.53529 473.203855,310.647219 C471.582942,310.777804 469.943399,310.684529 468.322486,310.665874 C467.372296,310.647219 454.591307,310.572599 454.591307,310.1995 C454.591307,309.789091 456.510319,309.770436 456.864311,309.565231 C457.926288,308.930962 457.889026,306.82295 457.963551,305.740962 C458.149862,302.681547 458.075338,299.584822 458.075338,296.525406 L458.075338,296.525406 Z M489.755523,311.268872 C488.414078,311.268872 487.072633,311.138287 485.76845,310.839808 C484.985941,310.671913 483.830808,309.907059 483.085561,309.907059 C481.818641,309.104895 482.582519,305.019457 482.750199,303.694954 C482.750199,303.638989 483.104192,301.530977 483.476815,302.389106 C483.774914,303.19127 483.55134,304.254603 483.793545,305.112732 C484.408374,307.407293 486.23423,308.675831 488.469971,309.23548 C492.885561,310.336123 497.599249,308.022907 497.711036,303.097995 C497.711036,298.658112 494.171112,296.083726 491.078336,293.47203 C487.911036,290.785714 484.33385,287.931503 483.774914,283.510275 C483.178717,278.790568 486.029287,274.742439 490.66845,273.716416 C493.071872,273.194077 495.829287,273.250042 498.195447,273.884311 C498.56807,273.95893 500.375295,273.99624 500.375295,274.462615 C500.375295,275.619223 500.207614,276.757176 500.188983,277.895129 C500.188983,278.249574 500.412557,280.71203 499.83499,280.71203 C499.331949,280.71203 499.20153,278.622673 499.052481,278.193609 C498.325865,276.141562 495.996968,275.302088 494.003431,275.134194 C489.289743,274.761094 485.172253,278.417468 487.426625,283.305071 C489.177956,286.83086 493.239553,288.957527 496.071492,291.513258 C499.536891,294.665948 501.809895,298.434252 500.93423,303.265889 C499.946777,308.675831 494.823203,311.268872 489.755523,311.268872" id="Fundacao-Serra-Henriques" sketch:type="MSShapeGroup"></path>
        </g>
    </g>
</svg>