<?xml version="1.0" encoding="UTF-8" standalone="no"?>
<svg width="578px" height="160px" viewBox="0 0 578 160" version="1.1" xmlns="http://www.w3.org/2000/svg" xmlns:xlink="http://www.w3.org/1999/xlink">
    <!-- Generator: Sketch 3.6.1 (26313) - http://www.bohemiancoding.com/sketch -->
    <title>Group</title>
    <desc>Created with Sketch.</desc>
    <defs></defs>
    <g id="Page-1" stroke="none" stroke-width="1" fill="none" fill-rule="evenodd">
        <g id="Group" fill="#000000">
            <path d="M25.495,123.629 C22.255,123.629 18.261,122.985 15.568,122.341 L15.568,99.993 C17.836,98.053 21.935,95.894 25.495,95.894 C29.605,95.894 31.108,98.162 31.108,101.832 L31.108,117.7 C31.108,121.151 29.605,123.629 25.495,123.629 M30.027,82.407 C24.308,82.407 17.508,85.316 13.839,87.693 L12.222,83.481 L0.023,83.481 L0.023,159.468 L15.568,157.31 L15.568,135.617 C19.128,136.476 24.632,137.12 28.949,137.12 C41.253,137.12 46.648,130.109 46.648,117.7 L46.648,101.832 C46.648,88.985 40.715,82.407 30.027,82.407" id="Fill-8"></path>
            <path d="M77.955,124.066 C72.342,124.066 69.754,121.26 69.754,116.294 L69.754,103.241 C69.754,98.275 72.342,95.465 77.955,95.465 C83.568,95.465 86.16,98.275 86.16,103.241 L86.16,116.294 C86.16,121.26 83.568,124.066 77.955,124.066 M77.955,82.407 C59.28,82.407 54.209,92.873 54.209,103.666 L54.209,115.857 C54.209,126.655 59.28,137.12 77.955,137.12 C96.626,137.12 101.701,126.655 101.701,115.857 L101.701,103.666 C101.701,92.873 96.626,82.407 77.955,82.407" id="Fill-9"></path>
            <path d="M140.127,82.407 C135.919,83.27 129.225,86.397 125.989,88.555 L124.911,83.481 L111.959,83.481 L111.959,136.043 L127.499,136.043 L127.499,103.987 C130.845,101.617 136.778,98.916 141.423,97.085 L140.127,82.407" id="Fill-10"></path>
            <path d="M166.461,68.702 L150.925,70.856 L150.925,83.481 L143.804,83.481 L143.804,96 L150.925,96 L150.925,123.629 C150.925,133.345 156.749,137.12 166.785,137.12 C170.353,137.12 174.561,136.371 178.016,135.176 L176.177,123.426 C173.906,124.176 171.43,124.387 169.701,124.387 C167.761,124.387 166.461,123.629 166.461,121.478 L166.461,96 L177.579,96 L178.441,83.481 L166.461,83.481 L166.461,68.702" id="Fill-11"></path>
            <path d="M208.023,124.066 C202.409,124.066 199.817,121.26 199.817,116.294 L199.817,103.241 C199.817,98.275 202.409,95.465 208.023,95.465 C213.628,95.465 216.224,98.275 216.224,103.241 L216.224,116.294 C216.224,121.26 213.628,124.066 208.023,124.066 M208.023,82.407 C189.348,82.407 184.274,92.873 184.274,103.666 L184.274,115.857 C184.274,126.655 189.348,137.12 208.023,137.12 C226.694,137.12 231.764,126.655 231.764,115.857 L231.764,103.666 C231.764,92.873 226.694,82.407 208.023,82.407" id="Fill-12"></path>
            <path d="M318.964,82.407 C312.921,82.407 304.501,84.347 298.029,87.482 L296.412,83.481 L284.858,83.481 L284.858,136.043 L300.398,136.043 L300.398,101.293 C303.747,99.454 308.923,97.514 311.734,97.514 C314.431,97.514 315.505,98.916 315.505,101.293 L315.505,136.043 L331.057,136.043 L331.057,99.236 C331.057,89.102 327.922,82.407 318.964,82.407" id="Fill-13"></path>
            <path d="M364.514,124.066 C358.901,124.066 356.317,121.26 356.317,116.294 L356.317,103.241 C356.317,98.275 358.901,95.465 364.514,95.465 C370.128,95.465 372.716,98.275 372.716,103.241 L372.716,116.294 C372.716,121.26 370.128,124.066 364.514,124.066 M364.514,82.407 C345.844,82.407 340.769,92.873 340.769,103.666 L340.769,115.857 C340.769,126.655 345.844,137.12 364.514,137.12 C383.182,137.12 388.26,126.655 388.26,115.857 L388.26,103.666 C388.26,92.873 383.182,82.407 364.514,82.407" id="Fill-14"></path>
            <path d="M426.687,82.407 C422.479,83.27 415.784,86.397 412.548,88.555 L411.471,83.481 L398.515,83.481 L398.515,136.043 L414.059,136.043 L414.059,103.987 C417.412,101.617 423.338,98.916 427.983,97.085 L426.687,82.407" id="Fill-15"></path>
            <path d="M453.021,68.702 L437.481,70.856 L437.481,83.481 L430.357,83.481 L430.357,96 L437.481,96 L437.481,123.629 C437.481,133.345 443.309,137.12 453.349,137.12 C456.913,137.12 461.117,136.371 464.576,135.176 L462.737,123.426 C460.469,124.176 457.986,124.387 456.265,124.387 C454.321,124.387 453.021,123.629 453.021,121.478 L453.021,96 L464.138,96 L465.005,83.481 L453.021,83.481 L453.021,68.702" id="Fill-16"></path>
            <path d="M486.373,103.557 L486.373,101.293 C486.373,97.623 488.103,94.598 493.501,94.598 C498.896,94.598 499.973,97.623 499.973,101.293 L499.973,103.557 L486.373,103.557 L486.373,103.557 Z M493.384,82.407 C475.907,82.407 470.833,92.112 470.833,103.455 L470.833,115.756 C470.833,128.704 477.309,137.12 494.356,137.12 C501.703,137.12 509.365,135.512 514.116,133.779 L511.848,122.119 C507.203,123.528 500.731,124.387 495.875,124.387 C488.75,124.387 486.373,122.778 486.373,116.724 L486.373,115.21 L514.647,115.21 L514.647,104.205 C514.647,92.767 510.876,82.407 493.384,82.407 L493.384,82.407 Z" id="Fill-17"></path>
            <path d="M525.553,72.343 L518.813,72.322 L518.825,69.711 L535.21,69.769 L535.199,72.379 L528.462,72.358 L528.385,92.294 L525.478,92.286 L525.553,72.343" id="Fill-18"></path>
            <path d="M538.423,69.784 L551.692,69.835 L551.684,72.435 L541.32,72.408 L541.294,79.483 L550.906,79.512 L550.899,82.115 L541.284,82.086 L541.255,89.735 L551.652,89.778 L551.641,92.381 L538.339,92.338 L538.423,69.784" id="Fill-19"></path>
            <path d="M559.25,74.131 L558.752,92.403 L555.931,92.396 L556.792,69.857 L560.485,69.864 L566.924,87.32 L573.489,69.907 L577.176,69.922 L577.866,92.475 L575.06,92.468 L574.689,74.183 L568.876,89.531 L564.95,89.52 L559.25,74.131" id="Fill-20"></path>
            <path d="M245.01,116.592 L245.01,110.154 L276.777,110.154 L276.777,100.233 C276.777,89.679 272.555,81.553 258.096,81.553 C243.638,81.553 238.888,89.679 238.888,100.233 L238.888,116.381 C238.888,127.568 243.532,135.061 257.991,135.061 C264.218,135.061 270.972,133.9 275.722,132.212 L274.666,127.251 C269.6,128.623 263.69,129.679 258.413,129.679 C248.176,129.679 245.01,125.774 245.01,116.592 L245.01,116.592 Z M245.01,100.022 C245.01,91.368 248.492,86.83 258.096,86.83 C267.701,86.83 270.761,91.368 270.761,100.022 L270.761,104.666 L245.01,104.666 L245.01,100.022 L245.01,100.022 Z" id="Fill-21"></path>
            <path d="M9.894,0.34 L0.023,0.34 L0.023,2.735 L3.616,2.735 L3.616,14.093 L6.301,14.093 L6.301,2.735 L9.894,2.735 L9.894,0.34 L9.894,0.34 Z M21.985,0.34 L19.32,0.34 L19.32,9.283 C19.32,10.069 19.104,10.687 18.673,11.137 C18.241,11.588 17.658,11.813 16.924,11.813 C16.19,11.813 15.611,11.588 15.186,11.137 C14.761,10.687 14.549,10.069 14.549,9.283 L14.549,0.34 L11.864,0.34 L11.864,9.38 C11.864,10.809 12.347,11.971 13.312,12.866 C14.278,13.761 15.482,14.208 16.924,14.208 C18.367,14.208 19.571,13.761 20.536,12.866 C21.502,11.971 21.985,10.809 21.985,9.38 L21.985,0.34 L21.985,0.34 Z M32.319,8.163 C33.04,7.905 33.626,7.487 34.077,6.907 C34.579,6.25 34.83,5.465 34.83,4.551 C34.83,3.353 34.437,2.362 33.652,1.576 C32.828,0.752 31.733,0.34 30.368,0.34 L24.979,0.34 L24.979,14.093 L27.664,14.093 L27.664,8.607 L29.596,8.607 L32.28,14.093 L35.39,14.093 L32.319,8.163 L32.319,8.163 Z M31.604,5.848 C31.244,6.181 30.774,6.347 30.194,6.347 L27.664,6.347 L27.664,2.735 L30.194,2.735 C30.774,2.735 31.244,2.902 31.604,3.235 C31.965,3.568 32.145,4.003 32.145,4.541 C32.145,5.079 31.965,5.515 31.604,5.848 L31.604,5.848 Z M37.611,14.093 L40.296,14.093 L40.296,0.34 L37.611,0.34 L37.611,14.093 Z M51.345,7.12 C50.765,6.579 49.889,6.225 48.718,6.057 L47.095,5.826 C46.554,5.748 46.139,5.574 45.849,5.304 C45.56,5.034 45.415,4.699 45.415,4.3 C45.415,3.797 45.598,3.382 45.965,3.054 C46.332,2.725 46.857,2.561 47.539,2.561 C48.763,2.561 49.703,2.877 50.359,3.508 L52.059,1.827 C50.952,0.759 49.471,0.224 47.617,0.224 C46.149,0.224 44.983,0.607 44.121,1.373 C43.258,2.14 42.826,3.147 42.826,4.396 C42.826,6.624 44.043,7.905 46.477,8.24 L48.138,8.472 C48.692,8.549 49.104,8.713 49.374,8.964 C49.645,9.215 49.78,9.599 49.78,10.114 C49.78,11.247 48.969,11.813 47.346,11.813 C45.904,11.813 44.797,11.427 44.024,10.654 L42.286,12.393 C43.483,13.603 45.157,14.208 47.308,14.208 C48.788,14.208 50.008,13.838 50.968,13.098 C51.927,12.358 52.407,11.337 52.407,10.036 C52.407,8.762 52.053,7.789 51.345,7.12 L51.345,7.12 Z M67.376,0.34 L64.691,0.34 L61.132,7.776 L57.553,0.34 L54.918,0.34 L54.918,14.093 L57.603,14.093 L57.603,6.077 L60.249,11.292 L62.064,11.292 L64.691,6.077 L64.691,14.093 L67.376,14.093 L67.376,0.34 L67.376,0.34 Z M80.105,4.106 C79.938,3.154 79.538,2.362 78.907,1.731 C77.903,0.726 76.667,0.224 75.199,0.224 C73.718,0.224 72.475,0.726 71.471,1.731 C70.853,2.349 70.454,3.141 70.273,4.106 C70.17,4.673 70.119,5.71 70.119,7.216 C70.119,8.723 70.17,9.76 70.273,10.326 C70.454,11.292 70.853,12.084 71.471,12.702 C72.475,13.706 73.718,14.208 75.199,14.208 C76.667,14.208 77.903,13.706 78.907,12.702 C79.538,12.071 79.938,11.279 80.105,10.326 C80.221,9.747 80.279,8.71 80.279,7.216 C80.279,5.723 80.221,4.686 80.105,4.106 L80.105,4.106 Z M77.072,10.886 C76.622,11.504 75.997,11.813 75.199,11.813 C74.478,11.813 73.898,11.569 73.46,11.079 C73.125,10.693 72.92,10.075 72.842,9.225 C72.816,8.993 72.804,8.324 72.804,7.216 C72.804,6.109 72.816,5.439 72.842,5.207 C72.92,4.358 73.125,3.739 73.46,3.353 C73.898,2.864 74.478,2.619 75.199,2.619 C75.907,2.619 76.48,2.864 76.918,3.353 C77.266,3.739 77.478,4.358 77.555,5.207 C77.581,5.491 77.594,6.161 77.594,7.216 C77.594,9.186 77.42,10.41 77.072,10.886 L77.072,10.886 Z M97.373,4.203 C97.206,3.186 96.781,2.336 96.098,1.653 C95.222,0.778 94.012,0.34 92.467,0.34 L87.503,0.34 L87.503,14.093 L92.467,14.093 C94.012,14.093 95.222,13.655 96.098,12.779 C96.781,12.097 97.206,11.228 97.373,10.172 C97.45,9.695 97.489,8.691 97.489,7.158 C97.489,5.652 97.45,4.667 97.373,4.203 L97.373,4.203 Z M94.707,9.553 C94.63,10.12 94.469,10.552 94.225,10.848 C93.761,11.414 93.091,11.697 92.216,11.697 L90.188,11.697 L90.188,2.735 L92.216,2.735 C93.091,2.735 93.761,3.018 94.225,3.585 C94.469,3.881 94.63,4.293 94.707,4.821 C94.772,5.272 94.804,6.051 94.804,7.158 C94.804,8.279 94.772,9.077 94.707,9.553 L94.707,9.553 Z M109.754,4.106 C109.587,3.154 109.187,2.362 108.557,1.731 C107.552,0.726 106.316,0.224 104.848,0.224 C103.367,0.224 102.125,0.726 101.12,1.731 C100.502,2.349 100.103,3.141 99.923,4.106 C99.819,4.673 99.768,5.71 99.768,7.216 C99.768,8.723 99.819,9.76 99.923,10.326 C100.103,11.292 100.502,12.084 101.12,12.702 C102.125,13.706 103.367,14.208 104.848,14.208 C106.316,14.208 107.552,13.706 108.557,12.702 C109.187,12.071 109.587,11.279 109.754,10.326 C109.87,9.747 109.928,8.71 109.928,7.216 C109.928,5.723 109.87,4.686 109.754,4.106 L109.754,4.106 Z M106.722,10.886 C106.271,11.504 105.646,11.813 104.848,11.813 C104.127,11.813 103.547,11.569 103.11,11.079 C102.775,10.693 102.569,10.075 102.492,9.225 C102.466,8.993 102.453,8.324 102.453,7.216 C102.453,6.109 102.466,5.439 102.492,5.207 C102.569,4.358 102.775,3.739 103.11,3.353 C103.547,2.864 104.127,2.619 104.848,2.619 C105.556,2.619 106.129,2.864 106.567,3.353 C106.915,3.739 107.127,4.358 107.205,5.207 C107.23,5.491 107.243,6.161 107.243,7.216 C107.243,9.186 107.069,10.41 106.722,10.886 L106.722,10.886 Z M125.825,1.615 C124.975,0.765 123.861,0.34 122.483,0.34 L117.152,0.34 L117.152,14.093 L119.837,14.093 L119.837,8.916 L122.483,8.916 C123.861,8.916 124.975,8.491 125.825,7.641 C126.623,6.843 127.022,5.839 127.022,4.628 C127.022,3.418 126.623,2.413 125.825,1.615 L125.825,1.615 Z M123.797,5.99 C123.436,6.331 122.953,6.502 122.348,6.502 L119.837,6.502 L119.837,2.735 L122.348,2.735 C122.953,2.735 123.436,2.909 123.797,3.257 C124.157,3.604 124.337,4.061 124.337,4.628 C124.337,5.195 124.157,5.649 123.797,5.99 L123.797,5.99 Z M138.805,4.106 C138.637,3.154 138.238,2.362 137.607,1.731 C136.603,0.726 135.366,0.224 133.898,0.224 C132.417,0.224 131.175,0.726 130.171,1.731 C129.552,2.349 129.153,3.141 128.973,4.106 C128.87,4.673 128.818,5.71 128.818,7.216 C128.818,8.723 128.87,9.76 128.973,10.326 C129.153,11.292 129.552,12.084 130.171,12.702 C131.175,13.706 132.417,14.208 133.898,14.208 C135.366,14.208 136.603,13.706 137.607,12.702 C138.238,12.071 138.637,11.279 138.805,10.326 C138.92,9.747 138.978,8.71 138.978,7.216 C138.978,5.723 138.92,4.686 138.805,4.106 L138.805,4.106 Z M135.772,10.886 C135.321,11.504 134.697,11.813 133.898,11.813 C133.177,11.813 132.598,11.569 132.16,11.079 C131.825,10.693 131.619,10.075 131.542,9.225 C131.516,8.993 131.503,8.324 131.503,7.216 C131.503,6.109 131.516,5.439 131.542,5.207 C131.619,4.358 131.825,3.739 132.16,3.353 C132.598,2.864 133.177,2.619 133.898,2.619 C134.606,2.619 135.18,2.864 135.617,3.353 C135.965,3.739 136.178,4.358 136.255,5.207 C136.281,5.491 136.294,6.161 136.294,7.216 C136.294,9.186 136.12,10.41 135.772,10.886 L135.772,10.886 Z M149.061,8.163 C149.782,7.905 150.368,7.487 150.819,6.907 C151.321,6.25 151.572,5.465 151.572,4.551 C151.572,3.353 151.179,2.362 150.394,1.576 C149.57,0.752 148.475,0.34 147.11,0.34 L141.721,0.34 L141.721,14.093 L144.406,14.093 L144.406,8.607 L146.338,8.607 L149.022,14.093 L152.132,14.093 L149.061,8.163 L149.061,8.163 Z M148.346,5.848 C147.986,6.181 147.516,6.347 146.936,6.347 L144.406,6.347 L144.406,2.735 L146.936,2.735 C147.516,2.735 147.986,2.902 148.346,3.235 C148.707,3.568 148.887,4.003 148.887,4.541 C148.887,5.079 148.707,5.515 148.346,5.848 L148.346,5.848 Z M163.2,0.34 L153.33,0.34 L153.33,2.735 L156.922,2.735 L156.922,14.093 L159.607,14.093 L159.607,2.735 L163.2,2.735 L163.2,0.34 L163.2,0.34 Z M174.905,4.106 C174.738,3.154 174.338,2.362 173.708,1.731 C172.703,0.726 171.467,0.224 169.999,0.224 C168.518,0.224 167.276,0.726 166.271,1.731 C165.653,2.349 165.254,3.141 165.074,4.106 C164.97,4.673 164.919,5.71 164.919,7.216 C164.919,8.723 164.97,9.76 165.074,10.326 C165.254,11.292 165.653,12.084 166.271,12.702 C167.276,13.706 168.518,14.208 169.999,14.208 C171.467,14.208 172.703,13.706 173.708,12.702 C174.338,12.071 174.738,11.279 174.905,10.326 C175.021,9.747 175.079,8.71 175.079,7.216 C175.079,5.723 175.021,4.686 174.905,4.106 L174.905,4.106 Z M171.873,10.886 C171.422,11.504 170.797,11.813 169.999,11.813 C169.278,11.813 168.698,11.569 168.261,11.079 C167.926,10.693 167.72,10.075 167.643,9.225 C167.617,8.993 167.604,8.324 167.604,7.216 C167.604,6.109 167.617,5.439 167.643,5.207 C167.72,4.358 167.926,3.739 168.261,3.353 C168.698,2.864 169.278,2.619 169.999,2.619 C170.707,2.619 171.28,2.864 171.718,3.353 C172.066,3.739 172.278,4.358 172.356,5.207 C172.381,5.491 172.394,6.161 172.394,7.216 C172.394,9.186 172.22,10.41 171.873,10.886 L171.873,10.886 Z M191.362,11.697 L184.988,11.697 L184.988,8.356 L190.415,8.356 L190.415,5.961 L184.988,5.961 L184.988,2.735 L191.362,2.735 L191.362,0.34 L182.303,0.34 L182.303,14.093 L191.362,14.093 L191.362,11.697 L191.362,11.697 Z M208.997,0.34 L206.312,0.34 L206.312,8.762 L200.865,0.34 L198.47,0.34 L198.47,14.093 L201.155,14.093 L201.155,5.652 L206.602,14.093 L208.997,14.093 L208.997,0.34 L208.997,0.34 Z M221.726,4.106 C221.558,3.154 221.159,2.362 220.528,1.731 C219.524,0.726 218.288,0.224 216.82,0.224 C215.339,0.224 214.096,0.726 213.092,1.731 C212.474,2.349 212.074,3.141 211.894,4.106 C211.791,4.673 211.74,5.71 211.74,7.216 C211.74,8.723 211.791,9.76 211.894,10.326 C212.074,11.292 212.474,12.084 213.092,12.702 C214.096,13.706 215.339,14.208 216.82,14.208 C218.288,14.208 219.524,13.706 220.528,12.702 C221.159,12.071 221.558,11.279 221.726,10.326 C221.842,9.747 221.9,8.71 221.9,7.216 C221.9,5.723 221.842,4.686 221.726,4.106 L221.726,4.106 Z M218.693,10.886 C218.242,11.504 217.618,11.813 216.82,11.813 C216.098,11.813 215.519,11.569 215.081,11.079 C214.746,10.693 214.54,10.075 214.463,9.225 C214.437,8.993 214.425,8.324 214.425,7.216 C214.425,6.109 214.437,5.439 214.463,5.207 C214.54,4.358 214.746,3.739 215.081,3.353 C215.519,2.864 216.098,2.619 216.82,2.619 C217.528,2.619 218.101,2.864 218.539,3.353 C218.886,3.739 219.099,4.358 219.176,5.207 C219.202,5.491 219.215,6.161 219.215,7.216 C219.215,9.186 219.041,10.41 218.693,10.886 L218.693,10.886 Z M231.982,8.163 C232.703,7.905 233.289,7.487 233.74,6.907 C234.242,6.25 234.493,5.465 234.493,4.551 C234.493,3.353 234.1,2.362 233.315,1.576 C232.491,0.752 231.396,0.34 230.031,0.34 L224.642,0.34 L224.642,14.093 L227.327,14.093 L227.327,8.607 L229.259,8.607 L231.944,14.093 L235.054,14.093 L231.982,8.163 L231.982,8.163 Z M231.268,5.848 C230.907,6.181 230.437,6.347 229.858,6.347 L227.327,6.347 L227.327,2.735 L229.858,2.735 C230.437,2.735 230.907,2.902 231.268,3.235 C231.628,3.568 231.809,4.003 231.809,4.541 C231.809,5.079 231.628,5.515 231.268,5.848 L231.268,5.848 Z M246.121,0.34 L236.251,0.34 L236.251,2.735 L239.844,2.735 L239.844,14.093 L242.529,14.093 L242.529,2.735 L246.121,2.735 L246.121,0.34 L246.121,0.34 Z M257.363,11.697 L250.989,11.697 L250.989,8.356 L256.416,8.356 L256.416,5.961 L250.989,5.961 L250.989,2.735 L257.363,2.735 L257.363,0.34 L248.304,0.34 L248.304,14.093 L257.363,14.093 L257.363,11.697 L257.363,11.697 Z M274.341,4.203 C274.174,3.186 273.749,2.336 273.066,1.653 C272.19,0.778 270.98,0.34 269.435,0.34 L264.471,0.34 L264.471,14.093 L269.435,14.093 C270.98,14.093 272.19,13.655 273.066,12.779 C273.749,12.097 274.174,11.228 274.341,10.172 C274.418,9.695 274.457,8.691 274.457,7.158 C274.457,5.652 274.418,4.667 274.341,4.203 L274.341,4.203 Z M271.676,9.553 C271.598,10.12 271.437,10.552 271.193,10.848 C270.729,11.414 270.059,11.697 269.184,11.697 L267.156,11.697 L267.156,2.735 L269.184,2.735 C270.059,2.735 270.729,3.018 271.193,3.585 C271.437,3.881 271.598,4.293 271.676,4.821 C271.74,5.272 271.772,6.051 271.772,7.158 C271.772,8.279 271.74,9.077 271.676,9.553 L271.676,9.553 Z M286.259,11.697 L279.885,11.697 L279.885,8.356 L285.312,8.356 L285.312,5.961 L279.885,5.961 L279.885,2.735 L286.259,2.735 L286.259,0.34 L277.2,0.34 L277.2,14.093 L286.259,14.093 L286.259,11.697 L286.259,11.697 Z M302.039,1.615 C301.19,0.765 300.076,0.34 298.698,0.34 L293.367,0.34 L293.367,14.093 L296.052,14.093 L296.052,8.916 L298.698,8.916 C300.076,8.916 301.19,8.491 302.039,7.641 C302.838,6.843 303.237,5.839 303.237,4.628 C303.237,3.418 302.838,2.413 302.039,1.615 L302.039,1.615 Z M300.011,5.99 C299.651,6.331 299.168,6.502 298.563,6.502 L296.052,6.502 L296.052,2.735 L298.563,2.735 C299.168,2.735 299.651,2.909 300.011,3.257 C300.372,3.604 300.552,4.061 300.552,4.628 C300.552,5.195 300.372,5.649 300.011,5.99 L300.011,5.99 Z M315.019,4.106 C314.852,3.154 314.453,2.362 313.822,1.731 C312.817,0.726 311.581,0.224 310.113,0.224 C308.632,0.224 307.39,0.726 306.385,1.731 C305.767,2.349 305.368,3.141 305.188,4.106 C305.084,4.673 305.033,5.71 305.033,7.216 C305.033,8.723 305.084,9.76 305.188,10.326 C305.368,11.292 305.767,12.084 306.385,12.702 C307.39,13.706 308.632,14.208 310.113,14.208 C311.581,14.208 312.817,13.706 313.822,12.702 C314.453,12.071 314.852,11.279 315.019,10.326 C315.135,9.747 315.193,8.71 315.193,7.216 C315.193,5.723 315.135,4.686 315.019,4.106 L315.019,4.106 Z M311.987,10.886 C311.536,11.504 310.911,11.813 310.113,11.813 C309.392,11.813 308.812,11.569 308.375,11.079 C308.04,10.693 307.834,10.075 307.757,9.225 C307.731,8.993 307.718,8.324 307.718,7.216 C307.718,6.109 307.731,5.439 307.757,5.207 C307.834,4.358 308.04,3.739 308.375,3.353 C308.812,2.864 309.392,2.619 310.113,2.619 C310.821,2.619 311.394,2.864 311.832,3.353 C312.18,3.739 312.392,4.358 312.47,5.207 C312.495,5.491 312.508,6.161 312.508,7.216 C312.508,9.186 312.334,10.41 311.987,10.886 L311.987,10.886 Z M325.276,8.163 C325.997,7.905 326.583,7.487 327.034,6.907 C327.536,6.25 327.787,5.465 327.787,4.551 C327.787,3.353 327.394,2.362 326.609,1.576 C325.784,0.752 324.69,0.34 323.325,0.34 L317.936,0.34 L317.936,14.093 L320.621,14.093 L320.621,8.607 L322.552,8.607 L325.237,14.093 L328.347,14.093 L325.276,8.163 L325.276,8.163 Z M324.561,5.848 C324.2,6.181 323.731,6.347 323.151,6.347 L320.621,6.347 L320.621,2.735 L323.151,2.735 C323.731,2.735 324.2,2.902 324.561,3.235 C324.921,3.568 325.102,4.003 325.102,4.541 C325.102,5.079 324.921,5.515 324.561,5.848 L324.561,5.848 Z M339.415,0.34 L329.544,0.34 L329.544,2.735 L333.137,2.735 L333.137,14.093 L335.822,14.093 L335.822,2.735 L339.415,2.735 L339.415,0.34 L339.415,0.34 Z M351.506,0.34 L348.841,0.34 L348.841,9.283 C348.841,10.069 348.625,10.687 348.194,11.137 C347.762,11.588 347.18,11.813 346.445,11.813 C345.712,11.813 345.132,11.588 344.707,11.137 C344.282,10.687 344.07,10.069 344.07,9.283 L344.07,0.34 L341.385,0.34 L341.385,9.38 C341.385,10.809 341.868,11.971 342.833,12.866 C343.799,13.761 345.003,14.208 346.445,14.208 C347.888,14.208 349.092,13.761 350.058,12.866 C351.023,11.971 351.506,10.809 351.506,9.38 L351.506,0.34 L351.506,0.34 Z M364.293,6.424 L359.097,6.424 L359.097,8.684 L361.628,8.684 L361.628,9.206 C361.628,9.978 361.421,10.59 361.009,11.041 C360.546,11.556 359.908,11.813 359.097,11.813 C358.376,11.813 357.803,11.575 357.378,11.099 C357.043,10.712 356.837,10.088 356.76,9.225 C356.734,8.993 356.721,8.324 356.721,7.216 C356.721,6.109 356.734,5.439 356.76,5.207 C356.837,4.358 357.044,3.739 357.38,3.353 C357.819,2.864 358.393,2.619 359.103,2.619 C360.433,2.619 361.259,3.289 361.582,4.628 L364.293,4.628 C364.087,3.366 363.577,2.342 362.764,1.557 C361.823,0.668 360.603,0.224 359.107,0.224 C357.636,0.224 356.397,0.726 355.391,1.731 C354.772,2.349 354.372,3.141 354.191,4.106 C354.088,4.673 354.037,5.71 354.037,7.216 C354.037,8.723 354.088,9.76 354.191,10.326 C354.371,11.292 354.771,12.084 355.389,12.702 C356.393,13.706 357.629,14.208 359.097,14.208 C360.681,14.208 361.975,13.686 362.98,12.64 C363.855,11.724 364.293,10.323 364.293,8.438 L364.293,6.424 L364.293,6.424 Z M372.618,0.34 L370.513,0.34 L365.51,14.093 L368.311,14.093 L369.141,11.659 L374.028,11.659 L374.839,14.093 L377.64,14.093 L372.618,0.34 L372.618,0.34 Z M369.895,9.399 L371.633,4.396 L373.313,9.399 L369.895,9.399 L369.895,9.399 Z M388.263,11.697 L382.024,11.697 L382.024,0.34 L379.34,0.34 L379.34,14.093 L388.263,14.093 L388.263,11.697 L388.263,11.697 Z" id="Fill-22"></path>
        </g>
    </g>
</svg>