<?xml version="1.0" encoding="UTF-8" standalone="no"?>
<svg width="440px" height="260px" viewBox="0 0 440 260" version="1.1" xmlns="http://www.w3.org/2000/svg" xmlns:xlink="http://www.w3.org/1999/xlink" xmlns:sketch="http://www.bohemiancoding.com/sketch/ns">
    <title>Building Pictures</title>
    <defs></defs>
    <g id="Page-1" stroke="none" stroke-width="1" fill="none" fill-rule="evenodd" sketch:type="MSPage">
        <g id="logo-buildingpictures" sketch:type="MSArtboardGroup" fill="#000000">
            <path d="M212.557015,133.319204 L212.564129,133.319204 L212.617811,98.9008955 L204.826219,98.9008955 L204.773048,132.585771 L204.763483,132.585771 L204.763483,149.651343 C204.763483,152.610299 205.360448,154.985871 206.556318,156.777413 C207.501244,158.180896 208.753383,159.292687 210.317264,160.112139 C211.879204,160.931592 213.54398,161.340995 215.307711,161.340995 C215.503035,161.340995 215.801194,161.333881 216.204129,161.320299 L216.204129,153.131592 C214.814229,153.131592 213.859602,152.818557 213.338308,152.193781 C212.817662,151.569005 212.557015,150.43005 212.557015,148.776269 L216.057313,148.776269 L216.057313,140.545522 L212.557015,140.545522 L212.557015,133.319204 Z M349.661741,129.891343 C349.661741,201.560796 291.56209,259.660448 219.893284,259.660448 C148.223831,259.660448 90.1241791,201.560796 90.1241791,129.891343 C90.1241791,58.2218905 148.223831,0.122885572 219.893284,0.122885572 C291.56209,0.122885572 349.661741,58.2218905 349.661741,129.891343 Z M152.023582,98.9008955 L152.023582,115.925721 C152.023582,118.69 153.016368,120.072139 155.003234,120.072139 C155.849851,120.072139 156.569701,119.783682 157.159552,119.206766 C157.749403,118.631144 158.045622,117.933284 158.045622,117.113184 C158.045622,116.266567 157.766866,115.553831 157.21194,114.977562 C156.656368,114.400647 155.975323,114.112189 155.1701,114.112189 C154.599652,114.112189 153.947711,114.362488 153.211045,114.863085 L153.211045,106.27791 C154.127512,106.194478 154.822786,106.152438 155.294925,106.152438 C158.225423,106.152438 160.736816,107.208607 162.826517,109.319652 C164.917512,111.43199 165.963333,113.974428 165.963333,116.946318 C165.963333,119.988706 164.900697,122.551841 162.77607,124.635721 C160.648856,126.719602 158.038507,127.760896 154.941144,127.760896 C153.384378,127.760896 151.866418,127.420697 150.38791,126.740299 C148.907463,126.0599 147.689602,125.142786 146.729801,123.989602 C145.063085,121.989154 144.229403,119.398209 144.229403,116.216766 L144.229403,98.9008955 L152.023582,98.9008955 Z M169.382139,106.861294 L177.173731,106.861294 L177.173731,118.592338 C177.173731,119.773333 177.667861,120.363831 178.654179,120.363831 C179.626269,120.363831 180.112637,119.773333 180.112637,118.592338 L180.112637,106.861294 L187.906169,106.861294 L187.906169,118.446816 C187.906169,121.142537 187.009104,123.41592 185.218856,125.271493 C183.425373,127.125771 181.231542,128.052587 178.634129,128.052587 C175.673881,128.052587 173.291194,126.976368 171.48607,124.823284 C170.082587,123.142338 169.382139,120.808806 169.382139,117.821393 L169.382139,106.861294 Z M192.448408,106.569602 L200.240647,106.569602 L200.240647,127.344378 L192.448408,127.344378 L192.448408,106.569602 Z M196.365871,97.2962687 C197.421393,97.2962687 198.33398,97.668806 199.105572,98.4112935 C199.876517,99.1550746 200.26199,100.03403 200.26199,101.047512 C200.26199,102.130846 199.897861,103.020149 199.167662,103.714776 C198.438756,104.41005 197.504826,104.756716 196.365871,104.756716 C195.225622,104.756716 194.291692,104.41005 193.563433,103.714776 C192.833234,103.020149 192.469104,102.130846 192.469104,101.047512 C192.469104,100.03403 192.854577,99.1550746 193.624876,98.4112935 C194.396468,97.668806 195.309055,97.2962687 196.365871,97.2962687 Z M229.975075,98.9008955 L237.7699,98.9008955 L237.7699,116.216766 C237.7699,119.398209 236.936219,121.989154 235.268856,123.989602 C234.309055,125.142786 233.090547,126.0599 231.610746,126.740299 C230.132239,127.420697 228.614279,127.760896 227.057512,127.760896 C223.960149,127.760896 221.349154,126.719602 219.222587,124.635721 C217.098607,122.551841 216.035323,119.996468 216.035323,116.967662 C216.035323,114.036517 217.090846,111.501194 219.203184,109.361692 C221.314229,107.222836 223.814627,106.152438 226.703731,106.152438 C227.162289,106.152438 227.856915,106.194478 228.787612,106.27791 L228.787612,114.863085 C228.149254,114.362488 227.508955,114.112189 226.870597,114.112189 C226.065373,114.112189 225.373333,114.407761 224.797711,114.997612 C224.220796,115.588756 223.932985,116.300199 223.932985,117.133881 C223.932985,117.939751 224.231791,118.631144 224.828756,119.206766 C225.425721,119.783682 226.140398,120.072139 226.97408,120.072139 C228.974527,120.072139 229.975075,118.69 229.975075,115.925721 L229.975075,98.9008955 Z M241.874925,106.569602 L249.666517,106.569602 L249.666517,127.344378 L241.874925,127.344378 L241.874925,106.569602 Z M245.792388,97.2962687 C246.84791,97.2962687 247.760498,97.668806 248.53209,98.4112935 C249.303035,99.1550746 249.687861,100.03403 249.687861,101.047512 C249.687861,102.130846 249.324378,103.020149 248.594179,103.714776 C247.865274,104.41005 246.931343,104.756716 245.792388,104.756716 C244.652139,104.756716 243.718209,104.41005 242.989303,103.714776 C242.259751,103.020149 241.894975,102.130846 241.894975,101.047512 C241.894975,100.03403 242.281095,99.1550746 243.051393,98.4112935 C243.822985,97.668806 244.735572,97.2962687 245.792388,97.2962687 Z M272.776766,127.344378 L264.983234,127.344378 L264.983234,115.612687 C264.983234,114.418756 264.489751,113.820498 263.504726,113.820498 C262.531343,113.820498 262.044328,114.418756 262.044328,115.612687 L262.044328,127.344378 L254.252736,127.344378 L254.252736,115.758856 C254.252736,113.049552 255.147861,110.768408 256.939403,108.913483 C258.732239,107.059204 260.926716,106.131741 263.524129,106.131741 C266.496667,106.131741 268.878706,107.208607 270.672836,109.361692 C272.075025,111.042637 272.776766,113.383284 272.776766,116.383632 L272.776766,127.344378 Z M278.320199,161.591294 L278.320199,153.339851 C278.320199,153.339851 281.38393,153.68005 281.960846,151.543781 C281.960846,151.543781 282.24607,149.456667 282.505423,147.146418 C282.505423,147.146418 282.537114,144.637612 284.612587,142.774925 C286.27607,141.282836 287.83995,141.33005 288.618657,140.024229 C288.755124,139.79592 289.288706,139.507463 289.37602,136.392637 C289.37602,136.392637 289.513781,131.228209 289.513781,130.183682 C289.513781,129.139154 289.478209,115.833881 289.478209,115.833881 C289.478209,115.833881 289.218209,113.444726 286.851045,113.513284 C286.851045,113.513284 284.93403,113.392985 284.122338,115.849403 C284.121692,115.849403 283.7401,118.56 286.378259,119.082587 C286.378259,119.082587 287.453184,119.391095 288.385174,118.7799 L288.385174,125.927313 C288.385174,125.927313 284.831194,127.566866 281.018507,125.498507 C281.018507,125.498507 277.430249,123.701144 276.478209,119.465473 C276.478209,119.465473 275.630299,116.677264 276.651542,113.444726 C277.362985,111.1901 279.492139,107.766119 284.22,106.404677 C284.22,106.404677 289.214328,105.01995 293.51209,108.129602 C293.51209,108.129602 297.300199,110.597015 297.289204,116.379104 C297.278209,122.161194 297.289204,130.530348 297.289204,130.530348 C297.289204,130.530348 297.355174,141.30806 295.165224,145.695075 C292.975274,150.081443 290.660498,147.483383 290.280846,151.797313 C290.280846,151.797313 290.234925,157.477861 285.613134,160.299701 C285.613134,160.299701 283.370796,161.969652 278.320199,161.591294 Z M152.003532,169.794229 L144.208706,169.794229 L144.208706,151.381443 C144.208706,148.200647 145.042388,145.609055 146.709751,143.608607 C147.669552,142.45607 148.887413,141.538955 150.367861,140.85791 C151.846368,140.177512 153.364328,139.837313 154.921095,139.837313 C158.018458,139.837313 160.628806,140.878607 162.755373,142.962488 C164.879353,145.046368 165.943284,147.603035 165.943284,150.630547 C165.943284,153.57592 164.887761,156.118358 162.775423,158.257214 C160.664378,160.396716 158.163333,161.465821 155.274229,161.465821 C154.80209,161.465821 154.107463,161.417313 153.190348,161.320299 L153.190348,152.735124 C153.828706,153.249303 154.469652,153.506716 155.107363,153.506716 C155.913234,153.506716 156.60398,153.20791 157.180896,152.610299 C157.757811,152.013333 158.044975,151.304478 158.044975,150.485025 C158.044975,149.665572 157.746816,148.967065 157.149851,148.390796 C156.552886,147.814527 155.837562,147.52607 155.004527,147.52607 C153.00408,147.52607 152.003532,148.908209 152.003532,151.673134 L152.003532,169.794229 Z M169.361443,140.566219 L177.153682,140.566219 L177.153682,161.340995 L169.361443,161.340995 L169.361443,140.566219 Z M173.279552,131.293532 C174.335075,131.293532 175.247662,131.665423 176.019254,132.408557 C176.788905,133.151692 177.175025,134.030647 177.175025,135.044776 C177.175025,136.128109 176.810896,137.017413 176.080697,137.71204 C175.352438,138.406667 174.417861,138.753333 173.279552,138.753333 C172.139303,138.753333 171.205373,138.406667 170.476468,137.71204 C169.746269,137.017413 169.381493,136.128109 169.381493,135.044776 C169.381493,134.030647 169.767612,133.151692 170.53791,132.408557 C171.310149,131.665423 172.222736,131.293532 173.279552,131.293532 Z M194.492189,151.464229 L202.221692,151.172537 C201.999851,154.172886 200.880945,156.639005 198.866269,158.570249 C196.852239,160.500846 194.400348,161.465821 191.511244,161.465821 C188.45592,161.465821 185.87403,160.403831 183.7701,158.278557 C181.664876,156.153284 180.613234,153.548109 180.613234,150.464328 C180.613234,147.533184 181.675871,145.025025 183.801144,142.941791 C185.926418,140.85791 188.47597,139.816617 191.447861,139.816617 C194.046567,139.816617 196.338706,140.63607 198.325572,142.274975 C200.311791,143.914527 201.548408,146.004876 202.033483,148.547313 L194.137114,148.839005 C193.456716,147.950348 192.594577,147.504726 191.553284,147.504726 C190.664627,147.504726 189.934428,147.797065 189.364627,148.380448 C188.796119,148.963831 188.510249,149.700498 188.510249,150.589154 C188.510249,151.49204 188.812935,152.249403 189.417015,152.860597 C190.021741,153.471791 190.774577,153.777711 191.678109,153.777711 C192.998159,153.777711 193.935323,153.006119 194.492189,151.464229 Z M219.893284,140.545522 L227.685522,140.545522 L227.685522,152.276567 C227.685522,153.457562 228.178358,154.048706 229.165323,154.048706 C230.137413,154.048706 230.623781,153.457562 230.623781,152.276567 L230.623781,140.545522 L238.417313,140.545522 L238.417313,152.131045 C238.417313,154.826766 237.520249,157.100149 235.729353,158.955721 C233.936517,160.81 231.74204,161.736816 229.145274,161.736816 C226.185025,161.736816 223.802985,160.660597 221.997214,158.507512 C220.593731,156.826567 219.893284,154.493035 219.893284,151.506269 L219.893284,140.545522 Z M254.356866,140.045572 L254.356866,148.380448 C253.814876,148.075174 253.321393,147.921891 252.878358,147.921891 C251.46194,147.921891 250.751791,149.005871 250.751791,151.172537 L250.751791,161.028607 L242.959552,161.028607 L242.959552,149.67204 C242.959552,146.671692 243.778358,144.278657 245.417264,142.494229 C247.057463,140.709154 249.244826,139.816617 251.981294,139.816617 C252.593781,139.816617 253.384776,139.892935 254.356866,140.045572 Z M277.070647,151.901443 L265.256169,151.901443 C265.075075,151.304478 264.985821,150.75602 264.985821,150.255423 C264.985821,149.561443 265.109353,148.880398 265.359652,148.213582 L269.319801,148.213582 C269.041045,146.671692 268.172438,145.900746 266.71398,145.900746 C265.742537,145.900746 264.950249,146.31403 264.339055,147.13995 C263.727214,147.966517 263.42194,149.026567 263.42194,150.318159 C263.42194,151.66602 263.716219,152.756468 264.30801,153.590149 C264.897861,154.423184 265.67204,154.839701 266.631194,154.839701 C267.409254,154.839701 268.159502,154.451642 268.881294,153.673582 L273.32005,159.007463 C271.249751,160.632786 268.951144,161.445124 266.422289,161.445124 C263.338507,161.445124 260.748209,160.410299 258.650746,158.340647 C256.552637,156.270995 255.504229,153.707861 255.504229,150.651891 C255.504229,147.609502 256.562985,145.0399 258.682438,142.941791 C260.799303,140.844975 263.401244,139.79592 266.485672,139.79592 C269.499602,139.79592 272.031045,140.819104 274.08,142.868706 C276.128308,144.917662 277.15408,147.442637 277.15408,150.442985 C277.15408,150.748905 277.126269,151.235274 277.070647,151.901443 Z" id="Building-Pictures" sketch:type="MSShapeGroup"></path>
        </g>
    </g>
</svg>